<?xml version="1.0" encoding="UTF-8" standalone="no"?>
<svg
   xmlns:dc="http://purl.org/dc/elements/1.1/"
   xmlns:cc="http://creativecommons.org/ns#"
   xmlns:rdf="http://www.w3.org/1999/02/22-rdf-syntax-ns#"
   xmlns:svg="http://www.w3.org/2000/svg"
   xmlns="http://www.w3.org/2000/svg"
   xmlns:sodipodi="http://sodipodi.sourceforge.net/DTD/sodipodi-0.dtd"
   xmlns:inkscape="http://www.inkscape.org/namespaces/inkscape"
   version="1.1"
   id="svg32"
   sodipodi:docname="bany.svg"
   width="50"
   height="50"
   inkscape:version="1.0.1 (3bc2e813f5, 2020-09-07)">
  <metadata
     id="metadata38">
    <rdf:RDF>
      <cc:Work
         rdf:about="">
        <dc:format>image/svg+xml</dc:format>
        <dc:type
           rdf:resource="http://purl.org/dc/dcmitype/StillImage" />
        <dc:title></dc:title>
      </cc:Work>
    </rdf:RDF>
  </metadata>
  <defs
     id="defs36" />
  <sodipodi:namedview
     pagecolor="#ffffff"
     bordercolor="#666666"
     borderopacity="1"
     objecttolerance="10"
     gridtolerance="10"
     guidetolerance="10"
     inkscape:pageopacity="0"
     inkscape:pageshadow="2"
     inkscape:window-width="1366"
     inkscape:window-height="705"
     id="namedview34"
     showgrid="false"
     inkscape:showpageshadow="false"
     inkscape:zoom="1.7033333"
     inkscape:cx="150"
     inkscape:cy="75"
     inkscape:window-x="-8"
     inkscape:window-y="-8"
     inkscape:window-maximized="1"
     inkscape:current-layer="svg32" />
  <g
     id="layer1"
     transform="matrix(0.04641098,0,0,0.04427731,15.409476,7.1845888)">
    <g
       id="g5710"
       transform="translate(-4949.6,-299.31)">
      <path
         id="path5619"
         stroke-linejoin="round"
         style="color:#000080"
         d="m 3174,159.65 c 0,15.583 -12.632,28.216 -28.216,28.216 -15.583,0 -28.216,-12.633 -28.216,-28.216 0,-15.583 12.633,-28.216 28.216,-28.216 15.583,0 28.216,12.633 28.216,28.216 z"
         transform="matrix(0.87331,0,0,0.87331,1966.9,208.18)"
         stroke="#000080"
         stroke-linecap="round"
         stroke-width="7.2"
         fill="#000080" />
      <path
         id="path5621"
         stroke-linejoin="round"
         style="color:#000080"
         d="m 3174,159.65 c 0,15.583 -12.632,28.216 -28.216,28.216 -15.583,0 -28.216,-12.633 -28.216,-28.216 0,-15.583 12.633,-28.216 28.216,-28.216 15.583,0 28.216,12.633 28.216,28.216 z"
         transform="matrix(0.87331,0,0,0.87331,2006,295.71)"
         stroke="#000080"
         stroke-linecap="round"
         stroke-width="7.2"
         fill="#000080" />
      <path
         id="path5623"
         stroke-linejoin="round"
         style="color:#000080"
         d="m 3174,159.65 c 0,15.583 -12.632,28.216 -28.216,28.216 -15.583,0 -28.216,-12.633 -28.216,-28.216 0,-15.583 12.633,-28.216 28.216,-28.216 15.583,0 28.216,12.633 28.216,28.216 z"
         transform="matrix(0.87331,0,0,0.87331,2040.6,384.39)"
         stroke="#000080"
         stroke-linecap="round"
         stroke-width="7.2"
         fill="#000080" />
      <path
         id="path5625"
         stroke-linejoin="round"
         style="color:#000080"
         d="m 3174,159.65 c 0,15.583 -12.632,28.216 -28.216,28.216 -15.583,0 -28.216,-12.633 -28.216,-28.216 0,-15.583 12.633,-28.216 28.216,-28.216 15.583,0 28.216,12.633 28.216,28.216 z"
         transform="matrix(0.87331,0,0,0.87331,2078.6,470.76)"
         stroke="#000080"
         stroke-linecap="round"
         stroke-width="7.2"
         fill="#000080" />
      <path
         id="path5627"
         stroke-linejoin="round"
         style="color:#000080"
         d="m 3174,159.65 c 0,15.583 -12.632,28.216 -28.216,28.216 -15.583,0 -28.216,-12.633 -28.216,-28.216 0,-15.583 12.633,-28.216 28.216,-28.216 15.583,0 28.216,12.633 28.216,28.216 z"
         transform="matrix(0.87331,0,0,0.87331,2114.3,558.29)"
         stroke="#000080"
         stroke-linecap="round"
         stroke-width="7.2"
         fill="#000080" />
      <path
         id="path5629"
         stroke-linejoin="round"
         style="color:#000080"
         d="m 3174,159.65 c 0,15.583 -12.632,28.216 -28.216,28.216 -15.583,0 -28.216,-12.633 -28.216,-28.216 0,-15.583 12.633,-28.216 28.216,-28.216 15.583,0 28.216,12.633 28.216,28.216 z"
         transform="matrix(0.87331,0,0,0.87331,2148.8,645.81)"
         stroke="#000080"
         stroke-linecap="round"
         stroke-width="7.2"
         fill="#000080" />
      <path
         id="path5631"
         stroke="#000080"
         stroke-width="1px"
         fill="#000080"
         d="m 4662.2,318.81 151.44,-151.44 -32.822,-32.822 -65.644,25.336 -32.246,-32.246 -62.765,62.765 28.791,28.791 -19.002,68.523 z" />
      <path
         id="path5633"
         stroke-linejoin="round"
         style="color:#000080"
         d="m 3174,159.65 c 0,15.583 -12.632,28.216 -28.216,28.216 -15.583,0 -28.216,-12.633 -28.216,-28.216 0,-15.583 12.633,-28.216 28.216,-28.216 15.583,0 28.216,12.633 28.216,28.216 z"
         transform="matrix(4.113,0,0,4.113,-7722.9,-34.367)"
         stroke="#000080"
         stroke-linecap="round"
         stroke-width="7.2"
         fill="#000080" />
      <path
         id="path5635"
         stroke-linejoin="round"
         style="color:#000080"
         d="m 3174,159.65 c 0,15.583 -12.632,28.216 -28.216,28.216 -15.583,0 -28.216,-12.633 -28.216,-28.216 0,-15.583 12.633,-28.216 28.216,-28.216 15.583,0 28.216,12.633 28.216,28.216 z"
         transform="matrix(0.84744,-0.21097,0.21097,0.84744,2058.3,830.77)"
         stroke="#000080"
         stroke-linecap="round"
         stroke-width="7.2"
         fill="#000080" />
      <path
         id="path5637"
         stroke-linejoin="round"
         style="color:#000080"
         d="m 3174,159.65 c 0,15.583 -12.632,28.216 -28.216,28.216 -15.583,0 -28.216,-12.633 -28.216,-28.216 0,-15.583 12.633,-28.216 28.216,-28.216 15.583,0 28.216,12.633 28.216,28.216 z"
         transform="matrix(0.84744,-0.21097,0.21097,0.84744,2111.7,903.94)"
         stroke="#000080"
         stroke-linecap="round"
         stroke-width="7.2"
         fill="#000080" />
      <path
         id="path5639"
         stroke-linejoin="round"
         style="color:#000080"
         d="m 3174,159.65 c 0,15.583 -12.632,28.216 -28.216,28.216 -15.583,0 -28.216,-12.633 -28.216,-28.216 0,-15.583 12.633,-28.216 28.216,-28.216 15.583,0 28.216,12.633 28.216,28.216 z"
         transform="matrix(0.84744,-0.21097,0.21097,0.84744,2165.5,975.89)"
         stroke="#000080"
         stroke-linecap="round"
         stroke-width="7.2"
         fill="#000080" />
      <path
         id="path5641"
         stroke-linejoin="round"
         style="color:#000080"
         d="m 3174,159.65 c 0,15.583 -12.632,28.216 -28.216,28.216 -15.583,0 -28.216,-12.633 -28.216,-28.216 0,-15.583 12.633,-28.216 28.216,-28.216 15.583,0 28.216,12.633 28.216,28.216 z"
         transform="matrix(0.84744,-0.21097,0.21097,0.84744,2219.7,1044.8)"
         stroke="#000080"
         stroke-linecap="round"
         stroke-width="7.2"
         fill="#000080" />
      <path
         id="path5643"
         stroke-linejoin="round"
         style="color:#000080"
         d="m 3174,159.65 c 0,15.583 -12.632,28.216 -28.216,28.216 -15.583,0 -28.216,-12.633 -28.216,-28.216 0,-15.583 12.633,-28.216 28.216,-28.216 15.583,0 28.216,12.633 28.216,28.216 z"
         transform="matrix(0.84744,-0.21097,0.21097,0.84744,2273.2,1116.5)"
         stroke="#000080"
         stroke-linecap="round"
         stroke-width="7.2"
         fill="#000080" />
      <path
         id="path5645"
         stroke-linejoin="round"
         style="color:#000080"
         d="m 3174,159.65 c 0,15.583 -12.632,28.216 -28.216,28.216 -15.583,0 -28.216,-12.633 -28.216,-28.216 0,-15.583 12.633,-28.216 28.216,-28.216 15.583,0 28.216,12.633 28.216,28.216 z"
         transform="matrix(0.84744,-0.21097,0.21097,0.84744,2325.6,1186.1)"
         stroke="#000080"
         stroke-linecap="round"
         stroke-width="7.2"
         fill="#000080" />
      <path
         id="path5647"
         stroke-linejoin="round"
         style="color:#000080"
         d="m 3174,159.65 c 0,15.583 -12.632,28.216 -28.216,28.216 -15.583,0 -28.216,-12.633 -28.216,-28.216 0,-15.583 12.633,-28.216 28.216,-28.216 15.583,0 28.216,12.633 28.216,28.216 z"
         transform="matrix(0.62991,-0.60488,0.60488,0.62991,2762.3,2023.5)"
         stroke="#000080"
         stroke-linecap="round"
         stroke-width="7.2"
         fill="#000080" />
      <path
         id="path5649"
         stroke-linejoin="round"
         style="color:#000080"
         d="m 3174,159.65 c 0,15.583 -12.632,28.216 -28.216,28.216 -15.583,0 -28.216,-12.633 -28.216,-28.216 0,-15.583 12.633,-28.216 28.216,-28.216 15.583,0 28.216,12.633 28.216,28.216 z"
         transform="matrix(0.62991,-0.60488,0.60488,0.62991,2851.2,2059.5)"
         stroke="#000080"
         stroke-linecap="round"
         stroke-width="7.2"
         fill="#000080" />
      <path
         id="path5651"
         stroke-linejoin="round"
         style="color:#000080"
         d="m 3174,159.65 c 0,15.583 -12.632,28.216 -28.216,28.216 -15.583,0 -28.216,-12.633 -28.216,-28.216 0,-15.583 12.633,-28.216 28.216,-28.216 15.583,0 28.216,12.633 28.216,28.216 z"
         transform="matrix(0.62991,-0.60488,0.60488,0.62991,2944.5,2099.6)"
         stroke="#000080"
         stroke-linecap="round"
         stroke-width="7.2"
         fill="#000080" />
      <path
         id="path5653"
         stroke-linejoin="round"
         style="color:#000080"
         d="m 3174,159.65 c 0,15.583 -12.632,28.216 -28.216,28.216 -15.583,0 -28.216,-12.633 -28.216,-28.216 0,-15.583 12.633,-28.216 28.216,-28.216 15.583,0 28.216,12.633 28.216,28.216 z"
         transform="matrix(0.62991,-0.60488,0.60488,0.62991,3037.4,2137.8)"
         stroke="#000080"
         stroke-linecap="round"
         stroke-width="7.2"
         fill="#000080" />
      <path
         id="path5655"
         stroke-linejoin="round"
         style="color:#000080"
         d="m 3174,159.65 c 0,15.583 -12.632,28.216 -28.216,28.216 -15.583,0 -28.216,-12.633 -28.216,-28.216 0,-15.583 12.633,-28.216 28.216,-28.216 15.583,0 28.216,12.633 28.216,28.216 z"
         transform="matrix(0.62991,-0.60488,0.60488,0.62991,3128.4,2175.1)"
         stroke="#000080"
         stroke-linecap="round"
         stroke-width="7.2"
         fill="#000080" />
      <path
         id="path5657"
         stroke-linejoin="round"
         style="color:#000080"
         d="m 3174,159.65 c 0,15.583 -12.632,28.216 -28.216,28.216 -15.583,0 -28.216,-12.633 -28.216,-28.216 0,-15.583 12.633,-28.216 28.216,-28.216 15.583,0 28.216,12.633 28.216,28.216 z"
         transform="matrix(0.62991,-0.60488,0.60488,0.62991,3219.7,2214.3)"
         stroke="#000080"
         stroke-linecap="round"
         stroke-width="7.2"
         fill="#000080" />
      <path
         id="path5659"
         stroke-linejoin="round"
         style="color:#000080"
         d="m 3174,159.65 c 0,15.583 -12.632,28.216 -28.216,28.216 -15.583,0 -28.216,-12.633 -28.216,-28.216 0,-15.583 12.633,-28.216 28.216,-28.216 15.583,0 28.216,12.633 28.216,28.216 z"
         transform="matrix(0.76749,-0.41667,0.41667,0.76749,2319.4,1450.1)"
         stroke="#000080"
         stroke-linecap="round"
         stroke-width="7.2"
         fill="#000080" />
      <path
         id="path5661"
         stroke-linejoin="round"
         style="color:#000080"
         d="m 3174,159.65 c 0,15.583 -12.632,28.216 -28.216,28.216 -15.583,0 -28.216,-12.633 -28.216,-28.216 0,-15.583 12.633,-28.216 28.216,-28.216 15.583,0 28.216,12.633 28.216,28.216 z"
         transform="matrix(0.76749,-0.41667,0.41667,0.76749,2389.9,1504.8)"
         stroke="#000080"
         stroke-linecap="round"
         stroke-width="7.2"
         fill="#000080" />
      <path
         id="path5663"
         stroke-linejoin="round"
         style="color:#000080"
         d="m 3174,159.65 c 0,15.583 -12.632,28.216 -28.216,28.216 -15.583,0 -28.216,-12.633 -28.216,-28.216 0,-15.583 12.633,-28.216 28.216,-28.216 15.583,0 28.216,12.633 28.216,28.216 z"
         transform="matrix(0.76749,-0.41667,0.41667,0.76749,2461.4,1558.2)"
         stroke="#000080"
         stroke-linecap="round"
         stroke-width="7.2"
         fill="#000080" />
      <path
         id="path5665"
         stroke-linejoin="round"
         style="color:#000080"
         d="m 3174,159.65 c 0,15.583 -12.632,28.216 -28.216,28.216 -15.583,0 -28.216,-12.633 -28.216,-28.216 0,-15.583 12.633,-28.216 28.216,-28.216 15.583,0 28.216,12.633 28.216,28.216 z"
         transform="matrix(0.76749,-0.41667,0.41667,0.76749,2531.4,1611.4)"
         stroke="#000080"
         stroke-linecap="round"
         stroke-width="7.2"
         fill="#000080" />
      <path
         id="path5667"
         stroke-linejoin="round"
         style="color:#000080"
         d="m 3174,159.65 c 0,15.583 -12.632,28.216 -28.216,28.216 -15.583,0 -28.216,-12.633 -28.216,-28.216 0,-15.583 12.633,-28.216 28.216,-28.216 15.583,0 28.216,12.633 28.216,28.216 z"
         transform="matrix(0.76749,-0.41667,0.41667,0.76749,2602.2,1664.4)"
         stroke="#000080"
         stroke-linecap="round"
         stroke-width="7.2"
         fill="#000080" />
      <path
         id="path5669"
         stroke-linejoin="round"
         style="color:#000080"
         d="m 3174,159.65 c 0,15.583 -12.632,28.216 -28.216,28.216 -15.583,0 -28.216,-12.633 -28.216,-28.216 0,-15.583 12.633,-28.216 28.216,-28.216 15.583,0 28.216,12.633 28.216,28.216 z"
         transform="matrix(0.62991,-0.60488,0.60488,0.62991,3311.9,2253.5)"
         stroke="#000080"
         stroke-linecap="round"
         stroke-width="7.2"
         fill="#000080" />
      <rect
         id="rect5671"
         stroke-linejoin="round"
         style="color:#000080"
         ry="10.401"
         height="433.57999"
         width="335.85999"
         stroke="#000080"
         stroke-linecap="round"
         y="819.21002"
         x="5056.8999"
         stroke-width="6.8491"
         fill="#000080" />
      <path
         id="path5675"
         stroke-linejoin="round"
         d="m 5109.1,1009.8 h -211.9 l 184.26,-184.26 h 282.16 l 280.43,-280.43"
         stroke="#000080"
         stroke-linecap="round"
         stroke-width="105.3"
         fill="none" />
    </g>
  </g>
</svg>
