<?xml version="1.0" encoding="UTF-8" standalone="no"?>
<svg
   xmlns:dc="http://purl.org/dc/elements/1.1/"
   xmlns:cc="http://creativecommons.org/ns#"
   xmlns:rdf="http://www.w3.org/1999/02/22-rdf-syntax-ns#"
   xmlns:svg="http://www.w3.org/2000/svg"
   xmlns="http://www.w3.org/2000/svg"
   xmlns:sodipodi="http://sodipodi.sourceforge.net/DTD/sodipodi-0.dtd"
   xmlns:inkscape="http://www.inkscape.org/namespaces/inkscape"
   version="1.1"
   id="svg40"
   sodipodi:docname="beber.svg"
   width="50"
   height="50"
   inkscape:version="1.0.1 (3bc2e813f5, 2020-09-07)">
  <metadata
     id="metadata44">
    <rdf:RDF>
      <cc:Work
         rdf:about="">
        <dc:format>image/svg+xml</dc:format>
        <dc:type
           rdf:resource="http://purl.org/dc/dcmitype/StillImage" />
        <dc:title></dc:title>
      </cc:Work>
    </rdf:RDF>
  </metadata>
  <defs
     id="defs42" />
  <sodipodi:namedview
     id="base"
     bordercolor="#666666"
     inkscape:pageshadow="2"
     inkscape:window-width="1366"
     pagecolor="#ffffff"
     inkscape:zoom="1.2279853"
     inkscape:window-x="-8"
     showgrid="false"
     borderopacity="1.0"
     inkscape:current-layer="svg40"
     inkscape:cx="218.60322"
     inkscape:cy="152.20177"
     inkscape:window-y="-8"
     inkscape:window-height="705"
     inkscape:pageopacity="0.0"
     inkscape:document-rotation="0"
     inkscape:window-maximized="1" />
  <g
     id="g2686"
     transform="matrix(0.08541109,0,0,0.08486145,-1.155378,-2.2303569)">
    <path
       id="path2688"
       style="fill:#000000;stroke:#000000;stroke-width:3.408"
       d="m 82.432,17.924 c -41.335,0 -64.571,21.371 -64.571,65.036 v 450.12 c 0,40.84 20.891,62.23 62.192,62.23 h 452.03 c 41.3,0 62.22,-20.32 62.22,-62.23 V 82.96 c 0,-42.6 -20.92,-65.036 -63.52,-65.036 0,0 -448.49,-0.142 -448.35,0 z" />
    <g
       id="g2690">
      <g
         id="g2692">
        <path
           id="path2694"
           style="fill:#ffffff"
           d="m 357.69,191.44 c 24.76,0 44.83,-20.07 44.83,-44.83 0,-24.76 -20.07,-44.84 -44.83,-44.84 -24.76,0 -44.83,20.08 -44.83,44.84 0,24.76 20.07,44.83 44.83,44.83 z" />
        <path
           id="path2696"
           style="fill:#ffffff"
           d="m 254.69,155.36 c 25.5,-13 61,11 61.22,37.39 v 85.31 l 40.66,44.8 c 18.62,21 -10.88,49.75 -31.41,28.78 l -46,-50.58 c -2.84,-2.76 -4.98,-6.11 -4.98,-13.9 v -40.85 l -80.09,43.3 v 217.25 c 0,49 -66.45,48.99 -66.45,0.42 v -257.5 c 0,-14.38 5.69,-28.34 19.92,-36.48 z" />
      </g>
      <g
         id="g2698">
        <path
           id="path2700"
           style="fill:#ffffff"
           d="m 421.2,375.86 h 70.49 v -128.5 l -142,-0.25 c -18.25,0 -25.08,20.58 -13.75,33.5 z" />
        <g
           id="g2702">
          <g
             id="g2704">
            <path
               id="path2706"
               style="fill:#ffffff"
               d="m 380.27,241.32 c 3.03,0 5.48,-2.46 5.48,-5.48 0,-3.03 -2.45,-5.48 -5.48,-5.48 -3.03,0 -5.48,2.45 -5.48,5.48 0,3.02 2.45,5.48 5.48,5.48 z" />
          </g>
          <g
             id="g2710">
            <path
               id="path2712"
               style="fill:#ffffff"
               d="m 394.95,242.28 c 3.02,0 5.48,-2.46 5.48,-5.48 0,-3.03 -2.46,-5.48 -5.48,-5.48 -3.03,0 -5.48,2.45 -5.48,5.48 0,3.02 2.45,5.48 5.48,5.48 z" />
          </g>
          <g
             id="g2716">
            <path
               id="path2718"
               style="fill:#ffffff"
               d="m 395.89,226.08 c 3.02,0 5.48,-2.45 5.48,-5.48 0,-3.02 -2.46,-5.48 -5.48,-5.48 -3.03,0 -5.48,2.46 -5.48,5.48 0,3.03 2.45,5.48 5.48,5.48 z" />
          </g>
          <g
             id="g2722">
            <path
               id="path2724"
               style="fill:#ffffff"
               d="m 381.27,225.06 c 3.02,0 5.48,-2.45 5.48,-5.48 0,-3.03 -2.46,-5.48 -5.48,-5.48 -3.03,0 -5.48,2.45 -5.48,5.48 0,3.03 2.45,5.48 5.48,5.48 z" />
          </g>
          <g
             id="g2728">
            <path
               id="path2730"
               style="fill:#ffffff"
               d="m 386.01,210.04 c 3.18,0 5.76,-2.58 5.76,-5.76 0,-3.17 -2.58,-5.75 -5.76,-5.75 -3.17,0 -5.75,2.58 -5.75,5.75 0,3.18 2.58,5.76 5.75,5.76 z" />
          </g>
          <g
             id="g2734">
            <path
               id="path2736"
               style="fill:#ffffff"
               d="m 403.85,212.92 c 3.18,0 5.76,-2.58 5.76,-5.76 0,-3.17 -2.58,-5.75 -5.76,-5.75 -3.17,0 -5.75,2.58 -5.75,5.75 0,3.18 2.58,5.76 5.75,5.76 z" />
          </g>
          <g
             id="g2740">
            <path
               id="path2742"
               style="fill:#ffffff"
               d="m 397.51,198.09 c 3.34,0 6.05,-2.71 6.05,-6.04 0,-3.34 -2.71,-6.05 -6.05,-6.05 -3.33,0 -6.04,2.71 -6.04,6.05 0,3.33 2.71,6.04 6.04,6.04 z" />
          </g>
          <g
             id="g2746">
            <path
               id="path2748"
               style="fill:#ffffff"
               d="m 418.17,207.69 c 3.34,0 6.04,-2.71 6.04,-6.05 0,-3.33 -2.7,-6.04 -6.04,-6.04 -3.34,0 -6.04,2.71 -6.04,6.04 0,3.34 2.7,6.05 6.04,6.05 z" />
          </g>
          <g
             id="g2752">
            <path
               id="path2754"
               style="fill:#ffffff"
               d="m 411.6,192.81 c 3.33,0 6.04,-2.71 6.04,-6.04 0,-3.34 -2.71,-6.05 -6.04,-6.05 -3.34,0 -6.05,2.71 -6.05,6.05 0,3.33 2.71,6.04 6.05,6.04 z" />
          </g>
          <g
             id="g2758">
            <path
               id="path2760"
               style="fill:#ffffff"
               d="m 427.89,192.83 c 3.68,0 6.66,-2.98 6.66,-6.66 0,-3.68 -2.98,-6.66 -6.66,-6.66 -3.68,0 -6.66,2.98 -6.66,6.66 0,3.68 2.98,6.66 6.66,6.66 z" />
          </g>
          <g
             id="g2764">
            <path
               id="path2766"
               style="fill:#ffffff"
               d="m 433.06,213.46 c 3.68,0 6.66,-2.98 6.66,-6.66 0,-3.68 -2.98,-6.66 -6.66,-6.66 -3.68,0 -6.66,2.98 -6.66,6.66 0,3.68 2.98,6.66 6.66,6.66 z" />
          </g>
          <g
             id="g2770">
            <path
               id="path2772"
               style="fill:#ffffff"
               d="m 443.25,200.72 c 3.86,0 6.99,-3.13 6.99,-6.99 0,-3.87 -3.13,-7 -6.99,-7 -3.87,0 -7,3.13 -7,7 0,3.86 3.13,6.99 7,6.99 z" />
          </g>
          <g
             id="g2776">
            <path
               id="path2778"
               style="fill:#ffffff"
               d="m 456.62,214.27 c 4.05,0 7.34,-3.29 7.34,-7.35 0,-4.05 -3.29,-7.34 -7.34,-7.34 -4.06,0 -7.35,3.29 -7.35,7.34 0,4.06 3.29,7.35 7.35,7.35 z" />
          </g>
          <g
             id="g2782">
            <path
               id="path2784"
               style="fill:#ffffff"
               d="m 443.94,227.22 c 4.05,0 7.34,-3.28 7.34,-7.34 0,-4.06 -3.29,-7.34 -7.34,-7.34 -4.06,0 -7.35,3.28 -7.35,7.34 0,4.06 3.29,7.34 7.35,7.34 z" />
          </g>
        </g>
      </g>
    </g>
  </g>
  <path
     style="fill:#000080;stroke-width:0.196094"
     d="m 4.1107906,48.097774 c -0.1197513,-0.07353 -0.2822353,-0.09409 -0.3610752,-0.04568 -0.07884,0.04841 -0.1998434,-0.0028 -0.2688964,-0.113816 -0.069054,-0.111011 -0.2079617,-0.151235 -0.3086855,-0.08938 -0.100724,0.06185 -0.1831345,0.01411 -0.1831345,-0.10608 0,-0.120193 -0.088528,-0.164172 -0.196728,-0.09773 -0.1082004,0.06644 -0.196728,0.02765 -0.196728,-0.0862 0,-0.113848 -0.066396,-0.186436 -0.1475461,-0.161304 -0.1888824,0.05849 -1.2295498,-0.980312 -1.2295498,-1.227349 0,-0.102618 -0.088528,-0.186578 -0.196728,-0.186578 -0.10820027,0 -0.18624443,-0.06597 -0.17343114,-0.146597 0.0128131,-0.08063 0.001747,-0.212565 -0.024591,-0.293192 -0.0263383,-0.08063 -0.0700196,-0.234555 -0.0970697,-0.342059 -0.0270502,-0.107504 -0.069953,-0.217451 -0.0953397,-0.244328 C 0.40472568,44.717632 0.35548977,40.95778 0.35548977,23.896457 c 0,-17.0613222 0.0492359,-20.8211747 0.27579772,-21.0610273 0.0253868,-0.026876 0.0682896,-0.1368234 0.0953397,-0.2443275 0.0270501,-0.1075041 0.0707314,-0.2614304 0.0970697,-0.3420584 0.0263383,-0.080628 0.0374042,-0.2125649 0.024591,-0.293193 -0.0128133,-0.080628 0.0704555,-0.1465965 0.18504141,-0.1465965 0.114586,0 0.1536253,-0.087958 0.086754,-0.195462 -0.066872,-0.1075041 -0.025642,-0.1954619 0.091623,-0.1954619 0.1172641,0 0.299378,-0.2251875 0.4046978,-0.50041677 0.1053197,-0.27522914 0.2747428,-0.44929505 0.3764957,-0.38681295 0.1017531,0.0624821 0.2568419,-0.004827 0.3446425,-0.14957467 0.1647349,-0.27158294 0.8336622,-0.61269578 1.0940947,-0.55792272 0.081151,0.0170672 0.1475461,-0.0663371 0.1475461,-0.18534293 0,-0.1190058 0.1241363,-0.1690452 0.2758586,-0.11119854 0.1517222,0.0578467 0.3160816,0.0652116 0.365243,0.0163666 0.075387,-0.0749014 41.1756273,-0.13302966 41.6062303,-0.0588439 0.08115,0.0139808 0.219358,0.0132097 0.307129,-0.001714 0.697166,-0.11853609 3.058994,2.11815438 2.920935,2.76617258 -0.01718,0.080628 0.06677,0.1465964 0.186543,0.1465964 0.119777,0 0.17014,0.1233375 0.111919,0.2740835 -0.05822,0.150746 -0.06527,0.31441 -0.01566,0.3636976 0.04961,0.049288 0.07983,9.4473924 0.06718,20.8846764 -0.01267,11.437283 -0.02059,20.948988 -0.01761,21.137119 0.003,0.188132 -0.08284,0.342059 -0.190703,0.342059 -0.107859,0 -0.141398,0.08796 -0.07453,0.195462 0.06688,0.107504 0.02261,0.195462 -0.09836,0.195462 -0.120972,0 -0.165235,0.08796 -0.09836,0.195462 0.06687,0.107504 0.04882,0.195462 -0.0401,0.195462 -0.08893,0 -0.249077,0.197905 -0.355885,0.439789 -0.106807,0.241885 -0.393383,0.526616 -0.636833,0.632736 -0.243451,0.10612 -0.442638,0.265238 -0.442638,0.353595 0,0.08835 -0.08853,0.106286 -0.196729,0.03984 -0.1082,-0.06644 -0.196727,-0.02246 -0.196727,0.09773 0,0.120194 -0.08242,0.16793 -0.183135,0.10608 -0.100726,-0.06185 -0.242471,-0.01706 -0.314991,0.09952 -0.07252,0.116587 -0.24704,0.168061 -0.387815,0.114386 -0.140779,-0.05367 -0.296981,-0.05683 -0.347119,-0.007 -0.1478,0.146848 -41.4737059,0.188446 -41.7122163,0.04199 z M 14.16363,43.500936 c 0.278505,-0.206596 0.688897,-0.618424 0.911984,-0.915174 0.395182,-0.525672 0.407093,-0.79219 0.46323,-10.365083 l 0.05762,-9.825535 3.140032,-1.692619 c 1.727017,-0.930938 3.17209,-1.692616 3.211272,-1.692616 0.03918,0 0.113707,0.87623 0.165612,1.947178 l 0.09437,1.947178 0.898338,1.033617 c 0.494088,0.568489 1.600039,1.779259 2.457671,2.690601 1.466444,1.558279 1.60744,1.656986 2.36688,1.656986 0.978551,0 1.749396,-0.626321 1.926726,-1.565491 0.160977,-0.852556 -0.07257,-1.232812 -2.109973,-3.435453 l -1.74122,-1.882436 -0.0012,-3.5905 c -0.0016,-4.835874 -0.273156,-5.677112 -2.163578,-6.699387 -1.77531,-0.960027 -2.163592,-0.854925 -7.634762,2.066636 -2.650953,1.415587 -5.114833,2.83107 -5.47529,3.14552 -0.360457,0.314448 -0.7495832,0.893409 -0.8647254,1.286579 -0.1408497,0.480952 -0.1899227,4.627489 -0.1499767,12.672692 0.058288,11.739485 0.066812,11.967914 0.4668131,12.509567 0.908563,1.230316 2.817912,1.569837 3.980074,0.70774 z M 40.9575,24.18965 v -5.570666 h -6.305066 c -6.864284,0 -7.327004,0.06624 -7.58455,1.085788 -0.276513,1.094619 0.06339,1.606749 3.887553,5.857338 l 3.77703,4.198207 h 3.112516 3.112517 z m -9.248296,-6.056831 c 0.326883,-0.391334 0.109143,-0.882069 -0.391376,-0.882069 -0.223191,0 -0.457195,0.133058 -0.520003,0.295683 -0.113043,0.292692 0.233429,0.87709 0.520003,0.87709 0.0817,0 0.257821,-0.130818 0.391376,-0.290704 z m 1.280811,-0.295683 c 0,-0.305201 -0.127085,-0.507618 -0.344866,-0.54929 -0.389423,-0.07451 -0.642671,0.393511 -0.463686,0.85693 0.187624,0.485801 0.808552,0.249549 0.808552,-0.30764 z m -1.082004,-1.486877 c 0,-0.368617 -0.104228,-0.467743 -0.491819,-0.467743 -0.388934,0 -0.491819,0.09882 -0.491819,0.472367 0,0.259802 0.110658,0.510719 0.245909,0.557593 0.433667,0.150298 0.737729,-0.08142 0.737729,-0.562217 z m 1.261079,0.387062 c 0.1425,-0.368961 -0.200108,-0.854805 -0.602793,-0.854805 -0.334954,0 -0.546262,0.476063 -0.390416,0.87958 0.151284,0.391696 0.838983,0.374543 0.993209,-0.02477 z m 4.21022,-0.207533 c 0.03694,-0.257815 0.224354,-0.451961 0.471731,-0.488655 0.981087,-0.145533 0.966306,-1.331388 -0.0166,-1.331388 -0.462016,0 -0.559161,-0.07135 -0.484317,-0.355713 0.118398,-0.449843 -0.403594,-0.893916 -0.899354,-0.765105 -0.256171,0.06656 -0.408691,-0.02028 -0.474452,-0.270123 -0.110817,-0.421049 -1.033531,-0.518973 -1.167368,-0.12389 -0.06466,0.190875 -0.153773,0.186091 -0.407342,-0.02187 -0.433295,-0.355354 -0.916077,-0.145447 -0.935306,0.406657 -0.0085,0.245258 -0.06018,0.335976 -0.114757,0.201596 -0.05458,-0.13438 -0.305792,-0.244327 -0.55826,-0.244327 -0.252466,0 -0.498711,0.109947 -0.547205,0.244327 -0.13108,0.363211 0.220938,0.928445 0.578216,0.928445 0.254068,0 0.267007,0.05417 0.06943,0.290703 -0.133555,0.159887 -0.191437,0.423761 -0.128627,0.586387 0.166611,0.431387 0.930744,0.369966 1.050339,-0.08443 0.08251,-0.313486 0.162684,-0.341242 0.457426,-0.158356 0.272599,0.169145 0.431181,0.160902 0.668451,-0.03475 0.266985,-0.220153 0.311067,-0.197714 0.311067,0.158355 0,0.3108 0.121811,0.414857 0.485646,0.414857 0.35086,0 0.454218,0.08137 0.372408,0.293194 -0.206498,0.534661 0.08924,0.909656 0.665469,0.843803 0.383313,-0.04381 0.560072,-0.187266 0.603399,-0.489725 z m -5.176207,-1.429119 c 0,-0.305201 -0.127085,-0.507619 -0.344867,-0.54929 -0.389421,-0.07451 -0.642669,0.39351 -0.463686,0.856929 0.187625,0.4858 0.808553,0.24955 0.808553,-0.307639 z m -1.324281,-1.279833 c 3.312922,-1.375318 3.133666,-6.2111207 -0.271627,-7.3277361 -1.703373,-0.5585461 -3.82606,0.272782 -4.6356,1.8154829 -1.704252,3.2477122 1.551804,6.9052182 4.907227,5.5122532 z"
     id="path46" />
</svg>
