<?xml version="1.0" encoding="UTF-8" standalone="no"?>
<svg
   xmlns:dc="http://purl.org/dc/elements/1.1/"
   xmlns:cc="http://creativecommons.org/ns#"
   xmlns:rdf="http://www.w3.org/1999/02/22-rdf-syntax-ns#"
   xmlns:svg="http://www.w3.org/2000/svg"
   xmlns="http://www.w3.org/2000/svg"
   xmlns:sodipodi="http://sodipodi.sourceforge.net/DTD/sodipodi-0.dtd"
   xmlns:inkscape="http://www.inkscape.org/namespaces/inkscape"
   version="1.1"
   id="svg4"
   sodipodi:docname="bebidas.svg"
   width="50"
   height="50"
   inkscape:version="1.0.1 (3bc2e813f5, 2020-09-07)">
  <metadata
     id="metadata10">
    <rdf:RDF>
      <cc:Work
         rdf:about="">
        <dc:format>image/svg+xml</dc:format>
        <dc:type
           rdf:resource="http://purl.org/dc/dcmitype/StillImage" />
        <dc:title></dc:title>
      </cc:Work>
    </rdf:RDF>
  </metadata>
  <defs
     id="defs8" />
  <sodipodi:namedview
     pagecolor="#ffffff"
     bordercolor="#666666"
     borderopacity="1"
     objecttolerance="10"
     gridtolerance="10"
     guidetolerance="10"
     inkscape:pageopacity="0"
     inkscape:pageshadow="2"
     inkscape:window-width="1366"
     inkscape:window-height="705"
     id="namedview6"
     showgrid="false"
     inkscape:showpageshadow="false"
     inkscape:zoom="1.7166667"
     inkscape:cx="150"
     inkscape:cy="75"
     inkscape:window-x="-8"
     inkscape:window-y="-8"
     inkscape:window-maximized="1"
     inkscape:current-layer="layer2" />
  <g
     id="layer2"
     inkscape:label="Layer"
     inkscape:groupmode="layer"
     transform="translate(307.88,-254.29)">
    <path
       id="path3885"
       style="fill:#000080;stroke-width:0.279462"
       inkscape:connector-curvature="0"
       d="m -289.1056,297.8012 c 1.03751,-0.0538 2.73525,-0.0538 3.77275,0 1.03751,0.0538 0.18864,0.0978 -1.88637,0.0978 -2.07502,0 -2.92375,-0.044 -1.88638,-0.0978 z m -4.7559,-0.27191 c 0.41992,-0.0638 1.17447,-0.065 1.67678,-0.003 0.5023,0.0622 0.15871,0.11437 -0.76353,0.11593 -0.92222,0.002 -1.3332,-0.0493 -0.91325,-0.11308 z m 9.92876,-0.16265 c -0.3474,-0.13038 -2.64377,-0.25394 -5.10299,-0.27458 l -4.47141,-0.0375 4.15002,-0.0894 c 3.60368,-0.0776 4.1056,-0.1432 3.81104,-0.49808 -0.18655,-0.22478 -0.4387,-0.34718 -0.56032,-0.27201 -0.12163,0.0752 -1.7737,0.18363 -3.67131,0.24101 -2.05671,0.0622 -2.71644,0.0316 -1.63354,-0.0758 l 1.81651,-0.18015 -1.76752,-0.38386 c -1.16483,-0.25297 -1.64129,-0.46391 -1.39732,-0.61859 0.21034,-0.13336 0.23769,-0.23656 0.0633,-0.23899 -0.72498,-0.0101 -1.14591,-2.60064 -1.04502,-6.4318 0.15297,-5.81056 0.64643,-8.78738 2.03399,-12.2703 0.74664,-1.87421 1.13331,-7.97722 0.60655,-9.57322 -0.37113,-1.12456 -0.14434,-1.97238 0.79138,-2.95865 0.847,-0.89263 2.59834,-0.86645 3.51732,0.0526 0.66767,0.66766 0.68041,0.76754 0.63335,4.96043 l -0.048,4.27911 1.41741,4.05219 c 0.77956,2.22869 1.50491,4.46076 1.61186,4.96043 0.17416,0.81343 0.29598,0.90825 1.16687,0.90825 0.55499,0 0.90071,0.11601 0.80539,0.27025 -0.0919,0.14862 -0.82241,0.25305 -1.6234,0.23205 -1.97131,-0.0517 -2.71398,0.37778 -2.71398,1.56937 0,0.51379 0.18169,1.36902 0.40377,1.90051 0.37501,0.89748 0.49878,0.96995 1.73722,1.01679 0.7334,0.0277 1.45715,0.17415 1.60837,0.32535 0.35402,0.35402 -0.24192,0.36017 -1.44564,0.015 -0.52606,-0.15089 -0.90641,-0.15502 -0.90641,-0.01 0,0.44734 1.054,0.82874 2.28721,0.82765 2.2774,-0.002 3.86107,-1.65583 3.86107,-4.03235 0,-1.11535 -0.55711,-1.55584 -1.96776,-1.55584 -0.73328,0 -0.85253,-0.0846 -0.68941,-0.48905 0.10849,-0.26899 0.3623,-1.68376 0.56401,-3.14394 0.20172,-1.46019 0.76948,-4.41549 1.26167,-6.56734 0.86189,-3.76798 0.8883,-4.06588 0.71559,-8.06636 -0.12775,-2.95922 -0.0868,-4.26514 0.14224,-4.54125 0.37591,-0.45295 2.28629,-0.51552 3.06208,-0.10031 0.44904,0.24033 0.5184,0.5252 0.42517,1.74664 -0.0613,0.80272 -0.12234,1.61667 -0.13574,1.8088 -0.0134,0.19213 -0.14176,0.34933 -0.28525,0.34933 -0.14382,0 -0.20887,-0.6842 -0.14496,-1.52485 0.10093,-1.32769 0.0363,-1.58064 -0.49996,-1.95623 -0.78493,-0.54978 -1.33894,-0.56876 -0.61479,-0.0211 0.29835,0.22566 0.39555,0.4143 0.216,0.41919 -0.17956,0.005 -0.54722,0.0936 -0.81704,0.19713 -0.37822,0.14514 -0.44946,0.0812 -0.3111,-0.27946 0.0987,-0.25723 0.0601,-0.4677 -0.0859,-0.4677 -0.70081,0 -0.69762,2.52591 0.003,2.7378 0.33832,0.10224 0.35179,0.0552 0.0699,-0.2436 -0.19213,-0.20366 -0.34534,-0.56522 -0.34045,-0.80346 0.007,-0.36449 0.0677,-0.35563 0.38013,0.0559 0.20419,0.26899 0.5217,0.48906 0.70562,0.48906 0.22931,0 0.19768,0.19515 -0.10068,0.62111 -0.56893,0.81225 -0.55074,1.12933 0.054,0.94114 0.92639,-0.28827 1.10477,0.21598 1.27617,3.60784 0.16458,3.25712 0.32725,4.11115 1.6236,8.52356 0.54218,1.84551 0.62996,2.92233 0.73448,9.01263 0.0653,3.80402 0.22992,6.91666 0.36587,6.91666 0.3253,0 0.45897,-7.79557 0.19167,-11.17844 -0.11538,-1.46019 -0.41422,-3.55419 -0.66406,-4.65359 l -0.45427,-1.99859 0.91494,-1.13851 c 0.91049,-1.13296 0.91496,-1.15378 0.92421,-4.28916 0.005,-1.73294 -0.0863,-3.53043 -0.20321,-3.99434 -0.174,-0.69063 -0.0831,-0.98309 0.50155,-1.61394 0.5781,-0.62376 0.86167,-0.7337 1.4894,-0.5774 1.15396,0.28735 1.51779,0.89606 1.31275,2.19642 -0.0969,0.61482 -0.17974,2.47263 -0.184,4.12848 l -0.008,3.01064 1.32069,1.98613 c 1.0228,1.53816 1.37401,2.36315 1.55697,3.65759 0.25923,1.83394 0.0554,4.47725 -0.32706,4.24082 -0.13274,-0.082 -0.24136,-0.016 -0.24136,0.14678 0,0.16278 0.12911,0.29595 0.28693,0.29595 0.31162,0 0.0672,10.34676 -0.2514,10.64216 -0.78724,0.7299 -4.93671,0.88806 -5.79019,0.22072 -0.3528,-0.27587 -0.67295,-0.0372 -0.67295,0.50175 0,0.22742 0.35388,0.38523 0.90826,0.40502 0.50856,0.0182 0.6623,0.0811 0.34932,0.14307 -0.3074,0.0609 -1.25059,0.26384 -2.09597,0.45108 -1.45472,0.32219 -1.49214,0.35134 -0.69866,0.54405 0.46112,0.11201 -0.0634,0.13932 -1.16558,0.0607 -1.54144,-0.10995 -2.05747,-0.0522 -2.23571,0.25018 -0.12745,0.21623 -0.54612,0.55955 -0.93039,0.76294 -0.87905,0.46524 -4.5354,0.78304 -5.37687,0.46731 z m 4.81236,-0.64611 c 0.61792,-0.24725 1.1235,-0.56164 1.1235,-0.69866 0,-0.33736 -0.48443,-0.31631 -0.69866,0.0303 -0.095,0.15371 -0.3151,0.27947 -0.48912,0.27947 -0.17401,0 -0.077,-0.17503 0.21554,-0.38896 0.45195,-0.33045 0.47585,-0.45652 0.15893,-0.83838 -0.46665,-0.56228 -0.97194,-0.57301 -1.42241,-0.0302 -0.21731,0.26185 -0.78088,0.40606 -1.50139,0.38421 l -1.15351,-0.035 1.18252,-0.19272 c 2.05677,-0.33519 1.65305,-0.57572 -0.96633,-0.57572 -1.85901,0 -2.57005,0.0996 -2.67561,0.37468 -0.20408,0.53181 0.0976,0.89021 1.0621,1.26187 0.81084,0.31241 0.81313,0.31823 0.0699,0.17631 -0.92801,-0.17717 -1.00956,0.0645 -0.13973,0.41414 1.03507,0.41605 4.02119,0.324 5.23434,-0.16137 z m -3.76716,0.0285 c 0.63879,-0.22266 2.32577,-0.28365 2.19959,-0.0795 -0.0751,0.12158 -0.66367,0.21112 -1.30786,0.19899 -0.64416,-0.0121 -1.04547,-0.0659 -0.89176,-0.11948 z m 2.33466,-4.85452 0.0663,-2.23465 -1.06073,-0.0875 c -0.99729,-0.0823 -1.0782,-0.029 -1.35266,0.89061 -0.18954,0.63508 -0.20211,1.43836 -0.0358,2.29039 0.23385,1.1983 0.332,1.32023 1.13032,1.40401 0.48081,0.0505 0.94444,0.0648 1.03029,0.0317 0.0858,-0.033 0.1859,-1.06559 0.22234,-2.29463 z m -1.71118,1.45923 c 0.1892,-0.0765 0.56647,-0.0812 0.83839,-0.0104 0.27191,0.0709 0.1171,0.13348 -0.34402,0.13918 -0.46112,0.006 -0.6836,-0.0523 -0.49437,-0.12883 z m -0.0646,-0.93454 c -0.0983,-0.15912 0.14233,-0.27946 0.55893,-0.27946 0.41659,0 0.65727,0.12034 0.55892,0.27946 -0.095,0.15371 -0.3465,0.27946 -0.55892,0.27946 -0.21242,0 -0.46394,-0.12575 -0.55893,-0.27946 z m -0.13973,-0.83838 c 0,-0.1537 0.32183,-0.27946 0.71514,-0.27946 0.40562,0 0.64039,0.12096 0.54244,0.27946 -0.095,0.1537 -0.41682,0.27946 -0.71514,0.27946 -0.29833,0 -0.54244,-0.12576 -0.54244,-0.27946 z m 0.20428,-1.30115 c 0.1892,-0.0765 0.56647,-0.0812 0.83839,-0.0103 0.27191,0.0709 0.1171,0.13349 -0.34402,0.13918 -0.46112,0.006 -0.6836,-0.0523 -0.49437,-0.12883 z m -5.29443,0.66297 0.08,-2.71536 -2.24582,-0.0419 c -1.2352,-0.0231 -2.40302,-0.0545 -2.59515,-0.0699 -0.51815,-0.0414 -0.66861,4.64632 -0.16246,5.06215 0.48095,0.39528 1.40084,0.53579 3.30633,0.50505 l 1.53704,-0.0248 0.08,-2.71535 z m 13.96309,1.03515 c 0.54261,-0.1106 0.6288,-0.30473 0.6288,-1.41653 v -1.28837 l -2.02058,0.1991 c -1.11131,0.1095 -2.11738,0.25893 -2.2357,0.33206 -0.26526,0.16393 -0.28654,2.1711 -0.0258,2.43186 0.17693,0.17693 2.23082,0.0318 3.65314,-0.25814 z m 6.49752,-8.79743 c 0,-0.16278 -0.12576,-0.21823 -0.27946,-0.12324 -0.15371,0.095 -0.27946,0.22818 -0.27946,0.29594 0,0.0678 0.12575,0.12324 0.27946,0.12324 0.1537,0 0.27946,-0.13318 0.27946,-0.29594 z m -0.90825,-0.4181 c 0.19611,-0.06 0.34933,-0.55393 0.34933,-1.12626 0,-0.92086 -0.0608,-1.00319 -0.6288,-0.85096 -0.34583,0.0927 -1.28902,0.17022 -2.09597,0.17232 l -1.46718,0.004 v 0.96041 c 0,0.87638 0.0794,0.96928 0.90825,1.06192 0.88009,0.0984 2.21891,-0.003 2.93437,-0.22127 z m -17.18615,-5.50399 c -0.15239,-0.19213 -0.42872,-0.99647 -0.61403,-1.78741 -0.19412,-0.82846 -0.62427,-1.70801 -1.01473,-2.0748 -0.37278,-0.35019 -0.67376,-0.83487 -0.66887,-1.07708 0.007,-0.35194 0.0956,-0.32813 0.4406,0.11858 0.39893,0.51651 0.423,0.41039 0.31688,-1.3973 -0.0991,-1.68833 -0.20111,-1.99971 -0.74479,-2.27378 -0.38617,-0.19467 -0.51223,-0.3903 -0.32577,-0.50555 0.1673,-0.1034 0.30419,-0.43209 0.30419,-0.73042 0,-0.29833 0.13921,-0.54244 0.30937,-0.54244 0.17015,0 0.23697,0.18864 0.1485,0.4192 -0.0885,0.23055 -0.039,0.41919 0.10983,0.41919 0.55172,0 0.25744,-1.14119 -0.3581,-1.38858 -0.34584,-0.13901 -0.48524,-0.26072 -0.30976,-0.27046 0.67619,-0.0376 0.74295,-2.25341 0.0679,-2.25341 -0.13857,0 -0.0984,0.24579 0.0892,0.54621 0.48107,0.77031 0.0221,1.08819 -0.49839,0.34519 -0.56413,-0.80539 -0.90479,-0.77297 -1.12568,0.10719 -0.12563,0.50053 -0.26935,0.63023 -0.47283,0.42676 -0.20348,-0.20348 -0.19453,-0.507 0.0294,-0.99857 0.41285,-0.9061 -0.0218,-0.91848 -0.61222,-0.0174 -0.59526,0.90848 -0.61801,2.509 -0.0325,2.28432 0.23039,-0.0884 0.70199,-0.0559 1.04799,0.0721 0.59137,0.2189 0.57463,0.24485 -0.27915,0.43249 -0.72546,0.15946 -0.90826,0.33846 -0.90826,0.88942 0,0.38697 0.32466,0.99066 0.73946,1.37512 0.40671,0.3769 0.61136,0.68529 0.45475,0.68529 -0.39332,0 -0.63556,2.81501 -0.29735,3.45582 0.20952,0.39686 0.18535,0.49081 -0.10121,0.39333 -0.23088,-0.0785 -0.39091,-0.60435 -0.41383,-1.35977 -0.0206,-0.67744 -0.052,-1.64044 -0.0699,-2.13997 -0.0179,-0.49954 -0.12682,-0.90817 -0.24209,-0.90809 -0.11528,1e-4 -0.2096,0.9928 -0.2096,2.20599 0,1.77685 0.10353,2.32028 0.53238,2.79445 0.29279,0.32373 0.68667,0.58862 0.87525,0.58862 0.18858,0 0.95509,0.56457 1.70332,1.25459 0.74824,0.69002 1.59593,1.25593 1.88373,1.25758 0.38023,0.002 0.44753,-0.0925 0.24619,-0.34634 z m -2.35442,-7.19613 c 0.0586,-0.61482 0.15627,-1.11784 0.21698,-1.11784 0.0607,0 0.11038,0.50302 0.11038,1.11784 0,0.61482 -0.0976,1.11785 -0.21698,1.11785 -0.11934,0 -0.16901,-0.50303 -0.11038,-1.11785 z m -1.97821,-1.41969 c -0.7297,-0.425 -0.59106,-0.81893 0.27947,-0.79394 0.42269,0.0121 0.60607,0.0872 0.40754,0.1669 -0.27721,0.11122 -0.28547,0.23583 -0.0357,0.53687 0.37798,0.45544 0.053,0.50044 -0.65134,0.0902 z m 13.06491,4.49374 c 0.095,-0.1537 -0.0233,-0.27946 -0.26297,-0.27946 -0.23963,0 -0.43569,0.12576 -0.43569,0.27946 0,0.1537 0.11834,0.27946 0.26297,0.27946 0.14464,0 0.3407,-0.12576 0.43569,-0.27946 z m -27.17779,23.5541 c 0.42268,-0.064 1.11436,-0.064 1.53704,0 0.42269,0.064 0.0769,0.11642 -0.76852,0.11642 -0.84538,0 -1.19121,-0.0524 -0.76852,-0.11642 z m 3.35719,-0.42557 c 0.0375,-0.60321 0.38387,-1.03755 0.83464,-1.04674 0.11528,-0.002 0.17816,0.146 0.13973,0.32968 -0.10772,0.51493 2.70275,0.89293 4.06591,0.5469 1.23134,-0.31254 1.82858,-0.16618 1.33519,0.32719 -0.17345,0.17346 -1.63284,0.34313 -3.36082,0.39072 -3.01988,0.0832 -3.05369,0.0771 -3.01485,-0.54772 z m 27.73308,-0.21266 c 0.10017,-0.16207 1.6331,-0.27945 3.64951,-0.27945 2.13155,0 3.4768,0.10812 3.4768,0.27945 0,0.17205 -1.40282,0.27947 -3.64951,0.27947 -2.36185,0 -3.58859,-0.0986 -3.4768,-0.27947 z m 7.98258,0.017 c -0.55291,-0.34987 0.0979,-1.13486 0.94096,-1.13486 1.05338,0 1.58821,-0.61729 1.60526,-1.85272 0.009,-0.62543 -0.10763,-1.37618 -0.25837,-1.66832 -0.15073,-0.29215 -0.22303,-0.67233 -0.16066,-0.8449 0.0624,-0.17256 -0.12487,-0.37603 -0.41607,-0.45219 -0.40237,-0.10522 -0.57636,-0.49943 -0.72487,-1.64248 -0.10747,-0.82721 -0.3839,-2.23902 -0.61432,-3.13723 -0.2304,-0.89829 -0.35944,-1.7786 -0.28675,-1.95623 0.0727,-0.1776 0.14208,-0.10285 0.15422,0.16613 0.0193,0.42819 0.33748,0.48906 2.55667,0.48906 2.46863,0 2.53227,-0.0164 2.4453,-0.62879 -0.0856,-0.60291 -0.20109,-0.62873 -2.80637,-0.62781 -1.49443,5.6e-4 -2.5005,-0.0849 -2.23571,-0.18995 0.2648,-0.10502 1.57078,-0.19979 2.90223,-0.21059 l 2.42074,-0.0196 0.16743,1.04798 c 0.0962,0.6021 -0.0108,1.70192 -0.25158,2.58503 -0.23046,0.84536 -0.42051,1.99322 -0.42232,2.5508 -0.002,0.55758 -0.19196,1.17033 -0.42252,1.36165 -0.23056,0.19134 -0.4192,0.57658 -0.4192,0.8561 0,0.27952 -0.13705,0.59291 -0.30456,0.69645 -0.18638,0.11519 -0.23482,0.58244 -0.12483,1.20419 0.32155,1.81761 0.4254,1.96813 1.49312,2.16442 1.0384,0.19089 1.43923,0.51139 1.44714,1.15711 0.005,0.41942 -6.03528,0.49792 -6.68476,0.0869 z m 3.38794,-8.03282 c -0.20174,-0.0807 -0.44279,-0.0708 -0.53565,0.022 -0.0929,0.0929 0.0722,0.15892 0.36679,0.14678 0.32558,-0.0134 0.39178,-0.0796 0.16885,-0.16884 z m -46.58651,7.72962 c -0.28472,-0.46067 -0.1296,-0.49052 1.4014,-0.26965 1.58279,0.22835 1.57877,0.26776 -0.046,0.44948 -0.68882,0.0771 -1.24204,0.004 -1.35542,-0.17984 z m 4.12627,-0.19355 c 0.42269,-0.064 1.11436,-0.064 1.53705,0 0.42269,0.064 0.0768,0.11643 -0.76852,0.11643 -0.84538,0 -1.19121,-0.0524 -0.76853,-0.11643 z m 5.37967,-0.35877 c 0.13201,-0.41593 0.0474,-0.56376 -0.33049,-0.57785 -0.43963,-0.0164 -0.42767,-0.0578 0.089,-0.3079 1.03608,-0.50169 1.29844,-3.89318 0.39044,-5.04763 -0.68472,-0.87046 -0.48454,-1.09124 0.80236,-0.88508 l 1.00498,0.16101 -0.035,-1.35229 c -0.0306,-1.18128 0.15778,-2.67008 1.15776,-9.15208 0.18962,-1.22912 0.16161,-1.35287 -0.26881,-1.1877 -0.26426,0.1014 -1.23819,0.18437 -2.1643,0.18437 -1.3998,0 -1.65602,0.0724 -1.51902,0.42945 0.0906,0.2362 0.4167,2.21688 0.72459,4.40152 0.82151,5.82899 0.86919,6.30464 0.56622,5.64874 -0.32971,-0.71369 -2.0085,-11.63704 -1.81777,-11.82763 0.29137,-0.29137 3.24233,-0.553 3.98487,-0.3533 0.74661,0.20079 0.76827,0.26224 0.7543,2.14171 -0.0133,1.79422 -0.22407,3.67715 -0.96493,8.62193 -0.21648,1.44481 -0.20734,1.98722 0.036,2.13763 0.5862,0.3623 0.0564,1.00994 -0.77747,0.95042 -0.43691,-0.0312 -0.53333,-0.005 -0.21423,0.0585 0.4963,0.0985 0.62748,0.44652 0.90728,2.40685 0.1799,1.26044 0.33536,2.51178 0.34544,2.78075 0.0101,0.26899 0.2066,0.48906 0.43666,0.48906 0.23008,0 0.34061,0.12576 0.24561,0.27947 -0.53839,0.8711 -1.13088,-0.34997 -1.40305,-2.89159 -0.10997,-1.02685 -0.29416,-1.92524 -0.40933,-1.99642 -0.11516,-0.0712 -0.28896,0.46506 -0.38619,1.19161 -0.29863,2.23124 -0.81167,4.25535 -1.07856,4.25535 -0.1396,0 -0.174,-0.25151 -0.0764,-0.55892 z m 3.17386,-18.87005 c 0.51939,-0.51938 -2.3139,-0.95096 -3.43041,-0.52251 -0.58424,0.22419 -0.56175,0.59273 0.047,0.77083 0.58645,0.17157 3.15179,-0.0167 3.38346,-0.24833 z m 26.5191,18.66548 c 0.65324,-0.0588 1.72219,-0.0588 2.37543,0 0.65325,0.0588 0.11878,0.10698 -1.18771,0.10698 -1.30649,0 -1.84097,-0.0481 -1.18772,-0.10698 z m -35.28222,-0.63375 c -0.095,-0.15371 0.0862,-0.27947 0.4027,-0.27947 0.31649,0 0.57542,0.12576 0.57542,0.27947 0,0.15369 -0.18122,0.27945 -0.40271,0.27945 -0.22148,0 -0.48042,-0.12576 -0.57541,-0.27945 z m 2.93436,0 c 0,-0.15371 0.18122,-0.27947 0.40271,-0.27947 0.22148,0 0.48042,0.12576 0.57541,0.27947 0.095,0.15369 -0.0862,0.27945 -0.4027,0.27945 -0.31649,0 -0.57542,-0.12576 -0.57542,-0.27945 z m 36.05074,-1.3998 c -0.55199,-0.17875 -0.41997,-0.22205 0.6288,-0.20629 0.73009,0.011 1.32745,0.12531 1.32745,0.25409 0,0.28482 -1.00487,0.26027 -1.95625,-0.0478 z m -17.9555,-5.50454 c 0.34583,-0.0666 0.91175,-0.0666 1.25758,0 0.34584,0.0666 0.0629,0.1211 -0.62879,0.1211 -0.69167,0 -0.97463,-0.0545 -0.62879,-0.1211 z m -1.04799,-0.56315 c -1.52816,-0.27414 -1.03032,-0.53246 0.59721,-0.30987 0.95557,0.13068 1.79899,0.2992 1.87425,0.37448 0.15974,0.15974 -1.45645,0.1175 -2.47146,-0.0646 z m -0.18309,-0.82645 c 0.20078,-0.20077 3.0182,-0.14272 3.22724,0.0665 0.0677,0.0677 -0.67345,0.12302 -1.6469,0.12302 -0.97346,0 -1.68466,-0.0853 -1.58042,-0.18952 z m 0.23049,-0.57323 c -0.64908,-0.0798 -0.88595,-0.23107 -0.78274,-0.49996 0.10142,-0.2643 0.006,-0.33115 -0.30286,-0.21259 -0.28374,0.10888 -0.38144,0.0608 -0.26364,-0.12984 0.19962,-0.32301 6.33208,-0.36057 6.33208,-0.0388 0,0.23708 -1.47887,0.51962 -2.89943,0.55397 -0.99064,0.024 -1.05453,0.0593 -0.45413,0.2516 l 0.69866,0.22375 -0.69866,-0.0169 c -0.38426,-0.009 -1.11749,-0.0683 -1.62938,-0.13125 z" />
  </g>
</svg>
