<?xml version="1.0" encoding="UTF-8" standalone="no"?>
<svg
   xmlns:dc="http://purl.org/dc/elements/1.1/"
   xmlns:cc="http://creativecommons.org/ns#"
   xmlns:rdf="http://www.w3.org/1999/02/22-rdf-syntax-ns#"
   xmlns:svg="http://www.w3.org/2000/svg"
   xmlns="http://www.w3.org/2000/svg"
   xmlns:xlink="http://www.w3.org/1999/xlink"
   xmlns:sodipodi="http://sodipodi.sourceforge.net/DTD/sodipodi-0.dtd"
   xmlns:inkscape="http://www.inkscape.org/namespaces/inkscape"
   version="1.1"
   id="svg16"
   sodipodi:docname="boton.svg"
   width="50"
   height="50"
   inkscape:version="1.0.1 (3bc2e813f5, 2020-09-07)">
  <metadata
     id="metadata20">
    <rdf:RDF>
      <cc:Work
         rdf:about="">
        <dc:format>image/svg+xml</dc:format>
        <dc:type
           rdf:resource="http://purl.org/dc/dcmitype/StillImage" />
        <dc:title></dc:title>
      </cc:Work>
    </rdf:RDF>
  </metadata>
  <sodipodi:namedview
     pagecolor="#ffffff"
     bordercolor="#666666"
     borderopacity="1"
     objecttolerance="10"
     gridtolerance="10"
     guidetolerance="10"
     inkscape:pageopacity="0"
     inkscape:pageshadow="2"
     inkscape:window-width="1366"
     inkscape:window-height="705"
     id="namedview18"
     showgrid="false"
     inkscape:showpageshadow="false"
     inkscape:zoom="3.4066667"
     inkscape:cx="123.80723"
     inkscape:cy="48.797877"
     inkscape:window-x="-8"
     inkscape:window-y="-8"
     inkscape:window-maximized="1"
     inkscape:current-layer="svg16"
     inkscape:document-rotation="0" />
  <defs
     id="defs3950">
    <linearGradient
       id="linearGradient3916"
       y2="830.13"
       xlink:href="#linearGradient3880"
       gradientUnits="userSpaceOnUse"
       x2="1493"
       y1="830.13"
       x1="1000.1" />
    <linearGradient
       id="linearGradient3880">
      <stop
         id="stop3882"
         stop-color="#000080"
         offset="0" />
      <stop
         id="stop3884"
         stop-color="#000080"
         offset="1" />
    </linearGradient>
    <linearGradient
       inkscape:collect="always"
       xlink:href="#linearGradient3880"
       id="linearGradient21"
       gradientUnits="userSpaceOnUse"
       x1="1000.1"
       y1="830.13"
       x2="1493"
       y2="830.13" />
  </defs>
  <g
     id="layer1"
     transform="matrix(0.24742966,0,0,0.24742966,-61.247308,-89.047789)">
    <g
       id="g3908"
       fill-rule="evenodd"
       transform="matrix(0.40989,0,0,0.40989,-115.99,58.566)">
      <path
         id="path3878"
         d="m 1493,830.13 c 0,136.13 -110.35,246.48 -246.48,246.48 -136.13,0 -246.48,-110.35 -246.48,-246.48 0,-136.13 110.35,-246.48 246.48,-246.48 136.13,0 246.48,110.35 246.48,246.48 z"
         transform="matrix(0.82064,0.57144,-0.57144,0.82064,584.81,-411.91)"
         fill="url(#linearGradient3916)"
         style="fill:url(#linearGradient21)" />
      <path
         id="path3896"
         d="m 1493,830.13 c 0,136.13 -110.35,246.48 -246.48,246.48 -136.13,0 -246.48,-110.35 -246.48,-246.48 0,-136.13 110.35,-246.48 246.48,-246.48 136.13,0 246.48,110.35 246.48,246.48 z"
         transform="matrix(-0.37969,-0.80874,0.80874,-0.37969,935.33,2305)"
         fill="url(#linearGradient3916)"
         style="fill:url(#linearGradient3916)" />
      <path
         id="path3900"
         d="m 1091,899.83 c 0,19.526 -15.829,35.355 -35.355,35.355 -19.526,0 -35.355,-15.829 -35.355,-35.355 0,-19.526 15.829,-35.355 35.355,-35.355 19.526,0 35.355,15.829 35.355,35.355 z"
         transform="translate(8,6)"
         fill="#ffffff" />
      <path
         id="path3902"
         d="m 1091,899.83 c 0,19.526 -15.829,35.355 -35.355,35.355 -19.526,0 -35.355,-15.829 -35.355,-35.355 0,-19.526 15.829,-35.355 35.355,-35.355 19.526,0 35.355,15.829 35.355,35.355 z"
         transform="translate(148,6)"
         fill="#ffffff" />
      <path
         id="path3904"
         d="m 1091,899.83 c 0,19.526 -15.829,35.355 -35.355,35.355 -19.526,0 -35.355,-15.829 -35.355,-35.355 0,-19.526 15.829,-35.355 35.355,-35.355 19.526,0 35.355,15.829 35.355,35.355 z"
         transform="translate(8,156)"
         fill="#ffffff" />
      <path
         id="path3906"
         d="m 1091,899.83 c 0,19.526 -15.829,35.355 -35.355,35.355 -19.526,0 -35.355,-15.829 -35.355,-35.355 0,-19.526 15.829,-35.355 35.355,-35.355 19.526,0 35.355,15.829 35.355,35.355 z"
         transform="translate(148,156)"
         fill="#ffffff" />
    </g>
  </g>
</svg>
