<?xml version="1.0" encoding="UTF-8" standalone="no"?>
<svg
   xmlns:dc="http://purl.org/dc/elements/1.1/"
   xmlns:cc="http://creativecommons.org/ns#"
   xmlns:rdf="http://www.w3.org/1999/02/22-rdf-syntax-ns#"
   xmlns:svg="http://www.w3.org/2000/svg"
   xmlns="http://www.w3.org/2000/svg"
   xmlns:sodipodi="http://sodipodi.sourceforge.net/DTD/sodipodi-0.dtd"
   xmlns:inkscape="http://www.inkscape.org/namespaces/inkscape"
   version="1.1"
   id="Layer_1"
   x="0px"
   y="0px"
   viewBox="0 0 50 50"
   enable-background="new 0 0 2614 709.44"
   xml:space="preserve"
   sodipodi:docname="ciutat3.svg"
   width="50"
   height="50"
   inkscape:version="1.0.1 (3bc2e813f5, 2020-09-07)"><metadata
   id="metadata9"><rdf:RDF><cc:Work
       rdf:about=""><dc:format>image/svg+xml</dc:format><dc:type
         rdf:resource="http://purl.org/dc/dcmitype/StillImage" /><dc:title></dc:title></cc:Work></rdf:RDF></metadata><defs
   id="defs7" /><sodipodi:namedview
   pagecolor="#ffffff"
   bordercolor="#666666"
   borderopacity="1"
   objecttolerance="10"
   gridtolerance="10"
   guidetolerance="10"
   inkscape:pageopacity="0"
   inkscape:pageshadow="2"
   inkscape:window-width="1366"
   inkscape:window-height="705"
   id="namedview5"
   showgrid="false"
   inkscape:showpageshadow="false"
   inkscape:zoom="2.2116699"
   inkscape:cx="166.41338"
   inkscape:cy="-11.248879"
   inkscape:window-x="-8"
   inkscape:window-y="-8"
   inkscape:window-maximized="1"
   inkscape:current-layer="Layer_1" />
<path
   fill="#000080"
   d="m 0,23.98906 h 0.5972414 v 0.497239 H 0.73613157 V 23.98906 H 1.0027983 v -0.0316 H 0.90105754 v -0.02916 H 1.2208506 v -1.371206 h 0.2305527 v -0.08611 H 1.2763989 V 22.280698 H 1.4514033 V 22.08624 h 0.088889 v -0.381963 h 0.570854 v 0.06111 H 1.9889166 v 0.08612 h 0.1222296 v 0.148618 h 0.051388 v 0.111115 h 0.222232 v 0.694471 h 0.1180499 v -1.036139 h 0.3097538 v -0.10555 H 2.94312 v -0.05973 H 2.7472752 V 21.57234 H 2.94312 v -0.07084 H 2.5903377 v -0.0625 h 0.600015 v -0.583354 l 0.5416736,-1.209757 v -0.370849 h 0.038888 v 0.373622 l 0.4597377,1.18753 v 1.181963 H 4.184811 v 0.905569 h 0.2444592 l 0.1138896,-0.422237 0.1791645,-0.233345 0.082639,0.08264 v -0.361806 h 0.017364 V 22.19593 H 4.9306694 V 22.009812 H 4.95567 v 0.359735 l 0.102776,0.612516 h 0.3236213 v 0.672243 h 0.090276 v -1.806979 h 0.063889 V 19.459768 L 5.7612371,18.850026 V 18.0653 h 0.023614 v 0.373622 h 0.052774 v 0.273621 l 0.066662,-0.10555 v -0.154184 l 0.1027766,-0.102776 0.1208428,0.0875 v 0.180552 l 0.3291684,0.841681 0.01666,2.933393 0.051388,-0.08889 0.075002,0.10555 V 22.06954 l 0.036114,0.0028 v 0.194458 h 0.088889 v -0.186115 h 0.030548 v 0.418058 h 0.081956 v 0.479172 h 0.7458584 v 1.434762 h 0.1250031 v -5.079247 h 0.301394 v 0.836134 l 0.1020923,-0.102093 h 0.1270931 l 0.1402769,0.703494 c 0,0 0.176391,0.111116 0.065275,0.313895 v 0.161117 h 0.15973 v 0.06805 h 0.3263953 v 1.011138 H 9.09464 L 9.2196431,19.57229 h 0.2361191 v -0.525013 h 0.044454 v -0.102776 h 1.0778008 v -0.325008 h 0.03889 v 0.191665 h 0.0375 v 0.06805 h 0.01666 v -0.0625 h 0.02639 v -0.04027 h 0.0625 v 0.03611 h 0.03334 v 0.140277 h 0.433351 v 0.06389 h 0.05834 v 0.522239 h 0.200005 v 0.519466 h 0.829181 v 1.193076 h 0.02361 c 0,0 0.0055,-0.120842 0.23612,-0.120842 v -1.237531 l 0.138886,-0.431964 v -0.07916 c 0,0 0.05,-0.07778 0.127777,0 v 0.0875 h 0.02916 v -0.286121 h 0.05277 v 0.380557 l 0.115276,0.329168 v 1.206964 c 0,0 0.238893,0.02223 0.327781,0.111116 v 0.698631 h 0.225006 v -0.520853 c 0,0 -0.02223,-0.243756 0.243756,-0.243756 v -0.265984 h 0.05902 v 0.265984 c 0,0 0.243756,0.0021 0.243756,0.243756 v 0.480558 h 0.115979 v 0.02916 h 0.166665 v 0.08334 h -0.0625 v 1.655587 h 0.151389 v 0.123617 h 0.04723 v 0.198618 h 0.104162 v 0.376396 h 0.03334 v -0.03889 h 0.119456 v -0.08889 h 0.459738 c 0,0 0.025,0.133343 0.07916,0.133343 0.05416,0 0.312508,0 0.312508,0 v 0.356962 l 0.236119,0.100003 v -1.75977 h 0.291667 l 0.241666,0.42917 v -2.104173 h 0.558354 v 1.33476 L 17.3851,22.076513 v -0.143051 h 0.03055 v 0.119456 h 0.03473 v -0.0875 h 0.03334 v 1.329194 l 0.270847,0.368056 0.05834,-0.09028 H 17.9268 v -1.42781 h 0.111116 v -0.519466 h 0.333348 v -0.05834 h 0.05416 v 0.0625 h 0.154164 v 0.04305 h 0.04445 v -0.08611 l 0.125003,-0.154164 v -0.547241 h 0.0375 v -0.229165 h 0.163891 v 0.226392 h 0.111116 v -0.13055 h 0.5389 v 0.166664 h 0.293054 v 2.044485 l 0.218053,0.03611 v -0.288894 h 0.723635 v -0.490286 h 0.15139 v -0.418057 h 0.07223 v -0.175004 h 0.08057 v -0.238893 h 0.448624 v 0.222232 h 0.104163 v 0.177778 h 0.04723 v 0.05555 h 0.04027 v 0.08196 h 0.05973 v -0.04723 h 0.237505 l 0.09166,-0.09166 v -0.179165 h 0.05416 v -0.175004 h 0.09305 v 0.05 h 0.06805 v -0.06946 h 0.115276 v 0.237506 h 0.09445 v 0.191665 l 0.06598,0.06598 v 0.349306 h 0.115979 v 1.555585 l 0.116664,-0.677107 1.331283,0.404171 V 24.6064 h 0.385419 v -1.381284 h 0.172915 v -0.104163 l 0.218775,-0.39792 v -0.231256 l 0.159379,-0.159379 h 0.02604 v -0.257291 h 0.02916 v 0.260416 l 0.157289,0.157289 h 0.05312 v 0.215631 l 0.227095,0.41876 h 0.03959 v 0.06459 h 0.104163 v 0.433351 l 0.42501,0.175004 v -1.227121 h 0.229166 v -0.518763 c 0,0 -0.0375,-0.250006 0.250006,-0.250006 v -0.266667 h 0.03541 v 0.266667 c 0,0 0.225006,-0.02916 0.225006,0.250006 0,0.279167 0,0.470852 0,0.470852 l 0.164598,-0.193755 v -0.156254 h 0.04166 v -0.656266 l 0.529174,-1.216691 v -0.345848 h 0.04375 v 0.345848 l 0.450011,1.168779 v 0.452101 h 0.075 v -1.172939 h 0.825724 v -0.550014 h 0.241666 v -0.506965 h 0.03473 v -0.06805 h 0.16805 v -0.08611 h 0.03055 v 0.08473 h 0.202755 v -1.240305 l 0.247237,-0.620855 V 17 h 0.02777 v 0.363896 h 0.03334 v 0.29028 l 0.07084,-0.115276 v -0.13055 c 0,0 -0.01805,-0.08889 0.119457,-0.08889 0.137503,0 0.111116,0.0875 0.111116,0.0875 v 0.156957 l 0.333348,0.819454 v 1.254191 h 0.362509 v 0.08196 h 0.05555 v 0.533353 h 0.226392 l 0.141663,2.747294 h 0.176392 V 21.98487 h 0.316668 v -0.075 h 0.129163 v -0.180551 c 0,0 -0.09652,-0.121527 0,-0.218053 l 0.08264,-0.08264 0.149301,-0.715994 h 0.131937 l 0.07361,0.123616 h 0.04027 v -0.822246 h 0.29446 v 4.102875 h 0.09723 v -0.469465 h 0.755566 v -0.444484 l 0.08889,-0.102776 v -0.350008 h 0.02223 v 0.191665 h 0.09445 v -0.175004 h 0.0375 v 0.308347 c 0,0 0.01666,-0.07223 0.05695,-0.07223 0.04029,0 0.05555,0.08611 0.05555,0.08611 v -3.311195 c 0,0 -0.04445,-0.366669 0.165278,-0.691677 0,0 0.02986,-0.227095 0.152777,-0.350009 v -0.173617 c 0,0 0.03334,-0.07223 0.10973,-0.07223 0.07639,0 0.104162,0.05555 0.104162,0.05555 v 0.172231 l 0.06945,0.100002 v -0.28194 h 0.05973 v -0.362509 h 0.04027 v 0.818068 c 0,0 0.179164,0.319461 0.200004,0.544466 v 2.973688 h 0.102776 v 1.594473 h 0.09584 v -0.470852 h 0.39585 v -2.154214 l 0.05416,0.05416 v 0.218756 l 0.02187,0.02188 v 0.128128 h 0.305223 v 0.683357 h 0.08334 v -1.804205 h 0.07709 v -2.39381 c 0,0 0.07916,-0.389599 0.231255,-0.610425 l -0.03749,-0.04584 V 17 h 0.0375 v 0.362509 h 0.06041 v 0.281257 l 0.08334,-0.08334 V 17.40208 c 0,0 0.0042,-0.075 0.110413,-0.075 0.106252,0 0.106252,0.08334 0.106252,0.08334 v 0.150004 l 0.04791,0.06666 v -0.283327 h 0.03334 v 0.316668 l 0.545854,1.264621 v 2.514633 l 0.075,0.187504 v 0.289597 h 0.768769 v 1.402809 l 0.09166,-0.552787 v -4.486206 h 0.313895 v 0.805567 l 0.07916,-0.07916 h 0.143051 l 0.161117,0.698631 c 0,0 0.188891,0.122229 0.05555,0.313894 v 0.152777 h 0.13889 v 0.08334 h 0.336122 v 1.013912 h 0.191664 l 0.122231,-2.755615 h 0.202778 v -0.522259 h 0.06111 v -0.119456 h 1.72227 v 0.08611 h 0.06389 v 0.50556 h 0.197231 v 0.54724 h 0.833361 v 1.158368 c 0,0 0.075,-0.13055 0.491672,-0.13055 v -0.266667 h 0.05555 v 0.255554 c 0,0 0.258346,-0.025 0.505559,0.105549 v 0.725018 h 0.102776 v -0.07777 h 0.14445 v -0.502786 c 0,0 0.06389,-0.194458 0.21944,-0.194458 v -0.272233 h 0.07223 v 0.300007 c 0,0 0.215278,0.08889 0.215278,0.215279 0,0.12639 0,0.481965 0,0.481965 h 0.295827 v 0.09098 h -0.04723 v 1.672951 h 0.136116 v 0.100003 h 0.06943 v 0.261119 h 0.05834 v 0.338895 l 0.222231,-0.105549 h 0.40835 c 0,0 0.0055,0.111116 0.08889,0.111116 0.08334,0 0.308346,0 0.308346,0 v 0.341669 l 0.250007,0.116663 V 21.97233 h 0.275007 l 0.258346,0.433351 v -2.100052 h 0.158344 v -0.05 h 0.263893 v 0.05834 h 0.136117 v 1.325033 l 0.21946,-0.363896 h 0.283347 v 0.925023 l 0.261119,0.458351 0.04445,-0.152777 h 0.108341 v -1.433375 h 0.133344 v -0.5139 h 0.577792 l 0.13617,-0.136116 V 19.82507 h 0.27778 v -0.141664 h 0.175005 v 0.194458 h 0.05 V 19.7112 h 0.130687 V 30.043 H 0 Z"
   id="path2"
   style="stroke-width:0.0195317" />
</svg>
