<?xml version="1.0" encoding="UTF-8" standalone="no"?>
<svg
   xmlns:dc="http://purl.org/dc/elements/1.1/"
   xmlns:cc="http://creativecommons.org/ns#"
   xmlns:rdf="http://www.w3.org/1999/02/22-rdf-syntax-ns#"
   xmlns:svg="http://www.w3.org/2000/svg"
   xmlns="http://www.w3.org/2000/svg"
   xmlns:sodipodi="http://sodipodi.sourceforge.net/DTD/sodipodi-0.dtd"
   xmlns:inkscape="http://www.inkscape.org/namespaces/inkscape"
   version="1.1"
   id="svg22"
   sodipodi:docname="condimentos.svg"
   width="50"
   height="50"
   inkscape:version="1.0.1 (3bc2e813f5, 2020-09-07)">
  <metadata
     id="metadata24">
    <rdf:RDF>
      <cc:Work
         rdf:about="">
        <dc:format>image/svg+xml</dc:format>
        <dc:type
           rdf:resource="http://purl.org/dc/dcmitype/StillImage" />
        <dc:title></dc:title>
      </cc:Work>
    </rdf:RDF>
  </metadata>
  <defs
     id="defs48" />
  <sodipodi:namedview
     pagecolor="#ffffff"
     bordercolor="#666666"
     borderopacity="1"
     objecttolerance="10"
     gridtolerance="10"
     guidetolerance="10"
     inkscape:pageopacity="0"
     inkscape:pageshadow="2"
     inkscape:window-width="1366"
     inkscape:window-height="705"
     id="namedview46"
     showgrid="false"
     inkscape:zoom="1.4874415"
     inkscape:cx="148.5"
     inkscape:cy="147.75413"
     inkscape:window-x="-8"
     inkscape:window-y="-8"
     inkscape:window-maximized="1"
     inkscape:current-layer="svg22"
     inkscape:document-rotation="0" />
  <path
     style="fill:#000080;fill-opacity:1;stroke-width:0.170184"
     inkscape:connector-curvature="0"
     id="path4"
     d="m 5.9242538,36.363667 c 0.6537515,0 1.184816,0.5095 1.184816,1.136333 0,0.626832 -0.5310645,1.136333 -1.184816,1.136333 -0.6537515,0 -1.184816,-0.509501 -1.184816,-1.136333 0,-0.626833 0.5308907,-1.136333 1.184816,-1.136333" />
  <path
     style="fill:#000080;fill-opacity:1;stroke-width:0.170184"
     inkscape:connector-curvature="0"
     id="path6"
     d="m 5.9242538,40.909167 c 0.6537515,0 1.184816,0.509333 1.184816,1.136165 0,0.627168 -0.5310645,1.136335 -1.184816,1.136335 -0.6537515,0 -1.184816,-0.509335 -1.184816,-1.136335 0,-0.626832 0.5308907,-1.136165 1.184816,-1.136165" />
  <path
     style="fill:#000080;fill-opacity:1;stroke-width:0.170184"
     inkscape:connector-curvature="0"
     id="path8"
     d="m 10.663692,38.636333 c 0.653751,0 1.184816,0.509335 1.184816,1.136334 0,0.627001 -0.531065,1.136333 -1.184816,1.136333 -0.653752,0 -1.1848164,-0.5095 -1.1848164,-1.136332 -1.738e-4,-0.627 0.5308904,-1.136335 1.1848164,-1.136335" />
  <path
     style="fill:#000080;fill-opacity:1;stroke-width:0.170184"
     inkscape:connector-curvature="0"
     id="path10"
     d="m 14.21814,37.5 c 0.653751,0 1.184816,0.5095 1.184816,1.136333 0,0.626834 -0.531065,1.136334 -1.184816,1.136334 -0.653752,0 -1.184816,-0.509499 -1.184816,-1.136334 C 13.033324,38.0095 13.564388,37.5 14.21814,37.5" />
  <path
     style="fill:#000080;fill-opacity:1;stroke-width:0.170184"
     inkscape:connector-curvature="0"
     id="path12"
     d="m 10.663692,34.090833 c 0.653751,0 1.184816,0.509499 1.184816,1.136334 0,0.627166 -0.531065,1.136333 -1.184816,1.136333 -0.653752,0 -1.1848164,-0.509332 -1.1848164,-1.136333 -1.738e-4,-0.626834 0.5308904,-1.136334 1.1848164,-1.136334" />
  <path
     style="fill:#000080;fill-opacity:1;stroke-width:0.170184"
     inkscape:connector-curvature="0"
     id="path14"
     d="m 14.21814,42.045332 c 0.653751,0 1.184816,0.509501 1.184816,1.136335 0,0.626833 -0.531065,1.136333 -1.184816,1.136333 -0.653752,0 -1.184816,-0.5095 -1.184816,-1.136333 0,-0.626835 0.531064,-1.136335 1.184816,-1.136335" />
  <path
     style="fill:#000080;fill-opacity:1;stroke-width:0.170184"
     inkscape:connector-curvature="0"
     id="path16"
     d="m 9.4787018,43.181832 c 0.6537512,0 1.1848162,0.509501 1.1848162,1.136335 0,0.626833 -0.531238,1.136333 -1.1848162,1.136333 -0.6535777,0 -1.184816,-0.5095 -1.184816,-1.136333 0,-0.626835 0.5312383,-1.136335 1.184816,-1.136335" />
  <path
     style="fill:#000080;fill-opacity:1;stroke-width:0.170184"
     inkscape:connector-curvature="0"
     id="path18"
     d="m 1.184816,39.772832 c 0.6537515,0 1.184816,0.509335 1.184816,1.136335 0,0.627001 -0.5310645,1.136165 -1.184816,1.136165 C 0.53106449,42.045332 0,41.536 0,40.909167 0,40.282 0.53106449,39.772832 1.184816,39.772832" />
  <path
     style="fill:#000080;fill-opacity:1;stroke-width:0.170184"
     inkscape:connector-curvature="0"
     id="path20"
     d="m 10.663692,47.727167 c 0.653751,0 1.184816,0.509501 1.184816,1.136333 0,0.626832 -0.531239,1.1365 -1.184816,1.1365 -0.653752,0 -1.1848164,-0.5095 -1.1848164,-1.136333 0,-0.626835 0.5308904,-1.1365 1.1848164,-1.1365" />
  <path
     style="fill:#000080;fill-opacity:1;stroke-width:0.170184"
     inkscape:connector-curvature="0"
     id="path22"
     d="m 3.554448,44.318168 c 0.6537515,0 1.184816,0.509332 1.184816,1.136332 0,0.627 -0.5312383,1.136168 -1.184816,1.136168 -0.6537515,0 -1.184816,-0.509335 -1.184816,-1.136168 0,-0.627 0.5310645,-1.136332 1.184816,-1.136332" />
  <path
     style="fill:#000080;stroke-width:0.170184"
     inkscape:connector-curvature="0"
     id="path24"
     d="M 25.118864,30.454332 44.906056,19.8865 c 0.355201,-0.2275 0.710403,-0.455 1.065778,-0.795667 C 46.92066,18.182 47.393857,17.045667 47.393857,15.7955 V 10.681667 L 38.626774,2.2726667 h -5.331846 c -1.304027,0 -2.488843,0.4545 -3.436453,1.3633333 C 29.5031,3.9771667 29.266067,4.3178332 29.028861,4.6586667 L 18.009968,23.636167 Z" />
  <path
     style="fill:#ffffff;stroke-width:0.170184"
     inkscape:connector-curvature="0"
     id="path26"
     d="M 30.925123,6.5906668 C 30.332715,6.25 29.621095,6.477 29.265894,7.0451667 l -4.384237,7.5001663 c -0.355201,0.568167 -0.118516,1.25 0.474413,1.590834 0.237207,0.113667 0.355202,0.113667 0.592408,0.113667 0.473371,0 0.829615,-0.2275 1.065779,-0.568166 L 31.398493,8.1815 c 0.355202,-0.682 0.119211,-1.3633332 -0.47337,-1.5908332" />
  <path
     d="m 43.839409,7.2726667 v 5.1136663 c 0,1.250167 -0.474413,2.3865 -1.422197,3.295334 -0.355201,0.341166 -0.710403,0.568166 -1.065604,0.795666 L 33.903845,20.455 h 9.815831 L 25.297681,30.358667 44.906056,19.886333 c 0.355201,-0.2275 0.710403,-0.4545 1.065778,-0.795666 0.94761,-0.908834 1.422023,-2.045167 1.422023,-3.295334 v -5.113666 z"
     id="path30"
     inkscape:connector-curvature="0"
     style="fill:#b0c4d8;stroke-width:0.170184" />
  <polygon
     points="107.87,146.82 108.55,147.5 148.78,187.73 149.812,187.152 148.782,187.726 128.328,167.271 199.335,127.73 118.78,127.73 "
     id="polygon32"
     style="fill:#447821"
     transform="matrix(0.17377765,0,0,0.16666667,-0.73612212,-0.83333332)" />
  <polygon
     points="128.328,167.271 148.782,187.726 149.812,187.152 255.82,127.73 199.335,127.73 "
     id="polygon34"
     style="fill:#000080"
     transform="matrix(0.17377765,0,0,0.16666667,-0.73612212,-0.83333332)" />
  <path
     style="fill:#b0c4d8;stroke-width:0.170184"
     inkscape:connector-curvature="0"
     id="path36"
     d="m 13.507041,28.409167 c -0.237206,0.227325 -0.237206,0.568 -0.237206,0.7955 0.474239,1.364 1.303332,2.6135 2.251637,3.522333 1.0663,1.023167 2.369632,1.704667 3.672617,2.1595 0.237206,0.113325 0.592408,0 0.829614,-0.227325 l 3.08073,-2.954168 -6.516661,-6.25 z" />
  <path
     style="fill:#000080;stroke-width:0.170184"
     inkscape:connector-curvature="0"
     id="path38"
     d="M 49.409156,9.4316668 39.929585,0.34 C 39.69151,0.11333332 39.455172,0 39.100666,0 H 33.293017 C 31.398841,0 29.502753,0.68166668 28.19942,2.045 27.725181,2.5 27.368937,3.0683332 27.01443,3.6366667 L 15.640683,23.295 11.848855,26.818332 c -0.830657,0.795 -1.185163,2.045 -0.71075,3.181668 0.07646,0.22 0.158137,0.435 0.246764,0.646667 0.05213,-0.01 0.106004,-0.015 0.159875,-0.015 0.48484,0 0.881053,0.38 0.881053,0.845 0,0.253333 -0.116431,0.481665 -0.302373,0.635 0.286733,0.478333 0.608222,0.933333 0.967941,1.365 0.126858,-0.06667 0.272831,-0.105 0.427493,-0.105 0.486578,0 0.881053,0.378333 0.881053,0.843333 0,0.173325 -0.05387,0.333332 -0.145973,0.468332 0.443133,0.4 0.910595,0.761668 1.405861,1.085168 0.158138,-0.155175 0.380573,-0.25 0.623862,-0.25 0.486577,0 0.881052,0.379832 0.881052,0.844832 0,0.07668 -0.01043,0.151675 -0.03302,0.223325 0.470937,0.22 0.96099,0.410165 1.470159,0.573333 0.356244,0.111675 0.71075,0.111675 1.066994,0.111675 0.82892,0 1.657839,-0.34 2.250421,-0.908335 l 3.791828,-3.6365 20.4969,-10.908333 c 0.592582,-0.341664 1.185164,-0.681664 1.65975,-1.136664 C 49.289249,19.3185 50,17.6135 50,15.795167 v -5.5685 C 49.763662,9.8866668 49.645494,9.6583333 49.409156,9.4316668 Z M 20.143262,34.771667 C 19.905187,35 19.550681,35 19.312605,35 17.891104,34.545 16.70594,33.75 15.640683,32.84 14.573689,31.818332 13.862938,30.681667 13.388525,29.318332 13.270356,29.09 13.388525,28.75 13.6266,28.521667 l 3.07934,-2.953335 6.636569,6.363335 z M 47.393335,15.795 c 0,1.25 -0.474239,2.386667 -1.421501,3.295 -0.354506,0.341667 -0.71075,0.568333 -1.065257,0.796667 L 25.118516,30.455 18.127442,23.75 29.146682,4.7716667 c 0.238076,-0.34 0.474413,-0.68 0.829093,-1.0216667 0.830484,-1.0233333 2.015821,-1.4766667 3.317416,-1.4766667 h 5.333062 l 8.767082,8.4083337 z" />
  <path
     style="fill:#6d90a8;stroke-width:0.170184"
     inkscape:connector-curvature="0"
     id="path40"
     d="M 21.682411,30.341167 18.720371,33.182 c -0.237207,0.2275 -0.592408,0.2275 -0.829615,0.2275 -1.184816,-0.340668 -2.369632,-1.023167 -3.317241,-1.818832 0.355201,0.454999 0.710924,0.91 1.0663,1.250664 1.066299,1.022168 2.369632,1.704668 3.673138,2.158501 0.237206,0.114325 0.592408,0 0.829614,-0.226326 l 3.253987,-2.871832 z" />
  <path
     style="fill:#000080;fill-opacity:1;stroke-width:0.0809034"
     d="m 19.871311,25.358157 -1.686059,-1.61851 0.943314,-1.629287 0.943314,-1.629285 6.815425,6.67e-4 c 6.692134,6.66e-4 6.810942,0.0034 6.567593,0.148907 -0.267706,0.160125 -11.846179,6.346016 -11.878187,6.346016 -0.01064,0 -0.778067,-0.72833 -1.7054,-1.618508 z"
     id="path27" />
</svg>
