<?xml version="1.0" encoding="UTF-8" standalone="no"?>
<svg
   xmlns:dc="http://purl.org/dc/elements/1.1/"
   xmlns:cc="http://creativecommons.org/ns#"
   xmlns:rdf="http://www.w3.org/1999/02/22-rdf-syntax-ns#"
   xmlns:svg="http://www.w3.org/2000/svg"
   xmlns="http://www.w3.org/2000/svg"
   xmlns:sodipodi="http://sodipodi.sourceforge.net/DTD/sodipodi-0.dtd"
   xmlns:inkscape="http://www.inkscape.org/namespaces/inkscape"
   version="1.1"
   id="Layer_1"
   x="0px"
   y="0px"
   viewBox="0 0 49.999999 50.000001"
   enable-background="new 0 0 604.502 1628.762"
   xml:space="preserve"
   sodipodi:docname="cos-huma.svg"
   width="50"
   height="50"
   inkscape:version="1.0.1 (3bc2e813f5, 2020-09-07)"><metadata
   id="metadata9"><rdf:RDF><cc:Work
       rdf:about=""><dc:format>image/svg+xml</dc:format><dc:type
         rdf:resource="http://purl.org/dc/dcmitype/StillImage" /><dc:title></dc:title></cc:Work></rdf:RDF></metadata><defs
   id="defs7" /><sodipodi:namedview
   pagecolor="#ffffff"
   bordercolor="#666666"
   borderopacity="1"
   objecttolerance="10"
   gridtolerance="10"
   guidetolerance="10"
   inkscape:pageopacity="0"
   inkscape:pageshadow="2"
   inkscape:window-width="1366"
   inkscape:window-height="705"
   id="namedview5"
   showgrid="false"
   inkscape:showpageshadow="false"
   inkscape:zoom="1.8685282"
   inkscape:cx="142.07241"
   inkscape:cy="44.962345"
   inkscape:window-x="-8"
   inkscape:window-y="-8"
   inkscape:window-maximized="1"
   inkscape:current-layer="Layer_1"
   inkscape:document-rotation="0"
   showborder="false" />

<path
   style="fill:#000080;stroke-width:0.658498"
   d="m 19.899939,39.872897 c -1.391849,-0.1378 -1.487659,-0.404495 -0.635187,-1.768098 0.725759,-1.160904 0.64837,-2.275811 -0.279327,-4.023996 -0.848288,-1.598584 -1.304664,-5.928472 -1.346488,-12.775184 -0.06146,-10.062524 -0.766472,-13.1625737 -2.007873,-8.829115 -0.333833,1.165349 -1.036099,2.830923 -1.560589,3.701272 -0.524509,0.87035 -0.953633,2.312535 -0.953633,3.204858 0,1.317198 -0.326204,1.590895 -1.733993,1.454916 -0.953689,-0.09212 -1.5559588,-0.451184 -1.33838,-0.797929 0.469189,-0.747691 0.609287,-1.258166 2.19274,-7.989679 l 1.216408,-5.1711208 3.613582,-0.814213 c 4.841817,-1.0909643 6.329144,-1.9300643 5.191588,-2.9289199 -1.393793,-1.2238512 0.01907,-2.96063801 2.539532,-3.12168133 2.672927,-0.17078554 4.137887,1.23698943 3.439251,3.30499983 -0.417145,1.2348054 -0.07646,1.5131233 2.678758,2.188116 6.657421,1.6310012 6.399425,1.3627396 7.548828,7.8493002 0.589904,3.329015 1.258715,6.336454 1.486272,6.683198 0.227559,0.346745 -0.366546,0.705813 -1.320235,0.797929 -1.393144,0.134564 -1.733991,-0.133336 -1.733991,-1.362898 0,-0.84171 -0.435514,-2.480827 -0.967817,-3.64248 -0.532286,-1.161653 -1.239773,-2.894053 -1.572195,-3.849779 -0.521142,-1.498349 -0.747683,-1.624598 -1.644737,-0.916631 -0.688731,0.543553 -0.764861,2.240161 -0.225281,5.019856 1.001197,5.157771 0.997216,6.386577 -0.04128,12.732459 -0.452951,2.767966 -0.862895,6.352012 -0.910994,7.964546 -0.06925,2.318758 -0.424588,2.970748 -1.699687,3.11774 -1.424773,0.164244 -1.687492,-0.685644 -2.259064,-7.308113 -1.481144,-17.161499 -3.776768,-16.704071 -5.161596,1.028508 -0.272087,3.4839 -0.580388,6.352375 -0.685142,6.374389 -0.104785,0.02202 -0.928028,-0.03299 -1.829526,-0.12225 z"
   id="path14" /></svg>
