<?xml version="1.0" encoding="UTF-8" standalone="no"?>
<svg
   xmlns:dc="http://purl.org/dc/elements/1.1/"
   xmlns:cc="http://creativecommons.org/ns#"
   xmlns:rdf="http://www.w3.org/1999/02/22-rdf-syntax-ns#"
   xmlns:svg="http://www.w3.org/2000/svg"
   xmlns="http://www.w3.org/2000/svg"
   xmlns:sodipodi="http://sodipodi.sourceforge.net/DTD/sodipodi-0.dtd"
   xmlns:inkscape="http://www.inkscape.org/namespaces/inkscape"
   version="1.1"
   id="Layer_1"
   x="0px"
   y="0px"
   viewBox="0 0 49.999999 50.000001"
   enable-background="new 0 0 604.502 1628.762"
   xml:space="preserve"
   sodipodi:docname="cos-huma.svg"
   width="50"
   height="50"
   inkscape:version="1.0.1 (3bc2e813f5, 2020-09-07)"><metadata
   id="metadata9"><rdf:RDF><cc:Work
       rdf:about=""><dc:format>image/svg+xml</dc:format><dc:type
         rdf:resource="http://purl.org/dc/dcmitype/StillImage" /><dc:title></dc:title></cc:Work></rdf:RDF></metadata><defs
   id="defs7" /><sodipodi:namedview
   pagecolor="#ffffff"
   bordercolor="#666666"
   borderopacity="1"
   objecttolerance="10"
   gridtolerance="10"
   guidetolerance="10"
   inkscape:pageopacity="0"
   inkscape:pageshadow="2"
   inkscape:window-width="1366"
   inkscape:window-height="705"
   id="namedview5"
   showgrid="false"
   inkscape:showpageshadow="false"
   inkscape:zoom="1.8685282"
   inkscape:cx="142.07241"
   inkscape:cy="44.962345"
   inkscape:window-x="-8"
   inkscape:window-y="-8"
   inkscape:window-maximized="1"
   inkscape:current-layer="Layer_1" />

<path
   style="fill:#000080;stroke-width:0.54703"
   d="m 20.465571,49.841123 c -0.768414,-0.17225 -0.821309,-0.505619 -0.350675,-2.210122 0.400678,-1.451131 0.357953,-2.844764 -0.154211,-5.029996 -0.468324,-1.99823 -0.720281,-7.41059 -0.743371,-15.96898 -0.03393,-12.578156 -0.423155,-16.453218 -1.108509,-11.036395 -0.184303,1.456687 -0.572011,3.538654 -0.861572,4.626591 -0.289572,1.087937 -0.526483,2.890669 -0.526483,4.006072 0,1.646498 -0.180091,1.988619 -0.957305,1.818646 -0.526514,-0.115146 -0.859016,-0.56398 -0.738895,-0.997412 0.259031,-0.934614 0.336376,-1.572708 1.210571,-9.987099 l 0.671556,-6.4639012 1.994991,-1.0177663 c 2.673077,-1.3637054 3.494202,-2.4125805 2.866179,-3.66115 -0.769487,-1.529814 0.01053,-3.70079763 1.402028,-3.90210179 1.475673,-0.21348193 2.28445,1.54623689 1.898746,4.13124999 -0.230298,1.5435068 -0.04221,1.8914041 1.478892,2.7351451 3.675438,2.0387515 3.533003,1.7034245 4.167567,9.8116252 0.325675,4.161269 0.694913,7.920568 0.820543,8.353998 0.125631,0.433432 -0.202363,0.882266 -0.728877,0.997412 -0.769129,0.168204 -0.957304,-0.16667 -0.957304,-1.703623 0,-1.052138 -0.240439,-3.101034 -0.534314,-4.5531 -0.293865,-1.452066 -0.684455,-3.617567 -0.867979,-4.812224 -0.287713,-1.872936 -0.412782,-2.030748 -0.908029,-1.145789 -0.380235,0.679441 -0.422265,2.800201 -0.124373,6.27482 0.552742,6.447214 0.550544,7.983222 -0.02279,15.915574 -0.250066,3.459958 -0.476388,7.940016 -0.502943,9.955684 -0.03823,2.898447 -0.234407,3.713435 -0.938365,3.897174 C 25.164058,50.08076 25.019016,49.0184 24.703462,40.740314 23.88575,19.28844 22.618379,19.860225 21.853841,42.025949 c -0.150214,4.354875 -0.320421,7.940469 -0.378254,7.967987 -0.05785,0.02752 -0.512347,-0.04124 -1.010047,-0.152813 z"
   id="path14" /></svg>
