<?xml version="1.0" encoding="UTF-8" standalone="no"?>
<svg
   xmlns:dc="http://purl.org/dc/elements/1.1/"
   xmlns:cc="http://creativecommons.org/ns#"
   xmlns:rdf="http://www.w3.org/1999/02/22-rdf-syntax-ns#"
   xmlns:svg="http://www.w3.org/2000/svg"
   xmlns="http://www.w3.org/2000/svg"
   xmlns:sodipodi="http://sodipodi.sourceforge.net/DTD/sodipodi-0.dtd"
   xmlns:inkscape="http://www.inkscape.org/namespaces/inkscape"
   version="1.1"
   id="Layer_1"
   x="0px"
   y="0px"
   viewBox="0 0 18 50.000001"
   enable-background="new 0 0 604.502 1628.762"
   xml:space="preserve"
   sodipodi:docname="coshuma.svg"
   width="18"
   height="50"
   inkscape:version="1.0.1 (3bc2e813f5, 2020-09-07)"><metadata
   id="metadata9"><rdf:RDF><cc:Work
       rdf:about=""><dc:format>image/svg+xml</dc:format><dc:type
         rdf:resource="http://purl.org/dc/dcmitype/StillImage" /><dc:title></dc:title></cc:Work></rdf:RDF></metadata><defs
   id="defs7" /><sodipodi:namedview
   pagecolor="#ffffff"
   bordercolor="#666666"
   borderopacity="1"
   objecttolerance="10"
   gridtolerance="10"
   guidetolerance="10"
   inkscape:pageopacity="0"
   inkscape:pageshadow="2"
   inkscape:window-width="1366"
   inkscape:window-height="705"
   id="namedview5"
   showgrid="false"
   showborder="false"
   inkscape:zoom="1"
   inkscape:cx="302.25101"
   inkscape:cy="281.5"
   inkscape:window-x="-8"
   inkscape:window-y="-8"
   inkscape:window-maximized="1"
   inkscape:current-layer="Layer_1"
   inkscape:document-rotation="0" />

<path
   style="fill:#000080;stroke-width:0.0960634"
   d="m 6.7980142,49.806379 c -0.036687,-0.136926 -0.099264,-0.175318 -0.2096779,-0.128637 -0.1754086,0.07416 -0.2944108,0.07547 -0.7894178,0.0087 -0.570092,-0.07688 -0.875124,-0.231601 -0.875124,-0.443903 0,-0.106847 0.1750248,-0.534026 0.3889438,-0.949289 0.2758263,-0.535439 0.3889442,-0.875241 0.3889442,-1.168375 0,-0.227343 0.049571,-0.654265 0.1101585,-0.948718 C 5.9746037,45.385153 5.781162,43.663903 5.3488244,42.05623 4.6075172,39.29964 4.5350588,38.696047 4.7767858,37.291037 4.9878257,36.064392 4.941041,34.92718 4.594957,32.871257 4.45437,32.036094 4.2899982,30.840295 4.2296862,30.213924 4.0863759,28.725575 4.1886231,23.995968 4.381512,23.190976 4.4565563,22.877791 4.5473722,22.365305 4.5833248,22.05212 4.6192773,21.738934 4.7241761,21.141034 4.8164332,20.723454 4.952547,20.107363 4.9830642,19.490042 4.9782927,17.449242 4.9726421,15.032574 4.9633911,14.912009 4.7416234,14.364839 4.441946,13.625446 4.3403785,13.526199 4.3403785,13.97277 c 0,0.196721 -0.1070902,0.771132 -0.2379784,1.276468 -0.300295,1.159387 -0.5399096,2.71624 -0.5399096,3.507963 0,0.65994 -0.1279202,1.226601 -0.6261674,2.773795 -0.4582396,1.42296 -0.4819242,1.647726 -0.2910382,2.761937 0.172113,1.004632 0.1467576,2.962196 -0.040738,3.145196 -0.048895,0.04772 -0.1141723,-0.202845 -0.1529763,-0.587204 -0.037228,-0.368746 -0.1087938,-0.670448 -0.1590354,-0.670448 -0.050242,0 -0.092018,0.373687 -0.092837,0.830416 -0.00157,0.87433 -0.1097644,1.23886 -0.2887301,0.972773 -0.052661,-0.0783 -0.096417,-0.473337 -0.097236,-0.877868 -0.00152,-0.748284 -0.1222953,-0.976378 -0.2324243,-0.438934 -0.033425,0.163117 -0.060772,0.528935 -0.060772,0.812929 0,0.539226 -0.1385561,0.928422 -0.2965869,0.833096 -0.050796,-0.03064 -0.092357,-0.480262 -0.092357,-0.999157 0,-0.518895 -0.039782,-0.943446 -0.088405,-0.943446 -0.0486231,0 -0.13969891,0.309627 -0.20239114,0.688059 -0.1843709,1.112931 -0.1959916,1.152499 -0.30673143,1.044414 -0.0592511,-0.05783 -0.0962638,-0.560652 -0.0900721,-1.223636 0.009804,-1.049774 2.2483e-4,-1.111111 -0.1426384,-0.912055 -0.209576,0.292039 -0.35204609,0.268198 -0.28434181,-0.04758 0.18010014,-0.839999 0.30928903,-1.168942 0.64498693,-1.642276 L 1.0358596,23.750067 1.067462,20.718286 c 0.025835,-2.478516 0.060895,-3.127034 0.1921239,-3.553756 0.088287,-0.287086 0.2274845,-1.141229 0.3093279,-1.898094 0.081843,-0.756865 0.197999,-1.5683 0.2581246,-1.803189 0.060125,-0.234889 0.1151484,-1.089031 0.1222738,-1.898094 C 1.961708,10.157595 1.9743959,10.068301 2.2434,9.4954506 2.6188516,8.6959177 3.1455487,8.2557337 4.1848797,7.8728695 5.0685922,7.5473315 6.5216406,6.7083585 7.0475347,6.2200062 L 7.372409,5.9183235 7.3354817,5.0641811 C 7.3018282,4.2857581 7.275183,4.1872847 7.0349164,3.9533648 6.8115321,3.7358812 6.7712783,3.6163336 6.7712783,3.170401 c 0,-0.4045433 0.033741,-0.5262897 0.1458541,-0.5262897 0.1091011,0 0.1459905,-0.1135935 0.1463962,-0.4507975 0.00169,-1.40799328 0.8496234,-2.28715004 2.1077006,-2.18532196 1.0645218,0.08616205 1.8008388,0.91045657 1.8116118,2.02807006 0.004,0.4190895 0.04351,0.6080494 0.127024,0.6080494 0.352886,0 0.251977,1.0347108 -0.129468,1.3275618 -0.22234,0.1706993 -0.251606,0.2721847 -0.295583,1.0249677 l -0.04881,0.8355097 0.316082,0.3085034 c 0.465431,0.4542718 1.369219,1.0282351 2.218185,1.4086895 1.895249,0.8493333 1.96661,0.890954 2.303194,1.3432982 0.528309,0.7100094 0.676011,1.3053604 0.649331,2.6172814 -0.01419,0.697645 0.03169,1.40682 0.119731,1.850642 0.0785,0.395759 0.192593,1.232048 0.253529,1.858419 0.06093,0.626371 0.204285,1.52322 0.318554,1.992999 0.188006,0.772916 0.208111,1.129672 0.211414,3.751513 l 0.0036,2.897371 0.345948,0.471746 c 0.318286,0.434026 0.50432,0.919865 0.607637,1.586876 0.04681,0.302216 0.0043,0.320555 -0.240967,0.103921 -0.171293,-0.151304 -0.177816,-0.1167 -0.177816,0.943447 0,0.609143 -0.04214,1.125933 -0.09438,1.157447 -0.103953,0.06271 -0.136548,-0.05351 -0.299026,-1.066232 -0.06074,-0.378582 -0.150216,-0.664335 -0.198838,-0.635005 -0.04862,0.02933 -0.08907,0.424493 -0.08989,0.878142 -0.0014,0.788268 -0.09924,1.185211 -0.254674,1.033498 -0.03974,-0.03879 -0.104028,-0.48598 -0.14285,-0.99375 -0.08217,-1.074739 -0.0624,-0.970671 -0.184403,-0.970671 -0.05633,0 -0.09786,0.30941 -0.09872,0.735512 -7.77e-4,0.404531 -0.04457,0.799572 -0.09724,0.877868 -0.178965,0.266087 -0.287162,-0.09844 -0.28873,-0.972773 -7.78e-4,-0.456729 -0.0426,-0.830416 -0.09284,-0.830416 -0.05024,0 -0.12153,0.29895 -0.158418,0.664333 -0.03689,0.365383 -0.101689,0.664333 -0.144003,0.664333 -0.165707,0 -0.217373,-1.314502 -0.09698,-2.467522 0.06813,-0.65247 0.144636,-1.383844 0.170021,-1.625275 0.03557,-0.338301 -0.0693,-0.834169 -0.4573,-2.162299 -0.428625,-1.467325 -0.515795,-1.905525 -0.586748,-2.94978 -0.09863,-1.451501 -0.127013,-1.642078 -0.438355,-2.942926 -0.131176,-0.548075 -0.264219,-1.165983 -0.295651,-1.37313 l -0.05715,-0.376629 -0.292781,0.708796 c -0.278962,0.675343 -0.293356,0.778227 -0.304978,2.179819 -0.02092,2.522388 0.0737,3.826848 0.402676,5.551925 0.648132,3.398623 0.619631,7.811398 -0.07591,11.753887 -0.238788,1.353496 -0.244047,1.75621 -0.04439,3.398112 0.19224,1.580864 0.155127,1.949659 -0.454812,4.519499 -0.536304,2.259586 -0.76663,4.079029 -0.581861,4.596349 0.05762,0.161339 0.104771,0.515423 0.104771,0.786855 0,0.383081 0.07744,0.635942 0.34608,1.130027 0.461272,0.848375 0.436784,1.17202 -0.10299,1.361119 -0.213919,0.07494 -0.616381,0.138449 -0.89436,0.141126 -0.332173,0.0032 -0.522774,0.04901 -0.556056,0.133663 -0.06738,0.171368 -0.352052,0.163227 -0.616614,-0.01764 -0.210725,-0.144057 -0.213598,-0.176775 -0.177096,-2.016722 0.02041,-1.02866 0.08998,-2.126536 0.154613,-2.43972 0.148553,-0.719864 0.04681,-3.110652 -0.162854,-3.826942 -0.229493,-0.784021 -0.207354,-1.983698 0.06206,-3.363137 l 0.236535,-1.211077 -0.219596,-0.924276 C 10.119483,34.552949 10.001167,33.889392 9.8336084,32.444188 9.7458574,31.687323 9.5678859,30.517848 9.4381182,29.845354 9.2506367,28.873774 9.2018706,28.308487 9.2006874,27.093117 c -0.00136,-1.396378 -0.074573,-1.913989 -0.2469289,-1.745765 -0.035486,0.03464 -0.099974,0.972956 -0.1433074,2.085155 -0.046866,1.202882 -0.1586789,2.502823 -0.2759747,3.208492 -0.1084527,0.652469 -0.2876387,1.912331 -0.3981907,2.799688 -0.1105522,0.88736 -0.2879143,1.890976 -0.394138,2.23026 -0.3165516,1.011082 -0.3427128,1.728053 -0.096962,2.657332 0.3441123,1.301226 0.3527585,1.931362 0.050135,3.653832 -0.2278349,1.296786 -0.2587548,1.684739 -0.2117909,2.657332 0.030246,0.626371 0.1030568,1.298501 0.1618027,1.493625 0.065906,0.218907 0.092973,0.954198 0.070677,1.920023 -0.031199,1.351523 -0.060391,1.591412 -0.2137954,1.756858 -0.2364384,0.254999 -0.6354661,0.252977 -0.704202,-0.0036 z"
   id="path7" /></svg>
