<?xml version="1.0" encoding="UTF-8" standalone="no"?>
<svg
   xmlns:dc="http://purl.org/dc/elements/1.1/"
   xmlns:cc="http://creativecommons.org/ns#"
   xmlns:rdf="http://www.w3.org/1999/02/22-rdf-syntax-ns#"
   xmlns:svg="http://www.w3.org/2000/svg"
   xmlns="http://www.w3.org/2000/svg"
   xmlns:sodipodi="http://sodipodi.sourceforge.net/DTD/sodipodi-0.dtd"
   xmlns:inkscape="http://www.inkscape.org/namespaces/inkscape"
   version="1.1"
   id="Layer_1"
   x="0px"
   y="0px"
   viewBox="0 0 50 50.000001"
   enable-background="new 0 0 604.502 1628.762"
   xml:space="preserve"
   sodipodi:docname="coshuma.svg"
   width="50"
   height="50"
   inkscape:version="1.0.1 (3bc2e813f5, 2020-09-07)"><metadata
   id="metadata9"><rdf:RDF><cc:Work
       rdf:about=""><dc:format>image/svg+xml</dc:format><dc:type
         rdf:resource="http://purl.org/dc/dcmitype/StillImage" /><dc:title></dc:title></cc:Work></rdf:RDF></metadata><defs
   id="defs7" /><sodipodi:namedview
   pagecolor="#ffffff"
   bordercolor="#666666"
   borderopacity="1"
   objecttolerance="10"
   gridtolerance="10"
   guidetolerance="10"
   inkscape:pageopacity="0"
   inkscape:pageshadow="2"
   inkscape:window-width="1366"
   inkscape:window-height="705"
   id="namedview5"
   showgrid="false"
   showborder="false"
   inkscape:zoom="4"
   inkscape:cx="25.339358"
   inkscape:cy="13.347565"
   inkscape:window-x="-8"
   inkscape:window-y="-8"
   inkscape:window-maximized="1"
   inkscape:current-layer="Layer_1"
   inkscape:document-rotation="0" />

<g
   id="g831"
   transform="matrix(1,0,0,1.1111111,12.499998,0)"><path
     style="fill:#000080;stroke-width:0.127081"
     d="m 13.218399,44.825745 c -0.07134,-0.123234 -0.193014,-0.157786 -0.407709,-0.115773 -0.341073,0.06674 -0.572467,0.06792 -1.534983,0.0078 -1.108516,-0.06919 -1.7016356,-0.208441 -1.7016356,-0.399513 0,-0.09616 0.340327,-0.480624 0.7562826,-0.85436 0.53633,-0.481895 0.756282,-0.787717 0.756282,-1.051538 0,-0.204608 0.09639,-0.588838 0.214198,-0.853846 0.316484,-0.711874 -0.05965,-2.260999 -0.900313,-3.707904 C 8.9590861,35.369679 8.8181942,34.826445 9.2882204,33.561936 9.698577,32.457956 9.6076064,31.434465 8.9346631,29.584134 8.6612989,28.832487 8.341686,27.756268 8.2244122,27.192534 7.9457525,25.853019 8.1445671,21.596373 8.5196302,20.87188 8.66555,20.590014 8.8421371,20.128776 8.9120452,19.84691 c 0.069908,-0.281868 0.273878,-0.819978 0.4532676,-1.1958 0.2646664,-0.554481 0.3240055,-1.11007 0.3147276,-2.946791 -0.010987,-2.175001 -0.028975,-2.28351 -0.4601915,-2.775963 -0.5827078,-0.665454 -0.780201,-0.754776 -0.780201,-0.352862 0,0.177049 -0.2082315,0.694019 -0.4627371,1.148821 -0.5839085,1.043448 -1.0498273,2.444617 -1.0498273,3.157168 0,0.593946 -0.2487345,1.103941 -1.2175516,2.496415 -0.891024,1.280664 -0.9370774,1.482954 -0.5659091,2.485744 0.3346651,0.904168 0.2853628,2.665976 -0.079213,2.830676 -0.095075,0.04295 -0.2220022,-0.18256 -0.2974548,-0.528484 -0.072388,-0.331871 -0.2115441,-0.603403 -0.3092364,-0.603403 -0.097692,0 -0.1789228,0.336319 -0.180517,0.747375 C 4.2741316,25.096703 4.06377,25.42478 3.7157802,25.185301 3.613382,25.114831 3.5283009,24.759298 3.5267105,24.39522 3.523753,23.721765 3.2889131,23.51648 3.0747729,24.00018 c -0.064995,0.146805 -0.1181686,0.476041 -0.1181686,0.731636 0,0.485303 -0.2694155,0.835579 -0.5766984,0.749786 -0.09877,-0.02758 -0.1795826,-0.432236 -0.1795826,-0.899241 0,-0.467006 -0.077354,-0.849102 -0.1718986,-0.849102 -0.094543,0 -0.2716376,0.278665 -0.3935394,0.619253 -0.3585001,1.001638 -0.381096,1.03725 -0.5964241,0.939973 -0.11521067,-0.05205 -0.18718021,-0.504587 -0.1751408,-1.101272 0.0190615,-0.944797 4.3718e-4,-1 -0.27735328,-0.82085 -0.4075101,0.262835 -0.68453613,0.241378 -0.55288853,-0.04282 0.35019579,-0.755999 0.60139717,-1.052048 1.25414501,-1.478048 l 0.7269537,-0.474431 0.06145,-2.728603 C 2.1258635,16.415797 2.1940332,15.83213 2.4492021,15.44808 2.6208733,15.189703 2.8915346,14.420974 3.0506749,13.739795 3.2098143,13.058617 3.4356741,12.328325 3.5525852,12.116925 3.6694954,11.905525 3.7764849,11.136797 3.79034,10.408641 3.8144445,9.1418364 3.8391125,9.0614718 4.3621792,8.5459063 5.0922244,7.8263266 6.1163609,7.430161 8.1372884,7.0855832 9.8556233,6.7925989 12.681003,6.0375232 13.703578,5.5980061 l 0.631703,-0.2715145 -0.0718,-0.7687282 C 14.19804,3.8571827 14.146229,3.7685566 13.679043,3.5580286 13.244683,3.3622934 13.166412,3.2547005 13.166412,2.8533612 c 0,-0.3640891 0.0656,-0.4736608 0.283605,-0.4736608 0.212142,0 0.283873,-0.1022342 0.284661,-0.4057178 0.0033,-1.26719407 1.65205,-2.05843522 4.098318,-1.96678994 2.069911,0.07754585 3.501644,0.81941098 3.522589,1.82526324 0.0077,0.3771805 0.0846,0.5472445 0.246993,0.5472445 0.68617,0 0.489957,0.9312398 -0.251744,1.1948057 -0.432328,0.1536293 -0.489237,0.2449663 -0.574746,0.922471 l -0.0949,0.7519588 0.614606,0.2776531 c 0.905008,0.4088447 2.662378,0.9254117 4.313151,1.2678206 3.685219,0.7644001 3.823977,0.8018587 4.478446,1.2089685 1.027272,0.6390086 1.314471,1.1748246 1.262594,2.3555539 -0.0276,0.62788 0.06163,1.266138 0.232809,1.665577 0.152653,0.356184 0.374489,1.108844 0.492976,1.672578 0.118474,0.563733 0.397221,1.370898 0.619413,1.793699 0.365567,0.695625 0.404661,1.016705 0.411083,3.376362 l 0.007,2.607634 0.672679,0.424572 c 0.618891,0.390623 0.980624,0.827878 1.181518,1.428188 0.09102,0.271994 0.0082,0.2885 -0.468547,0.09353 -0.333069,-0.136174 -0.345756,-0.10503 -0.345756,0.849102 0,0.548229 -0.08191,1.01334 -0.183517,1.041703 -0.202132,0.05644 -0.265512,-0.04816 -0.581443,-0.959609 -0.118125,-0.340724 -0.292086,-0.597902 -0.386629,-0.571505 -0.09454,0.0264 -0.17318,0.382044 -0.17479,0.790328 -0.0027,0.709441 -0.192965,1.06669 -0.4952,0.930148 -0.07726,-0.03491 -0.202279,-0.437382 -0.277765,-0.894375 -0.159792,-0.967265 -0.121345,-0.873604 -0.358563,-0.873604 -0.109515,0 -0.190268,0.278469 -0.191961,0.661961 -0.0015,0.364078 -0.08667,0.719615 -0.189078,0.790081 -0.347986,0.239479 -0.558371,-0.0886 -0.561419,-0.875495 -0.0015,-0.411056 -0.08284,-0.747375 -0.180538,-0.747375 -0.09768,0 -0.236309,0.269055 -0.308036,0.5979 -0.07174,0.328845 -0.197728,0.5979 -0.280009,0.5979 -0.322205,0 -0.422669,-1.183052 -0.188575,-2.22077 0.132474,-0.587223 0.281234,-1.24546 0.330595,-1.462748 0.06918,-0.304471 -0.134768,-0.750752 -0.889196,-1.946069 -0.833442,-1.320592 -1.002939,-1.714972 -1.140901,-2.654802 -0.191789,-1.306352 -0.246971,-1.477871 -0.852361,-2.648634 -0.255064,-0.493268 -0.513761,-1.049385 -0.574878,-1.235817 l -0.111137,-0.338966 -0.569295,0.637916 c -0.542431,0.607809 -0.570418,0.700404 -0.593014,1.961837 -0.04068,2.27015 0.143308,3.444164 0.782982,4.996734 1.26026,3.05876 1.204842,7.030259 -0.147595,10.578499 -0.46431,1.218146 -0.47454,1.580589 -0.08633,3.058301 0.373804,1.422777 0.301637,1.754693 -0.884359,4.06755 -1.042817,2.033627 -1.490672,3.671126 -1.1314,4.136714 0.112035,0.145205 0.203723,0.463881 0.203723,0.708169 0,0.344773 0.150569,0.572348 0.672936,1.017025 0.89692,0.763537 0.849305,1.054818 -0.200261,1.225007 -0.415953,0.06745 -1.198521,0.124604 -1.739039,0.127013 -0.645891,0.0029 -1.016505,0.04411 -1.08122,0.120297 -0.131023,0.154231 -0.68455,0.146904 -1.198979,-0.01588 -0.409741,-0.129651 -0.41533,-0.159098 -0.344352,-1.81505 0.03967,-0.925794 0.174965,-1.913882 0.300636,-2.195748 0.288856,-0.647878 0.09102,-2.799587 -0.316661,-3.444248 -0.446236,-0.70562 -0.403187,-1.785329 0.120679,-3.026824 l 0.459932,-1.089969 -0.426997,-0.831849 c -0.702232,-1.368266 -0.932292,-1.965467 -1.258101,-3.266151 -0.170624,-0.681178 -0.516684,-1.733706 -0.769011,-2.338951 -0.364549,-0.874422 -0.459372,-1.383181 -0.461672,-2.477014 -0.0027,-1.25674 -0.145005,-1.72259 -0.48014,-1.571188 -0.069,0.03118 -0.194395,0.87566 -0.278655,1.876639 -0.0912,1.082594 -0.30862,2.252542 -0.536696,2.887644 -0.210881,0.587222 -0.559299,1.721098 -0.774262,2.519719 -0.214963,0.798624 -0.559835,1.701879 -0.766382,2.007234 -0.615518,0.909974 -0.666388,1.555248 -0.188538,2.391599 0.669109,1.171103 0.685921,1.738226 0.09749,3.28845 -0.443014,1.167107 -0.503136,1.516265 -0.411817,2.391598 0.05881,0.563734 0.200389,1.168651 0.314617,1.344263 0.12815,0.197016 0.180782,0.858778 0.137429,1.728021 -0.06067,1.21637 -0.117428,1.43227 -0.415715,1.581172 -0.459743,0.229499 -1.235632,0.227679 -1.369285,-0.0032 z"
     id="path7" /></g></svg>
