<?xml version="1.0" encoding="UTF-8" standalone="no"?>
<svg
   xmlns:dc="http://purl.org/dc/elements/1.1/"
   xmlns:cc="http://creativecommons.org/ns#"
   xmlns:rdf="http://www.w3.org/1999/02/22-rdf-syntax-ns#"
   xmlns:svg="http://www.w3.org/2000/svg"
   xmlns="http://www.w3.org/2000/svg"
   xmlns:sodipodi="http://sodipodi.sourceforge.net/DTD/sodipodi-0.dtd"
   xmlns:inkscape="http://www.inkscape.org/namespaces/inkscape"
   version="1.1"
   x="0"
   y="0"
   width="34"
   height="50"
   viewBox="0 0 34 49.999999"
   id="svg5"
   sodipodi:docname="cuina.svg"
   inkscape:version="1.0.1 (3bc2e813f5, 2020-09-07)">
  <title
     id="title818">Restaurant chef</title>
  <metadata
     id="metadata11">
    <rdf:RDF>
      <cc:Work
         rdf:about="">
        <dc:format>image/svg+xml</dc:format>
        <dc:type
           rdf:resource="http://purl.org/dc/dcmitype/StillImage" />
        <dc:title>Restaurant chef</dc:title>
        <cc:license
           rdf:resource="http://creativecommons.org/publicdomain/zero/1.0/" />
      </cc:Work>
      <cc:License
         rdf:about="http://creativecommons.org/publicdomain/zero/1.0/">
        <cc:permits
           rdf:resource="http://creativecommons.org/ns#Reproduction" />
        <cc:permits
           rdf:resource="http://creativecommons.org/ns#Distribution" />
        <cc:permits
           rdf:resource="http://creativecommons.org/ns#DerivativeWorks" />
      </cc:License>
    </rdf:RDF>
  </metadata>
  <defs
     id="defs9" />
  <sodipodi:namedview
     pagecolor="#ffffff"
     bordercolor="#666666"
     borderopacity="1"
     objecttolerance="10"
     gridtolerance="10"
     guidetolerance="10"
     inkscape:pageopacity="0"
     inkscape:pageshadow="2"
     inkscape:window-width="1366"
     inkscape:window-height="705"
     id="namedview7"
     showgrid="false"
     fit-margin-top="0"
     fit-margin-left="0"
     fit-margin-right="0"
     fit-margin-bottom="0"
     inkscape:zoom="6.0365089"
     inkscape:cx="-10.621697"
     inkscape:cy="31.256784"
     inkscape:window-x="-8"
     inkscape:window-y="-8"
     inkscape:window-maximized="1"
     inkscape:current-layer="svg5"
     inkscape:document-rotation="0"
     inkscape:showpageshadow="false"
     showborder="false" />
  <g
     id="g11"
     style="fill:#000080">
    <g
       id="Layer_1"
       transform="matrix(0.11883903,0,0,0.12103246,-36.676305,-0.23258687)"
       style="fill:#000080">
      <path
         d="m 356.119,226.868 c 0.024,0.149 0.049,0.288 0.031,0.487 -0.007,0.089 -0.023,0.182 -0.058,0.289 l -0.053,0.149 -0.016,0.036 0.013,-0.031 -0.003,0.006 -0.01,0.022 c -0.063,0.126 -0.12,0.25 -0.188,0.369 -0.13,0.235 -0.256,0.46 -0.377,0.675 -0.113,0.205 -0.231,0.4 -0.348,0.578 -0.239,0.359 -0.452,0.681 -0.628,0.892 -0.168,0.215 -0.285,0.336 -0.285,0.336 0,0 -0.049,-0.158 -0.095,-0.431 -0.042,-0.274 -0.093,-0.653 -0.085,-1.121 0.007,-0.233 0.022,-0.488 0.049,-0.757 0.024,-0.279 0.082,-0.519 0.139,-0.792 0.026,-0.133 0.063,-0.266 0.097,-0.401 l 0.007,-0.026 10e-4,-0.006 v -0.003 l 0.018,-0.041 -0.009,0.012 -0.023,0.048 -0.026,0.083 -0.008,0.068 c -0.026,-0.023 -0.122,-0.219 -0.262,-0.392 -0.272,-0.372 -0.628,-0.787 -0.948,-1.187 -0.325,-0.404 -0.626,-0.804 -0.875,-1.166 -0.247,-0.368 -0.443,-0.693 -0.574,-0.933 -0.132,-0.238 -0.196,-0.392 -0.196,-0.392 0,0 0.165,0.016 0.433,0.083 0.269,0.066 0.638,0.183 1.059,0.365 0.417,0.184 0.882,0.439 1.343,0.773 0.463,0.34 0.926,0.741 1.342,1.291 0.197,0.289 0.414,0.589 0.535,1.117 m -15.592,-59.84 c 0.8,0.012 1.87,0.047 2.936,0.143 0.532,0.045 1.064,0.113 1.559,0.197 0.495,0.08 0.951,0.196 1.336,0.312 0.188,0.075 0.362,0.135 0.511,0.203 0.142,0.08 0.268,0.146 0.367,0.208 0.176,0.155 0.275,0.244 0.275,0.244 0,0 -0.106,-0.081 -0.29,-0.222 -0.105,-0.048 -0.231,-0.109 -0.376,-0.176 -0.15,-0.056 -0.327,-0.103 -0.515,-0.161 -0.386,-0.087 -0.841,-0.166 -1.335,-0.208 -0.492,-0.046 -1.02,-0.075 -1.549,-0.079 -1.057,-0.017 -2.115,0.029 -2.909,0.076 -0.799,0.046 -1.333,0.08 -1.333,0.08 l -0.002,-0.636 c 0,0 0.53,0.008 1.325,0.019 m 3.267,7.07 c -0.398,-0.158 -0.51,-2.301 -0.394,-2.277 5.691,1.145 0.792,2.435 0.394,2.277 m 19.725,-11.025 c -0.951,-5.559 -31.371,-9.133 -34.23,-7.703 -2.86,1.429 4.723,12.114 6.868,18.945 0,0 -2.262,5.911 -2.104,6.229 0.159,0.317 3.915,-3.07 5.361,-4.048 0.529,-0.357 7.506,-1.508 7.506,-1.508 0,0 4.449,-1.351 4.925,-1.033 1.854,0.953 0.476,5.597 -1.96,6.603 5.782,-0.889 9.531,-8.351 10.006,-9.347 -0.139,0.25 -0.543,0.696 -1.177,-0.949 -0.794,-2.066 -16.003,-3.991 -17.91,-5.917 -0.874,-0.884 -1.389,-0.657 -1.535,-0.545 0.112,-0.124 0.439,-0.582 0.998,-1.925 9.213,-6.196 19.151,0.961 23.252,1.198 m -3.572,8.023 -0.056,0.115 0.056,-0.115 M 408.405,272.7 c -4.34,2.022 -7.855,3.782 -10.156,5.14 l -4.073,-5.408 c 20.095,-18.186 44.152,-27.226 61.006,-31.624 18.222,-4.759 32.454,-5.349 37.88,-4.612 v 1.727 c -1.603,0.62 -4.243,1.644 -7.641,2.972 -31.427,2.05 -59.717,18.936 -77.016,31.805 m 32.135,-89.8 c -0.077,1.183 -0.425,2.903 -0.87,4.64 -0.134,-0.488 -0.285,-1.041 -0.459,-1.672 -0.933,-3.396 -5.363,-5.88 -8.328,-7.195 -0.081,-0.341 -0.156,-0.697 -0.219,-1.068 -0.372,-2.133 2.43,-4.686 4.318,-6.139 0.776,1.753 2.344,4.837 5.344,10.62 l 0.234,0.45 c -0.007,0.11 -0.013,0.231 -0.02,0.364 m -10.171,14.406 1.27,-2.33 c 1.272,-2.33 0.858,-11.966 0.858,-11.966 0,0 -0.193,-0.336 -0.459,-0.928 l 6.929,7.968 c -0.558,1.826 -1.13,3.348 -1.466,3.818 -0.839,1.176 -4.389,4.846 -6.047,6.48 -0.529,-0.087 -1.541,-0.481 -2.121,-0.706 -0.143,-0.055 -0.29,-0.112 -0.434,-0.167 z m -60.762,64.568 c -0.425,0.027 -0.848,0.058 -1.272,0.089 4.549,-1.734 9.105,-3.462 13.651,-5.235 l 3.951,-1.554 c 1.316,-0.513 2.626,-1.057 3.94,-1.586 1.315,-0.521 2.621,-1.086 3.928,-1.632 1.311,-0.536 2.606,-1.136 3.906,-1.705 1.299,-0.582 2.586,-1.207 3.871,-1.838 l 1.91,-1.022 c 0.635,-0.347 1.258,-0.793 1.883,-1.187 1.172,-0.837 2.264,-1.698 3.402,-2.545 l 3.378,-2.552 0.316,-0.239 -0.011,-0.356 -0.729,-27.321 -0.72,26.925 -3.216,2.169 c -1.168,0.78 -2.34,1.604 -3.507,2.344 -0.591,0.322 -1.133,0.679 -1.753,0.974 l -1.875,0.877 c -1.277,0.546 -2.562,1.086 -3.868,1.59 -1.313,0.493 -2.609,1.01 -3.937,1.474 -1.323,0.472 -2.64,0.957 -3.974,1.407 -1.332,0.454 -2.655,0.923 -3.994,1.365 l -4.007,1.333 c -5.351,1.762 -10.727,3.467 -16.107,5.203 -2.689,0.867 -5.38,1.743 -8.072,2.644 -1.356,0.464 -2.681,0.907 -4.064,1.408 l -2.085,0.771 -0.453,0.186 c -0.916,0.122 -1.675,0.225 -2.23,0.303 l -12.847,-6.933 c -0.181,-2.241 0.797,-8.132 2.08,-13.674 l 0.874,-4.271 -6.494,-5.782 1.546,-3.715 c 0.903,-0.079 1.881,-0.164 2.912,-0.255 1.489,-0.139 3.078,-0.287 4.668,-0.434 l 12.702,-1.242 c 0,0 -6.38,-0.014 -12.76,-0.029 -1.593,-0.01 -3.188,-0.02 -4.681,-0.03 -1.487,-0.018 -2.874,-0.035 -4.063,-0.05 -0.213,-0.005 -0.412,-0.008 -0.612,-0.013 l -1.799,-1.799 -1.194,-19.661 c 1.025,-0.178 2.135,-0.376 3.298,-0.643 0.916,-0.21 1.862,-0.456 2.809,-0.793 0.945,-0.347 1.918,-0.753 2.776,-1.482 0.416,-0.359 0.82,-0.87 0.982,-1.438 0.184,-0.612 0.151,-1.15 0.078,-1.677 -0.172,-1.042 -0.588,-1.966 -1.119,-2.773 -0.123,-0.178 -0.254,-0.351 -0.391,-0.518 0.129,0.115 0.249,0.226 0.395,0.35 0.996,0.848 2.405,1.834 3.892,2.683 1.488,0.848 3.054,1.56 4.289,1.984 0.62,0.211 1.15,0.361 1.529,0.452 0.378,0.093 0.604,0.127 0.604,0.127 0,0 -0.143,-0.179 -0.417,-0.456 -0.27,-0.281 -0.671,-0.66 -1.168,-1.084 -0.996,-0.848 -2.405,-1.833 -3.893,-2.679 -1.489,-0.848 -3.056,-1.556 -4.291,-1.981 -0.617,-0.212 -1.149,-0.363 -1.528,-0.456 -0.377,-0.093 -0.603,-0.126 -0.603,-0.126 0,0 0.111,0.135 0.312,0.344 -0.261,-0.191 -0.539,-0.361 -0.852,-0.471 -0.224,-0.08 -0.473,-0.104 -0.675,-0.112 -0.234,-0.006 -0.446,0.009 -0.655,0.046 -0.415,0.069 -0.793,0.201 -1.139,0.355 -0.688,0.311 -1.256,0.695 -1.74,1.046 -0.486,0.352 -0.89,0.681 -1.225,0.946 -0.335,0.265 -0.604,0.465 -0.804,0.575 -0.101,0.051 -0.183,0.087 -0.242,0.088 l -0.088,-0.007 0.089,0.014 c 0.061,0.003 0.145,-0.028 0.252,-0.071 0.211,-0.097 0.497,-0.279 0.852,-0.518 0.356,-0.24 0.782,-0.537 1.286,-0.85 0.504,-0.309 1.086,-0.641 1.757,-0.884 0.669,-0.236 1.442,-0.387 2.147,-0.12 0.686,0.29 1.253,0.967 1.679,1.712 0.423,0.753 0.729,1.626 0.806,2.498 0.034,0.423 -10e-4,0.882 -0.128,1.198 -0.136,0.367 -0.397,0.632 -0.734,0.885 -0.683,0.49 -1.575,0.796 -2.458,1.031 -0.889,0.229 -1.8,0.386 -2.686,0.51 -1.782,0.245 -3.467,0.351 -4.954,0.494 -0.376,0.037 -0.737,0.074 -1.105,0.132 -0.187,0.03 -0.372,0.061 -0.587,0.118 -0.11,0.031 -0.225,0.063 -0.386,0.135 l -0.21,0.117 c -4.351,-0.441 -8.48,-1.257 -10.121,-1.992 0.968,-4.115 8.754,-18.7 15.996,-30.853 l 0.502,-0.841 -0.617,-3.076 c -0.432,-2.168 -3.799,-6.991 -6.092,-10.087 v -0.482 c 0.423,-2.244 5.805,-20.051 9.509,-32.101 2.609,0.129 7.842,0.528 14.96,1.741 6.274,1.172 13.327,2.809 20.59,4.767 8.173,5.824 21.203,16.112 22.081,22.258 1.271,8.895 -0.212,8.683 0,9.954 0.211,1.271 0,14.191 0,14.191 l 17.367,1.058 c 0,0 2.284,-2.857 5.529,-6.384 -0.353,2.22 -0.213,4.814 1.621,6.648 2.271,2.271 4.432,2.725 5.794,2.725 0.148,0 0.274,-0.012 0.403,-0.02 -0.157,0.254 -0.304,0.443 -0.427,0.527 -0.867,0.583 1.694,3.282 1.907,5.824 0.211,2.541 -5.084,3.389 -6.355,3.601 -1.27,0.211 -0.758,3.66 -1.836,5.506 -2.472,4.235 3.53,5.718 3.53,5.718 l 2.33,-1.666 c 2.331,-1.666 5.039,-1.087 5.039,-1.087 l 10e-4,0.002 1.518,1.15 c -0.336,0.441 -0.811,0.559 -0.996,0.546 0.295,0.021 1.18,0.365 1.765,0.592 1.22,0.474 2.539,0.986 3.735,0.986 0.786,0 1.52,-0.222 2.137,-0.821 1.089,-1.056 5.552,-5.562 6.778,-7.276 1.314,-1.837 3.515,-9.455 3.74,-12.938 0.098,-1.523 -0.802,-3.354 -1.245,-3.998 -2.159,-4.185 -6.57,-12.292 -7.578,-14.355 l -0.2,-0.441 -4.691,1.223 c -4.013,1.048 -8.414,6.248 -8.414,7.967 -0.009,0.513 -0.575,3.523 -1.169,6.426 -0.814,-0.005 -2.285,-0.303 -3.969,-1.988 -2.067,-2.068 -0.527,-6.595 0.241,-8.167 l 0.001,-0.002 -0.33,-0.161 c 5.317,-5.331 11.753,-10.628 15.498,-9.559 7.2,2.056 12.709,12.645 16.096,21.117 0.939,2.345 1.346,4.469 1.461,6.33 -0.145,0.526 -3.096,11.085 -4.956,12.944 -1.905,1.906 -9.53,9.213 -12.708,13.025 -3.176,3.812 -12.814,1.377 -12.814,1.377 0,0 -2.751,-0.741 -3.388,-1.694 -0.636,-0.954 -0.953,-8.579 -0.953,-8.579 v -1.27 c 0,0 -2.224,5.878 -2.224,6.354 0,0.476 1.169,8.895 1.169,8.895 0,0 11.063,0.159 12.651,0 1.59,-0.159 8.896,0.636 10.642,-2.859 1.299,-2.596 13.811,-9.484 20.163,-12.857 5.491,4.611 12.149,10.349 16.003,14.19 l 1.962,13.73 c -25.277,-1.387 -70.716,25.088 -81.77,32.786 -2.912,-1.638 -9.168,-2.712 -24.214,-1.707 m 9.909,-184.35 -0.018,-0.113 -10e-4,-0.038 0.002,0.01 0.014,0.101 v 0.027 z M 349.43,88.469 c 0.209,-0.443 0.285,-0.935 0.222,-1.42 -1.562,-11.785 -6.915,-50.574 -10.249,-54.908 -1.936,-2.516 -2.825,-4.228 -3.18,-5.013 1.513,-6.894 3.804,-14.727 5.147,-16.681 2.632,-0.338 5.244,-2.213 6.625,-3.358 21.229,1.821 54.486,4.917 58.928,5.962 0.151,0.14 0.334,0.315 0.507,0.479 3.405,3.241 13.769,13.103 30.138,16.61 18.981,4.068 46.509,14.738 50.141,18.629 0.749,0.803 2.326,2.652 4.324,4.992 16.081,18.845 32.05,36.496 39.94,38.023 0.186,0.036 4.644,1.174 10.967,26.408 3.209,12.806 5.386,25.868 5.686,28.355 -1.499,3.911 -15.799,31.052 -25.241,48.709 -7.748,-0.843 -23.921,-4.248 -27.337,-12.576 -2.282,-5.562 -2.539,-12.972 -2.766,-19.51 -0.074,-2.169 -0.146,-4.183 -0.281,-6.009 2.933,1.824 6.462,3.87 10.106,5.703 2.308,1.17 4.657,2.252 6.887,3.193 1.114,0.471 2.2,0.902 3.232,1.301 1.036,0.392 2.017,0.752 2.93,1.063 1.822,0.633 3.358,1.095 4.436,1.408 1.08,0.301 1.698,0.473 1.698,0.473 0,0 -0.592,-0.247 -1.624,-0.679 -1.028,-0.443 -2.49,-1.09 -4.205,-1.935 -0.86,-0.418 -1.78,-0.893 -2.748,-1.404 -0.963,-0.517 -1.972,-1.071 -3.005,-1.667 -2.062,-1.193 -4.219,-2.53 -6.319,-3.947 -3.624,-2.428 -7.068,-5.075 -9.807,-7.322 l 0.542,-0.661 c 3.686,0.122 8.203,0.193 12.713,-0.132 1.349,-0.104 2.694,-0.225 4.013,-0.398 1.319,-0.162 2.611,-0.373 3.854,-0.613 1.243,-0.238 2.432,-0.524 3.549,-0.825 1.117,-0.31 2.158,-0.644 3.104,-0.988 0.941,-0.356 1.798,-0.696 2.531,-1.052 0.745,-0.325 1.361,-0.682 1.875,-0.949 0.511,-0.278 0.89,-0.535 1.157,-0.691 0.265,-0.161 0.406,-0.247 0.406,-0.247 0,0 -0.155,0.062 -0.443,0.178 -0.289,0.109 -0.7,0.299 -1.245,0.487 -0.548,0.176 -1.197,0.422 -1.973,0.617 -0.764,0.225 -1.644,0.413 -2.6,0.605 -0.959,0.178 -2.005,0.33 -3.112,0.448 -1.11,0.107 -2.281,0.191 -3.495,0.219 -1.212,0.031 -2.464,0.027 -3.738,-0.028 -1.27,-0.045 -2.561,-0.144 -3.848,-0.258 -5.159,-0.485 -10.237,-1.5 -14.106,-2.302 -0.383,-0.077 -0.741,-0.149 -1.098,-0.222 -0.166,-0.247 -0.338,-0.498 -0.524,-0.751 -1.28,-1.796 -2.981,-3.758 -5.069,-5.727 -1.156,-1.093 -2.437,-2.192 -3.812,-3.29 4.041,-1.323 9.232,-3.066 14.4,-4.929 5.437,-1.96 10.836,-4.05 14.781,-5.872 1.973,-0.907 3.579,-1.751 4.652,-2.435 0.273,-0.156 0.498,-0.335 0.701,-0.471 0.205,-0.138 0.371,-0.263 0.497,-0.379 0.257,-0.219 0.394,-0.336 0.394,-0.336 0,0 -0.152,0.095 -0.439,0.272 -0.139,0.094 -0.32,0.191 -0.541,0.296 -0.22,0.103 -0.461,0.24 -0.753,0.354 -1.142,0.504 -2.833,1.085 -4.892,1.676 -4.12,1.186 -9.714,2.424 -15.334,3.526 -5.619,1.106 -11.268,2.081 -15.506,2.779 -1.854,0.297 -3.417,0.547 -4.611,0.738 -4.887,-3.2 -10.509,-6.324 -16.579,-9.302 l -0.19,-0.091 c 0.59,-0.219 1.217,-0.448 1.87,-0.686 5.218,-1.902 12.268,-4.389 19.201,-7.21 1.734,-0.701 3.458,-1.434 5.149,-2.17 1.687,-0.745 3.338,-1.501 4.918,-2.271 1.58,-0.775 3.098,-1.54 4.504,-2.335 1.414,-0.775 2.717,-1.577 3.896,-2.347 0.589,-0.388 1.136,-0.789 1.662,-1.154 0.508,-0.396 0.992,-0.767 1.436,-1.128 0.428,-0.384 0.836,-0.73 1.195,-1.073 0.342,-0.356 0.659,-0.684 0.944,-0.98 0.512,-0.646 0.919,-1.139 1.122,-1.531 0.226,-0.372 0.346,-0.572 0.346,-0.572 0,0 -0.142,0.183 -0.41,0.526 -0.243,0.361 -0.705,0.802 -1.273,1.366 -0.311,0.256 -0.654,0.537 -1.028,0.845 -0.388,0.29 -0.826,0.581 -1.281,0.902 -0.471,0.3 -0.985,0.604 -1.518,0.927 -0.557,0.295 -1.128,0.62 -1.743,0.928 -1.236,0.611 -2.586,1.239 -4.052,1.832 -1.456,0.608 -3.025,1.18 -4.649,1.751 -1.629,0.57 -3.327,1.117 -5.059,1.648 -1.739,0.525 -3.503,1.042 -5.284,1.527 -7.113,1.96 -14.323,3.584 -19.763,4.869 -2.724,0.641 -5.006,1.203 -6.663,1.672 -0.777,0.212 -1.621,0.496 -2.064,0.652 l -0.029,0.012 c -3.258,-1.452 -6.591,-2.861 -9.956,-4.231 0.643,-0.677 1.364,-1.459 2.175,-2.375 0.91,-1.019 1.903,-2.191 2.965,-3.482 4.232,-5.173 9.36,-12.412 13.5,-20.211 1.03,-1.952 2.004,-3.933 2.854,-5.938 0.839,-2.01 1.603,-4.021 2.067,-6.072 0.125,-0.508 0.211,-1.026 0.283,-1.54 0.058,-0.504 0.118,-1.002 0.175,-1.495 0.122,-0.972 0.239,-1.924 0.353,-2.851 0.213,-1.857 0.528,-3.581 0.758,-5.193 0.294,-1.597 0.533,-3.071 0.824,-4.361 0.139,-0.646 0.271,-1.25 0.392,-1.808 0.14,-0.555 0.268,-1.065 0.385,-1.524 0.238,-0.919 0.455,-1.633 0.613,-2.116 0.158,-0.486 0.258,-0.737 0.258,-0.737 0,0 -0.111,0.247 -0.291,0.724 -0.178,0.478 -0.431,1.182 -0.708,2.092 -0.138,0.455 -0.29,0.959 -0.457,1.509 -0.146,0.554 -0.303,1.153 -0.474,1.795 -0.35,1.28 -0.653,2.744 -1.022,4.335 -0.303,1.602 -0.7,3.337 -0.995,5.178 -0.156,0.921 -0.317,1.866 -0.48,2.833 -0.139,0.987 -0.383,1.903 -0.726,2.837 -0.668,1.865 -1.638,3.709 -2.68,5.534 -1.053,1.824 -2.228,3.621 -3.456,5.38 -4.922,7.038 -10.73,13.403 -15.333,17.795 -1.154,1.098 -2.223,2.085 -3.192,2.932 -0.96,0.849 -1.826,1.578 -2.521,2.145 -0.348,0.283 -0.66,0.536 -0.931,0.756 -0.29,0.228 -0.539,0.422 -0.739,0.579 -0.401,0.315 -0.616,0.483 -0.616,0.483 l 0.029,0.031 c -3.834,-1.474 -7.67,-2.888 -11.459,-4.235 0.923,-1.231 2.506,-3.053 4.249,-5.388 0.922,-1.227 1.887,-2.61 2.815,-4.143 0.932,-1.529 1.838,-3.203 2.598,-5.022 0.756,-1.769 1.409,-3.562 2.076,-5.404 0.658,-1.84 1.289,-3.717 1.89,-5.601 2.403,-7.531 4.326,-15.164 5.518,-20.94 0.597,-2.887 1.01,-5.311 1.204,-7.023 0.098,-0.855 0.141,-1.532 0.122,-1.995 -0.008,-0.232 -0.034,-0.409 -0.067,-0.524 -0.039,-0.115 -0.091,-0.156 -0.087,-0.158 0,0 0.042,0.047 0.067,0.162 0.021,0.116 0.027,0.292 0.009,0.518 -0.032,0.455 -0.15,1.116 -0.339,1.948 -0.38,1.662 -1.056,4.009 -1.963,6.792 -1.817,5.565 -4.56,12.886 -7.729,19.977 -0.792,1.77 -1.612,3.528 -2.446,5.235 -0.84,1.702 -1.683,3.394 -2.547,4.915 -0.826,1.486 -1.775,2.848 -2.738,4.092 -0.96,1.248 -1.951,2.376 -2.914,3.395 -1.92,2.053 -3.681,3.647 -4.981,5.049 -0.163,0.178 -0.314,0.333 -0.465,0.506 -0.152,0.179 -0.293,0.348 -0.426,0.502 l -0.195,0.237 c -0.081,0.112 -0.158,0.221 -0.23,0.325 l -0.137,0.203 c -4.475,-1.527 -8.824,-2.952 -12.951,-4.26 0.043,-0.182 0.086,-0.376 0.136,-0.588 0.094,-0.433 0.202,-0.933 0.323,-1.493 0.443,-2.177 1.077,-5.285 1.837,-9.016 0.765,-3.709 1.705,-8.019 2.797,-12.619 0.279,-1.166 0.563,-2.351 0.851,-3.551 0.264,-1.138 0.545,-2.545 0.714,-3.819 0.368,-2.587 0.519,-5.219 0.502,-7.833 -0.034,-5.23 -0.766,-10.37 -1.812,-15.077 -0.524,-2.354 -1.136,-4.601 -1.807,-6.702 -0.674,-2.099 -1.39,-4.058 -2.168,-5.824 -0.385,-0.883 -0.786,-1.718 -1.217,-2.494 -0.213,-0.389 -0.435,-0.762 -0.679,-1.117 -0.226,-0.356 -0.536,-0.699 -0.788,-0.968 -1.05,-1.134 -1.966,-2.124 -2.719,-2.938 -1.507,-1.63 -2.37,-2.562 -2.37,-2.562 0,0 0.772,1.009 2.12,2.772 0.676,0.882 1.495,1.951 2.434,3.18 0.245,0.321 0.454,0.59 0.641,0.945 0.192,0.339 0.375,0.709 0.545,1.097 0.344,0.773 0.665,1.613 0.964,2.503 0.609,1.775 1.146,3.746 1.624,5.846 0.482,2.102 0.891,4.338 1.204,6.662 0.624,4.644 0.897,9.65 0.507,14.559 -0.192,2.453 -0.545,4.878 -1.08,7.196 -0.125,0.59 -0.278,1.143 -0.429,1.69 -0.131,0.531 -0.333,1.137 -0.516,1.718 -0.383,1.151 -0.761,2.29 -1.133,3.409 -1.498,4.545 -2.82,8.815 -3.91,12.48 -1.075,3.647 -1.97,6.688 -2.598,8.815 -0.158,0.515 -0.298,0.973 -0.421,1.373 -0.038,0.114 -0.07,0.211 -0.104,0.315 -1.938,-0.592 -3.813,-1.158 -5.597,-1.688 -1.602,-0.475 -3.135,-0.924 -4.597,-1.347 0.037,-0.152 0.083,-0.33 0.139,-0.562 0.195,-0.815 0.378,-1.828 0.51,-3.201 0.12,-1.356 0.146,-2.996 -0.014,-4.816 -0.154,-1.819 -0.51,-3.82 -0.993,-5.86 -0.233,-1.003 -0.513,-2.068 -0.693,-2.942 -0.039,-0.2 -0.078,-0.415 -0.088,-0.517 l -0.01,-0.059 -0.01,0.003 -0.006,0.036 -0.005,0.018 c 0.051,-0.573 0.012,-0.173 0.025,-0.308 v -0.026 l -0.004,-0.178 c -0.004,-0.149 -0.014,-0.298 -0.03,-0.446 l -0.03,-0.217 -0.02,-0.091 -0.039,-0.18 c -0.026,-0.131 -0.052,-0.212 -0.08,-0.311 -0.052,-0.202 -0.104,-0.356 -0.158,-0.528 -0.108,-0.324 -0.218,-0.626 -0.329,-0.922 -0.894,-2.315 -1.92,-4.526 -3.008,-6.846 -2.184,-4.608 -4.633,-9.428 -7.183,-14.198 -2.551,-4.768 -5.207,-9.479 -7.856,-13.807 -1.326,-2.164 -2.652,-4.231 -3.978,-6.152 -1.327,-1.917 -2.648,-3.695 -4.029,-5.226 -5.461,-5.944 -9.101,-9.906 -9.101,-9.906 0,0 3.291,4.253 8.227,10.635 1.192,1.573 2.332,3.415 3.47,5.401 1.134,1.99 2.261,4.133 3.383,6.375 2.24,4.483 4.459,9.358 6.571,14.274 2.11,4.918 4.117,9.884 5.858,14.559 0.859,2.326 1.685,4.625 2.28,6.682 0.072,0.252 0.136,0.497 0.188,0.72 l 0.04,0.183 -0.008,0.071 c -0.018,0.179 -0.014,0.283 -0.018,0.419 -0.002,0.134 0,0.255 0.005,0.356 0.015,0.45 0.06,0.776 0.101,1.114 0.176,1.271 0.378,2.25 0.535,3.224 0.323,1.909 0.501,3.574 0.529,5.027 0.031,1.45 -0.074,2.672 -0.227,3.653 -0.154,0.961 -0.359,1.76 -0.486,2.161 -0.064,0.2 -0.114,0.354 -0.155,0.487 -6.01,-1.672 -9.642,-2.589 -9.642,-2.589 0,0 8.275,2.659 20.499,7.157 12.219,4.493 28.392,10.837 44.063,18.147 7.83,3.657 15.532,7.557 22.502,11.556 6.972,3.989 13.202,8.107 18.04,12.044 2.42,1.966 4.488,3.88 6.136,5.656 1.653,1.775 2.49,3.255 3.328,4.61 0.558,0.869 1.059,1.668 1.435,2.33 l -0.044,-0.015 0.054,0.034 c 0.208,0.365 0.388,0.7 0.494,0.952 0.142,0.471 0.907,3.486 1.404,5.45 0.083,1.466 0.133,2.946 0.179,4.229 0.089,2.595 0.184,5.32 0.403,8.047 -3.244,-0.888 -14.121,-3.928 -26.717,-8.072 -8.644,-3.203 -18.381,-6.843 -28.327,-10.568 -4.6,-2.01 -8.81,-4.071 -12.277,-6.122 -19.521,-11.544 -64.873,-25.083 -86.91,-26.334 z m 162.481,165.176 -3.601,-11.438 c -3.406,-0.639 -6.797,-1.058 -10.166,-1.293 v -8.558 l -1.702,-0.596 c -2.618,-0.917 -8.049,-1.159 -15.095,-0.62 l -2.151,-12.861 c 2.465,-6.485 9.281,-24.649 11.961,-34.163 0.062,0.164 0.121,0.331 0.188,0.493 5.615,13.689 32.173,15.785 33.3,15.867 l 0.187,0.007 c 0.931,0 1.794,-0.512 2.24,-1.341 0.064,-0.124 6.672,-12.465 13.193,-24.879 13.477,-25.653 13.477,-26.536 13.477,-27.471 0,-1.502 -2.389,-15.822 -5.754,-29.365 C 541.572,91.615 536.574,87.498 532.938,86.793 525.708,85.394 504.052,60.015 495.9,50.462 493.782,47.981 492.251,46.186 491.423,45.3 486.321,39.833 456.408,28.979 438.631,25.17 423.665,21.962 414.083,12.845 410.934,9.848 410.431,9.369 410.098,9.053 409.824,8.833 408.973,8.152 408.239,7.564 377.33,4.634 362.413,3.219 347.499,1.943 347.348,1.931 c -0.717,-0.062 -1.431,0.188 -1.957,0.68 -1.256,1.177 -3.63,2.806 -4.824,2.806 -1.718,0 -4.917,0 -9.476,21.391 -0.087,0.406 -0.072,0.828 0.043,1.228 0.078,0.275 0.866,2.818 4.216,7.17 1.799,2.8 6.047,28.377 9.164,51.767 l -16.411,34.694 c -0.373,0.786 -0.312,1.708 0.152,2.443 -9.709,31.545 -9.715,32.926 -9.715,33.377 v 2.331 l 0.508,0.677 c 2.504,3.342 5.39,7.655 5.683,8.716 l 0.232,1.164 c -1.32,2.241 -5.041,8.61 -8.539,15.108 -8.898,16.531 -8.506,18.9 -6.894,20.624 2.248,2.405 9.293,3.474 13.806,3.921 l 1.101,18.14 2.656,2.655 -1.695,4.07 7.045,6.271 c -1.543,6.286 -3.454,15.765 -1.881,18.911 l 0.36,0.719 15.054,8.125 c 0.485,0.323 1.115,0.491 1.857,0.384 0.929,-0.134 1.843,-0.26 2.751,-0.383 l 0.087,0.196 0.616,-0.291 c 22.078,-2.946 37.58,-2.731 40.152,-0.76 -0.812,0.722 -1.62,1.456 -2.418,2.208 l -1.658,1.559 8.364,11.111 c -3.212,2.832 -4.964,4.588 -4.964,4.588 0,0 5.294,13.979 6.035,15.25 l -18.108,14.403 -1.482,21.815 c 0,0 -6.99,17.579 -9.532,22.237 -0.911,1.673 -3.901,8.807 -7.359,17.265 6.179,-9.16 13.542,-19.74 20.982,-30.271 19.627,-27.781 39.751,-55.191 39.751,-55.191 0,0 -19.611,27.784 -38.707,55.913 -9.548,14.065 -18.963,28.218 -25.739,38.994 -0.118,0.189 -0.23,0.37 -0.348,0.555 -5.035,12.465 -9.784,24.44 -9.784,24.44 0,0 21.983,-0.176 52.975,-0.291 0.007,-0.129 0.022,-0.442 0.047,-0.923 0.08,-0.58 0.219,-1.402 0.467,-2.373 0.487,-1.958 1.336,-4.634 2.455,-7.8 2.231,-6.33 5.523,-14.61 8.927,-22.841 6.807,-16.463 14.051,-32.726 14.051,-32.726 0,0 -6.659,16.514 -12.867,33.19 -3.105,8.335 -6.095,16.716 -8.077,23.054 -0.992,3.166 -1.731,5.826 -2.117,7.665 -0.202,0.922 -0.288,1.616 -0.338,2.071 0,0.395 -0.013,0.605 -0.013,0.605 l -1.274,0.074 c 66.071,-0.239 171.678,-0.189 194.015,2.388 0,-80.059 -82.812,-161.389 -82.812,-161.389 m -26.004,-101.056 0.165,0.091 -0.004,-0.002 c -0.089,-0.029 -0.271,-0.154 -0.161,-0.089"
         id="path2"
         inkscape:connector-curvature="0"
         style="fill:#000080"
         sodipodi:nodetypes="ccccccccccccccccccccccccccccccccccccccccccccccccccccccccccccccccccccccccccccccccccccccccccccccccccccccccccccccccccccccccccccccccccccccccccccccccccccccccccccccccccccccccsccccccccccccccccccccccccccccccccccssccccccccccccsccccccccccccccccccccccsccccccccccccccccccccccccccccccccccccccccccccccccccccccccccccccccccccccccccccccccccccccccccccccccccccccccccccccccccccccccccccccccccccccccccccccccccccccccccccccccccccccccccccccccccccccccccccccccccccccccccccccccccccccccccccccccccccccccccccccccccccccccccccccccccccccccccccccccccccsccccccccccsccccccscccccccccccccccccccccccccccccccccccccccccccccccccccc" />
    </g>
  </g>
</svg>
