<?xml version="1.0" encoding="UTF-8" standalone="no"?>
<svg
   xmlns:dc="http://purl.org/dc/elements/1.1/"
   xmlns:cc="http://creativecommons.org/ns#"
   xmlns:rdf="http://www.w3.org/1999/02/22-rdf-syntax-ns#"
   xmlns:svg="http://www.w3.org/2000/svg"
   xmlns="http://www.w3.org/2000/svg"
   xmlns:sodipodi="http://sodipodi.sourceforge.net/DTD/sodipodi-0.dtd"
   xmlns:inkscape="http://www.inkscape.org/namespaces/inkscape"
   version="1.1"
   id="svg5"
   sodipodi:docname="dulces.svg"
   width="50"
   height="50"
   inkscape:version="1.0.1 (3bc2e813f5, 2020-09-07)">
  <metadata
     id="metadata9">
    <rdf:RDF>
      <cc:Work
         rdf:about="">
        <dc:format>image/svg+xml</dc:format>
        <dc:type
           rdf:resource="http://purl.org/dc/dcmitype/StillImage" />
        <dc:title></dc:title>
      </cc:Work>
    </rdf:RDF>
  </metadata>
  <sodipodi:namedview
     pagecolor="#ffffff"
     bordercolor="#666666"
     borderopacity="1"
     objecttolerance="10"
     gridtolerance="10"
     guidetolerance="10"
     inkscape:pageopacity="0"
     inkscape:pageshadow="2"
     inkscape:window-width="1366"
     inkscape:window-height="705"
     id="namedview7"
     showgrid="false"
     inkscape:showpageshadow="false"
     inkscape:zoom="1.7033333"
     inkscape:cx="150"
     inkscape:cy="78.846747"
     inkscape:window-x="-8"
     inkscape:window-y="-8"
     inkscape:window-maximized="1"
     inkscape:current-layer="svg5" />
  <defs
     id="defs7922" />
  <g
     id="g13"
     transform="matrix(0.21935202,0,0,0.21935202,2.0000005,1.8125713e-7)">
    <g
       transform="translate(270.38249,16.096962)"
       id="layer1">
      <path
         id="path8484"
         d="m -182.84238,211.31579 c -0.6791,-0.36586 -2.50473,-0.94203 -4.05695,-1.28038 -1.55222,-0.33834 -2.98097,-0.72568 -3.175,-0.86075 -0.19403,-0.13506 -1.01899,-0.43595 -1.83326,-0.66863 -0.81427,-0.23269 -2.28115,-1.10651 -3.25975,-1.94182 -1.92718,-1.64501 -4.41928,-2.49967 -5.5096,-1.8895 -0.76414,0.42763 -5.00341,0.0607 -5.66762,-0.49049 -0.32177,-0.26705 -1.12651,-0.32435 -2.34062,-0.16667 -1.96353,0.255 -4.46891,0.26284 -6.78915,0.0212 -0.77611,-0.0808 -2.60174,-0.23881 -4.05694,-0.35111 -1.45521,-0.11229 -3.26248,-0.36795 -4.01615,-0.56812 -1.32067,-0.35077 -4.14972,-1.97158 -4.39172,-2.5161 -0.0647,-0.14552 -0.27446,-0.26458 -0.46618,-0.26458 -1.21449,0 -3.74383,-5.452 -4.70532,-10.14236 -0.12927,-0.63058 -0.38117,-1.14652 -0.55978,-1.14652 -0.17861,0 -0.32474,-0.2113 -0.32474,-0.46955 0,-0.25826 -0.43657,-0.69482 -0.97014,-0.97014 -1.67447,-0.86401 -2.68416,-2.32755 -3.06867,-4.448 -0.0928,-0.51171 -0.33327,-1.09494 -0.5344,-1.29607 -0.20113,-0.20113 -0.36568,-1.10057 -0.36568,-1.99876 0,-1.31718 0.25757,-2.00177 1.33156,-3.53905 0.74356,-1.06431 1.95088,-2.24756 2.73403,-2.67953 0.77135,-0.42546 1.56121,-0.90664 1.75524,-1.06928 0.19403,-0.16264 1.06715,-0.60161 1.94028,-0.97549 1.80175,-0.77152 2.46944,-1.21054 2.46944,-1.62373 0,-0.35234 -2.08073,-0.32395 -2.30034,0.0314 -0.40519,0.65562 -11.95767,0.52767 -14.28021,-0.15816 -0.87313,-0.25782 -1.74625,-0.48936 -1.94028,-0.51454 -0.19403,-0.0251 -0.82903,-0.11962 -1.41111,-0.20989 -0.58209,-0.0903 -2.96334,-0.23217 -5.29167,-0.31536 -4.47454,-0.15985 -6.559,-0.66664 -9.87778,-2.40159 -2.16169,-1.13005 -2.56492,-1.56929 -4.36853,-4.75867 -1.83837,-3.25083 -2.64066,-7.57073 -1.9803,-10.66286 0.97772,-4.57818 2.30165,-5.9852 5.92304,-6.29479 2.02468,-0.1731 3.4244,-0.81753 3.4244,-1.57661 0,-0.17215 0.19844,-0.5558 0.44097,-0.85256 1.33545,-1.63402 1.74319,-1.9001 2.9117,-1.9001 0.6798,0 1.82839,-0.3175 2.55241,-0.70556 1.47675,-0.79148 2.61517,-0.8905 3.68086,-0.32016 0.60582,0.32422 0.89878,0.21223 1.84569,-0.70556 0.83966,-0.81383 1.45206,-1.09094 2.41088,-1.09094 0.70691,0 1.38341,0.15875 1.50333,0.35277 0.40484,0.65506 2.44162,0.35498 3.41623,-0.5033 1.06974,-0.94207 1.01558,-2.15239 -0.11233,-2.51038 -0.81981,-0.2602 -1.80407,-1.6866 -1.89212,-2.74206 -0.0353,-0.42386 -0.18334,-1.34806 -0.32886,-2.05379 -0.36415,-1.76603 1.48556,-5.26051 3.501,-6.6141 1.9613,-1.31722 1.91178,-2.30137 -0.1742,-3.4618 -1.75423,-0.97589 -3.50307,-2.22642 -5.11528,-3.65774 -0.58208,-0.51678 -1.77271,-1.57332 -2.64583,-2.34787 -1.61251,-1.43047 -7.77963,-4.68396 -8.87862,-4.68396 -0.33098,0 -1.64524,-0.71437 -2.92057,-1.5875 -1.27533,-0.87312 -2.39885,-1.5875 -2.49671,-1.5875 -0.33266,0 -2.2669,-2.29003 -2.48741,-2.94495 -0.12073,-0.35855 0.0341,-1.31597 0.34408,-2.12761 0.48131,-1.260298 0.88547,-1.637908 2.76876,-2.586938 2.21901,-1.11819 4.03698,-1.65488 6.96769,-2.05695 0.87312,-0.11978 1.98508,-0.27985 2.47101,-0.35571 0.61374,-0.0958 1.35598,0.23595 2.4309,1.08656 1.44067,1.14004 3.21198,1.63856 3.21198,0.90397 0,-0.17628 1.09815,-1.44736 2.44034,-2.82462 2.40449,-2.4673 2.43522,-2.52268 2.09123,-3.76849 -0.49931,-1.80837 -0.20936,-2.25859 1.45458,-2.25859 1.41089,0 1.42218,-0.0106 1.42218,-1.33699 0,-0.73535 -0.23812,-2.25122 -0.52916,-3.3686 -0.29105,-1.11739 -0.52917,-2.34137 -0.52917,-2.71996 0,-0.37859 -0.15875,-0.68834 -0.35278,-0.68834 -0.19403,0 -0.35278,0.20948 -0.35278,0.4655 0,0.25603 -0.51593,0.69259 -1.14652,0.97014 -0.99875,0.43959 -1.17724,0.72324 -1.38478,2.20064 -0.26023,1.85253 -0.85852,2.84215 -1.55637,2.57436 -0.9123,-0.35009 -1.26672,0.83846 -1.32337,4.43798 -0.0567,3.60391 -0.0618,3.62369 -1.01758,3.95976 -1.08251,0.38064 -2.54008,-0.1962 -2.94179,-1.16423 -0.2431,-0.58583 -0.40381,-3.13299 -0.65906,-10.44554 -0.0813,-2.32833 -0.25511,-4.58082 -0.38632,-5.00553 -0.1324,-0.42857 0.019,-1.54778 0.34032,-2.51504 0.31838,-0.95856 0.54977,-1.88107 0.5142,-2.05002 -0.14165,-0.67285 0.85751,-2.63733 1.52236,-2.99315 0.51654,-0.27644 0.60136,-0.48298 0.31568,-0.76866 -0.21486,-0.21486 -0.39562,-0.63672 -0.40169,-0.93746 -0.006,-0.30074 -0.39727,-1.33551 -0.86934,-2.29949 -0.95893,-1.95815 -0.88139,-3.0514 0.30931,-4.36119 0.6552,-0.72072 0.74986,-1.265 0.76695,-4.40972 0.0107,-1.97313 0.22881,-4.22252 0.48463,-4.99863 0.47664,-1.446 1.93221,-3.66718 2.72106,-4.15228 0.24302,-0.14945 0.79695,-0.90351 1.23094,-1.67569 0.43399,-0.77219 0.90725,-1.40397 1.05169,-1.40397 0.14444,0 0.4724,-0.20029 0.72879,-0.44509 0.2564,-0.2448 0.86305,-0.64997 1.34812,-0.90039 0.48506,-0.25042 1.51694,-0.789463 2.29305,-1.197874 0.77611,-0.40841 2.2418,-1.004086 3.25708,-1.323721 1.01527,-0.319637 2.21436,-0.889991 2.66463,-1.26746 1.57033,-1.316422 2.91475,-1.833005 5.36718,-2.062289 4.35508,-0.407166 10.45981,-0.257281 12.52361,0.307484 2.47698,0.677835 4.62304,0.68078 6.23189,0.0086 0.69868,-0.291931 1.6064,-0.596974 2.01714,-0.67788 0.41074,-0.0809 2.09618,-0.488439 3.74542,-0.905634 5.43091,-1.373812 12.49656,-1.291974 18.34444,0.212478 0.48507,0.124792 2.6847,0.354009 4.88806,0.509376 4.01892,0.28339 6.20982,0.887917 9.31161,2.569337 1.30249,0.70605 1.34407,0.706953 2.64584,0.05768 0.82879,-0.413375 2.24449,-0.692894 3.79199,-0.7487 4.2556,-0.153469 18.61408,-0.155141 20.46112,-0.0025 2.80705,0.232156 5.8943,0.570562 7.23194,0.792717 0.6791,0.112783 2.14107,0.254465 3.24884,0.31485 1.90937,0.10408 3.4173,0.669421 8.922,3.344936 0.77611,0.37723 2.33091,0.96389 3.45513,1.30371 1.24586,0.37659 2.55452,1.09428 3.35139,1.83794 0.91906,0.8577 1.58714,1.19443 2.24932,1.1337 0.51808,-0.0475 1.4141,0.15777 1.99116,0.45618 1.47552,0.76302 5.35318,5.12938 5.59755,6.30301 0.11194,0.53762 0.34177,1.06292 0.51073,1.16735 0.16897,0.10443 0.30722,0.44294 0.30722,0.75224 0,0.30931 0.47625,1.57037 1.05833,2.80235 0.58208,1.23198 1.05833,2.45306 1.05833,2.71351 0,0.6466 1.04817,1.54013 2.11667,1.8044 0.74825,0.18506 1.01093,0.008 1.73282,-1.16492 0.46798,-0.76068 1.31712,-1.65847 1.886969,-1.99509 1.004291,-0.59325 1.069153,-0.58759 2.113344,0.18442 1.051359,0.7773 1.116245,0.78247 2.699145,0.21519 2.1203,-0.75987 2.961245,-0.73112 3.738555,0.1278 0.858767,0.94892 1.123972,0.90527 3.266737,-0.53776 2.410492,-1.62332 3.598757,-1.863 4.468964,-0.90144 1.24217,1.37259 3.601802,0.62882 4.442256,-1.40022 0.23719,-0.57263 0.54526,-1.04114 0.684608,-1.04114 0.554496,0 0.952503,-1.61558 0.651809,-2.64583 -0.379391,-1.29988 -0.02942,-4.60997 0.620216,-5.86624 0.56074,-1.08435 1.353357,-3.19988 2.256546,-6.022833 0.597345,-1.867027 0.603543,-2.122424 0.0864,-3.560554 -0.554405,-1.541734 -0.551131,-1.561955 0.674239,-4.162319 1.158526,-2.458519 1.229946,-2.821457 1.207601,-6.136852 -0.02805,-4.160061 -0.106148,-4.226197 -3.484771,-2.950383 -2.986388,1.1277 -9.21106,1.096913 -12.822492,-0.06342 -2.065331,-0.663575 -2.614338,-0.716019 -3.888317,-0.371411 -1.780473,0.481612 -2.537365,1.172019 -2.816843,2.569404 -0.131395,0.656981 -0.516932,1.160603 -1.041008,1.359856 -0.968446,0.368205 -1.084361,1.385203 -0.295159,2.589674 0.640324,0.977262 0.41444,1.735205 -0.743182,2.493709 -1.109116,0.726722 -1.074921,1.109518 0.206011,2.306087 0.582084,0.543747 1.058334,1.231629 1.058334,1.528629 0,0.568872 -1.759621,1.999149 -2.459483,1.999149 -0.45866,0 -0.287909,0.837442 0.593588,2.911224 0.527861,1.24185 0.522227,1.36842 -0.09111,2.04615 -0.578295,0.63901 -0.600544,0.85276 -0.192698,1.85127 0.253594,0.62087 0.451154,1.44459 0.439025,1.83049 -0.04137,1.31615 -1.139811,3.17758 -2.336584,3.95963 -1.13775,0.74348 -1.17806,0.84107 -0.8453,2.04626 0.46267,1.67563 -0.12485,3.46121 -1.31769,4.0047 -1.06468,0.48511 -1.55086,0.26622 -1.55086,-0.69823 0,-0.38725 -0.30105,-1.37007 -0.66901,-2.18404 -1.54565,-3.4192 -1.67725,-3.91666 -1.30596,-4.9367 0.25892,-0.71135 0.24004,-1.17838 -0.0675,-1.67091 -0.88107,-1.41081 -0.11106,-2.77407 1.58073,-2.79863 1.3118,-0.019 1.26993,-0.66741 -0.12827,-1.98607 -1.44853,-1.36615 -1.48954,-1.16652 0.53052,-2.582486 1.00026,-0.701132 1.15661,-1.647225 0.42672,-2.582213 -1.33291,-1.707473 -1.12657,-2.876572 0.6426,-3.640928 l 0.83338,-0.360059 -0.92157,-1.095238 c -1.10872,-1.317635 -1.11933,-1.442981 -0.20453,-2.416739 0.59711,-0.635596 0.65529,-0.925731 0.3478,-1.734489 -0.33307,-0.876039 -0.24776,-1.082498 0.87044,-2.106736 0.91022,-0.833726 1.2397,-1.428048 1.2397,-2.23618 0,-0.605364 -0.15875,-1.198771 -0.35278,-1.318687 -0.80463,-0.497294 0.0439,-3.911378 1.05169,-4.231224 0.37232,-0.118167 1.153243,0.03147 1.735386,0.332489 1.556953,0.805135 1.769234,0.711179 2.54937,-1.128349 1.873359,-4.417282 2.421276,-4.788496 4.197484,-2.843798 l 1.027483,1.124952 0.669703,-0.772174 c 1.309599,-1.509981 2.603045,-0.592543 2.268555,1.609076 -0.190059,1.250982 -0.06281,1.343399 1.038331,0.754087 0.543109,-0.290661 1.063167,-0.283894 2.005281,0.02611 0.95819,0.315281 1.530999,0.319747 2.321821,0.0181 0.971606,-0.370607 1.118965,-0.315725 1.977849,0.736625 1.707811,2.092494 2.818472,0.599729 2.913736,-3.916162 0.03069,-1.455208 0.226254,-2.827609 0.434566,-3.049781 0.937302,-0.99966 3.678195,0.837981 3.678195,2.466058 0,0.844274 0.70424,1.073153 1.203047,0.390994 0.443773,-0.606894 1.307599,-0.604175 2.765703,0.0087 0.508438,0.213717 0.617362,0.07277 0.617362,-0.798833 0,-1.112686 0.49004,-1.486599 1.94831,-1.486599 1.226058,0 1.257551,-0.335463 0.222804,-2.373408 -1.06795,-2.103342 -6.109138,-7.7200367 -7.240009,-8.0665347 -0.413565,-0.126718 -1.737505,-0.68707 -2.942089,-1.245225 -1.204581,-0.558087 -2.648169,-1.014761 -3.207968,-1.014761 -0.559798,0 -1.955482,-0.334802 -3.101516,-0.744004 -1.146034,-0.409203 -2.639325,-0.870115 -3.318422,-1.02425 -0.679097,-0.15413501 -2.107847,-0.63267401 -3.175,-1.06342001 -1.067153,-0.430746 -2.78698,-1.08746599 -3.82184,-1.45937699 -1.034862,-0.371866 -2.46382,-1.043718 -3.175461,-1.492959 -0.731573,-0.461821 -2.136941,-0.910216 -3.233721,-1.031747 -3.26277,-0.361536 -5.02337,-0.797481 -7.21626,-1.786825 -2.67369,-1.206264 -8.41505,-3.214379 -11.82819,-4.137065 -2.14593,-0.5801153 -3.99681,-0.7370603 -9.87778,-0.8375843 -6.52251,-0.11149 -7.655,-0.04031 -11.47037,0.720893 -2.32833,0.4645283 -5.71932,1.0817493 -7.53552,1.3716033 -1.81621,0.289853 -3.48308,0.671042 -3.70417,0.847085 -0.22108,0.176044 -1.30594,0.429361 -2.41079,0.562928 -2.29064,0.276917 -3.32316,-0.104708 -3.82017,-1.41196 -0.3481,-0.915579 -0.21314,-0.891098 -5.06772,-0.919191 -1.14249,-0.0066 -2.49186,-0.145332 -2.99861,-0.308269 -1.44629,-0.4650353 -6.33718,-0.6239443 -8.85885,-0.2878303 -1.26118,0.168102 -3.16618,0.3903883 -4.23334,0.4939683 -2.35103,0.228196 -3.81633,0.811337 -11.16186,4.442058 -9.61696,4.75343599 -12.56458,8.010521 -14.48167,16.0021157 -1.03932,4.332499 -1.05905,5.844596 -0.0877,6.723645 0.91337,0.826593 1.22668,0.404057 1.34122,-1.808854 0.14529,-2.806669 0.67694,-3.560601 2.37308,-3.365229 0.21145,0.02434 1.03561,-0.671209 1.83147,-1.545699 1.56856,-1.7235347 2.63354,-2.0060497 3.334,-0.8844317 0.28082,0.4496677 0.82567,0.7069627 1.5023,0.7094397 1.87023,0.0068 3.54813,0.402033 4.38406,1.032573 0.7119,0.536992 0.80911,0.902007 0.77877,2.924327 -0.0251,1.675621 0.11358,2.433782 0.50468,2.758366 0.7793,0.646765 1.12353,0.09036 1.31962,-2.133039 0.12366,-1.402122 0.64657,-2.864132 1.88533,-5.2711667 0.94281,-1.831989 1.90272,-3.389725 2.13313,-3.461632 0.23041,-0.07191 0.72787,0.178199 1.10546,0.555791 0.74307,0.74307 0.69107,1.921521 -0.15691,3.5560037 -0.59143,1.139969 -0.14938,1.630101 1.37465,1.524194 1.51733,-0.105442 2.26042,0.544583 2.52489,2.208699 0.12028,0.756874 0.29026,1.447701 0.37773,1.535173 0.32653,0.326527 1.24931,-0.782253 2.47483,-2.973702 0.85514,-1.52914 1.47811,-2.259471 1.92732,-2.259471 0.83298,0 1.0848,1.306505 0.44981,2.333632 -0.35401,0.572618 -0.37013,0.982811 -0.0693,1.763889 l 0.39193,1.017757 0.71775,-1.411111 c 0.39477,-0.776112 0.96159,-1.688924 1.25961,-2.028473 0.7258,-0.826918 2.29076,-0.78208 3.07835,0.08819 0.35119,0.388055 0.98045,0.705555 1.39836,0.705555 1.47034,0 2.0164,0.790304 2.27546,3.293262 0.38902,3.758495 1.82055,4.407486 3.7095,1.681724 1.30431,-1.882119 2.12778,-2.181571 4.08196,-1.484398 0.87312,0.311496 1.78594,0.753456 2.02847,0.98213 0.52715,0.497025 0.58586,2.09888 0.0882,2.406449 -0.54836,0.338907 -0.4152,1.585687 0.19434,1.819593 0.30836,0.118325 0.88938,-0.111587 1.3314,-0.526849 0.63065,-0.592466 1.32076,-0.756694 3.52297,-0.83838 l 2.7387,-0.101586 1.19772,1.411111 1.19773,1.411111 0.79535,-0.7813 c 0.75013,-0.736875 0.76151,-0.818688 0.20024,-1.438889 -0.83252,-0.919921 -0.74336,-1.370284 0.32433,-1.638258 0.92027,-0.230971 1.8649,0.486184 1.89156,1.436053 0.006,0.219904 0.32273,0.481287 0.70347,0.580855 0.51263,0.134056 0.8768,-0.131766 1.40352,-1.024491 0.47859,-0.811153 1.06237,-1.275736 1.78454,-1.42017 1.31626,-0.263254 1.28767,-0.216535 1.58642,-2.592967 0.28054,-2.231615 0.65003,-2.822222 1.76561,-2.822222 0.55178,0 0.93042,0.324651 1.23432,1.058333 0.38161,0.921287 0.61739,1.058334 1.82075,1.058334 0.7603,0 2.02314,0.326898 2.8063,0.72644 1.10146,0.561918 1.53534,0.633994 1.9158,0.318241 0.31766,-0.263638 1.09496,-0.325254 2.19485,-0.17398 1.97181,0.271195 2.30102,0.442116 2.84594,1.477596 0.31012,0.589322 0.81898,0.799892 2.25767,0.934254 2.64156,0.246694 3.80118,0.588508 5.20239,1.533465 0.67563,0.455634 1.48468,0.828428 1.79789,0.828428 0.69547,0 2.74654,0.968188 3.58828,1.693817 0.91578,0.78946 0.78605,2.125003 -0.25237,2.598141 -0.87952,0.400735 -4.43219,0.106208 -9.53722,-0.790659 -1.16416,-0.204523 -2.75605,-0.277802 -3.53752,-0.162839 -0.78148,0.114963 -2.60126,0.04161 -4.04397,-0.163001 -3.07413,-0.435991 -5.58948,-0.04021 -8.23281,1.295389 -2.43044,1.228031 -4.69499,1.428056 -6.43213,0.568146 -1.15912,-0.573779 -1.59453,-0.624519 -2.6244,-0.305813 -0.6791,0.210153 -1.47285,0.540847 -1.76389,0.734875 -0.65133,0.434224 -9.53843,0.531601 -12.77787,0.140014 -2.10237,-0.254141 -3.93901,-0.989429 -4.53368,-1.815038 -0.11101,-0.154118 -1.06351,-0.613936 -2.11667,-1.021825 -5.55778,-2.152516 -5.61017,-2.163325 -11.43984,-2.360848 -3.10444,-0.105188 -6.59694,-0.145525 -7.76111,-0.08964 -2.80642,0.134723 -5.59931,0.168625 -9.87778,0.119902 -1.94027,-0.02208 -4.00402,0.01559 -4.58611,0.08372 -0.58208,0.06814 -1.35599,0.136789 -1.71979,0.152551 -0.55296,0.02395 -0.6244,0.213942 -0.43554,1.15823 0.12425,0.621259 0.5224,1.454697 0.88477,1.852083 1.3583,1.489516 1.77763,2.880734 1.85371,6.150003 0.0684,2.940209 0.005,3.283769 -0.75669,4.094484 -0.97371,1.036465 -2.09572,1.132099 -3.1396,0.26761 -0.5747,-0.475943 -0.89375,-1.485392 -1.39279,-4.406706 -0.35602,-2.08414 -0.89317,-4.068515 -1.19367,-4.409722 -0.30049,-0.341207 -0.95614,-1.414128 -1.45699,-2.384266 -0.50085,-0.970139 -1.86403,-2.712922 -3.02929,-3.872855 -1.70411,-1.696328 -2.16135,-2.393791 -2.33694,-3.564721 -0.65603,-4.374716 1.17308,-12.2787967 3.62386,-15.6596777 1.21348,-1.67399701 4.1695,-4.325477 5.3948,-4.838985 0.67909,-0.284604 2.10784,-1.428919 3.175,-2.542923 1.8424,-1.923288 3.95767,-3.401579 6.70277,-4.6843363 0.6791,-0.317335 2.2666,-1.06977 3.52778,-1.672077 2.72074,-1.299355 6.88885,-2.540976 7.60609,-2.265746 0.28008,0.107476 1.1836,-0.07617 2.00782,-0.408109 1.92291,-0.774405 5.61364,-0.956298 7.30384,-0.359961 0.86172,0.304036 3.36071,0.477835 7.27852,0.506206 9.33605,0.06761 9.66224,0.113579 10.90512,1.536914 l 1.05834,1.211997 1.91881,-0.655871 c 1.05536,-0.360728 2.24598,-0.956998 2.64584,-1.325043 0.64932,-0.597657 1.5753,-0.696704 8.66451,-0.926779 9.7159,-0.315324 11.11479,-0.273684 12.35522,0.367765 0.53695,0.277669 1.66763,0.607146 2.51261,0.732172 0.84499,0.125025 3.36716,0.683121 5.60483,1.240212 2.23767,0.557092 5.41267,1.107274 7.05555,1.222627 1.64289,0.115352 3.88311,0.434922 4.97827,0.710155 1.09516,0.275233 2.3318,0.500424 2.74808,0.500424 0.41629,0 1.41511,0.335803 2.21962,0.7462303 0.8045,0.410426 2.504736,1.036096 3.778303,1.390376 1.273566,0.354281 3.744327,1.306342 5.490577,2.115692 1.74625,0.809349 5.08,2.153051 7.408333,2.986004 6.9562,2.48855699 7.66172,2.77866699 10.08807,4.14823399 1.279824,0.72240501 2.437384,1.31346401 2.572349,1.31346401 0.134966,0 1.280199,0.48381 2.544961,1.075133 1.264761,0.591326 2.649848,1.208309 3.077968,1.371081 0.428121,0.162772 1.609196,0.952655 2.624611,1.755292 1.724444,1.363098 2.31576,2.522213 1.533366,3.005758 -0.172561,0.106649 -0.091,0.8372577 0.181882,1.6293117 0.311859,0.905167 0.432907,2.243218 0.327476,3.619831 -0.237349,3.099093 -1.273016,8.357482 -1.646051,8.357482 -0.172892,0 -0.314353,0.315687 -0.314353,0.701524 0,0.707651 -0.158471,0.941602 -2.557639,3.775808 -0.727604,0.85954 -1.322916,1.791272 -1.322916,2.070513 0,0.279242 -0.148054,0.507711 -0.329005,0.507711 -0.513358,0 -0.838037,1.415761 -0.774012,3.375092 0.05993,1.833859 -0.665459,4.45382 -1.502523,5.426837 -0.276055,0.32089 -0.487256,1.493767 -0.511362,2.839738 -0.02258,1.26118 -0.203648,2.847633 -0.40236,3.52545 -0.19871,0.67782 -0.361294,1.96567 -0.361294,2.8619 0,1.27945 -0.227362,1.91562 -1.058334,2.96126 -1.156345,1.45507 -1.349929,2.45845 -0.534673,2.7713 0.288015,0.11052 2.20992,0.0528 4.270901,-0.12828 4.307198,-0.37843 5.225394,-0.11009 6.460271,1.88798 0.841601,1.36174 0.946256,2.44305 0.289225,2.98834 -0.247713,0.20558 -0.486008,0.80419 -0.529544,1.33024 -0.106063,1.28154 -2.378721,4.01922 -3.365214,4.0538 -0.423574,0.0148 -1.087632,0.0948 -1.475688,0.17762 -0.388055,0.0828 -1.73743,0.24161 -2.998611,0.35283 -1.490938,0.13148 -3.218579,0.61595 -4.938889,1.38498 -2.072291,0.92637 -3.121336,1.18416 -4.839406,1.18922 -1.206461,0.004 -2.476461,0.15321 -2.822222,0.33259 -1.12461,0.58344 -4.071179,0.91563 -8.389762,0.94582 -2.328333,0.0163 -5.185833,0.14934 -6.35,0.29568 -2.407315,0.30261 -6.839945,1.57652 -7.489375,2.15241 -0.24455,0.21686 -0.47541,1.45967 -0.52916,2.84869 -0.0643,1.66127 -0.26494,2.59635 -0.61591,2.87024 -0.64614,0.50424 -1.04055,6.01073 -0.40228,5.61625 0.21652,-0.13381 0.39367,-0.55143 0.39367,-0.92803 0,-0.8529 0.65241,-0.89945 0.94416,-0.0674 0.11906,0.33954 0.52424,0.86619 0.90041,1.17032 0.66358,0.5365 0.64631,0.58167 -0.58031,1.51726 -1.49509,1.14036 -1.6627,2.46713 -0.57995,4.59088 0.49234,0.9657 0.59779,1.56979 0.3759,2.1534 -0.16962,0.44614 -0.24182,1.10601 -0.16044,1.46639 0.0814,0.36037 0.19779,1.52834 0.2587,2.5955 0.16813,2.9458 0.51368,3.32511 4.03972,4.43453 3.545834,1.115648 7.462852,3.194918 8.728362,4.633278 1.079299,1.22672 1.150729,3.02403 0.18324,4.61085 -1.121495,1.83942 -0.96967,2.02857 1.99869,2.49005 1.486609,0.23112 2.876071,0.56391 3.087688,0.73954 0.211617,0.17563 1.244515,0.65821 2.295335,1.0724 2.745285,1.08209 3.799872,1.93319 3.988586,3.21899 0.117042,0.79747 -0.03606,1.28551 -0.554912,1.7689 -0.394106,0.36716 -0.854079,0.66757 -1.022167,0.66757 -0.474715,0 -3.556049,1.43771 -4.147456,1.93515 -0.291042,0.2448 -1.164167,0.64595 -1.940278,0.89144 -0.776111,0.24549 -1.832494,0.74181 -2.347514,1.10293 -0.515021,0.36112 -1.338125,0.65659 -1.829118,0.65659 -0.490992,0 -1.304071,0.1564 -1.806839,0.34755 -1.645585,0.62565 -2.792967,0.79588 -5.857467,0.86905 -1.66183,0.0397 -3.21211,0.18995 -3.44509,0.33394 -0.23298,0.14399 -1.40878,0.34965 -2.61289,0.45702 -1.20411,0.10737 -2.51132,0.40185 -2.90491,0.65439 -0.39359,0.25254 -1.57779,0.55207 -2.63156,0.66562 -1.05378,0.11354 -2.18665,0.45142 -2.5175,0.75084 -0.48509,0.439 -1.11455,0.49791 -3.25127,0.30429 -2.13842,-0.19378 -3.11621,-0.10201 -5.06722,0.4756 -1.32963,0.39365 -3.40882,0.80489 -4.62042,0.91386 -1.2116,0.10898 -2.51086,0.36296 -2.88723,0.56438 -0.37637,0.20143 -1.22842,0.36624 -1.89343,0.36624 -0.66502,0 -2.22327,0.45036 -3.46278,1.0008 -2.55061,1.13267 -4.93994,1.68204 -8.78004,2.01878 -1.45521,0.12761 -2.88396,0.27566 -3.175,0.329 -0.61775,0.11323 -3.8595,0.45218 -6.87917,0.71927 -1.16417,0.10297 -3.3262,0.18932 -4.80453,0.1919 -1.80941,0.003 -2.90472,0.1727 -3.35139,0.5188 -0.62589,0.48496 -0.50036,0.66914 2.21352,3.24765 2.52166,2.39587 4.00212,4.41428 4.00212,5.45635 0,0.17676 0.33412,1.09804 0.74247,2.04729 0.84593,1.96641 0.99998,2.0398 6.31309,3.00783 1.84326,0.33583 3.51014,0.71864 3.70417,0.8507 0.19402,0.13205 1.02517,0.45209 1.84698,0.7112 3.11695,0.98274 3.61513,3.54219 0.93684,4.81313 -0.658,0.31224 -1.39479,0.91698 -1.63732,1.34387 -1.79153,3.15346 -1.89443,3.23663 -4.9428,3.99585 -6.50886,1.62108 -9.77814,1.96869 -17.75942,1.88832 -2.93036,-0.0295 -5.70255,0.0849 -6.16041,0.25431 l -0.83249,0.30796 1.03577,0.95991 c 1.40684,1.30382 5.25826,3.83163 7.37872,4.84289 0.95595,0.4559 2.08247,1.14641 2.50338,1.53447 0.42091,0.38805 1.26596,1.15557 1.87788,1.7056 0.61192,0.55002 1.11259,1.27947 1.11259,1.62101 0,0.97581 1.17063,1.78866 2.57597,1.78866 1.02301,0 1.61702,0.30633 2.90738,1.49931 2.02028,1.86781 2.91658,3.2973 3.53329,5.63514 0.43248,1.63944 0.41162,2.09141 -0.20516,4.44622 -0.70654,2.69747 -1.04102,3.34332 -2.25246,4.34926 -0.58616,0.48673 -0.62781,0.67519 -0.2499,1.13055 0.8208,0.989 3.52108,2.35657 5.05788,2.5616 0.83016,0.11075 2.14769,0.47857 2.92784,0.81737 1.36884,0.59447 1.45047,0.59211 2.33391,-0.0675 0.85539,-0.63865 0.98637,-0.64683 1.99613,-0.12466 1.08013,0.55856 1.3093,0.94992 1.62252,2.77086 0.18893,1.09835 -1.81149,4.44102 -2.98829,4.99337 -0.37321,0.17517 -0.67856,0.45299 -0.67856,0.61736 0,0.69285 -1.71432,0.25068 -2.26061,-0.58307 -0.7016,-1.07078 -1.23997,-1.10599 -2.44285,-0.1598 -0.50493,0.39718 -2.07415,0.95707 -3.48716,1.24421 -1.73146,0.35185 -2.8038,0.77777 -3.28895,1.30633 -0.39592,0.43134 -1.90404,1.4086 -3.35139,2.1717 -1.44735,0.76309 -3.10779,1.67662 -3.68987,2.03007 -2.5659,1.55807 -3.51028,1.7937 -7.76111,1.93645 -4.47836,0.15039 -7.44735,0.33877 -10.05417,0.63792 -1.15329,0.13234 -1.92522,2.2e-4 -2.82222,-0.48304 z m 9.70139,-4.96081 c 9.60008,-0.51538 9.72429,-0.55214 9.62435,-2.84906 -0.0603,-1.38704 0.0868,-1.89723 0.75118,-2.60443 0.50636,-0.53899 0.74029,-1.10342 0.60425,-1.45793 -0.12758,-0.33249 0.0784,-0.96037 0.48454,-1.47664 0.43005,-0.54671 0.70651,-1.43174 0.70651,-2.26172 0,-0.74994 0.14805,-1.36353 0.329,-1.36353 0.66091,0 0.73796,-1.36908 0.14682,-2.60872 -0.95232,-1.99704 -1.97927,-1.75634 -3.22823,0.75664 -1.46131,2.94024 -1.83825,3.46653 -2.95545,4.12648 -2.10198,1.24167 -3.52292,-0.27142 -3.30762,-3.52211 0.0766,-1.15703 0.25286,-2.42118 0.39162,-2.80924 0.66503,-1.85977 1.64702,-3.91197 2.12422,-4.43928 1.05809,-1.16917 -0.7066,-3.16156 -2.77738,-3.13575 -0.59675,0.007 -1.01898,0.5049 -1.81893,2.14302 -1.15577,2.36677 -2.9778,4.19822 -4.17397,4.19554 -0.42981,-0.001 -1.25772,-0.38305 -1.8398,-0.84909 -0.95249,-0.76259 -1.0565,-1.043 -1.03999,-2.8037 0.0226,-2.41156 0.80295,-3.47982 2.42989,-3.32641 0.98357,0.0927 1.08931,7e-4 1.18945,-1.03618 0.23782,-2.46239 4.23061,-3.63508 7.55945,-2.22022 2.60522,1.1073 4.09238,2.3212 4.69799,3.83479 0.37488,0.9369 1.16344,1.73666 2.81999,2.86001 1.26477,0.85768 2.47228,1.7675 2.68335,2.02182 0.70941,0.85479 1.26928,0.47295 1.67623,-1.1432 0.22237,-0.88308 0.32749,-1.72987 0.23361,-1.88177 -0.0939,-0.1519 -0.26529,-0.81318 -0.38092,-1.46952 -0.25375,-1.44031 -1.34788,-3.27767 -2.74941,-4.61705 -1.00789,-0.9632 -1.23605,-1.07492 -3.06825,-1.50234 -0.49572,-0.11564 -1.34109,-0.86383 -1.93039,-1.70848 -0.57664,-0.82651 -1.44538,-1.82024 -1.93052,-2.2083 -1.13286,-0.90614 -4.85223,-2.81134 -6.08991,-3.11947 -1.00778,-0.25089 -3.09756,-2.23407 -3.10033,-2.94217 -0.002,-0.5657 -1.1608,-0.8942 -2.21794,-0.62887 -0.47587,0.11943 -1.1941,0.662 -1.59608,1.2057 -0.53933,0.72949 -1.14995,1.0514 -2.33004,1.22836 -1.04732,0.15706 -1.8179,0.51788 -2.23299,1.04558 -0.3486,0.44317 -0.99609,0.99965 -1.43887,1.23662 -1.07949,0.57773 -2.88571,2.4961 -2.88571,3.0649 0,0.25127 -0.31649,0.67852 -0.70331,0.94946 -0.38683,0.27094 -0.60294,0.59299 -0.48027,0.71567 0.12268,0.12267 -0.847,0.16298 -2.15484,0.0896 -1.59598,-0.0896 -2.79835,0.0422 -3.65654,0.40078 -1.3533,0.56545 -2.53004,1.68728 -2.53004,2.41198 0,0.23918 -0.23715,0.88957 -0.527,1.44533 -0.50004,0.95879 -0.74408,3.30352 -0.34382,3.30352 0.10314,0 1.1747,-0.33325 2.38125,-0.74056 1.52947,-0.51633 2.72775,-0.68968 3.95733,-0.57251 1.50328,0.14325 1.8678,0.0515 2.46945,-0.62182 0.91486,-1.02377 1.5013,-1.91636 1.95595,-2.97703 0.48466,-1.13066 1.73241,-2.25803 3.14826,-2.84449 1.01592,-0.42081 1.28968,-0.39945 2.37549,0.18529 0.67498,0.3635 1.56893,0.63518 1.98655,0.60372 2.07409,-0.15624 3.21865,2.08001 1.9654,3.84003 -0.69475,0.97569 -0.92124,1.06355 -2.56887,0.99659 -2.48942,-0.10117 -2.58266,-0.0774 -2.78875,0.71069 -0.10019,0.38312 -0.72944,1.01949 -1.39834,1.41415 -0.6689,0.39466 -1.51516,1.27274 -1.88058,1.95129 -0.36543,0.67855 -0.94531,1.32288 -1.28864,1.43185 -0.34333,0.10897 -0.62424,0.33454 -0.62424,0.50126 0,0.68971 -1.35024,0.51625 -3.10362,-0.39872 -1.0279,-0.53639 -2.13915,-0.88888 -2.46945,-0.78332 -1.80834,0.57795 -2.54082,0.95939 -2.54082,1.32317 0,0.22343 0.47625,1.64303 1.05834,3.15467 0.58208,1.51165 1.05833,3.13124 1.05833,3.5991 0,0.46785 0.47625,1.89046 1.05833,3.16136 0.58209,1.2709 1.05834,2.61972 1.05834,2.99739 0,0.8787 1.5578,4.41832 2.08901,4.74663 0.22214,0.13729 1.3636,0.33028 2.53658,0.42886 1.17298,0.0986 2.95363,0.464 3.95702,0.81205 1.00338,0.34806 2.37996,0.57384 3.05905,0.50175 0.6791,-0.0721 4.09223,-0.28448 7.58473,-0.47198 z m -32.98473,-6.90385 c 1.5512,-0.32467 2.83461,-0.80289 3.10213,-1.15592 0.77754,-1.02608 0.91341,-2.20585 0.32215,-2.79712 -0.4068,-0.4068 -0.46395,-0.76819 -0.22208,-1.40435 0.21151,-0.5563 0.19197,-1.10644 -0.0557,-1.56927 -0.20977,-0.39197 -0.29765,-0.79643 -0.19528,-0.8988 0.10237,-0.10237 -0.0689,-0.8236 -0.38068,-1.60272 -0.42784,-1.06928 -0.47175,-1.5688 -0.17911,-2.0374 0.30803,-0.49323 0.21088,-0.86048 -0.47268,-1.78699 -1.10204,-1.49374 -1.0861,-1.72799 0.19002,-2.793 0.58122,-0.48507 1.10737,-1.19945 1.16922,-1.5875 0.0618,-0.38806 0.46278,-1.48415 0.89097,-2.43577 0.42818,-0.95161 0.70355,-1.80518 0.61192,-1.89681 -0.0916,-0.0916 0.0817,-0.64684 0.38527,-1.2338 0.49896,-0.96487 0.49928,-1.09663 0.003,-1.37417 -0.30168,-0.16883 -0.78314,-0.54159 -1.0699,-0.82835 -0.28659,-0.28676 -0.65626,-0.52138 -0.82131,-0.52138 -0.16506,0 -0.53358,-0.33232 -0.81895,-0.73849 -2.58434,-3.67834 -2.60534,-3.69134 -6.768,-4.18836 -3.31284,-0.39554 -3.43586,-0.38441 -4.7495,0.42998 -0.74172,0.45982 -1.85421,1.03971 -2.47221,1.28866 -0.71513,0.28807 -1.25563,0.83129 -1.48672,1.4942 -0.4361,1.25098 -1.31671,2.41177 -2.73507,3.60523 l -1.05109,0.88444 -2.62257,-0.69905 c -3.79949,-1.01275 -5.19446,-0.72971 -7.3598,1.4933 -1.87371,1.92361 -1.83896,1.63835 -0.68865,5.65436 0.64626,2.25623 1.54059,3.29985 1.93872,2.26234 0.47071,-1.22665 2.6052,-0.8004 2.6052,0.52025 0,0.38122 0.13642,0.69314 0.30315,0.69314 0.46905,0 1.81352,4.43453 1.81352,5.98167 0,3.10761 1.5819,5.08087 4.55108,5.677 1.08642,0.21812 2.25097,0.54166 2.58788,0.71896 0.33692,0.1773 1.31974,0.32237 2.18404,0.32237 0.86431,0 1.66803,0.15624 1.78605,0.34719 0.67185,1.08709 4.97906,1.16526 9.70484,0.17616 z m -20.65473,-13.6145 c -1.20205,-0.59686 -1.65003,-1.5936 -1.13228,-2.51927 0.58384,-1.04385 2.44488,-3.54047 2.90428,-3.89616 0.61741,-0.47803 3.71926,-0.0295 4.66163,0.67408 0.49268,0.36784 1.13827,1.27679 1.43466,2.01988 0.52007,1.30391 0.50932,1.38065 -0.30778,2.19775 -0.76546,0.76546 -0.97679,0.81074 -2.20345,0.47204 -1.18066,-0.326 -1.45502,-0.28296 -2.11358,0.33156 -0.94993,0.8864 -2.3034,1.1869 -3.24348,0.72012 z m 13.25037,-4.7409 c -0.56172,-0.31033 -1.00013,-0.3629 -1.21709,-0.14595 -0.58623,0.58624 -1.60895,0.37133 -2.50708,-0.5268 -1.45444,-1.45444 -1.15717,-2.3374 1.46476,-4.35069 2.76398,-2.12238 4.49117,-2.57807 6.12143,-1.61505 0.59009,0.34858 1.0729,0.75562 1.0729,0.90455 0,0.14892 0.79947,0.67589 1.7766,1.17105 1.01766,0.51568 2.07203,1.38477 2.46813,2.03441 0.6883,1.12886 0.93375,2.69852 0.42957,2.74717 -2.40277,0.23182 -4.27966,0.17117 -4.71754,-0.15245 -0.29935,-0.22123 -0.77048,-0.87656 -1.04696,-1.45626 -0.27647,-0.57972 -0.76967,-1.10544 -1.096,-1.16829 -0.4692,-0.0904 -0.61625,0.20332 -0.70287,1.40375 -0.12161,1.68523 -0.59835,1.95427 -2.04585,1.15456 z m 17.64417,-8.99403 c 0.13062,-0.21136 1.09881,-0.50116 2.15153,-0.64402 1.05272,-0.14286 2.14814,-0.40332 2.43427,-0.5788 1.39098,-0.85311 4.57717,-3.43513 4.57717,-3.70925 0,-0.17075 1.35294,-0.98086 3.00654,-1.80025 1.6536,-0.81939 3.17539,-1.69325 3.38176,-1.94191 0.60725,-0.7317 0.023,-1.1859 -1.45116,-1.12814 -1.10451,0.0433 -1.39599,0.19891 -1.48051,0.79048 -0.0958,0.67042 -0.37163,0.74587 -3.07105,0.83994 -1.73184,0.0603 -3.1189,-0.0497 -3.33375,-0.26459 -0.20237,-0.20236 -0.89182,-0.36794 -1.53211,-0.36794 -0.92898,0 -1.16416,0.14254 -1.16416,0.70556 0,0.42431 -0.24609,0.7186 -0.61737,0.73827 -3.56669,0.18901 -6.08541,-0.6048 -6.08541,-1.91789 0,-0.7586 -0.13931,-0.79682 -3.14699,-0.86347 -1.73084,-0.0384 -3.5668,-0.22935 -4.07991,-0.42444 -1.42241,-0.5408 -3.35644,-0.45176 -3.35644,0.15453 0,0.28007 -0.47625,0.79055 -1.05833,1.13439 -0.58208,0.34385 -1.05833,0.71705 -1.05833,0.82935 0,0.11229 1.42729,0.55226 3.17176,0.97771 3.69409,0.90093 5.04356,1.76593 8.17002,5.23694 1.2013,1.33369 2.342,2.5298 2.53488,2.65802 0.47243,0.31405 1.7133,0.0517 2.00759,-0.42449 z m -44.81203,-6.32398 c 0,-0.2001 -0.55563,-0.36383 -1.23473,-0.36383 -0.67909,0 -1.23472,0.12631 -1.23472,0.28067 0,0.15438 0.55563,0.3181 1.23472,0.36383 0.6791,0.0457 1.23473,-0.0806 1.23473,-0.28067 z m -7.40692,-0.77598 1.23331,-0.11702 -2.3435,-1.14652 c -1.28892,-0.63059 -2.66582,-1.14653 -3.05978,-1.14653 -1.46492,0 -7.54203,-5.35323 -8.4101,-7.40833 -1.24217,-2.94072 -0.68717,-4.3093 1.92659,-4.75089 0.77935,-0.13167 1.69387,-0.54534 2.03227,-0.91926 0.79638,-0.88 2.28737,-0.86819 3.24685,0.0257 0.72813,0.67833 1.49239,0.93265 1.49239,0.4966 0,-0.11492 -0.3175,-0.61258 -0.70556,-1.10591 -0.38805,-0.49333 -0.70555,-1.26026 -0.70555,-1.70427 0,-1.05778 1.63296,-2.97811 2.53245,-2.97811 0.38821,0 0.98567,-0.34557 1.32769,-0.76794 0.87827,-1.08463 5.12633,-1.34594 7.13743,-0.43906 1.22121,0.55069 1.64121,0.57328 3.57166,0.19214 1.20324,-0.23755 2.82271,-0.40521 3.59882,-0.37257 0.77611,0.0326 2.20487,-0.0539 3.175,-0.19231 1.56001,-0.22258 2.0025,-0.12544 3.82819,0.84043 1.26821,0.67093 2.58479,1.09209 3.41398,1.09209 1.65029,0 2.93413,1.33085 2.59341,2.68838 -0.23127,0.92146 0.18245,1.07237 1.30012,0.47421 0.37648,-0.20149 0.68236,-0.7356 0.68236,-1.19153 0,-1.25894 0.70772,-1.65821 2.20595,-1.24453 0.87534,0.24169 1.5209,0.74702 2.05187,1.60615 0.71597,1.15846 0.73855,1.365 0.29783,2.72362 -0.75102,2.31519 -2.85287,4.33291 -5.02811,4.82685 -1.00133,0.22737 -2.21873,0.6924 -2.70534,1.03339 -0.48661,0.34099 -1.35973,0.70486 -1.94028,0.80861 -0.58054,0.10374 -1.55545,0.39428 -2.16645,0.64564 -0.96102,0.39535 -1.23625,0.3749 -2.03972,-0.15155 -0.51083,-0.33471 -0.85926,-0.72065 -0.77427,-0.85765 0.085,-0.137 1.20129,-0.78552 2.48068,-1.44116 1.2794,-0.65564 2.32617,-1.3329 2.32617,-1.50501 0,-0.17212 0.5411,-0.57097 1.20243,-0.88634 1.00336,-0.47847 1.22337,-0.79292 1.32888,-1.8993 0.12445,-1.30499 0.10691,-1.32589 -1.11255,-1.32589 -1.68629,0 -6.5508,1.81698 -8.38658,3.13253 -0.82488,0.59112 -2.05386,1.16467 -2.73107,1.27457 l -1.2313,0.19981 1.53072,0.97075 c 1.64014,1.04015 2.03858,1.65617 1.81664,2.80864 -0.35817,1.85982 -1.56602,2.07039 -3.85818,0.67262 -1.15592,-0.70488 -3.54362,-0.89446 -3.90482,-0.31003 -0.37905,0.61331 -2.16028,0.38238 -3.16865,-0.4108 -0.96698,-0.76063 -0.97558,-0.76097 -2.22519,-0.0882 -0.9954,0.53591 -1.11438,0.69736 -0.57615,0.78177 0.85099,0.13346 2.27385,0.78401 2.98473,1.36465 0.29838,0.24372 1.64775,0.51392 2.99861,0.60044 2.55159,0.16344 4.15831,0.60933 4.56463,1.26677 0.41829,0.6768 -0.20693,2.55876 -0.91125,2.74294 -1.46374,0.38278 -0.40251,1.15076 1.59017,1.15076 0.76932,0 1.38512,-0.27932 1.88613,-0.85553 0.77282,-0.88883 0.86226,-0.89237 3.82236,-0.15172 1.13562,0.28414 1.72192,0.24277 2.77099,-0.19556 0.73183,-0.30578 1.67116,-0.48018 2.08739,-0.38755 1.04227,0.23195 3.14228,-0.27444 3.31745,-0.79995 0.0792,-0.23755 -0.13684,-0.43191 -0.48006,-0.43191 -0.83903,0 -2.25699,-1.37539 -2.25699,-2.18923 0,-0.36033 0.27781,-0.74098 0.61736,-0.84591 0.69623,-0.21514 1.01412,-0.39583 2.31433,-1.31554 0.5027,-0.35558 1.27903,-0.70142 1.72518,-0.76855 0.44615,-0.0671 1.44618,-0.36453 2.22229,-0.66092 0.77611,-0.29638 1.71051,-0.54585 2.07643,-0.55437 0.36592,-0.008 1.59139,-0.37267 2.72327,-0.80923 1.85734,-0.71637 2.12855,-0.95666 2.78213,-2.46491 0.89268,-2.06005 0.69338,-3.019 -1.00923,-4.85592 -0.70451,-0.76008 -1.51905,-1.7081 -1.8101,-2.1067 -0.81957,-1.12247 -4.37945,-2.22057 -6.32936,-1.95239 -1.40257,0.1929 -1.721,0.11319 -2.36754,-0.5927 -0.41085,-0.44856 -0.8499,-1.15569 -0.97567,-1.57138 -0.33073,-1.09316 -1.99944,-1.66225 -4.17804,-1.42488 -1.0164,0.11075 -4.11264,0.26022 -6.88053,0.33217 -3.24366,0.0843 -5.18107,0.27934 -5.45042,0.54869 -0.28457,0.28457 -2.11166,0.41922 -5.72719,0.42209 l -5.30931,0.004 -2.11666,1.21695 c -1.16417,0.66933 -2.87261,1.58018 -3.79653,2.02412 -0.92393,0.44394 -1.75919,1.05709 -1.85615,1.36256 -0.38828,1.22337 -2.21857,2.52272 -3.80554,2.70159 -1.96647,0.22166 -3.41817,1.4595 -3.41817,2.91462 0,0.5651 -0.1765,1.41483 -0.39223,1.8883 -0.31531,0.69204 -0.2452,1.25381 0.35754,2.86479 0.41238,1.10218 0.6562,2.15536 0.54183,2.34042 -0.11437,0.18506 0.14501,1.06558 0.5764,1.95671 0.65806,1.35937 1.10258,1.76311 2.76082,2.50754 2.25151,1.01076 1.99799,0.97672 4.79869,0.64435 1.85592,-0.22025 2.21264,-0.16145 2.89567,0.47729 0.42845,0.40066 1.25252,0.72847 1.83126,0.72847 0.57875,0 1.15515,0.16646 1.28088,0.36991 0.14857,0.24039 0.37252,0.25048 0.6396,0.0288 0.22604,-0.18759 0.96597,-0.39374 1.64429,-0.4581 z m 0.20805,-7.0497 c 0.1381,-0.22346 -0.0386,-0.61813 -0.39266,-0.87703 -0.69123,-0.50543 -3.25666,-0.55545 -3.55709,-0.0694 -0.10005,0.16189 -0.13286,0.29674 -0.0729,0.29966 0.06,0.003 0.74402,0.23408 1.52013,0.51368 1.74253,0.62778 2.18231,0.65115 2.50252,0.13305 z m 60.79564,-0.44499 c 0.47542,-0.57284 2.65271,-0.91368 6.19906,-0.9704 1.94786,-0.0312 2.58122,-0.17769 2.99862,-0.69373 0.74609,-0.92242 4.00571,-1.69043 6.20931,-1.463 1.35862,0.14022 2.0434,0.0406 2.6521,-0.38572 0.45132,-0.31611 1.2369,-0.57475 1.74574,-0.57475 0.50884,0 1.21249,-0.3175 1.56368,-0.70556 0.35119,-0.38805 0.85544,-0.70555 1.12057,-0.70555 0.26513,0 0.66768,-0.4074 0.89455,-0.90532 0.22687,-0.49793 0.93885,-1.12525 1.58218,-1.39405 1.42839,-0.59682 1.95994,-1.80404 1.50019,-3.40712 -0.18425,-0.64241 -0.33499,-1.83758 -0.33499,-2.65591 0,-1.07634 -0.21356,-1.68686 -0.77208,-2.20719 -0.42464,-0.39562 -0.87906,-0.7193 -1.00982,-0.7193 -0.13076,0 -0.85489,-0.49228 -1.60918,-1.09395 -2.05076,-1.63583 -4.74726,-2.89698 -6.08965,-2.84812 -0.65476,0.0238 -1.93379,-0.27644 -2.84231,-0.66728 -1.34487,-0.57855 -2.2685,-0.69158 -4.97022,-0.60827 l -3.31839,0.10234 -0.7836,1.23472 c -0.43099,0.6791 -1.03212,1.51254 -1.33585,1.85208 -0.74106,0.82845 -0.69812,1.92558 0.0919,2.34839 0.59813,0.3201 2.35679,-0.0543 3.41281,-0.7266 0.19403,-0.12352 1.89028,-0.17234 3.76946,-0.10848 3.9326,0.13364 4.81279,0.53383 5.86887,2.66836 0.63483,1.2831 0.65116,1.5354 0.19706,3.04427 -0.57602,1.91398 -0.91604,2.19814 -2.639,2.20547 -0.69865,0.003 -1.73052,0.15271 -2.29306,0.33275 -1.74048,0.55704 -7.06253,0.6719 -9.40105,0.20288 -3.69815,-0.74171 -6.76252,-1.63602 -7.33239,-2.13989 -0.29767,-0.2632 -0.56753,-0.82785 -0.59969,-1.25478 -0.069,-0.91603 -0.68837,-1.38171 -1.47294,-1.10745 -0.83533,0.29201 -2.14865,1.87537 -2.14865,2.59045 0,0.88574 0.95904,1.73422 1.9602,1.73422 0.46831,0 2.51218,0.55562 4.54193,1.23472 2.02974,0.6791 4.09586,1.23472 4.59138,1.23472 1.16417,0 2.31643,1.14174 2.07686,2.05787 -0.19318,0.73871 -1.07259,1.10436 -2.67523,1.11232 -0.53358,0.003 -1.3072,0.34187 -1.71916,0.75383 -0.66984,0.66984 -0.95885,0.71784 -2.73403,0.45402 -1.09175,-0.16225 -3.41376,-0.30087 -5.16001,-0.30805 -2.53294,-0.0104 -3.41215,-0.15572 -4.34772,-0.7186 -1.11103,-0.66844 -1.1966,-0.67306 -1.62669,-0.0878 -0.47958,0.65261 -0.3462,2.25179 0.25071,3.00615 0.28611,0.36156 0.501,0.3534 1.10436,-0.0419 1.73072,-1.13401 5.18074,-0.93781 6.25423,0.35567 0.56226,0.67748 6.06394,0.65555 6.62994,-0.0264 z m 4.96434,-5.32233 c -0.36691,-0.4421 -0.31597,-0.52916 0.30959,-0.52916 0.43037,0 0.74875,0.22501 0.74875,0.52916 0,0.29105 -0.13932,0.52917 -0.30959,0.52917 -0.17027,0 -0.5072,-0.23812 -0.74875,-0.52917 z m -71.41673,3.86934 c -0.7506,-0.56772 -1.60827,-0.68716 -1.60827,-0.22397 0,0.52023 0.44837,0.76463 1.38171,0.75314 0.87747,-0.0108 0.88589,-0.0305 0.22656,-0.52917 z m 14.70951,-3.67562 c -1.48857,-0.70244 -2.39701,-0.91479 -3.40471,-0.79587 -0.75594,0.0892 -2.25786,-0.0355 -3.33762,-0.27714 -1.07976,-0.24164 -2.52501,-0.49047 -3.21168,-0.55297 -0.68667,-0.0625 -1.63051,-0.22738 -2.09741,-0.36639 -1.37593,-0.40968 -0.57082,0.43387 1.32101,1.38409 1.2387,0.62216 2.78656,0.95718 5.89547,1.27603 2.31867,0.2378 4.4539,0.46488 4.74494,0.50463 0.29104,0.0397 0.88717,0.008 1.32472,-0.071 0.64571,-0.1163 0.41313,-0.32375 -1.23472,-1.10135 z m 32.73656,-12.16922 c 4.24841,-0.0839 4.46532,-0.12483 5.34943,-1.00895 0.6801,-0.6801 1.13737,-0.86293 1.74566,-0.69796 1.45318,0.39411 3.8271,0.20571 4.45224,-0.35334 1.01323,-0.90609 4.3363,-1.70708 5.59024,-1.34745 0.92925,0.2665 1.24379,0.18215 2.02627,-0.54341 1.20863,-1.1207 1.17031,-1.73457 -0.13672,-2.1902 -0.58464,-0.20381 -1.15725,-0.61622 -1.27247,-0.91646 -0.11521,-0.30024 -0.54974,-0.54589 -0.96561,-0.54589 -1.29709,0 -5.59975,0.99859 -5.99177,1.39061 -0.2053,0.2053 -0.9935,0.37328 -1.75155,0.37328 -0.75805,0 -2.44664,0.25786 -3.75243,0.57303 -2.20912,0.5332 -2.46131,0.53168 -3.62772,-0.0218 -0.85498,-0.40572 -1.20833,-0.78421 -1.11131,-1.1904 0.34506,-1.44468 -0.31697,-1.65388 -5.23393,-1.65388 -4.22429,0 -4.84149,-0.0811 -6.24985,-0.82112 -1.04867,-0.55102 -1.91897,-0.76249 -2.64584,-0.6429 -1.39896,0.23018 -1.94866,-0.0131 -3.69892,-1.637 -1.17377,-1.08905 -1.44117,-1.57366 -1.44117,-2.61184 0,-1.04588 0.26914,-1.52483 1.4993,-2.66814 1.91137,-1.77641 2.70301,-2.06782 5.53904,-2.03896 1.27065,0.0129 3.35708,-0.0707 4.63651,-0.1858 1.95118,-0.17556 2.59509,-0.0829 3.99378,0.57454 0.91715,0.43111 1.91662,1.16396 2.22103,1.62857 0.43792,0.66834 0.77706,0.80949 1.62418,0.67598 1.23587,-0.19477 3.22739,0.54664 4.38204,1.63138 1.06609,1.00154 1.10308,3.08956 0.0662,3.7371 -0.5928,0.37021 -0.65081,0.55566 -0.30437,0.97309 0.37186,0.44807 0.58626,0.42234 1.63448,-0.19613 0.66356,-0.39151 1.51124,-0.71184 1.88374,-0.71184 0.37249,0 0.9364,-0.39551 1.25314,-0.87891 0.31674,-0.4834 0.71728,-0.79153 0.89008,-0.68474 0.41171,0.25445 0.39654,-0.0199 -0.0911,-1.64742 -0.31683,-1.05746 -0.3074,-1.47057 0.0432,-1.89301 0.56801,-0.68441 2.56414,-0.69674 3.86534,-0.0239 1.14235,0.59073 2.84673,2.48958 2.84673,3.17155 0,0.63468 0.82716,1.26277 1.27228,0.96608 1.51971,-1.01293 0.005,-3.7794 -2.8004,-5.1144 -1.03057,-0.49043 -2.51347,-0.88142 -3.41077,-0.89931 -3.61819,-0.0721 -4.87682,-0.41685 -5.93895,-1.62655 -1.13229,-1.28961 -1.76412,-1.45555 -7.19665,-1.89015 -2.69784,-0.21583 -3.65922,-0.4411 -4.48363,-1.05062 -1.40028,-1.03527 -4.42355,-1.09393 -5.28341,-0.10251 -0.44575,0.51395 -1.0042,0.6601 -2.35903,0.61736 -1.22544,-0.0387 -1.95235,0.12114 -2.34772,0.51609 -0.32766,0.32732 -2.02266,0.83316 -3.96162,1.18228 -1.86391,0.33561 -3.82569,0.82808 -4.35951,1.09438 -0.53383,0.26631 -1.75008,0.54913 -2.7028,0.6285 -0.95271,0.0794 -1.79131,0.32164 -1.86356,0.53839 -0.0722,0.21675 -0.32435,0.39408 -0.56021,0.39408 -0.23587,0 -0.81796,0.61869 -1.29352,1.37487 -0.47557,0.75617 -1.02342,1.28133 -1.21745,1.167 -0.19403,-0.11432 -0.1349,0.0607 0.13139,0.38903 0.26629,0.32828 0.92861,0.59688 1.47182,0.59688 0.71576,0 1.32015,0.38846 2.1955,1.41111 0.66432,0.77611 1.36137,1.41111 1.54899,1.41111 0.43021,0 2.23626,1.86502 2.23925,2.31236 0.001,0.18341 0.48217,0.6066 1.06876,0.94041 0.58659,0.33382 1.33965,1.10527 1.67347,1.71433 1.07795,1.9668 1.61877,2.43154 2.89999,2.49207 0.67909,0.0321 2.38681,0.60492 3.79492,1.27299 1.53434,0.72795 3.46266,1.32658 4.81243,1.49397 1.23872,0.15362 2.54726,0.45507 2.90785,0.66988 0.3606,0.21481 0.97313,0.29596 1.36119,0.18034 0.38805,-0.11562 2.69813,-0.24957 5.1335,-0.29768 z m -2.0467,-5.36786 c -0.70065,-0.28272 -0.54527,-1.54207 0.17639,-1.42964 0.92593,0.14427 1.4993,0.58594 1.4993,1.15494 0,0.49765 -0.79869,0.62858 -1.67569,0.2747 z m -25.28712,1.4097 c -2.51232,-1.3601 -5.13997,-4.71361 -5.13997,-6.55985 0,-0.4429 -0.20628,-0.62604 -0.61736,-0.54809 -0.66551,0.12621 -1.08649,1.99071 -0.53417,2.36582 0.17385,0.11807 0.90428,1.10928 1.6232,2.20269 1.38843,2.11167 2.88919,3.1152 4.64361,3.1051 l 1.05834,-0.006 -1.03365,-0.55958 z m 2.62115,0.24612 c 0,-0.18793 -0.23813,-0.25032 -0.52917,-0.13864 -0.29104,0.11168 -0.52917,0.26545 -0.52917,0.34171 0,0.0763 0.23813,0.13864 0.52917,0.13864 0.29104,0 0.52917,-0.15377 0.52917,-0.34171 z m 61.73611,-2.2833 c 0,-0.0856 -0.15875,-0.25368 -0.35278,-0.3736 -0.19403,-0.11992 -0.35278,-0.0499 -0.35278,0.15557 0,0.20548 0.15875,0.3736 0.35278,0.3736 0.19403,0 0.35278,-0.07 0.35278,-0.15557 z m -32.68076,-2.49027 c 0.11168,-0.29104 0.0493,-0.52916 -0.13864,-0.52916 -0.18794,0 -0.34171,0.23812 -0.34171,0.52916 0,0.29104 0.0624,0.52917 0.13864,0.52917 0.0763,0 0.23002,-0.23813 0.34171,-0.52917 z m -4.1977,-5.20347 c -0.3117,-1.45491 -0.31328,-1.45622 -1.19133,-0.98631 -1.21825,0.65199 -0.68091,2.13284 0.77393,2.13284 0.56323,0 0.62606,-0.17257 0.4174,-1.14653 z m 43.58124,0.004 c 0.6791,-0.002 2.74285,0.0102 4.58611,0.0278 3.72408,0.0356 6.16403,-0.10223 11.64167,-0.65763 2.03729,-0.20656 4.25979,-0.42854 4.93889,-0.49328 2.82576,-0.2694 8.30644,-0.98724 8.51381,-1.11512 0.12295,-0.0758 1.3699,-0.30043 2.771,-0.49914 2.82438,-0.40057 11.48177,-2.90949 13.40963,-3.88612 0.6791,-0.34402 1.53714,-0.95989 1.90676,-1.36859 0.63182,-0.69862 0.63427,-0.74309 0.0409,-0.74309 -0.6412,0 -2.12321,0.34786 -5.29908,1.24383 -1.90589,0.53768 -6.29815,1.28658 -8.29027,1.41352 -0.6791,0.0433 -3.06035,0.34308 -5.29167,0.66623 -7.70424,1.11576 -9.51116,1.28033 -16.11999,1.46812 -7.04815,0.20027 -8.99563,0.19638 -9.21041,-0.0184 -0.0734,-0.0734 -0.76741,0.0903 -1.54232,0.36371 -1.03265,0.36434 -1.80142,0.40934 -2.87853,0.16848 -0.80827,-0.18071 -4.32709,-0.3568 -7.81959,-0.39126 -10.31594,-0.10181 -11.57188,-0.16601 -13.05278,-0.66719 -3.68093,-1.24573 -2.71082,-3.90384 1.23473,-3.38313 0.87312,0.11523 1.78593,0.20234 2.02847,0.19358 0.24253,-0.009 0.71878,-0.0272 1.05833,-0.041 0.33955,-0.0138 7.28486,0.064 15.43403,0.17293 11.77119,0.15731 15.43301,0.0966 17.81528,-0.29539 1.64924,-0.27136 3.63361,-0.49712 4.40972,-0.50169 0.77611,-0.005 2.20486,-0.15491 3.175,-0.33407 0.97014,-0.17917 2.00202,-0.33283 2.29306,-0.34147 0.29104,-0.009 1.79916,-0.18392 3.35139,-0.3895 2.57258,-0.34074 4.82857,-0.67747 11.99444,-1.7903 3.98286,-0.61853 9.12949,-1.84128 9.70139,-2.30489 0.5706,-0.46254 2.21269,-0.98849 3.35139,-1.07341 0.38806,-0.0289 1.41993,-0.37895 2.29306,-0.77781 0.87312,-0.39886 2.21344,-0.84238 2.97848,-0.9856 0.76504,-0.14323 1.76444,-0.63387 2.2209,-1.09033 0.45645,-0.45645 1.041432,-0.82991 1.299958,-0.82991 0.258526,0 1.045062,-0.24026 1.747855,-0.5339 2.012301,-0.84079 1.731938,-1.75066 -0.927058,-3.00858 -1.212674,-0.57369 -2.450925,-1.0432 -2.751665,-1.04335 -0.30074,-1.5e-4 -0.69829,-0.15176 -0.88343,-0.33691 -0.18514,-0.18514 -1.05033,-0.38357 -1.92264,-0.44097 l -1.58601,-0.10435 v 1.23473 c 0,0.95181 -0.238,1.41659 -1.03868,2.02847 -0.57127,0.43656 -1.21829,0.79375 -1.43781,0.79375 -0.21953,0 -0.784,0.41462 -1.25438,0.92137 -0.47039,0.50676 -2.6015,1.80432 -4.7358,2.88347 -3.87929,1.96145 -3.88157,1.96208 -6.96736,1.91031 -1.69775,-0.0285 -3.08681,0.064 -3.08681,0.20542 0,0.60363 -5.57283,2.19332 -7.68891,2.19332 -0.61459,0 -2.20106,0.18582 -3.52549,0.41293 -1.76001,0.30181 -2.81244,0.31029 -3.91072,0.0315 -1.42283,-0.36115 -1.56766,-0.32436 -2.72567,0.69239 -0.67265,0.59059 -1.73247,1.178 -2.35514,1.30536 -1.12104,0.22927 -1.88742,0.1496 -6.88775,-0.71607 -2.29293,-0.39695 -2.6861,-0.38063 -3.58221,0.14871 -1.14984,0.67923 -2.56434,0.76589 -3.58503,0.21963 -0.52701,-0.28205 -1.09268,-0.22525 -2.2826,0.22919 -1.90795,0.72865 -2.92255,0.34915 -4.01451,-1.50158 -0.82854,-1.40428 -1.1212,-1.4441 -2.25805,-0.30726 -1.12789,1.12788 -2.40457,1.42513 -4.41564,1.02809 -1.28549,-0.2538 -1.99911,-0.18746 -3.39189,0.3153 -1.93481,0.69842 -2.81336,0.63042 -6.2717,-0.48545 -1.73276,-0.55909 -2.69137,-0.65973 -4.55235,-0.47792 -2.20408,0.21533 -2.49777,0.15549 -4.51602,-0.92023 -2.59261,-1.38184 -4.06928,-1.45066 -7.69305,-0.35854 -1.48691,0.44812 -2.90081,0.67552 -3.35138,0.53899 -1.17755,-0.35679 -2.30379,-1.53411 -2.55301,-2.6688 -0.28441,-1.2949 -0.63593,-1.2784 -1.59969,0.0751 -0.7127,1.0009 -0.92182,1.08209 -2.58166,1.00238 -2.72477,-0.13084 -3.81327,-0.0156 -3.57003,0.37796 0.11991,0.19403 0.51708,0.35278 0.8826,0.35278 0.36551,0 1.20518,0.31897 1.86593,0.70882 0.89234,0.5265 2.0999,0.76096 4.69447,0.9115 3.50607,0.20343 6.69553,1.02597 8.78478,2.26553 0.58208,0.34536 2.27106,0.87517 3.75328,1.17737 1.52496,0.31091 3.28626,0.94206 4.05695,1.45376 0.74909,0.49736 1.67949,1.09982 2.06754,1.3388 0.38806,0.23897 1.53546,1.26794 2.54978,2.28658 1.01432,1.01865 1.88745,1.87568 1.94028,1.90452 0.28741,0.15688 13.47499,0.45882 15.2655,0.34951 1.16417,-0.0711 2.67229,-0.13112 3.35139,-0.13345 z m -68.90739,-8.91717 c 0.14818,-0.44455 -2.12886,-1.45181 -3.96861,-1.75553 -2.35235,-0.38835 -5.93451,-1.29248 -6.6754,-1.68486 -0.61928,-0.32798 -0.64926,-0.30541 -0.24519,0.18457 0.84043,1.01912 5.34977,3.47273 6.86602,3.73592 1.71381,0.29749 3.84891,0.0427 4.02318,-0.4801 z m 15.58216,-2.99299 c 0.61097,-0.82638 1.07008,-1.0668 2.09482,-1.09699 l 1.31235,-0.0386 -1.41111,-0.28477 c -0.77611,-0.15662 -1.85869,-0.45699 -2.40573,-0.66748 -0.54705,-0.21049 -1.3408,-0.30074 -1.76389,-0.20055 -0.4231,0.10018 -2.03927,-0.14318 -3.59149,-0.54081 -1.55222,-0.39764 -3.77472,-0.96745 -4.93889,-1.26626 -1.23499,-0.31698 -2.75129,-0.46026 -3.64023,-0.34398 -1.12795,0.14756 -1.86076,0.0193 -2.82222,-0.49411 -2.83933,-1.51606 -3.63554,-1.73616 -8.46995,-2.34131 -2.2787,-0.28524 -4.11421,-1.44013 -5.49752,-3.45901 -0.40932,-0.5974 -0.59185,-0.62752 -1.50653,-0.24865 -1.68241,0.69688 -2.82134,0.0574 -3.18393,-1.78765 -0.25752,-1.31037 -0.43232,-1.5328 -1.28184,-1.63111 -0.54102,-0.0626 -1.36469,0.13584 -1.8304,0.44097 -0.4657,0.30514 -1.57712,0.5548 -2.46983,0.5548 -1.93895,0 -2.98783,0.48907 -2.98783,1.39317 0,0.91038 3.57421,2.81959 7.58472,4.05148 1.74625,0.53638 4.1275,1.33197 5.29167,1.76796 3.13103,1.17261 5.35975,1.71745 6.16452,1.507 0.42379,-0.11083 1.20972,0.14985 1.93428,0.64155 1.16833,0.79284 3.25396,1.35857 7.07064,1.9179 6.34195,0.9294 13.15956,2.24805 13.75834,2.66111 1.08927,0.75141 1.7383,0.61745 2.59005,-0.53461 z m 77.30037,-4.29985 c 0.94667,-1.01613 0.91371,-1.40609 -0.0745,-0.88084 -1.43078,0.76052 -1.68989,0.99175 -1.48423,1.32451 0.32133,0.51993 0.78352,0.38837 1.55868,-0.44367 z m -74.27042,-2.36857 c -0.0928,-0.0928 -0.44278,0.11735 -0.77771,0.46704 -0.58183,0.60746 -0.57431,0.61498 0.16875,0.16874 0.42774,-0.25687 0.70177,-0.54298 0.60896,-0.63578 z m 83.45639,-0.80898 c 0,-0.45445 -0.20118,-0.64948 -0.59227,-0.57416 -0.32576,0.0627 -0.56388,0.23312 -0.52917,0.37864 0.0347,0.14552 0.0631,0.60152 0.0631,1.01334 0,0.62556 0.0871,0.67649 0.52916,0.30958 0.29105,-0.24154 0.52917,-0.74887 0.52917,-1.1274 z m -81.66806,-0.47934 c 1.02589,-0.87017 1.0313,-0.89042 0.17639,-0.66063 -1.01512,0.27285 -1.76389,0.80442 -1.76389,1.25223 0,0.52479 0.48393,0.34445 1.5875,-0.5916 z m 7.41961,-0.19266 c 0.35876,-1.13036 -0.37376,-1.63579 -1.23766,-0.85398 -0.96835,0.87635 -0.90334,1.59505 0.14428,1.59505 0.56205,0 0.93933,-0.25572 1.09338,-0.74107 z m 68.95678,-0.84643 c 0.35969,-0.43339 0.33558,-0.52917 -0.13319,-0.52917 -0.3148,0 -0.57236,0.23812 -0.57236,0.52917 0,0.29104 0.0599,0.52916 0.13319,0.52916 0.0733,0 0.33082,-0.23812 0.57236,-0.52916 z m -5.98389,-2.27872 c 0.8267,-0.70663 1.6204,-1.05118 2.45612,-1.06624 0.67909,-0.0122 2.17935,-0.48319 3.33391,-1.04657 1.98291,-0.96758 2.17668,-0.99763 3.49799,-0.5424 1.19622,0.41213 1.54106,0.40835 2.3812,-0.0261 0.58376,-0.30187 1.9962,-0.50802 3.48071,-0.50802 1.58949,0 2.97541,-0.216378 3.80988,-0.594818 1.21865,-0.55268 5.47637,-1.10102 9.88195,-1.27269 2.47856,-0.0966 2.70513,-0.84725 1.17237,-3.88429 -1.17784,-2.33382 -1.33814,-3.24486 -0.90708,-5.15533 0.24718,-1.09547 0.21048,-1.18044 -0.40124,-0.92909 -0.37032,0.15215 -1.14955,0.31072 -1.73164,0.35238 -0.58208,0.0417 -1.96195,0.28451 -3.06638,0.53968 -1.60045,0.36978 -2.31776,0.37724 -3.53393,0.0367 -2.55052,-0.7141 -7.12014,0.52211 -9.24396,2.50075 -0.49354,0.4598 -1.23938,0.64557 -2.59189,0.64557 -1.96021,0 -2.90689,0.51164 -2.90689,1.57103 0,0.65653 -1.50971,1.32658 -2.30304,1.02216 -0.66611,-0.25561 -1.57752,-1.9443 -1.57752,-2.92288 0,-0.39463 -0.43746,-1.20711 -0.97213,-1.80552 l -0.97213,-1.088 -1.57792,1.14304 c -0.86786,0.62868 -2.25235,1.26904 -3.07664,1.42304 -0.8243,0.15399 -2.16722,0.60297 -2.98427,0.99773 -0.81705,0.39475 -1.73966,0.71773 -2.05025,0.71773 -0.31058,0 -1.18745,0.3175 -1.9486,0.70556 -1.63176,0.83192 -3.0037,0.88374 -4.93889,0.18656 -0.77611,-0.2796 -2.0612,-0.51534 -2.85574,-0.52386 -0.98229,-0.0105 -1.64899,-0.24129 -2.08315,-0.72103 -0.85992,-0.95021 -1.09729,-0.90152 -2.41462,0.49525 -1.18714,1.25874 -2.16558,1.37843 -4.00031,0.48934 -0.75203,-0.36442 -1.65257,-1.96065 -1.46855,-2.60304 0.18742,-0.65422 -0.42694,-3.32044 -0.7651,-3.32044 -0.19248,0 -0.54479,0.72842 -0.78291,1.61871 -0.51193,1.91406 -1.2695,2.41782 -3.17722,2.11277 -1.45191,-0.23217 -5.42827,0.36341 -6.14252,0.92004 -0.22373,0.17435 -0.93634,0.46888 -1.58358,0.65451 -1.32248,0.37928 -2.6203,0.0783 -5.41797,-1.25638 -1.57482,-0.75132 -2.43443,-0.8664 -8.01952,-1.07369 l -6.25562,-0.23218 -0.31572,0.83297 c -0.17364,0.45813 -0.31533,1.89748 -0.31486,3.19854 7.1e-4,1.77927 -0.18494,2.68047 -0.7488,3.63613 -1.11706,1.893278 -1.01249,2.049938 1.18506,1.775368 1.92194,-0.24013 6.04782,0.4462 7.84392,1.30482 0.49473,0.23651 2.05595,0.29078 4.24253,0.14748 3.31751,-0.21741 3.53189,-0.18702 5.21443,0.73909 1.64731,0.90671 1.95978,0.95586 5.10608,0.80302 5.39471,-0.26207 15.9016,-0.21142 17.81528,0.0859 2.4627,0.38259 6.82827,0.34535 8.23234,-0.0702 2.45024,-0.72521 6.82852,-0.84211 8.87738,-0.23703 1.06715,0.31517 2.1784,0.72695 2.46944,0.91508 0.7431,0.48035 0.76946,0.4718 2.13,-0.69113 z m -30.03219,-3.405278 c -0.67986,-0.81918 -1.78677,-1.15068 -2.69714,-0.80775 -0.60406,0.22754 -0.95638,0.11842 -1.4993,-0.46434 -0.8963,-0.96206 -0.90056,-1.75776 -0.0137,-2.56034 0.86194,-0.78004 2.02579,-0.58851 4.35969,0.71746 1.75818,0.98382 2.60331,2.16879 2.23372,3.13194 -0.27635,0.720148 -1.78039,0.709438 -2.38326,-0.017 z m 44.39456,-2.28185 c -0.35385,-0.2061 -0.61736,-0.77848 -0.61736,-1.34097 0,-0.79597 0.34894,-1.2075 1.84682,-2.1781 1.65577,-1.07289 2.06635,-1.1862 3.96875,-1.09524 1.16706,0.0558 2.47911,0.33311 2.91568,0.61625 1.56405,1.0144 0.64262,2.93313 -1.41993,2.95676 -0.53842,0.006 -1.8823,0.32872 -2.98638,0.71678 -2.25345,0.79202 -2.81982,0.8416 -3.70758,0.32452 z m -113.36199,1.74017 c -0.38892,-0.62929 -0.84937,-0.26178 -0.83861,0.669338 0.0106,0.9192 0.0378,0.935 0.51787,0.3008 0.27866,-0.368128 0.42299,-0.804688 0.32074,-0.970138 z m 28.72112,1.156328 c 0.32837,-0.20819 0.45584,-1.121888 0.42988,-3.081398 -0.0203,-1.532 0.0657,-3.30285 0.1911,-3.93521 0.33021,-1.66522 -0.27716,-2.20163 -2.49283,-2.20163 -1.38681,0 -2.17049,-0.21895 -3.14095,-0.87752 -1.4305,-0.97076 -1.94596,-1.118 -4.86036,-1.38833 -1.09892,-0.10193 -2.89697,-0.59651 -3.99567,-1.09906 -1.95377,-0.89368 -2.04692,-0.90249 -4.24265,-0.40165 -1.96867,0.44906 -2.36702,0.44833 -3.23626,-0.006 -0.54519,-0.28493 -1.94943,-0.5904 -3.12052,-0.67881 -1.8612,-0.14052 -2.13329,-0.0814 -2.16123,0.46959 -0.0176,0.34669 -0.22945,1.85937 -0.47083,3.3615 -0.3885,2.41767 -0.37233,2.83271 0.14088,3.61597 0.36651,0.55936 0.90866,0.88482 1.47393,0.88482 1.56601,0 8.03241,1.43983 9.49651,2.11452 0.77611,0.35765 2.04611,0.73037 2.82222,0.82827 0.77611,0.0979 1.96674,0.33686 2.64584,0.53101 0.67909,0.19415 2.19021,0.4558 3.35805,0.58144 1.24538,0.13399 2.48523,0.50652 2.99861,0.900978 0.91081,0.69984 3.31482,0.92006 4.16428,0.38147 z m -23.19217,-7.936968 c -0.84367,-1.36508 -0.89518,-1.92201 -0.25561,-2.76368 0.51692,-0.68024 1.77631,-0.52014 2.78691,0.35431 0.34088,0.29496 0.95807,0.70913 1.37153,0.92039 0.65741,0.3359 0.86867,1.21983 0.24157,1.0108 -0.1301,-0.0434 -0.60635,0.31108 -1.05833,0.78766 -1.16359,1.22691 -2.20082,1.12289 -3.08607,-0.30948 z m -4.4385,6.12706 c 0.11992,-0.19403 0.0499,-0.35278 -0.15556,-0.35278 -0.20548,0 -0.3736,0.15875 -0.3736,0.35278 0,0.19403 0.07,0.35278 0.15556,0.35278 0.0856,0 0.25369,-0.15875 0.3736,-0.35278 z m 31.92639,-3.15418 c 0,-0.18258 -0.15875,-0.43007 -0.35277,-0.54999 -0.19403,-0.11991 -0.35278,0.0295 -0.35278,0.33196 0,0.30249 0.15875,0.54999 0.35278,0.54999 0.19402,0 0.35277,-0.14938 0.35277,-0.33196 z m 3.58078,-8.38401 c 1.28485,0.17234 1.42544,0.0945 2.47879,-1.37226 0.61418,-0.85523 1.6476,-1.86821 2.29649,-2.25106 1.33035,-0.78493 1.99569,-2.10824 1.91033,-3.79949 -0.0318,-0.63015 0.25123,-1.7414 0.62895,-2.46945 0.37772,-0.72804 1.25517,-2.5532 1.94989,-4.05591 2.16106,-4.67452 5.39134,-7.12082 7.97074,-6.03627 0.62043,0.26087 1.44093,0.87206 1.82332,1.3582 0.38239,0.48613 0.8028,0.88371 0.93424,0.88351 0.13143,-1.9e-4 0.6691,-0.76619 1.1948,-1.70222 1.31602,-2.34319 4.11458,-4.89362 5.69507,-5.19013 2.78983,-0.52337 6.57612,2.63468 7.93265,6.61643 0.2457,0.72116 0.42272,2.14991 0.3934,3.175 -0.0375,1.31142 0.17099,2.28199 0.70357,3.2749 0.62667,1.16834 0.7181,1.75685 0.53142,3.42075 -0.124,1.10531 -0.12509,2.17205 -0.002,2.37053 0.13965,0.22595 0.97616,0.01 2.23732,-0.57878 1.10785,-0.51681 2.72866,-0.98103 3.60178,-1.03161 3.72387,-0.21571 5.45402,-0.62902 5.58991,-1.33535 0.0722,-0.37524 -0.0844,-0.85466 -0.34808,-1.06538 -0.53326,-0.42626 -1.41384,-1.90659 -2.42295,-4.07322 -0.30487,-0.65457 -2.80433,-1.22701 -4.02251,-0.92127 -0.55308,0.13881 -0.9842,0.55281 -1.11393,1.0697 -0.25569,1.01873 -1.21,1.33077 -2.32696,0.76087 -0.72541,-0.37012 -0.81389,-0.64391 -0.7426,-2.29786 0.15447,-3.58396 1.85463,-5.41294 4.26033,-4.58316 0.85772,0.29584 2.35038,0.53276 4.03619,0.64062 1.00007,0.064 3.39091,2.47118 4.14295,4.17129 0.38327,0.86645 0.88774,1.51172 1.12105,1.43395 0.23331,-0.0778 0.8313,-0.87801 1.32887,-1.77832 1.7762,-3.21387 4.45604,-4.08945 6.87331,-2.24571 1.46871,1.12024 3.06955,4.28189 2.69445,5.32151 -0.33727,0.93476 -0.0841,5.39242 0.37355,6.5782 0.19485,0.50483 1.13851,1.75319 2.09702,2.77413 0.9585,1.02094 1.74627,2.11601 1.75058,2.43351 0.0129,0.95292 1.22108,2.25157 1.96198,2.10899 0.59647,-0.1148 0.68364,-0.48238 0.74089,-3.12397 0.0357,-1.64663 0.0754,-3.27168 0.0882,-3.61123 0.0391,-1.0353 1.33423,-2.06706 2.29275,-1.82649 1.1803,0.29624 1.65008,-0.73281 1.49443,-3.27355 -0.0689,-1.12404 0.038,-2.59934 0.23756,-3.27843 0.19952,-0.6791 0.37978,-1.3141 0.40057,-1.41111 0.0208,-0.097 0.21522,-0.73202 0.43205,-1.41112 0.21684,-0.67909 0.48405,-1.64396 0.5938,-2.14416 0.26511,-1.20812 3.30384,-2.91873 4.60481,-2.59221 0.4944,0.12409 1.70891,1.1606 2.6989,2.30337 1.71375,1.9782 1.86203,2.06783 3.09491,1.87068 1.13387,-0.18131 1.47889,-0.0458 2.77413,1.08955 0.81357,0.71314 1.58583,1.64032 1.71615,2.06039 0.13031,0.42008 0.51494,1.16065 0.85474,1.64572 0.33979,0.48507 0.80022,1.76464 1.02316,2.84348 0.32924,1.59322 0.31122,2.18542 -0.096,3.15391 -0.29614,0.70433 -0.38343,1.41761 -0.21326,1.74264 0.15846,0.30264 0.37409,0.82806 0.47918,1.16761 0.21682,0.70056 0.98009,0.85142 0.89243,0.17639 -0.17596,-1.35507 0.12457,-2.40038 0.90219,-3.13798 0.57172,-0.5423 0.87796,-1.22166 0.88194,-1.95648 0.004,-0.61914 0.16485,-1.22382 0.35887,-1.34374 0.19403,-0.11991 0.35278,-1.00241 0.35278,-1.9611 5e-5,-1.31909 -0.12948,-1.74307 -0.53247,-1.74307 -0.41599,0 -0.48845,-0.2895 -0.33109,-1.32291 0.72155,-4.73856 0.62295,-6.13319 -0.71702,-10.14236 -1.51902,-4.54483 -1.70515,-4.86367 -4.7468,-8.13091 -1.27359,-1.36806 -2.47438,-2.72805 -2.66841,-3.0222 -0.26849,-0.40703 -0.84259,-0.50011 -2.40287,-0.38959 -1.7742,0.12568 -2.09348,0.25935 -2.37252,0.99327 -0.24422,0.64234 -0.58613,0.84804 -1.40966,0.84804 -1.81394,0 -4.29476,-0.77284 -5.79759,-1.80611 -0.7826,-0.53808 -2.05791,-1.06993 -2.83402,-1.1819 -2.13551,-0.3081 -2.58958,-0.51231 -2.83109,-1.27323 -0.15251,-0.48054 0.0338,-0.91145 0.59932,-1.3859 0.69179,-0.58041 0.73901,-0.74214 0.30068,-1.02993 -0.84497,-0.55477 -4.784,-1.0561 -10.06336,-1.28079 -2.71639,-0.11561 -5.73264,-0.264602 -6.70278,-0.331101 -2.61471,-0.179228 -13.11114,0.450971 -15.34583,0.921351 -2.66357,0.56066 -3.70967,0.48178 -4.90578,-0.36993 -0.63906,-0.455045 -1.57368,-0.729129 -2.48634,-0.729129 -0.8043,0 -1.96885,-0.261913 -2.58788,-0.582027 -0.85107,-0.440104 -2.20167,-0.593891 -5.53873,-0.630671 -2.88127,-0.03175 -5.08674,-0.24553 -6.35349,-0.615837 -1.06716,-0.311962 -2.65466,-0.675919 -3.52778,-0.8088 -0.87313,-0.132877 -2.06946,-0.40719 -2.65852,-0.609582 -1.51455,-0.520383 -10.25668,0.94561 -13.01359,2.182283 -1.5721,0.705203 -2.92118,1.075045 -4.72886,1.296388 -0.64602,0.0791 -1.83664,0.374505 -2.64583,0.656455 -2.03533,0.70917 -2.25728,0.67147 -3.39776,-0.577193 -0.9272,-1.015157 -1.20487,-1.107951 -3.59609,-1.20179 -2.70333,-0.106091 -5.03997,0.300245 -5.94269,1.033413 -0.29104,0.236379 -1.71979,0.72476 -3.175,1.0853 -2.44535,0.60585 -5.79166,2.11337 -6.9121,3.11392 -0.25907,0.23135 -1.41181,1.21439 -2.56164,2.18453 -2.80017,2.36258 -3.50334,3.64909 -3.61023,6.60525 -0.10116,2.79738 -0.69529,6.15637 -1.26687,7.16233 -0.63472,1.11708 -1.22243,4.94757 -1.1546,7.52539 0.0339,1.28873 -0.0229,2.58127 -0.12614,2.87231 -0.10328,0.29104 -0.25915,1.27412 -0.34638,2.18462 -0.19722,2.05867 0.26982,2.31246 1.99571,1.08447 0.70187,-0.49938 1.81408,-0.94063 2.47159,-0.98056 1.41313,-0.0858 2.25258,-0.63835 3.35083,-2.20566 1.17416,-1.67565 2.46276,-2.26943 3.58129,-1.65024 0.48091,0.26622 1.43,0.49345 2.1091,0.50495 0.6791,0.0115 1.86972,0.18736 2.64583,0.3908 0.77611,0.20344 2.26198,0.52209 3.30192,0.70811 1.03995,0.18602 2.34175,0.57141 2.8929,0.85642 1.11785,0.57806 4.057,0.70182 4.37685,0.1843 0.12416,-0.20089 0.78673,-0.12913 1.66335,0.18016 0.80134,0.28273 1.5335,0.43753 1.62702,0.34401 0.0935,-0.0935 -0.005,-0.84928 -0.21979,-1.67946 -0.21441,-0.83018 -0.56819,-2.43724 -0.78617,-3.57124 -0.50152,-2.60903 -1.12012,-4.08875 -2.29104,-5.48032 -1.20585,-1.43306 -2.21689,-1.4006 -3.9115,0.12562 -1.42325,1.28182 -2.50129,1.54762 -3.2525,0.80193 -0.35643,-0.35381 -0.39154,-0.30151 -0.17768,0.26459 0.1466,0.38805 0.47252,1.10243 0.72428,1.5875 0.99199,1.91132 0.18288,4.58611 -1.38727,4.58611 -0.93325,0 -2.39539,-1.32368 -2.15477,-1.95073 0.2219,-0.57826 -0.81388,-4.71048 -1.33947,-5.34378 -0.21298,-0.25663 -0.69289,-0.4666 -1.06645,-0.4666 -1.19456,0 -3.81661,3.31672 -3.81919,4.83102 -7.1e-4,0.42574 -0.35851,1.16842 -0.79507,1.65038 -0.63782,0.70416 -0.95122,0.81364 -1.59532,0.55732 -1.24504,-0.49547 -1.26664,-1.10759 -0.15079,-4.27165 2.02356,-5.73793 3.47229,-7.51762 6.07306,-7.46042 2.28226,0.0502 5.03411,2.65014 4.44097,4.19582 -0.0927,0.24153 0.0551,0.52495 0.32846,0.62984 0.33205,0.12742 0.71975,-0.31295 1.16836,-1.3271 0.93975,-2.12447 1.94906,-2.94186 3.97699,-3.22077 1.49793,-0.20602 2.04074,-0.0903 3.99292,0.85122 2.57178,1.24034 3.61716,2.36706 3.91302,4.21749 0.24283,1.51871 1.11496,5.63654 1.61791,7.63907 0.22239,0.88548 0.9864,2.0856 2.04629,3.21439 0.93027,0.99073 2.06006,2.61704 2.51064,3.61403 0.45057,0.99698 0.94602,1.81269 1.10099,1.81269 0.76811,0 1.47124,1.90868 1.39523,3.78742 -0.0977,2.41505 0.45893,2.95231 1.68783,1.62908 0.70801,-0.76236 1.06525,-0.88003 2.20685,-0.72691 z m 52.60344,-26.21675 c -1.93215,-2.03745 -2.91477,-3.67922 -2.91477,-4.87003 0,-2.13892 2.99543,-3.84392 5.55638,-3.16268 0.72753,0.19353 2.30768,0.4576 3.51143,0.58683 2.43919,0.26185 3.86652,1.27665 5.02555,3.57304 1.17141,2.32092 1.17902,3.01779 0.0453,4.15148 -0.9428,0.94281 -1.30808,1.05031 -4.28745,1.26179 -5.28946,0.37545 -5.07428,0.42324 -6.93647,-1.54043 z m -54.59672,0.82152 c -0.58208,-0.31299 -1.29645,-0.83531 -1.5875,-1.16071 -0.29104,-0.32541 -1.43188,-1.16579 -2.53519,-1.86752 -2.10701,-1.34009 -2.53067,-1.87509 -2.85591,-3.60641 -0.41121,-2.18888 0.59024,-2.59745 5.21472,-2.12751 3.48514,0.35417 4.45808,0.72196 5.87596,2.22121 2.52112,2.66581 2.62224,4.78885 0.29799,6.25608 -1.60416,1.01267 -2.90074,1.09642 -4.41007,0.28486 z m -27.30432,-5.00966 c -0.71015,-0.12669 -1.47873,-0.59 -1.88562,-1.13667 -0.65817,-0.88426 -0.66155,-0.97173 -0.0809,-2.09461 1.5038,-2.90804 7.29003,-6.96706 9.28237,-6.51156 1.58236,0.36176 3.75009,2.06001 3.86485,3.02781 0.14174,1.19544 -1.51641,3.2888 -3.27917,4.13982 -5.65173,2.72854 -6.14359,2.88885 -7.90154,2.57521 z m 49.52933,0.0408 c -0.58209,-0.0774 -1.27837,-0.32274 -1.54729,-0.54526 -0.61121,-0.50574 -2.08084,-2.81483 -2.51012,-3.94392 -0.33766,-0.8881 -0.38288,-0.82621 2.54439,-3.48176 1.30046,-1.17975 4.94142,-1.60351 7.08323,-0.82441 0.81694,0.29717 2.05285,0.63581 2.74647,0.75254 0.71855,0.12093 1.67251,0.64164 2.21736,1.21034 0.80218,0.8373 0.90153,1.14197 0.61668,1.89118 -0.20112,0.529 -0.72777,0.99052 -1.29186,1.1321 -0.52377,0.13146 -1.66942,0.78658 -2.5459,1.45581 -0.87647,0.66924 -1.85294,1.2168 -2.16992,1.2168 -0.31698,0 -0.88947,0.21404 -1.27219,0.47564 -0.84511,0.57765 -2.44379,0.85062 -3.87085,0.66094 z m -22.04862,-7.11772 c -1.67084,-0.89081 -3.26709,-2.62873 -3.1193,-3.39614 0.0665,-0.34518 0.87136,-1.06854 1.78863,-1.607465 1.42007,-0.834341 2.075,-0.983742 4.40964,-1.005925 3.9719,-0.03774 4.06535,-0.02678 5.00296,0.587583 0.47039,0.308215 1.42409,0.631497 2.11931,0.718397 1.66473,0.20809 2.19913,0.90195 1.73035,2.24669 -0.19741,0.56631 -0.55172,1.02967 -0.78734,1.02967 -0.23561,0 -1.10225,0.32557 -1.92586,0.7235 -0.82361,0.39792 -2.12538,0.77029 -2.89282,0.82747 -0.76743,0.0572 -1.49922,0.20787 -1.62619,0.33484 -0.47303,0.47302 -3.50737,0.1769 -4.69938,-0.45862 z m 52.56389,38.78947 c 0,-0.19402 -0.07,-0.35277 -0.15556,-0.35277 -0.0856,0 -0.25369,0.15875 -0.3736,0.35277 -0.11992,0.19403 -0.0499,0.35278 0.15557,0.35278 0.20547,0 0.37359,-0.15875 0.37359,-0.35278 z m -28.22222,-0.35277 c 0,-0.19403 -0.15875,-0.35278 -0.35278,-0.35278 -0.19402,0 -0.35277,0.15875 -0.35277,0.35278 0,0.19402 0.15875,0.35277 0.35277,0.35277 0.19403,0 0.35278,-0.15875 0.35278,-0.35277 z m 9.66365,-3.73302 c 0.2912,-0.75886 0.27152,-2.61698 -0.0277,-2.61698 -0.51077,0 -1.87482,1.56336 -1.87482,2.14876 0,1.00862 1.54888,1.38981 1.90253,0.46822 z m 0.49927,-4.64546 c 0.43121,-0.85883 0.16066,-3.05494 -0.6845,-5.55625 -1.00371,-2.97053 -1.90089,-4.28082 -3.62167,-5.28926 -1.25207,-0.73377 -1.67769,-0.81953 -2.66374,-0.53673 -1.33826,0.3838 -2.48745,1.30474 -2.48745,1.99339 0,0.25728 -0.43657,0.56343 -0.97014,0.68035 -1.68879,0.37004 -1.85209,0.4697 -1.85209,1.13035 0,1.49442 -1.53709,1.90378 -3.49012,0.92948 -1.53876,-0.76764 -2.6927,-0.3956 -3.68258,1.18729 -0.89996,1.43908 -1.74251,3.63112 -1.49199,3.88165 0.0869,0.0869 1.15914,0.23772 2.38284,0.33526 1.28394,0.10233 2.69607,0.46262 3.33897,0.8519 1.0168,0.61568 1.3369,0.63777 3.66677,0.25299 1.99243,-0.32904 3.00963,-0.32719 4.63443,0.008 1.65262,0.34134 2.33367,0.33886 3.30406,-0.012 1.06018,-0.38337 1.30212,-0.36224 1.82364,0.15928 0.76995,0.76995 1.40177,0.76429 1.79357,-0.0161 z m 24.22205,-3.08762 c -0.22968,-1.46404 -0.50906,-2.75337 -0.62086,-2.86517 -0.31444,-0.31444 -0.95577,0.20233 -0.95577,0.77014 0,0.27959 -0.15875,0.50835 -0.35278,0.50835 -0.19403,0 -0.35278,0.18023 -0.35278,0.40052 0,0.22028 -0.39688,0.76833 -0.88194,1.21787 -0.48804,0.4523 -0.88195,1.21166 -0.88195,1.70017 0,0.74656 0.20416,0.91611 1.32292,1.09867 0.7276,0.11872 1.56104,0.25629 1.85208,0.3057 1.14077,0.19367 1.30225,-0.38773 0.87108,-3.13625 z m 24.15876,-0.15015 c 0.66235,-0.50904 0.77339,-0.77536 0.47477,-1.13868 -0.21438,-0.26083 -0.44468,-0.87112 -0.51178,-1.35619 -0.10092,-0.72955 -0.34097,-0.90028 -1.38932,-0.98812 -1.09128,-0.0914 -1.39758,0.0646 -2.20486,1.123 -1.0025,1.31433 -1.2152,2.51651 -0.49656,2.80649 1.05854,0.42713 3.30755,0.18385 4.12775,-0.4465 z m 24.292906,-5.2053 c 0.25466,-0.1019 0.558934,-0.0894 0.676159,0.0278 0.117224,0.11722 -0.09114,0.2006 -0.463021,0.18528 -0.410969,-0.0169 -0.494559,-0.10052 -0.213138,-0.21313 z M -145.57649,10.799437 c -0.88165,-0.644677 -1.89679,-3.8264607 -1.73658,-5.4429977 0.073,-0.736109 0.12112,-2.084475 0.10704,-2.996364 -0.0212,-1.37582301 0.11116,-1.73299901 0.77805,-2.09878301 1.09925,-0.602936 2.41552,-0.397535 3.33658,0.52067 1.00553,1.00240401 2.17803,4.56215801 2.0245,6.14646601 -0.13892,1.433495 -1.68286,3.9687957 -2.41691,3.9687957 -0.27242,0 -0.71129,0.08288 -0.97526,0.184174 -0.26397,0.101293 -0.76681,-0.02558 -1.11742,-0.281961 z m 42.16741,0.197679 c -0.91866,-0.174889 -1.98036,-2.2253677 -1.66341,-3.2125917 0.10444,-0.325307 0.65874,-0.904663 1.23177,-1.287455 0.57303,-0.382792 1.14195,-1.097167 1.26426,-1.5875 0.28597,-1.146408 1.17282,-2.126234 1.92448,-2.126234 0.905795,0 2.128286,1.520109 2.357267,2.931139 0.159738,0.984352 -0.0045,1.627289 -0.733248,2.870842 -0.834627,1.4241807 -2.493879,2.7497327 -3.275369,2.6166437 -0.15516,-0.02642 -0.65274,-0.118604 -1.10575,-0.204844 z m -26.43515,-1.8107517 c -0.94023,-0.269476 -2.1925,-2.028617 -2.19583,-3.084608 -0.004,-1.0942 1.32683,-4.7598 1.99551,-5.49868701 0.79955,-0.883492 2.00826,-0.803729 3.18597,0.210242 0.92863,0.79952801 0.98981,1.02391301 0.98981,3.63049601 0,2.726365 -0.0231,2.799267 -1.23472,3.899962 -1.28975,1.171649 -1.43589,1.216575 -2.74074,0.842595 z m 44.340887,-0.502398 c -2.610351,-1.759112 -3.729457,-5.214313 -1.778243,-5.490252 1.604955,-0.22697 3.173928,0.322675 4.388722,1.537469 1.511169,1.51117 1.875246,2.771853 1.129284,3.910341 -0.713804,1.089402 -2.161795,1.105835 -3.739763,0.04244 z m -10.604031,-3.399384 c -0.703386,-0.569563 -0.769426,-0.80561 -0.466443,-1.667147 0.416151,-1.183313 1.259911,-1.449675 2.05945,-0.650134 1.463368,1.463368 -0.0067,3.601805 -1.593007,2.317281 z M -178.85057,0.31853329 c -0.42388,-0.174692 -0.93632,-0.627111 -1.13877,-1.005375 -0.71097,-1.32846199 1.81618,-3.42343799 5.14131,-4.26208099 0.74484,-0.18786 1.95196,-0.49315 2.68249,-0.678423 1.08867,-0.276102 1.46845,-0.22332 2.10563,0.292634 l 0.77739,0.629493 -0.69452,1.357083 c -1.21974,2.38337399 -3.61931,3.87538199 -6.33895,3.94144499 -0.97014,0.02357 -2.1107,-0.100083 -2.53458,-0.274776 z"
         style="fill:#000080;stroke-width:0.352778" />
    </g>
  </g>
</svg>
