<?xml version="1.0" encoding="UTF-8" standalone="no"?>
<svg
   xmlns:dc="http://purl.org/dc/elements/1.1/"
   xmlns:cc="http://creativecommons.org/ns#"
   xmlns:rdf="http://www.w3.org/1999/02/22-rdf-syntax-ns#"
   xmlns:svg="http://www.w3.org/2000/svg"
   xmlns="http://www.w3.org/2000/svg"
   xmlns:sodipodi="http://sodipodi.sourceforge.net/DTD/sodipodi-0.dtd"
   xmlns:inkscape="http://www.inkscape.org/namespaces/inkscape"
   id="svg2"
   height="50"
   width="50"
   version="1.1"
   viewBox="0 0 37.499999 37.5"
   sodipodi:docname="fruta.svg"
   inkscape:version="1.0.1 (3bc2e813f5, 2020-09-07)">
  <metadata
     id="metadata9">
    <rdf:RDF>
      <cc:Work
         rdf:about="">
        <dc:format>image/svg+xml</dc:format>
        <dc:type
           rdf:resource="http://purl.org/dc/dcmitype/StillImage" />
        <dc:title></dc:title>
      </cc:Work>
    </rdf:RDF>
  </metadata>
  <defs
     id="defs7" />
  <sodipodi:namedview
     pagecolor="#ffffff"
     bordercolor="#666666"
     borderopacity="1"
     objecttolerance="10"
     gridtolerance="10"
     guidetolerance="10"
     inkscape:pageopacity="0"
     inkscape:pageshadow="2"
     inkscape:window-width="1366"
     inkscape:window-height="705"
     id="namedview5"
     showgrid="false"
     units="px"
     inkscape:showpageshadow="false"
     inkscape:zoom="4.3562753"
     inkscape:cx="115.40607"
     inkscape:cy="19.279113"
     inkscape:window-x="-8"
     inkscape:window-y="-8"
     inkscape:window-maximized="1"
     inkscape:current-layer="svg2" />
  <g
     id="g22"
     transform="scale(0.05479774,0.05085818)">
    <path
       id="path4"
       d="M 0,0 V 0.97461 C 0.2375,0.72461 0.72461,0.2375 0.97461,0 Z m 639.57,3.6758 c -9.61,4.3375 -13.96,14.587 -19.52,22.812 6.55,15.775 21.66,31.874 14.14,50.137 -8,16.087 -16.19,32.675 -14.95,51.315 -2.66,56.87 -33.99,105.87 -59.18,154.9 -1.76,10.62 -8.2,19.67 -18.62,23.32 -6.6,5.21 -15.4,8.38 -19.04,16.52 -0.1,6.3 6.8,9.36 9.32,14.68 13.87,-4.71 22.99,-17.59 36.69,-22.82 16.21,-27.47 38.19,-52.18 48.35,-82.88 18.15,2.36 17.4,30.5 35.53,34.81 59.67,25.45 133,17.83 187.74,-16.41 20.91,-10.56 18.46,-36.08 4.87,-51.22 -30.17,-35.21 -73.9,-71.29 -124.05,-56.73 -31.3,2.99 -58.88,18.79 -83.21,36.65 12.68,-31.12 19.39,-64.42 23.64,-97.66 0.3,-25.85 2.26,-60.412 -21.71,-77.424 z m 86.98,166.54 c 39.54,0.02 85.18,14.75 100.98,53.58 -5.08,8.63 -18.68,11.79 -28.35,13.65 -0.7,-8.16 1.31,-16.7 -0.69,-24.61 -13.09,-9.34 -37.63,1.77 -34.3,19.23 -3.43,16.83 18.5,5.18 25.87,10.14 -39.35,9.83 -82.46,9.54 -120.56,-5.39 -4.71,-3.71 -16.99,-5.55 -15.41,-12.78 30.05,-2.39 58.69,11.32 88.41,8.89 8.28,-8.63 6.01,-22.69 6.91,-33.88 -29.75,-0.77 -59.51,-0.07 -89.26,-0.24 8.29,-20.85 34.3,-25.97 54.36,-28.13 3.92,-0.31 7.95,-0.46 12.04,-0.46 z"
       fill="#029833"
       transform="scale(0.8)" />
    <path
       id="path8"
       d="M 349.91,202.36 C 248.92,203.01 147.48,241.34 80.9,318.4 18.588,391.71 -4.75,492.87 6.562,587.14 c 11.963,128.37 93.928,249.26 211.5,303.54 61.78,29.07 132.6,37.7 199.75,25.87 174.17,-29.97 314.41,-190.83 323.14,-366.91 3.64,-62.39 -18.05,-127.04 -63.52,-170.8 -28.1,-32.63 -65.66,-58.1 -109.02,-64.3 -13.7,5.23 -22.82,18.11 -36.69,22.82 -2.52,-5.32 -9.42,-8.38 -9.32,-14.68 -1.36,4.27 -5.14,6.46 -9.52,6.28 0.04,-4.42 6.07,-7.5 3.78,-12.15 -21.29,-5.32 -42.4,-11.31 -64.77,-9.42 -5.3,-7.59 1.75,-20.89 -7.59,-26.07 -15.24,3.97 -29.28,-1.56 -42.85,-7.77 -66.55,-16.4 -135,3.46 -200,18.14 -2.6,0.06 -17.17,3.65 -10.57,-2.07 45.98,-23.28 97.48,-32.53 147.92,-40.83 52.84,-6.69 110.35,1.06 155.79,30.37 11.59,7.16 24.01,26.94 39.26,17.55 4.22,0.08 6.57,5.68 7.59,9.45 10.42,-3.65 16.86,-12.7 18.62,-23.32 -20.38,-33.78 -57.52,-52.38 -93.91,-63.99 -37.27,-11.23 -76.72,-16.74 -116.24,-16.49 z m -49.88,92.49 c 36.67,-0.13 72.7,16.46 109.15,7.89 -1.07,12.37 -17.8,8.1 -26,10.44 -35.54,0.46 -69.38,12.29 -104.3,16.86 -3.77,-6.97 2.59,-17.6 -4.62,-22.55 -36.51,1.05 -71.28,15.76 -101.83,34.95 -30.73,18.96 -52.99,48.62 -83.43,67.85 -4.512,4.15 -22.525,7.76 -11.338,-2.59 55.358,-53.55 124.33,-99.26 201.93,-110.79 6.84,-1.44 13.65,-2.03 20.44,-2.06 z m 160.01,33.76 c 9.93,0.03 19.71,2.88 28.75,6.85 -8.9,0.68 -26.53,-0.02 -30.74,-6.82 0.66,-0.03 1.33,-0.04 1.99,-0.03 z m 59.97,13.87 c 10.07,-0.07 2.25,8.22 -1.04,0.03 0.37,-0.02 0.71,-0.03 1.04,-0.03 z m 29.68,5.31 c 31.04,-0.24 64.23,11.11 83.76,35.02 -23.53,0.8 -46.11,-16.6 -69.9,-22.63 -7.41,-3.72 -20.1,-3.89 -23.4,-11.94 3.15,-0.27 6.33,-0.42 9.54,-0.45 z m -124.18,6.67 c 24.18,0.22 47.71,8.76 72,9.66 -0.05,1.72 -0.14,5.14 -0.19,6.85 -83.66,-0.67 -167.31,12.69 -246.43,39.98 -4.08,-0.54 -14.19,6.56 -15.71,1.73 57.78,-31.89 122.46,-51.1 187.98,-58.22 0.78,-0.01 1.57,-0.01 2.35,0 z m -145.3,5.63 c 2.52,0.08 -0.21,4.52 -2.83,5.01 -79.17,33.89 -154.92,78.56 -215.79,140.24 -8.227,5.84 -13.865,15.02 -22.877,19.57 52.912,-82.52 139.43,-146.07 237.03,-163.13 2.2,-1.25 3.63,-1.71 4.47,-1.69 z m 218.73,31.02 c 27.72,0.47 55.48,-0.3 83.18,0.35 4.48,7.17 -0.06,21.34 8.83,26.32 3.45,-9.72 14.97,-11 23.06,-6.88 15.21,7.61 33.6,0.8 48.69,8.94 19.36,6.92 31.77,25.06 39.06,43.4 22.21,69.42 14.23,148.51 -19.91,212.55 -6.93,-4.53 -10,-20.73 -22.28,-21.88 -31.77,-4.59 -61.11,11.69 -91.52,17.89 -46.46,11.9 -92.96,23.68 -139.44,35.6 -85.15,15.35 -170.4,-6.11 -255.37,-10.91 -24.23,-0.29 -49.95,-1.54 -73.15,-3.88 13.02,-23.21 47.19,-20.74 70.66,-18.41 87.16,14.59 176.6,38.66 264.87,17.69 78,-17.75 156.3,-35.12 232.33,-60.19 12.69,-1.91 22.01,-12.39 25.69,-24.01 -4.1,-6.33 -12.54,-12.92 -20.44,-8.34 -16.94,9.39 -34.58,17.81 -53.29,23.09 -95.76,28.41 -194.96,47.52 -294.98,49.6 -37.42,1.03 -73.06,-11.43 -110.04,-14.26 -7.32,-1.59 5.85,-4.88 7.11,-4.67 22.32,-2.92 44.51,-8.77 67.12,-8.11 11.32,0.16 13.12,22.74 25.09,15.54 14.33,-6.72 29.19,-15.97 45.67,-13.34 12.84,12.15 31.85,1.08 47.11,-0.2 55.39,-14.49 118.14,-3.53 168.62,-33.96 -5.25,-13.24 -17.64,-26.24 -27.41,-37.36 -56.43,17 -116.02,27.71 -175.08,30.32 -56.81,-9.99 -111.05,11.99 -166.8,18.01 9.29,-10.14 25.24,-13.29 37.74,-18.72 126.83,-41.68 262.32,-43.45 394.38,-41.83 4.76,-10.6 -6.4,-23.6 -16.8,-27.61 -60.03,-24.29 -126.18,-28.02 -190.13,-23.11 -62.75,4.64 -125.74,13.21 -185.66,33.12 -48.49,15.35 -98.14,33.73 -135.85,69.13 -11.1,10.25 -22.587,20.1 -34.35,29.55 -2.312,1 -1.887,-1.06 -1.474,-2.58 15.762,-24.52 40.384,-41 63.074,-58.46 42.6,-39.95 97.8,-62.41 152.72,-79.79 75.18,-22.2 153.87,-33.55 232.23,-28.5 34.02,3.94 67.24,12.78 100.81,19.25 13.23,4.57 -9.1,20.89 -0.06,27.8 19.35,-3.09 37.79,8.72 57.26,4.68 2.55,-6.75 8.33,-12.82 8.38,-20.15 -16.81,-9.45 -36.6,-13.51 -55.75,-14.74 -2.93,-8.76 5.76,-15.35 5.15,-24.01 16.19,0.73 23.21,-14.69 20.19,-28.44 -7.49,-2.85 -15.84,-5.95 -23.83,-4.04 -1.44,10.08 -0.15,20.34 -0.61,30.5 -14.18,0.42 -22.65,-13.32 -36.28,-14.78 -74.7,-14.7 -151.32,-13.08 -227.1,-12.28 -21.32,2.06 -42.1,7.26 -62.89,12.21 1.23,-4.22 6.56,-5.49 10.08,-7.46 48.78,-19.36 102.21,-22.31 153.88,-27.6 24.43,-4.34 49.98,19.69 72.54,6.45 6.8,-29.34 -34.62,-19.65 -45.03,-31.49 z M 299.5,420.67 c 10.65,-0.07 -11.55,8.75 -16.71,10.83 -44.29,16.35 -81.18,46.43 -119.64,72.93 -40.41,21.11 -81.287,42.83 -117.97,69.26 18.283,-35.45 53.707,-58.35 86.17,-79.83 51.87,-31.82 107.39,-59.54 167.01,-73.16 0.42,-0.02 0.79,-0.03 1.14,-0.03 z m 159.57,114.74 c 14.93,1.29 30.54,-1.73 45.13,2.37 -30.91,3.07 -64.2,-3.54 -95.34,4.9 -12.02,-0.29 -26.77,6.45 -37.65,2.56 28.8,-6.61 58.4,-8.75 87.86,-9.83 z m 204.25,3.39 c -7.32,8 -6.44,22.26 -6.57,32.95 14.59,0.27 29.56,-5.33 44.31,-6.84 11.53,-0.75 4.24,-14.45 0.95,-20.65 -11.35,-7.32 -25.94,-4.4 -38.69,-5.46 z m -561.96,29.97 c 1.83,0.29 -0.03,4.69 -1.772,5.74 C 80.613,596.62 62.526,620.5 41.176,640.15 39.138,632.06 36.2,623.04 38.15,614.7 59.775,601.26 76.6,581.11 99.463,569.32 c 0.857,-0.46 1.477,-0.61 1.897,-0.55 z m 139.18,4.07 c 19.76,1.5 -21.1,9.2 0,0 z m -36.22,14.86 c 2.05,0.07 4.28,0.98 -0.36,1.99 -13.12,6.4 -26.31,12.94 -39.95,18.15 10.21,-10.1 25.44,-14.33 38.58,-19.91 0.38,-0.19 1.04,-0.26 1.73,-0.23 z m 470.83,97.76 c 5.4,1.74 -4.8,14.45 -6.62,19.3 -27.5,35.61 -66.49,60.91 -91.58,98.81 -10.21,3.42 -5.96,-15.21 -16.27,-10.51 -54.18,19.16 -114.42,22.12 -169.23,12.24 10.99,-3.57 21.55,-8.49 32.87,-11.02 88.8,-22.83 170.64,-65.64 250.83,-108.82 z m -611.11,3.16 c 12.125,5.88 -10.587,11.52 0,0 z m 458.17,30.02 c 1.66,0.11 2.1,2.9 -0.26,3.26 -48.85,23.88 -101.73,38.89 -155.07,48.69 -71.76,12.3 -149.2,-0.18 -209.38,-42.23 87.2,-1.07 176.35,21.95 264.75,12.54 33.94,-2.11 65.11,-17.35 98.64,-21.85 0.49,-0.32 0.94,-0.44 1.32,-0.41 z m -305.78,77.58 c 71.15,9.05 139.34,35.64 211.42,39.39 2.29,0.79 7.94,-0.95 8.19,1.94 -62.75,1.35 -127.44,1.51 -186.85,-21.75 -11.03,-4.77 -27.64,-8.41 -32.76,-19.58 z m 277.18,58.59 c 2.18,0.03 3.68,0.6 1.14,2.4 -36.61,20.53 -78.32,30.64 -119.82,35.26 -9.17,0.97 -0.34,-13.33 -9.15,-15.78 -19.97,-8.14 -42.49,-7.48 -62.93,-14.72 -12.35,-1.76 0.08,-2.52 3.93,-1.41 60.03,12.93 122.11,9.3 181.58,-4.91 0.2,-0.36 3.06,-0.87 5.25,-0.84 z"
       fill="#fd9833"
       transform="scale(0.8)" />
    <path
       style="fill:#000080;stroke-width:1.83643"
       d="M 347.31103,980.57277 C 252.59209,970.27719 165.28112,923.12607 102.62113,848.43123 50.203334,785.94575 17.922507,711.15239 8.4606152,630.26514 5.2783281,603.0606 4.9088498,556.54773 7.6730113,531.11536 13.279995,479.52687 32.017673,423.68465 58.181621,380.58907 109.81776,295.53734 201.89065,238.56053 316.0917,220.98842 c 26.31303,-4.04879 90.19691,-4.56126 114.77695,-0.92073 79.46895,11.77005 132.49925,36.64755 161.225,75.63365 l 4.76238,6.46342 -3.33733,7.45415 c -2.93126,6.54716 -11.35304,15.42942 -14.62953,15.42942 -0.63432,0 -1.97776,-1.85939 -2.98544,-4.13197 -1.52288,-3.43445 -3.06892,-4.04771 -9.15853,-3.63282 -11.12515,0.75796 -14.22685,-0.54761 -27.82869,-11.71368 -33.26719,-27.30981 -84.38521,-42.96019 -140.31857,-42.96019 -39.1066,0 -101.96083,11.46117 -150.76698,27.49166 -24.77335,8.13686 -46.81717,18.28567 -45.99068,21.17376 0.80931,2.82807 11.09252,1.26406 49.97632,-7.60106 61.54085,-14.03071 76.92223,-16.12539 118.44982,-16.13089 38.64971,-0.005 45.82537,1.02829 69.78439,10.04996 7.4827,2.81759 14.98373,4.14304 23.37488,4.13041 13.92419,-0.021 13.82831,-0.12246 15.89771,16.83103 l 1.12889,9.24843 17.4461,1.1768 c 14.14015,0.9538 50.49997,7.75053 52.93282,9.89471 0.32697,0.28819 -0.78146,3.18483 -2.46323,6.43697 l -3.05773,5.913 5.9511,-0.87343 c 4.9079,-0.72033 6.83171,0.11217 10.97485,4.74913 4.70157,5.26197 5.3612,5.46891 10.28535,3.22667 2.89389,-1.31775 10.63316,-6.32387 17.1984,-11.12473 6.56524,-4.80085 13.37069,-9.23959 15.1232,-9.86386 9.51343,-3.38883 51.28963,13.1372 75.47574,29.85703 16.12151,11.1448 48.98074,43.84389 63.37666,63.06779 36.83409,49.1872 51.62443,109.78368 43.62008,178.71288 -10.63714,91.6017 -51.71742,176.75704 -118.416,245.46465 -25.58836,26.35911 -42.35402,40.58607 -69.17658,58.70171 -49.96831,33.748 -99.61178,53.91358 -156.9176,63.74119 -26.37809,4.52368 -71.70693,6.2749 -95.49442,3.68929 z m 91.82156,-34.1257 c 40.53558,-8.01711 95.14491,-29.1931 89.59538,-34.74263 -0.7162,-0.71621 -11.87122,0.85155 -24.78893,3.48389 -39.54608,8.05863 -54.26414,9.46543 -96.944,9.26621 -32.74252,-0.15279 -44.52666,-0.93612 -62.16204,-4.13197 -23.60306,-4.27729 -30.48207,-4.86087 -27.73127,-2.35262 2.19463,2.00113 19.72702,6.32783 45.78921,11.30001 24.94506,4.75907 28.93406,6.58116 30.4255,13.89778 2.40967,11.82131 2.569,11.83271 45.81615,3.27933 z m 26.77658,-53.70149 c -0.54266,-0.87805 -8.64878,-2.17997 -18.01359,-2.89319 -26.27951,-2.00141 -63.60224,-8.84401 -119.99466,-21.99934 -43.18588,-10.07448 -89.64487,-19.42182 -96.53217,-19.42182 -3.23199,0 2.29058,7.52547 8.16914,11.13189 9.50928,5.83385 41.15955,17.45761 61.44631,22.56658 17.47969,4.40206 48.7745,9.40451 68.364,10.92796 18.44369,1.43433 97.48244,1.17888 96.56097,-0.31208 z m 69.30203,-30.77104 c 11.29413,-1.64151 30.74076,-5.77348 43.21474,-9.18216 12.47399,-3.40867 23.32344,-6.19758 24.10991,-6.19758 0.78647,0 2.45687,2.47918 3.71198,5.50929 3.31595,8.00541 9.54867,7.42987 14.91562,-1.37732 2.30812,-3.78764 23.70477,-26.72008 47.54807,-50.96097 41.27976,-41.96809 53.23148,-56.65745 53.23148,-65.42461 0,-1.89286 -0.80889,-3.44156 -1.79754,-3.44156 -0.98864,0 -15.24394,7.17763 -31.67844,15.95028 -87.86967,46.90442 -158.9819,77.52319 -221.04266,95.17423 -37.08844,10.54851 -51.3684,15.77975 -48.08727,17.61597 9.70945,5.43366 84.22197,6.93482 115.87411,2.33443 z M 391.38538,822.55497 c 29.13426,-4.94334 69.79549,-15.12975 98.24907,-24.61324 32.03188,-10.67615 68.86617,-26.53899 68.86617,-29.6575 0,-1.37083 -0.77237,-2.49241 -1.71637,-2.49241 -4.06429,0 -28.74573,5.80626 -49.84456,11.72584 -43.34229,12.16027 -50.36266,12.99506 -108.20859,12.8668 -45.75033,-0.10137 -59.27298,-0.85884 -107.43122,-6.01721 -30.33113,-3.24887 -70.77542,-6.34493 -89.98513,-6.88849 l -34.8922,-0.98732 8.26394,5.77326 c 13.01525,9.09258 38.12356,21.24617 58.66175,28.39505 48.7136,16.9561 103.78163,21.10098 158.03714,11.89522 z m 53.2565,-64.92924 c 11.94452,-1.89549 176.85849,-43.93546 202.92565,-51.72994 15.43315,-4.61473 27.11126,-6.8827 38.96902,-7.56802 19.83897,-1.14662 22.68468,0.09 32.88731,14.29132 3.59509,5.00411 7.20793,9.09838 8.02852,9.09838 2.12048,0 17.18402,-36.54762 22.70726,-55.09293 14.65731,-49.2148 16.06506,-107.48129 3.76821,-155.9648 -5.66396,-22.33158 -11.54477,-34.29326 -23.04745,-46.87904 -12.90833,-14.12377 -24.5838,-19.24307 -49.05924,-21.51076 -10.67745,-0.98929 -22.23369,-2.97704 -25.68052,-4.41723 -10.44166,-4.36279 -20.83523,-2.54448 -24.88814,4.35407 -1.34851,2.29536 -2.03753,2.01659 -4.06689,-1.6454 -1.34383,-2.42494 -2.48389,-6.88815 -2.53347,-9.91826 -0.0496,-3.03011 -0.58845,-7.36868 -1.19748,-9.64126 l -1.10731,-4.13197 -46.15571,0.0584 c -40.1523,0.0509 -45.71033,0.39573 -42.73157,2.65182 1.88326,1.42638 11.07032,4.33528 20.41566,6.46424 17.96047,4.09153 23.93702,7.76458 25.99847,15.97804 0.93752,3.73535 0.26274,5.62302 -2.93587,8.2131 -6.09024,4.93157 -17.77217,4.23922 -41.22033,-2.44298 l -20.37351,-5.80603 -33.97398,3.12232 c -76.86675,7.06431 -136.60938,19.9646 -150.97118,32.59934 l -4.20726,3.70131 6.42751,-0.9505 c 3.53513,-0.52278 16.34424,-3.16249 28.46468,-5.86604 19.92688,-4.44483 26.63514,-5.00066 70.05255,-5.80436 52.51447,-0.97209 121.34211,1.64912 156.97039,5.97803 40.04086,4.86505 52.79995,7.85282 67.03214,15.69675 7.19461,3.96524 14.83875,7.20953 16.98699,7.20953 4.02482,0 4.69421,-2.26865 3.95327,-13.39816 -0.188,-2.82382 0.22663,-8.49886 0.92141,-12.61118 1.24694,-7.38065 1.34937,-7.46476 7.95204,-6.52934 3.67887,0.52122 9.06668,1.87724 11.97294,3.01342 5.00522,1.95674 5.23284,2.52076 4.31253,10.68576 -0.74754,6.63217 -2.29038,9.79831 -6.69041,13.72974 -3.14535,2.81037 -7.56516,5.11575 -9.82182,5.12306 -3.32714,0.011 -4.71069,1.86392 -7.31675,9.80022 -4.9178,14.97628 -4.44517,17.3747 3.67286,18.63927 29.3226,4.5677 51.87919,11.82257 51.87919,16.68594 0,1.38063 -1.81746,6.25112 -4.03881,10.8233 -3.92121,8.07104 -4.2821,8.31119 -12.39591,8.24855 -4.59641,-0.0355 -13.72867,-1.24604 -20.29391,-2.69013 -6.56524,-1.4441 -16.3013,-2.65465 -21.63569,-2.69013 -11.88702,-0.0792 -13.08156,-2.20627 -7.86342,-14.00274 5.10692,-11.54505 3.8216,-14.73956 -6.85137,-17.02825 -4.75315,-1.01924 -27.64915,-5.82687 -50.88,-10.6836 l -42.23792,-8.83045 -52.33829,0.0973 c -38.37221,0.0714 -58.57358,0.92983 -75.70522,3.21688 -122.15697,16.30789 -222.03032,52.93878 -283.31708,103.91321 -8.0803,6.72068 -18.41023,15.04423 -22.9554,18.49678 -20.95974,15.92123 -39.231672,32.57022 -46.811558,42.6537 -4.554755,6.05923 -8.281374,11.76124 -8.281374,12.67119 0,4.27779 6.271633,0.0567 26.628252,-17.9218 30.7338,-27.14347 47.02109,-38.93201 70.07305,-50.71807 87.06982,-44.51718 214.81106,-71.84844 335.77825,-71.84245 41.45138,0.002 61.61989,1.78361 93.58175,8.26642 23.36436,4.73898 55.6109,15.14613 63.58889,20.5225 7.70781,5.19429 14.86358,15.5763 14.1537,20.53503 -0.5285,3.69191 -1.79424,3.76222 -87.76672,4.87606 -98.31331,1.27371 -144.81174,4.38442 -203.84386,13.63704 C 315.32771,625.99529 233.48538,649.72509 221.355,663.129 l -3.48843,3.85469 9.17019,-1.28551 c 5.04359,-0.707 25.69806,-4.46039 45.8988,-8.34083 20.20075,-3.88045 42.51339,-8.0726 49.58365,-9.31588 7.7749,-1.36721 33.17549,-2.38079 64.27509,-2.56482 42.40439,-0.25093 56.24991,-1.01677 78.96654,-4.36797 31.74883,-4.68363 78.99161,-14.53175 102.5839,-21.38438 8.9494,-2.59945 16.45611,-4.47323 16.6816,-4.16394 0.22548,0.30927 5.05294,6.1049 10.7277,12.87917 11.0295,13.16655 16.74991,22.63591 15.19454,25.15253 -1.97594,3.19716 -22.45617,11.60768 -38.54039,15.82725 -18.83066,4.94007 -32.27802,6.832 -78.18266,10.99971 -17.67565,1.60476 -42.05428,4.99149 -54.17472,7.52606 -43.11381,9.01572 -42.19084,8.93635 -50.93234,4.38 -10.50567,-5.47585 -20.8875,-4.11787 -41.65518,5.44865 -8.85439,4.07872 -16.9267,7.41586 -17.93848,7.41586 -1.01177,0 -5.32371,-4.13197 -9.5821,-9.18216 -7.26766,-8.61903 -8.27077,-9.18142 -16.35625,-9.17012 -8.72051,0.0128 -50.05595,5.68638 -67.94117,9.32644 -5.80854,1.18217 -9.46181,2.82904 -9.0456,4.07769 0.38401,1.15203 8.07429,3.05743 17.08953,4.23424 9.01523,1.1768 28.37404,4.25325 43.01958,6.83654 36.98003,6.52283 54.57618,7.48222 92.73977,5.05643 74.59887,-4.74174 141.21611,-15.11857 214.86246,-33.46871 62.46066,-15.56303 94.34294,-26.10488 116.12645,-38.39711 11.67825,-6.58991 17.04594,-6.80861 23.79903,-0.96965 l 5.15259,4.45512 -3.45014,6.46542 c -7.27633,13.63555 -11.86052,15.7119 -75.51641,34.20378 -51.69502,15.01731 -175.66096,45.0062 -216.69888,52.42215 -22.83786,4.12703 -70.70409,5.48762 -99.42894,2.82628 -30.68176,-2.84265 -49.42805,-5.62936 -111.76065,-16.61366 -28.28104,-4.98372 -57.61803,-9.57983 -65.19331,-10.21362 -16.14594,-1.35083 -36.09646,1.46835 -45.94428,6.49233 -6.4806,3.30617 -14.65795,11.52421 -14.65795,14.7309 0,1.78582 18.86816,3.33485 66.11152,5.42759 20.70576,0.9172 64.09145,4.66229 96.41264,8.32243 79.93614,9.05216 141.19247,10.99897 175.37918,5.57383 z M 72.76456,738.24535 c 0,-3.98272 -7.164577,-3.43409 -7.943059,0.60825 -0.502225,2.60784 0.316762,3.22631 3.647713,2.75464 2.36244,-0.33454 4.295346,-1.84783 4.295346,-3.36289 z M 58.312496,669.83829 c 16.082121,-16.93564 52.098904,-59.87814 52.098904,-62.11707 0,-5.6973 -15.006945,3.31107 -41.319702,24.8034 -10.100372,8.25 -21.050093,16.87458 -24.332714,19.16573 -3.898094,2.72071 -5.968402,5.68351 -5.968402,8.54133 0,6.81909 3.813133,22.92074 5.428003,22.92074 0.797934,0 7.140195,-5.99136 14.093911,-13.31413 z M 199.52968,638.61896 c 19.63657,-8.99861 24.70586,-12.39591 18.49652,-12.39591 -4.65767,0 -33.12736,12.77335 -38.74863,17.38514 -8.48689,6.96283 -2.7399,5.54702 20.25211,-4.98923 z m 63.04918,-24.38245 c 0.51132,-0.51133 -0.0257,-1.88518 -1.1936,-3.05299 -2.52464,-2.52463 -11.40509,0.75433 -11.40509,4.21112 0,2.01754 10.37691,1.06364 12.59869,-1.15813 z M 85.121917,588.80683 c 10.836694,-6.67936 36.072853,-21.09898 56.080363,-32.0436 20.0075,-10.94461 48.74204,-28.63576 63.85454,-39.31364 41.62874,-29.41322 67.81366,-44.87125 92.47533,-54.59197 23.57356,-9.29183 31.51708,-14.7684 21.42085,-14.7684 -6.66597,0 -44.8929,11.89747 -68.97283,21.46659 -67.1492,26.68445 -151.488196,78.44417 -180.625312,110.85166 -9.295104,10.33839 -21.382119,27.93724 -21.382119,31.13265 0,1.17739 3.925371,-0.72346 8.723048,-4.22412 4.797676,-3.50068 17.589435,-11.8298 28.42613,-18.50917 z m 338.561013,-7.60171 c 10.01237,-1.52899 23.57587,-3.5786 30.14111,-4.5547 6.56524,-0.97608 28.46468,-1.80372 48.66543,-1.83918 24.40474,-0.0428 35.80433,-0.66183 33.97397,-1.8447 -3.66674,-2.36964 -66.24901,-2.33184 -90.24966,0.0545 -27.52802,2.73706 -52.09017,7.40672 -49.05947,9.327 3.3951,2.15118 5.57222,2.05737 26.52862,-1.1429 z M 55.936522,549.51478 c 6.225309,-5.8282 18.397252,-17.27 27.04876,-25.42618 47.437828,-44.72189 113.987128,-88.1419 186.277418,-121.53647 16.1606,-7.4654 30.1542,-14.30851 31.0969,-15.2069 4.33825,-4.13439 -2.58373,-3.6852 -24.48709,1.58904 -70.57379,16.9939 -133.56556,53.76927 -186.810306,109.06215 -14.797641,15.36686 -41.451623,48.82472 -46.682996,58.59964 -3.558785,6.64965 1.982214,3.75547 13.557314,-7.08128 z M 103.60775,432.80469 c 6.2671,-4.47852 22.55105,-18.20817 36.18655,-30.51035 13.6355,-12.30217 32.14005,-27.31991 41.12122,-33.37275 29.87651,-20.13521 63.80517,-33.94641 94.37295,-38.41601 18.84059,-2.75486 20.60248,-1.71037 20.60248,12.21371 0,8.19196 0.54787,9.87058 3.21376,9.84662 1.76756,-0.016 19.74163,-3.32483 39.94238,-7.3532 20.20074,-4.02837 46.64535,-8.18561 58.7658,-9.2383 29.54224,-2.56583 33.38169,-3.25042 36.66958,-6.53832 5.86687,-5.86686 3.52059,-7.61962 -7.74579,-5.78644 -12.88207,2.09607 -26.71789,0.96859 -64.31748,-5.24124 -43.56435,-7.19495 -69.4661,-5.01497 -114.1616,9.60822 -53.18891,17.402 -109.63795,52.72068 -158.566299,99.21077 -6.850887,6.50948 -11.91079,12.71785 -11.244228,13.79637 2.281658,3.6918 13.723183,-0.0457 25.160677,-8.21908 z m 176.72404,2.33717 c 79.4484,-24.80539 161.76162,-38.47272 231.70692,-38.47272 18.44273,0 18.91544,-0.10421 18.91544,-4.1699 0,-3.93878 -1.45054,-4.40893 -26.16914,-8.482 -14.39303,-2.37164 -31.89174,-4.96051 -38.88603,-5.75304 -28.13042,-3.18748 -103.17567,12.57869 -153.83952,32.31997 -23.37003,9.10618 -62.07929,27.9114 -62.07929,30.15853 0,3.1437 5.73156,2.08606 30.35162,-5.60084 z m 395.70043,-27.28395 c 0,-3.67826 -19.67294,-19.02589 -31.96834,-24.93973 -17.19272,-8.26937 -33.28583,-11.89866 -52.90898,-11.93193 -12.83656,-0.0218 -15.81905,0.4734 -15.04237,2.49738 1.03024,2.68476 9.80628,6.86648 21.87136,10.42153 4.04015,1.19046 17.26245,6.33228 29.3829,11.42628 29.93262,12.58012 48.66543,17.40194 48.66543,12.52647 z M 560.33705,367.48272 c 0,-1.86157 -5.59338,-4.3974 -6.87424,-3.11653 -0.4616,0.4616 -0.29454,1.72064 0.37122,2.79788 1.46512,2.37061 6.50302,2.61748 6.50302,0.31865 z M 521.772,357.33346 c 0,-1.27118 -16.869,-6.16829 -25.42023,-7.37955 -8.93193,-1.2652 -9.95939,1.75695 -1.98122,5.82757 4.0358,2.05914 27.40145,3.38254 27.40145,1.55198 z"
       id="path11"
       transform="scale(0.74999999)" />
    <path
       style="fill:#000080;stroke-width:1.83643"
       d="m 563.43528,352.95341 c -2.71406,-2.83286 -4.93466,-6.52557 -4.93466,-8.206 0,-3.00543 14.21709,-14.4091 24.56005,-19.69985 5.21708,-2.66872 14.00501,-13.67488 14.00501,-17.54014 0,-1.09826 10.61447,-23.01247 23.58773,-48.69823 29.87962,-59.1587 40.41388,-91.26206 40.63353,-123.83149 0.0913,-13.5381 2.03355,-20.83975 11.45659,-43.069817 8.9269,-21.059617 8.67988,-26.153545 -2.33022,-48.05154 l -7.53657,-14.989493 3.36399,-6.25189 c 1.85019,-3.438538 6.10269,-8.900587 9.45001,-12.137885 l 6.08603,-5.8859969 7.08494,7.5802519 c 13.81174,14.777318 19.28748,48.858466 13.82992,86.077741 -3.64675,24.869939 -10.7943,55.522859 -17.73351,76.051769 -2.87849,8.51572 -4.89828,15.81848 -4.48841,16.22835 0.40987,0.40987 5.13212,-2.27244 10.49389,-5.96069 26.34102,-18.11943 46.45016,-26.45354 78.06818,-32.35487 19.37602,-3.61642 23.39194,-3.82996 36.4194,-1.93657 27.53165,4.00142 52.77652,19.18136 81.91668,49.25718 19.96741,20.60854 24.84673,29.83754 23.25254,43.98113 -1.26098,11.18738 -5.66125,16.73435 -19.89174,25.07544 -51.68649,30.29568 -115.72687,38.60614 -171.94883,22.31367 -26.49882,-7.67907 -31.58246,-10.89973 -40.31365,-25.54017 -6.5754,-11.0256 -14.80144,-19.23832 -19.30412,-19.27287 -0.69327,-0.006 -4.93099,7.63449 -9.41714,16.97733 -4.48616,9.34285 -16.14349,28.96971 -25.90518,43.61524 -14.17245,21.26305 -19.67531,27.9472 -27.31148,33.17433 -5.25963,3.60034 -13.40158,9.1785 -18.09323,12.39591 -4.69164,3.21741 -8.8756,5.84984 -9.29768,5.84984 -0.42208,0 -2.98801,-2.3178 -5.70207,-5.15068 z M 815.009,264.33751 c 7.90088,-1.06978 17.6708,-2.82755 21.71095,-3.90618 6.19812,-1.65476 6.77191,-2.18319 3.67286,-3.38251 -2.02007,-0.78175 -7.17352,-0.9792 -11.45209,-0.43879 -9.86054,1.24543 -13.33973,-1.49455 -13.33973,-10.50546 0,-8.30832 5.49925,-15.96657 14.02259,-19.52785 15.1821,-6.34349 22.70604,-1.02956 22.70604,16.03658 v 11.22296 l 6.8012,-1.27591 c 8.01051,-1.50277 19.10533,-6.88087 22.41036,-10.86319 5.43609,-6.55009 -15.03534,-32.39241 -34.72086,-43.83023 -35.47129,-20.6098 -96.28308,-22.5922 -127.72872,-4.16382 -7.30265,4.27964 -15.48514,13.74945 -15.50605,17.94559 -0.004,0.75753 21.5024,1.37732 47.79149,1.37732 h 47.79836 l -1.22103,12.39591 c -0.67158,6.81775 -2.36859,14.6685 -3.77116,17.4461 -2.2022,4.36114 -3.6559,5.05019 -10.65437,5.05019 -4.45731,0 -20.10784,-2.06599 -34.77892,-4.59108 -26.89421,-4.62886 -52.51696,-6.03683 -52.51696,-2.88583 0,4.69365 13.60354,12.30202 32.13755,17.97435 23.77216,7.27546 58.90537,9.67685 86.63849,5.92185 z"
       id="path13"
       transform="scale(0.74999999)" />
    <path
       style="fill:#000080;stroke-width:1.83643"
       d="m 701.74226,599.77787 c 0,-5.61502 1.25281,-13.34021 2.78403,-17.1671 l 2.78403,-6.95799 14.20296,0.61523 c 7.81162,0.33837 16.90311,1.45559 20.20329,2.4827 10.33294,3.21591 16.03851,20.77922 7.31379,22.51382 -2.27258,0.45183 -11.56952,2.15212 -20.65985,3.77843 -9.09034,1.62632 -18.80047,3.40403 -21.57807,3.95048 -5.02282,0.98817 -5.05018,0.93823 -5.05018,-9.21557 z"
       id="path15"
       transform="scale(0.74999999)" />
  </g>
</svg>
