<?xml version="1.0" encoding="UTF-8" standalone="no"?>
<svg
   xmlns:dc="http://purl.org/dc/elements/1.1/"
   xmlns:cc="http://creativecommons.org/ns#"
   xmlns:rdf="http://www.w3.org/1999/02/22-rdf-syntax-ns#"
   xmlns:svg="http://www.w3.org/2000/svg"
   xmlns="http://www.w3.org/2000/svg"
   xmlns:sodipodi="http://sodipodi.sourceforge.net/DTD/sodipodi-0.dtd"
   xmlns:inkscape="http://www.inkscape.org/namespaces/inkscape"
   id="0"
   sodipodi:docname="hora-i-mitja.svg"
   viewBox="0 0 49.999998 49.999999"
   version="1.0"
   inkscape:version="1.0.1 (3bc2e813f5, 2020-09-07)"
   width="50"
   height="50">
  <defs
     id="defs22" />
  <sodipodi:namedview
     id="namedview20"
     bordercolor="#666666"
     inkscape:pageshadow="2"
     guidetolerance="10"
     pagecolor="#ffffff"
     gridtolerance="10"
     inkscape:window-maximized="0"
     inkscape:zoom="8.9461982"
     objecttolerance="10"
     borderopacity="1"
     inkscape:current-layer="0"
     inkscape:cx="28.70396"
     inkscape:cy="28.470075"
     inkscape:window-y="0"
     inkscape:window-x="0"
     inkscape:window-width="1350"
     showgrid="false"
     inkscape:pageopacity="0"
     inkscape:window-height="729"
     inkscape:document-rotation="0"
     inkscape:showpageshadow="false"
     showborder="true" />
  <metadata
     id="metadata20">
    <rdf:RDF>
      <cc:Work>
        <dc:format>image/svg+xml</dc:format>
        <dc:type
           rdf:resource="http://purl.org/dc/dcmitype/StillImage" />
        <cc:license
           rdf:resource="http://creativecommons.org/publicdomain/zero/1.0/" />
        <dc:publisher>
          <cc:Agent
             rdf:about="http://openclipart.org/">
            <dc:title>Openclipart</dc:title>
          </cc:Agent>
        </dc:publisher>
        <dc:title></dc:title>
        <dc:date>2010-04-16T13:19:10</dc:date>
        <dc:description>Clock - Horloge - Uhr - Orologio</dc:description>
        <dc:source>https://openclipart.org/detail/48427/clock-by-palomaironique</dc:source>
        <dc:creator>
          <cc:Agent>
            <dc:title>palomaironique</dc:title>
          </cc:Agent>
        </dc:creator>
        <dc:subject>
          <rdf:Bag>
            <rdf:li>Stunde</rdf:li>
            <rdf:li>Uhr</rdf:li>
            <rdf:li>Zeit</rdf:li>
            <rdf:li>clock</rdf:li>
            <rdf:li>heure</rdf:li>
            <rdf:li>horloge</rdf:li>
            <rdf:li>hour</rdf:li>
            <rdf:li>ora</rdf:li>
            <rdf:li>orologio</rdf:li>
            <rdf:li>tempo</rdf:li>
            <rdf:li>temps</rdf:li>
            <rdf:li>time</rdf:li>
          </rdf:Bag>
        </dc:subject>
      </cc:Work>
      <cc:License
         rdf:about="http://creativecommons.org/publicdomain/zero/1.0/">
        <cc:permits
           rdf:resource="http://creativecommons.org/ns#Reproduction" />
        <cc:permits
           rdf:resource="http://creativecommons.org/ns#Distribution" />
        <cc:permits
           rdf:resource="http://creativecommons.org/ns#DerivativeWorks" />
      </cc:License>
    </rdf:RDF>
  </metadata>
  <path
     id="path22"
     style="fill:#000080;stroke-width:0.163824"
     d="M 24.824219,0.00195313 C 23.075767,0.0170642 21.322819,0.15207603 20.148438,0.40234375 10.029613,2.5587266 2.6135009,9.9736476 0.359375,20.189453 0.06267474,21.534125 0.00259145,22.331462 0,24.996094 c -0.00372132,3.614269 0.24069178,5.155082 1.3007812,8.199218 3.1148138,8.944463 11.0096258,15.352823 20.5664068,16.69336 1.735437,0.24343 6.233962,0.06515 8.042968,-0.31836 3.238121,-0.686489 6.210668,-1.935337 8.91211,-3.74414 9.060421,-6.066583 13.1743,-17.135199 10.24414,-27.564453 C 46.491658,9.097475 38.981642,2.2237199 29.46875,0.32226562 28.317239,0.0920997 26.572671,-0.01315797 24.824219,0.00195313 Z m 0.08008,3.72070307 c 0.374772,-4.39e-4 0.751221,0.0082 1.128906,0.027344 9.805022,0.496861 17.775512,7.449456 19.851563,17.314453 0.396845,1.88554 0.398785,5.909486 0.0039,7.896485 -0.86256,4.340467 -2.816768,7.966243 -5.988281,11.111328 -3.068911,3.043336 -6.467251,4.891003 -10.671875,5.800781 -2.709405,0.586249 -6.917437,0.450771 -9.832032,-0.316406 C 13.69189,44.055079 8.3946574,39.656114 5.7988281,34.265625 1.8457892,26.056773 3.4891216,16.449276 9.953125,9.9882812 14.01636,5.9269372 19.282721,3.7292419 24.904297,3.7226562 Z" />
  <path
     style="fill:#000080;stroke-width:0.163824"
     d="m 15.89528,11.225596 c -0.872114,-0.685687 -0.400713,-1.9535459 0.726347,-1.9535459 0.968326,0 1.335712,1.3282099 0.540356,1.9535459 -0.237465,0.186702 -0.522473,0.339459 -0.633351,0.339459 -0.110879,0 -0.395887,-0.152757 -0.633352,-0.339459 z"
     id="path24" />
  <path
     style="fill:#000080;stroke-width:0.163824"
     d="M 24.252262,8.9325898 C 23.965963,8.7074925 23.820508,8.435604 23.820508,8.1255472 c 0,-0.5182746 0.644711,-1.146503 1.176583,-1.146503 0.417613,0 1.11749,0.7180471 1.11749,1.146503 0,0.4284558 -0.699877,1.1465029 -1.11749,1.1465029 -0.172191,0 -0.507364,-0.1527571 -0.744829,-0.3394603 z"
     id="path26" />
  <path
     id="path28"
     style="fill:#000080;stroke-width:0.163824"
     d="m 25.06753,39.489986 c 0.2186,-0.009 0.440521,-0.09058 0.566406,-0.242187 0.164383,-0.197982 0.188781,-1.632165 0.119141,-6.777344 l -0.08594,-6.345703 c -0.0118,-9.8e-5 -0.02415,0.0022 -0.03516,-0.002 -0.01394,-0.0053 -3.03e-4,-0.0262 0.0098,-0.04297 h -0.002 c -0.0052,-0.01153 -0.0038,-0.02422 -0.0039,-0.03906 6.97e-4,-0.01976 1.64e-4,-0.03881 0,-0.05859 -7.4e-5,-0.01999 0,-0.04056 0,-0.06055 -1.2e-5,-0.01976 0,-0.03883 0,-0.05859 2e-6,-0.01976 1e-6,-0.04079 0,-0.06055 v -0.07813 -0.05859 -0.06055 -0.05859 -0.06055 -0.05859 -0.05859 -0.06055 -0.05859 -0.05859 -0.06055 -0.107422 -0.01758 c -0.01243,-0.01146 -0.02554,-0.02148 -0.0332,-0.04102 -0.0012,-0.0031 -8.52e-4,-0.0066 -0.002,-0.0098 0,0 -0.002,0 -0.002,0 -0.03721,-0.01906 -0.02681,-0.0719 -0.02344,-0.107422 -0.0018,-0.0014 -0.0042,-0.0023 -0.0059,-0.0039 -0.01076,-0.01 -0.0049,-0.02641 -0.0039,-0.04102 -0.03259,-0.03737 -0.06851,-0.07029 -0.0957,-0.115234 -0.01803,-0.0086 0.03929,0.02244 0.05273,0.03125 -0.01745,-0.01151 -0.03493,-0.02196 -0.05273,-0.0332 -0.01459,-0.02423 -0.02625,-0.05321 -0.03906,-0.08008 -0.10904,-0.07988 -0.218436,-0.15925 -0.328125,-0.238282 -0.009,4.15e-4 -0.01496,-4.46e-4 -0.02539,0 -0.0057,-9e-5 -0.003,-0.0019 -0.0078,-0.002 h -0.05469 -0.03125 c -0.01845,0.0026 -0.03625,0.0052 -0.05469,0.0078 -0.02629,0.0038 -0.03725,-0.0084 -0.05664,-0.01172 -0.183302,0.11491 -0.427099,0.26359 -0.453125,0.292969 -0.295801,0.333896 -0.30383,0.636535 -0.191407,7.390625 0.0742,4.4578 0.179308,7.118214 0.28711,7.248047 0.117568,0.141596 0.334134,0.206259 0.552734,0.197265 z M 36.782374,19.144283 c 0.03881,-0.01997 0.07648,-0.04436 0.113281,-0.07031 3.95e-4,-0.0026 0.0016,-0.0052 0.002,-0.0078 -0.09183,-0.01459 -0.183644,-0.0239 -0.27539,-0.03711 0.04946,0.04377 0.10649,0.07747 0.160156,0.115234 z" />
  <path
     style="fill:#000080;stroke-width:0.163824"
     d="M 32.669076,11.073697 C 32.19355,10.598392 32.283515,9.8177351 32.863468,9.3868916 33.246677,9.1022088 33.366815,9.0860312 33.79162,9.2619093 c 0.277647,0.1149518 0.575083,0.4122486 0.690088,0.6897668 0.17596,0.4246069 0.159775,0.5446889 -0.125041,0.9277199 -0.431044,0.579683 -1.212064,0.669606 -1.687591,0.194301 z"
     id="path30" />
  <path
     style="fill:#000080;stroke-width:0.163824"
     d="m 38.895847,17.297569 c -0.471517,-0.471297 -0.424213,-1.210651 0.10403,-1.625973 0.532894,-0.41898 0.896279,-0.428832 1.379888,-0.03741 0.507376,0.410657 0.507376,1.278251 0,1.688908 -0.486555,0.393806 -1.074512,0.383693 -1.483918,-0.02552 z"
     id="path32" />
  <path
     style="fill:#000080;stroke-width:0.163824"
     d="m 41.189921,25.814447 c -0.676723,-0.676408 -0.193114,-1.965433 0.73738,-1.965433 0.930494,0 1.414104,1.289025 0.737381,1.965433 -0.180249,0.180165 -0.51207,0.327572 -0.737381,0.327572 -0.225311,0 -0.557132,-0.147407 -0.73738,-0.327572 z"
     id="path34" />
  <path
     style="fill:#000080;stroke-width:0.163824"
     d="m 38.920988,34.372271 c -0.563687,-0.476752 -0.6151,-1.104013 -0.130215,-1.588672 0.519553,-0.519311 1.086224,-0.533424 1.551272,-0.03863 0.488614,0.519863 0.458175,1.154903 -0.07547,1.57447 -0.527465,0.414711 -0.900414,0.429356 -1.345591,0.05284 z"
     id="path36" />
  <path
     style="fill:#000080;stroke-width:0.163824"
     d="m 32.885568,40.688071 c -0.196365,-0.09489 -0.446905,-0.389411 -0.556755,-0.654491 -0.173069,-0.41763 -0.15606,-0.540691 0.127434,-0.921943 0.426939,-0.574162 1.212073,-0.669598 1.677929,-0.203958 0.480663,0.480439 0.438171,1.21693 -0.09437,1.63563 -0.479469,0.376975 -0.63368,0.396315 -1.154241,0.144762 z"
     id="path38" />
  <path
     style="fill:#000080;stroke-width:0.163824"
     d="m 24.157894,42.694073 c -0.903362,-0.902942 0.167268,-2.315537 1.308073,-1.725878 0.639115,0.330346 0.789859,0.957045 0.366998,1.525747 -0.424085,0.570347 -1.210662,0.664324 -1.675071,0.200131 z"
     id="path40" />
  <path
     style="fill:#000080;stroke-width:0.163824"
     d="m 15.734717,40.41946 c -0.422816,-0.466988 -0.346268,-1.255534 0.160563,-1.654023 0.540157,-0.424689 0.726546,-0.424689 1.266703,0 0.565454,0.44458 0.600496,1.325477 0.06757,1.698579 -0.488809,0.342216 -1.162839,0.322126 -1.494835,-0.04456 z"
     id="path42" />
  <path
     style="fill:#000080;stroke-width:0.163824"
     d="m 9.4918431,34.131095 c -0.5414938,-0.772732 -0.061117,-1.767772 0.8509859,-1.762696 0.546536,0.0031 0.750509,0.127986 1.008685,0.617877 0.380523,0.722047 -0.168081,1.508835 -1.052066,1.508835 -0.3852038,0 -0.6297692,-0.110234 -0.8076049,-0.364016 z"
     id="path44" />
  <path
     style="fill:#000080;stroke-width:0.163824"
     d="m 7.1351062,25.762944 c -0.4622214,-0.491786 -0.4530995,-1.110778 0.02296,-1.557808 0.4968587,-0.466556 1.0156721,-0.450814 1.5126188,0.0459 0.5103653,0.51013 0.5103653,0.978835 0,1.488965 -0.5048403,0.504605 -1.0748659,0.513122 -1.535579,0.02294 z"
     id="path46" />
  <path
     style="fill:#000080;stroke-width:0.163824"
     d="m 10.130553,17.223121 c -0.5103709,-0.51013 -0.5103709,-0.978835 0,-1.488965 0.491359,-0.491134 0.893117,-0.508348 1.46011,-0.06256 0.547776,0.43068 0.570145,1.111347 0.0525,1.597423 -0.496858,0.466556 -1.015672,0.450814 -1.512613,-0.0459 z"
     id="path48" />
  <path
     style="fill:#000080;stroke-width:0.31616"
     d=""
     id="path50" />
</svg>
