<?xml version="1.0" encoding="UTF-8" standalone="no"?>
<svg
   xmlns:dc="http://purl.org/dc/elements/1.1/"
   xmlns:cc="http://creativecommons.org/ns#"
   xmlns:rdf="http://www.w3.org/1999/02/22-rdf-syntax-ns#"
   xmlns:svg="http://www.w3.org/2000/svg"
   xmlns="http://www.w3.org/2000/svg"
   xmlns:sodipodi="http://sodipodi.sourceforge.net/DTD/sodipodi-0.dtd"
   xmlns:inkscape="http://www.inkscape.org/namespaces/inkscape"
   id="0"
   sodipodi:docname="hora-alguns-minuts.svg"
   viewBox="0 0 49.999998 49.999999"
   version="1.0"
   inkscape:version="1.0.1 (3bc2e813f5, 2020-09-07)"
   width="50"
   height="50">
  <defs
     id="defs22" />
  <sodipodi:namedview
     id="namedview20"
     bordercolor="#666666"
     inkscape:pageshadow="2"
     guidetolerance="10"
     pagecolor="#ffffff"
     gridtolerance="10"
     inkscape:window-maximized="0"
     inkscape:zoom="8.9461982"
     objecttolerance="10"
     borderopacity="1"
     inkscape:current-layer="0"
     inkscape:cx="51.224621"
     inkscape:cy="45.274447"
     inkscape:window-y="0"
     inkscape:window-x="0"
     inkscape:window-width="1350"
     showgrid="false"
     inkscape:pageopacity="0"
     inkscape:window-height="729"
     inkscape:document-rotation="0"
     inkscape:showpageshadow="false"
     showborder="true" />
  <metadata
     id="metadata20">
    <rdf:RDF>
      <cc:Work>
        <dc:format>image/svg+xml</dc:format>
        <dc:type
           rdf:resource="http://purl.org/dc/dcmitype/StillImage" />
        <cc:license
           rdf:resource="http://creativecommons.org/publicdomain/zero/1.0/" />
        <dc:publisher>
          <cc:Agent
             rdf:about="http://openclipart.org/">
            <dc:title>Openclipart</dc:title>
          </cc:Agent>
        </dc:publisher>
        <dc:title></dc:title>
        <dc:date>2010-04-16T13:19:10</dc:date>
        <dc:description>Clock - Horloge - Uhr - Orologio</dc:description>
        <dc:source>https://openclipart.org/detail/48427/clock-by-palomaironique</dc:source>
        <dc:creator>
          <cc:Agent>
            <dc:title>palomaironique</dc:title>
          </cc:Agent>
        </dc:creator>
        <dc:subject>
          <rdf:Bag>
            <rdf:li>Stunde</rdf:li>
            <rdf:li>Uhr</rdf:li>
            <rdf:li>Zeit</rdf:li>
            <rdf:li>clock</rdf:li>
            <rdf:li>heure</rdf:li>
            <rdf:li>horloge</rdf:li>
            <rdf:li>hour</rdf:li>
            <rdf:li>ora</rdf:li>
            <rdf:li>orologio</rdf:li>
            <rdf:li>tempo</rdf:li>
            <rdf:li>temps</rdf:li>
            <rdf:li>time</rdf:li>
          </rdf:Bag>
        </dc:subject>
      </cc:Work>
      <cc:License
         rdf:about="http://creativecommons.org/publicdomain/zero/1.0/">
        <cc:permits
           rdf:resource="http://creativecommons.org/ns#Reproduction" />
        <cc:permits
           rdf:resource="http://creativecommons.org/ns#Distribution" />
        <cc:permits
           rdf:resource="http://creativecommons.org/ns#DerivativeWorks" />
      </cc:License>
    </rdf:RDF>
  </metadata>
  <path
     id="path22"
     style="fill:#000080;stroke-width:0.163824"
     d="M 24.824219,0.00195313 C 23.075767,0.0170642 21.322819,0.15207603 20.148438,0.40234375 10.029613,2.5587266 2.6135009,9.9736476 0.359375,20.189453 0.06267474,21.534125 0.00259145,22.331462 0,24.996094 c -0.00372132,3.614269 0.24069178,5.155082 1.3007812,8.199218 3.1148138,8.944463 11.0096258,15.352823 20.5664068,16.69336 1.735437,0.24343 6.233962,0.06515 8.042968,-0.31836 3.238121,-0.686489 6.210668,-1.935337 8.91211,-3.74414 9.060421,-6.066583 13.1743,-17.135199 10.24414,-27.564453 C 46.491658,9.097475 38.981642,2.2237199 29.46875,0.32226562 28.317239,0.0920997 26.572671,-0.01315797 24.824219,0.00195313 Z m 0.08008,3.72070307 c 0.374772,-4.39e-4 0.751221,0.0082 1.128906,0.027344 9.805022,0.496861 17.775512,7.449456 19.851563,17.314453 0.396845,1.88554 0.398785,5.909486 0.0039,7.896485 -0.86256,4.340467 -2.816768,7.966243 -5.988281,11.111328 -3.068911,3.043336 -6.467251,4.891003 -10.671875,5.800781 -2.709405,0.586249 -6.917437,0.450771 -9.832032,-0.316406 C 13.69189,44.055079 8.3946574,39.656114 5.7988281,34.265625 1.8457892,26.056773 3.4891216,16.449276 9.953125,9.9882812 14.01636,5.9269372 19.282721,3.7292419 24.904297,3.7226562 Z" />
  <path
     style="fill:#000080;stroke-width:0.163824"
     d="m 15.89528,11.225596 c -0.872114,-0.685687 -0.400713,-1.9535459 0.726347,-1.9535459 0.968326,0 1.335712,1.3282099 0.540356,1.9535459 -0.237465,0.186702 -0.522473,0.339459 -0.633351,0.339459 -0.110879,0 -0.395887,-0.152757 -0.633352,-0.339459 z"
     id="path24" />
  <path
     style="fill:#000080;stroke-width:0.163824"
     d="M 24.252262,8.9325898 C 23.965963,8.7074925 23.820508,8.435604 23.820508,8.1255472 c 0,-0.5182746 0.644711,-1.146503 1.176583,-1.146503 0.417613,0 1.11749,0.7180471 1.11749,1.146503 0,0.4284558 -0.699877,1.1465029 -1.11749,1.1465029 -0.172191,0 -0.507364,-0.1527571 -0.744829,-0.3394603 z"
     id="path26" />
  <path
     style="fill:#000080;stroke-width:0.163824"
     d="M 32.669076,11.073697 C 32.19355,10.598392 32.283515,9.8177351 32.863468,9.3868916 33.246677,9.1022088 33.366815,9.0860312 33.79162,9.2619093 c 0.277647,0.1149518 0.575083,0.4122486 0.690088,0.6897668 0.17596,0.4246069 0.159775,0.5446889 -0.125041,0.9277199 -0.431044,0.579683 -1.212064,0.669606 -1.687591,0.194301 z"
     id="path30" />
  <path
     style="fill:#000080;stroke-width:0.163824"
     d="m 38.895847,17.297569 c -0.471517,-0.471297 -0.424213,-1.210651 0.10403,-1.625973 0.532894,-0.41898 0.896279,-0.428832 1.379888,-0.03741 0.507376,0.410657 0.507376,1.278251 0,1.688908 -0.486555,0.393806 -1.074512,0.383693 -1.483918,-0.02552 z"
     id="path32" />
  <path
     style="fill:#000080;stroke-width:0.163824"
     d="m 41.189921,25.814447 c -0.676723,-0.676408 -0.193114,-1.965433 0.73738,-1.965433 0.930494,0 1.414104,1.289025 0.737381,1.965433 -0.180249,0.180165 -0.51207,0.327572 -0.737381,0.327572 -0.225311,0 -0.557132,-0.147407 -0.73738,-0.327572 z"
     id="path34" />
  <path
     style="fill:#000080;stroke-width:0.163824"
     d="m 38.920988,34.372271 c -0.563687,-0.476752 -0.6151,-1.104013 -0.130215,-1.588672 0.519553,-0.519311 1.086224,-0.533424 1.551272,-0.03863 0.488614,0.519863 0.458175,1.154903 -0.07547,1.57447 -0.527465,0.414711 -0.900414,0.429356 -1.345591,0.05284 z"
     id="path36" />
  <path
     style="fill:#000080;stroke-width:0.163824"
     d="m 32.885568,40.688071 c -0.196365,-0.09489 -0.446905,-0.389411 -0.556755,-0.654491 -0.173069,-0.41763 -0.15606,-0.540691 0.127434,-0.921943 0.426939,-0.574162 1.212073,-0.669598 1.677929,-0.203958 0.480663,0.480439 0.438171,1.21693 -0.09437,1.63563 -0.479469,0.376975 -0.63368,0.396315 -1.154241,0.144762 z"
     id="path38" />
  <path
     style="fill:#000080;stroke-width:0.163824"
     d="m 24.157894,42.694073 c -0.903362,-0.902942 0.167268,-2.315537 1.308073,-1.725878 0.639115,0.330346 0.789859,0.957045 0.366998,1.525747 -0.424085,0.570347 -1.210662,0.664324 -1.675071,0.200131 z"
     id="path40" />
  <path
     style="fill:#000080;stroke-width:0.163824"
     d="m 15.734717,40.41946 c -0.422816,-0.466988 -0.346268,-1.255534 0.160563,-1.654023 0.540157,-0.424689 0.726546,-0.424689 1.266703,0 0.565454,0.44458 0.600496,1.325477 0.06757,1.698579 -0.488809,0.342216 -1.162839,0.322126 -1.494835,-0.04456 z"
     id="path42" />
  <path
     style="fill:#000080;stroke-width:0.163824"
     d="m 9.4918431,34.131095 c -0.5414938,-0.772732 -0.061117,-1.767772 0.8509859,-1.762696 0.546536,0.0031 0.750509,0.127986 1.008685,0.617877 0.380523,0.722047 -0.168081,1.508835 -1.052066,1.508835 -0.3852038,0 -0.6297692,-0.110234 -0.8076049,-0.364016 z"
     id="path44" />
  <path
     style="fill:#000080;stroke-width:0.163824"
     d="m 7.1351062,25.762944 c -0.4622214,-0.491786 -0.4530995,-1.110778 0.02296,-1.557808 0.4968587,-0.466556 1.0156721,-0.450814 1.5126188,0.0459 0.5103653,0.51013 0.5103653,0.978835 0,1.488965 -0.5048403,0.504605 -1.0748659,0.513122 -1.535579,0.02294 z"
     id="path46" />
  <path
     style="fill:#000080;stroke-width:0.163824"
     d="m 10.130553,17.223121 c -0.5103709,-0.51013 -0.5103709,-0.978835 0,-1.488965 0.491359,-0.491134 0.893117,-0.508348 1.46011,-0.06256 0.547776,0.43068 0.570145,1.111347 0.0525,1.597423 -0.496858,0.466556 -1.015672,0.450814 -1.512613,-0.0459 z"
     id="path48" />
  <path
     style="fill:#000080;stroke-width:0.31616"
     d=""
     id="path50" />
  <path
     id="path28-4"
     style="fill:#000080;stroke-width:0.163824"
     d="m 33.170179,12.035466 c 0.183802,0.118676 0.333637,0.301579 0.365185,0.496094 0.04119,0.254011 -0.665507,1.502233 -3.336244,5.900514 l -3.293943,5.424507 c -0.0102,-0.006 -0.01969,-0.01415 -0.03132,-0.01612 -0.01471,-0.0025 -0.01355,0.02242 -0.01336,0.042 l -0.0018,-10e-4 c -0.01032,0.0073 -0.01557,0.01895 -0.02318,0.03168 -0.0094,0.01738 -0.01955,0.03353 -0.02972,0.05049 -0.0102,0.01719 -0.02059,0.03495 -0.03073,0.05218 -0.01003,0.01702 -0.0197,0.03346 -0.02972,0.05049 -0.01002,0.01703 -0.02069,0.03515 -0.03073,0.05218 l -0.03965,0.06732 -0.02972,0.05049 -0.03073,0.05218 -0.02972,0.05049 -0.03073,0.05218 -0.02972,0.05049 -0.02972,0.05049 -0.03073,0.05218 -0.02972,0.05049 -0.02972,0.05049 -0.03073,0.05218 -0.05451,0.09257 -0.0089,0.01515 c -0.01654,0.0035 -0.03291,0.0055 -0.04942,0.01853 -0.0026,0.002 -0.0041,0.0053 -0.0067,0.0074 0,0 -0.0018,-0.001 -0.0018,-0.001 -0.04174,-0.0025 -0.05959,0.04836 -0.0747,0.08067 -0.0023,3.06e-4 -0.0047,-1.66e-4 -0.0071,4.16e-4 -0.01433,0.0032 -0.01763,0.02027 -0.02417,0.03337 -0.04706,0.01565 -0.09469,0.02584 -0.140938,0.05073 -0.01991,-0.0017 0.04525,5.97e-4 0.06129,-1.73e-4 -0.02088,10e-4 -0.04124,0.0012 -0.06228,0.0018 -0.02486,0.01348 -0.04961,0.03253 -0.07429,0.04919 -0.134493,0.0135 -0.269032,0.02639 -0.403654,0.03883 -0.0075,-0.005 -0.01311,-0.0072 -0.02188,-0.01288 -0.005,-0.0028 -0.0035,1.05e-4 -0.0077,-0.0022 l -0.04712,-0.02775 -0.02693,-0.01586 c -0.01458,-0.0116 -0.0286,-0.02288 -0.04317,-0.03447 -0.02073,-0.01662 -0.03636,-0.01166 -0.05476,-0.01864 -0.09965,-0.192027 -0.234281,-0.443852 -0.241803,-0.482373 -0.08547,-0.437814 0.06117,-0.702673 3.585159,-6.46565 2.325882,-3.803651 3.76638,-6.042806 3.925152,-6.099983 0.173156,-0.06236 0.392583,-0.0082 0.576388,0.11048 z m -0.22894,23.476218 c 0.02331,0.0369 0.0434,0.07703 0.06194,0.118066 -9.41e-4,0.0025 -0.0013,0.0053 -0.0022,0.0077 -0.08654,-0.03402 -0.170373,-0.07259 -0.256136,-0.107759 0.06482,-0.01265 0.131074,-0.01272 0.196478,-0.01804 z" />
  <path
     id="path28-1"
     style="fill:#000080;stroke-width:0.163824"
     d="m 39.086434,29.682276 c -0.08668,0.200881 -0.242322,0.378872 -0.428954,0.442119 -0.243718,0.08259 -1.591529,-0.40821 -6.370568,-2.3157 l -5.894111,-2.352611 c 0.0041,-0.01105 0.0107,-0.02176 0.01072,-0.03355 4.3e-5,-0.01491 -0.02435,-0.0097 -0.04363,-0.0062 l 7.16e-4,-0.0019 c -0.0089,-0.009 -0.02125,-0.01222 -0.03507,-0.01763 -0.0187,-0.0064 -0.03629,-0.01375 -0.0547,-0.02098 -0.01864,-0.0072 -0.03787,-0.01452 -0.05653,-0.02168 -0.01844,-0.0071 -0.03625,-0.0139 -0.0547,-0.02098 -0.01845,-0.0071 -0.03808,-0.01461 -0.05653,-0.02168 l -0.07295,-0.02798 -0.05471,-0.02098 -0.05653,-0.02168 -0.0547,-0.02098 -0.05653,-0.02168 -0.0547,-0.02098 -0.0547,-0.02098 -0.05653,-0.02168 -0.0547,-0.02098 -0.0547,-0.02098 -0.05653,-0.02168 -0.100298,-0.03847 -0.01641,-0.0063 c -0.0062,-0.01571 -0.01091,-0.03154 -0.02641,-0.04569 -0.0025,-0.0022 -0.0059,-0.0032 -0.0084,-0.0054 0,0 7.16e-4,-0.0019 7.16e-4,-0.0019 -0.0045,-0.04157 -0.05753,-0.05078 -0.09191,-0.06035 -6.62e-4,-0.0022 -6.43e-4,-0.0047 -0.0015,-0.0069 -0.0055,-0.01363 -0.0229,-0.01403 -0.0369,-0.01833 -0.02322,-0.04381 -0.0411,-0.08914 -0.07332,-0.130618 -0.0016,-0.01991 0.0069,0.04472 0.01029,0.06042 -0.0045,-0.02041 -0.008,-0.04048 -0.01212,-0.06112 -0.0174,-0.0223 -0.04028,-0.04356 -0.06078,-0.06515 -0.03554,-0.130413 -0.07047,-0.260977 -0.10498,-0.391693 0.0036,-0.0083 0.0049,-0.01413 0.0091,-0.02371 0.002,-0.0054 -7e-4,-0.0035 9.26e-4,-0.008 l 0.01958,-0.05106 0.01119,-0.02918 c 0.009,-0.01629 0.01784,-0.03198 0.02687,-0.04827 0.01296,-0.02319 0.0055,-0.03779 0.0093,-0.05708 0.17293,-0.129997 0.399053,-0.304385 0.435803,-0.318165 0.417679,-0.156618 0.703124,-0.05574 6.969057,2.467839 4.135609,1.6656 6.581959,2.716421 6.664579,2.863567 0.09011,0.160477 0.07293,0.385837 -0.01375,0.586719 z m -23.191513,3.652258 c -0.03254,0.02908 -0.0688,0.05552 -0.106212,0.08059 -0.0026,-5.62e-4 -0.0054,-3.68e-4 -0.008,-9.26e-4 0.01926,-0.09097 0.04345,-0.180024 0.06397,-0.270416 0.02316,0.06185 0.0342,0.12717 0.05024,0.1908 z" />
  <path
     id="path28-11"
     style="fill:#000080;stroke-width:0.163824"
     d="m 40.161312,19.893786 c 0.05745,0.211107 0.04672,0.447304 -0.05978,0.613104 -0.139079,0.216507 -1.498898,0.672981 -6.42477,2.160767 l -6.075239,1.834884 c -0.0037,-0.01122 -0.0052,-0.02369 -0.01253,-0.03291 -0.0093,-0.01169 -0.02507,0.0076 -0.038,0.02232 l -6.04e-4,-0.0019 c -0.01256,-0.0015 -0.02424,0.0037 -0.03841,0.0081 -0.01863,0.0066 -0.03695,0.01188 -0.05585,0.0177 -0.01908,0.006 -0.03867,0.01225 -0.05772,0.01829 -0.01884,0.006 -0.03702,0.01173 -0.05585,0.0177 -0.01884,0.006 -0.03889,0.01232 -0.05772,0.01829 l -0.07448,0.0236 -0.05585,0.0177 -0.05772,0.01829 -0.05585,0.0177 -0.05772,0.01829 -0.05585,0.0177 -0.05585,0.0177 -0.05772,0.01829 -0.05585,0.0177 -0.05585,0.0177 -0.05772,0.01829 -0.102404,0.03245 -0.01676,0.0053 c -0.01468,-0.0084 -0.02819,-0.01786 -0.04913,-0.01926 -0.0033,-2.08e-4 -0.0066,0.0012 -0.0099,0.0011 0,0 -6.04e-4,-0.0019 -6.04e-4,-0.0019 -0.02941,-0.02971 -0.07664,-0.0038 -0.109484,0.0101 -0.0019,-0.0013 -0.0035,-0.0033 -0.0055,-0.0044 -0.01278,-0.0072 -0.02666,0.0033 -0.04028,0.0087 -0.04547,-0.01978 -0.0877,-0.04408 -0.138759,-0.05642 -0.01364,-0.01459 0.03326,0.03068 0.04572,0.04083 -0.01624,-0.01316 -0.03149,-0.02667 -0.04758,-0.04024 -0.0275,-0.0066 -0.05865,-0.009 -0.08814,-0.01305 -0.109085,-0.07982 -0.217792,-0.160129 -0.326266,-0.240821 -0.0023,-0.0087 -0.0049,-0.01413 -0.0077,-0.0242 -0.0018,-0.0054 -0.0027,-0.0023 -0.0043,-0.0068 l -0.01652,-0.05214 -0.0094,-0.02979 c -0.0031,-0.01837 -0.006,-0.03613 -0.0091,-0.05449 -0.0043,-0.02621 -0.01926,-0.03297 -0.02828,-0.05045 0.05417,-0.20945 0.122266,-0.48677 0.142411,-0.520454 0.228948,-0.382842 0.515025,-0.481912 6.987574,-2.414908 4.271979,-1.275808 6.839868,-1.979225 6.996199,-1.915676 0.170495,0.0693 0.297554,0.256222 0.355012,0.467327 z M 24.304639,37.207107 c -0.0073,0.04303 -0.01919,0.08631 -0.03281,0.129228 -0.0024,0.0012 -0.0045,0.0031 -0.0068,0.0043 -0.04165,-0.08313 -0.07826,-0.167846 -0.118562,-0.251316 0.05666,0.03393 0.106018,0.07812 0.158228,0.117867 z" />
  <path
     id="path28-3"
     style="fill:#000080;stroke-width:0.163824"
     d="m 17.807896,11.620354 c 0.189343,-0.10962 0.420408,-0.159752 0.60796,-0.09928 0.244912,0.07897 1.03452,1.276467 3.7346,5.656796 l 3.330045,5.402419 c -0.0099,0.0064 -0.02157,0.0111 -0.02861,0.02054 -0.0089,0.01194 0.01375,0.02229 0.03131,0.03102 l -0.0017,0.0011 c 0.0018,0.01253 0.0098,0.02247 0.01768,0.03505 0.01118,0.01631 0.02091,0.03268 0.03142,0.04946 0.01064,0.01692 0.02175,0.03424 0.03247,0.05111 0.01057,0.01669 0.02083,0.03277 0.03142,0.04946 0.01056,0.01669 0.02187,0.03443 0.03247,0.05111 l 0.0419,0.06595 0.03142,0.04946 0.03247,0.0511 0.03142,0.04946 0.03247,0.05111 0.03142,0.04946 0.03142,0.04946 0.03247,0.05111 0.03142,0.04946 0.03142,0.04946 0.03247,0.05111 0.0576,0.09067 0.0094,0.01483 c -0.0044,0.01635 -0.01004,0.03182 -0.006,0.05243 6.48e-4,0.0033 0.0028,0.006 0.0036,0.0094 0,0 -0.0017,0.0011 -0.0017,0.0011 -0.02119,0.03604 0.01594,0.07506 0.03781,0.103246 -7.76e-4,0.0021 -0.0023,0.0042 -0.0029,0.0064 -0.0037,0.01421 0.01,0.02494 0.01874,0.0367 -0.0075,0.04902 -0.02014,0.09606 -0.019,0.148583 -0.0106,0.01693 0.02114,-0.04 0.02775,-0.05465 -0.0086,0.01907 -0.01771,0.03727 -0.02671,0.0563 6.59e-4,0.02828 0.0064,0.05899 0.01,0.08854 -0.04921,0.125894 -0.09899,0.251546 -0.149199,0.377072 -0.0078,0.0044 -0.01238,0.0084 -0.02145,0.01358 -0.0048,0.0031 -0.0015,0.0032 -0.0055,0.0059 l -0.04616,0.02933 -0.02638,0.01676 c -0.01696,0.0077 -0.03339,0.01504 -0.05035,0.02275 -0.02423,0.01091 -0.02693,0.02706 -0.04152,0.04026 -0.216338,0.0013 -0.501848,0.0065 -0.539569,-0.0043 -0.428718,-0.123228 -0.597772,-0.374376 -4.124442,-6.13571 -2.327655,-3.802566 -3.665457,-6.104551 -3.64408,-6.271946 0.02331,-0.182559 0.171442,-0.353265 0.360782,-0.462886 z m 20.797803,10.892044 c 0.04348,-0.0039 0.08834,-0.0036 0.133321,-0.0014 0.0017,0.002 0.0041,0.0035 0.0059,0.0055 -0.06969,0.06155 -0.142197,0.118642 -0.212555,0.178989 0.01828,-0.06347 0.04835,-0.122493 0.0734,-0.183144 z" />
  <path
     id="path28-35"
     style="fill:#000080;stroke-width:0.163824"
     d="m 12.808416,32.230496 c -0.109701,-0.189296 -0.159924,-0.420342 -0.09957,-0.607911 0.07887,-0.244945 1.276035,-1.035054 5.655237,-3.736963 l 5.401027,-3.332303 c 0.0064,0.0099 0.01106,0.02156 0.02055,0.0286 0.01195,0.0089 0.02227,-0.01383 0.03101,-0.03132 l 0.0011,0.0016 c 0.01252,-0.0018 0.02247,-0.0098 0.03505,-0.01767 0.01631,-0.01116 0.03267,-0.02097 0.04944,-0.03144 0.01691,-0.01066 0.03422,-0.02176 0.0511,-0.03249 0.01667,-0.01062 0.03276,-0.02083 0.04944,-0.03144 0.01668,-0.01062 0.03443,-0.02189 0.05109,-0.03249 l 0.06593,-0.04192 0.04944,-0.03144 0.05109,-0.03249 0.04944,-0.03144 0.05109,-0.03249 0.04944,-0.03144 0.04944,-0.03144 0.05109,-0.03249 0.04944,-0.03144 0.04944,-0.03144 0.05109,-0.03249 0.09065,-0.05764 0.01484,-0.0094 c 0.01634,0.0044 0.03183,0.01003 0.05243,0.006 0.0032,-6.47e-4 0.006,-0.0028 0.0093,-0.0036 0,0 0.0011,0.0016 0.0011,0.0016 0.03605,0.02117 0.07506,-0.01591 0.103226,-0.03786 0.0022,7.4e-4 0.0042,0.0023 0.0065,0.0029 0.01421,0.0037 0.02492,-0.01002 0.0367,-0.01871 0.04903,0.0074 0.09607,0.0201 0.148591,0.01893 0.01693,0.0106 -0.04002,-0.02112 -0.05466,-0.02773 0.01908,0.0085 0.03727,0.0177 0.05631,0.02668 0.02828,-6.6e-4 0.05898,-0.0064 0.08853,-0.01004 0.125914,0.04916 0.251588,0.09888 0.377135,0.149041 0.0045,0.0078 0.0084,0.01237 0.01358,0.02143 0.0032,0.0047 0.0032,0.0015 0.0058,0.0055 l 0.02934,0.04615 0.01676,0.02637 c 0.0077,0.01697 0.01505,0.03338 0.02276,0.05033 0.01092,0.02423 0.02707,0.02693 0.04028,0.04151 0.0014,0.216338 0.0067,0.501845 -0.0041,0.539571 -0.12305,0.42877 -0.374128,0.597929 -6.133988,4.127005 -3.801593,2.329244 -6.10302,3.668008 -6.270423,3.6467 -0.182569,-0.02323 -0.353335,-0.171294 -0.463037,-0.360589 z M 23.69177,11.428145 c -0.004,-0.04345 -0.0036,-0.08834 -0.0015,-0.133318 0.0019,-0.0018 0.0035,-0.0042 0.0055,-0.0058 0.06158,0.06967 0.118706,0.142147 0.179078,0.212481 -0.06347,-0.01825 -0.122513,-0.0483 -0.183175,-0.07332 z" />
  <path
     id="path28-6"
     style="fill:#000080;stroke-width:0.163824"
     d="m 12.586323,16.749511 c 0.123388,-0.180671 0.310107,-0.325726 0.505374,-0.352233 0.254992,-0.03461 1.484517,0.704136 5.812256,3.487729 l 5.337504,3.433132 c -0.0062,0.01005 -0.01466,0.01932 -0.01692,0.03089 -0.0029,0.01463 0.02207,0.01414 0.04164,0.01442 l -0.0011,0.0017 c 0.0071,0.01052 0.01853,0.01606 0.03107,0.02399 0.01713,0.0099 0.03301,0.02041 0.04971,0.03102 0.01691,0.01066 0.03441,0.02148 0.05137,0.03207 0.01676,0.01042 0.03294,0.02056 0.0497,0.03102 0.01677,0.01043 0.0346,0.0216 0.05137,0.03206 l 0.06627,0.04137 0.04971,0.03102 0.05137,0.03207 0.04971,0.03103 0.05137,0.03207 0.04971,0.03103 0.04971,0.03102 0.05137,0.03207 0.0497,0.03102 0.04971,0.03102 0.05137,0.03207 0.09113,0.05688 0.01491,0.0093 c 0.0032,0.01662 0.0047,0.03305 0.01722,0.04988 0.002,0.0026 0.0052,0.0042 0.0073,0.0069 0,0 -0.0011,0.0017 -0.0011,0.0017 -0.0036,0.04166 0.04679,0.06082 0.07872,0.07677 2.36e-4,0.0023 -2.78e-4,0.0048 2.31e-4,0.007 0.0027,0.01442 0.01981,0.01815 0.03273,0.02503 0.01445,0.04744 0.02336,0.09533 0.04708,0.142199 -0.0023,0.01986 0.0018,-0.04522 0.0014,-0.06128 5.36e-4,0.0209 1.26e-4,0.04126 2.73e-4,0.0623 0.01283,0.02521 0.03125,0.05044 0.04724,0.07554 0.01002,0.134796 0.01945,0.269621 0.02838,0.404522 -0.0051,0.0074 -0.0076,0.01292 -0.01347,0.02153 -0.0029,0.0049 1.9e-5,0.0035 -0.0024,0.0077 l -0.02896,0.04639 -0.01655,0.02651 c -0.01195,0.01428 -0.02361,0.028 -0.03557,0.04227 -0.01714,0.02029 -0.01257,0.03605 -0.02005,0.05425 -0.19454,0.09465 -0.449761,0.222725 -0.488465,0.229246 -0.439877,0.07411 -0.700855,-0.07932 -6.370766,-3.751176 -3.742226,-2.423475 -5.943377,-3.921402 -5.996428,-4.081599 -0.05786,-0.174712 0.002,-0.392664 0.125353,-0.573337 z m 23.462444,0.836015 c 0.03749,-0.02235 0.07812,-0.04139 0.119628,-0.05886 0.0025,9.97e-4 0.0052,0.0014 0.0077,0.0024 -0.03626,0.08563 -0.07697,0.168441 -0.114343,0.253263 -0.01094,-0.06514 -0.0093,-0.131357 -0.01299,-0.196875 z" />
</svg>
