<?xml version="1.0" encoding="UTF-8" standalone="no"?>
<svg
   xmlns:dc="http://purl.org/dc/elements/1.1/"
   xmlns:cc="http://creativecommons.org/ns#"
   xmlns:rdf="http://www.w3.org/1999/02/22-rdf-syntax-ns#"
   xmlns:svg="http://www.w3.org/2000/svg"
   xmlns="http://www.w3.org/2000/svg"
   xmlns:sodipodi="http://sodipodi.sourceforge.net/DTD/sodipodi-0.dtd"
   xmlns:inkscape="http://www.inkscape.org/namespaces/inkscape"
   id="0"
   sodipodi:docname="hores.svg"
   viewBox="0 0 49.999998 49.999999"
   version="1.0"
   inkscape:version="1.0.1 (3bc2e813f5, 2020-09-07)"
   width="50"
   height="50">
  <defs
     id="defs22" />
  <sodipodi:namedview
     id="namedview20"
     bordercolor="#666666"
     inkscape:pageshadow="2"
     guidetolerance="10"
     pagecolor="#ffffff"
     gridtolerance="10"
     inkscape:window-maximized="0"
     inkscape:zoom="3.1629587"
     objecttolerance="10"
     borderopacity="1"
     inkscape:current-layer="0"
     inkscape:cx="28.70396"
     inkscape:cy="46.248786"
     inkscape:window-y="0"
     inkscape:window-x="0"
     inkscape:window-width="1350"
     showgrid="false"
     inkscape:pageopacity="0"
     inkscape:window-height="729"
     inkscape:document-rotation="0"
     inkscape:showpageshadow="false"
     showborder="true" />
  <metadata
     id="metadata20">
    <rdf:RDF>
      <cc:Work>
        <dc:format>image/svg+xml</dc:format>
        <dc:type
           rdf:resource="http://purl.org/dc/dcmitype/StillImage" />
        <cc:license
           rdf:resource="http://creativecommons.org/publicdomain/zero/1.0/" />
        <dc:publisher>
          <cc:Agent
             rdf:about="http://openclipart.org/">
            <dc:title>Openclipart</dc:title>
          </cc:Agent>
        </dc:publisher>
        <dc:title></dc:title>
        <dc:date>2010-04-16T13:19:10</dc:date>
        <dc:description>Clock - Horloge - Uhr - Orologio</dc:description>
        <dc:source>https://openclipart.org/detail/48427/clock-by-palomaironique</dc:source>
        <dc:creator>
          <cc:Agent>
            <dc:title>palomaironique</dc:title>
          </cc:Agent>
        </dc:creator>
        <dc:subject>
          <rdf:Bag>
            <rdf:li>Stunde</rdf:li>
            <rdf:li>Uhr</rdf:li>
            <rdf:li>Zeit</rdf:li>
            <rdf:li>clock</rdf:li>
            <rdf:li>heure</rdf:li>
            <rdf:li>horloge</rdf:li>
            <rdf:li>hour</rdf:li>
            <rdf:li>ora</rdf:li>
            <rdf:li>orologio</rdf:li>
            <rdf:li>tempo</rdf:li>
            <rdf:li>temps</rdf:li>
            <rdf:li>time</rdf:li>
          </rdf:Bag>
        </dc:subject>
      </cc:Work>
      <cc:License
         rdf:about="http://creativecommons.org/publicdomain/zero/1.0/">
        <cc:permits
           rdf:resource="http://creativecommons.org/ns#Reproduction" />
        <cc:permits
           rdf:resource="http://creativecommons.org/ns#Distribution" />
        <cc:permits
           rdf:resource="http://creativecommons.org/ns#DerivativeWorks" />
      </cc:License>
    </rdf:RDF>
  </metadata>
  <g
     id="g66"
     transform="matrix(0.51828995,0,0,0.5180487,64.656744,5.3767248)">
    <path
       style="fill:#000080;stroke-width:0.31616"
       d="M -82.557603,85.922172 C -100.99666,83.334506 -116.2303,70.964246 -122.24009,53.69857 c -2.04536,-5.876159 -2.51715,-8.851317 -2.50997,-15.828015 0.005,-5.143593 0.12004,-6.680612 0.6925,-9.276261 4.34916,-19.719778 18.65815,-34.0345534 38.181633,-38.1970632 4.531754,-0.9661938 13.538135,-1.0440678 17.981635,-0.1554797 18.354382,3.6704161 32.84526,16.9423439 37.813036,34.6322699 5.653514,20.131802 -2.28224,41.495983 -19.763616,53.206433 -5.212221,3.491569 -10.949716,5.903093 -17.197417,7.228238 -3.490336,0.740304 -12.166924,1.083378 -15.515314,0.61348 z m 14.200542,-7.750718 c 8.112493,-1.756163 14.672225,-5.322994 20.59345,-11.197608 6.119185,-6.071021 9.889623,-13.070632 11.553865,-21.449126 0.761866,-3.835541 0.757965,-11.602301 -0.0077,-15.241998 C -40.223042,11.240117 -55.60415,-2.1804397 -74.522174,-3.1395408 -86.181593,-3.7306468 -97.183468,0.539615 -105.54581,8.901957 c -12.47179,12.47179 -15.64478,31.017979 -8.0177,46.863694 5.00845,10.405371 15.230285,18.896762 26.236869,21.795254 5.623484,1.480898 13.741994,1.742198 18.96958,0.610549 z"
       id="path22" />
    <path
       style="fill:#000080;stroke-width:0.31616"
       d="m -94.081438,11.290195 c -1.682677,-1.323594 -0.773144,-3.770969 1.401429,-3.770969 1.868309,0 2.577153,2.56387 1.042575,3.770969 -0.45817,0.360396 -1.008071,0.655266 -1.222002,0.655266 -0.213931,0 -0.763832,-0.29487 -1.222002,-0.655266 z"
       id="path24" />
    <path
       style="fill:#000080;stroke-width:0.31616"
       d="m -77.957294,6.863959 c -0.552391,-0.43451 -0.833036,-0.959342 -0.833036,-1.557851 0,-1.000436 1.243919,-2.213118 2.270125,-2.213118 0.805753,0 2.15611,1.386061 2.15611,2.213118 0,0.827057 -1.350357,2.213118 -2.15611,2.213118 -0.332229,0 -0.978919,-0.29487 -1.437089,-0.655267 z"
       id="path26" />
    <path
       style="fill:#000080;stroke-width:0.31616"
       d="m -99.024549,51.465421 c -0.773319,-0.773317 -0.804012,-1.499372 -0.09644,-2.281235 0.294736,-0.325679 5.187341,-3.235562 10.872455,-6.466407 l 10.33657,-5.874265 -0.170424,-12.59664 c -0.134371,-9.931844 -0.08532,-12.699178 0.231846,-13.081346 0.485772,-0.585318 1.703134,-0.635426 2.156813,-0.08878 0.207996,0.25062 0.411599,5.385084 0.554763,13.990065 0.216911,13.037559 0.201806,13.621652 -0.36892,14.266178 -0.731599,0.826201 -21.653295,12.764745 -22.369571,12.764745 -0.283127,0 -0.799321,-0.284544 -1.147096,-0.632319 z"
       id="path28" />
    <path
       style="fill:#000080;stroke-width:0.31616"
       d="m -61.717708,10.996982 c -0.917491,-0.917491 -0.74391,-2.424409 0.375064,-3.256075 0.739371,-0.549529 0.971169,-0.580757 1.790796,-0.241256 0.535699,0.221894 1.109578,0.795772 1.331472,1.331471 0.3395,0.819627 0.308272,1.051425 -0.241257,1.790796 -0.831666,1.118975 -2.338584,1.292555 -3.256075,0.375064 z"
       id="path30" />
    <path
       style="fill:#000080;stroke-width:0.31616"
       d="m -49.70364,23.01105 c -0.909755,-0.909755 -0.818486,-2.336945 0.200717,-3.13865 1.028179,-0.808766 1.729301,-0.827783 2.662388,-0.07222 0.978942,0.792699 0.978942,2.467434 0,3.260133 -0.938771,0.760171 -2.073187,0.74065 -2.863105,-0.04927 z"
       id="path32" />
    <path
       style="fill:#000080;stroke-width:0.31616"
       d="m -45.277404,39.451353 c -1.305684,-1.305684 -0.372597,-3.793916 1.422718,-3.793916 1.795315,0 2.728403,2.488232 1.422719,3.793916 -0.347776,0.347776 -0.987999,0.632319 -1.422719,0.632319 -0.434719,0 -1.074943,-0.284543 -1.422718,-0.632319 z"
       id="path34" />
    <path
       style="fill:#000080;stroke-width:0.31616"
       d="m -49.655133,55.970696 c -1.087589,-0.920285 -1.186786,-2.131099 -0.251239,-3.066647 1.002437,-1.002436 2.095784,-1.029678 2.993058,-0.07457 0.942742,1.003503 0.884014,2.229334 -0.145606,3.039233 -1.017702,0.800525 -1.737277,0.828793 -2.596213,0.101987 z"
       id="path36" />
    <path
       style="fill:#000080;stroke-width:0.31616"
       d="m -61.300004,68.162213 c -0.378871,-0.183168 -0.862268,-0.751688 -1.074216,-1.263376 -0.333923,-0.806161 -0.301104,-1.043707 0.245875,-1.779646 0.823745,-1.108317 2.338599,-1.292539 3.237433,-0.393705 0.927402,0.927402 0.845417,2.349065 -0.182075,3.157291 -0.925098,0.727682 -1.222635,0.765015 -2.227017,0.279436 z"
       id="path38" />
    <path
       style="fill:#000080;stroke-width:0.31616"
       d="m -78.13937,72.034441 c -1.742967,-1.742968 0.32273,-4.469729 2.523825,-3.331498 1.233123,0.637673 1.523972,1.847403 0.708094,2.94518 -0.818238,1.100952 -2.335878,1.282359 -3.231919,0.386318 z"
       id="path40" />
    <path
       style="fill:#000080;stroke-width:0.31616"
       d="m -94.391233,67.643709 c -0.81579,-0.901437 -0.668097,-2.423584 0.309795,-3.192795 1.04219,-0.819786 1.401814,-0.819786 2.444004,0 1.091,0.858181 1.15861,2.558595 0.130369,3.278802 -0.943119,0.660587 -2.243607,0.621806 -2.884168,-0.08601 z"
       id="path42" />
    <path
       style="fill:#000080;stroke-width:0.31616"
       d="m -106.43637,55.505149 c -1.04477,-1.49162 -0.11792,-3.412367 1.64191,-3.402568 1.0545,0.0059 1.44805,0.247054 1.94618,1.1927 0.73419,1.393783 -0.3243,2.912535 -2.02988,2.912535 -0.74322,0 -1.21509,-0.212787 -1.55821,-0.702667 z"
       id="path44" />
    <path
       style="fill:#000080;stroke-width:0.31616"
       d="m -110.98351,39.351936 c -0.89182,-0.949304 -0.87422,-2.144158 0.0443,-3.007069 0.95865,-0.900603 1.95966,-0.870215 2.91848,0.0886 0.98471,0.984715 0.98471,1.889465 0,2.874179 -0.97405,0.974049 -2.07387,0.990491 -2.96278,0.04429 z"
       id="path46" />
    <path
       style="fill:#000080;stroke-width:0.31616"
       d="m -105.20403,22.867341 c -0.98472,-0.984715 -0.98472,-1.889465 0,-2.874179 0.94804,-0.948046 1.7232,-0.981275 2.81717,-0.120762 1.05689,0.831351 1.10005,2.145256 0.1013,3.083539 -0.95865,0.900603 -1.95966,0.870215 -2.91847,-0.0886 z"
       id="path48" />
  </g>
  <path
     style="fill:#000080;stroke-width:0.31616"
     d=""
     id="path50" />
</svg>
