<?xml version="1.0" encoding="UTF-8" standalone="no"?>
<svg
   xmlns:dc="http://purl.org/dc/elements/1.1/"
   xmlns:cc="http://creativecommons.org/ns#"
   xmlns:rdf="http://www.w3.org/1999/02/22-rdf-syntax-ns#"
   xmlns:svg="http://www.w3.org/2000/svg"
   xmlns="http://www.w3.org/2000/svg"
   xmlns:sodipodi="http://sodipodi.sourceforge.net/DTD/sodipodi-0.dtd"
   xmlns:inkscape="http://www.inkscape.org/namespaces/inkscape"
   version="1.1"
   id="svg10"
   sodipodi:docname="infusiones.svg"
   width="50"
   height="50"
   inkscape:version="1.0.1 (3bc2e813f5, 2020-09-07)">
  <metadata
     id="metadata16">
    <rdf:RDF>
      <cc:Work
         rdf:about="">
        <dc:format>image/svg+xml</dc:format>
        <dc:type
           rdf:resource="http://purl.org/dc/dcmitype/StillImage" />
        <dc:title></dc:title>
      </cc:Work>
    </rdf:RDF>
  </metadata>
  <defs
     id="defs14" />
  <sodipodi:namedview
     pagecolor="#ffffff"
     bordercolor="#666666"
     borderopacity="1"
     objecttolerance="10"
     gridtolerance="10"
     guidetolerance="10"
     inkscape:pageopacity="0"
     inkscape:pageshadow="2"
     inkscape:window-width="1366"
     inkscape:window-height="705"
     id="namedview12"
     showgrid="false"
     inkscape:showpageshadow="false"
     inkscape:zoom="0.865"
     inkscape:cx="150"
     inkscape:cy="75"
     inkscape:window-x="-8"
     inkscape:window-y="-8"
     inkscape:window-maximized="1"
     inkscape:current-layer="layer1" />
  <g
     id="layer1"
     inkscape:label="Layer 1"
     inkscape:groupmode="layer"
     transform="translate(-351.73,-479.75)">
    <g
       id="g4725"
       inkscape:transform-center-x="144.33607"
       inkscape:transform-center-y="-48.293107"
       transform="matrix(0.70095401,0,0,0.710135,-67.73737,203.17303)">
      <path
         id="path4596-0"
         d="m 631.29,405.65 c -4.4876,0 -9.6507,1.9158 -13.104,4.2863 l 26.334,0.25253 c -3.5018,-2.3984 -8.8207,-4.5389 -13.23,-4.5389 z m -14.344,5.5625 c -4.4312,4.0006 -7.25,9.8 -7.25,16.281 0,8.0077 4.2733,15.01 10.625,18.812 h 21.938 c 6.3517,-3.8028 10.625,-10.805 10.625,-18.812 l -1.7812,-8.6875 c -1.2712,-2.9667 -3.1444,-5.5251 -5.4375,-7.5938 z"
         sodipodi:nodetypes="sccscscccccc"
         style="color:#000000;fill:#000080"
         inkscape:connector-curvature="0" />
      <path
         id="rect4604-6"
         style="color:#000000;fill:#000080"
         inkscape:connector-curvature="0"
         d="m 619.68,446.82 h 23.234 v 2.5254 H 619.68 Z" />
      <path
         id="path4610-1"
         d="m 650.12,420.56 c 1.2792,0.80338 2.7827,1.2456 4.2932,1.2627 2.6623,0.0302 3.4739,-1.9934 4.8792,-4.2547 1.4703,-2.3659 2.1693,-4.2338 2.9495,-6.8569 l 7.513,-0.18941 c -0.9325,0.54823 -2.4172,1.5466 -2.7779,2.4622 -0.86001,2.183 -1.6291,3.6945 -2.5071,5.9802 -0.84135,2.1902 -1.9401,4.3096 -2.9856,6.6466 -1.0455,2.337 -4.2532,7.1205 -7.3236,9.5333 -3.0704,2.4128 -4.6829,1.4921 -6.8185,0.31567 l 2.7779,-14.9"
         sodipodi:nodetypes="cssccsszzcc"
         style="fill:#000080"
         inkscape:connector-curvature="0" />
      <path
         id="path4615-8"
         style="color:#000000;text-indent:0;text-transform:none;fill:#000080"
         inkscape:connector-curvature="0"
         d="m 608,411.88 c -1.8457,-0.26541 -3.5556,0.0721 -5,1 -2.8888,1.8559 -4.3857,5.5234 -4.5625,9.9375 -0.3592,8.9702 6.2812,14.634 12.344,14.688 5.825,0.0515 10.25,-3.9375 10.25,-3.9375 l -2.0625,-2.4062 c 0,0 -3.8863,3.1943 -8.1875,3.1562 -4.0637,-0.036 -9.4196,-3.987 -9.125,-11.344 0.15014,-3.7494 1.4438,-6.3664 3.0625,-7.4062 1.6187,-1.0399 3.8671,-1.0276 7.125,1.4688 3.5261,2.7018 4.503,3.9708 4.4688,3.9062 0.017,0.24147 -0.0263,0.43145 0.0937,0.65625 0.22325,0.41817 0.47627,0.59158 0.6875,0.75 l 1.9,-2.57 c -0.0413,-0.031 0.0571,0.01 0.21875,0.3125 -0.0255,-0.30008 0.0375,-0.40908 -0.0937,-0.65625 -0.61442,-1.1572 -1.7203,-2.1611 -5.3438,-4.9375 -1.9458,-1.4909 -3.9355,-2.3596 -5.7812,-2.625 z" />
      <path
         id="path4617-9"
         style="color:#000000;text-indent:0;text-transform:none;fill:#000080"
         inkscape:connector-curvature="0"
         d="m 631,399.34 a 1.5002,1.5002 0 0 0 -1.3125,1.5 v 6.8438 a 1.5002,1.5002 0 1 0 3,0 V 400.84 A 1.5002,1.5002 0 0 0 631,399.34 Z" />
      <path
         id="path4619-8"
         style="color:#000000;text-indent:0;text-transform:none;fill:#000080"
         inkscape:connector-curvature="0"
         d="m 628.75,400.5 a 1.5020331,1.5020331 0 1 0 0.15625,3 h 4.5312 a 1.5002,1.5002 0 1 0 0,-3 h -4.5312 a 1.5002,1.5002 0 0 0 -0.15625,0 z" />
    </g>
  </g>
</svg>
