<?xml version="1.0" encoding="UTF-8" standalone="no"?>
<svg
   xmlns:dc="http://purl.org/dc/elements/1.1/"
   xmlns:cc="http://creativecommons.org/ns#"
   xmlns:rdf="http://www.w3.org/1999/02/22-rdf-syntax-ns#"
   xmlns:svg="http://www.w3.org/2000/svg"
   xmlns="http://www.w3.org/2000/svg"
   xmlns:sodipodi="http://sodipodi.sourceforge.net/DTD/sodipodi-0.dtd"
   xmlns:inkscape="http://www.inkscape.org/namespaces/inkscape"
   version="1.1"
   id="svg5"
   sodipodi:docname="muebles.svg"
   width="50"
   height="50"
   inkscape:version="1.0.1 (3bc2e813f5, 2020-09-07)">
  <metadata
     id="metadata11">
    <rdf:RDF>
      <cc:Work
         rdf:about="">
        <dc:format>image/svg+xml</dc:format>
        <dc:type
           rdf:resource="http://purl.org/dc/dcmitype/StillImage" />
        <dc:title></dc:title>
      </cc:Work>
    </rdf:RDF>
  </metadata>
  <defs
     id="defs9" />
  <sodipodi:namedview
     pagecolor="#ffffff"
     bordercolor="#666666"
     borderopacity="1"
     objecttolerance="10"
     gridtolerance="10"
     guidetolerance="10"
     inkscape:pageopacity="0"
     inkscape:pageshadow="2"
     inkscape:window-width="1366"
     inkscape:window-height="705"
     id="namedview7"
     showgrid="false"
     inkscape:showpageshadow="false"
     inkscape:zoom="2.4560176"
     inkscape:cx="150"
     inkscape:cy="75"
     inkscape:window-x="-8"
     inkscape:window-y="-8"
     inkscape:window-maximized="1"
     inkscape:current-layer="layer1" />
  <g
     id="layer1"
     inkscape:label="Ebene 1"
     inkscape:groupmode="layer"
     transform="translate(3098.9,311.61)">
    <g
       id="g4929"
       style="text-indent:0pt;text-transform:none;fill:#000080"
       inkscape:label="Ebene 1"
       transform="matrix(0.05432385,0,0,0.05200155,-3089.1629,-318.1809)">
      <path
         id="path5650"
         style="text-indent:0pt;text-transform:none;fill:#000080"
         inkscape:connector-curvature="0"
         d="m -6.5063,1067.4 c -15.063,36.136 -20.301,14.551 -28.284,9.0914 -2.8071,-7.1035 2.6053,-11.858 6.0609,-17.173 0.51344,-33.992 2.1968,-65.644 1.0102,-103.04 -27.021,-24.749 -60.422,-36.74 -95.964,-44.447 -3.5712,48.783 -15.545,68.159 -24.244,98.995 0.69051,4.8336 -7.7111,9.3333 -12.122,10.102 -6.1957,1.079 -20.579,-7.7049 -18.183,-10.102 12.564,-22.774 24.391,-46.408 31.315,-75.762 -4.3828,-52.619 5.334,-100.04 -15.152,-158.59 l -17.173,-90.914 c 1.7862,-18.927 -4.6309,-31.17 21.213,-69.701 4.23,-12.269 10.343,-22.656 11.112,-38.386 -9.4887,-3.9678 -18.439,-8.5818 -23.234,-18.183 0.52225,-5.1516 -1.0346,-11.689 2.0203,-15.152 19.518,-21.139 75.609,-25.916 130.31,-31.315 9.3085,0.93085 -52.591,-124.92 -59.599,-133.34 -32.838,-39.434 -50.024,-211.34 -28.284,-216.17 4.6073,-0.76353 8.6789,-3.6704 14.142,-1.0102 84.251,-42.645 183.79,-45.545 294.96,-18.183 71.754,-14.222 127.21,-0.1963 158.59,55.558 12.852,33.269 10.002,69.156 7.0711,105.06 -1.0414,78.462 43.292,90.195 86.873,103.04 20.771,-0.75985 39.464,-9.8294 62.629,-1.0102 8.3261,1.5305 18.862,-1.3581 22.223,10.102 46.018,-1.1348 76.079,6.5952 73.741,32.325 -10.252,25.098 -23.536,19.869 -36.365,19.193 -12.658,-6.7344 -12.455,-13.469 -9.0914,-20.203 -31.231,-14.343 -43.542,2.0599 -53.538,22.223 2.3605,46.765 9.3617,42.483 14.142,62.629 23.351,14.247 55.308,16.446 66.67,47.477 v 32.325 c 26.766,26.181 7.78,62.165 -1.0102,95.964 55.277,13.72 114.16,32.85 164.65,39.396 2.2745,13.805 1.0822,27.611 -2.0203,41.416 l -5.0508,9.0914 c -5.0591,28.85 -6.0332,31.651 -9.0914,47.477 -4.6727,19.33 -2.0284,33.173 4.0406,44.447 l -13.132,7.0711 -3.0304,-13.132 c -20.11,29.251 -18.403,-61.659 -17.173,-73.741 0.19235,-1.8887 -110.43,50.987 -102.03,38.386 5.2106,12.476 -4.4737,54.741 -9.0914,86.873 -1.8488,3.0367 -3.397,6.6746 -7.0711,6.0609 3.3828,4.4654 1.0277,7.4964 1.0102,11.112 h -7.0711 c -4.3063,1.4354 -15.136,-10.935 -13.132,-15.152 1.4144,-2.9756 -5.3065,-55.814 -7.0711,-57.579 -4.9732,0 -3.5583,-30.872 -2.0203,-31.315 4.755,-1.3673 -123.34,-33.955 -122.23,-38.386 -6.0084,9.3564 -4.2751,28.003 -6.0609,42.426 -11.35,15.131 -14.184,22.597 -16.162,29.294 l -2.0203,8.0812 h -8.0812 c -1.4177,-2.9596 -4.1514,-4.6033 -2.0203,-11.112 -4.0793,-2.3473 -3.5562,-5.8452 -4.0406,-9.0913 4.2859,-4.8813 9.4315,-7.3983 10.102,-22.223 -7.0467,-13.966 -14.418,-27.787 -13.132,-45.457 1.7149,-3.4279 2.7289,-7.3814 8.0812,-8.0812 l 1.0102,-2.0203 c -1.1399,-12.969 -4.5448,-25.615 7.0711,-40.406 -4.4338,-11.985 91.262,-34.249 135.36,-50.508 12.424,-17.552 8.3759,-32.752 1.0102,-47.477 -22.549,7.2567 -47.514,9.5444 -66.67,19.193 -5.0508,10.587 -10.102,20.215 -15.152,12.122 -30.221,17.554 -28.943,7.7171 -39.396,8.0812 -6.6443,5.7893 -13.387,12.615 -18.183,-1.0102 -36.603,6.4969 -67.922,18.278 -95.964,33.335 -26.455,15.364 -13.778,44.339 -20.203,66.67 0,0 -6.045,-2.8402 -9.0914,0 -3.7468,3.4933 -6.0414,78.392 -4.0406,78.792 1.5174,5.6228 5.4627,10.76 -2.0203,18.183 5.2005,4.0406 5.4893,8.0812 5.0508,12.122 -3.157,2.8199 -7.2733,5.0641 -15.152,5.0508 -5.3875,-2.7316 -10.775,-0.4433 -16.162,-9.0914 l -1.0102,-11.112 c -4.3313,-6.3976 -0.90218,-12.795 -1.0102,-19.193 -0.73784,0.2108 0.10157,-76.715 1.0102,-75.761 3.1419,3.2968 -9.7104,6.9894 -7.0711,3.0305 -3.8608,-32.754 -7.6205,-65.628 -27.274,-79.802 -21.744,-6.5918 -45.1,-14.796 -69.701,-24.244 3.6811,4.9908 1.9094,9.0729 0,13.132 2.8572,0 -6.5558,93.73 -11.112,96.975 -11.423,8.1351 -8.6411,142.77 -3.0305,139.4 4.1244,25.903 21.008,44.613 26.264,62.63 5.9487,1.9081 11.159,5.2928 16.162,9.0913 -2.1529,18.122 -10.501,17.657 -19.193,16.162 -11.346,-1.5117 -16.293,-23.82 -24.244,-36.366 -21.846,-46.706 -14.638,-68.309 -21.213,-68.69 -22.084,-1.2802 -90.44,26.516 -87.883,27.274 5.7837,4.2211 6.8261,8.969 4.0406,14.142 -7.0046,2.2928 -13.083,1.3433 -18.183,-3.0305 -5.3587,41.443 -2.0708,70.781 -3.0304,106.07 z M 7.6357,679.5 c -11.422,3.4409 -6.435,173.26 -5.0508,178.8 17.497,18.164 21.337,39.86 91.098,44.508 2.481,-66.939 6.1771,-128.94 1.8365,-207.14 -6.3866,-10.778 -6.2553,-23.418 -19.193,-32.325 -5.2739,10.48 -14.308,8.4247 -22.223,10.102 -1.0775,10.034 -16.642,5.5817 -27.274,6.0609 -16.43,-12.348 -13.768,-1.1978 -19.193,0 z m -132.33,-21.17 c -19.147,14.892 -6.7003,126.09 -3.0304,126.27 4.6202,0.22991 6.3849,112.47 5.0508,113.14 29.968,-7.8542 59.936,-10.727 89.904,-26.264 -3.0305,-35.355 2.9222,-68.914 -9.0914,-106.07 -5.99,1.5062 -12.326,0.58823 -20.203,-11.112 -0.25123,-10.317 0.71868,-19.587 7.0711,-24.244 11.634,-10.439 16.127,-26.02 4.0406,-53.538 -12.283,-12.582 -24.215,-0.0811 -36.365,0 l -12.122,-8.0812 -25.254,-10.102 z" />
    </g>
  </g>
</svg>
