<?xml version="1.0" encoding="UTF-8" standalone="no"?>
<svg
   xmlns:dc="http://purl.org/dc/elements/1.1/"
   xmlns:cc="http://creativecommons.org/ns#"
   xmlns:rdf="http://www.w3.org/1999/02/22-rdf-syntax-ns#"
   xmlns:svg="http://www.w3.org/2000/svg"
   xmlns="http://www.w3.org/2000/svg"
   xmlns:sodipodi="http://sodipodi.sourceforge.net/DTD/sodipodi-0.dtd"
   xmlns:inkscape="http://www.inkscape.org/namespaces/inkscape"
   id="svg2"
   xml:space="preserve"
   viewBox="-4.718 167.7 50.000001 50.000001"
   inkscape:export-ydpi="50.415062"
   inkscape:export-xdpi="50.415062"
   version="1.1"
   sodipodi:docname="nom-de-les-lletres.svg"
   inkscape:export-filename="/home/petri/Desktop/Omat Open ClipArt kuvat/ABC_Block.png"
   inkscape:version="1.0.1 (3bc2e813f5, 2020-09-07)"
   sodipodi:version="0.32"
   y="0px"
   x="0px"
   width="50"
   height="50"><defs
   id="defs491" />
<sodipodi:namedview
   id="base"
   bordercolor="#666666"
   inkscape:window-x="-8"
   inkscape:window-y="-8"
   pagecolor="#ffffff"
   inkscape:zoom="3.4472044"
   inkscape:pageshadow="2"
   borderopacity="1.0"
   inkscape:current-layer="g1370"
   inkscape:cx="103.60273"
   inkscape:cy="46.164881"
   inkscape:window-height="705"
   showborder="false"
   inkscape:pageopacity="0.0"
   inkscape:window-width="1366"
   inkscape:document-units="px"
   inkscape:document-rotation="0"
   showgrid="false"
   inkscape:window-maximized="1">
	</sodipodi:namedview>
<g
   id="layer1"
   inkscape:label="Layer 1"
   inkscape:groupmode="layer">
	<g
   id="g1370"
   inkscape:label="Layer 1"
   inkscape:groupmode="layer"
   transform="translate(-459.9,-181.94)">
			<linearGradient
   id="rect1291_1_"
   y2="492.10999"
   gradientUnits="userSpaceOnUse"
   x2="414.69"
   gradientTransform="matrix(0.9989,0,0,-1.0011,15.596,1282.4)"
   y1="492.10999"
   x1="408.06">
			<stop
   style="stop-color:#CDB16A"
   offset="0"
   id="stop3" />
			<stop
   style="stop-color:#AD9D5F"
   offset=".0944"
   id="stop5" />
			<stop
   style="stop-color:#B7A154"
   offset=".1416"
   id="stop7" />
			<stop
   style="stop-color:#C28947"
   offset=".1652"
   id="stop9" />
			<stop
   style="stop-color:#C9AC46"
   offset=".1888"
   id="stop11" />
			<stop
   style="stop-color:#C0891F"
   offset=".1888"
   id="stop13" />
			<stop
   style="stop-color:#BA883A"
   offset=".1888"
   id="stop15" />
			<stop
   style="stop-color:#BDA976"
   offset=".1888"
   id="stop17" />
			<stop
   style="stop-color:#C5AD4A"
   offset=".7132"
   id="stop19" />
			<stop
   style="stop-color:#CDA955"
   offset=".7263"
   id="stop21" />
			<stop
   style="stop-color:#D5AD43"
   offset=".7263"
   id="stop23" />
			<stop
   style="stop-color:#D7A13C"
   offset=".7394"
   id="stop25" />
			<stop
   style="stop-color:#B5955B"
   offset=".7525"
   id="stop27" />
			<stop
   style="stop-color:#BEB459"
   offset=".7656"
   id="stop29" />
			<stop
   style="stop-color:#B8A46C"
   offset=".8173"
   id="stop31" />
			<stop
   style="stop-color:#A39E35"
   offset=".869"
   id="stop33" />
			<stop
   style="stop-color:#A8A056"
   offset="1"
   id="stop35" />
		</linearGradient>
		<rect
   id="rect1291"
   style="fill:#e3dbdb;stroke-width:0.0889701"
   height="19.690302"
   width="18.655499"
   y="379.94058"
   x="455.18634" />
			<linearGradient
   id="rect1293_1_"
   y2="113.92"
   gradientUnits="userSpaceOnUse"
   x2="779.90002"
   gradientTransform="matrix(1.5188,0.0028,0.5171,-0.4075,-703.19,688.55)"
   y1="119.42"
   x1="768.13">
			<stop
   style="stop-color:#CDB16A"
   offset="0"
   id="stop39" />
			<stop
   style="stop-color:#AD9D5F"
   offset=".0944"
   id="stop41" />
			<stop
   style="stop-color:#B7A154"
   offset=".1416"
   id="stop43" />
			<stop
   style="stop-color:#C28947"
   offset=".1652"
   id="stop45" />
			<stop
   style="stop-color:#C9AC46"
   offset=".1888"
   id="stop47" />
			<stop
   style="stop-color:#C0891F"
   offset=".1888"
   id="stop49" />
			<stop
   style="stop-color:#BA883A"
   offset=".1888"
   id="stop51" />
			<stop
   style="stop-color:#BDA976"
   offset=".1888"
   id="stop53" />
			<stop
   style="stop-color:#C5AD4A"
   offset=".7132"
   id="stop55" />
			<stop
   style="stop-color:#CDA955"
   offset=".7263"
   id="stop57" />
			<stop
   style="stop-color:#D5AD43"
   offset=".7263"
   id="stop59" />
			<stop
   style="stop-color:#D7A13C"
   offset=".7394"
   id="stop61" />
			<stop
   style="stop-color:#B5955B"
   offset=".7525"
   id="stop63" />
			<stop
   style="stop-color:#BEB459"
   offset=".7656"
   id="stop65" />
			<stop
   style="stop-color:#B8A46C"
   offset=".8173"
   id="stop67" />
			<stop
   style="stop-color:#A39E35"
   offset=".869"
   id="stop69" />
			<stop
   style="stop-color:#A8A056"
   offset="1"
   id="stop71" />
		</linearGradient>
		<polygon
   id="rect1293"
   style="fill:#e3dbdb"
   points="528.47,624.19 743.7,624.59 670.41,682.35 455.18,681.95 "
   transform="matrix(0.08669718,0,0,0.09130252,415.72092,317.67864)" />
			<linearGradient
   id="rect1295_1_"
   y2="528.34998"
   gradientUnits="userSpaceOnUse"
   x2="864.96002"
   gradientTransform="matrix(-3.3259e-5,1.5124,-0.5202,0.4082,1017.5,-806.72)"
   y1="508.59"
   x1="861.95001">
			<stop
   style="stop-color:#CDB16A"
   offset="0"
   id="stop75" />
			<stop
   style="stop-color:#AD9D5F"
   offset=".0944"
   id="stop77" />
			<stop
   style="stop-color:#B7A154"
   offset=".1416"
   id="stop79" />
			<stop
   style="stop-color:#C28947"
   offset=".1652"
   id="stop81" />
			<stop
   style="stop-color:#C9AC46"
   offset=".1888"
   id="stop83" />
			<stop
   style="stop-color:#C0891F"
   offset=".1888"
   id="stop85" />
			<stop
   style="stop-color:#BA883A"
   offset=".1888"
   id="stop87" />
			<stop
   style="stop-color:#BDA976"
   offset=".1888"
   id="stop89" />
			<stop
   style="stop-color:#C5AD4A"
   offset=".7132"
   id="stop91" />
			<stop
   style="stop-color:#CDA955"
   offset=".7263"
   id="stop93" />
			<stop
   style="stop-color:#D5AD43"
   offset=".7263"
   id="stop95" />
			<stop
   style="stop-color:#D7A13C"
   offset=".7394"
   id="stop97" />
			<stop
   style="stop-color:#B5955B"
   offset=".7525"
   id="stop99" />
			<stop
   style="stop-color:#BEB459"
   offset=".7656"
   id="stop101" />
			<stop
   style="stop-color:#B8A46C"
   offset=".8173"
   id="stop103" />
			<stop
   style="stop-color:#A39E35"
   offset=".869"
   id="stop105" />
			<stop
   style="stop-color:#A8A056"
   offset="1"
   id="stop107" />
		</linearGradient>
		<polygon
   id="rect1295"
   style="fill:#e3dbdb"
   points="669.75,682.56 669.75,897.69 743.74,839.63 743.75,624.5 "
   transform="matrix(0.08669718,0,0,0.09130252,415.72092,317.67864)" />
		
			<linearGradient
   id="rect4707_1_"
   y2="-404.12"
   gradientUnits="userSpaceOnUse"
   x2="1352.3"
   gradientTransform="matrix(1.5188,0.0028,0.5171,-0.4075,-1340.3,482.83)"
   y1="-403.67999"
   x1="1345.8">
			<stop
   style="stop-color:#CDB16A"
   offset="0"
   id="stop112" />
			<stop
   style="stop-color:#AD9D5F"
   offset=".0944"
   id="stop114" />
			<stop
   style="stop-color:#B7A154"
   offset=".1416"
   id="stop116" />
			<stop
   style="stop-color:#C28947"
   offset=".1652"
   id="stop118" />
			<stop
   style="stop-color:#C9AC46"
   offset=".1888"
   id="stop120" />
			<stop
   style="stop-color:#C0891F"
   offset=".1888"
   id="stop122" />
			<stop
   style="stop-color:#BA883A"
   offset=".1888"
   id="stop124" />
			<stop
   style="stop-color:#BDA976"
   offset=".1888"
   id="stop126" />
			<stop
   style="stop-color:#C5AD4A"
   offset=".7132"
   id="stop128" />
			<stop
   style="stop-color:#CDA955"
   offset=".7263"
   id="stop130" />
			<stop
   style="stop-color:#D5AD43"
   offset=".7263"
   id="stop132" />
			<stop
   style="stop-color:#D7A13C"
   offset=".7394"
   id="stop134" />
			<stop
   style="stop-color:#B5955B"
   offset=".7525"
   id="stop136" />
			<stop
   style="stop-color:#BEB459"
   offset=".7656"
   id="stop138" />
			<stop
   style="stop-color:#B8A46C"
   offset=".8173"
   id="stop140" />
			<stop
   style="stop-color:#A39E35"
   offset=".869"
   id="stop142" />
			<stop
   style="stop-color:#A8A056"
   offset="1"
   id="stop144" />
		</linearGradient>
		<polygon
   id="rect4707"
   style="fill:#e3dbdb"
   points="528.47,624.19 743.7,624.59 670.41,682.35 455.18,681.95 "
   transform="matrix(0.08669718,0,0,0.09130252,415.72092,317.67864)" />
		
		
		
		
		<g
   style="enable-background:new"
   id="g160"
   transform="translate(-32)">
			
		</g>
		<polygon
   id="rect3939"
   style="opacity:0.3898;enable-background:new"
   points="669.21,682.8 669.21,897.93 743.2,839.87 743.2,624.74 "
   transform="matrix(0.08669718,0,0,0.09130252,415.76773,317.65673)" />
		<polygon
   id="rect2194"
   style="opacity:0.1525;enable-background:new"
   points="529.62,622.71 744.85,623.11 671.56,680.86 456.33,680.47 "
   transform="matrix(0.08669718,0,0,0.09130252,415.61948,317.77634)" />
			<linearGradient
   id="rect2962_1_"
   y2="492.10999"
   gradientUnits="userSpaceOnUse"
   x2="414.69"
   gradientTransform="matrix(0.9989,0,0,-1.0011,303.64,1223.8)"
   y1="492.10999"
   x1="408.06">
			<stop
   style="stop-color:#CDB16A"
   offset="0"
   id="stop164" />
			<stop
   style="stop-color:#AD9D5F"
   offset=".0944"
   id="stop166" />
			<stop
   style="stop-color:#B7A154"
   offset=".1416"
   id="stop168" />
			<stop
   style="stop-color:#C28947"
   offset=".1652"
   id="stop170" />
			<stop
   style="stop-color:#C9AC46"
   offset=".1888"
   id="stop172" />
			<stop
   style="stop-color:#C0891F"
   offset=".1888"
   id="stop174" />
			<stop
   style="stop-color:#BA883A"
   offset=".1888"
   id="stop176" />
			<stop
   style="stop-color:#BDA976"
   offset=".1888"
   id="stop178" />
			<stop
   style="stop-color:#C5AD4A"
   offset=".7132"
   id="stop180" />
			<stop
   style="stop-color:#CDA955"
   offset=".7263"
   id="stop182" />
			<stop
   style="stop-color:#D5AD43"
   offset=".7263"
   id="stop184" />
			<stop
   style="stop-color:#D7A13C"
   offset=".7394"
   id="stop186" />
			<stop
   style="stop-color:#B5955B"
   offset=".7525"
   id="stop188" />
			<stop
   style="stop-color:#BEB459"
   offset=".7656"
   id="stop190" />
			<stop
   style="stop-color:#B8A46C"
   offset=".8173"
   id="stop192" />
			<stop
   style="stop-color:#A39E35"
   offset=".869"
   id="stop194" />
			<stop
   style="stop-color:#A8A056"
   offset="1"
   id="stop196" />
		</linearGradient>
		
			<linearGradient
   id="rect2964_1_"
   y2="113.92"
   gradientUnits="userSpaceOnUse"
   x2="779.90002"
   gradientTransform="matrix(1.5188,0.0028,0.5171,-0.4075,-415.14,629.97)"
   y1="119.42"
   x1="768.13">
			<stop
   style="stop-color:#CDB16A"
   offset="0"
   id="stop200" />
			<stop
   style="stop-color:#AD9D5F"
   offset=".0944"
   id="stop202" />
			<stop
   style="stop-color:#B7A154"
   offset=".1416"
   id="stop204" />
			<stop
   style="stop-color:#C28947"
   offset=".1652"
   id="stop206" />
			<stop
   style="stop-color:#C9AC46"
   offset=".1888"
   id="stop208" />
			<stop
   style="stop-color:#C0891F"
   offset=".1888"
   id="stop210" />
			<stop
   style="stop-color:#BA883A"
   offset=".1888"
   id="stop212" />
			<stop
   style="stop-color:#BDA976"
   offset=".1888"
   id="stop214" />
			<stop
   style="stop-color:#C5AD4A"
   offset=".7132"
   id="stop216" />
			<stop
   style="stop-color:#CDA955"
   offset=".7263"
   id="stop218" />
			<stop
   style="stop-color:#D5AD43"
   offset=".7263"
   id="stop220" />
			<stop
   style="stop-color:#D7A13C"
   offset=".7394"
   id="stop222" />
			<stop
   style="stop-color:#B5955B"
   offset=".7525"
   id="stop224" />
			<stop
   style="stop-color:#BEB459"
   offset=".7656"
   id="stop226" />
			<stop
   style="stop-color:#B8A46C"
   offset=".8173"
   id="stop228" />
			<stop
   style="stop-color:#A39E35"
   offset=".869"
   id="stop230" />
			<stop
   style="stop-color:#A8A056"
   offset="1"
   id="stop232" />
		</linearGradient>
		
			<linearGradient
   id="rect2966_1_"
   y2="528.34998"
   gradientUnits="userSpaceOnUse"
   x2="864.96002"
   gradientTransform="matrix(-3.3259e-5,1.5124,-0.5202,0.4082,1305.5,-865.3)"
   y1="508.59"
   x1="861.95001">
			<stop
   style="stop-color:#CDB16A"
   offset="0"
   id="stop236" />
			<stop
   style="stop-color:#AD9D5F"
   offset=".0944"
   id="stop238" />
			<stop
   style="stop-color:#B7A154"
   offset=".1416"
   id="stop240" />
			<stop
   style="stop-color:#C28947"
   offset=".1652"
   id="stop242" />
			<stop
   style="stop-color:#C9AC46"
   offset=".1888"
   id="stop244" />
			<stop
   style="stop-color:#C0891F"
   offset=".1888"
   id="stop246" />
			<stop
   style="stop-color:#BA883A"
   offset=".1888"
   id="stop248" />
			<stop
   style="stop-color:#BDA976"
   offset=".1888"
   id="stop250" />
			<stop
   style="stop-color:#C5AD4A"
   offset=".7132"
   id="stop252" />
			<stop
   style="stop-color:#CDA955"
   offset=".7263"
   id="stop254" />
			<stop
   style="stop-color:#D5AD43"
   offset=".7263"
   id="stop256" />
			<stop
   style="stop-color:#D7A13C"
   offset=".7394"
   id="stop258" />
			<stop
   style="stop-color:#B5955B"
   offset=".7525"
   id="stop260" />
			<stop
   style="stop-color:#BEB459"
   offset=".7656"
   id="stop262" />
			<stop
   style="stop-color:#B8A46C"
   offset=".8173"
   id="stop264" />
			<stop
   style="stop-color:#A39E35"
   offset=".869"
   id="stop266" />
			<stop
   style="stop-color:#A8A056"
   offset="1"
   id="stop268" />
		</linearGradient>
		
		
			<linearGradient
   id="rect2970_1_"
   y2="-404.12"
   gradientUnits="userSpaceOnUse"
   x2="1352.3"
   gradientTransform="matrix(1.5188,0.0028,0.5171,-0.4075,-1052.3,424.26)"
   y1="-403.67999"
   x1="1345.8">
			<stop
   style="stop-color:#CDB16A"
   offset="0"
   id="stop273" />
			<stop
   style="stop-color:#AD9D5F"
   offset=".0944"
   id="stop275" />
			<stop
   style="stop-color:#B7A154"
   offset=".1416"
   id="stop277" />
			<stop
   style="stop-color:#C28947"
   offset=".1652"
   id="stop279" />
			<stop
   style="stop-color:#C9AC46"
   offset=".1888"
   id="stop281" />
			<stop
   style="stop-color:#C0891F"
   offset=".1888"
   id="stop283" />
			<stop
   style="stop-color:#BA883A"
   offset=".1888"
   id="stop285" />
			<stop
   style="stop-color:#BDA976"
   offset=".1888"
   id="stop287" />
			<stop
   style="stop-color:#C5AD4A"
   offset=".7132"
   id="stop289" />
			<stop
   style="stop-color:#CDA955"
   offset=".7263"
   id="stop291" />
			<stop
   style="stop-color:#D5AD43"
   offset=".7263"
   id="stop293" />
			<stop
   style="stop-color:#D7A13C"
   offset=".7394"
   id="stop295" />
			<stop
   style="stop-color:#B5955B"
   offset=".7525"
   id="stop297" />
			<stop
   style="stop-color:#BEB459"
   offset=".7656"
   id="stop299" />
			<stop
   style="stop-color:#B8A46C"
   offset=".8173"
   id="stop301" />
			<stop
   style="stop-color:#A39E35"
   offset=".869"
   id="stop303" />
			<stop
   style="stop-color:#A8A056"
   offset="1"
   id="stop305" />
		</linearGradient>
		<g
   id="g419"
   style="fill:#e3dbdb"
   transform="matrix(0.08669718,0,0,0.09130252,418.49523,317.67864)"><rect
     id="rect2962"
     style="fill:#e3dbdb"
     height="215.66"
     width="215.17999"
     y="623.34998"
     x="711.25" /><polygon
     id="rect2964"
     style="fill:#e3dbdb"
     points="816.51,565.61 1031.7,566.01 958.45,623.77 743.22,623.37 "
     transform="translate(-32)" /><polygon
     id="rect2966"
     style="fill:#e3dbdb"
     points="957.8,623.98 957.79,839.11 1031.8,781.05 1031.8,565.92 "
     transform="translate(-32)" /><polygon
     id="rect2970"
     style="fill:#e3dbdb"
     points="816.51,565.61 1031.7,566.01 958.45,623.77 743.22,623.37 "
     transform="translate(-32)" /></g>
		
		
		
		
		
		<polygon
   id="rect2988"
   style="opacity:0.3898;enable-background:new"
   points="957.31,623.61 957.3,838.74 1031.3,780.69 1031.3,565.56 "
   transform="matrix(0.08669718,0,0,0.09130252,415.7712,317.74255)" />
		<polygon
   id="rect2990"
   style="opacity:0.1525;enable-background:new"
   points="815.44,565.28 1030.7,565.67 957.38,623.43 742.15,623.03 "
   transform="matrix(0.08669718,0,0,0.09130252,415.76513,317.75899)" />
			<linearGradient
   id="rect3017_1_"
   y2="492.10999"
   gradientUnits="userSpaceOnUse"
   x2="414.69"
   gradientTransform="matrix(0.9989,0,0,-1.0011,87.8,1008.9)"
   y1="492.10999"
   x1="408.06">
			<stop
   style="stop-color:#CDB16A"
   offset="0"
   id="stop325" />
			<stop
   style="stop-color:#AD9D5F"
   offset=".0944"
   id="stop327" />
			<stop
   style="stop-color:#B7A154"
   offset=".1416"
   id="stop329" />
			<stop
   style="stop-color:#C28947"
   offset=".1652"
   id="stop331" />
			<stop
   style="stop-color:#C9AC46"
   offset=".1888"
   id="stop333" />
			<stop
   style="stop-color:#C0891F"
   offset=".1888"
   id="stop335" />
			<stop
   style="stop-color:#BA883A"
   offset=".1888"
   id="stop337" />
			<stop
   style="stop-color:#BDA976"
   offset=".1888"
   id="stop339" />
			<stop
   style="stop-color:#C5AD4A"
   offset=".7132"
   id="stop341" />
			<stop
   style="stop-color:#CDA955"
   offset=".7263"
   id="stop343" />
			<stop
   style="stop-color:#D5AD43"
   offset=".7263"
   id="stop345" />
			<stop
   style="stop-color:#D7A13C"
   offset=".7394"
   id="stop347" />
			<stop
   style="stop-color:#B5955B"
   offset=".7525"
   id="stop349" />
			<stop
   style="stop-color:#BEB459"
   offset=".7656"
   id="stop351" />
			<stop
   style="stop-color:#B8A46C"
   offset=".8173"
   id="stop353" />
			<stop
   style="stop-color:#A39E35"
   offset=".869"
   id="stop355" />
			<stop
   style="stop-color:#A8A056"
   offset="1"
   id="stop357" />
		</linearGradient>
		
			<linearGradient
   id="rect3019_1_"
   y2="113.92"
   gradientUnits="userSpaceOnUse"
   x2="779.90002"
   gradientTransform="matrix(1.5188,0.0028,0.5171,-0.4075,-630.98,415.08)"
   y1="119.42"
   x1="768.13">
			<stop
   style="stop-color:#CDB16A"
   offset="0"
   id="stop361" />
			<stop
   style="stop-color:#AD9D5F"
   offset=".0944"
   id="stop363" />
			<stop
   style="stop-color:#B7A154"
   offset=".1416"
   id="stop365" />
			<stop
   style="stop-color:#C28947"
   offset=".1652"
   id="stop367" />
			<stop
   style="stop-color:#C9AC46"
   offset=".1888"
   id="stop369" />
			<stop
   style="stop-color:#C0891F"
   offset=".1888"
   id="stop371" />
			<stop
   style="stop-color:#BA883A"
   offset=".1888"
   id="stop373" />
			<stop
   style="stop-color:#BDA976"
   offset=".1888"
   id="stop375" />
			<stop
   style="stop-color:#C5AD4A"
   offset=".7132"
   id="stop377" />
			<stop
   style="stop-color:#CDA955"
   offset=".7263"
   id="stop379" />
			<stop
   style="stop-color:#D5AD43"
   offset=".7263"
   id="stop381" />
			<stop
   style="stop-color:#D7A13C"
   offset=".7394"
   id="stop383" />
			<stop
   style="stop-color:#B5955B"
   offset=".7525"
   id="stop385" />
			<stop
   style="stop-color:#BEB459"
   offset=".7656"
   id="stop387" />
			<stop
   style="stop-color:#B8A46C"
   offset=".8173"
   id="stop389" />
			<stop
   style="stop-color:#A39E35"
   offset=".869"
   id="stop391" />
			<stop
   style="stop-color:#A8A056"
   offset="1"
   id="stop393" />
		</linearGradient>
		
			<linearGradient
   id="rect3021_1_"
   y2="528.34998"
   gradientUnits="userSpaceOnUse"
   x2="864.96002"
   gradientTransform="matrix(-3.3259e-5,1.5124,-0.5202,0.4082,1089.7,-1080.2)"
   y1="508.59"
   x1="861.95001">
			<stop
   style="stop-color:#CDB16A"
   offset="0"
   id="stop397" />
			<stop
   style="stop-color:#AD9D5F"
   offset=".0944"
   id="stop399" />
			<stop
   style="stop-color:#B7A154"
   offset=".1416"
   id="stop401" />
			<stop
   style="stop-color:#C28947"
   offset=".1652"
   id="stop403" />
			<stop
   style="stop-color:#C9AC46"
   offset=".1888"
   id="stop405" />
			<stop
   style="stop-color:#C0891F"
   offset=".1888"
   id="stop407" />
			<stop
   style="stop-color:#BA883A"
   offset=".1888"
   id="stop409" />
			<stop
   style="stop-color:#BDA976"
   offset=".1888"
   id="stop411" />
			<stop
   style="stop-color:#C5AD4A"
   offset=".7132"
   id="stop413" />
			<stop
   style="stop-color:#CDA955"
   offset=".7263"
   id="stop415" />
			<stop
   style="stop-color:#D5AD43"
   offset=".7263"
   id="stop417" />
			<stop
   style="stop-color:#D7A13C"
   offset=".7394"
   id="stop419" />
			<stop
   style="stop-color:#B5955B"
   offset=".7525"
   id="stop421" />
			<stop
   style="stop-color:#BEB459"
   offset=".7656"
   id="stop423" />
			<stop
   style="stop-color:#B8A46C"
   offset=".8173"
   id="stop425" />
			<stop
   style="stop-color:#A39E35"
   offset=".869"
   id="stop427" />
			<stop
   style="stop-color:#A8A056"
   offset="1"
   id="stop429" />
		</linearGradient>
		
		
			<linearGradient
   id="rect3025_1_"
   y2="-404.12"
   gradientUnits="userSpaceOnUse"
   x2="1352.3"
   gradientTransform="matrix(1.5188,0.0028,0.5171,-0.4075,-1268.1,209.36)"
   y1="-403.67999"
   x1="1345.8">
			<stop
   style="stop-color:#CDB16A"
   offset="0"
   id="stop434" />
			<stop
   style="stop-color:#AD9D5F"
   offset=".0944"
   id="stop436" />
			<stop
   style="stop-color:#B7A154"
   offset=".1416"
   id="stop438" />
			<stop
   style="stop-color:#C28947"
   offset=".1652"
   id="stop440" />
			<stop
   style="stop-color:#C9AC46"
   offset=".1888"
   id="stop442" />
			<stop
   style="stop-color:#C0891F"
   offset=".1888"
   id="stop444" />
			<stop
   style="stop-color:#BA883A"
   offset=".1888"
   id="stop446" />
			<stop
   style="stop-color:#BDA976"
   offset=".1888"
   id="stop448" />
			<stop
   style="stop-color:#C5AD4A"
   offset=".7132"
   id="stop450" />
			<stop
   style="stop-color:#CDA955"
   offset=".7263"
   id="stop452" />
			<stop
   style="stop-color:#D5AD43"
   offset=".7263"
   id="stop454" />
			<stop
   style="stop-color:#D7A13C"
   offset=".7394"
   id="stop456" />
			<stop
   style="stop-color:#B5955B"
   offset=".7525"
   id="stop458" />
			<stop
   style="stop-color:#BEB459"
   offset=".7656"
   id="stop460" />
			<stop
   style="stop-color:#B8A46C"
   offset=".8173"
   id="stop462" />
			<stop
   style="stop-color:#A39E35"
   offset=".869"
   id="stop464" />
			<stop
   style="stop-color:#A8A056"
   offset="1"
   id="stop466" />
		</linearGradient>
		<g
   id="g413"
   style="fill:#e3dbdb"
   transform="matrix(0.08669718,0,0,0.09130252,418.49523,317.67864)"><rect
     id="rect3017"
     style="fill:#e3dbdb"
     height="215.66"
     width="215.17999"
     y="408.45999"
     x="495.41998" /><polygon
     id="rect3019"
     style="fill:#e3dbdb"
     points="600.67,350.72 815.9,351.12 742.62,408.88 527.39,408.48 "
     transform="translate(-32)" /><polygon
     id="rect3021"
     style="fill:#e3dbdb"
     points="741.96,409.09 741.96,624.22 815.95,566.16 815.96,351.03 "
     transform="translate(-32)" /><polygon
     id="rect3025"
     style="fill:#e3dbdb"
     points="600.67,350.72 815.9,351.12 742.62,408.88 527.39,408.48 "
     transform="translate(-32)" /></g>
		
		
		
		
		
		<polygon
   id="rect3043"
   style="opacity:0.3898;enable-background:new"
   points="741.14,409.08 741.14,624.21 815.13,566.16 815.14,351.02 "
   transform="matrix(0.08669718,0,0,0.09130252,415.83882,317.59099)" />
		<polygon
   id="rect3045"
   style="opacity:0.1525;enable-background:new"
   points="601.98,349.64 817.21,350.03 743.93,407.79 528.7,407.39 "
   transform="matrix(0.08669718,0,0,0.09130252,415.55012,317.79734)" />
	<g
   id="g378"
   transform="matrix(0.08669718,0,0,0.09130252,458.36481,322.41682)"><g
     id="g295"
     transform="translate(-447.6078,-55.918639)"><path
       style="fill:#000080;stroke-width:0.58018"
       d="m 482.17216,663.68681 c 8.04692,-0.43733 16.13409,-1.50754 21.04369,-2.78481 14.36649,-3.73756 62.03868,-18.74637 62.85443,-19.7887 0.46292,-0.59151 3.13579,-0.98853 9.57297,-1.42197 4.9119,-0.33073 10.98908,-0.8713 13.50486,-1.20125 2.51577,-0.32996 4.76192,-0.38687 4.99146,-0.12648 0.22953,0.26039 2.46596,4.85041 4.96984,10.20005 5.88527,12.57409 6.62509,13.47672 11.7166,14.29518 2.15454,0.34634 5.48383,0.71227 7.39842,0.81318 1.9146,0.10091 -9.96459,0.19444 -26.3982,0.20784 -18.47721,0.0151 -27.40356,-0.14211 -23.39161,-0.41191 3.56822,-0.23996 6.78991,-0.62309 7.15931,-0.85139 0.76548,-0.47309 0.33967,-3.53506 -0.9066,-6.51915 l -0.78748,-1.88558 h -20.21261 -20.21262 l -8.39087,2.82838 c -11.48347,3.87083 -12.73305,4.51418 -10.93106,5.62788 0.35794,0.22121 3.2951,0.58953 6.52703,0.81847 3.57923,0.25355 -3.42219,0.40794 -17.91116,0.39497 -13.08307,-0.0117 -22.35145,-0.0993 -20.5964,-0.19471 z m 91.62114,-11.36058 c -0.026,-0.71797 -0.48575,-3.13297 -1.02157,-5.36667 -0.81332,-3.39045 -1.18683,-4.09162 -2.26136,-4.24508 -1.34466,-0.19204 -31.94054,9.46936 -32.90199,10.3896 -0.33131,0.31712 6.78525,0.52756 17.84055,0.52756 h 18.39171 z"
       id="path495" /></g><g
     id="g314"
     transform="translate(-457.83834,-54.152922)"><g
       id="g299"
       transform="translate(-1.04091,-4.55578)"><path
         style="fill:#000080;stroke-width:0.58018"
         d="m 649.08641,874.82537 -1.27278,-2.75585 -0.1576,-88.59946 c -0.16762,-94.23521 -0.19702,-93.07897 2.51169,-98.78716 0.67719,-1.42706 3.63741,-4.12877 9.75236,-8.90071 4.82902,-3.76843 16.00257,-12.51312 24.83012,-19.43265 8.82754,-6.91953 16.45498,-12.58097 16.94986,-12.58097 1.16236,0 1.99825,1.60381 2.63771,5.06097 0.28195,1.5243 0.5871,42.19472 0.67811,90.37869 0.15486,81.98255 0.0999,87.87565 -0.85552,91.78818 -0.56154,2.29953 -1.59009,5.02497 -2.28566,6.05654 -1.17512,1.74277 -50.01268,40.51124 -51.04775,40.52298 -0.25727,0.003 -1.04051,-1.23484 -1.74054,-2.75056 z m 27.88894,-34.12738 c 15.5881,-12.18314 19.4735,-15.4962 20.43798,-17.42736 2.88634,-5.77929 2.90686,-6.35008 2.90325,-80.7774 -0.002,-40.71393 -0.22959,-70.80683 -0.5504,-72.76551 -0.70023,-4.27529 -1.76665,-6.48372 -3.22284,-6.67413 -1.25604,-0.16423 -39.07857,29.16446 -40.97196,31.77085 -0.57951,0.79775 -1.51489,3.01693 -2.07861,4.93153 -0.95101,3.22996 -1.03716,8.60817 -1.19413,74.55317 -0.116,48.73496 0.0274,72.34815 0.45636,75.13225 0.75254,4.88456 1.88434,6.88998 3.69333,6.54416 0.70395,-0.13456 9.94111,-7.01397 20.52702,-15.28756 z"
         id="path497" /><path
         style="fill:#000080;stroke-width:0.58018"
         d="m 652.74516,837.73067 c 0,-2.21523 0.28951,-3.16477 1.2221,-4.00818 2.78314,-2.51701 4.32105,-7.34731 6.26299,-19.671 5.07488,-32.20546 13.47106,-93.38078 13.47634,-98.18981 0.004,-3.87226 0.20131,-4.55252 2.52102,-8.70271 1.38403,-2.47615 3.11793,-6.18814 3.85312,-8.24885 l 1.33671,-3.74676 2.73182,26.0837 c 1.50249,14.34603 3.42435,32.74126 4.27079,40.87829 3.59952,34.60322 4.41487,38.19937 7.93799,35.01099 1.01455,-0.91816 1.061,-0.83212 1.061,1.96528 v 2.92547 l -4.2063,3.39061 c -2.31347,1.86483 -6.49077,5.43498 -9.28289,7.93366 l -5.07658,4.54304 v -2.72141 c 0,-2.29527 0.31798,-3.07336 2.03063,-4.96907 1.80869,-2.002 2.03064,-2.6009 2.03064,-5.47945 0,-3.33724 -2.06399,-27.48821 -2.63867,-30.87531 l -0.32413,-1.91042 -4.17536,3.5935 c -2.29645,1.97642 -5.25994,4.54403 -6.58553,5.7058 l -2.41017,2.11231 -1.84562,14.4803 c -1.01509,7.96416 -1.88862,16.88096 -1.94118,19.81511 -0.1105,6.16854 0.42887,7.29908 2.75513,5.77486 0.80291,-0.52609 1.53429,-0.95668 1.62529,-0.95688 0.091,-2e-4 0.0763,1.28544 -0.0326,2.85698 -0.18949,2.73337 -0.3531,2.97792 -3.77118,5.63647 -1.96519,1.52852 -5.20484,4.33102 -7.19921,6.22778 l -3.62613,3.44864 z m 21.51865,-66.62904 c 5.04641,-4.3698 5.68413,-5.13258 5.45687,-6.52703 -0.14153,-0.86844 -0.93166,-10.06412 -1.75583,-20.43484 -1.62029,-20.38854 -1.80665,-21.90558 -2.59384,-21.11545 -0.38249,0.38391 -7.54116,50.35902 -7.54116,52.64527 0,0.85185 0.97147,0.16213 6.43396,-4.56795 z"
         id="path499" /></g><path
       style="fill:#000080;stroke-width:0.58018"
       d="m 451.66205,674.55132 c -2.33346,-0.55784 -3.23997,-1.14317 -2.82082,-1.82137 0.18615,-0.3012 10.69892,-9.21988 23.36172,-19.81929 25.19238,-21.08732 24.58011,-20.69039 33.76197,-21.88803 7.7964,-1.01694 176.02698,-0.57044 178.54511,0.47387 1.03707,0.43009 1.88559,0.97834 1.88559,1.21834 0,0.49702 -43.57067,37.02834 -46.68058,39.13878 -1.26197,0.85639 -3.96246,1.73376 -7.12037,2.31334 -4.53988,0.83323 -14.45281,0.92719 -92.1144,0.87314 -47.86487,-0.0333 -87.83307,-0.25326 -88.81822,-0.48878 z m 166.07994,-3.56458 c 8.5116,-1.18386 8.69243,-1.29632 28.37014,-17.64519 9.98586,-8.29658 18.31437,-15.45739 18.50778,-15.91292 0.57595,-1.35645 -0.99464,-2.35228 -4.65538,-2.95174 -4.61774,-0.75618 -137.71111,-0.72986 -143.56174,0.0284 -9.2264,1.19575 -8.71359,0.88032 -29.31126,18.02929 -10.36404,8.62877 -18.8437,15.92097 -18.8437,16.20489 0,0.72768 2.24642,1.8594 4.64144,2.3383 3.50999,0.70184 139.76781,0.61623 144.85272,-0.091 z"
       id="path493"
       transform="translate(2.02555,-0.12472)" /><g
       id="g303"><path
         style="fill:#000080;stroke-width:0.58018"
         d="m 443.05379,885.69036 c -3.42734,-0.99332 -7.27945,-4.14494 -9.15558,-7.49067 l -1.78936,-3.19099 -0.15282,-83.22569 c -0.16972,-92.42438 -0.39702,-86.83219 3.72526,-91.64815 1.19867,-1.40037 3.47391,-3.13871 5.098,-3.89497 l 2.93317,-1.36584 85.02754,-0.006 85.02754,-0.006 3.0012,1.49556 c 3.40106,1.69481 5.56218,3.99187 7.3265,7.78732 l 1.21365,2.61081 v 83.83605 83.83606 l -1.33427,2.70857 c -0.73385,1.48971 -2.47135,3.75669 -3.86112,5.03774 -4.80271,4.42698 1.3342,4.15365 -91.94507,4.09505 -48.05339,-0.0302 -84.06524,-0.27538 -85.11464,-0.57952 z m 156.14699,-18.13863 c 1.59549,-0.74456 3.90532,-2.46787 5.13295,-3.82958 4.49306,-4.98379 4.14993,1.08683 4.14993,-73.41978 0,-66.47828 -0.004,-66.73022 -1.21364,-69.33154 -1.74589,-3.75579 -4.02538,-6.21544 -7.41959,-8.006 l -2.97038,-1.56698 H 527.8386 458.79715 l -2.61082,1.2324 c -3.14856,1.48623 -6.03128,4.25925 -7.73393,7.43961 l -1.25886,2.35142 -0.17924,65.85046 c -0.12749,46.83878 0.007,66.71749 0.46716,68.85357 1.06844,4.96393 4.87216,9.23057 9.79856,10.99106 1.66783,0.59602 16.11632,0.75355 70.55858,0.7693 l 68.46127,0.0198 z"
         id="path501" /><path
         style="fill:#000080;stroke-width:0.58018"
         d="m 455.82571,850.56618 c -0.17059,-0.67941 -0.2245,-1.98482 -0.11981,-2.9009 0.18849,-1.64939 0.23551,-1.66859 4.83179,-1.97317 8.59684,-0.56967 12.13291,-3.39379 17.40049,-13.89705 9.34086,-18.62515 37.42654,-84.38665 37.42654,-87.63276 0,-0.69062 -0.4464,-2.01137 -0.99199,-2.935 -0.61962,-1.04892 -0.78296,-1.86339 -0.43514,-2.16968 0.30627,-0.26969 2.64551,-1.07818 5.19831,-1.79663 6.24534,-1.75767 12.54661,-4.42354 16.08641,-6.80565 3.19062,-2.14713 4.08304,-1.99102 4.78768,0.83749 0.21535,0.86443 4.57592,12.79818 9.69015,26.51945 5.11423,13.72126 10.60637,28.73343 12.20475,33.36036 3.75372,10.86608 12.61462,33.96443 16.02479,41.77298 4.30813,9.86469 8.07472,12.76397 16.58224,12.76397 h 3.87923 l -0.17537,2.95519 -0.17537,2.95519 -29.20585,0.01 c -18.29194,0.006 -29.4181,-0.20229 -29.77382,-0.55801 -0.31238,-0.31238 -0.48488,-1.58142 -0.38334,-2.8201 l 0.18463,-2.2521 5.05458,-0.34584 c 2.78001,-0.19021 5.45609,-0.67907 5.94685,-1.08635 1.74051,-1.4445 0.94859,-5.17343 -4.69845,-22.12366 l -5.59072,-16.78117 -20.61681,0.1523 -20.61682,0.15228 -3.65811,9.66219 c -6.37519,16.83879 -7.66203,22.83593 -5.71002,26.61069 1.29324,2.50087 2.87753,3.10927 8.98678,3.45113 l 5.51172,0.30843 v 2.83052 2.83051 l -23.66758,0.0704 -23.66758,0.0704 z m 81.99722,-51.4543 c -0.16114,-0.41991 -3.07632,-9.62302 -6.4782,-20.45136 -9.38705,-29.87946 -8.32601,-27.03398 -10.00372,-26.82801 -1.16761,0.14335 -1.72771,0.85504 -2.87972,3.65905 -4.36143,10.61586 -16.93497,41.96587 -17.27743,43.07838 l -0.40184,1.30541 h 18.66694 c 15.19389,0 18.61243,-0.14205 18.37397,-0.76347 z"
         id="path503" /></g></g></g><g
   id="g389"
   transform="matrix(0.08669718,0,0,0.09130252,376.18455,322.38281)"><g
     id="g358"
     transform="translate(490.06255,-50.784542)"><path
       style="fill:#000080;stroke-width:0.58018"
       d="m 732.33581,824.26162 c -3.77941,-1.30532 -6.76582,-4.0501 -8.58395,-7.88941 l -1.37373,-2.9009 0.007,-84.12615 c 0.007,-81.28577 0.0442,-84.20778 1.10505,-86.54436 0.60388,-1.33003 2.17418,-3.46266 3.48954,-4.73918 4.59639,-4.46064 -2.14942,-4.15761 92.23542,-4.14337 83.68076,0.0126 84.48196,0.0236 87.06876,1.19318 3.1959,1.44501 6.0709,4.12253 7.7382,7.20669 l 1.2546,2.32072 0.1527,83.80812 c 0.173,94.86365 0.5437,87.2841 -4.5164,92.34414 -4.9212,4.9212 2.058,4.5764 -92.1966,4.55496 -79.28926,-0.018 -83.444,-0.0702 -86.38066,-1.08444 z m 158.3856,-18.18704 c 1.49223,-0.8772 3.52459,-2.57423 4.51629,-3.77117 3.6769,-4.43754 3.5387,-1.3849 3.3685,-74.44533 l -0.1547,-66.39401 -1.2565,-2.3468 c -0.6911,-1.29074 -2.4333,-3.43153 -3.87159,-4.75731 -4.87048,-4.48945 -0.41003,-4.25247 -76.72114,-4.0761 l -67.83727,0.15679 -2.97037,1.56697 c -3.39422,1.79056 -5.67371,4.25021 -7.41959,8.006 -1.20894,2.60069 -1.21365,2.866 -1.21365,68.46127 0,36.21776 0.202,66.79945 0.44889,67.95931 0.90334,4.24385 5.50508,9.22775 9.99436,10.82437 1.20251,0.42768 23.17192,0.58686 71.07208,0.51498 l 69.33155,-0.10405 z"
       id="path509" /><path
       style="fill:#000080;stroke-width:0.58018"
       d="m 804.7524,791.06546 c -4.30784,-0.25307 -16.18703,-0.41273 -26.39821,-0.3548 l -18.56577,0.10532 v -2.88676 -2.88675 l 5.88642,-0.29009 c 6.63353,-0.32691 7.8633,-0.95712 8.94391,-4.58337 1.05313,-3.53404 1.83412,-48.0621 1.27331,-72.5976 -0.6621,-28.96696 -0.43095,-28.38683 -11.31715,-28.40329 l -5.65676,-0.009 1.9e-4,-3.04595 2e-4,-3.04594 33.50522,-0.13633 c 34.82732,-0.1417 43.31446,0.22419 51.0415,2.20043 12.44207,3.18215 19.61796,11.02781 20.31571,22.21192 0.77932,12.49159 -6.45959,21.79404 -21.47766,27.60013 -2.78345,1.0761 -5.06082,2.12796 -5.06082,2.33746 0,0.2095 2.54554,1.092 5.65676,1.9611 12.04071,3.36351 21.67536,9.80563 25.5571,17.08851 5.91946,11.10605 3.99797,25.00349 -4.7335,34.23573 -4.5898,4.85303 -10.3112,7.20022 -22.30647,9.15116 -4.85181,0.78911 -23.73244,2.09127 -27.3811,1.88842 -0.79775,-0.0443 -4.97505,-0.28769 -9.28288,-0.54075 z m 17.98558,-5.18755 c 12.90113,-2.07396 19.68315,-11.15054 19.71606,-26.38652 0.0248,-11.49927 -5.34335,-20.94254 -14.21368,-25.00351 -4.69005,-2.14717 -12.92979,-3.67576 -19.86184,-3.68464 l -5.94685,-0.008 v 18.23369 c 0,10.02853 0.28306,20.27597 0.62902,22.77208 1.69924,12.26 7.07134,16.10304 19.67729,14.07652 z m -2.61081,-61.63485 c 4.28281,-1.20002 7.24801,-2.90732 9.94893,-5.7284 8.17167,-8.5352 8.86503,-24.05185 1.45202,-32.4948 -2.15859,-2.4585 -8.72126,-5.81479 -14.01176,-7.1659 -4.92731,-1.25837 -12.53183,-1.01005 -13.59501,0.44394 -0.9333,1.27636 -1.48478,13.13981 -1.48755,32 l -0.002,14.44283 7.3973,-0.34242 c 4.06852,-0.18834 8.70271,-0.7082 10.2982,-1.15525 z"
       id="path511" /></g><g
     id="g366"
     transform="translate(492.11309,-53.963952)"><path
       style="fill:#000080;stroke-width:0.58018"
       d="m 788.21726,604.88547 c 4.52127,-0.24602 8.35571,-0.75841 9.57297,-1.27923 2.77488,-1.18725 17.89347,-12.95611 23.97643,-18.66412 2.68475,-2.51927 1.91936,-2.94462 -5.62578,-3.1264 -4.1903,-0.10096 -6.65956,-0.3788 -6.44545,-0.72523 0.45017,-0.7284 73.03164,-0.73119 84.11464,-0.003 8.72163,0.57286 13.47543,1.38422 15.10913,2.57876 0.9664,0.70671 0.9553,0.81468 -0.2034,1.97341 -2.3018,2.30183 -11.9224,4.34141 -25.78411,5.46626 -4.70671,0.38194 -8.55766,0.85998 -8.55766,1.06231 0,0.20233 2.93716,0.5379 6.52703,0.7457 6.92005,0.40058 15.41354,1.62942 17.86434,2.58462 0.8109,0.31603 1.7998,0.96674 2.1976,1.44602 1.5872,1.91257 -4.5338,4.635 -14.55162,6.47202 -8.75988,1.60635 -23.56925,2.05571 -64.83376,1.96723 -23.83667,-0.0511 -37.75578,-0.25894 -33.36036,-0.49811 z m 71.36217,-1.35997 c 7.64015,-1.58046 12.47388,-3.97922 12.47388,-6.19023 0,-2.88915 -5.26023,-4.00069 -20.88649,-4.41353 l -12.47388,-0.32956 -5.22162,4.28528 c -5.74639,4.71596 -6.61385,6.33604 -3.94881,7.37488 2.30875,0.89995 24.82493,0.35547 30.05692,-0.72684 z m 8.32101,-12.86371 c 9.52556,-1.54912 14.60887,-3.85137 13.70492,-6.20702 -0.5709,-1.48774 -3.6271,-2.13148 -13.61331,-2.86744 -13.41221,-0.98844 -14.18566,-0.81266 -21.63398,4.91664 -3.40228,2.61706 -6.19243,4.99289 -6.20032,5.27964 -0.0205,0.74395 21.66101,-0.13278 27.74269,-1.12182 z"
       id="path513" /><path
       style="fill:#000080;stroke-width:0.58018"
       d="m 739.19202,615.74213 c -1.11684,-0.38087 -2.03063,-1.00191 -2.03063,-1.3801 0,-0.90488 44.60896,-38.23489 47.43941,-39.69861 5.43956,-2.81297 7.57201,-2.87058 100.06201,-2.70326 73.26339,0.13254 86.55469,0.28089 87.92179,0.98135 0.8858,0.45385 1.5228,1.10656 1.4157,1.45045 -0.3168,1.0167 -44.5897,37.95685 -47.0836,39.28526 -5.2218,2.78152 -5.2825,2.78322 -98.37691,2.76989 -66.10238,-0.009 -87.8105,-0.18075 -89.34777,-0.70498 z m 171.15318,-3.9511 c 1.755,-0.49011 3.9742,-1.30696 4.9315,-1.81521 3.3652,-1.78668 37.4217,-30.70395 37.4217,-31.77465 0,-2.60694 0.3326,-2.59449 -73.82134,-2.76233 -59.66036,-0.13503 -70.90749,-0.0303 -75.83064,0.70577 -3.17928,0.47538 -6.64159,1.22701 -7.69402,1.67031 -2.64856,1.11559 -38.42312,31.02966 -38.64295,32.31255 -0.17088,0.99722 1.04426,1.62882 4.81951,2.50508 0.6382,0.14813 33.66497,0.21988 73.39281,0.15945 62.95593,-0.0958 72.64223,-0.22431 75.42343,-1.00097 z"
       id="path515" /></g><g
     id="g362"
     transform="translate(207.30169,0.59890826)"><path
       style="fill:#000080;stroke-width:0.58018"
       d="m 1220.2652,763.79115 c -0.5029,-0.55573 -1.164,-2.18107 -1.4692,-3.61186 -0.3338,-1.56524 -0.6357,-37.72818 -0.7581,-90.78885 -0.2177,-94.43551 -0.2738,-92.35003 2.6275,-97.53854 0.937,-1.67571 7.5636,-7.1969 25.8795,-21.56253 13.541,-10.62053 25.0201,-19.23301 25.509,-19.13885 1.6497,0.31769 2.5278,3.50677 2.9941,10.8729 0.253,3.99834 0.4723,43.86336 0.4873,88.58895 0.023,67.54394 -0.1109,82.04043 -0.7884,85.57659 -1.6686,8.70902 -0.087,7.06716 -27.4262,28.4769 -13.5504,10.61168 -24.9755,19.48336 -25.3891,19.71484 -0.4294,0.24033 -1.1442,-0.0126 -1.6664,-0.58955 z m 27.157,-35.97487 19.7244,-15.50811 1.3025,-3.65413 c 2.5054,-7.0292 2.6321,-12.17849 2.1008,-85.38793 -0.4925,-67.85404 -0.5146,-68.77784 -1.6908,-70.7801 -0.6555,-1.1158 -1.6074,-2.10877 -2.1153,-2.2066 -0.5101,-0.0982 -9.8958,6.85538 -20.9634,15.53119 -19.6174,15.37785 -20.0642,15.774 -21.1926,18.79006 -0.634,1.69457 -1.4338,5.10155 -1.7773,7.57108 -0.6889,4.95336 -0.7501,70.25429 -0.1108,118.4115 0.3298,24.84493 0.5003,28.70312 1.3527,30.60451 0.7241,1.61528 1.3192,2.17065 2.3103,2.15616 0.8502,-0.0124 8.4979,-5.65122 21.0595,-15.52763 z"
       id="path517" /><path
       style="fill:#000080;stroke-width:0.58018"
       d="m 1227.4076,720.81263 c 0,-2.54757 0.2089,-3.08722 1.5296,-3.95262 2.6608,-1.74342 3.1759,-4.08901 3.727,-16.97173 1.3105,-30.63538 2.1661,-86.93077 1.3534,-89.0486 -0.481,-1.25363 -1.3546,-1.15171 -2.9465,0.34378 l -1.3428,1.26149 0.023,-3.14708 0.023,-3.14708 3.4634,-2.58396 c 1.9048,-1.42118 6.5285,-5.39383 10.2748,-8.82813 10.5477,-9.66909 13.978,-11.00056 16.3521,-6.34697 4.4263,8.67614 1.8536,32.85903 -4.9667,46.68667 -1.0797,2.18893 -1.963,4.21231 -1.963,4.4964 0,0.2841 0.8082,0.51654 1.796,0.51654 7.4989,0 10.2931,14.20224 7.1424,36.30404 -2.4717,17.33921 -7.8744,26.30695 -22.5284,37.39423 -2.8962,2.19128 -6.7671,5.33173 -8.6019,6.97878 l -3.336,2.99463 z m 19.3862,-18.16083 c 2.4846,-2.90263 4.1126,-6.99994 5.7238,-14.4055 1.6755,-7.70077 1.8372,-29.26436 0.2577,-34.37228 -1.67,-5.40047 -4.8598,-6.41335 -9.0651,-2.87844 l -1.8673,1.56963 -0.4013,19.27972 c -0.5518,26.50067 -0.05,33.2266 2.4764,33.2266 0.4425,0 1.7366,-1.08888 2.8758,-2.41973 z m -1.4225,-58.25254 c 5.594,-6.06882 7.7755,-14.87467 7.8225,-31.5764 0.028,-9.8337 -0.1046,-11.56344 -1.0114,-13.22425 -2.0008,-3.66473 -5.7737,-3.9305 -7.8607,-0.55373 -1.0832,1.7527 -1.2121,3.47077 -1.7885,23.83668 -0.7443,26.30352 -0.7342,24.17194 -0.1148,24.17194 0.2785,0 1.6073,-1.1944 2.9529,-2.65424 z"
       id="path519" /></g></g><g
   id="g403"
   transform="matrix(0.08669718,0,0,0.09130252,459.10439,317.14489)"><g
     id="g354"
     transform="translate(-114.70997,21.183836)"><g
       id="g322"
       transform="translate(-346.2505,-13.127981)"><path
         style="fill:#000080;stroke-width:0.58018"
         d="m 606.04467,390.5068 c -17.97289,-1.21175 -29.88331,-4.66022 -29.88331,-8.65221 0,-0.58497 1.05156,-1.96367 2.33679,-3.06378 6.50338,-5.56665 27.72255,-10.33937 56.26142,-12.6546 11.00554,-0.89283 44.77844,-0.86017 56.52887,0.0547 7.2435,0.56394 9.88038,0.56823 12.18379,0.0198 1.61678,-0.38496 3.77894,-0.61099 4.80478,-0.50229 l 1.86518,0.19764 -2.67731,3.88533 c -2.60089,3.77443 -2.76256,3.89597 -5.66415,4.2585 -2.7769,0.34696 -3.12125,0.24763 -4.89901,-1.41304 -8.43522,-7.87968 -55.12647,-8.58419 -77.48813,-1.1692 -15.33078,5.08359 -16.71436,12.27561 -2.94116,15.2885 8.35593,1.82786 15.30275,2.23893 31.92138,1.88891 15.91828,-0.33528 27.57871,-1.2735 37.42163,-3.01102 5.7712,-1.01876 6.82936,-1.07868 6.06288,-0.34334 -1.27519,1.22338 -24.70064,4.27538 -40.29352,5.24966 -10.90424,0.68133 -35.20286,0.66345 -45.54013,-0.0335 z"
         id="path529" /></g><path
       style="fill:#000080;stroke-width:0.58018"
       d="m 177.11446,387.70113 c -1.11685,-0.38086 -2.03063,-1.00203 -2.03063,-1.38037 0,-0.70751 43.2989,-37.215 46.4088,-39.1296 0.95421,-0.58746 3.69557,-1.52885 6.0919,-2.09198 4.0626,-0.95469 10.29551,-1.02387 92.25428,-1.02387 90.8506,0 92.33123,0.0357 92.21133,2.22068 -0.0485,0.88437 -46.23886,39.25461 -48.12836,39.98015 -5.42768,2.08415 -8.10998,2.14277 -97.45956,2.12998 -66.10237,-0.01 -87.8105,-0.18075 -89.34776,-0.70499 z m 171.15318,-3.94898 c 1.75505,-0.48894 3.94182,-1.28616 4.85949,-1.7716 3.23951,-1.71367 37.49367,-30.80519 37.49367,-31.84278 0,-2.58054 0.22443,-2.57221 -73.80697,-2.74206 -59.73159,-0.13705 -70.88838,-0.0332 -75.83064,0.70577 -3.18717,0.47655 -6.65593,1.22915 -7.70836,1.67244 -2.61333,1.10076 -38.42132,31.02072 -38.63945,32.28584 -0.1786,1.03586 1.607,2.03434 4.52593,2.53083 0.79775,0.13569 33.95505,0.20257 73.68289,0.14863 62.90179,-0.0854 72.64465,-0.21292 75.42344,-0.98707 z"
       id="path527" /></g><g
     id="g326"
     transform="translate(-465.34593,7.7848158)"><path
       style="fill:#000080;stroke-width:0.58018"
       d="m 721.94503,601.89514 c -0.91385,-1.39299 -1.06956,-3.7732 -1.39482,-21.32162 -0.57564,-31.05707 -0.53703,-148.81996 0.0518,-157.93943 0.60017,-9.29548 0.94455,-10.25976 5.05532,-14.15553 8.01397,-7.59481 47.28156,-37.92189 48.5597,-37.50354 0.36085,0.11811 1.04766,1.23909 1.52623,2.49107 0.7568,1.97985 0.89187,13.72439 1.03705,90.17364 0.11358,59.80924 -0.0295,89.16411 -0.44771,91.86156 -1.1955,7.7108 -1.41219,7.94075 -24.66668,26.17624 -24.52764,19.23385 -27.8199,21.77005 -28.27041,21.7781 -0.23197,0.004 -0.88468,-0.69807 -1.45046,-1.56049 z m 11.52926,-22.38263 c 5.34061,-3.83489 24.73422,-18.99995 31.05564,-24.28431 5.95364,-4.97692 6.96161,-7.27648 7.84761,-17.90336 0.71123,-8.53076 0.11988,-134.70387 -0.66315,-141.49052 -0.35447,-3.07233 -0.82787,-4.61023 -1.68205,-5.46441 l -1.18874,-1.18874 -2.44977,1.62118 c -6.92633,4.58363 -34.19964,25.9923 -37.4706,29.41321 -3.18071,3.32653 -3.75306,5.5581 -4.36676,17.02596 -0.68459,12.79242 -0.10373,135.45824 0.66431,140.28883 0.96258,6.05421 2.17659,6.34577 8.25351,1.98216 z"
       id="path533" /><path
       style="fill:#000080;stroke-width:0.58018"
       d="m 737.41529,548.37801 c -2.55753,-2.68852 -4.11481,-6.55414 -5.78871,-14.3692 -1.78629,-8.33984 -2.23124,-30.48744 -0.87756,-43.68079 2.9798,-29.04194 10.35284,-52.53459 19.58515,-62.40395 4.18982,-4.47894 7.61829,-6.22172 11.71999,-5.95758 l 2.95589,0.19035 0.63983,-3.191 0.63983,-3.19099 0.34916,2.61081 c 1.01466,7.58702 0.86942,35.391 -0.18487,35.391 -0.22461,0 -0.57424,-1.58683 -0.77695,-3.52628 -0.7754,-7.41861 -3.57832,-15.18176 -6.55685,-18.16029 -4.02142,-4.02143 -9.8619,0.1904 -13.84004,9.98066 -6.88275,16.93855 -9.34673,56.98383 -4.87342,79.20429 1.34415,6.67685 2.88816,10.26964 5.27738,12.28003 1.98763,1.67249 2.80626,1.76865 5.07389,0.59602 4.55999,-2.35807 9.48642,-10.83643 13.77662,-23.70951 3.05731,-9.17371 3.03418,-6.2828 -0.039,4.87792 -5.01169,18.20051 -12.02766,30.70918 -19.16139,34.16257 -3.70916,1.79556 -5.3825,1.56226 -7.91892,-1.10406 z"
       id="path535" /></g><g
     id="g349"
     transform="translate(-465.31135,9.1839858)"><path
       style="fill:#000080;stroke-width:0.58018"
       d="m 506.55247,443.21502 c 0.0112,-11.33551 0.14446,-13.19904 1.09332,-15.2884 1.33372,-2.93679 4.36508,-6.03311 7.3626,-7.52038 2.20441,-1.09375 4.52661,-1.12789 87.26109,-1.28269 94.76655,-0.17732 87.61902,-0.47346 92.37979,3.8276 4.53,4.09259 4.77677,5.08139 4.98467,19.97378 l 0.18426,13.1991 h -8.45183 -8.45183 v -3.7494 c 0,-5.43464 -1.6827,-9.49375 -5.2742,-12.72282 -1.58866,-1.42834 -3.85849,-2.9406 -5.04408,-3.36058 -1.73589,-0.61492 -15.54205,-0.7636 -70.90696,-0.7636 h -68.75137 l -2.9009,1.5414 c -5.60373,2.97754 -8.16477,7.24521 -8.79057,14.64846 l -0.37249,4.40654 h -7.16712 -7.16712 z"
       id="path521" /><g
       id="g318"><path
         style="fill:#000080;stroke-width:0.58018"
         d="m 530.9073,609.86581 c -12.54527,-0.28592 -13.82205,-0.41129 -15.98565,-1.5696 -2.77898,-1.48776 -5.92812,-4.53889 -6.78475,-6.57357 -1.00444,-2.38578 -1.50323,-31.24909 -1.55155,-89.7829 l -0.0456,-55.26218 h 6.88964 6.88964 l 0.36261,1.81307 c 0.19944,0.99718 0.36262,28.9493 0.36262,62.11581 v 60.30275 l 1.56396,3.19403 c 1.78349,3.64236 4.45131,6.21841 8.26962,7.98514 2.6375,1.22037 2.71309,1.22166 71.39166,1.22166 62.69922,0 68.93724,-0.0844 70.86296,-0.95894 2.88681,-1.31098 6.51317,-4.69311 8.29856,-7.73966 l 1.48354,-2.53145 v -62.7012 -62.70121 l 8.26756,-1e-5 8.26757,-10e-6 -0.19533,71.50723 -0.19534,71.50723 -1.7716,2.78839 c -1.91312,3.01112 -3.98677,4.79202 -7.82272,6.71832 l -2.44265,1.22663 -71.24025,-0.1244 c -39.18213,-0.0684 -77.37565,-0.26422 -84.87448,-0.43513 z"
         id="path537" /><path
         style="fill:#000080;stroke-width:0.58018"
         d="m 599.49149,577.35401 c -26.18767,-2.75595 -45.62837,-16.62909 -53.49035,-38.17142 -2.81711,-7.71907 -3.65946,-13.685 -3.3345,-23.61673 0.35293,-10.78665 1.52961,-15.62608 5.92488,-24.36757 6.16275,-12.25673 15.71926,-21.9055 27.26878,-27.53202 11.8739,-5.78455 21.37915,-7.40977 39.75332,-6.79707 11.08579,0.36966 17.71593,1.56833 27.50637,4.97289 2.84319,0.9887 5.65909,1.79764 6.25756,1.79764 0.73372,0 1.44525,-0.83315 2.18461,-2.55799 0.60306,-1.40689 1.60362,-2.71894 2.22347,-2.91567 1.01201,-0.3212 4.18115,0.46179 4.18115,1.03302 0,1.55491 3.7701,33.82778 4.32637,37.03467 0.23692,1.36586 0.0437,1.59981 -1.59324,1.9289 -1.02457,0.20598 -2.28887,0.49335 -2.80954,0.6386 -0.71527,0.19954 -1.32881,-0.69745 -2.50989,-3.66944 -5.79686,-14.58687 -19.71383,-27.31024 -33.88635,-30.98008 -9.66285,-2.5021 -21.12759,-1.91797 -28.69575,1.46205 -9.70437,4.33408 -16.89138,13.73787 -20.5719,26.91715 -1.45499,5.21009 -1.5706,6.4292 -1.55159,16.36285 0.0172,8.98733 0.22208,11.53556 1.25957,15.66487 4.16035,16.55876 10.67625,26.92931 21.2711,33.8546 9.72762,6.35843 14.37705,7.62062 26.44902,7.18019 16.35545,-0.59672 27.98821,-5.18673 38.03954,-15.00951 l 4.07867,-3.98594 1.99433,1.66494 1.99432,1.66493 -3.06054,3.53282 c -10.50471,12.12575 -23.58559,19.91106 -38.65654,23.00713 -5.54801,1.13974 -17.90544,1.58576 -24.55287,0.88619 z"
         id="path539" /></g></g></g></g>
</g>
<metadata
   id="metadata488"><rdf:RDF><cc:Work><dc:format>image/svg+xml</dc:format><dc:type
         rdf:resource="http://purl.org/dc/dcmitype/StillImage" /><cc:license
         rdf:resource="http://creativecommons.org/publicdomain/zero/1.0/" /><dc:publisher><cc:Agent
           rdf:about="http://openclipart.org/"><dc:title>Openclipart</dc:title></cc:Agent></dc:publisher><dc:title></dc:title><dc:date>2010-04-17T22:06:30</dc:date><dc:description>originally uploaded by Petri Lummemaki from OCAL 0.18</dc:description><dc:source>https://openclipart.org/detail/48673/abc-blocks-petri-lummema-01-by-anonymous</dc:source><dc:creator><cc:Agent><dc:title>Anonymous</dc:title></cc:Agent></dc:creator><dc:subject><rdf:Bag><rdf:li>abc</rdf:li><rdf:li>alphabet</rdf:li><rdf:li>blocks</rdf:li><rdf:li>toy</rdf:li></rdf:Bag></dc:subject></cc:Work><cc:License
       rdf:about="http://creativecommons.org/publicdomain/zero/1.0/"><cc:permits
         rdf:resource="http://creativecommons.org/ns#Reproduction" /><cc:permits
         rdf:resource="http://creativecommons.org/ns#Distribution" /><cc:permits
         rdf:resource="http://creativecommons.org/ns#DerivativeWorks" /></cc:License></rdf:RDF></metadata></svg>
