<?xml version="1.0" encoding="UTF-8" standalone="no"?>
<svg
   xmlns:dc="http://purl.org/dc/elements/1.1/"
   xmlns:cc="http://creativecommons.org/ns#"
   xmlns:rdf="http://www.w3.org/1999/02/22-rdf-syntax-ns#"
   xmlns:svg="http://www.w3.org/2000/svg"
   xmlns="http://www.w3.org/2000/svg"
   xmlns:xlink="http://www.w3.org/1999/xlink"
   xmlns:sodipodi="http://sodipodi.sourceforge.net/DTD/sodipodi-0.dtd"
   xmlns:inkscape="http://www.inkscape.org/namespaces/inkscape"
   id="svg2"
   sodipodi:docname="numeros.svg"
   inkscape:export-filename="C:\joanna\Gfx\drawings_vector\admin\collections\TzeenieWheenie_Mechanical_alarm_clock_number_tiles_4.png"
   viewBox="0 0 49.999999 50.000002"
   sodipodi:version="0.32"
   inkscape:export-xdpi="20.325998"
   version="1.0"
   inkscape:output_extension="org.inkscape.output.svg.inkscape"
   inkscape:export-ydpi="20.325998"
   inkscape:version="1.0.1 (3bc2e813f5, 2020-09-07)"
   width="50"
   height="50">
  <defs
     id="defs4">
    <linearGradient
       id="linearGradient3199">
      <stop
         id="stop3201"
         style="stop-color:#6c6c6c"
         offset="0" />
      <stop
         id="stop3203"
         style="stop-color:#c0c0c0"
         offset="1" />
    </linearGradient>
    <linearGradient
       id="linearGradient3191">
      <stop
         id="stop3193"
         style="stop-color:#000000"
         offset="0" />
      <stop
         id="stop3195"
         style="stop-color:#b4b4b4"
         offset="0.43" />
      <stop
         id="stop3197"
         style="stop-color:#282828"
         offset="1" />
    </linearGradient>
    <linearGradient
       id="linearGradient3162">
      <stop
         id="stop3164"
         style="stop-color:#000000"
         offset="0" />
      <stop
         id="stop3179"
         style="stop-color:#b4b4b4"
         offset="0.7" />
      <stop
         id="stop3166"
         style="stop-color:#282828"
         offset="1" />
    </linearGradient>
    <linearGradient
       id="linearGradient3168"
       y2="381.23001"
       xlink:href="#linearGradient3162"
       gradientUnits="userSpaceOnUse"
       x2="270.54999"
       y1="421.94"
       x1="270.54999"
       inkscape:collect="always" />
    <linearGradient
       id="linearGradient3189"
       y2="410.41"
       xlink:href="#linearGradient3191"
       gradientUnits="userSpaceOnUse"
       x2="348.87"
       y1="394.10999"
       x1="348.87"
       inkscape:collect="always" />
    <radialGradient
       id="radialGradient3368"
       xlink:href="#linearGradient3199"
       gradientUnits="userSpaceOnUse"
       cy="436.48999"
       cx="344.22"
       gradientTransform="matrix(-5.8530913e-4,0.47130633,-0.06334553,-3.3383026e-4,968.97909,-413.63055)"
       r="30.337"
       inkscape:collect="always" />
    <radialGradient
       id="radialGradient2729"
       xlink:href="#linearGradient3199"
       gradientUnits="userSpaceOnUse"
       cy="436.48999"
       cx="344.22"
       gradientTransform="matrix(-0.021342,8.3422,-2.3097,-0.0059088,1503.2,-2477.5)"
       r="30.337"
       inkscape:collect="always" />
    <radialGradient
       inkscape:collect="always"
       xlink:href="#linearGradient3199"
       id="radialGradient161"
       gradientUnits="userSpaceOnUse"
       gradientTransform="matrix(-5.8530913e-4,0.47130633,-0.06334553,-3.3383026e-4,968.97909,-413.63055)"
       cx="344.22"
       cy="436.48999"
       r="30.337" />
    <radialGradient
       inkscape:collect="always"
       xlink:href="#linearGradient3199"
       id="radialGradient163"
       gradientUnits="userSpaceOnUse"
       gradientTransform="matrix(-5.8530913e-4,0.47130633,-0.06334553,-3.3383026e-4,968.97909,-413.63055)"
       cx="344.22"
       cy="436.48999"
       r="30.337" />
    <radialGradient
       inkscape:collect="always"
       xlink:href="#linearGradient3199"
       id="radialGradient165"
       gradientUnits="userSpaceOnUse"
       gradientTransform="matrix(-5.8530913e-4,0.47130633,-0.06334553,-3.3383026e-4,968.97909,-413.63055)"
       cx="344.22"
       cy="436.48999"
       r="30.337" />
    <radialGradient
       inkscape:collect="always"
       xlink:href="#linearGradient3199"
       id="radialGradient167"
       gradientUnits="userSpaceOnUse"
       gradientTransform="matrix(-5.8530913e-4,0.47130633,-0.06334553,-3.3383026e-4,968.97909,-413.63055)"
       cx="344.22"
       cy="436.48999"
       r="30.337" />
    <radialGradient
       inkscape:collect="always"
       xlink:href="#linearGradient3199"
       id="radialGradient169"
       gradientUnits="userSpaceOnUse"
       gradientTransform="matrix(-5.8530913e-4,0.47130633,-0.06334553,-3.3383026e-4,968.97909,-413.63055)"
       cx="344.22"
       cy="436.48999"
       r="30.337" />
    <radialGradient
       inkscape:collect="always"
       xlink:href="#linearGradient3199"
       id="radialGradient171"
       gradientUnits="userSpaceOnUse"
       gradientTransform="matrix(-5.8530913e-4,0.47130633,-0.06334553,-3.3383026e-4,968.97909,-413.63055)"
       cx="344.22"
       cy="436.48999"
       r="30.337" />
    <linearGradient
       inkscape:collect="always"
       xlink:href="#linearGradient3191"
       id="linearGradient173"
       gradientUnits="userSpaceOnUse"
       x1="348.87"
       y1="394.10999"
       x2="348.87"
       y2="410.41" />
    <linearGradient
       inkscape:collect="always"
       xlink:href="#linearGradient3162"
       id="linearGradient175"
       gradientUnits="userSpaceOnUse"
       x1="270.54999"
       y1="421.94"
       x2="270.54999"
       y2="381.23001" />
    <linearGradient
       inkscape:collect="always"
       xlink:href="#linearGradient3162"
       id="linearGradient177"
       gradientUnits="userSpaceOnUse"
       x1="270.54999"
       y1="421.94"
       x2="270.54999"
       y2="381.23001" />
    <radialGradient
       inkscape:collect="always"
       xlink:href="#linearGradient3199"
       id="radialGradient179"
       gradientUnits="userSpaceOnUse"
       gradientTransform="matrix(-0.021342,8.3422,-2.3097,-0.0059088,1503.2,-2477.5)"
       cx="344.22"
       cy="436.48999"
       r="30.337" />
    <radialGradient
       inkscape:collect="always"
       xlink:href="#linearGradient3199"
       id="radialGradient181"
       gradientUnits="userSpaceOnUse"
       gradientTransform="matrix(-0.021342,8.3422,-2.3097,-0.0059088,1503.2,-2477.5)"
       cx="344.22"
       cy="436.48999"
       r="30.337" />
    <linearGradient
       inkscape:collect="always"
       xlink:href="#linearGradient3191"
       id="linearGradient183"
       gradientUnits="userSpaceOnUse"
       x1="348.87"
       y1="394.10999"
       x2="348.87"
       y2="410.41" />
    <linearGradient
       inkscape:collect="always"
       xlink:href="#linearGradient3162"
       id="linearGradient185"
       gradientUnits="userSpaceOnUse"
       x1="270.54999"
       y1="421.94"
       x2="270.54999"
       y2="381.23001" />
    <linearGradient
       inkscape:collect="always"
       xlink:href="#linearGradient3162"
       id="linearGradient187"
       gradientUnits="userSpaceOnUse"
       x1="270.54999"
       y1="421.94"
       x2="270.54999"
       y2="381.23001" />
    <radialGradient
       inkscape:collect="always"
       xlink:href="#linearGradient3199"
       id="radialGradient189"
       gradientUnits="userSpaceOnUse"
       gradientTransform="matrix(-0.021342,8.3422,-2.3097,-0.0059088,1503.2,-2477.5)"
       cx="344.22"
       cy="436.48999"
       r="30.337" />
    <radialGradient
       inkscape:collect="always"
       xlink:href="#linearGradient3199"
       id="radialGradient191"
       gradientUnits="userSpaceOnUse"
       gradientTransform="matrix(-0.021342,8.3422,-2.3097,-0.0059088,1503.2,-2477.5)"
       cx="344.22"
       cy="436.48999"
       r="30.337" />
    <linearGradient
       inkscape:collect="always"
       xlink:href="#linearGradient3191"
       id="linearGradient193"
       gradientUnits="userSpaceOnUse"
       x1="348.87"
       y1="394.10999"
       x2="348.87"
       y2="410.41" />
    <linearGradient
       inkscape:collect="always"
       xlink:href="#linearGradient3162"
       id="linearGradient195"
       gradientUnits="userSpaceOnUse"
       x1="270.54999"
       y1="421.94"
       x2="270.54999"
       y2="381.23001" />
    <linearGradient
       inkscape:collect="always"
       xlink:href="#linearGradient3162"
       id="linearGradient197"
       gradientUnits="userSpaceOnUse"
       x1="270.54999"
       y1="421.94"
       x2="270.54999"
       y2="381.23001" />
    <radialGradient
       inkscape:collect="always"
       xlink:href="#linearGradient3199"
       id="radialGradient199"
       gradientUnits="userSpaceOnUse"
       gradientTransform="matrix(-0.021342,8.3422,-2.3097,-0.0059088,1503.2,-2477.5)"
       cx="344.22"
       cy="436.48999"
       r="30.337" />
    <radialGradient
       inkscape:collect="always"
       xlink:href="#linearGradient3199"
       id="radialGradient201"
       gradientUnits="userSpaceOnUse"
       gradientTransform="matrix(-0.021342,8.3422,-2.3097,-0.0059088,1503.2,-2477.5)"
       cx="344.22"
       cy="436.48999"
       r="30.337" />
    <linearGradient
       inkscape:collect="always"
       xlink:href="#linearGradient3191"
       id="linearGradient203"
       gradientUnits="userSpaceOnUse"
       x1="348.87"
       y1="394.10999"
       x2="348.87"
       y2="410.41" />
    <linearGradient
       inkscape:collect="always"
       xlink:href="#linearGradient3162"
       id="linearGradient205"
       gradientUnits="userSpaceOnUse"
       x1="270.54999"
       y1="421.94"
       x2="270.54999"
       y2="381.23001" />
    <linearGradient
       inkscape:collect="always"
       xlink:href="#linearGradient3162"
       id="linearGradient207"
       gradientUnits="userSpaceOnUse"
       x1="270.54999"
       y1="421.94"
       x2="270.54999"
       y2="381.23001" />
    <radialGradient
       inkscape:collect="always"
       xlink:href="#linearGradient3199"
       id="radialGradient209"
       gradientUnits="userSpaceOnUse"
       gradientTransform="matrix(-0.021342,8.3422,-2.3097,-0.0059088,1503.2,-2477.5)"
       cx="344.22"
       cy="436.48999"
       r="30.337" />
    <radialGradient
       inkscape:collect="always"
       xlink:href="#linearGradient3199"
       id="radialGradient211"
       gradientUnits="userSpaceOnUse"
       gradientTransform="matrix(-0.021342,8.3422,-2.3097,-0.0059088,1503.2,-2477.5)"
       cx="344.22"
       cy="436.48999"
       r="30.337" />
    <linearGradient
       inkscape:collect="always"
       xlink:href="#linearGradient3191"
       id="linearGradient213"
       gradientUnits="userSpaceOnUse"
       x1="348.87"
       y1="394.10999"
       x2="348.87"
       y2="410.41" />
    <linearGradient
       inkscape:collect="always"
       xlink:href="#linearGradient3162"
       id="linearGradient215"
       gradientUnits="userSpaceOnUse"
       x1="270.54999"
       y1="421.94"
       x2="270.54999"
       y2="381.23001" />
    <linearGradient
       inkscape:collect="always"
       xlink:href="#linearGradient3162"
       id="linearGradient217"
       gradientUnits="userSpaceOnUse"
       x1="270.54999"
       y1="421.94"
       x2="270.54999"
       y2="381.23001" />
    <radialGradient
       inkscape:collect="always"
       xlink:href="#linearGradient3199"
       id="radialGradient219"
       gradientUnits="userSpaceOnUse"
       gradientTransform="matrix(-0.021342,8.3422,-2.3097,-0.0059088,1503.2,-2477.5)"
       cx="344.22"
       cy="436.48999"
       r="30.337" />
    <radialGradient
       inkscape:collect="always"
       xlink:href="#linearGradient3199"
       id="radialGradient221"
       gradientUnits="userSpaceOnUse"
       gradientTransform="matrix(-5.8530913e-4,0.47130633,-0.06334553,-3.3383026e-4,968.97909,-413.63055)"
       cx="344.22"
       cy="436.48999"
       r="30.337" />
    <radialGradient
       inkscape:collect="always"
       xlink:href="#linearGradient3199"
       id="radialGradient223"
       gradientUnits="userSpaceOnUse"
       gradientTransform="matrix(-5.8530913e-4,0.47130633,-0.06334553,-3.3383026e-4,968.97909,-413.63055)"
       cx="344.22"
       cy="436.48999"
       r="30.337" />
    <radialGradient
       inkscape:collect="always"
       xlink:href="#linearGradient3199"
       id="radialGradient225"
       gradientUnits="userSpaceOnUse"
       gradientTransform="matrix(-5.8530913e-4,0.47130633,-0.06334553,-3.3383026e-4,968.97909,-413.63055)"
       cx="344.22"
       cy="436.48999"
       r="30.337" />
    <radialGradient
       inkscape:collect="always"
       xlink:href="#linearGradient3199"
       id="radialGradient227"
       gradientUnits="userSpaceOnUse"
       gradientTransform="matrix(-5.8530913e-4,0.47130633,-0.06334553,-3.3383026e-4,968.97909,-413.63055)"
       cx="344.22"
       cy="436.48999"
       r="30.337" />
    <radialGradient
       inkscape:collect="always"
       xlink:href="#linearGradient3199"
       id="radialGradient229"
       gradientUnits="userSpaceOnUse"
       gradientTransform="matrix(-5.8530913e-4,0.47130633,-0.06334553,-3.3383026e-4,968.97909,-413.63055)"
       cx="344.22"
       cy="436.48999"
       r="30.337" />
    <linearGradient
       inkscape:collect="always"
       xlink:href="#linearGradient3191"
       id="linearGradient231"
       gradientUnits="userSpaceOnUse"
       x1="348.87"
       y1="394.10999"
       x2="348.87"
       y2="410.41" />
    <linearGradient
       inkscape:collect="always"
       xlink:href="#linearGradient3162"
       id="linearGradient233"
       gradientUnits="userSpaceOnUse"
       x1="270.54999"
       y1="421.94"
       x2="270.54999"
       y2="381.23001" />
    <linearGradient
       inkscape:collect="always"
       xlink:href="#linearGradient3162"
       id="linearGradient235"
       gradientUnits="userSpaceOnUse"
       x1="270.54999"
       y1="421.94"
       x2="270.54999"
       y2="381.23001" />
    <linearGradient
       inkscape:collect="always"
       xlink:href="#linearGradient3191"
       id="linearGradient237"
       gradientUnits="userSpaceOnUse"
       x1="348.87"
       y1="394.10999"
       x2="348.87"
       y2="410.41" />
    <linearGradient
       inkscape:collect="always"
       xlink:href="#linearGradient3162"
       id="linearGradient239"
       gradientUnits="userSpaceOnUse"
       x1="270.54999"
       y1="421.94"
       x2="270.54999"
       y2="381.23001" />
    <linearGradient
       inkscape:collect="always"
       xlink:href="#linearGradient3162"
       id="linearGradient241"
       gradientUnits="userSpaceOnUse"
       x1="270.54999"
       y1="421.94"
       x2="270.54999"
       y2="381.23001" />
    <linearGradient
       inkscape:collect="always"
       xlink:href="#linearGradient3191"
       id="linearGradient243"
       gradientUnits="userSpaceOnUse"
       x1="348.87"
       y1="394.10999"
       x2="348.87"
       y2="410.41" />
    <linearGradient
       inkscape:collect="always"
       xlink:href="#linearGradient3162"
       id="linearGradient245"
       gradientUnits="userSpaceOnUse"
       x1="270.54999"
       y1="421.94"
       x2="270.54999"
       y2="381.23001" />
    <linearGradient
       inkscape:collect="always"
       xlink:href="#linearGradient3162"
       id="linearGradient247"
       gradientUnits="userSpaceOnUse"
       x1="270.54999"
       y1="421.94"
       x2="270.54999"
       y2="381.23001" />
    <linearGradient
       inkscape:collect="always"
       xlink:href="#linearGradient3191"
       id="linearGradient249"
       gradientUnits="userSpaceOnUse"
       x1="348.87"
       y1="394.10999"
       x2="348.87"
       y2="410.41" />
    <linearGradient
       inkscape:collect="always"
       xlink:href="#linearGradient3162"
       id="linearGradient251"
       gradientUnits="userSpaceOnUse"
       x1="270.54999"
       y1="421.94"
       x2="270.54999"
       y2="381.23001" />
    <linearGradient
       inkscape:collect="always"
       xlink:href="#linearGradient3162"
       id="linearGradient253"
       gradientUnits="userSpaceOnUse"
       x1="270.54999"
       y1="421.94"
       x2="270.54999"
       y2="381.23001" />
    <linearGradient
       inkscape:collect="always"
       xlink:href="#linearGradient3162"
       id="linearGradient255"
       gradientUnits="userSpaceOnUse"
       x1="270.54999"
       y1="421.94"
       x2="270.54999"
       y2="381.23001" />
  </defs>
  <sodipodi:namedview
     id="base"
     bordercolor="#666666"
     inkscape:pageshadow="2"
     guidetolerance="10"
     pagecolor="#ffffff"
     gridtolerance="10000"
     inkscape:window-height="729"
     inkscape:zoom="0.65060776"
     objecttolerance="10"
     borderlayer="false"
     showgrid="false"
     borderopacity="1.0"
     inkscape:current-layer="layer1"
     inkscape:cx="250.47137"
     inkscape:cy="220.06334"
     inkscape:window-y="0"
     inkscape:window-x="0"
     inkscape:window-width="1280"
     inkscape:pageopacity="0.0"
     inkscape:document-units="px"
     inkscape:document-rotation="0"
     inkscape:showpageshadow="false"
     showborder="false"
     inkscape:window-maximized="0" />
  <g
     id="layer1"
     inkscape:label="Layer 1"
     inkscape:groupmode="layer"
     transform="translate(-953.87,290.05)">
    <g
       id="g2215"
       transform="matrix(0.02742602,0,0,0.05649632,948.44343,-274.30824)">
      <g
         id="g2217">
        <path
           id="path2219"
           style="fill:#000000"
           d="m 200,406.38 v 190.37 c 0,5.32 5.35,9.63 12,9.63 h 276 c 6.65,0 12,-4.31 12,-9.63 V 406.38 h -30 v 12.15 c 0,4.89 -5.17,8.85 -11.59,8.85 h -46.82 c -6.42,0 -11.59,-3.96 -11.59,-8.85 V 406.38 H 300 v 12.15 c 0,4.89 -5.17,8.85 -11.59,8.85 h -46.82 c -6.42,0 -11.59,-3.96 -11.59,-8.85 v -12.15 z" />
        <path
           id="path2221"
           style="fill:#000000"
           d="m 212,198.38 c -6.65,0 -12,4.27 -12,9.59 v 190.41 h 30 v -12.19 c 0,-4.89 5.17,-8.81 11.59,-8.81 h 46.82 c 6.42,0 11.59,3.92 11.59,8.81 v 12.19 h 100 v -12.19 c 0,-4.89 5.17,-8.81 11.59,-8.81 h 46.82 c 6.42,0 11.59,3.92 11.59,8.81 v 12.19 h 30 V 207.97 c 0,-5.32 -5.35,-9.59 -12,-9.59 z" />
      </g>
      <rect
         id="rect2223"
         style="fill:url(#linearGradient3189);stroke:#000000;stroke-linecap:round;stroke-linejoin:round"
         height="15"
         width="300"
         y="394.88"
         x="200" />
      <rect
         id="rect2225"
         style="fill:url(#linearGradient255);stroke:#000000;stroke-linecap:round;stroke-linejoin:round"
         height="40"
         width="65"
         y="382.35999"
         x="232.5" />
      <rect
         id="rect2227"
         style="fill:url(#linearGradient3168);stroke:#000000;stroke-linecap:round;stroke-linejoin:round"
         height="40"
         width="65"
         y="382.35999"
         x="402.5" />
    </g>
    <g
       id="g2235"
       transform="matrix(0.02742602,0,0,0.05649632,958.83946,-274.30824)">
      <g
         id="g2237">
        <path
           id="path2239"
           style="fill:#000000"
           d="m 200,406.38 v 190.37 c 0,5.32 5.35,9.63 12,9.63 h 276 c 6.65,0 12,-4.31 12,-9.63 V 406.38 h -30 v 12.15 c 0,4.89 -5.17,8.85 -11.59,8.85 h -46.82 c -6.42,0 -11.59,-3.96 -11.59,-8.85 V 406.38 H 300 v 12.15 c 0,4.89 -5.17,8.85 -11.59,8.85 h -46.82 c -6.42,0 -11.59,-3.96 -11.59,-8.85 v -12.15 z" />
        <path
           id="path2241"
           style="fill:#000000"
           d="m 212,198.38 c -6.65,0 -12,4.27 -12,9.59 v 190.41 h 30 v -12.19 c 0,-4.89 5.17,-8.81 11.59,-8.81 h 46.82 c 6.42,0 11.59,3.92 11.59,8.81 v 12.19 h 100 v -12.19 c 0,-4.89 5.17,-8.81 11.59,-8.81 h 46.82 c 6.42,0 11.59,3.92 11.59,8.81 v 12.19 h 30 V 207.97 c 0,-5.32 -5.35,-9.59 -12,-9.59 z" />
      </g>
      <rect
         id="rect2243"
         style="fill:url(#linearGradient249);stroke:#000000;stroke-linecap:round;stroke-linejoin:round"
         height="15"
         width="300"
         y="394.88"
         x="200" />
      <rect
         id="rect2245"
         style="fill:url(#linearGradient251);stroke:#000000;stroke-linecap:round;stroke-linejoin:round"
         height="40"
         width="65"
         y="382.35999"
         x="232.5" />
      <rect
         id="rect2247"
         style="fill:url(#linearGradient253);stroke:#000000;stroke-linecap:round;stroke-linejoin:round"
         height="40"
         width="65"
         y="382.35999"
         x="402.5" />
    </g>
    <g
       id="g2255"
       transform="matrix(0.02742602,0,0,0.05649632,969.23629,-274.30824)">
      <g
         id="g2257">
        <path
           id="path2259"
           style="fill:#000000"
           d="m 200,406.38 v 190.37 c 0,5.32 5.35,9.63 12,9.63 h 276 c 6.65,0 12,-4.31 12,-9.63 V 406.38 h -30 v 12.15 c 0,4.89 -5.17,8.85 -11.59,8.85 h -46.82 c -6.42,0 -11.59,-3.96 -11.59,-8.85 V 406.38 H 300 v 12.15 c 0,4.89 -5.17,8.85 -11.59,8.85 h -46.82 c -6.42,0 -11.59,-3.96 -11.59,-8.85 v -12.15 z" />
        <path
           id="path2261"
           style="fill:#000000"
           d="m 212,198.38 c -6.65,0 -12,4.27 -12,9.59 v 190.41 h 30 v -12.19 c 0,-4.89 5.17,-8.81 11.59,-8.81 h 46.82 c 6.42,0 11.59,3.92 11.59,8.81 v 12.19 h 100 v -12.19 c 0,-4.89 5.17,-8.81 11.59,-8.81 h 46.82 c 6.42,0 11.59,3.92 11.59,8.81 v 12.19 h 30 V 207.97 c 0,-5.32 -5.35,-9.59 -12,-9.59 z" />
      </g>
      <rect
         id="rect2263"
         style="fill:url(#linearGradient243);stroke:#000000;stroke-linecap:round;stroke-linejoin:round"
         height="15"
         width="300"
         y="394.88"
         x="200" />
      <rect
         id="rect2265"
         style="fill:url(#linearGradient245);stroke:#000000;stroke-linecap:round;stroke-linejoin:round"
         height="40"
         width="65"
         y="382.35999"
         x="232.5" />
      <rect
         id="rect2267"
         style="fill:url(#linearGradient247);stroke:#000000;stroke-linecap:round;stroke-linejoin:round"
         height="40"
         width="65"
         y="382.35999"
         x="402.5" />
    </g>
    <g
       id="g2275"
       transform="matrix(0.02742602,0,0,0.05649632,979.63312,-274.30824)">
      <g
         id="g2277">
        <path
           id="path2279"
           style="fill:#000000"
           d="m 200,406.38 v 190.37 c 0,5.32 5.35,9.63 12,9.63 h 276 c 6.65,0 12,-4.31 12,-9.63 V 406.38 h -30 v 12.15 c 0,4.89 -5.17,8.85 -11.59,8.85 h -46.82 c -6.42,0 -11.59,-3.96 -11.59,-8.85 V 406.38 H 300 v 12.15 c 0,4.89 -5.17,8.85 -11.59,8.85 h -46.82 c -6.42,0 -11.59,-3.96 -11.59,-8.85 v -12.15 z" />
        <path
           id="path2281"
           style="fill:#000000"
           d="m 212,198.38 c -6.65,0 -12,4.27 -12,9.59 v 190.41 h 30 v -12.19 c 0,-4.89 5.17,-8.81 11.59,-8.81 h 46.82 c 6.42,0 11.59,3.92 11.59,8.81 v 12.19 h 100 v -12.19 c 0,-4.89 5.17,-8.81 11.59,-8.81 h 46.82 c 6.42,0 11.59,3.92 11.59,8.81 v 12.19 h 30 V 207.97 c 0,-5.32 -5.35,-9.59 -12,-9.59 z" />
      </g>
      <rect
         id="rect2283"
         style="fill:url(#linearGradient237);stroke:#000000;stroke-linecap:round;stroke-linejoin:round"
         height="15"
         width="300"
         y="394.88"
         x="200" />
      <rect
         id="rect2285"
         style="fill:url(#linearGradient239);stroke:#000000;stroke-linecap:round;stroke-linejoin:round"
         height="40"
         width="65"
         y="382.35999"
         x="232.5" />
      <rect
         id="rect2287"
         style="fill:url(#linearGradient241);stroke:#000000;stroke-linecap:round;stroke-linejoin:round"
         height="40"
         width="65"
         y="382.35999"
         x="402.5" />
    </g>
    <g
       id="g2335"
       transform="matrix(0.02742602,0,0,0.05649632,990.02996,-274.30824)">
      <g
         id="g2337">
        <path
           id="path2339"
           style="fill:#000000"
           d="m 200,406.38 v 190.37 c 0,5.32 5.35,9.63 12,9.63 h 276 c 6.65,0 12,-4.31 12,-9.63 V 406.38 h -30 v 12.15 c 0,4.89 -5.17,8.85 -11.59,8.85 h -46.82 c -6.42,0 -11.59,-3.96 -11.59,-8.85 V 406.38 H 300 v 12.15 c 0,4.89 -5.17,8.85 -11.59,8.85 h -46.82 c -6.42,0 -11.59,-3.96 -11.59,-8.85 v -12.15 z" />
        <path
           id="path2341"
           style="fill:#000000"
           d="m 212,198.38 c -6.65,0 -12,4.27 -12,9.59 v 190.41 h 30 v -12.19 c 0,-4.89 5.17,-8.81 11.59,-8.81 h 46.82 c 6.42,0 11.59,3.92 11.59,8.81 v 12.19 h 100 v -12.19 c 0,-4.89 5.17,-8.81 11.59,-8.81 h 46.82 c 6.42,0 11.59,3.92 11.59,8.81 v 12.19 h 30 V 207.97 c 0,-5.32 -5.35,-9.59 -12,-9.59 z" />
      </g>
      <rect
         id="rect2343"
         style="fill:url(#linearGradient231);stroke:#000000;stroke-linecap:round;stroke-linejoin:round"
         height="15"
         width="300"
         y="394.88"
         x="200" />
      <rect
         id="rect2345"
         style="fill:url(#linearGradient233);stroke:#000000;stroke-linecap:round;stroke-linejoin:round"
         height="40"
         width="65"
         y="382.35999"
         x="232.5" />
      <rect
         id="rect2347"
         style="fill:url(#linearGradient235);stroke:#000000;stroke-linecap:round;stroke-linejoin:round"
         height="40"
         width="65"
         y="382.35999"
         x="402.5" />
    </g>
    <path
       id="path2462"
       style="fill:url(#radialGradient3368);stroke:#5a5a5a;stroke-width:0.157452;stroke-linejoin:round"
       d="m 968.8344,-260.73465 c -0.93639,0 -1.68391,0.69889 -2.23851,2.09741 -0.47825,1.21664 -0.77565,2.9858 -0.89622,5.3088 h 1.06501 c 0.0442,-1.10521 0.13665,-2.00593 0.2773,-2.69968 0.19693,-0.99014 0.46619,-1.74342 0.81182,-2.25951 0.26122,-0.39961 0.56666,-0.60029 0.91229,-0.60029 0.43402,0 0.79573,0.32122 1.09312,0.96215 0.17683,0.40003 0.31348,1.03997 0.40993,1.92248 l 1.0851,-0.17468 c -0.0884,-1.42311 -0.35366,-2.53808 -0.79975,-3.34559 -0.45012,-0.80742 -1.0208,-1.21109 -1.72009,-1.21109 z" />
    <path
       id="path2460"
       style="fill:url(#radialGradient229);stroke:#5a5a5a;stroke-width:0.157452;stroke-linejoin:round"
       d="m 989.29852,-260.73465 c -0.77162,0 -1.39053,0.45384 -1.85672,1.36119 -0.46218,0.90734 -0.69527,2.02654 -0.69527,3.35775 0,0.88251 0.10852,1.64001 0.32553,2.27251 0.0522,0.1457 0.10851,0.28478 0.17282,0.41476 h 1.51913 c -0.18889,-0.1366 -0.35367,-0.34853 -0.49432,-0.63912 -0.27329,-0.54887 -0.40591,-1.25587 -0.40591,-2.12183 0,-0.76578 0.13664,-1.42476 0.40992,-1.97405 0.27329,-0.54938 0.61891,-0.82448 1.03688,-0.82448 0.41394,0 0.75554,0.28206 1.03285,0.84393 0.2773,0.56213 0.41394,1.25423 0.41394,2.07796 0,0.79061 -0.13262,1.46036 -0.40188,2.00592 -0.14067,0.28645 -0.30142,0.4959 -0.48629,0.63167 h 1.52315 c 0.0603,-0.12832 0.11254,-0.26409 0.16478,-0.40731 0.213,-0.62918 0.32552,-1.36847 0.32552,-2.21787 0,-1.33204 -0.23711,-2.46167 -0.71133,-3.38979 -0.47423,-0.92821 -1.09715,-1.39124 -1.8728,-1.39124 z" />
    <path
       id="path2458"
       style="fill:url(#radialGradient227);stroke:#5a5a5a;stroke-width:0.157452;stroke-linejoin:round"
       d="m 999.55068,-260.73465 c -0.80378,0 -1.4669,0.56627 -2.00141,1.69838 -0.53049,1.13219 -0.79574,2.6265 -0.79574,4.48258 0,0.42884 0.0161,0.83615 0.0442,1.22525 h 1.14136 c -0.0402,-0.35681 -0.0643,-0.74012 -0.0643,-1.15074 0,-1.29893 0.18085,-2.35529 0.53853,-3.17074 0.3617,-0.8162 0.78368,-1.22384 1.26997,-1.22392 0.46621,8e-5 0.86811,0.37775 1.20161,1.13534 0.3336,0.7575 0.5024,1.78157 0.5024,3.07222 0,0.48596 -0.024,0.93136 -0.072,1.33784 h 1.2619 c -0.044,-1.55143 -0.1608,-2.78661 -0.3537,-3.70389 -0.2452,-1.18626 -0.6108,-2.10089 -1.0891,-2.74191 -0.4783,-0.64093 -1.0087,-0.96041 -1.58343,-0.96041 z" />
    <path
       id="path2454"
       style="fill:url(#radialGradient225);stroke:#5a5a5a;stroke-width:0.157452;stroke-linejoin:round"
       d="m 976.12062,-260.42221 v 2.15925 h 4.35245 c -0.55461,1.29852 -1.07706,2.89465 -1.56737,4.78799 -0.0121,0.0488 -0.0241,0.0977 -0.0362,0.14653 h 1.21369 l 0.10852,-0.40235 c 0.5546,-2.05642 1.11724,-3.70306 1.67988,-4.94354 v -1.74788 z" />
    <path
       id="path2452"
       style="fill:url(#radialGradient223);stroke:#5a5a5a;stroke-width:0.157452;stroke-linejoin:round"
       d="m 956.39598,-260.40979 -0.64824,7.08135 h 4.41393 c -0.47825,-0.77489 -1.04491,-1.16316 -1.69195,-1.16316 -0.58675,0 -1.14538,0.38331 -1.67989,1.14909 l 0.47824,-4.92045 h 3.54465 v -2.14683 z" />
    <path
       id="path2450"
       style="fill:url(#radialGradient221);stroke:#5a5a5a;stroke-width:0.157452;stroke-linejoin:round"
       d="m 968.89066,-254.23082 c -0.41796,0 -0.81583,0.20117 -1.1936,0.60021 -0.0884,0.0902 -0.16879,0.19124 -0.24917,0.30217 h 2.87349 c -0.41796,-0.60021 -0.89621,-0.90238 -1.43072,-0.90238 z" />
    <g
       id="g2677"
       transform="matrix(0.02742602,0,0,0.05649632,979.80594,-300.61306)">
      <g
         id="g2472">
        <g
           id="g2355"
           transform="translate(-1141.1,-11.411)">
          <g
             id="g2357">
            <path
               id="path2359"
               style="fill:#000000"
               d="m 200,406.38 v 190.37 c 0,5.32 5.35,9.63 12,9.63 h 276 c 6.65,0 12,-4.31 12,-9.63 V 406.38 h -30 v 12.15 c 0,4.89 -5.17,8.85 -11.59,8.85 h -46.82 c -6.42,0 -11.59,-3.96 -11.59,-8.85 V 406.38 H 300 v 12.15 c 0,4.89 -5.17,8.85 -11.59,8.85 h -46.82 c -6.42,0 -11.59,-3.96 -11.59,-8.85 v -12.15 z" />
            <path
               id="path2361"
               style="fill:#000000"
               d="m 212,198.38 c -6.65,0 -12,4.27 -12,9.59 v 190.41 h 30 v -12.19 c 0,-4.89 5.17,-8.81 11.59,-8.81 h 46.82 c 6.42,0 11.59,3.92 11.59,8.81 v 12.19 h 100 v -12.19 c 0,-4.89 5.17,-8.81 11.59,-8.81 h 46.82 c 6.42,0 11.59,3.92 11.59,8.81 v 12.19 h 30 V 207.97 c 0,-5.32 -5.35,-9.59 -12,-9.59 z" />
          </g>
          <rect
             id="rect2363"
             style="fill:url(#linearGradient173);stroke:#000000;stroke-linecap:round;stroke-linejoin:round"
             height="15"
             width="300"
             y="394.88"
             x="200" />
          <rect
             id="rect2365"
             style="fill:url(#linearGradient175);stroke:#000000;stroke-linecap:round;stroke-linejoin:round"
             height="40"
             width="65"
             y="382.35999"
             x="232.5" />
          <rect
             id="rect2367"
             style="fill:url(#linearGradient177);stroke:#000000;stroke-linecap:round;stroke-linejoin:round"
             height="40"
             width="65"
             y="382.35999"
             x="402.5" />
        </g>
        <path
           id="path2470"
           style="fill:url(#radialGradient179);stroke:#5a5a5a;stroke-width:4;stroke-linejoin:round"
           d="m -775.97,228.84 c -23.57,0 -43.11,6.33 -58.65,19 -15.55,12.68 -27.28,30.68 -35.16,54.04 -5.36,15.88 -8.88,35.25 -10.6,58.06 h 40.79 c 2.45,-34.81 8.93,-59.83 19.43,-74.97 10.91,-15.47 25.48,-23.19 43.75,-23.19 18.57,0 34.08,8.75 46.53,26.28 9.55,13.44 15.4,37.42 17.63,71.88 h 40.81 c -1.15,-16.51 -3.18,-30.58 -6.15,-42.16 -4.87,-18.93 -11.58,-34.97 -20.13,-48.16 -8.54,-13.18 -19.39,-23.28 -32.5,-30.28 -13.11,-6.99 -28.36,-10.5 -45.75,-10.5 z" />
        <path
           id="path2448"
           style="fill:url(#radialGradient181);stroke:#5a5a5a;stroke-width:4;stroke-linejoin:round"
           d="m -880.31,428.81 c 3.41,43.28 13.65,75.71 30.75,97.28 17.83,22.4 42.35,33.6 73.59,33.6 23.72,0 43.36,-6.38 58.91,-19.13 15.54,-12.74 27.22,-30.77 35.03,-54.12 5.29,-15.84 8.79,-35.05 10.5,-57.63 h -40.72 c -2.24,34.22 -8.1,58.13 -17.63,71.66 -12.45,17.68 -27.82,26.5 -46.09,26.5 -18.27,0 -33.61,-8.8 -46.06,-26.41 -9.53,-13.48 -15.42,-37.41 -17.66,-71.75 z" />
      </g>
      <g
         id="g2511">
        <g
           id="g2295"
           transform="translate(-761.98,-11.411)">
          <g
             id="g2297">
            <path
               id="path2299"
               style="fill:#000000"
               d="m 200,406.38 v 190.37 c 0,5.32 5.35,9.63 12,9.63 h 276 c 6.65,0 12,-4.31 12,-9.63 V 406.38 h -30 v 12.15 c 0,4.89 -5.17,8.85 -11.59,8.85 h -46.82 c -6.42,0 -11.59,-3.96 -11.59,-8.85 V 406.38 H 300 v 12.15 c 0,4.89 -5.17,8.85 -11.59,8.85 h -46.82 c -6.42,0 -11.59,-3.96 -11.59,-8.85 v -12.15 z" />
            <path
               id="path2301"
               style="fill:#000000"
               d="m 212,198.38 c -6.65,0 -12,4.27 -12,9.59 v 190.41 h 30 v -12.19 c 0,-4.89 5.17,-8.81 11.59,-8.81 h 46.82 c 6.42,0 11.59,3.92 11.59,8.81 v 12.19 h 100 v -12.19 c 0,-4.89 5.17,-8.81 11.59,-8.81 h 46.82 c 6.42,0 11.59,3.92 11.59,8.81 v 12.19 h 30 V 207.97 c 0,-5.32 -5.35,-9.59 -12,-9.59 z" />
          </g>
          <rect
             id="rect2303"
             style="fill:url(#linearGradient183);stroke:#000000;stroke-linecap:round;stroke-linejoin:round"
             height="15"
             width="300"
             y="394.88"
             x="200" />
          <rect
             id="rect2305"
             style="fill:url(#linearGradient185);stroke:#000000;stroke-linecap:round;stroke-linejoin:round"
             height="40"
             width="65"
             y="382.35999"
             x="232.5" />
          <rect
             id="rect2307"
             style="fill:url(#linearGradient187);stroke:#000000;stroke-linecap:round;stroke-linejoin:round"
             height="40"
             width="65"
             y="382.35999"
             x="402.5" />
        </g>
        <path
           id="path2468"
           style="fill:url(#radialGradient189);stroke:#5a5a5a;stroke-width:4;stroke-linejoin:round"
           d="m -379.91,228.84 c -6.92,14 -18.69,28.43 -35.34,43.32 -16.65,14.88 -36.09,27.54 -58.34,38 v 38.46 c 12.37,-4.56 26.33,-11.42 41.87,-20.56 15.55,-9.13 28.11,-18.27 37.69,-27.4 v 59.28 h 39.78 v -131.1 z" />
        <path
           id="path2446"
           style="fill:url(#radialGradient191);stroke:#5a5a5a;stroke-width:4;stroke-linejoin:round"
           d="m -394.03,428.81 v 125.35 h 39.78 V 428.81 Z" />
      </g>
      <g
         id="g2550">
        <g
           id="g2315"
           transform="translate(-382.89,-11.411)">
          <g
             id="g2317">
            <path
               id="path2319"
               style="fill:#000000"
               d="m 200,406.38 v 190.37 c 0,5.32 5.35,9.63 12,9.63 h 276 c 6.65,0 12,-4.31 12,-9.63 V 406.38 h -30 v 12.15 c 0,4.89 -5.17,8.85 -11.59,8.85 h -46.82 c -6.42,0 -11.59,-3.96 -11.59,-8.85 V 406.38 H 300 v 12.15 c 0,4.89 -5.17,8.85 -11.59,8.85 h -46.82 c -6.42,0 -11.59,-3.96 -11.59,-8.85 v -12.15 z" />
            <path
               id="path2321"
               style="fill:#000000"
               d="m 212,198.38 c -6.65,0 -12,4.27 -12,9.59 v 190.41 h 30 v -12.19 c 0,-4.89 5.17,-8.81 11.59,-8.81 h 46.82 c 6.42,0 11.59,3.92 11.59,8.81 v 12.19 h 100 v -12.19 c 0,-4.89 5.17,-8.81 11.59,-8.81 h 46.82 c 6.42,0 11.59,3.92 11.59,8.81 v 12.19 h 30 V 207.97 c 0,-5.32 -5.35,-9.59 -12,-9.59 z" />
          </g>
          <rect
             id="rect2323"
             style="fill:url(#linearGradient193);stroke:#000000;stroke-linecap:round;stroke-linejoin:round"
             height="15"
             width="300"
             y="394.88"
             x="200" />
          <rect
             id="rect2325"
             style="fill:url(#linearGradient195);stroke:#000000;stroke-linecap:round;stroke-linejoin:round"
             height="40"
             width="65"
             y="382.35999"
             x="232.5" />
          <rect
             id="rect2327"
             style="fill:url(#linearGradient197);stroke:#000000;stroke-linecap:round;stroke-linejoin:round"
             height="40"
             width="65"
             y="382.35999"
             x="402.5" />
        </g>
        <path
           id="path2466"
           style="fill:url(#radialGradient199);stroke:#5a5a5a;stroke-width:4;stroke-linejoin:round"
           d="m -18.969,228.84 c -30.795,0 -55.323,7.99 -73.593,23.97 -18.268,15.99 -28.828,39.22 -31.628,69.72 l 40.909,4.22 c 0.147,-20.33 5.944,-36.26 17.437,-47.75 11.493,-11.49 26.814,-17.22 45.969,-17.22 18.123,0 32.822,5.39 44.094,16.22 11.271,10.83 16.906,24.14 16.906,39.91 0,13.29 -4.821,27.3 -14.5,42.03 H 72.75 c 0.453,-0.98 0.902,-1.94 1.312,-2.91 5.305,-12.52 7.969,-25.28 7.969,-38.25 0,-25.49 -9.064,-46.85 -27.187,-64.09 C 36.72,237.45 12.121,228.84 -18.969,228.84 Z" />
        <path
           id="path2444"
           style="fill:url(#radialGradient201);stroke:#5a5a5a;stroke-width:4;stroke-linejoin:round"
           d="m -42.094,428.81 c -2.194,1.83 -4.427,3.69 -6.718,5.57 -22.692,18.56 -40.054,34.91 -52.068,49.06 -12,14.14 -20.73,28.5 -26.18,43.09 -3.39,8.84 -4.92,18.05 -4.63,27.63 H 82.47 l -0.001,-38.22 h -158.91 c 4.424,-7.22 10.007,-14.42 16.785,-21.56 6.778,-7.15 22.099,-20.75 45.968,-40.79 10.619,-8.97 20.129,-17.22 28.5,-24.78 z" />
      </g>
      <g
         id="g2589">
        <g
           id="g2187"
           transform="translate(-3.8035,-11.411)">
          <g
             id="g3304">
            <path
               id="rect2160"
               style="fill:#000000"
               d="m 200,406.38 v 190.37 c 0,5.32 5.35,9.63 12,9.63 h 276 c 6.65,0 12,-4.31 12,-9.63 V 406.38 h -30 v 12.15 c 0,4.89 -5.17,8.85 -11.59,8.85 h -46.82 c -6.42,0 -11.59,-3.96 -11.59,-8.85 V 406.38 H 300 v 12.15 c 0,4.89 -5.17,8.85 -11.59,8.85 h -46.82 c -6.42,0 -11.59,-3.96 -11.59,-8.85 v -12.15 z" />
            <path
               id="path4106"
               style="fill:#000000"
               d="m 212,198.38 c -6.65,0 -12,4.27 -12,9.59 v 190.41 h 30 v -12.19 c 0,-4.89 5.17,-8.81 11.59,-8.81 h 46.82 c 6.42,0 11.59,3.92 11.59,8.81 v 12.19 h 100 v -12.19 c 0,-4.89 5.17,-8.81 11.59,-8.81 h 46.82 c 6.42,0 11.59,3.92 11.59,8.81 v 12.19 h 30 V 207.97 c 0,-5.32 -5.35,-9.59 -12,-9.59 z" />
          </g>
          <rect
             id="rect3181"
             style="fill:url(#linearGradient203);stroke:#000000;stroke-linecap:round;stroke-linejoin:round"
             height="15"
             width="300"
             y="394.88"
             x="200" />
          <rect
             id="rect3146"
             style="fill:url(#linearGradient205);stroke:#000000;stroke-linecap:round;stroke-linejoin:round"
             height="40"
             width="65"
             y="382.35999"
             x="232.5" />
          <rect
             id="rect3148"
             style="fill:url(#linearGradient207);stroke:#000000;stroke-linecap:round;stroke-linejoin:round"
             height="40"
             width="65"
             y="382.35999"
             x="402.5" />
        </g>
        <path
           id="path2464"
           style="fill:url(#radialGradient209);stroke:#5a5a5a;stroke-width:4;stroke-linejoin:round"
           d="m 352.56,228.84 c -25.64,0 -47.1,7.31 -64.34,21.97 -17.24,14.66 -28.26,35.33 -33.13,62 l 39.79,7.1 c 2.94,-19.45 9.56,-34.06 19.87,-43.79 10.31,-9.72 23.22,-14.59 38.69,-14.59 15.62,0 28.34,4.8 38.22,14.38 9.87,9.57 14.81,21.66 14.81,36.25 0,18.41 -6.76,32.03 -20.31,40.87 -4.17,2.72 -8.52,5.02 -13,6.91 h 56.18 c 2.51,-2.72 4.76,-5.61 6.75,-8.66 7.52,-11.49 11.28,-24.25 11.29,-38.25 -0.01,-14.73 -3.97,-28.63 -11.85,-41.75 -7.88,-13.11 -19.24,-23.47 -34.12,-31.06 -14.89,-7.59 -31.17,-11.38 -48.85,-11.38 z" />
        <path
           id="path2442"
           style="fill:url(#radialGradient211);stroke:#5a5a5a;stroke-width:4;stroke-linejoin:round"
           d="m 414.03,428.81 c 4.68,8.93 7.03,19.1 7.03,30.53 0,19.16 -6.45,35.23 -19.34,48.19 -12.89,12.97 -28.7,19.44 -47.41,19.44 -15.76,0 -29.15,-4.96 -40.12,-14.91 -10.98,-9.94 -18.75,-26.17 -23.31,-48.72 l -39.79,5.28 c 2.66,26.97 13.37,48.94 32.16,65.88 18.79,16.94 42.41,25.41 70.84,25.41 31.54,0 57.63,-9.83 78.25,-29.5 20.63,-19.67 30.94,-43.65 30.94,-71.94 0,-10.83 -1.41,-20.71 -4.25,-29.66 z" />
      </g>
      <g
         id="g2638">
        <g
           id="g2195"
           transform="translate(375.28,-11.411)">
          <g
             id="g2197">
            <path
               id="path2199"
               style="fill:#000000"
               d="m 200,406.38 v 190.37 c 0,5.32 5.35,9.63 12,9.63 h 276 c 6.65,0 12,-4.31 12,-9.63 V 406.38 h -30 v 12.15 c 0,4.89 -5.17,8.85 -11.59,8.85 h -46.82 c -6.42,0 -11.59,-3.96 -11.59,-8.85 V 406.38 H 300 v 12.15 c 0,4.89 -5.17,8.85 -11.59,8.85 h -46.82 c -6.42,0 -11.59,-3.96 -11.59,-8.85 v -12.15 z" />
            <path
               id="path2201"
               style="fill:#000000"
               d="m 212,198.38 c -6.65,0 -12,4.27 -12,9.59 v 190.41 h 30 v -12.19 c 0,-4.89 5.17,-8.81 11.59,-8.81 h 46.82 c 6.42,0 11.59,3.92 11.59,8.81 v 12.19 h 100 v -12.19 c 0,-4.89 5.17,-8.81 11.59,-8.81 h 46.82 c 6.42,0 11.59,3.92 11.59,8.81 v 12.19 h 30 V 207.97 c 0,-5.32 -5.35,-9.59 -12,-9.59 z" />
          </g>
          <rect
             id="rect2203"
             style="fill:url(#linearGradient213);stroke:#000000;stroke-linecap:round;stroke-linejoin:round"
             height="15"
             width="300"
             y="394.88"
             x="200" />
          <rect
             id="rect2205"
             style="fill:url(#linearGradient215);stroke:#000000;stroke-linecap:round;stroke-linejoin:round"
             height="40"
             width="65"
             y="382.35999"
             x="232.5" />
          <rect
             id="rect2207"
             style="fill:url(#linearGradient217);stroke:#000000;stroke-linecap:round;stroke-linejoin:round"
             height="40"
             width="65"
             y="382.35999"
             x="402.5" />
        </g>
        <path
           id="path2456"
           style="fill:url(#radialGradient219);stroke:#5a5a5a;stroke-width:4;stroke-linejoin:round"
           d="m 763.19,230.16 -91.38,129.78 h 38.35 l 45.75,-65.91 v 65.91 h 39.78 V 230.16 Z" />
        <path
           id="path2440"
           style="fill:url(#radialGradient2729);stroke:#5a5a5a;stroke-width:4;stroke-linejoin:round"
           d="m 623.31,428.81 -7.97,11.31 v 36.47 h 140.57 v 77.57 h 39.78 v -77.57 h 43.75 v -36.47 h -43.75 v -11.31 h -39.78 v 11.31 H 654.47 l 7.84,-11.31 z" />
      </g>
    </g>
    <path
       id="path2438"
       style="fill:url(#radialGradient171);stroke:#5a5a5a;stroke-width:0.157452;stroke-linejoin:round"
       d="m 960.02905,-249.43745 c 0.0321,0.33529 0.0442,0.69375 0.0442,1.07706 0,1.3486 -0.18085,2.42979 -0.54255,3.24525 -0.36571,0.81545 -0.80779,1.22359 -1.33426,1.22359 -0.43806,0 -0.8078,-0.2881 -1.11725,-0.86678 -0.30945,-0.57868 -0.50638,-1.44298 -0.59077,-2.59206 l -1.14699,0.20117 c 0.0727,1.53984 0.36451,2.77585 0.87772,3.70803 0.51039,0.93218 1.16949,1.39827 1.97729,1.39827 0.98462,0 1.76429,-0.74094 2.33496,-2.22283 0.46619,-1.20703 0.70331,-2.63925 0.70331,-4.29582 0,-0.30134 -0.008,-0.59275 -0.0241,-0.87588 z" />
    <path
       id="path2436"
       style="fill:url(#radialGradient169);stroke:#5a5a5a;stroke-width:0.157452;stroke-linejoin:round"
       d="m 965.66753,-249.43745 c 0.0803,2.40082 0.35768,4.1766 0.83994,5.329 0.57471,1.37757 1.31418,2.06553 2.22244,2.06553 0.53451,0 1.01276,-0.2616 1.43072,-0.78565 0.42199,-0.52487 0.75154,-1.28071 0.99266,-2.26753 0.24113,-0.986 0.3617,-2.05312 0.3617,-3.2022 0,-0.39572 -0.0161,-0.77572 -0.0402,-1.13915 h -1.14137 c 0.0442,0.38992 0.0643,0.81545 0.0643,1.27657 0,1.31549 -0.16477,2.35612 -0.49833,3.1219 -0.32955,0.76578 -0.7234,1.14743 -1.18558,1.14743 -0.31749,0 -0.6189,-0.18379 -0.90424,-0.55467 -0.28534,-0.37006 -0.5104,-0.90983 -0.67115,-1.61683 -0.15674,-0.70783 -0.23711,-1.44878 -0.23711,-2.22283 0,-0.41146 0.0201,-0.79476 0.0643,-1.15157 z" />
    <path
       id="path2434"
       style="fill:url(#radialGradient167);stroke:#5a5a5a;stroke-width:0.157452;stroke-linejoin:round"
       d="m 978.04969,-249.43745 c -0.10048,0.61428 -0.19291,1.23518 -0.27329,1.86271 -0.26524,2.03987 -0.40189,3.77922 -0.41394,5.21889 h 1.12126 c 0.0603,-1.82297 0.20095,-3.49941 0.41796,-5.0318 0.0964,-0.68878 0.20497,-1.37178 0.32554,-2.0498 z" />
    <path
       id="path2432"
       style="fill:url(#radialGradient165);stroke:#5a5a5a;stroke-width:0.157452;stroke-linejoin:round"
       d="m 986.52148,-249.43745 c -0.0884,0.53811 -0.13263,1.13418 -0.13263,1.78902 0,1.59779 0.26927,2.93066 0.8078,4.00027 0.53451,1.06961 1.24183,1.60524 2.11795,1.60524 0.88013,0 1.58745,-0.53232 2.12196,-1.59779 0.53853,-1.06547 0.8078,-2.38095 0.8078,-3.94645 0,-0.67223 -0.0522,-1.289 -0.15272,-1.85029 h -1.18557 c 0.1487,0.54639 0.22104,1.17061 0.22104,1.87512 0,1.06547 -0.1688,1.94301 -0.50638,2.63429 -0.3416,0.69127 -0.77162,1.03649 -1.29408,1.03649 -0.33357,0 -0.64704,-0.16392 -0.93639,-0.49258 -0.29339,-0.32867 -0.5104,-0.79228 -0.6591,-1.39165 -0.1487,-0.59938 -0.22104,-1.21946 -0.22104,-1.86023 0,-0.67223 0.0683,-1.27243 0.20898,-1.80144 z" />
    <path
       id="path2430"
       style="fill:url(#radialGradient163);stroke:#5a5a5a;stroke-width:0.157452;stroke-linejoin:round"
       d="m 997.9592,-249.43745 c 0.41394,0.58365 0.88817,0.87588 1.4267,0.87588 0.43805,0 0.848,-0.22186 1.2257,-0.66726 0.056,-0.0662 0.1126,-0.13577 0.1649,-0.20862 z" />
    <path
       id="text3346"
       style="fill:url(#radialGradient161);stroke:#5a5a5a;stroke-width:0.157452;stroke-linejoin:round"
       d="m 1001.4878,-249.43745 c -0.028,0.56047 -0.072,1.11514 -0.1407,1.66319 -0.1085,0.89907 -0.2411,1.61352 -0.4059,2.1417 -0.1607,0.52901 -0.3657,0.95122 -0.6189,1.26747 -0.2532,0.31624 -0.54657,0.47354 -0.88416,0.47354 -0.38983,0 -0.71134,-0.22767 -0.9605,-0.68548 -0.25319,-0.45781 -0.42199,-1.19461 -0.5104,-2.21041 l -1.04894,0.19952 c 0.0884,1.44049 0.35367,2.55811 0.79575,3.35287 0.43806,0.79475 1.00472,1.19213 1.69998,1.19213 0.65507,0 1.22577,-0.36178 1.71207,-1.08616 0.4903,-0.72439 0.8559,-1.7791 1.1011,-3.16578 0.1528,-0.86264 0.2572,-1.90989 0.3176,-3.14259 z" />
    <path
       style="fill:#000080;stroke-width:0.0886569"
       d="m 985.23308,-284.37749 v -5.41109 l 0.15845,-0.1241 c 0.0967,-0.0757 1.6323,-0.1241 3.9396,-0.1241 3.32228,0 3.79782,0.0241 3.91845,0.19809 l 0.13728,0.19808 v 5.3371 5.3371 h -0.37062 c -0.35125,0 -0.37063,-0.0161 -0.37063,-0.30902 0,-0.62228 -0.12363,-0.70894 -1.01128,-0.70894 -0.88478,0 -0.96539,0.0553 -0.96539,0.66168 v 0.35628 h -1.35896 -1.35897 v -0.35628 c 0,-0.19596 -0.0333,-0.425 -0.0741,-0.50899 -0.0937,-0.19298 -1.61086,-0.21082 -1.78307,-0.021 -0.0769,0.0848 -0.11949,0.26623 -0.11949,0.50898 0,0.37627 -9.6e-4,0.37726 -0.37062,0.37726 h -0.37063 z m 6.60563,3.68539 c 0.52772,-1.71416 0.34921,-4.22286 -0.40197,-5.64921 -0.80642,-1.53122 -2.17516,-1.94987 -3.20369,-0.9799 -0.42111,0.39715 -0.948,1.4001 -1.16299,2.21383 -0.16458,0.62292 -0.39794,2.14924 -0.3452,2.25788 0.0365,0.0751 0.96829,0.44741 1.11998,0.44744 0.0605,1e-5 0.11951,-0.0716 0.13107,-0.15903 0.30234,-2.28615 0.68952,-3.06795 1.51938,-3.06795 0.82321,0 1.35896,1.07241 1.35896,2.72025 0,1.00767 -0.24943,1.83257 -0.6971,2.30545 -0.12861,0.13585 -0.21731,0.30206 -0.19712,0.36936 0.0205,0.0685 0.40266,0.12236 0.86834,0.12236 H 991.66 Z"
       id="path121" />
    <path
       style="fill:#000080;stroke-width:0.0886569"
       d="m 985.37207,-267.13653 -0.13899,-0.11508 v -5.41204 -5.41204 h 0.37063 c 0.36965,0 0.37062,0.001 0.37062,0.37726 0,0.54938 0.14089,0.64071 0.98834,0.64071 0.84746,0 0.98834,-0.0913 0.98834,-0.64071 v -0.37726 h 1.35897 1.35896 v 0.35629 c 0,0.60591 0.0809,0.66168 0.96023,0.66168 0.70818,0 0.82505,-0.0297 0.91421,-0.2327 0.0562,-0.12799 0.10223,-0.35703 0.10223,-0.50898 0,-0.25285 0.0314,-0.27629 0.37063,-0.27629 h 0.37062 v 5.3371 5.3371 l -0.13728,0.19809 c -0.1208,0.17429 -0.59381,0.19711 -3.9379,0.19002 -2.1118,-0.004 -3.86238,-0.0592 -3.93961,-0.12315 z m 4.87519,-1.83463 c 1.39643,-0.60967 2.3373,-2.91006 2.33624,-5.71204 0,-0.50116 -0.0293,-1.12592 -0.0647,-1.38837 l -0.0643,-0.47717 h -0.68378 c -0.77375,0 -0.7043,-0.14573 -0.54585,1.14521 0.18784,1.53054 -0.23835,3.3211 -0.95745,4.02258 -0.35872,0.34993 -1.0182,0.41472 -1.34551,0.13219 -0.45742,-0.39488 -0.78952,-1.29053 -0.97436,-2.62782 -0.0435,-0.31493 -0.0953,-0.61189 -0.11505,-0.6599 -0.0381,-0.0926 -1.15673,0.19053 -1.21329,0.30702 -0.0183,0.0377 0.009,0.44791 0.0617,0.91166 0.36915,3.27899 1.85734,5.09279 3.56635,4.34664 z"
       id="path123" />
    <path
       style="fill:#000080;stroke-width:0.0886569"
       d="m 995.61062,-284.30351 v -5.3371 l 0.13729,-0.19808 c 0.12062,-0.17404 0.59618,-0.19809 3.91845,-0.19809 2.30724,0 3.84284,0.0484 3.93964,0.1241 l 0.1584,0.1241 v 5.41109 5.41108 h -0.3706 c -0.3696,0 -0.3706,-9.9e-4 -0.3706,-0.37726 0,-0.24275 -0.043,-0.42422 -0.1195,-0.50898 -0.1723,-0.18985 -1.6895,-0.17201 -1.7831,0.021 -0.041,0.084 -0.074,0.31303 -0.074,0.50899 v 0.35628 h -1.35898 -1.35896 v -0.35628 c 0,-0.60643 -0.0806,-0.66168 -0.9654,-0.66168 -0.88766,0 -1.01128,0.0867 -1.01128,0.70894 0,0.29287 -0.0194,0.30902 -0.37063,0.30902 h -0.37063 z m 4.26221,2.61043 0.52507,-1.57494 0.031,1.54639 0.031,1.54639 0.6331,0.0363 0.6331,0.0363 v -3.82678 -3.82677 l -0.5351,0.0368 -0.5351,0.0368 -1.25621,3.66761 c -0.69094,2.01718 -1.25625,3.72069 -1.25625,3.78556 0,0.0649 0.27102,0.11648 0.60227,0.11469 l 0.60227,-0.003 z"
       id="path125" />
    <path
       style="fill:#000080;stroke-width:0.0886569"
       d="m 995.74791,-267.2034 -0.13729,-0.19809 v -5.3371 -5.3371 h 0.37063 c 0.34762,0 0.37063,0.0185 0.37063,0.2984 0,0.61063 0.1555,0.71957 1.02718,0.71957 0.86788,0 0.9495,-0.0569 0.9495,-0.66168 v -0.35629 h 1.35896 1.35898 v 0.37726 c 0,0.54938 0.1408,0.64071 0.9884,0.64071 0.8474,0 0.9883,-0.0913 0.9883,-0.64071 0,-0.37626 10e-4,-0.37726 0.3706,-0.37726 h 0.3706 v 5.41109 5.41109 l -0.1584,0.1241 c -0.097,0.0757 -1.6324,0.12409 -3.93964,0.12409 -3.32227,0 -3.79783,-0.024 -3.91845,-0.19808 z m 5.97799,-4.12827 v -2.16317 h 0.5869 0.5868 v -1.20884 -1.20883 h -0.5868 -0.5869 v -0.32257 -0.32256 l -0.6331,0.0363 c -0.6034,0.0346 -0.634,0.0497 -0.6529,0.32257 -0.02,0.28597 -0.021,0.2863 -1.25085,0.2863 -1.12939,0 -1.36798,-0.0652 -1.16834,-0.3194 0.15826,-0.20148 -0.0555,-0.31683 -0.58727,-0.31683 -0.56857,0 -0.58128,0.007 -0.70673,0.36957 -0.10663,0.3085 -0.12775,0.56083 -0.12775,1.52695 v 1.15738 h 1.91491 1.91483 v 2.16317 2.16318 h 0.6487 0.6485 z"
       id="path127" />
    <path
       style="fill:#000080;stroke-width:0.0886569"
       d="m 995.54886,-257.3938 c 0,-5.21201 0.004,-5.40813 0.11948,-5.53518 0.16503,-0.18194 7.74976,-0.18194 7.91486,0 0.1152,0.12705 0.1194,0.32317 0.1194,5.53518 v 5.40347 h -0.3706 c -0.3648,0 -0.3706,-0.006 -0.3706,-0.35629 0,-0.60869 -0.079,-0.66168 -0.9884,-0.66168 -0.9091,0 -0.9882,0.053 -0.9882,0.66168 v 0.35629 h -1.35906 -1.35896 v -0.35629 c 0,-0.60967 -0.0785,-0.66168 -0.99852,-0.66168 -0.77741,0 -0.85574,0.0211 -0.91421,0.24613 -0.0352,0.13537 -0.0639,0.36441 -0.0639,0.50898 0,0.23644 -0.0372,0.26286 -0.37063,0.26286 h -0.37062 z m 2.4407,2.95399 c -6.4e-4,-1.14331 0.0192,-1.392 0.16108,-2.01513 0.32273,-1.41766 0.86937,-2.19592 1.54613,-2.2013 0.34953,-0.003 0.45513,0.0532 0.70823,0.37559 0.6439,0.81997 0.926,2.12044 0.8733,4.02469 l -0.031,1.12041 h 0.7111 0.7112 l -0.042,-0.95495 c -0.1463,-3.32435 -0.8637,-5.5676 -2.0649,-6.45649 -1.04323,-0.77196 -2.26195,-0.23687 -3.02571,1.32843 -0.65516,1.34273 -1.01931,3.81433 -0.83765,5.68537 l 0.0386,0.39764 h 0.62618 0.62618 l -7.6e-4,-1.30426 z"
       id="path129" />
    <path
       style="fill:#000080;stroke-width:0.0886569"
       d="m 985.17131,-257.3938 c 0,-5.21201 0.004,-5.40813 0.11948,-5.53518 0.0787,-0.0868 1.43532,-0.13172 3.97466,-0.13172 3.65639,0 3.86045,0.012 3.95742,0.2327 0.0916,0.20869 0.10223,0.77973 0.10223,5.53518 v 5.30249 h -0.36375 -0.36376 l -0.0394,-0.43308 c -0.0217,-0.23819 -0.0826,-0.46723 -0.13547,-0.50898 -0.0528,-0.0418 -0.45312,-0.0759 -0.88958,-0.0759 -0.86226,0 -0.9877,0.09 -0.9877,0.70894 v 0.30903 h -1.32808 -1.32808 v -0.35629 c 0,-0.60869 -0.0791,-0.66168 -0.98834,-0.66168 -0.90919,0 -0.98833,0.053 -0.98833,0.66168 0,0.35063 -0.006,0.35629 -0.37064,0.35629 h -0.37062 z m 3.64114,4.0992 c -0.002,-0.0875 -0.13205,-0.33084 -0.28934,-0.5408 -0.38777,-0.5176 -0.54121,-1.15482 -0.54121,-2.24764 0,-0.73926 0.0241,-0.91868 0.18805,-1.39971 0.27373,-0.8031 0.64124,-1.18575 1.14003,-1.18699 0.63996,-0.002 1.10443,0.67615 1.29578,1.89072 0.17831,1.13181 -0.0636,2.45834 -0.5535,3.0346 -0.43274,0.50907 -0.33769,0.60887 0.57997,0.60887 h 0.82809 l 0.18546,-0.57676 c 0.5344,-1.66198 0.36902,-4.11967 -0.37898,-5.63167 -0.57582,-1.16397 -1.28134,-1.64686 -2.22194,-1.52081 -1.19374,0.15997 -2.03445,1.49614 -2.30374,3.6614 -0.17096,1.37466 -0.0502,2.77068 0.31742,3.67075 l 0.1622,0.39709 h 0.79753 c 0.59864,0 0.7967,-0.0397 0.79418,-0.15905 z"
       id="path131" />
    <path
       style="fill:#000080;stroke-width:0.0886569"
       d="m 974.73199,-257.31493 c 0,-4.99678 0.007,-5.33756 0.11296,-5.53518 0.10258,-0.19124 0.46867,-0.21059 3.98424,-0.21059 3.78892,0 3.8739,0.005 3.99482,0.25449 0.11956,0.24631 0.12354,0.42415 0.12354,5.53518 v 5.2807 h -0.40151 c -0.39858,0 -0.40152,-0.003 -0.40152,-0.35629 0,-0.60869 -0.0791,-0.66168 -0.98834,-0.66168 -0.90919,0 -0.98833,0.053 -0.98833,0.66168 v 0.35629 h -1.32808 c -1.30098,0 -1.32807,-0.005 -1.32807,-0.26286 0,-0.14457 -0.0288,-0.37361 -0.0639,-0.50898 -0.0584,-0.22504 -0.13679,-0.24613 -0.9142,-0.24613 -0.92003,0 -0.99853,0.052 -0.99853,0.66168 0,0.35368 -0.003,0.35629 -0.4015,0.35629 h -0.40152 z m 5.60978,3.42088 c 0.32558,-1.22002 0.89575,-2.95292 1.27282,-3.86858 l 0.34978,-0.84933 -0.018,-0.98373 -0.018,-0.98372 h -2.93413 -2.93413 l -0.0177,1.24064 -0.0177,1.24065 h 2.10246 c 1.16489,0 2.10245,0.0498 2.10245,0.11166 0,0.0614 -0.04,0.18015 -0.089,0.26385 -0.24005,0.41039 -1.33171,4.0235 -1.33171,4.40759 0,0.14336 0.13386,0.17947 0.66522,0.17947 h 0.66522 z"
       id="path133" />
    <path
       style="fill:#000080;stroke-width:0.0886569"
       d="m 975.04085,-267.09217 c -0.2418,-0.18182 -0.24709,-0.30434 -0.24709,-5.72714 v -5.25638 h 0.40151 c 0.39858,0 0.40152,0.003 0.40152,0.35629 0,0.60643 0.0806,0.66168 0.9654,0.66168 0.88764,0 1.01127,-0.0867 1.01127,-0.70894 v -0.30903 h 1.32808 1.32808 v 0.30903 c 0,0.62227 0.12363,0.70894 1.01128,0.70894 0.88479,0 0.9654,-0.0553 0.9654,-0.66168 0,-0.35368 0.003,-0.35629 0.40151,-0.35629 h 0.40151 v 5.25638 c 0,4.33819 -0.0153,5.29951 -0.0876,5.50337 -0.085,0.23949 -0.20474,0.24771 -3.93792,0.27022 -2.11763,0.0128 -3.89194,-0.008 -3.9429,-0.0464 z m 7.10367,-3.28351 v -1.20718 l -2.14654,-0.0335 -2.14655,-0.0335 0.38198,-0.8271 c 0.21009,-0.4549 0.75732,-1.48559 1.21608,-2.29042 0.45875,-0.80483 0.83584,-1.5349 0.83799,-1.62238 0.003,-0.11995 -0.20553,-0.15906 -0.84781,-0.15906 h -0.85172 l -0.55358,0.99538 c -1.23152,2.21443 -1.80039,3.91683 -1.91774,5.73898 l -0.0416,0.64589 h 3.03473 3.03474 z"
       id="path135" />
    <path
       style="fill:#000080;stroke-width:0.0886569"
       d="m 974.79376,-284.2471 c 0,-5.11103 0.004,-5.28887 0.12354,-5.53518 0.12091,-0.24907 0.2059,-0.2545 3.98424,-0.2545 3.77834,0 3.86333,0.005 3.98424,0.2545 0.11957,0.24631 0.12354,0.42415 0.12354,5.53518 v 5.28069 h -0.40151 c -0.39857,0 -0.40151,-0.003 -0.40151,-0.35628 0,-0.60643 -0.0806,-0.66168 -0.9654,-0.66168 -0.88765,0 -1.01128,0.0867 -1.01128,0.70894 v 0.30902 h -1.32808 -1.32808 v -0.30902 c 0,-0.62228 -0.12363,-0.70894 -1.01127,-0.70894 -0.8848,0 -0.9654,0.0553 -0.9654,0.66168 0,0.35367 -0.003,0.35628 -0.40152,0.35628 h -0.40151 z m 7.1965,3.46744 c 0.50883,-3.48246 -0.4201,-6.4721 -2.17282,-6.99289 -0.60078,-0.17851 -1.33515,-0.0197 -1.89127,0.40887 -0.486,0.37457 -1.0326,1.42891 -1.28215,2.47312 -0.20844,0.87219 -0.36909,2.41083 -0.27217,2.60691 0.0323,0.0655 0.32232,0.13721 0.64433,0.15939 l 0.58549,0.0403 0.0464,-0.74796 c 0.10827,-1.74422 0.6932,-2.76039 1.59228,-2.76624 0.94951,-0.006 1.61077,1.23767 1.60547,3.01998 -8e-4,0.27182 -0.0724,0.83778 -0.15925,1.25769 -0.27394,1.32545 -0.32128,1.20883 0.49086,1.20883 h 0.71518 z"
       id="path137" />
    <path
       style="fill:#000080;stroke-width:0.0886569"
       d="m 964.41622,-284.30351 v -5.3371 l 0.13729,-0.19808 c 0.12062,-0.17404 0.59617,-0.19809 3.91844,-0.19809 2.3073,0 3.84292,0.0484 3.9396,0.1241 l 0.15845,0.1241 v 5.41109 5.41108 h -0.37062 c -0.36966,0 -0.37063,-9.9e-4 -0.37063,-0.37726 0,-0.24275 -0.0426,-0.42422 -0.11948,-0.50898 -0.17221,-0.18985 -1.68938,-0.17201 -1.78307,0.021 -0.0408,0.084 -0.0741,0.31303 -0.0741,0.50899 v 0.35628 h -1.3281 c -1.23148,0 -1.32808,-0.0165 -1.32808,-0.22617 0,-0.1244 -0.0433,-0.35344 -0.0961,-0.50899 -0.0912,-0.26829 -0.13859,-0.2828 -0.92307,-0.2828 -0.78448,0 -0.83183,0.0145 -0.92306,0.2828 -0.0529,0.15555 -0.0961,0.38459 -0.0961,0.50899 0,0.19161 -0.0566,0.22617 -0.37062,0.22617 h -0.37063 z m 5.74471,0.3109 v -3.88099 l -0.41695,9.8e-4 -0.41696,9.7e-4 -0.14913,0.53773 c -0.32151,1.15926 -1.27007,2.87428 -2.05917,3.72304 l -0.35491,0.38174 v 1.24064 c 0,0.8473 0.0223,1.24065 0.0706,1.24065 0.13275,0 1.18689,-1.15918 1.62413,-1.78596 l 0.43623,-0.62534 0.0173,1.52376 0.0173,1.52377 h 0.61581 0.61581 z"
       id="path139" />
    <path
       style="fill:#000080;stroke-width:0.0886569"
       d="m 964.55351,-267.2034 -0.13729,-0.19809 v -5.3371 -5.3371 h 0.37063 c 0.31398,0 0.37062,0.0346 0.37062,0.22618 0,0.1244 0.0433,0.35344 0.0961,0.50898 0.0912,0.2683 0.13858,0.28281 0.92306,0.28281 0.78448,0 0.83185,-0.0145 0.92307,-0.28281 0.0529,-0.15554 0.0961,-0.38458 0.0961,-0.50898 0,-0.20973 0.0966,-0.22618 1.32808,-0.22618 h 1.32807 v 0.37726 c 0,0.54938 0.14089,0.64071 0.98835,0.64071 0.84745,0 0.98833,-0.0913 0.98833,-0.64071 0,-0.37626 9.6e-4,-0.37726 0.37063,-0.37726 h 0.37062 v 5.41109 5.41109 l -0.15845,0.1241 c -0.0966,0.0757 -1.6323,0.12409 -3.9396,0.12409 -3.32227,0 -3.79782,-0.024 -3.91844,-0.19808 z m 5.60742,-5.65522 v -3.69012 h -0.61771 -0.61771 v 3.69012 3.69013 h 0.61771 0.61771 z"
       id="path141" />
    <path
       style="fill:#000080;stroke-width:0.0886569"
       d="m 954.17595,-267.2034 -0.13728,-0.19809 v -5.3371 -5.3371 h 0.37063 c 0.35124,0 0.37062,0.0162 0.37062,0.30903 0,0.62227 0.12363,0.70894 1.01129,0.70894 0.88478,0 0.96539,-0.0553 0.96539,-0.66168 v -0.35629 h 1.35897 1.35896 v 0.35629 c 0,0.60643 0.0806,0.66168 0.9654,0.66168 0.88765,0 1.01127,-0.0867 1.01127,-0.70894 0,-0.29287 0.0194,-0.30903 0.37064,-0.30903 h 0.37062 v 5.3371 5.3371 l -0.13729,0.19809 c -0.12064,0.17407 -0.59819,0.19808 -3.9396,0.19808 -3.34143,0 -3.81897,-0.024 -3.93962,-0.19808 z m 4.90116,-1.72247 c 0.54669,-0.20749 0.95492,-0.66218 1.33873,-1.49108 0.5657,-1.2217 0.92615,-3.07146 1.0151,-5.20926 l 0.0384,-0.92253 h -0.6256 c -0.71428,0 -0.62829,-0.1767 -0.74304,1.52695 -0.0941,1.39796 -0.24466,2.22916 -0.52053,2.87473 -0.32558,0.76195 -0.63156,1.06988 -1.06309,1.06988 -0.57797,0 -1.06775,-0.73038 -1.34003,-1.99835 -0.13566,-0.63175 -0.2969,-2.24764 -0.2969,-2.97542 v -0.49779 h -0.65579 -0.65579 l 0.0443,0.85891 c 0.0627,1.21454 0.29917,3.0527 0.4953,3.84998 0.55445,2.25389 1.71274,3.39075 2.96891,2.91398 z"
       id="path143" />
    <path
       style="fill:#000080;stroke-width:0.0886569"
       d="m 954.03867,-284.37749 v -5.41109 l 0.15845,-0.1241 c 0.0967,-0.0757 1.6323,-0.1241 3.9396,-0.1241 3.32227,0 3.79783,0.0241 3.91845,0.19809 l 0.13729,0.19808 v 5.3371 5.3371 h -0.37062 c -0.35126,0 -0.37064,-0.0161 -0.37064,-0.30902 0,-0.62228 -0.12362,-0.70894 -1.01127,-0.70894 -0.88479,0 -0.9654,0.0553 -0.9654,0.66168 v 0.35628 h -1.35896 -1.35897 v -0.35628 c 0,-0.19596 -0.0334,-0.425 -0.0741,-0.50899 -0.0936,-0.19298 -1.61087,-0.21082 -1.78307,-0.021 -0.0768,0.0848 -0.11949,0.26623 -0.11949,0.50898 0,0.37627 -9.7e-4,0.37726 -0.37062,0.37726 h -0.37063 z m 2.84147,3.83457 c 0,-0.72573 0.18452,-2.48443 0.33346,-3.17815 0.16434,-0.76544 0.47045,-1.44094 0.76968,-1.69851 0.30663,-0.26391 0.81482,-0.23047 1.10321,0.0726 0.28919,0.30392 0.67504,1.15192 0.79643,1.75037 0.11287,0.55649 0.27109,2.10653 0.27109,2.65582 0,0.81345 0.0132,0.82918 0.69498,0.82918 h 0.61998 l -0.04,-0.98832 c -0.0812,-2.00556 -0.50317,-4.15377 -1.02852,-5.23596 -0.58761,-1.21044 -1.4688,-1.74484 -2.36294,-1.433 -0.61952,0.21605 -1.02371,0.65572 -1.42628,1.55144 -0.55316,1.23078 -0.89629,3.01327 -1.00085,5.19923 l -0.0434,0.90661 h 0.65658 0.65657 z"
       id="path145" />
    <path
       style="fill:#000080;stroke-width:0.0886569"
       d="m 964.35445,-257.32556 c 0,-4.68055 0.0119,-5.35977 0.097,-5.53519 0.0861,-0.17751 0.53036,-0.19995 3.95741,-0.19995 2.5429,0 3.90111,0.0449 3.97982,0.13172 0.11525,0.12705 0.11948,0.32317 0.11948,5.53518 v 5.40347 h -0.37063 c -0.36474,0 -0.37062,-0.006 -0.37062,-0.35629 0,-0.60869 -0.0791,-0.66168 -0.98834,-0.66168 -0.90919,0 -0.98833,0.053 -0.98833,0.66168 v 0.35629 h -1.35897 -1.35897 v -0.43175 c 0,-0.27631 -0.0352,-0.45955 -0.0977,-0.50898 -0.0537,-0.0425 -0.46971,-0.0772 -0.92439,-0.0772 -0.75409,0 -0.83229,0.0216 -0.89063,0.24613 -0.0352,0.13537 -0.0639,0.36441 -0.0639,0.50898 0,0.23644 -0.0372,0.26286 -0.37063,0.26286 h -0.37062 z m 2.49496,3.90371 c 0.0145,-0.15746 0.0542,-0.62986 0.088,-1.04977 0.2347,-2.91116 1.14725,-4.64258 2.17832,-4.13304 0.5262,0.26002 0.85629,1.06829 1.08396,2.65418 0.0183,0.12759 0.0879,0.15396 0.25572,0.0968 0.1268,-0.0432 0.36953,-0.08 0.5394,-0.0819 0.45471,-0.005 0.47448,-0.0583 0.36851,-0.99408 -0.11743,-1.03696 -0.28723,-1.7047 -0.61962,-2.43671 -0.45693,-1.00626 -1.10309,-1.52233 -1.91334,-1.52813 -1.17451,-0.008 -2.13681,1.19093 -2.65443,3.30826 -0.30236,1.2368 -0.5819,3.53256 -0.53031,4.35518 0.003,0.0525 0.26953,0.0954 0.59164,0.0954 0.55831,0 0.58688,-0.0134 0.61212,-0.2863 z m 3.55861,0.11887 c 0,-0.42303 -0.93404,-1.10502 -1.51339,-1.10502 -0.57791,0 -1.5134,0.67017 -1.5134,1.08417 0,0.16109 0.21857,0.18828 1.5134,0.18828 1.20992,0 1.51339,-0.0336 1.51339,-0.16743 z"
       id="path147" />
    <path
       style="fill:#000080;stroke-width:0.0886569"
       d="m 964.42858,-240.30919 c -0.0553,-0.11389 -0.0741,-1.50432 -0.0741,-5.47156 v -5.31887 h 0.37062 c 0.35186,0 0.37063,0.0157 0.37063,0.3109 0,0.56793 0.198,0.70707 1.00614,0.70707 0.82952,0 0.97053,-0.0931 0.97053,-0.64071 v -0.37726 h 1.35897 1.35897 v 0.37726 c 0,0.24276 0.0426,0.42423 0.11947,0.50899 0.0657,0.0724 0.46446,0.13172 0.88611,0.13172 0.66425,0 0.78028,-0.0311 0.86886,-0.2327 0.0562,-0.12798 0.10223,-0.35703 0.10223,-0.50898 0,-0.25285 0.0314,-0.27629 0.37062,-0.27629 h 0.37063 v 5.31887 c 0,3.96724 -0.0188,5.35767 -0.0741,5.47156 -0.10712,0.22069 -7.8984,0.22069 -8.00552,0 z m 4.88195,-1.69488 c 0.44895,-0.11679 1.10378,-0.85464 1.44845,-1.63209 0.55393,-1.24952 0.82269,-2.80405 0.82269,-4.75871 v -1.18641 l -0.65724,0.0361 -0.65724,0.0361 0.012,1.21721 c 0.009,0.95702 -0.0148,1.36501 -0.11366,1.90868 -0.17001,0.93545 -0.45771,1.618 -0.83417,1.97911 -0.78815,0.75601 -1.66903,0.043 -2.08227,-1.68555 -0.19484,-0.81496 -0.20764,-0.94913 -0.20764,-2.17565 v -1.30713 l -0.73434,-1.7e-4 -0.73434,-1.7e-4 0.0416,0.85891 c 0.0919,1.89761 0.42885,3.77414 0.86587,4.82193 0.25858,0.61998 0.78867,1.37286 1.16167,1.64992 0.28667,0.21292 0.97355,0.41015 1.22179,0.35081 0.0849,-0.0203 0.28601,-0.0711 0.4468,-0.11296 z"
       id="path149" />
    <path
       style="fill:#000080;stroke-width:0.0886569"
       d="m 974.79594,-240.40262 c -0.0411,-0.1582 -0.0639,-2.11287 -0.0639,-5.47156 v -5.22544 h 0.40152 0.4015 v 0.37726 c 0,0.24276 0.0426,0.42423 0.11949,0.50899 0.0657,0.0724 0.46446,0.13172 0.88611,0.13172 0.66424,0 0.78027,-0.0311 0.86885,-0.2327 0.0562,-0.12798 0.10224,-0.35703 0.10224,-0.50898 0,-0.27498 0.006,-0.27629 1.32807,-0.27629 h 1.32808 v 0.2984 c 0,0.60311 0.1589,0.71957 0.98182,0.71957 0.85403,0 0.99485,-0.0907 0.99485,-0.64071 v -0.37726 h 0.40152 0.40151 v 5.27161 c 0,4.62271 -0.0119,5.29622 -0.097,5.47156 -0.0862,0.17761 -0.53822,0.19996 -4.04383,0.19996 -3.83884,0 -3.94852,-0.007 -4.01071,-0.24613 z m 3.79271,-2.52146 c 0.0653,-1.33808 0.33616,-4.05167 0.52652,-5.27576 0.10334,-0.66456 0.18789,-1.2453 0.18789,-1.29055 0,-0.0453 -0.30261,-0.0823 -0.67245,-0.0823 h -0.67245 l -0.19332,1.43778 c -0.23279,1.73141 -0.4112,3.61874 -0.46852,4.95631 l -0.0422,0.98616 h 0.64942 0.64943 z"
       id="path151" />
    <path
       style="fill:#000080;stroke-width:0.0886569"
       d="m 985.24853,-240.24076 c -0.0601,-0.0499 -0.0772,-1.26271 -0.0772,-5.46152 v -5.39734 h 0.37062 c 0.36966,0 0.37064,10e-4 0.37064,0.37726 0,0.54938 0.14087,0.64071 0.98833,0.64071 0.84746,0 0.98834,-0.0913 0.98834,-0.64071 v -0.37726 h 1.32808 c 1.28689,0 1.32808,0.008 1.32808,0.2545 0,0.13997 0.0556,0.36901 0.12354,0.50898 0.11036,0.22734 0.2059,0.25449 0.89568,0.25449 0.68978,0 0.78532,-0.0272 0.89568,-0.25449 0.0679,-0.13997 0.12354,-0.36901 0.12354,-0.50898 0,-0.22622 0.0412,-0.2545 0.37063,-0.2545 h 0.37063 v 5.31887 c 0,3.96724 -0.0188,5.35767 -0.0741,5.47156 -0.0562,0.11578 -1.02332,0.15027 -3.99968,0.14265 -2.15905,-0.006 -3.9603,-0.0389 -4.00276,-0.0742 z m 5.11155,-1.95463 c 1.26518,-0.75922 2.08289,-3.25248 1.95047,-5.94718 -0.0717,-1.45953 -0.0551,-1.4301 -0.80617,-1.4301 -0.71702,0 -0.7066,-0.0154 -0.55925,0.8271 0.27623,1.57949 -0.0809,3.51668 -0.79244,4.29802 -0.36905,0.40526 -1.25435,0.40555 -1.62316,4.9e-4 -0.73007,-0.80179 -1.09561,-2.55455 -0.85964,-4.12209 0.0567,-0.37699 0.11774,-0.75701 0.13553,-0.84449 0.0247,-0.1217 -0.12882,-0.15906 -0.65382,-0.15906 -0.78392,0 -0.75317,-0.0473 -0.83226,1.28069 -0.15754,2.64488 0.65884,5.26906 1.89554,6.09312 0.58343,0.38876 1.50067,0.39024 2.1452,0.003 z"
       id="path153" />
    <path
       style="fill:#000080;stroke-width:0.0886569"
       d="m 995.62298,-240.30919 c -0.0553,-0.11389 -0.0741,-1.50432 -0.0741,-5.47156 v -5.31887 h 0.37062 c 0.34762,0 0.37063,0.0185 0.37063,0.2984 0,0.60311 0.15889,0.71957 0.98182,0.71957 0.85403,0 0.99485,-0.0907 0.99485,-0.64071 v -0.37726 h 1.35896 1.35904 v 0.37726 c 0,0.24276 0.043,0.42423 0.1194,0.50899 0.066,0.0724 0.4645,0.13172 0.886,0.13172 0.6643,0 0.7804,-0.0311 0.869,-0.2327 0.056,-0.12798 0.1022,-0.35703 0.1022,-0.50898 0,-0.25285 0.031,-0.27629 0.3706,-0.27629 h 0.3706 v 5.31887 c 0,3.96724 -0.019,5.35767 -0.074,5.47156 -0.1072,0.22069 -7.89837,0.22069 -8.0055,0 z m 4.68222,-1.84137 c 0.7799,-0.43978 1.4486,-1.63465 1.8283,-3.26676 0.1867,-0.80243 0.4034,-2.45954 0.4809,-3.67818 l 0.03,-0.47717 h -0.611 -0.6111 l -0.039,0.47717 c -0.2794,3.40748 -0.8881,4.99923 -1.90896,4.9916 -0.76966,-0.006 -1.1639,-0.73345 -1.42892,-2.63755 -0.0245,-0.17639 -0.35778,-0.20466 -0.88248,-0.0749 l -0.33139,0.082 0.0356,0.53535 c 0.10866,1.63295 0.64938,3.16929 1.34023,3.80795 0.59931,0.55404 1.38235,0.64381 2.09752,0.24049 z m -0.1811,-6.4799 c 0.3637,-0.22002 0.7371,-0.63814 0.7371,-0.82534 0,-0.0677 -0.6231,-0.11687 -1.48253,-0.11687 -0.92384,0 -1.48251,0.0468 -1.48251,0.12431 0,0.18494 0.28262,0.53213 0.64069,0.78707 0.40175,0.28603 1.14176,0.30041 1.58725,0.0308 z"
       id="path155" />
    <path
       style="fill:#000080;stroke-width:0.0886569"
       d="m 953.97314,-257.3938 c 0,-5.21201 0.004,-5.40813 0.11949,-5.53518 0.0787,-0.0868 1.43692,-0.13172 3.97983,-0.13172 3.42703,0 3.87123,0.0224 3.95741,0.19995 0.0851,0.17542 0.097,0.85464 0.097,5.53519 v 5.33523 h -0.37063 c -0.33338,0 -0.37063,-0.0264 -0.37063,-0.26286 0,-0.14457 -0.0288,-0.37361 -0.0639,-0.50898 -0.0583,-0.22452 -0.13653,-0.24613 -0.89063,-0.24613 -0.45468,0 -0.87066,0.0348 -0.9244,0.0772 -0.0625,0.0494 -0.0977,0.23267 -0.0977,0.50898 v 0.43175 h -1.35897 -1.35896 v -0.35629 c 0,-0.60869 -0.0791,-0.66168 -0.98834,-0.66168 -0.90919,0 -0.98834,0.053 -0.98834,0.66168 0,0.35063 -0.006,0.35629 -0.37062,0.35629 h -0.37064 z m 6.26468,4.14802 c 0.0809,-0.2698 -0.60508,-1.04628 -1.12526,-1.27364 -0.65006,-0.28412 -1.3647,-0.0981 -1.93807,0.50447 l -0.25408,0.26701 0.0348,-0.36184 c 0.0191,-0.19902 0.11245,-1.17781 0.20739,-2.17509 l 0.17264,-1.81325 h 1.7804 1.78038 l -0.0177,-1.24065 -0.0177,-1.24064 -2.21988,-0.0335 c -1.26473,-0.019 -2.24391,0.0161 -2.27572,0.0816 -0.0654,0.13484 -0.72161,7.15948 -0.68191,7.3003 0.0379,0.13428 4.51433,0.11973 4.5547,-0.0148 z"
       id="path157" />
    <path
       style="fill:#000080;stroke-width:0.0886569"
       d="m 954.04727,-240.30919 c -0.0553,-0.11389 -0.0741,-1.50432 -0.0741,-5.47156 v -5.31887 h 0.37064 c 0.35125,0 0.37062,0.0162 0.37062,0.30903 0,0.61565 0.1271,0.70894 0.96593,0.70894 0.42448,0 0.82555,-0.0593 0.89127,-0.13172 0.0769,-0.0848 0.11948,-0.26623 0.11948,-0.50899 v -0.37726 h 1.35896 1.35897 v 0.37726 c 0,0.54762 0.14102,0.64071 0.97053,0.64071 0.80814,0 1.00614,-0.13914 1.00614,-0.70707 0,-0.29515 0.0188,-0.3109 0.37063,-0.3109 h 0.37063 v 5.31887 c 0,3.96724 -0.0188,5.35767 -0.0741,5.47156 -0.10713,0.22069 -7.8984,0.22069 -8.00554,0 z m 5.19849,-1.91046 c 1.24302,-0.78631 2.13364,-3.59465 2.06543,-6.51277 l -0.0181,-0.77663 -0.65696,-0.036 -0.65696,-0.036 -0.0257,1.30842 c -0.0196,1.0006 -0.0583,1.45811 -0.16456,1.94466 -0.62144,2.84676 -2.45353,3.00009 -3.04092,0.25449 -0.0599,-0.27994 -0.12833,-0.7265 -0.1521,-0.99235 l -0.0432,-0.48337 -0.4404,0.0757 c -0.24221,0.0416 -0.53407,0.10556 -0.64855,0.14207 l -0.20816,0.0664 0.0412,0.65941 c 0.0954,1.52759 0.69008,3.25146 1.38055,4.0023 0.72065,0.78366 1.70393,0.93052 2.56847,0.38363 z"
       id="path159" />
  </g>
  <metadata
     id="metadata118">
    <rdf:RDF>
      <cc:Work>
        <dc:format>image/svg+xml</dc:format>
        <dc:type
           rdf:resource="http://purl.org/dc/dcmitype/StillImage" />
        <cc:license
           rdf:resource="http://creativecommons.org/publicdomain/zero/1.0/" />
        <dc:publisher>
          <cc:Agent
             rdf:about="http://openclipart.org/">
            <dc:title>Openclipart</dc:title>
          </cc:Agent>
        </dc:publisher>
        <dc:title></dc:title>
        <dc:date>2007-11-06T09:21:14</dc:date>
        <dc:description>Numbers 0-9 from an mechanical alarm clock similar to the one in Groundhog Day. ;)</dc:description>
        <dc:source>https://openclipart.org/detail/7984/mechanical-alarm-clock-number-tiles-by-tzeeniewheenie</dc:source>
        <dc:creator>
          <cc:Agent>
            <dc:title>TzeenieWheenie</dc:title>
          </cc:Agent>
        </dc:creator>
        <dc:subject>
          <rdf:Bag>
            <rdf:li>alarm</rdf:li>
            <rdf:li>clock</rdf:li>
            <rdf:li>mechanical</rdf:li>
            <rdf:li>numbers</rdf:li>
          </rdf:Bag>
        </dc:subject>
      </cc:Work>
      <cc:License
         rdf:about="http://creativecommons.org/publicdomain/zero/1.0/">
        <cc:permits
           rdf:resource="http://creativecommons.org/ns#Reproduction" />
        <cc:permits
           rdf:resource="http://creativecommons.org/ns#Distribution" />
        <cc:permits
           rdf:resource="http://creativecommons.org/ns#DerivativeWorks" />
      </cc:License>
    </rdf:RDF>
  </metadata>
</svg>
