<?xml version="1.0" encoding="UTF-8" standalone="no"?>
<svg
   xmlns:dc="http://purl.org/dc/elements/1.1/"
   xmlns:cc="http://creativecommons.org/ns#"
   xmlns:rdf="http://www.w3.org/1999/02/22-rdf-syntax-ns#"
   xmlns:svg="http://www.w3.org/2000/svg"
   xmlns="http://www.w3.org/2000/svg"
   xmlns:sodipodi="http://sodipodi.sourceforge.net/DTD/sodipodi-0.dtd"
   xmlns:inkscape="http://www.inkscape.org/namespaces/inkscape"
   id="0"
   sodipodi:docname="partsdia.svg"
   viewBox="0 0 50 50.000002"
   version="1.0"
   inkscape:version="1.0.1 (3bc2e813f5, 2020-09-07)"
   width="50"
   height="50">
  <defs
     id="defs15" />
  <sodipodi:namedview
     id="namedview13"
     bordercolor="#666666"
     inkscape:pageshadow="2"
     guidetolerance="10"
     pagecolor="#ffffff"
     gridtolerance="10"
     inkscape:window-maximized="1"
     inkscape:window-width="1366"
     inkscape:zoom="1"
     objecttolerance="10"
     showgrid="false"
     borderopacity="1"
     inkscape:current-layer="0"
     inkscape:cx="30.005439"
     inkscape:cy="38.768902"
     inkscape:window-y="-8"
     inkscape:window-x="-8"
     inkscape:window-height="705"
     inkscape:pageopacity="0"
     inkscape:document-rotation="0"
     inkscape:showpageshadow="false"
     showborder="false" />
  <g
     id="1"
     transform="matrix(0.24134717,0,0,0.24215206,-0.41256578,-0.42349277)"
     style="fill:#000080">
    <path
       id="2"
       style="fill:#000080;fill-rule:evenodd"
       inkscape:connector-curvature="0"
       d="m 150.63,105.54 -0.04,-1.94 -0.13,-1.94 -0.21,-1.941 -0.3,-1.898 -0.38,-1.899 -0.46,-1.898 -0.55,-1.856 -0.63,-1.856 -0.68,-1.772 -0.8,-1.813 -0.84,-1.73 -0.93,-1.687 -1.01,-1.687 -1.06,-1.603 -1.14,-1.561 -1.22,-1.519 -1.27,-1.476 -1.35,-1.392 -1.39,-1.35 -1.43,-1.307 -1.52,-1.224 -1.56,-1.139 -1.61,-1.096 -1.64,-1.013 -1.69,-0.928 -1.77,-0.886 -1.77,-0.801 -1.78,-0.717 -1.85,-0.633 -1.86,-0.548 -1.86,-0.464 -1.94,-0.38 -1.9,-0.337 -1.94,-0.211 -1.89,-0.169 -1.95,-0.042 h -1.94 l -1.94,0.126 -1.94,0.211 -1.939,0.253 -1.899,0.38 -1.899,0.422 -1.856,0.506 -1.857,0.633 -1.814,0.675 -1.772,0.759 -1.772,0.844 -1.688,0.885 -1.688,0.971 -1.603,1.096 -1.603,1.097 -1.519,1.181 -1.477,1.266 -1.434,1.349 -1.351,1.35 -1.308,1.434 -1.223,1.519 -1.182,1.561 -1.097,1.561 -1.055,1.645 -0.97,1.687 -0.886,1.729 -0.802,1.772 -0.717,1.772 -0.675,1.856 -0.591,1.856 -0.506,1.856 -0.38,1.898 -0.337,1.898 -0.254,1.945 -0.168,1.94 -0.085,1.94 v 1.94 l 0.085,1.94 0.168,1.94 0.254,1.9 0.337,1.89 0.422,1.9 0.506,1.9 0.591,1.86 0.633,1.81 0.76,1.77 0.801,1.77 0.928,1.73 0.929,1.69 1.055,1.65 1.097,1.6 1.181,1.52 1.266,1.47 1.308,1.48 1.35,1.35 1.434,1.31 1.477,1.26 1.519,1.18 1.603,1.14 1.604,1.06 1.688,0.97 1.729,0.93 1.73,0.8 1.815,0.76 1.814,0.67 1.856,0.59 1.857,0.55 1.899,0.42 1.898,0.34 1.943,0.29 1.9,0.17 1.94,0.13 h 1.94 l 1.94,-0.08 1.94,-0.13 1.94,-0.25 1.9,-0.3 1.9,-0.42 1.9,-0.47 1.85,-0.54 1.82,-0.64 1.81,-0.76 1.77,-0.76 1.73,-0.88 1.69,-0.97 1.65,-1.01 1.6,-1.1 1.56,-1.14 1.52,-1.22 1.44,-1.31 1.39,-1.35 1.35,-1.39 1.26,-1.48 1.19,-1.52 1.13,-1.56 1.1,-1.64 0.97,-1.65 0.93,-1.73 0.89,-1.73 0.76,-1.77 0.67,-1.81 0.63,-1.86 0.55,-1.85 0.47,-1.9 0.33,-1.9 0.3,-1.9 0.21,-1.94 0.13,-1.94 z" />
    <path
       id="3"
       style="fill:#000080;stroke:#ffff00;stroke-width:5.021px;stroke-linecap:round;stroke-linejoin:round"
       inkscape:connector-curvature="0"
       d="M 105.65,53.698 V 4.26" />
    <path
       id="4"
       style="fill:#000080;stroke:#ffff00;stroke-width:5.021px;stroke-linecap:round;stroke-linejoin:round"
       inkscape:connector-curvature="0"
       d="M 144.64,69.601 179.66,34.632" />
    <path
       id="5"
       style="fill:#000080;stroke:#ffff00;stroke-width:5.021px;stroke-linecap:round;stroke-linejoin:round"
       inkscape:connector-curvature="0"
       d="M 206.37,105.46 H 156.92" />
    <path
       id="6"
       style="fill:#000080;stroke:#ffff00;stroke-width:5.021px;stroke-linecap:round;stroke-linejoin:round"
       inkscape:connector-curvature="0"
       d="M 106.03,205.72 V 156.29" />
    <path
       id="7"
       style="fill:#000080;stroke:#ffff00;stroke-width:5.021px;stroke-linecap:round;stroke-linejoin:round"
       inkscape:connector-curvature="0"
       d="m 4.2193,106.64 h 49.451" />
    <path
       id="8"
       style="fill:#000080;stroke:#ffff00;stroke-width:5.021px;stroke-linecap:round;stroke-linejoin:round"
       inkscape:connector-curvature="0"
       d="M 68.606,68.04 33.67,33.071" />
    <path
       id="9"
       style="fill:#000080;stroke:#ffff00;stroke-width:5.021px;stroke-linecap:round;stroke-linejoin:round"
       inkscape:connector-curvature="0"
       d="M 32.489,177.08 67.467,142.11" />
    <path
       id="10"
       style="fill:#000080;stroke:#ffff00;stroke-width:5.021px;stroke-linecap:round;stroke-linejoin:round"
       inkscape:connector-curvature="0"
       d="M 178.1,177.46 143.12,142.53" />
  </g>
  <metadata
     id="metadata14">
    <rdf:RDF>
      <cc:Work>
        <dc:format>image/svg+xml</dc:format>
        <dc:type
           rdf:resource="http://purl.org/dc/dcmitype/StillImage" />
        <cc:license
           rdf:resource="http://creativecommons.org/publicdomain/zero/1.0/" />
        <dc:publisher>
          <cc:Agent
             rdf:about="http://openclipart.org/">
            <dc:title>Openclipart</dc:title>
          </cc:Agent>
        </dc:publisher>
        <dc:title></dc:title>
      </cc:Work>
      <cc:License
         rdf:about="http://creativecommons.org/publicdomain/zero/1.0/">
        <cc:permits
           rdf:resource="http://creativecommons.org/ns#Reproduction" />
        <cc:permits
           rdf:resource="http://creativecommons.org/ns#Distribution" />
        <cc:permits
           rdf:resource="http://creativecommons.org/ns#DerivativeWorks" />
      </cc:License>
    </rdf:RDF>
  </metadata>
  <path
     style="fill:#000080;stroke-width:0.25"
     d="m 22.536564,35.523022 c -3.096981,-0.832825 -5.684749,-3.034424 -7.085796,-6.028391 -0.622223,-1.329661 -0.807542,-2.100838 -0.892131,-3.712473 -0.240285,-4.578029 1.941783,-8.219247 6.181123,-10.314443 1.780816,-0.880127 1.989199,-0.924063 4.382681,-0.924063 2.311006,0 2.64934,0.0646 4.209867,0.803764 5.519959,2.614618 7.949719,8.886082 5.484089,14.155011 -2.233036,4.771889 -7.436475,7.323047 -12.279833,6.020595 z"
     id="path17" />
  <path
     style="fill:#000080;stroke-width:0.25"
     d="m 24.784217,12.822342 c -0.197605,-0.2381 -0.262646,-2.176284 -0.215826,-6.4314492 0.0613,-5.57097229 0.104345,-6.09782232 0.504516,-6.17477372 0.407433,-0.0783479 0.4375,0.35422945 0.4375,6.29444722 0,3.5082177 -0.09975,6.4402277 -0.221674,6.5155787 -0.12192,0.07535 -0.348952,-0.01636 -0.504516,-0.203803 z"
     id="path19" />
  <path
     style="fill:#000080;stroke-width:0.25"
     d=""
     id="path21" />
  <path
     style="fill:#000080;stroke-width:0.25"
     d=""
     id="path23" />
  <path
     style="fill:#000080;stroke-width:0.25"
     d="m 34.117497,16.639672 c -0.101091,-0.163568 1.705084,-2.154461 4.365988,-4.8125 3.620284,-3.6163863 4.58652,-4.4576577 4.776239,-4.1585204 0.185716,0.292826 -0.732581,1.3473914 -4.190638,4.8125004 -2.435658,2.440625 -4.507378,4.4375 -4.60382,4.4375 -0.09644,0 -0.252939,-0.125541 -0.347769,-0.27898 z"
     id="path25" />
  <path
     style="fill:#000080;stroke-width:0.25"
     d="m 37.181341,25.506252 c -0.09401,-0.09401 -0.170934,-0.320934 -0.170934,-0.504267 0,-0.269088 1.232222,-0.333333 6.393331,-0.333333 5.954271,0 6.387553,0.03004 6.309197,0.4375 -0.07698,0.400307 -0.605956,0.443176 -6.222397,0.504267 -3.376045,0.03672 -6.215184,-0.01015 -6.309197,-0.104167 z"
     id="path27" />
  <path
     style="fill:#000080;stroke-width:0.25"
     d="m 38.070228,38.603546 c -4.045725,-4.050686 -4.761464,-4.934894 -3.994642,-4.934894 0.408063,0 8.934821,8.5318 8.934821,8.940105 0,0.76776 -0.90961,0.0303 -4.940179,-4.005211 z"
     id="path29" />
  <path
     style="fill:#000080;stroke-width:0.25"
     d="m 25.868518,43.418652 c 0,-3.36875 0.03539,-4.746875 0.07864,-3.0625 0.04325,1.684375 0.04325,4.440625 0,6.125 -0.04325,1.684375 -0.07864,0.30625 -0.07864,-3.0625 z"
     id="path31" />
  <path
     style="fill:#000080;stroke-width:0.25"
     d="m 24.927073,49.751985 c -0.301265,-0.301266 -0.194267,-12.536767 0.111285,-12.725608 0.152873,-0.09448 0.37615,-0.01674 0.496171,0.172746 0.244019,0.385258 0.312101,11.70394 0.07413,12.324082 -0.161064,0.419724 -0.407818,0.502549 -0.681587,0.22878 z"
     id="path33" />
  <path
     style="fill:#000080;stroke-width:0.25"
     d=""
     id="path35" />
  <path
     style="fill:#000080;stroke-width:0.25"
     d="m 7.0104067,42.603547 c 0,-0.173308 2.0200755,-2.332842 4.4890563,-4.798965 3.64587,-3.641649 4.52134,-4.399732 4.660928,-4.035972 0.133761,0.348576 -0.791722,1.412661 -4.173878,4.798965 -4.0711814,4.076173 -4.9761063,4.810131 -4.9761063,4.035972 z"
     id="path37" />
  <path
     style="fill:#000080;stroke-width:0.25"
     d="m 0.26040671,25.418652 c 0,-0.499783 0.1092575,-0.50743 6.31249999,-0.441793 5.4147583,0.05729 6.3125003,0.120124 6.3125003,0.441793 0,0.321668 -0.897742,0.384499 -6.3125003,0.441792 -6.20324249,0.06564 -6.31249999,0.05799 -6.31249999,-0.441792 z"
     id="path39" />
  <path
     style="fill:#000080;stroke-width:0.176777"
     d="M 11.586464,12.123471 C 7.6971741,8.2319375 7.1237582,7.5900593 7.3225741,7.3505007 7.4489132,7.1982714 7.6440922,7.0737201 7.7563052,7.0737201 c 0.2492836,0 8.9450738,8.6949259 8.9450738,8.9441849 0,0.189213 -0.358408,0.601757 -0.522791,0.601757 -0.05419,0 -2.120646,-2.023286 -4.592124,-4.496191 z"
     id="path41" />
  <path
     style="fill:#000080;stroke-width:0.176777"
     d="M 11.670258,12.019888 C 8.5038361,8.830269 7.327839,7.5377147 7.4662965,7.3992572 7.6047541,7.2607996 7.7983274,7.3082766 8.1582837,7.5689782 9.1426923,8.2819451 16.562717,15.886599 16.48919,16.107179 c -0.04129,0.123871 -0.153298,0.251295 -0.248906,0.283165 -0.09561,0.03187 -2.15212,-1.934836 -4.570026,-4.370456 z"
     id="path43" />
  <path
     style="fill:#000080;stroke-width:0.176777"
     d="M 24.827947,12.459419 C 24.59381,11.852374 24.651224,0.94681159 24.890517,0.57429301 c 0.395907,-0.61632521 0.47275,0.3536441 0.470213,5.93533569 -0.0027,5.8855573 -0.107227,7.0531313 -0.532783,5.9497903 z"
     id="path45" />
  <path
     style="fill:#000080;stroke-width:0.176777"
     d="M 24.827947,12.459419 C 24.59381,11.852374 24.651224,0.94681159 24.890517,0.57429301 c 0.395907,-0.61632521 0.47275,0.3536441 0.470213,5.93533569 -0.0027,5.8855573 -0.107227,7.0531313 -0.532783,5.9497903 z"
     id="path47" />
  <path
     style="fill:#000080;stroke-width:0.176777"
     d="m 24.828778,12.459419 c -0.234029,-0.609272 -0.178293,-11.51558827 0.06074,-11.88512599 0.397206,-0.61407318 0.473753,0.3500984 0.471214,5.93533569 -0.0027,5.8828953 -0.10746,7.0549153 -0.531952,5.9497903 z"
     id="path49" />
  <path
     style="fill:#000080;stroke-width:0.176777"
     d="m 24.835776,12.558785 c -0.244954,-0.457701 -0.19499,-11.59995882 0.05374,-11.98449199 0.07964,-0.12311993 0.21885,-0.1780873 0.309359,-0.12214969 0.210934,0.13036389 0.214859,11.92529868 0.0041,12.25811968 -0.12317,0.194485 -0.198702,0.163324 -0.367179,-0.151478 z"
     id="path51" />
  <path
     style="fill:#000080;stroke-width:0.176777"
     d="m 24.835776,12.558785 c -0.244954,-0.457701 -0.19499,-11.59995882 0.05374,-11.98449199 0.07964,-0.12311993 0.21885,-0.1780873 0.309359,-0.12214969 0.210934,0.13036389 0.214859,11.92529868 0.0041,12.25811968 -0.12317,0.194485 -0.198702,0.163324 -0.367179,-0.151478 z"
     id="path53" />
  <path
     style="fill:#000080;stroke-width:0.176777"
     d="m 24.837432,12.56188 c -0.243493,-0.454972 -0.195046,-11.60552791 0.05208,-11.98758699 0.07964,-0.12311993 0.21885,-0.1780873 0.309359,-0.12214969 0.210934,0.13036389 0.214859,11.92529868 0.0041,12.25811968 -0.123284,0.194664 -0.198206,0.16425 -0.365523,-0.148383 z"
     id="path55" />
</svg>
