<?xml version="1.0" encoding="UTF-8" standalone="no"?>
<svg
   xmlns:dc="http://purl.org/dc/elements/1.1/"
   xmlns:cc="http://creativecommons.org/ns#"
   xmlns:rdf="http://www.w3.org/1999/02/22-rdf-syntax-ns#"
   xmlns:svg="http://www.w3.org/2000/svg"
   xmlns="http://www.w3.org/2000/svg"
   xmlns:sodipodi="http://sodipodi.sourceforge.net/DTD/sodipodi-0.dtd"
   xmlns:inkscape="http://www.inkscape.org/namespaces/inkscape"
   version="1.1"
   id="svg8"
   sodipodi:docname="peces.svg"
   width="50"
   height="50"
   inkscape:version="1.0.1 (3bc2e813f5, 2020-09-07)">
  <metadata
     id="metadata14">
    <rdf:RDF>
      <cc:Work
         rdf:about="">
        <dc:format>image/svg+xml</dc:format>
        <dc:type
           rdf:resource="http://purl.org/dc/dcmitype/StillImage" />
        <dc:title></dc:title>
      </cc:Work>
    </rdf:RDF>
  </metadata>
  <defs
     id="defs12" />
  <sodipodi:namedview
     pagecolor="#ffffff"
     bordercolor="#666666"
     borderopacity="1"
     objecttolerance="10"
     gridtolerance="10"
     guidetolerance="10"
     inkscape:pageopacity="0"
     inkscape:pageshadow="2"
     inkscape:window-width="1366"
     inkscape:window-height="705"
     id="namedview10"
     showgrid="false"
     inkscape:showpageshadow="false"
     inkscape:zoom="1.7033333"
     inkscape:cx="150"
     inkscape:cy="75"
     inkscape:window-x="-8"
     inkscape:window-y="-8"
     inkscape:window-maximized="1"
     inkscape:current-layer="svg8" />
  <g
     fill="#000080"
     id="g6"
     transform="matrix(0.19005352,0,0,0.19005352,0,10.000035)">
    <path
       d="M 263.08,81.01 C 263.22,73.982 231.487,36.478 184.747,28.628 184.74,28.623 147.67,-2.37 116.855,0.145 c 0,0 19.779,14.588 17.14,33.074 C 96.245,48 85.566,84.795 71.84,85.236 56.654,85.726 8.452,40.998 0.974,33.969 c 6.13,6.081 38.421,42.62 20.278,122.15 0,0 32.047,-55.618 54.2,-56 22.153,-0.382 35.355,28.94 96.166,28.593 2.054,-0.012 4.069,-0.063 6.047,-0.15 -5.729,11.316 -14.275,21.897 -14.275,21.897 13.601,-0.412 25.759,-14.328 32.525,-23.873 47.18,-8.31 67.02,-38.495 67.16,-45.58 z"
       id="path2" />
    <path
       d="M 0.979,33.969 C 0.354,33.35 0,33.044 0,33.044 c 0,0 0.342,0.327 0.979,0.925 z"
       id="path4" />
  </g>
</svg>
