<?xml version="1.0" encoding="UTF-8" standalone="no"?>
<svg
   xmlns:dc="http://purl.org/dc/elements/1.1/"
   xmlns:cc="http://creativecommons.org/ns#"
   xmlns:rdf="http://www.w3.org/1999/02/22-rdf-syntax-ns#"
   xmlns:svg="http://www.w3.org/2000/svg"
   xmlns="http://www.w3.org/2000/svg"
   xmlns:sodipodi="http://sodipodi.sourceforge.net/DTD/sodipodi-0.dtd"
   xmlns:inkscape="http://www.inkscape.org/namespaces/inkscape"
   version="1.1"
   id="svg4"
   sodipodi:docname="poner-la-mesa.svg"
   width="50"
   height="50"
   inkscape:version="1.0.1 (3bc2e813f5, 2020-09-07)">
  <metadata
     id="metadata10">
    <rdf:RDF>
      <cc:Work
         rdf:about="">
        <dc:format>image/svg+xml</dc:format>
        <dc:type
           rdf:resource="http://purl.org/dc/dcmitype/StillImage" />
        <dc:title></dc:title>
      </cc:Work>
    </rdf:RDF>
  </metadata>
  <defs
     id="defs8" />
  <sodipodi:namedview
     pagecolor="#ffffff"
     bordercolor="#666666"
     borderopacity="1"
     objecttolerance="10"
     gridtolerance="10"
     guidetolerance="10"
     inkscape:pageopacity="0"
     inkscape:pageshadow="2"
     inkscape:window-width="1366"
     inkscape:window-height="705"
     id="namedview6"
     showgrid="false"
     inkscape:showpageshadow="false"
     inkscape:zoom="1.73"
     inkscape:cx="150"
     inkscape:cy="75"
     inkscape:window-x="-8"
     inkscape:window-y="-8"
     inkscape:window-maximized="1"
     inkscape:current-layer="layer1" />
  <g
     id="layer1"
     inkscape:label="Layer 1"
     inkscape:groupmode="layer"
     transform="translate(407.74,-86.474)">
    <path
       id="path2650"
       style="fill:#000080;stroke-width:0.0449852"
       d="m -407.6883,129.72131 c -0.0963,-0.29015 -0.0468,-8.51885 0.0558,-9.30249 0.20784,-1.58663 0.53668,-2.94788 0.96674,-4.00098 0.55466,-1.35811 1.31221,-2.81203 1.8057,-3.46476 0.14485,-0.19119 0.54792,-0.72921 0.89611,-1.19481 0.60865,-0.81468 1.24024,-1.42738 2.4103,-2.33878 0.25507,-0.19884 0.6208,-0.50968 0.81199,-0.69052 0.19163,-0.18084 0.48764,-0.42421 0.65768,-0.54118 0.17049,-0.11696 0.45705,-0.31309 0.63699,-0.4359 0.17994,-0.12281 0.50743,-0.43006 0.72741,-0.68288 0.21953,-0.25282 0.42241,-0.45975 0.45075,-0.45975 0.13901,0 0.57132,0.53938 0.85832,1.0693 0.56951,1.05355 1.10349,2.74275 1.39904,4.4234 0.12551,0.71526 0.1552,1.21235 0.15115,2.53041 l -0.005,1.64061 0.56007,0.0229 c 0.51553,0.0207 0.56186,0.0364 0.58481,0.19838 0.0288,0.20288 -0.48359,1.16602 -0.65544,1.2317 -0.063,0.0243 -0.20468,0.003 -0.31444,-0.0472 -0.13586,-0.0616 -0.22583,-0.0657 -0.27891,-0.0126 -0.0531,0.0531 -0.0306,0.0954 0.0697,0.1318 0.37428,0.13406 0.41297,0.41567 0.0576,0.41567 -0.1534,0 -0.1813,0.0292 -0.14261,0.15115 0.0265,0.0828 -0.001,0.24831 -0.0616,0.36753 -0.0603,0.11876 -0.0936,0.26001 -0.0747,0.31309 0.0189,0.0531 -0.004,0.0967 -0.0513,0.0967 -0.0814,0 -0.1471,0.12731 -0.27036,0.52183 -0.0517,0.16689 -0.036,0.17364 0.39587,0.16869 0.24787,-0.003 0.65274,-0.0423 0.90061,-0.0882 0.39002,-0.072 0.46739,-0.0657 0.57986,0.0468 0.0832,0.0832 0.10121,0.15025 0.0508,0.18534 -0.11111,0.0769 -0.34639,0.86866 -0.34639,1.16421 0,0.24472 4.5e-4,0.24472 0.41792,0.24472 h 0.41746 l 0.27864,0.57941 c 0.15326,0.3185 0.27868,0.59561 0.27868,0.6154 0,0.0198 0.0974,0.20333 0.21629,0.40712 0.11889,0.20423 0.27846,0.53622 0.35453,0.7382 0.076,0.20244 0.15196,0.36753 0.16869,0.36753 0.0167,0 0.14193,-0.0675 0.27823,-0.1507 0.13631,-0.0828 0.27639,-0.1327 0.3113,-0.11156 0.1229,0.076 0.0614,0.31489 -0.12654,0.49124 -0.17778,0.16734 -0.18282,0.19253 -0.0776,0.39587 0.12173,0.23572 0.10392,0.26361 -0.27108,0.42466 -0.15618,0.0666 -0.0993,0.0778 0.3091,0.0589 0.27522,-0.0122 1.09228,-0.0355 1.8156,-0.0513 1.09026,-0.0238 1.41771,-0.0589 1.91475,-0.20648 0.63141,-0.18759 0.67887,-0.24382 0.53177,-0.63294 -0.0373,-0.0985 -0.0896,-0.42241 -0.1162,-0.72021 -0.0952,-1.0657 -0.14629,-1.31312 -0.29218,-1.41659 -0.0975,-0.0688 -0.14273,-0.19748 -0.14273,-0.40621 0,-0.1678 -0.0219,-0.305 -0.0486,-0.305 -0.0267,0 -0.27909,0.17004 -0.56087,0.37742 -0.65103,0.47955 -1.39284,0.89611 -1.46355,0.82188 -0.03,-0.031 0.0113,-0.0963 0.0917,-0.1444 0.83587,-0.50114 1.94417,-1.33966 1.92375,-1.45572 -0.0104,-0.0589 0.0853,-0.1462 0.2126,-0.19434 0.25781,-0.0972 0.35403,-0.26451 0.26973,-0.46829 -0.038,-0.0922 -0.0676,-0.10437 -0.0921,-0.0387 -0.0647,0.17319 -0.16455,0.10212 -0.21696,-0.15475 -0.0691,-0.33874 -0.33946,-1.50026 -0.42921,-1.84394 -0.0625,-0.23932 -0.10362,-0.27711 -0.30151,-0.27711 -0.12605,0 -0.21528,0.0225 -0.19829,0.0499 0.017,0.0274 -0.20212,0.29151 -0.48692,0.58661 -0.2848,0.2951 -0.69187,0.7454 -0.90465,1.00092 -0.21274,0.25507 -0.40541,0.48134 -0.42813,0.50293 -0.0227,0.0211 -0.17328,0.20199 -0.3346,0.40172 -0.22321,0.27666 -0.38889,0.39452 -0.69362,0.49394 -0.2202,0.072 -0.41391,0.1426 -0.43047,0.157 -0.0166,0.0144 0.17171,0.36663 0.41841,0.78229 0.68504,1.15522 0.575,1.07245 0.99516,0.75125 0.19938,-0.15205 0.40127,-0.26361 0.44864,-0.24787 0.0474,0.0157 -0.067,0.14621 -0.25407,0.29016 -0.18714,0.1435 -0.36915,0.28566 -0.40451,0.3158 -0.0354,0.0297 0.008,0.19568 0.0961,0.36887 0.26402,0.51733 0.0399,0.44221 -0.24467,-0.0823 -0.14463,-0.26676 -0.49533,-0.86326 -0.77937,-1.32616 -0.28399,-0.4629 -0.51639,-0.89656 -0.51639,-0.96314 0,-0.0841 0.0249,-0.0967 0.0802,-0.0414 0.12731,0.12731 0.84698,-0.25372 1.16692,-0.6181 0.24017,-0.27306 0.26334,-0.33064 0.16253,-0.40442 -0.0976,-0.0715 -0.078,-0.094 0.11656,-0.1327 0.15317,-0.0306 0.322,-0.16195 0.48854,-0.37968 0.13999,-0.18264 0.48332,-0.56816 0.76299,-0.85607 0.27967,-0.2879 0.50887,-0.57851 0.50937,-0.64598 5.6e-4,-0.0841 0.1833,-0.18129 0.58377,-0.3104 0.38683,-0.12461 0.73384,-0.30635 1.03165,-0.53982 0.24678,-0.19389 0.43361,-0.36753 0.41516,-0.38598 -0.0667,-0.0666 -0.74198,0.36573 -0.86551,0.55422 -0.1139,0.17364 -0.3395,0.20109 -0.23257,0.0283 0.0597,-0.0967 0.004,-0.0904 -0.58949,0.0666 -0.27986,0.0738 -0.61535,0.22088 -0.74559,0.32659 -0.13023,0.10572 -0.58881,0.4674 -1.01909,0.80389 -0.43028,0.33604 -0.78234,0.65498 -0.78234,0.70807 0,0.11471 -0.62907,0.34368 -0.94379,0.34368 -0.33491,0 -0.41157,0.24292 -0.30419,0.96493 0.10558,0.70987 0.10797,0.81424 0.0185,0.81424 -0.0898,0 -0.16227,-0.29736 -0.23532,-0.96674 -0.0893,-0.81828 -0.0512,-0.86641 0.84586,-1.07379 0.10639,-0.0247 0.75687,-0.49304 1.4456,-1.04141 0.7795,-0.6208 1.34559,-1.01532 1.49967,-1.04636 0.36296,-0.0724 0.79007,-0.35448 0.70208,-0.46334 -0.0394,-0.0486 -0.0718,-0.17589 -0.0722,-0.28206 -2.7e-4,-0.10661 -0.0361,-0.47189 -0.0796,-0.81243 -0.0435,-0.34054 -0.084,-0.84303 -0.09,-1.11699 -0.006,-0.2744 -0.026,-0.52317 -0.0445,-0.55286 -0.0185,-0.0301 -0.16441,-0.0243 -0.3242,0.013 -1.20988,0.28071 -3.09431,-0.28161 -3.99847,-1.19346 -0.43694,-0.4404 -0.8948,-1.25193 -1.07654,-1.90737 -0.1399,-0.50428 -0.31714,-2.04278 -0.25416,-2.20652 0.0922,-0.24022 -0.0819,-0.0922 -0.45166,0.38417 -0.21143,0.27261 -0.41116,0.47864 -0.444,0.4584 -0.085,-0.0526 0.12956,-0.37023 0.68917,-1.01936 0.26812,-0.31085 0.48719,-0.60056 0.48719,-0.64464 0,-0.0436 -0.22852,-0.3113 -0.50788,-0.59516 -0.62709,-0.63654 -1.18356,-1.71483 -0.88441,-1.71483 0.0423,0 0.0774,0.0463 0.0774,0.10346 0,0.28071 0.50428,1.08055 0.90915,1.44133 0.62844,0.56007 0.88846,0.66803 1.58946,0.66173 0.91203,-0.008 1.13178,-0.23977 0.94069,-0.99237 -0.0427,-0.16825 -0.0152,-0.25912 0.12348,-0.40667 0.17153,-0.18264 0.17297,-0.19388 0.0359,-0.2942 -0.0872,-0.0639 -0.12367,-0.15385 -0.0938,-0.23167 0.0398,-0.10347 -0.003,-0.12686 -0.23149,-0.12686 -0.26672,0 -0.27414,0.007 -0.15232,0.14125 0.18822,0.20783 0.15587,0.28161 -0.0613,0.13901 -0.10414,-0.0684 -0.24341,-0.10347 -0.30945,-0.0778 -0.15709,0.0603 -0.152,-0.0567 0.0153,-0.35043 0.13401,-0.23573 0.25142,-0.31085 0.25142,-0.1615 0,0.0436 0.21854,0.0774 0.50086,0.0774 0.48153,0 0.50564,-0.009 0.62449,-0.23932 0.1471,-0.28431 0.0971,-0.52768 -0.0785,-0.38193 -0.14674,0.12191 -0.3135,0.0279 -0.19789,-0.11156 0.11579,-0.13945 0.55912,-0.21818 0.62529,-0.11111 0.0703,0.11336 0.38247,-0.0463 0.38247,-0.19614 0,-0.0585 -0.20554,-0.3041 -0.45674,-0.54522 -0.31782,-0.30545 -0.47158,-0.51778 -0.50554,-0.69907 -0.0446,-0.23797 -0.0781,-0.26451 -0.38993,-0.3113 -0.35543,-0.0531 -0.88266,-0.0171 -1.18145,0.081 -0.2911,0.0954 -0.19519,-0.0751 0.15475,-0.27531 0.26361,-0.1507 0.43829,-0.18804 0.88135,-0.18849 h 0.5526 l -0.14076,-0.27621 c -0.0775,-0.1516 -0.19222,-0.31849 -0.25502,-0.37067 -0.0629,-0.0522 -0.22763,-0.28161 -0.36614,-0.51059 -0.33554,-0.55331 -0.58021,-0.62439 -1.91583,-0.55736 -0.86551,0.0441 -1.30007,0.11471 -1.92806,0.31579 -0.0958,0.0306 -0.17409,0.0238 -0.17409,-0.0148 0,-0.21817 1.3572,-0.48044 2.50522,-0.48404 0.86079,-0.003 0.86511,-0.0459 0.031,-0.31264 -0.34818,-0.11112 -0.70627,-0.1561 -1.26273,-0.1588 -0.88216,-0.004 -1.24654,0.0495 -1.72384,0.25327 -0.3032,0.1291 -0.33199,0.13045 -0.30949,0.0148 0.0643,-0.3302 1.67704,-0.566368 2.79133,-0.40847 0.63024,0.0891 1.38203,0.38912 1.72055,0.68692 0.0851,0.0751 0.21566,0.1579 0.29011,0.18399 0.0745,0.0265 0.1354,0.0913 0.1354,0.14441 0,0.0531 0.18278,-0.0787 0.40617,-0.29331 0.5733,-0.55017 1.47763,-1.20785 2.08079,-1.51375 l 0.51423,-0.260914 -0.11348,-0.216828 c -0.17688,-0.33739 -0.31496,-0.775545 -0.27803,-0.88216 0.0478,-0.137655 0.64707,-0.12146 0.85342,0.02294 0.13783,0.09672 0.1628,0.09897 0.12897,0.0108 -0.0634,-0.165546 -0.38749,-0.285207 -0.77199,-0.285207 -0.25462,0 -0.3445,-0.03014 -0.3445,-0.116061 0,-0.08097 0.0817,-0.116062 0.2708,-0.116062 0.14891,0 0.27076,-0.0117 0.27076,-0.02654 0,-0.01485 -0.10567,-0.319394 -0.23483,-0.677027 -0.27753,-0.768347 -0.46145,-1.522749 -0.46145,-1.892527 0,-0.21458 -0.03,-0.266313 -0.15471,-0.266313 -0.25623,0 -0.18651,-0.309948 0.20109,-0.894306 0.19573,-0.295102 0.41331,-0.592455 0.48354,-0.660742 0.20283,-0.196945 1.09719,-0.492723 1.52019,-0.50271 0.21273,-0.005 0.46177,-0.03459 0.5534,-0.06577 0.13006,-0.04418 0.17824,-0.02006 0.2194,0.109719 0.0509,0.160417 0.06,0.161676 0.25331,0.03495 0.19299,-0.126408 0.20581,-0.124834 0.34148,0.04274 0.0776,0.09573 0.14099,0.140714 0.14099,0.09991 0,-0.09267 0.61611,-0.340628 0.70694,-0.284486 0.0367,0.02267 0.0667,0.111113 0.0667,0.196585 0,0.115702 0.0364,0.143818 0.14242,0.110169 0.0979,-0.03109 0.2018,0.02645 0.33244,0.184124 0.10446,0.125959 0.28615,0.265863 0.40374,0.310398 0.13118,0.04993 0.19236,0.116062 0.15862,0.170944 -0.0346,0.05578 -0.0216,0.06838 0.0346,0.03374 0.16105,-0.09942 0.38417,0.03284 0.70897,0.420612 0.26541,0.317145 0.33064,0.462897 0.38822,0.869564 0.0382,0.268561 0.17634,0.713465 0.3068,0.988325 l 0.23752,0.499785 -0.0315,-0.566364 c -0.0176,-0.311747 -0.0711,-0.60595 -0.11876,-0.653635 -0.0652,-0.06523 -0.0877,-0.05353 -0.0877,0.04409 0,0.07243 -0.0346,0.131357 -0.0769,0.131357 -0.0427,0 -0.0778,-0.112913 -0.0783,-0.251468 -4.5e-4,-0.138104 -0.0225,-0.381924 -0.049,-0.541621 -0.0693,-0.419263 0.0769,-0.362581 0.27981,0.108864 0.29555,0.686924 0.39182,1.091341 0.34189,1.435028 -0.0558,0.386872 -0.0751,0.379225 1.09134,0.440855 0.42556,0.02249 1.08684,0.09492 1.46967,0.161497 1.79176,0.311747 2.13095,0.375626 2.7288,0.51553 1.18581,0.277109 2.28435,0.833576 2.86916,1.453472 0.51688,0.54747 1.09404,1.300972 1.09404,1.426931 0,0.07108 0.10436,0.336042 0.23212,0.588852 0.12776,0.25282 0.23212,0.49799 0.23212,0.54432 0,0.0463 0.0918,0.27846 0.20424,0.51598 0.24067,0.50879 0.52362,1.50206 0.68962,2.42111 0.36078,1.99959 0.42871,2.48139 0.50743,3.60467 0.10572,1.5097 0.0607,2.34418 -0.15205,2.83361 -0.18399,0.42377 -0.65003,0.95369 -1.18041,1.34326 -0.34459,0.25282 -0.51148,0.3095 -0.98068,0.33289 -0.15879,0.008 -0.16734,0.0265 -0.0837,0.18264 0.0508,0.0958 0.39362,0.50564 0.76115,0.9105 0.51733,0.56952 0.76385,0.924 1.08954,1.56639 0.28836,0.56771 0.46335,0.82998 0.55377,0.82998 0.16734,4.5e-4 0.31984,0.2762 0.26631,0.48089 -0.022,0.0855 0.0337,0.30815 0.12461,0.49528 0.12686,0.26092 0.19794,0.32975 0.30455,0.29601 0.0765,-0.0243 0.13901,-0.01 0.13901,0.0319 0,0.0418 -0.0418,0.09 -0.0927,0.10706 -0.0625,0.0207 -0.036,0.11067 0.0828,0.27711 0.1408,0.19794 0.21278,0.23707 0.36348,0.19928 0.11426,-0.0288 0.18804,-0.0135 0.18804,0.0387 0,0.0472 -0.0436,0.0864 -0.0967,0.0868 -0.0702,9e-4 -0.067,0.0198 0.01,0.0688 0.0585,0.0369 0.0837,0.10482 0.0553,0.15025 -0.0486,0.0787 0.3005,0.62979 0.98742,1.55919 0.1732,0.23392 0.32435,0.43995 0.33649,0.45705 0.0122,0.0175 0.0918,-0.0315 0.17724,-0.10842 0.12281,-0.11156 0.1552,-0.11741 0.1552,-0.0279 0,0.0616 -0.0382,0.1507 -0.0846,0.19704 -0.0612,0.0612 -0.0612,0.12821 0,0.24247 0.11741,0.21998 0.10527,0.28161 -0.0337,0.16644 -0.16554,-0.13765 -0.22133,-0.0463 -0.12821,0.20963 0.0436,0.11967 0.0823,0.1741 0.0855,0.12057 0.003,-0.0531 0.0549,-0.0963 0.11516,-0.0963 0.12596,0 0.24562,-0.37563 0.5911,-1.85699 0.13406,-0.57446 0.28971,-1.13228 0.34594,-1.23979 0.0567,-0.10752 0.15925,-0.49034 0.22852,-0.85112 0.0697,-0.36034 0.15655,-0.72966 0.19389,-0.82053 0.0571,-0.14036 0.0445,-0.1597 -0.0814,-0.12641 -0.0823,0.0211 -0.14935,0.001 -0.14935,-0.0445 0,-0.0459 0.14035,-0.12101 0.31174,-0.16734 0.31265,-0.0841 0.35809,-0.25957 0.0562,-0.21593 -0.24562,0.0355 -0.24922,-0.1462 -0.005,-0.27846 0.11966,-0.0648 0.16959,-0.11921 0.11111,-0.12101 -0.081,-0.002 -0.0945,-0.0778 -0.0571,-0.3122 0.0274,-0.17049 0.0297,-0.3095 0.005,-0.3095 -0.0238,0 -0.33154,0.11876 -0.68333,0.26452 -0.35133,0.14575 -0.77599,0.28925 -0.94334,0.31939 -0.16689,0.0301 -0.39857,0.10932 -0.51418,0.17634 -0.11561,0.0666 -0.23032,0.10122 -0.25461,0.0769 -0.0243,-0.0243 0.0994,-0.27396 0.27531,-0.55422 0.17589,-0.28071 0.41656,-0.81558 0.53442,-1.18941 0.11831,-0.37383 0.2906,-0.86776 0.38327,-1.09764 l 0.1687,-0.41746 -0.69367,0.0445 c -0.59156,0.0387 -0.70042,0.027 -0.74091,-0.0787 -0.0436,-0.11336 0.0684,-0.24787 0.20918,-0.25102 0.0319,-4.5e-4 0.37968,-0.3059 0.7733,-0.67837 0.39362,-0.37248 0.85022,-0.7832 1.01486,-0.9132 l 0.29915,-0.23573 -0.099,-0.4431 c -0.0549,-0.24337 -0.11966,-0.43141 -0.14441,-0.41791 -0.49123,0.27036 -0.89565,0.39632 -1.36035,0.42511 -0.47189,0.0288 -0.56996,0.0112 -0.7598,-0.13856 -0.19209,-0.1516 -0.21188,-0.20603 -0.16824,-0.46559 0.0405,-0.23887 0.0189,-0.32525 -0.11651,-0.46065 -0.0918,-0.0913 -0.14936,-0.21188 -0.12776,-0.26766 0.0211,-0.0553 -0.063,-0.19839 -0.18759,-0.3176 -0.22268,-0.21323 -0.29735,-0.42016 -0.1525,-0.42016 0.0409,0 0.20243,0.0873 0.35898,0.19344 0.157,0.10616 0.34549,0.19343 0.41971,0.19343 0.0738,0 0.17859,0.0531 0.23258,0.11831 0.081,0.0976 0.0715,0.14845 -0.0526,0.29016 -0.10031,0.11426 -0.15744,0.30635 -0.16959,0.57311 -0.022,0.4647 0.0837,0.56546 0.58976,0.56546 0.68602,0 1.34505,-0.32704 2.08506,-1.03511 0.22223,-0.21278 0.43051,-0.36033 0.4629,-0.32794 0.0328,0.0324 -0.14306,0.25327 -0.39047,0.49079 -0.44806,0.43096 -0.44941,0.43321 -0.39992,0.79129 0.0783,0.56906 0.10121,0.58166 0.66533,0.35853 0.27261,-0.10796 0.63114,-0.20873 0.79669,-0.22492 0.23932,-0.0225 0.32479,-0.0747 0.41701,-0.25327 0.12461,-0.24112 0.54837,-0.81198 0.66263,-0.89251 0.0391,-0.0279 0.0198,-0.19523 -0.045,-0.38687 -0.0868,-0.25552 -0.15025,-0.33289 -0.26092,-0.3176 -1.0477,0.14351 -1.46382,0.16015 -1.57493,0.0634 -0.10257,-0.0895 -0.40262,-0.11066 -0.66038,-0.0459 -0.0427,0.0104 -0.27126,0.0153 -0.50789,0.01 -0.41611,-0.009 -0.43635,-0.0189 -0.59965,-0.3095 -0.17859,-0.31805 -0.21638,-0.72471 -0.0972,-1.03916 0.0648,-0.17005 0.008,-0.25597 -0.56051,-0.84888 -0.61675,-0.64238 -0.64059,-0.65858 -0.93075,-0.61854 -0.2879,0.0396 -0.29645,0.049 -0.24651,0.28295 0.1363,0.64059 0.1336,0.70492 -0.0346,0.91905 -0.20424,0.25957 -0.82683,0.69818 -0.93839,0.66084 -0.0445,-0.0148 0.13045,-0.19119 0.38912,-0.39227 0.41071,-0.31895 0.47054,-0.39858 0.47054,-0.62665 0,-0.51598 -0.0832,-0.74451 -0.27081,-0.74451 -0.18489,0 -0.296,-0.19973 -0.37877,-0.67837 -0.0495,-0.28926 0.15295,-0.55962 0.41926,-0.55962 0.10661,0 0.25327,-0.1498 0.4593,-0.46874 0.16689,-0.25777 0.42016,-0.56232 0.56276,-0.67703 0.14306,-0.11426 0.34324,-0.28611 0.44491,-0.38193 0.10211,-0.0958 0.3005,-0.25236 0.44085,-0.34818 0.14035,-0.0958 0.25597,-0.21998 0.25597,-0.27576 4.5e-4,-0.0652 0.054,-0.085 0.1489,-0.0549 0.0814,0.0256 0.17049,0.0113 0.19748,-0.0328 0.0598,-0.0972 0.73236,-0.2951 1.18986,-0.35044 0.18534,-0.0225 0.36078,-0.0558 0.39002,-0.0738 0.0292,-0.018 0.29331,-0.003 0.58616,0.0333 1.01262,0.12551 2.53447,1.04366 2.92764,1.76657 0.42601,0.7823 0.26496,1.57898 -0.59561,2.94878 -0.32389,0.51553 -0.58885,0.95684 -0.58885,0.98068 0,0.0238 -0.0693,0.1309 -0.15385,0.23842 -0.0841,0.10751 -0.13406,0.22717 -0.10977,0.26586 0.0238,0.0387 -0.0315,0.13136 -0.12326,0.20558 -0.12865,0.10392 -0.1543,0.18264 -0.11336,0.34594 0.063,0.25147 0.19164,0.26901 0.38777,0.0522 0.0787,-0.0873 0.46605,-0.40306 0.86012,-0.70177 0.39407,-0.29915 0.79219,-0.66578 0.88441,-0.81513 0.14665,-0.23707 0.18174,-0.25686 0.28026,-0.15834 0.0837,0.0837 0.0922,0.1498 0.0328,0.25776 -0.0441,0.0796 -0.13946,0.33649 -0.21188,0.57041 -0.0724,0.23393 -0.19614,0.54702 -0.27486,0.69502 -0.0787,0.14845 -0.14306,0.29871 -0.14306,0.33424 0,0.13361 1.27309,-0.61899 1.63432,-0.96628 0.34413,-0.33064 0.38372,-0.34953 0.45435,-0.21773 0.12955,0.24292 0.0882,0.43141 -0.15655,0.70537 -0.12821,0.14395 -0.40442,0.57491 -0.6136,0.95819 -0.444,0.81243 -0.83807,1.29782 -1.28388,1.58033 l -0.31894,0.20243 0.37158,0.65588 c 0.20423,0.36078 0.4404,0.76025 0.52497,0.88801 0.0846,0.12731 0.21143,0.37113 0.28161,0.54117 0.0702,0.1705 0.28521,0.64014 0.47729,1.04456 0.63744,1.34011 1.57089,4.28484 1.96226,6.18906 0.0828,0.40442 0.17004,0.79579 0.19298,0.87047 0.0234,0.0742 0.005,0.1354 -0.04,0.1354 -0.0454,0 -0.0828,-0.0522 -0.0828,-0.11606 0,-0.3077 -0.21323,-0.045 -0.62439,0.7697 -0.17094,0.33829 -0.34594,0.65768 -0.38867,0.70896 -0.0895,0.10797 0.005,0.14486 0.55287,0.21908 0.3068,0.0414 0.37427,0.0234 0.53037,-0.14305 0.1642,-0.17454 0.17454,-0.23392 0.12596,-0.71886 -0.0436,-0.43231 -0.0175,-0.66893 0.14305,-1.30322 0.26182,-1.03152 0.91365,-2.84217 1.10214,-3.059 0.0585,-0.067 0.10617,-0.16285 0.10617,-0.21278 0,-0.0495 0.0387,-0.0904 0.0864,-0.0904 0.0517,0 0.0675,0.0693 0.0391,0.17409 -0.0261,0.0958 -0.15429,0.69637 -0.2852,1.33426 -0.13046,0.63834 -0.35494,1.70045 -0.49844,2.35993 -0.14395,0.65948 -0.27981,1.39049 -0.30185,1.62441 -0.11336,1.18222 -0.19973,3.14717 -0.16329,3.72208 0.0949,1.51105 0.32119,3.44947 0.39452,3.37659 0.0157,-0.0162 -0.004,-0.32299 -0.0436,-0.68198 -0.24427,-2.20157 -0.22942,-4.47108 0.0441,-6.64881 0.22357,-1.78186 0.82997,-4.71895 0.97437,-4.71895 0.0441,0 0.0634,0.0436 0.0432,0.0967 -0.0198,0.0531 -0.11291,0.45075 -0.20693,0.88306 -0.12731,0.58751 -0.1525,0.85247 -0.099,1.04636 0.0814,0.2942 0.0783,0.1516 0.12596,5.9034 0.0198,2.34013 0.0463,4.32443 0.0598,4.4099 0.0229,0.14531 -0.0337,0.1579 -0.94289,0.20784 -1.56728,0.0864 -4.09545,0.0963 -5.87957,0.0229 -0.91455,-0.0378 -2.20292,-0.0571 -2.8624,-0.0427 -0.65949,0.0139 -3.13142,0.027 -5.4927,0.0292 -2.36172,0.002 -4.97266,0.005 -5.80219,0.007 -0.82953,0.002 -1.76117,0.001 -2.06932,-4.5e-4 -3.05044,-0.018 -3.97084,-0.0175 -4.23576,0.003 -0.41431,0.0319 -3.53129,0.10796 -6.57594,0.1597 -6.76667,0.11561 -8.41538,0.1381 -12.0124,0.16419 l -3.88942,0.0283 -0.0576,-0.17364 z m 8.8171,-0.18264 c 0.0283,-0.0175 0.0747,-0.1444 0.10302,-0.28206 0.0279,-0.1381 0.1552,-0.59875 0.2825,-1.02431 0.34009,-1.13543 0.51059,-1.74048 0.49079,-1.74048 -0.009,0 -0.25731,0.10572 -0.55062,0.23528 -0.29285,0.13 -0.60235,0.26586 -0.68737,0.30275 -0.085,0.0369 -0.34234,0.12415 -0.57131,0.19478 -0.83313,0.25597 -1.2353,0.43681 -1.34236,0.6046 -0.16105,0.25147 -0.67793,1.56279 -0.67793,1.71979 0,0.12551 0.10077,0.1309 1.45033,0.0783 0.79803,-0.031 1.47416,-0.0711 1.50295,-0.0886 z m 3.62266,0.0148 c 1.25509,-0.0216 3.48307,-0.058 4.95107,-0.081 1.46791,-0.0229 3.45226,-0.0661 4.40963,-0.0958 1.61479,-0.0504 3.30443,-0.0544 12.06368,-0.0297 1.80571,0.005 3.31271,-0.0202 3.3487,-0.0567 0.0612,-0.0612 0.26316,-2.11025 0.30995,-3.14671 0.0117,-0.25552 0.054,-0.46425 0.094,-0.46425 0.0999,0 0.0553,1.49216 -0.0783,2.63028 -0.0603,0.51059 -0.10976,0.95459 -0.10976,0.98653 -4.5e-4,0.0319 0.22538,0.058 0.50203,0.058 0.35134,0 0.50249,-0.0292 0.50159,-0.0967 -0.002,-0.13585 -0.33334,-2.00949 -0.54477,-3.08013 l -0.17634,-0.89431 -0.63025,0.0328 c -0.52362,0.0274 -0.65273,0.0103 -0.76384,-0.10077 -0.20334,-0.20333 -0.11427,-0.3068 0.2852,-0.33289 0.25642,-0.0171 0.36123,-0.0571 0.36123,-0.13765 0,-0.0891 -0.0895,-0.10932 -0.40216,-0.0927 -0.4638,0.0247 -0.40847,0.11426 -0.69098,-1.11833 -0.26631,-1.15972 -0.26316,-0.83268 0.004,0.46514 0.13091,0.63609 0.23842,1.17007 0.23842,1.18671 0,0.0162 -0.51373,0.0306 -1.14127,0.0315 -0.93929,0.002 -3.42697,0.0625 -4.58399,0.11247 -0.26227,0.0112 -0.26452,0.0139 -0.0774,0.0918 0.12506,0.0513 1.42513,0.076 3.66315,0.0688 2.53806,-0.008 3.46206,0.0122 3.44046,0.076 -0.0207,0.0625 -1.31851,0.0963 -4.62447,0.12056 -2.52772,0.0184 -5.13506,0.0661 -5.79455,0.10571 -1.46472,0.0877 -4.22726,0.0688 -4.22726,-0.0292 0,-0.0405 0.56097,-0.0643 1.31537,-0.0558 0.78364,0.009 1.3617,-0.0171 1.43098,-0.0634 0.0805,-0.0544 -0.32299,-0.0814 -1.31492,-0.0882 -1.67988,-0.0121 -1.69473,-0.0108 -1.83625,0.13046 -0.14742,0.14755 -0.22893,0.15205 -3.07267,0.17274 -1.21212,0.009 -1.63607,-0.0126 -1.68146,-0.0841 -0.0471,-0.0742 -0.0609,-0.0729 -0.0618,0.006 -9.4e-4,0.081 -0.31733,0.0936 -1.60647,0.063 -0.88288,-0.0207 -2.10135,-0.04 -2.70779,-0.0432 -0.67973,-0.003 -1.10214,-0.0346 -1.10214,-0.0823 0,-0.0427 0.148,-0.0787 0.32884,-0.0796 0.26227,-0.002 0.30095,-0.0184 0.19209,-0.0819 -0.0751,-0.0436 -0.24922,-0.0589 -0.38687,-0.0337 -0.13766,0.0252 -0.67343,0.067 -1.19076,0.0927 l -0.94019,0.0468 -0.27936,0.97572 c -0.1534,0.53623 -0.40037,1.37565 -0.54882,1.86509 -0.14845,0.48944 -0.26991,0.93075 -0.26991,0.98113 4.5e-4,0.10931 0.21593,0.1462 0.73506,0.12461 0.21278,-0.009 1.41388,-0.0337 2.66942,-0.0553 z m 36.31475,-0.20874 c 0.0144,-0.0162 -0.0288,-0.32929 -0.0963,-0.69547 l -0.12236,-0.66623 -1.89568,0.0225 -1.89523,0.0225 -0.20603,0.66038 c -0.11291,0.36303 -0.18489,0.68108 -0.15925,0.70672 0.0495,0.049 4.32983,0 4.37481,-0.0504 z m -4.3973,-0.57086 c 0.0922,-0.2978 0.19164,-0.67343 0.22043,-0.83402 0.0508,-0.28251 0.0459,-0.29106 -0.14036,-0.24427 -0.25146,0.063 -0.40576,-0.0256 -0.25596,-0.14755 0.0945,-0.0769 0.0949,-0.18939 10e-4,-0.81469 -0.0976,-0.65183 -0.094,-0.87856 0.0117,-0.77284 0.0203,0.0198 0.0778,0.37382 0.12866,0.78634 0.0508,0.41296 0.11247,0.74945 0.13766,0.74855 0.0571,-0.002 0.28025,-0.058 1.81425,-0.4548 0.67523,-0.17409 1.29872,-0.31714 1.38644,-0.31714 0.31805,0 0.0247,0.12056 -0.78229,0.32074 -0.97168,0.24112 -0.71976,0.27396 0.60595,0.0783 l 0.88936,-0.13136 -0.008,-0.46245 c -0.004,-0.25462 -0.0126,-0.73686 -0.0193,-1.072 l -0.0117,-0.60955 -0.29015,0.0454 c -0.15925,0.0252 -0.42916,0.008 -0.59921,-0.0391 -0.17049,-0.0463 -0.43815,-0.0895 -0.59515,-0.0954 -0.39947,-0.0153 -0.44355,-0.10121 -0.12146,-0.23572 0.24652,-0.10302 0.2978,-0.17994 0.50473,-0.7553 0.34954,-0.97213 0.35944,-1.01217 0.23933,-0.97303 -0.1633,0.0531 -1.29468,1.48946 -1.81561,2.30504 -0.25821,0.40442 -0.55331,0.94064 -0.65588,1.19256 -0.11606,0.28475 -0.19659,0.40442 -0.21368,0.31714 -0.09,-0.46289 1.42153,-2.76749 2.53626,-3.86737 0.30051,-0.29646 0.54657,-0.56637 0.54657,-0.59921 0,-0.0333 -0.13405,-0.0603 -0.2978,-0.0603 -0.51913,0 -0.93659,-0.20648 -0.70581,-0.34953 0.0441,-0.027 0.21547,-0.3194 0.38192,-0.65004 0.16599,-0.33019 0.39137,-0.70672 0.50068,-0.83672 0.13271,-0.1579 0.19839,-0.32839 0.19839,-0.51508 0,-0.1534 -0.0189,-0.27891 -0.0427,-0.27891 -0.0234,0 -0.17139,0.0882 -0.32884,0.19568 -0.157,0.10797 -0.46874,0.24967 -0.69187,0.3149 -0.38687,0.11336 -0.40352,0.12956 -0.34819,0.32659 0.0909,0.3248 0.0427,0.9114 -0.0918,1.11699 -0.11561,0.17634 -0.11066,0.20378 0.0909,0.49348 0.31715,0.4548 0.40712,0.6289 0.40712,0.78814 0,0.19074 -0.67163,0.55512 -1.02341,0.55512 -0.24742,0 -0.27486,0.0243 -0.36573,0.32749 -0.12416,0.41522 -0.75126,1.73598 -0.85427,1.79986 -0.1462,0.09 -0.0774,-0.14215 0.18084,-0.6127 0.29285,-0.53307 0.62619,-1.47506 0.56006,-1.58213 -0.0243,-0.0391 0.0167,-0.0949 0.0909,-0.12371 0.12686,-0.049 0.12596,-0.0589 -0.009,-0.15834 -0.12551,-0.0927 -0.1732,-0.085 -0.36708,0.0589 -0.12281,0.0904 -0.22358,0.20918 -0.22358,0.26361 0,0.14125 -0.29825,0.28566 -0.41071,0.19928 -0.15115,-0.11651 -0.55827,-0.0706 -0.54162,0.0607 0.008,0.0634 0.1471,0.48629 0.30904,0.9402 0.1624,0.45435 0.26677,0.85336 0.23303,0.88755 -0.0342,0.0342 -0.0891,0.0185 -0.12191,-0.0346 -0.0418,-0.0675 -0.0877,-0.0346 -0.1534,0.10886 -0.1444,0.31714 -0.18714,0.16689 -0.0499,-0.17634 0.11607,-0.29106 0.11292,-0.32615 -0.0801,-0.83853 -0.11066,-0.29375 -0.28296,-0.70986 -0.38327,-0.92399 -0.34414,-0.73596 -0.55422,-1.24114 -0.61225,-1.47237 -0.0319,-0.12731 -0.0949,-0.27666 -0.14081,-0.33154 -0.0454,-0.0549 -0.16734,-0.34369 -0.27081,-0.64239 -0.14305,-0.41296 -0.16689,-0.56816 -0.10031,-0.64868 0.0688,-0.0823 0.0531,-0.11652 -0.0711,-0.15565 -0.0873,-0.0279 -0.1588,-0.10032 -0.1588,-0.1615 0,-0.0607 -0.0261,-0.11021 -0.058,-0.10976 -0.0319,9e-4 -0.53667,0.96673 -1.12238,2.14714 -1.44358,2.91009 -2.32079,4.56105 -2.36037,4.44229 -0.022,-0.067 -0.0877,-0.0391 -0.20469,0.0873 l -0.17184,0.18534 0.13226,0.80388 c 0.0729,0.44221 0.1561,1.00227 0.18444,1.24429 0.0477,0.40487 0.0688,0.44221 0.26001,0.46425 0.11426,0.0135 1.31987,0.0243 2.67977,0.0243 h 2.47194 z m -5.87912,-0.82458 c -0.20153,-1.28432 -0.33513,-1.88938 -0.40306,-1.82145 -0.0202,0.0207 0.0486,0.48494 0.1534,1.03196 0.10481,0.54747 0.23257,1.24969 0.28295,1.56099 0.0508,0.3113 0.10887,0.54972 0.12911,0.52948 0.0198,-0.0203 -0.0531,-0.60551 -0.1624,-1.30098 z m 9.91564,-0.13 c 0.0958,-0.007 0.1741,-0.0459 0.1741,-0.0864 0,-0.0801 -1.19436,-0.0274 -1.58573,0.0702 -0.19884,0.0495 0.79759,0.0607 1.41163,0.0162 z m -0.99192,-0.21143 c 0.57131,-0.0616 1.0585,-0.13181 1.08234,-0.1561 0.0243,-0.0238 -0.16464,-0.0238 -0.41971,9e-4 -1.0675,0.10346 -2.27535,0.21188 -2.7432,0.24742 -0.27531,0.0207 -0.51913,0.0576 -0.54162,0.0819 -0.054,0.058 1.31447,-0.0328 2.62219,-0.17409 z m 0.33559,-0.26137 c 0.62214,-0.0531 0.83133,-0.10661 0.74675,-0.19074 -0.0333,-0.0333 -2.26005,0.23843 -2.46923,0.30096 -0.11517,0.0342 0.42466,0 1.72248,-0.11022 z m -31.9107,-1.70764 c -0.24526,-0.0711 -0.83327,-0.10976 -1.22081,-0.0805 -0.24216,0.018 -0.25048,0.0256 -0.0786,0.0706 0.28642,0.0751 1.55797,0.0846 1.2994,0.01 z m 3.1275,-0.28025 c 0.27491,-0.19029 0.42655,-0.33694 0.34882,-0.33694 -0.0873,0 -0.91536,0.30994 -1.1447,0.42871 -0.236,0.12191 -0.24741,0.14215 -0.10928,0.19073 0.20799,0.0733 0.54239,-0.031 0.90515,-0.2825 z m 0.88756,0.16149 c 0.41323,-0.28026 0.41337,-0.2861 0.005,-0.25461 -0.37585,0.0288 -0.49007,-0.0396 -0.21273,-0.12776 0.0851,-0.027 0.1547,-0.0828 0.1547,-0.12416 0,-0.0877 -0.27432,0.0432 -0.35151,0.16824 -0.0279,0.0454 -0.19173,0.18444 -0.36407,0.30905 l -0.31332,0.22718 h 0.39497 c 0.29609,0 0.46798,-0.0495 0.68652,-0.19794 z m 6.79412,0.12146 c 0.43995,-9e-4 0.46469,-0.0112 0.47504,-0.19433 0.0108,-0.18264 -0.0108,-0.19344 -0.38687,-0.19434 -0.21863,-4.5e-4 -0.52813,-0.0225 -0.68783,-0.0486 -0.28071,-0.0468 -0.29015,-0.0409 -0.29015,0.18129 0,0.28115 0.0652,0.35403 0.26901,0.29915 0.0859,-0.0229 0.36528,-0.0427 0.6208,-0.0432 z m -12.4942,-0.15745 0.58022,-0.1498 -0.69628,0.0351 c -0.76789,0.0382 -1.0648,0.0985 -1.00047,0.20244 0.067,0.10841 0.48629,0.0751 1.11653,-0.0877 z m 3.63602,-0.072 c 0.19149,-0.0891 0.26111,-0.14395 0.15474,-0.12236 -0.10638,0.0216 -0.78526,0.0441 -1.50858,0.0499 -1.36606,0.0113 -1.35648,0.0382 0.0774,0.21728 0.65889,0.0828 0.82921,0.0634 1.27645,-0.14485 z m 4.91239,-0.081 c -0.2113,-0.0909 -0.27077,-0.0909 -0.27077,0 0,0.0427 0.0958,0.0747 0.21278,0.072 0.18845,-0.005 0.19519,-0.013 0.058,-0.072 z m 1.48946,0.0203 c -0.20244,-0.0157 -0.53308,-0.0157 -0.73506,0 -0.20198,0.0162 -0.0369,0.0292 0.36753,0.0292 0.40397,0 0.56951,-0.0131 0.36753,-0.0292 z m 1.19795,0.002 c -0.0963,-0.0185 -0.23527,-0.0175 -0.30949,0.002 -0.0738,0.0193 0.005,0.0342 0.17499,0.0337 0.17049,-9e-4 0.23077,-0.0171 0.1345,-0.0355 z m 3.13547,-0.90555 c 0.54972,-0.6352 1.28928,-2.20968 1.11833,-2.37972 -0.0742,-0.0738 -1.31536,-0.0949 -1.57583,-0.027 -0.19478,0.0508 -0.19973,0.0634 -0.0972,0.25956 0.18803,0.36033 0.0963,0.56816 -0.10752,0.24247 -0.0945,-0.15205 -0.15295,-0.1561 -1.62037,-0.12101 -1.45527,0.0351 -1.52454,0.0436 -1.58168,0.19794 -0.0328,0.0886 -0.11246,0.18174 -0.17724,0.20648 -0.20378,0.0783 -0.12956,0.17454 0.17185,0.22357 0.63204,0.10347 0.69727,0.12821 0.77194,0.29241 0.12191,0.26766 0.10482,0.32659 -0.0882,0.3014 -0.20963,-0.0274 -0.31535,0.21773 -0.17274,0.40037 0.0994,0.12686 1.70989,0.22492 2.24296,0.13675 l 0.2978,-0.0495 0.29151,-0.9195 c 0.17724,-0.55871 0.34368,-0.94874 0.42511,-0.99372 0.0733,-0.0414 0.28655,-0.0517 0.47414,-0.0238 0.54477,0.0819 0.55377,0.20603 0.0801,1.10708 -0.54162,1.02971 -0.96673,1.5349 -1.38869,1.65141 -0.17769,0.049 -0.28116,0.10436 -0.23032,0.12236 0.0508,0.0184 0.0738,0.081 0.0517,0.13945 -0.0931,0.24247 0.73236,-0.32569 1.11428,-0.76699 z m -3.25693,-1.56684 c -0.0765,-0.076 -0.0625,-0.33514 0.0175,-0.33514 0.0688,0 0.16284,0.18174 0.16284,0.3158 0,0.0828 -0.10571,0.094 -0.18039,0.0193 z m 14.16944,2.2695 c 0.0162,-0.0846 -0.0265,-0.1291 -0.12461,-0.1291 -0.0823,0 -0.27531,-0.0999 -0.4287,-0.22178 -0.46245,-0.36753 -0.72292,-0.44535 -0.98023,-0.2933 -0.11966,0.0706 -0.27486,0.1282 -0.34549,0.1282 -0.0702,0 -0.10571,0.036 -0.0787,0.0796 0.0535,0.0864 0.56996,0.0229 0.68602,-0.0841 0.0378,-0.0346 0.19434,0.0337 0.34819,0.15249 0.74765,0.57582 0.87361,0.62575 0.92354,0.36798 z m -14.06957,-0.0274 c 0.0198,-0.0171 -0.0666,-0.11291 -0.19164,-0.21233 -0.21278,-0.17004 -0.22042,-0.19433 -0.11966,-0.38282 0.0945,-0.17679 0.0918,-0.21863 -0.0211,-0.34369 -0.1516,-0.16734 -0.16465,-0.33379 -0.0355,-0.46245 0.072,-0.0724 -0.14395,-0.0927 -0.97258,-0.0927 -1.02071,0 -1.063,0.006 -1.01711,0.1507 0.0265,0.0828 -0.003,0.24922 -0.0652,0.36978 -0.0814,0.15745 -0.0913,0.25867 -0.0351,0.35899 0.0616,0.11021 0.0355,0.18488 -0.12267,0.34998 -0.11067,0.11561 -0.20118,0.23077 -0.20118,0.25597 0,0.0252 0.44261,0.0508 0.98288,0.0567 0.54073,0.006 0.99822,0.0261 1.01577,0.0441 0.0373,0.0369 0.72876,-0.0445 0.78319,-0.0922 z m 23.49082,-0.1579 c -0.0256,-0.0261 -0.0441,0.0198 -0.0405,0.10122 0.004,0.0904 0.022,0.10842 0.0468,0.0468 0.022,-0.0558 0.0193,-0.12236 -0.006,-0.14801 z m -23.02342,0.0562 c -0.1498,-0.0967 -0.23213,-0.0967 -0.23213,0 0,0.0427 0.0783,0.0769 0.1741,0.076 0.1408,-9e-4 0.15205,-0.0153 0.058,-0.076 z m 0.94874,0.0229 c -0.0949,-0.0184 -0.26902,-0.0189 -0.38688,-9e-4 -0.11741,0.0175 -0.0396,0.0328 0.1732,0.0333 0.21278,4.5e-4 0.30904,-0.0139 0.21368,-0.0324 z m 8.22374,-0.0198 0.93344,-0.003 -0.14035,-0.67703 c -0.4728,-2.2749 -0.86102,-4.20657 -0.90735,-4.51607 -0.0513,-0.34008 -0.21683,-0.67432 -0.45075,-0.90915 -0.0585,-0.0585 -0.0886,-0.15385 -0.0666,-0.21098 0.022,-0.0576 -0.0113,-0.21863 -0.0742,-0.35763 -0.11066,-0.24382 -0.11426,-0.22852 -0.094,0.42466 0.0243,0.77105 0.004,0.79624 -0.62709,0.7598 -0.31985,-0.018 -0.33604,-0.009 -0.2933,0.16105 0.0247,0.0994 0.0513,0.46964 0.0589,0.82233 0.0117,0.54522 -0.008,0.65723 -0.13001,0.7463 -0.12551,0.0918 -0.14485,0.22628 -0.15385,1.06075 -0.009,0.88351 -0.0931,2.30774 -0.1552,2.64693 -0.0247,0.13406 0.0171,0.14126 0.56996,0.0999 0.3284,-0.0247 1.01712,-0.0463 1.5304,-0.0477 z m -12.31065,-0.49799 c -0.0231,-0.0922 0.0101,-0.26811 0.0738,-0.39092 0.0863,-0.166 0.0948,-0.26272 0.0346,-0.37563 -0.0634,-0.11831 -0.0955,-0.12911 -0.14503,-0.049 -0.0351,0.0567 -0.0282,0.16914 0.0155,0.25101 0.15385,0.28746 -0.2045,0.40037 -0.54778,0.1723 -0.21184,-0.14081 -0.39313,-0.41117 -0.39313,-0.58661 0,-0.0445 0.68908,-0.0733 1.74075,-0.0733 0.96808,0 1.74048,-0.031 1.74048,-0.0693 0,-0.081 -3.62073,-0.0972 -3.91961,-0.0171 -0.19798,0.0531 -0.19056,0.0643 0.29497,0.44581 0.27396,0.21503 0.57495,0.4323 0.66888,0.48269 0.1001,0.0535 0.17077,0.16509 0.17077,0.26946 0,0.22987 0.0755,0.3014 0.2049,0.19389 0.0575,-0.0477 0.0844,-0.1597 0.061,-0.25327 z m 4.79587,0.14665 c 0.0639,-0.085 0.11786,-0.18939 0.11921,-0.23212 0.004,-0.12776 -2.24476,-0.0801 -2.32663,0.0495 -0.20109,0.31715 -0.11022,0.34369 1.14577,0.34009 0.85202,-0.002 0.95594,-0.018 1.06165,-0.15745 z m 20.86774,-0.0967 c 0.007,-0.0742 0.0189,-0.32659 0.0265,-0.56096 0.008,-0.23393 0.04,-0.78544 0.0715,-1.22585 l 0.0571,-0.80029 -0.18084,0.0531 c -0.26272,0.0765 -0.47055,0.36168 -0.6334,0.86911 -0.0787,0.24562 -0.24651,0.70672 -0.37202,1.02431 -0.21458,0.54297 -0.22043,0.58436 -0.0931,0.67703 0.076,0.0558 0.34908,0.099 0.62304,0.099 0.40847,0 0.49034,-0.022 0.50114,-0.13541 z m 0.50248,-0.19343 c -0.0216,-0.0531 -0.0391,-0.009 -0.0391,0.0967 0,0.10662 0.0175,0.14981 0.0391,0.0967 0.0216,-0.0531 0.0216,-0.14035 0,-0.19343 z m -11.59313,-0.26991 c -0.0171,-0.20784 -0.0639,-0.29736 -0.16555,-0.3167 -0.11831,-0.022 -0.13855,0.0171 -0.12056,0.23167 0.0274,0.32795 0.0513,0.37428 0.19434,0.37428 0.0868,0 0.10976,-0.0729 0.0918,-0.28925 z m -21.91724,0.0571 c 0.077,-0.085 0.1085,-0.1534 0.07,-0.15205 -0.0899,0.003 -0.34081,0.19253 -0.34081,0.25731 0,0.0985 0.13366,0.0463 0.27082,-0.10526 z m 33.5927,-0.79264 c -0.0175,-0.13856 -0.0315,-0.0252 -0.0315,0.25146 0,0.27621 0.0139,0.38958 0.0315,0.25102 0.0171,-0.1381 0.0171,-0.36438 0,-0.50248 z m -7.71497,-1.71439 c 0,-0.0189 -0.10436,0.018 -0.23212,0.0819 -0.12776,0.0634 -0.23212,0.14756 -0.23212,0.18624 0,0.12821 -0.58931,0.4665 -0.72292,0.41522 -0.0706,-0.0274 -0.1282,-0.0814 -0.1282,-0.12056 0,-0.0387 -0.0868,-0.10392 -0.19344,-0.14441 -0.10617,-0.0405 -0.19344,-0.12236 -0.19344,-0.18264 0,-0.0598 -0.0693,-0.12685 -0.15475,-0.14935 -0.26631,-0.0697 -0.16869,-0.18849 0.15475,-0.18849 0.29781,0 0.39452,0.072 0.23213,0.1723 -0.15925,0.0985 -0.0747,0.20963 0.12236,0.16015 0.17139,-0.0432 0.19298,-0.0293 0.1525,0.0985 -0.0688,0.21593 0.15879,0.27576 0.29735,0.0778 0.0612,-0.0877 0.14935,-0.13676 0.19523,-0.10797 0.0517,0.0315 0.0837,-0.0243 0.0837,-0.14665 0,-0.13361 0.0423,-0.19793 0.13,-0.19793 0.39003,0 0.6064,-0.17949 0.89701,-0.74496 l 0.29195,-0.56816 -0.2834,0.19253 c -0.18174,0.12326 -0.39137,0.19254 -0.58481,0.19254 -0.21863,0 -0.31265,0.0369 -0.34414,0.13496 -0.0787,0.24697 -0.22133,0.52138 -0.30005,0.57851 -0.10122,0.0738 -0.27576,0.0171 -0.90915,-0.29421 l -0.52273,-0.25641 0.0481,0.32434 c 0.0265,0.17859 0.0936,0.55062 0.14935,0.82683 0.0558,0.27621 0.0891,0.51463 0.0733,0.52992 -0.094,0.094 -0.17904,-0.1408 -0.26766,-0.7382 -0.0553,-0.37428 -0.13091,-0.74991 -0.16779,-0.83538 -0.0517,-0.11876 -0.0585,-0.10076 -0.0292,0.0774 0.0216,0.12775 0.0783,0.56276 0.12685,0.96718 0.11517,0.95863 0.13136,1.10079 0.13901,1.22854 0.005,0.0801 0.0859,0.0963 0.32254,0.0648 0.46155,-0.0621 0.7661,0.0643 0.76925,0.3194 0.002,0.1435 0.16599,-0.11606 0.54162,-0.85742 0.29645,-0.58436 0.53892,-1.07785 0.53892,-1.09629 z m -4.81971,1.96226 0.23167,-0.081 -0.12011,-0.57671 c -0.0666,-0.31714 -0.15925,-0.57671 -0.20603,-0.57671 -0.0472,0 -0.13586,-0.12866 -0.19659,-0.2861 -0.0612,-0.15745 -0.20648,-0.462 -0.32299,-0.67703 -0.11651,-0.21503 -0.3041,-0.59156 -0.41746,-0.83718 -0.11291,-0.24562 -0.21998,-0.4323 -0.23707,-0.41521 -0.0171,0.0171 0.0778,0.35718 0.21053,0.75575 0.1327,0.39857 0.33964,1.14937 0.4602,1.66805 0.19883,0.85427 0.2771,1.10664 0.34323,1.10664 0.0126,0 0.12686,-0.036 0.25462,-0.0805 z m 8.37849,-0.57267 c 0,-0.12416 0.0418,-0.17724 0.13496,-0.16959 0.094,0.007 0.14305,-0.0549 0.16015,-0.20198 0.0256,-0.22178 0.12056,-0.27666 0.21458,-0.12371 0.0396,0.0634 0.0801,0.0549 0.14215,-0.0297 0.0477,-0.0652 0.15475,-0.13181 0.23797,-0.148 0.10886,-0.0207 0.17724,-0.13676 0.24517,-0.41522 0.0513,-0.21233 0.12956,-0.52498 0.17364,-0.69547 0.10842,-0.42016 0.0999,-0.69817 -0.0117,-0.38687 -0.23888,0.66578 -1.25149,1.72113 -1.55829,1.62486 -0.40982,-0.12775 -0.51238,-0.1327 -0.51238,-0.0247 0,0.18939 -0.16285,0.29645 -0.3212,0.21188 -0.16419,-0.0877 -0.17769,-0.0481 -0.0594,0.1723 0.081,0.15205 0.0877,0.15205 0.24337,0.0144 0.15835,-0.1399 0.1597,-0.139 0.10842,0.0711 -0.0306,0.12686 -0.0198,0.21278 0.0274,0.21278 0.0432,0 0.0787,-0.0351 0.0787,-0.0774 0,-0.13855 0.15475,-0.0814 0.157,0.058 0.002,0.12866 0.008,0.12866 0.10527,0 0.13315,-0.17589 0.17454,-0.17094 0.22627,0.027 0.054,0.20694 0.20783,0.11832 0.20783,-0.11966 z m -21.07242,-0.12056 c -0.32389,-0.35808 -0.36348,-0.5956 -0.10571,-0.63294 0.34998,-0.0513 0.61045,0.031 0.69637,0.21953 0.0598,0.13136 0.10212,0.1579 0.14395,0.0895 0.0328,-0.0526 0.0252,-0.13765 -0.0171,-0.18849 -0.10842,-0.1309 -0.007,-0.17004 0.43456,-0.16779 1.44267,0.008 2.91953,-0.0225 2.88355,-0.0585 -0.0391,-0.0391 -3.75942,-0.0396 -4.25695,-9e-4 -0.3131,0.0247 -0.3266,0.076 -0.12731,0.48449 0.0999,0.20423 0.17184,0.41476 0.16015,0.46829 -0.0131,0.0612 0.0684,0.0967 0.22357,0.0967 h 0.24472 z m 22.78321,-0.0139 c 0.1651,-0.0931 0.3005,-0.19929 0.3005,-0.23572 0,-0.18309 -0.51643,-0.98788 -0.63339,-0.98788 -0.0346,0 -0.063,0.0652 -0.063,0.14485 0,0.0796 -0.0697,0.36258 -0.15475,0.6289 -0.085,0.26631 -0.15475,0.51463 -0.15475,0.55151 0,0.12596 0.40352,0.0679 0.70537,-0.10166 z m 2.77469,-2.09766 c 0.0432,-0.20423 0.0751,-0.46515 0.0711,-0.58031 -0.0139,-0.36663 -0.29015,1.38869 -0.33289,2.11205 -0.0387,0.65589 -0.0346,0.64239 0.0711,-0.23212 0.0616,-0.51058 0.14755,-1.09539 0.19074,-1.29962 z m -10.61651,1.84439 c 0.0954,-0.002 0.17409,-0.0391 0.17409,-0.0828 0,-0.25012 -0.17319,-1.39769 -0.22447,-1.48991 -0.0612,-0.10932 -0.16105,0.65318 -0.16195,1.24069 -4.5e-4,0.1597 -0.0355,0.29016 -0.0778,0.29016 -0.0864,0 -0.0931,-0.74991 -0.0121,-1.35406 l 0.0517,-0.38687 -0.60955,-0.85067 c -0.69187,-0.96583 -1.08819,-1.47417 -1.33291,-1.70989 l -0.16914,-0.1624 -0.72337,0.41207 c -0.66983,0.38147 -0.8988,0.57041 -0.69232,0.57041 0.0459,0 0.0823,0.0607 0.0805,0.13541 -0.003,0.12955 1.40623,2.97442 1.45122,2.92943 0.0558,-0.0558 -0.30905,-1.8084 -0.40802,-1.95955 -0.13135,-0.20154 -0.139,-0.25417 -0.036,-0.25417 0.17095,0 0.33514,0.43231 0.4746,1.25014 0.0814,0.47639 0.1561,0.87226 0.16599,0.87991 0.0104,0.008 0.14261,-0.001 0.29466,-0.0207 l 0.27576,-0.0342 -0.14216,-0.89431 c -0.12776,-0.80298 -0.1345,-1.04725 -0.0256,-0.93884 0.0346,0.0346 0.32659,1.65456 0.40622,2.25421 l 0.0387,0.2915 0.51374,-0.0562 c 0.28295,-0.0306 0.59245,-0.0576 0.68827,-0.0594 z m 7.05908,-0.008 c 0,-0.0666 -0.0346,-0.0994 -0.0774,-0.0729 -0.0423,0.0261 -0.0774,0.0805 -0.0774,0.12056 0,0.04 0.0351,0.0729 0.0774,0.0729 0.0427,0 0.0774,-0.0544 0.0774,-0.12056 z m -10.08299,-0.20828 c -0.0216,-0.0531 -0.0391,-0.01 -0.0391,0.0967 0,0.10617 0.0175,0.1498 0.0391,0.0967 0.0212,-0.0531 0.0212,-0.14035 0,-0.19344 z m -7.75005,-0.52048 c 0.0194,-0.031 -0.22492,-0.10751 -0.54297,-0.16869 -0.31759,-0.0616 -0.57761,-0.0895 -0.57761,-0.0616 0,0.0279 -0.34009,0.0711 -0.7553,0.0963 -0.41521,0.0256 -0.84167,0.0814 -0.94784,0.12461 -0.139,0.0562 0.22223,0.0765 1.29783,0.0724 0.81963,-0.003 1.5061,-0.0315 1.52589,-0.063 z m 15.88383,-0.41071 c 0.24247,-0.10662 0.51958,-0.21728 0.61585,-0.24607 0.21278,-0.0634 0.33649,-0.2933 0.55556,-1.03061 0.1552,-0.52273 0.15835,-0.58166 0.0472,-0.80479 -0.1498,-0.2996 -0.15025,-0.5965 -0.002,-0.79309 0.17364,-0.22987 0.13855,-0.41476 -0.16555,-0.87316 -0.15385,-0.23122 -0.3014,-0.50113 -0.32884,-0.59965 l -0.0495,-0.17904 -0.1489,0.19838 c -0.0814,0.10887 -0.10932,0.17365 -0.0616,0.1444 0.0877,-0.0544 0.70536,0.65454 0.72201,0.82818 0.0252,0.26631 -0.0427,0.50249 -0.20648,0.71932 l -0.18354,0.24247 0.15969,0.33064 c 0.11427,0.23617 0.14666,0.41296 0.11427,0.61629 -0.0562,0.35314 -0.41072,1.00183 -0.57986,1.06166 -0.0688,0.0243 -0.32525,0.16554 -0.56996,0.31399 -0.3293,0.19974 -0.44221,0.3122 -0.43456,0.43321 l 0.0108,0.16285 0.0324,-0.16555 c 0.0221,-0.11381 0.1696,-0.22583 0.4728,-0.35943 z m -17.31391,-0.12641 c 0,-0.0391 0.0211,-0.12596 0.0468,-0.19344 0.0378,-0.0981 -0.01,-0.12236 -0.24022,-0.12236 -0.23033,0 -0.27801,0.0243 -0.24022,0.12236 0.0256,0.0675 0.0468,0.1543 0.0468,0.19344 0,0.0391 0.0868,0.0711 0.19344,0.0711 0.10616,0 0.19343,-0.0319 0.19343,-0.0711 z m 19.91,-0.1417 c 0.10167,-0.36123 0.12956,-0.6271 0.0697,-0.66443 -0.0364,-0.0225 -0.10077,0.14845 -0.14305,0.37967 -0.0427,0.23122 -0.0517,0.42016 -0.0211,0.42016 0.031,0 0.0733,-0.0607 0.0945,-0.1354 z m -8.20395,-1.65276 c -0.20468,-0.27216 -0.52902,-0.72876 -0.72066,-1.01397 -0.19164,-0.28565 -0.38282,-0.51957 -0.42556,-0.51957 -0.0423,0 -0.14305,0.0499 -0.22358,0.11066 -0.13855,0.10526 -0.11921,0.14485 0.38958,0.79084 0.2942,0.37383 0.69052,0.90195 0.87991,1.17366 l 0.34503,0.49394 0.0639,-0.27036 c 0.0585,-0.24742 0.0324,-0.31265 -0.3086,-0.7652 z m 8.14862,-0.72336 c -0.0405,-0.0837 -0.0814,-0.40217 -0.0913,-0.70852 -0.01,-0.3059 -0.0423,-0.5956 -0.0724,-0.64419 -0.0297,-0.0481 -0.0149,-0.1354 0.0337,-0.19388 0.0603,-0.0729 0.0625,-0.12101 0.006,-0.1561 -0.045,-0.0274 -0.0603,-0.13496 -0.0342,-0.23887 0.0306,-0.12236 0.0144,-0.18849 -0.0468,-0.18849 -0.0517,0 -0.0738,-0.0522 -0.0495,-0.11606 0.0504,-0.13091 -0.14396,-0.16375 -0.22223,-0.0373 -0.0751,0.12191 -0.19164,0.009 -0.13721,-0.13271 0.0315,-0.0823 0.018,-0.10751 -0.0387,-0.0724 -0.0517,0.0319 -0.13721,-0.0423 -0.20873,-0.18039 -0.0666,-0.12911 -0.13946,-0.23483 -0.1615,-0.23483 -0.0621,0 -0.41476,0.41657 -0.41746,0.49304 -10e-4,0.0373 0.0495,0.0247 0.11246,-0.0279 0.19793,-0.1642 0.32164,-0.0351 0.70177,0.73101 0.31714,0.63924 0.36933,0.80973 0.37293,1.22405 0.003,0.34548 -0.0382,0.55287 -0.14756,0.73731 l -0.1525,0.25686 0.21278,0.38148 c 0.11697,0.21008 0.21773,0.49483 0.22403,0.63339 0.006,0.1381 0.0513,-0.11427 0.0999,-0.56097 0.0571,-0.52003 0.063,-0.86731 0.0162,-0.96448 z m -3.33565,1.21145 c -0.0238,-0.0238 -0.0864,0 -0.139,0.0526 -0.0756,0.0765 -0.067,0.0855 0.0436,0.0436 0.076,-0.0292 0.11921,-0.0724 0.0954,-0.0963 z m -2.2947,-0.33109 c 0.3158,-0.25147 0.39722,-0.36258 0.39722,-0.54297 0,-0.1705 0.10572,-0.33649 0.42466,-0.66578 0.57851,-0.59741 0.69053,-0.91725 0.63744,-1.821 -0.0333,-0.56232 -0.20423,-1.35091 -0.32704,-1.51016 -0.009,-0.0117 -0.0999,0.0122 -0.20153,0.0531 -0.10212,0.0405 -0.1426,0.076 -0.09,0.0787 0.13001,0.007 0.28565,0.40307 0.40307,1.02656 0.0778,0.41252 0.0783,0.60235 0.003,0.9285 -0.1444,0.62304 -0.21682,0.78274 -0.43005,0.95098 -0.62395,0.49214 -0.66578,0.54387 -0.67973,0.84123 -0.0157,0.34053 -0.21008,0.52227 -0.85247,0.79938 l -0.39587,0.1705 0.35763,0.004 c 0.30455,0.003 0.41567,-0.0432 0.75395,-0.31265 z m 2.77244,0.10931 c 0.0229,-0.0598 -0.0166,-0.17274 -0.0877,-0.25146 -0.10211,-0.11292 -0.11831,-0.22493 -0.0765,-0.53848 0.054,-0.40666 -0.0157,-0.50653 -0.17545,-0.25146 -0.0859,0.13765 -0.0666,0.30904 0.0958,0.84257 0.0301,0.099 0.0135,0.22178 -0.0378,0.28386 -0.0751,0.09 -0.0616,0.10166 0.0747,0.0661 0.0909,-0.0238 0.18444,-0.0918 0.20693,-0.15115 z m -23.57269,-0.20963 c 0,-0.21863 -0.20433,-0.38102 -0.41346,-0.32839 -0.22286,0.0558 -0.25259,0.17004 -0.12016,0.46065 0.0808,0.17724 0.0969,0.18129 0.30946,0.0751 0.1233,-0.0616 0.22416,-0.15475 0.22416,-0.20738 z m 29.52648,0.0877 c -0.0216,-0.0531 -0.0391,-0.01 -0.0391,0.0967 0,0.10617 0.0175,0.1498 0.0391,0.0967 0.0216,-0.0531 0.0216,-0.14035 0,-0.19344 z m -2.04322,-0.1561 c 0.24472,-0.1282 0.44445,-0.26136 0.44445,-0.29645 0,-0.0963 -0.66668,-0.46604 -0.96043,-0.53262 -0.25327,-0.0571 -0.26137,-0.0508 -0.30635,0.22132 -0.0256,0.1543 -0.0468,0.42871 -0.0472,0.61045 -9e-4,0.3212 0.005,0.32885 0.21188,0.28026 0.11696,-0.0274 0.41297,-0.15475 0.65769,-0.28296 z m -5.08513,0.018 c 0.11876,-0.23033 0.11786,-0.23302 -0.0369,-0.13631 -0.0868,0.0544 -0.15835,0.16015 -0.15835,0.23483 0,0.19703 0.0571,0.16824 0.19524,-0.0985 z m -8.27098,-0.42961 c 0.0688,-0.27441 -0.04,-1.6712 -0.1399,-1.79131 -0.18534,-0.22313 -0.56142,-0.0625 -1.34641,0.57356 -0.33964,0.27531 -0.50429,0.33964 -0.33019,0.12866 0.0963,-0.11651 0.09,-0.12011 -0.0679,-0.036 -0.0958,0.0513 -0.17409,0.12326 -0.17409,0.16015 0,0.0369 0.19748,0.17859 0.4386,0.31489 l 0.43816,0.24742 0.14485,-0.18219 c 0.0796,-0.10031 0.27261,-0.39947 0.42916,-0.66578 0.26721,-0.45435 0.40577,-0.5911 0.40577,-0.40037 0,0.0454 -0.09,0.23663 -0.20019,0.42421 -0.10976,0.18804 -0.25147,0.52498 -0.31444,0.74901 -0.063,0.22402 -0.13361,0.46784 -0.157,0.54252 -0.0369,0.11786 0.0135,0.1354 0.39047,0.1354 0.40127,0 0.43681,-0.0148 0.48314,-0.20018 z m -0.94334,-0.24112 0.12416,-0.36438 -0.29735,0.30635 c -0.24247,0.24967 -0.27486,0.31579 -0.175,0.35853 0.20559,0.0882 0.21998,0.0756 0.34819,-0.3005 z m 10.01551,-0.37383 c 0.0882,-0.16869 0.43095,-0.63744 0.7616,-1.04186 0.33109,-0.40396 0.84482,-1.0567 1.14217,-1.45032 0.29735,-0.39362 0.56726,-0.71571 0.59965,-0.71571 0.0981,0 0.0666,0.13 -0.0571,0.23212 -0.14035,0.11696 -0.14125,0.15385 -0.005,0.33379 0.10122,0.13316 0.12776,0.12821 0.55017,-0.0967 0.24382,-0.13045 0.50833,-0.23707 0.58751,-0.23707 0.0792,0 0.14395,-0.0198 0.14395,-0.0441 0,-0.0238 -0.11786,-0.39812 -0.26181,-0.83133 -0.28206,-0.85067 -1.01667,-2.37387 -1.14398,-2.37387 -0.0432,0 -0.16689,0.0697 -0.27531,0.15475 -0.1291,0.10167 -0.31354,0.15475 -0.53802,0.15475 -0.29915,0 -0.35718,-0.0288 -0.47279,-0.23482 -0.0985,-0.175 -0.17095,-0.22358 -0.28656,-0.19119 -0.085,0.0238 -0.31445,0.0639 -0.50923,0.0891 -0.32165,0.0418 -0.37023,0.0261 -0.52228,-0.1669 -0.0922,-0.11741 -0.16779,-0.2915 -0.16779,-0.38732 0,-0.17724 -0.17005,-0.26586 -0.51554,-0.26811 -0.11291,-9e-4 -0.19163,-0.0706 -0.24157,-0.21368 -0.0738,-0.21278 -0.0738,-0.21278 -0.1345,0.0967 -0.0337,0.17004 -0.10752,0.42151 -0.16465,0.55826 -0.11066,0.26452 -0.13855,0.46875 -0.0522,0.38238 0.0283,-0.0283 0.12776,-0.002 0.22088,0.0589 0.0927,0.0612 0.29645,0.1345 0.4521,0.16375 0.30095,0.0567 0.62439,0.37652 0.55737,0.55151 -0.0212,0.0553 0.027,0.13586 0.10706,0.17859 0.0801,0.0432 0.20018,0.13226 0.26631,0.19839 0.0913,0.0913 0.15655,0.10077 0.27171,0.0391 0.18489,-0.099 0.3005,0.0315 0.11876,0.13315 -0.11291,0.0634 -0.11246,0.10392 0.006,0.46695 0.0922,0.28206 0.1669,0.39227 0.25732,0.38012 0.0702,-0.009 0.14485,0.018 0.16599,0.0607 0.0211,0.0423 -0.036,0.0877 -0.12731,0.10077 -0.12011,0.0171 -0.17634,0.0922 -0.20378,0.27081 -0.0207,0.13586 -0.004,0.28881 0.0369,0.34009 0.0414,0.0513 0.0531,0.1615 0.0265,0.24517 -0.0265,0.0832 -0.009,0.17589 0.0387,0.20513 0.0513,0.0319 0.0661,0.13766 0.0364,0.25822 -0.0949,0.38462 0.0945,0.0625 0.42556,-0.72426 0.35313,-0.83898 0.36438,-0.85922 0.43005,-0.79354 0.0247,0.0243 -0.0949,0.37832 -0.26541,0.78634 -0.17049,0.40846 -0.29735,0.74225 -0.28116,0.74225 0.0157,0 0.1651,-0.25236 0.332,-0.56096 0.87586,-1.61947 0.96718,-1.76252 1.0621,-1.6676 0.0166,0.0166 -0.18174,0.41206 -0.44131,0.87811 -0.25911,0.46604 -0.72156,1.30007 -1.02746,1.85339 -0.30545,0.55332 -0.65139,1.17411 -0.7688,1.37969 -0.11741,0.20559 -0.26406,0.54343 -0.32569,0.75081 -0.0616,0.20738 -0.14575,0.39812 -0.18714,0.42376 -0.0414,0.0256 -0.0756,0.0841 -0.0756,0.12956 0,0.11561 0.26271,-0.22943 0.4548,-0.59786 z m -23.2623,0.4566 c 0.38826,-0.10886 0.44994,-0.1516 0.44994,-0.31175 0,-0.10211 -0.0577,-0.20783 -0.12825,-0.23482 -0.10522,-0.0405 -1.02283,0.0981 -1.09058,0.1642 -0.0509,0.0499 0.16096,0.50878 0.23496,0.50878 0.0462,0 0.28651,-0.0567 0.53393,-0.12641 z m 27.83504,-0.70492 c -0.49034,-1.74227 -0.47549,-1.70449 -0.57401,-1.47056 -0.0495,0.11651 -0.21008,0.33874 -0.35673,0.49304 -0.17904,0.18848 -0.23438,0.2933 -0.1678,0.31759 0.0549,0.0198 0.20738,0.12686 0.33874,0.23707 l 0.23887,0.20109 -0.22267,0.17814 c -0.12236,0.0981 -0.26362,0.17814 -0.31445,0.17814 -0.0508,4.5e-4 -0.10931,0.0283 -0.13046,0.0625 -0.0211,0.0342 0.0733,0.0616 0.21008,0.0616 0.25822,0 0.93974,0.2906 1.03196,0.43995 0.13046,0.21143 0.10347,-0.13945 -0.0535,-0.69862 z m -11.68041,-0.64823 c 0,-0.0576 -0.47639,-0.79939 -0.58345,-0.90825 -0.0252,-0.0256 -1.27354,0.68557 -1.27354,0.72606 0,0.01 0.0486,0.13585 0.10797,0.27891 0.0594,0.1435 0.16195,0.39092 0.22717,0.54926 l 0.11967,0.28836 0.70086,-0.43141 c 0.38553,-0.23707 0.70132,-0.46335 0.70132,-0.50293 z m -15.797,0.51463 c 0.33793,-0.0463 0.40959,-0.085 0.44882,-0.24112 0.0612,-0.24427 4.9e-4,-0.38778 -0.18399,-0.43636 -0.1287,-0.0337 -0.14679,-0.003 -0.12897,0.22133 0.0229,0.28835 -0.15116,0.37293 -0.22066,0.10751 -0.0384,-0.1471 -0.0556,-0.14845 -0.41517,-0.0369 -0.2063,0.0643 -0.4736,0.13811 -0.59398,0.1642 -0.1767,0.0387 -0.21049,0.0792 -0.17513,0.21098 0.0241,0.0895 0.0443,0.20468 0.0448,0.25552 7.2e-4,0.0657 0.11975,0.0517 0.41157,-0.0486 0.22578,-0.0778 0.59147,-0.16644 0.81266,-0.19658 z m 26.51428,0.0666 c 0.10481,-0.0688 0.19074,-0.1552 0.19074,-0.19164 0,-0.0675 -0.46155,-0.33469 -0.49934,-0.28881 -0.0315,0.0387 0.0477,0.60505 0.085,0.60505 0.018,0 0.11876,-0.0562 0.22358,-0.1246 z m -10.9494,-0.1516 c 0,-0.0212 -0.0697,-0.001 -0.15475,0.0441 -0.0855,0.0459 -0.15475,0.10032 -0.15475,0.12146 0,0.0216 0.0693,0.002 0.15475,-0.0441 0.085,-0.0454 0.15475,-0.0999 0.15475,-0.12146 z m 1.03961,-0.0742 c 0.0828,-0.0625 0.11741,-0.11246 0.0774,-0.11111 -0.04,0.001 -0.14035,0.0535 -0.22312,0.11606 -0.0823,0.0625 -0.11742,0.11246 -0.0774,0.11111 0.04,-0.001 0.14081,-0.0535 0.22313,-0.11606 z m -0.65319,-0.1579 c 0,-0.0211 -0.0693,-0.001 -0.1543,0.0441 -0.0855,0.0459 -0.15475,0.10031 -0.15475,0.12191 0,0.0211 0.0693,0.001 0.15475,-0.0445 0.085,-0.0454 0.1543,-0.0999 0.1543,-0.12146 z m 0.52723,-0.37023 c -0.0922,-0.1336 -0.17409,-0.25326 -0.18264,-0.26541 -0.008,-0.0121 -0.10751,0.0198 -0.22043,0.0715 -0.23842,0.10886 -0.22582,0.27171 0.0184,0.23617 0.17814,-0.0261 0.23212,0.10122 0.0702,0.16645 -0.0585,0.0234 -0.0441,0.0414 0.0364,0.045 0.09,0.004 0.11741,0.0468 0.0846,0.13181 -0.0427,0.11201 -0.0261,0.11111 0.15655,-0.009 l 0.20468,-0.13406 z m -16.65712,-0.0423 c 0.16352,-0.0922 0.23824,-0.19839 0.253,-0.35943 0.0174,-0.18984 0.007,-0.20559 -0.0613,-0.094 -0.0452,0.0742 -0.24612,0.26091 -0.44644,0.41566 -0.26658,0.20558 -0.31237,0.26586 -0.17081,0.22493 0.10639,-0.0306 0.29785,-0.11517 0.42552,-0.18714 z m 13.49016,-0.35853 c 0.049,-0.0495 -0.91635,0.0387 -1.01082,0.0922 -0.0292,0.0166 -0.0184,0.13 0.0239,0.25236 l 0.0774,0.22178 0.43096,-0.25957 c 0.23707,-0.1426 0.45255,-0.2807 0.47864,-0.30679 z m 9.94758,-0.19704 c 0.12281,-0.37383 0.15925,-0.58751 0.10661,-0.62035 -0.0558,-0.0342 -0.054,-0.0994 0.005,-0.20918 0.12551,-0.23437 0.10482,-0.31489 -0.0693,-0.26946 -0.14711,0.0387 -0.14936,0.0297 -0.0391,-0.18129 0.10886,-0.20873 0.10661,-0.22312 -0.0432,-0.24697 -0.10976,-0.0175 -0.1363,-0.0535 -0.0864,-0.11606 0.0396,-0.0499 0.0949,-0.16419 0.12236,-0.25417 0.0454,-0.14755 0.0234,-0.16149 -0.22942,-0.14125 -0.15385,0.0121 -0.30095,0.0432 -0.32705,0.0693 -0.0256,0.0256 0.0162,0.34998 0.0931,0.72066 0.0769,0.37023 0.1588,0.94424 0.18129,1.27578 0.0225,0.33109 0.0544,0.58886 0.0706,0.57266 0.0162,-0.0162 0.11336,-0.2861 0.21593,-0.59965 z m 3.24838,0.3068 c 0.39047,-0.46425 0.45165,-0.65633 0.34279,-1.08054 -0.11561,-0.45211 -0.21188,-0.4737 -0.82908,-0.18624 -0.40397,0.18803 -0.50743,0.38642 -0.20153,0.38642 0.19928,4.5e-4 0.34098,0.31265 0.34233,0.7544 9e-4,0.20198 0.0333,0.36753 0.072,0.36753 0.0387,0 0.16195,-0.10886 0.27351,-0.24157 z m -10.50269,-0.0288 0.16509,-0.11561 -0.15745,-0.32929 c -0.0864,-0.18129 -0.16914,-0.34279 -0.18399,-0.35899 -0.0324,-0.036 -0.49573,0.15025 -0.49573,0.19929 0,0.0778 0.40531,0.72021 0.45435,0.72021 0.0288,0 0.12686,-0.0522 0.21773,-0.11561 z m -16.56176,-0.27621 c 0.22767,-0.13001 0.4342,-0.26946 0.45894,-0.3095 0.0818,-0.13225 0.33393,0.0747 0.3593,0.2951 0.0229,0.19929 0.0611,0.16915 0.60469,-0.47369 0.31913,-0.37788 0.67334,-0.80703 0.7872,-0.95369 0.11381,-0.1471 0.56636,-0.64913 1.00564,-1.11608 0.43951,-0.46695 0.80928,-0.87811 0.82188,-0.9141 0.0126,-0.036 -0.19614,-0.1399 -0.46425,-0.23077 l -0.48719,-0.16555 -0.23208,0.25687 c -0.86745,0.95953 -1.63341,1.87003 -1.93301,2.29739 -0.4239,0.6046 -1.15149,1.38105 -1.38087,1.47372 -0.0921,0.0369 -0.11943,0.0697 -0.0608,0.0724 0.0587,0.003 0.2929,-0.10166 0.52057,-0.23212 z m 14.66068,-0.0621 c 0.10122,-0.0792 0.33469,-0.21998 0.51823,-0.31355 0.34054,-0.17274 0.37698,-0.27935 0.14665,-0.42511 -0.10571,-0.0666 -0.20783,-0.004 -0.55646,0.34009 -0.23483,0.23168 -0.42691,0.44895 -0.42691,0.48224 0,0.10122 0.1237,0.0684 0.31849,-0.0837 z m -0.47324,0.0355 c 0,-0.0175 -0.10302,-0.26092 -0.22853,-0.54162 -0.21053,-0.4683 -0.24832,-0.51014 -0.46694,-0.51014 -0.21638,0 -0.23033,0.0149 -0.15295,0.1588 0.0814,0.15295 0.1246,0.37788 0.1435,0.75036 0.008,0.1534 0.0499,0.17409 0.35673,0.17409 0.19164,0 0.34819,-0.0144 0.34819,-0.0315 z m 0.57536,-0.63159 0.43096,-0.43051 -0.22403,-0.32345 c -0.41072,-0.59335 -0.52543,-0.65813 -1.45662,-0.82592 -0.4719,-0.085 -0.91365,-0.1759 -0.98158,-0.20199 -0.0733,-0.0283 -0.12326,-0.007 -0.12326,0.0517 0,0.1318 -0.37158,-0.21863 -0.50653,-0.4773 -0.0666,-0.12821 -0.25507,-0.26271 -0.51463,-0.36843 -0.22583,-0.0922 -0.51463,-0.22132 -0.64239,-0.28745 l -0.23167,-0.12011 0.19298,0.19208 c 0.10662,0.10572 0.34864,0.27756 0.53802,0.38238 0.33604,0.18579 0.95819,0.98338 0.767,0.98338 -0.0562,0 -0.0504,0.0423 0.0166,0.12325 0.0706,0.0855 0.17949,0.11112 0.35088,0.0837 0.21458,-0.0351 0.25417,-0.0148 0.29555,0.14935 0.0819,0.32659 0.79264,0.64419 0.933,0.41701 0.0742,-0.11966 0.19343,-0.0913 0.24472,0.058 0.0805,0.23437 0.4332,1.02521 0.45705,1.02521 0.013,0 0.21727,-0.19388 0.4539,-0.43095 z m 9.46713,0.15789 c -0.0238,-0.0238 -0.067,0.0193 -0.0963,0.0958 -0.0418,0.11022 -0.0333,0.11876 0.0432,0.0432 0.0531,-0.0526 0.0769,-0.11516 0.0531,-0.13901 z m -8.0375,-0.16284 c 0.10616,-0.0931 -0.14531,-0.007 -0.26856,0.0918 -0.14171,0.11381 -0.13946,0.11516 0.0432,0.0283 0.10617,-0.0504 0.20783,-0.10482 0.22538,-0.12011 z m -4.63528,-0.26811 c 0,-0.1696 -0.0769,-0.31715 -0.26361,-0.50384 -0.24292,-0.24292 -0.25687,-0.28161 -0.17634,-0.49484 0.11291,-0.30005 0.23527,-0.2987 0.19118,0.002 -0.0432,0.29331 0.0886,0.40982 0.37698,0.33379 0.12101,-0.0319 0.27216,-0.0495 0.33604,-0.0387 0.10302,0.0171 0.10302,0.0103 0,-0.0603 -0.0639,-0.0436 -0.21593,-0.0801 -0.33784,-0.0805 -0.19209,-9e-4 -0.21548,-0.0243 -0.17499,-0.17544 0.0256,-0.0954 0.0472,-0.20018 0.0477,-0.23167 0.003,-0.14935 0.1561,-0.0369 0.1579,0.11561 0.002,0.15385 0.0117,0.15835 0.0801,0.0414 0.0585,-0.10032 0.0301,-0.20829 -0.11516,-0.43861 -0.10616,-0.16779 -0.23797,-0.33109 -0.29285,-0.36258 -0.0549,-0.0319 -0.0724,-0.0279 -0.0387,0.009 0.0985,0.10841 -1.10484,0.43005 -1.41478,0.37832 -0.22403,-0.0378 -0.25372,-0.0279 -0.17095,0.0567 0.11157,0.11382 0.61045,0.12551 1.2344,0.0288 0.28925,-0.045 0.40621,-0.0378 0.40621,0.0252 0,0.0481 -0.0846,0.0882 -0.18759,0.0882 -0.22672,0 -0.37157,0.1336 -0.51193,0.47144 -0.0895,0.21728 -0.0886,0.25822 0.007,0.28926 0.0616,0.0198 0.26901,0.19973 0.4602,0.40036 0.19164,0.20019 0.35718,0.36888 0.36753,0.37518 0.0108,0.006 0.0193,-0.0972 0.0193,-0.22897 z m 4.43284,-0.1498 c 0.0337,-0.0279 -0.1318,-0.43546 -0.36798,-0.90511 -0.31714,-0.63114 -0.56051,-0.99282 -0.93119,-1.38509 -0.27621,-0.29196 -0.48089,-0.4611 -0.45435,-0.37608 0.0261,0.085 0.139,0.23662 0.25057,0.33694 l 0.20333,0.18219 -0.19119,-0.0441 c -0.18534,-0.0427 -0.18399,-0.0382 0.0387,0.14395 0.17499,0.14305 0.19794,0.18849 0.0958,0.19074 -0.17769,0.004 -0.87901,-0.71122 -1.50521,-1.534 -0.1507,-0.19793 -0.11876,-0.0544 0.0963,0.43186 0.14216,0.32209 0.36078,0.60415 0.78185,1.00767 0.41296,0.39587 0.57041,0.59785 0.53622,0.68647 -0.0315,0.0828 0.0589,0.24157 0.26406,0.4647 0.17185,0.18624 0.35314,0.43456 0.40307,0.55152 0.16914,0.39722 0.28341,0.48314 0.51283,0.38597 0.11291,-0.0477 0.23302,-0.10976 0.26721,-0.13765 z m 6.38475,-0.99508 c 0.0369,-0.25236 -0.0391,-0.39947 -0.17904,-0.34548 -0.0936,0.0355 -0.10076,0.0706 -0.0328,0.15295 0.049,0.0585 0.0697,0.17814 0.0468,0.26586 -0.0265,0.10167 -0.009,0.1489 0.049,0.13001 0.0499,-0.0166 0.10212,-0.10797 0.11606,-0.20334 z m -8.51974,-0.89385 c -0.51553,-0.4782 -0.6298,-0.64329 -0.90916,-1.31672 -0.1507,-0.36213 -0.15205,-0.39002 -0.0265,-0.48224 0.11337,-0.0823 0.1516,-0.0711 0.25012,0.0751 0.0639,0.0954 0.25822,0.33424 0.43186,0.53173 0.17364,0.19748 0.37698,0.4413 0.45255,0.54162 0.13271,0.17724 0.13316,0.17364 0.0171,-0.12686 -0.0661,-0.17004 -0.18848,-0.40396 -0.27261,-0.51913 -0.0837,-0.11516 -0.1525,-0.25866 -0.1525,-0.31894 0,-0.0603 -0.18488,-0.50564 -0.41071,-0.98968 -0.22628,-0.48404 -0.50878,-1.11203 -0.62799,-1.39634 -0.1651,-0.39272 -0.24742,-0.50653 -0.34324,-0.47594 -0.10167,0.0319 -0.10527,0.0247 -0.0189,-0.0369 0.0895,-0.0634 0.0684,-0.16105 -0.12326,-0.57041 l -0.23078,-0.49349 -0.72786,0.0522 c -0.40037,0.0284 -0.87541,0.036 -1.05625,0.0162 -0.18084,-0.0193 -0.32884,-0.0148 -0.32884,0.0108 0,0.0256 0.19028,0.50068 0.42331,1.0558 0.23302,0.55557 0.48089,1.24204 0.55107,1.52545 0.0702,0.28385 0.17499,0.6028 0.23347,0.70941 0.058,0.10617 0.22268,0.48899 0.36573,0.85067 0.30275,0.76475 0.81738,1.64016 0.98158,1.66985 0.099,0.018 0.38282,0.0729 1.69954,0.32885 0.43995,0.085 0.38237,-0.12146 -0.17769,-0.64104 z m 9.92553,0.65408 c 0.0855,-0.0553 0.0891,-0.0756 0.014,-0.0765 -0.0661,-4.5e-4 -0.0846,-0.0549 -0.0526,-0.1552 0.0391,-0.12371 0.022,-0.14395 -0.0859,-0.10257 -0.10301,0.0396 -0.12281,0.0216 -0.0846,-0.0778 0.0274,-0.072 0.0126,-0.12956 -0.0337,-0.12956 -0.0454,0 -0.0625,-0.0531 -0.0378,-0.11786 0.0364,-0.0954 0.0167,-0.10257 -0.10301,-0.0387 -0.13541,0.0724 -0.13856,0.0981 -0.0373,0.29196 0.0607,0.11696 0.11066,0.27351 0.11111,0.34818 4.5e-4,0.14935 0.13091,0.17364 0.30995,0.058 z m -1.74048,-0.23257 c 0.0261,-0.0423 0.0185,-0.0769 -0.0171,-0.0769 -0.0355,0 -0.17904,-0.10436 -0.31895,-0.23212 -0.25731,-0.23527 -0.39901,-0.29195 -0.39901,-0.15925 0,0.0405 0.0958,0.11966 0.21278,0.17679 0.15339,0.0742 0.21188,0.1597 0.21008,0.30725 -0.002,0.1696 0.0198,0.19209 0.1309,0.13271 0.0738,-0.0396 0.1552,-0.10617 0.18129,-0.14845 z m 1.29558,-0.75665 c -0.0958,-0.0153 -0.1741,-0.0621 -0.1741,-0.10392 0,-0.0423 -0.0351,-0.0549 -0.0778,-0.0283 -0.0427,0.0265 -0.12776,-0.002 -0.18849,-0.0625 -0.0855,-0.0855 -0.09,-0.13271 -0.0189,-0.20963 0.072,-0.0778 0.0684,-0.0859 -0.0171,-0.0369 -0.0828,0.0472 -0.0985,0.0234 -0.0666,-0.099 0.0319,-0.1228 0.0135,-0.15025 -0.0787,-0.11471 -0.0891,0.0342 -0.10751,0.0122 -0.0711,-0.0832 0.0274,-0.0711 0.0148,-0.12956 -0.0274,-0.12956 -0.0427,0 -0.0976,0.0522 -0.12191,0.11606 -0.0247,0.0639 -0.0931,0.11607 -0.1525,0.11607 -0.13225,0 -0.13855,-0.0927 -0.0148,-0.21638 0.067,-0.067 0.0679,-0.0931 0.005,-0.0931 -0.0486,0 -0.10977,0.0351 -0.13586,0.0774 -0.0738,0.11921 -0.21548,0.0918 -0.16824,-0.0324 0.0234,-0.0603 -0.0126,-0.13045 -0.0801,-0.15655 -0.16194,-0.0621 -0.18983,-0.0238 -0.20423,0.27531 -0.0104,0.22313 0.018,0.26137 0.24517,0.32795 0.33019,0.0972 0.70987,0.45165 0.70987,0.66308 0,0.10211 -0.0702,0.19119 -0.18579,0.23482 -0.10212,0.0391 -0.20648,0.10437 -0.23168,0.1453 -0.0252,0.0409 0.24113,-0.0688 0.59201,-0.24427 0.48494,-0.24202 0.59605,-0.32479 0.4638,-0.34548 z m -22.64825,-0.74181 c 0.13914,-0.10167 0.13729,-0.10886 -0.0432,-0.16509 -0.41553,-0.13001 -0.86219,-0.53848 -1.09719,-1.00407 -0.28764,-0.56997 -0.35183,-1.19616 -0.19231,-1.87724 0.0623,-0.26586 0.0965,-0.48359 0.0761,-0.48359 -0.0204,0 -0.16752,0.0733 -0.32692,0.16285 -0.21509,0.12101 -0.33246,0.26586 -0.45539,0.56276 -0.45336,1.09359 0.15078,2.45665 1.22976,2.77379 0.53546,0.15745 0.63065,0.16105 0.80915,0.0306 z m 0.53982,-0.6082 c 0.20923,-0.31085 0.27283,-0.48449 0.27283,-0.74495 0,-0.33199 -0.005,-0.33829 -0.22123,-0.29511 -0.12169,0.0243 -0.40478,0.0688 -0.62912,0.0985 -0.33114,0.0436 -0.40113,0.0337 -0.37203,-0.054 0.0228,-0.0688 0.21274,-0.12776 0.51994,-0.16195 0.26627,-0.0301 0.65049,-0.10976 0.85386,-0.17724 0.59601,-0.19793 1.68911,-1.08819 1.15482,-0.94064 -0.53784,0.1489 -0.55314,0.15025 -0.51742,0.0432 0.0195,-0.0585 0.17198,-0.13766 0.33887,-0.1759 0.16694,-0.0387 0.31427,-0.0787 0.32741,-0.09 0.0131,-0.0112 -0.0267,-0.14125 -0.0885,-0.2888 l -0.11233,-0.26901 -0.41022,0.0648 c -0.2256,0.0355 -0.42425,0.0508 -0.44148,0.0337 -0.0858,-0.0859 0.10027,-0.19658 0.33059,-0.19658 0.38683,0 0.50474,-0.0697 0.50357,-0.29825 -0.003,-0.48809 -0.0515,-0.53443 -0.62471,-0.59201 -0.32547,-0.0324 -0.5154,-0.0837 -0.4862,-0.13091 0.0296,-0.0481 0.23658,-0.0576 0.54126,-0.0247 0.27135,0.0288 0.4938,0.0238 0.49439,-0.0112 5.8e-4,-0.0355 0.0219,-0.14216 0.0474,-0.23708 0.0371,-0.13855 0.003,-0.18983 -0.17513,-0.25956 -0.12178,-0.0477 -0.37383,-0.0981 -0.56011,-0.11156 -0.65296,-0.0486 -0.58278,-0.33469 0.12596,-0.51328 0.18084,-0.0459 0.32879,-0.0909 0.32879,-0.10077 0,-0.009 -0.0548,-0.12731 -0.12173,-0.26137 -0.12164,-0.24382 -0.24651,-0.30185 -0.38502,-0.17859 -0.0404,0.036 -0.29313,0.14531 -0.56155,0.24292 -0.59894,0.21863 -0.83407,0.49709 -0.95059,1.12778 -0.11008,0.59561 -0.0317,1.17457 0.25894,1.91322 0.24391,0.6199 0.4472,0.84483 0.85566,0.94739 0.1144,0.0288 0.20801,0.0832 0.20801,0.12146 0,0.14485 -0.37648,0.0594 -0.66803,-0.1516 -0.24625,-0.17859 -0.35192,-0.34189 -0.55313,-0.85607 -0.1368,-0.34953 -0.24873,-0.70132 -0.24873,-0.78184 0,-0.13406 -0.0148,-0.13136 -0.17845,0.0324 -0.0982,0.0981 -0.2212,0.19254 -0.27347,0.21008 -0.25624,0.0855 -0.47446,1.36215 -0.32637,1.90962 0.12349,0.45615 0.48805,1.00812 0.79629,1.20561 0.42137,0.26946 0.55921,0.34773 0.61818,0.35268 0.0308,0.003 0.17873,-0.17769 0.3288,-0.40037 z m -0.18062,-2.71711 c -0.24472,-0.25236 -0.24535,-0.25506 -0.1323,-0.57581 0.10198,-0.2888 0.10104,-0.32884 -0.009,-0.39047 -0.0821,-0.0459 -0.11013,-0.1363 -0.0844,-0.27126 0.0213,-0.11111 -0.008,-0.38372 -0.0661,-0.60595 -0.0672,-0.25911 -0.078,-0.43051 -0.0303,-0.47864 0.0823,-0.0823 0.088,-0.0688 0.231,0.54792 0.0514,0.22178 0.0697,0.44175 0.0407,0.48899 -0.029,0.0468 0.0111,0.1318 0.0891,0.18894 0.12524,0.0918 0.13068,0.13495 0.0464,0.36797 -0.13406,0.37068 -0.12214,0.44896 0.10427,0.68513 0.10986,0.11471 0.16757,0.22852 0.1283,0.25282 -0.0393,0.0243 -0.1821,-0.0702 -0.31733,-0.20964 z m 3.65433,2.16289 c 0.51598,-0.10166 1.18176,-0.22807 1.47957,-0.2807 0.2978,-0.0522 0.80253,-0.1597 1.12193,-0.23888 0.31894,-0.0787 0.70626,-0.14395 0.86056,-0.14485 l 0.28071,-9e-4 0.0364,-0.4422 c 0.0202,-0.24337 0.0207,-0.50429 4.5e-4,-0.58031 -0.04,-0.15385 -0.29735,-0.18894 -0.34459,-0.0468 -0.054,0.16195 -0.21503,-0.0166 -0.21503,-0.23842 0,-0.11831 -0.0486,-0.37742 -0.10841,-0.57536 -0.0675,-0.22537 -0.0801,-0.37832 -0.0333,-0.40711 0.11156,-0.0693 0.13675,-0.018 0.23617,0.48044 0.0504,0.25057 0.0967,0.46514 0.10347,0.47684 0.006,0.0117 0.0954,-0.0126 0.19703,-0.0531 0.13451,-0.054 0.14845,-0.0756 0.0499,-0.0792 -0.0742,-0.003 -0.13541,-0.0225 -0.13541,-0.0445 0,-0.0324 0.11336,-0.25417 0.21368,-0.41881 0.0112,-0.018 0.0661,0.0297 0.12191,0.10616 0.0976,0.13361 0.11651,0.13271 0.462,-0.0198 0.20693,-0.0918 0.37922,-0.12821 0.40532,-0.0864 0.0247,0.04 -0.009,0.0936 -0.0756,0.11921 -0.19164,0.0733 0.0778,0.46829 0.35763,0.52408 0.12191,0.0243 0.3077,0.1372 0.41297,0.25056 0.10481,0.11337 0.19118,0.18669 0.19118,0.1624 0,-0.0769 -0.71346,-1.63926 -0.78364,-1.71574 -0.13675,-0.1489 -0.0585,-0.19703 0.3194,-0.19703 0.35853,0 0.38687,-0.0139 0.38687,-0.18894 0,-0.10392 0.0346,-0.21053 0.0774,-0.23662 0.045,-0.0279 0.0774,0.0508 0.0774,0.18894 v 0.23662 h 0.54117 c 0.2978,0 0.54162,-0.0301 0.54162,-0.067 0,-0.2897 -1.56458,-1.77602 -1.63791,-1.55604 -0.0148,0.0441 -0.27306,-0.0418 -0.57986,-0.19298 -0.48314,-0.23798 -0.77779,-0.3248 -1.17141,-0.34504 -0.0558,-0.003 -0.0796,-0.04 -0.0535,-0.0823 0.1534,-0.24832 -0.37382,0.1471 -0.64463,0.48359 -0.0954,0.11831 -0.0328,0.12461 0.82008,0.0819 0.50833,-0.0256 1.01711,-0.0229 1.13182,0.005 0.42107,0.10571 0.099,0.19119 -0.7472,0.19838 -1.09899,0.009 -1.32122,0.0634 -2.08102,0.50474 -0.86821,0.50473 -0.94064,0.39227 -0.10346,-0.1597 0.54972,-0.36258 0.71166,-0.51193 0.77015,-0.70942 0.0409,-0.13765 0.11021,-0.25146 0.15474,-0.25281 0.0445,-10e-4 0.1804,-0.09 0.30231,-0.19704 0.21502,-0.18938 0.21952,-0.20918 0.16554,-0.71301 -0.13226,-1.23574 -0.1543,-1.33111 -0.3113,-1.33111 -0.23887,0 -2.11745,0.53577 -3.54303,1.01081 -0.63069,0.21009 -1.19629,0.38193 -1.2572,0.38193 -0.13473,0 -0.14265,0.0918 -0.0186,0.21593 0.0507,0.0504 0.11561,0.37967 0.1444,0.731 0.0336,0.41027 0.12241,0.80479 0.24818,1.10304 0.17198,0.40802 0.20527,0.64239 0.27545,1.93391 0.0711,1.30233 0.25866,2.59205 0.37742,2.59205 0.0229,0 0.46425,-0.0837 0.98023,-0.18579 z m 2.36937,-2.28614 c 0,-0.45795 0.42331,-1.49936 0.73686,-1.81291 0.12101,-0.12101 1.50251,-0.5893 1.73823,-0.5893 0.0855,0 0.1552,0.0351 0.1552,0.0774 0,0.0427 -0.0567,0.0774 -0.12641,0.0774 -0.20153,0 -1.525,0.4701 -1.66085,0.59021 -0.19839,0.17499 -0.51599,0.81378 -0.57267,1.15072 -0.0769,0.4593 -0.11831,0.57986 -0.19838,0.57986 -0.0396,0 -0.072,-0.0328 -0.072,-0.0733 z m 1.07065,-0.87632 c 0.11696,-0.1435 1.32032,-0.63024 1.38914,-0.56186 0.0729,0.0733 -0.0733,0.15835 -0.64194,0.37293 -0.92084,0.34773 -0.86461,0.33379 -0.7472,0.18893 z m -2.30864,-0.27935 c 0,-0.0792 1.12238,-0.62755 1.28478,-0.62755 0.17139,0 0.12506,0.13901 -0.0661,0.19794 -0.0958,0.0292 -0.39047,0.1534 -0.65454,0.27576 -0.52722,0.24427 -0.56411,0.25461 -0.56411,0.15385 z m 7.84182,2.95912 c 0.0864,-0.63024 0.0535,-1.11878 -0.11291,-1.67705 -0.19389,-0.65138 -0.70987,-1.25778 -1.14038,-1.34056 l -0.25776,-0.0495 0.19928,0.21503 c 0.34639,0.37383 0.59875,1.00812 0.59516,1.49666 -0.002,0.34369 0.0589,0.57446 0.28475,1.07514 0.15835,0.35089 0.30905,0.63789 0.33514,0.63834 0.0261,4.5e-4 0.0697,-0.16059 0.0967,-0.35808 z m 11.44559,0.17949 0.19613,-0.10166 -0.21098,-0.38193 c -0.34414,-0.62214 -0.42646,-0.72966 -0.56097,-0.72966 -0.0706,0 -0.14665,0.0486 -0.16914,0.10797 -0.0333,0.0864 -0.11291,0.0927 -0.40262,0.031 -0.29105,-0.0625 -0.42826,-0.0513 -0.71211,0.0571 -0.29556,0.11291 -0.33019,0.1462 -0.21638,0.20963 0.0742,0.0414 0.26586,0.0544 0.42601,0.0288 0.22717,-0.036 0.33739,-0.0104 0.50023,0.11741 0.148,0.11696 0.18444,0.18804 0.12551,0.24697 -0.1543,0.1543 -0.0841,0.20333 0.26946,0.18804 0.33874,-0.0148 0.54792,0.10886 0.45031,0.26631 -0.0571,0.0931 0.0837,0.0747 0.30455,-0.04 z m -1.76477,-1.368 c 0.0265,-0.0423 -0.006,-0.0774 -0.0729,-0.0774 -0.0661,0 -0.12056,0.0351 -0.12056,0.0774 0,0.0427 0.0328,0.0774 0.0729,0.0774 0.04,0 0.0945,-0.0346 0.12056,-0.0774 z m -10.78071,-0.95098 c -0.43366,-0.89611 -0.57221,-0.9123 -0.18534,-0.022 0.25012,0.57491 0.37563,0.79039 0.39272,0.67388 0.0135,-0.094 -0.0796,-0.38732 -0.20738,-0.65183 z m -9.41225,-0.18984 c -0.0422,-0.71392 -0.21278,-1.64421 -0.3014,-1.64421 -0.0897,0 0.0468,1.85159 0.15794,2.14264 0.07,0.18309 0.14193,0.3329 0.15992,0.3329 0.0182,0 0.0106,-0.37428 -0.0165,-0.83133 z m 8.78201,-0.77645 c 0,-0.0607 -0.40577,-0.32614 -0.49889,-0.32614 -0.0274,0 0.0126,0.0859 0.0891,0.19074 0.13001,0.17859 0.40982,0.27081 0.40982,0.1354 z m -9.2836,-0.90645 c 0,-0.21863 -0.15493,-0.25057 -0.51715,-0.10706 l -0.21782,0.0864 0.30946,0.099 c 0.4292,0.1372 0.42551,0.1381 0.42551,-0.0783 z m 19.67428,0.0355 c 0.3059,-0.0445 0.63339,-0.11291 0.72786,-0.15205 0.27666,-0.11516 1.31492,-1.81875 1.60327,-2.62984 0.0679,-0.19163 0.14531,-0.63204 0.17185,-0.97887 0.0472,-0.6208 0.0445,-0.63429 -0.17589,-0.85112 -0.12281,-0.12101 -0.25867,-0.28656 -0.30095,-0.36798 -0.0427,-0.0814 -0.14441,-0.15745 -0.22583,-0.16915 -0.0814,-0.0117 -0.23842,-0.0868 -0.34819,-0.16689 -0.10976,-0.0801 -0.34773,-0.22808 -0.52857,-0.32839 -0.18084,-0.10077 -0.32884,-0.20963 -0.32884,-0.24157 0,-0.0319 -0.0607,-0.0576 -0.13541,-0.0571 -0.0742,4.5e-4 -0.27216,-0.0342 -0.43995,-0.0774 -0.1678,-0.0432 -0.39857,-0.0598 -0.51284,-0.0369 -0.11426,0.0229 -0.23212,0.003 -0.26091,-0.0441 -0.0369,-0.0594 -0.0886,-0.0499 -0.16959,0.031 -0.0643,0.0639 -0.22763,0.12146 -0.36259,0.1273 -0.66353,0.0283 -0.8961,0.0796 -1.33426,0.29556 -0.26136,0.12865 -0.56861,0.30725 -0.68332,0.39767 -0.19659,0.15429 -0.20154,0.17409 -0.0886,0.34638 0.27576,0.42016 0.50608,0.88396 0.50473,1.01487 -0.002,0.13405 -0.52093,0.56501 -0.68107,0.56501 -0.0787,0 -0.4791,-0.6082 -0.58301,-0.88576 -0.0495,-0.1318 -0.085,-0.10751 -0.28476,0.19344 -0.22942,0.34594 -0.29555,0.61495 -0.1516,0.61495 0.0688,0 0.39812,0.32884 1.55109,1.54749 0.18129,0.19119 0.27216,0.27576 0.20198,0.18759 -0.19028,-0.23932 -0.67073,-1.25509 -0.66578,-1.40804 0.004,-0.12866 0.33334,-0.43951 0.54882,-0.51913 0.20738,-0.076 0.35089,0.12686 1.16512,1.64601 0.21773,0.40667 0.56591,0.99597 0.7733,1.30907 0.20738,0.31265 0.35628,0.6028 0.33064,0.64374 -0.058,0.0936 -10e-4,0.0931 0.68332,-0.006 z m -1.9591,-0.55152 c -0.52858,-0.44175 -0.77285,-0.45885 -0.77285,-0.0544 0,0.13451 0.0324,0.21143 0.0774,0.18354 0.0441,-0.027 0.0814,0.0463 0.0864,0.16959 0.005,0.11966 0.0243,0.1606 0.0427,0.0918 0.0342,-0.12955 0.41252,-0.18264 0.41252,-0.058 0,0.0369 0.0675,0.0675 0.15025,0.0675 0.0828,0 0.17274,0.0364 0.20018,0.081 0.0346,0.0558 0.0837,0.0535 0.157,-0.007 0.0868,-0.0724 0.0207,-0.16105 -0.35358,-0.4737 z m -17.75072,-0.56861 c -0.0279,-0.22358 -0.10184,-0.47145 -0.16424,-0.55062 -0.10193,-0.12956 -0.10967,-0.0913 -0.0761,0.37383 0.0377,0.52317 0.20779,0.98157 0.2642,0.71211 0.0148,-0.0706 0.004,-0.31174 -0.0238,-0.53532 z m -1.16358,0.19478 c -0.0263,-0.0423 -0.0632,-0.0774 -0.0819,-0.0774 -0.0188,0 -0.0341,0.0351 -0.0341,0.0774 0,0.0427 0.0369,0.0774 0.082,0.0774 0.045,0 0.0604,-0.0346 0.0341,-0.0774 z m 0.36564,-0.0432 c 0.0892,-0.0891 -1.5766,-1.50386 -1.77085,-1.50386 -0.0569,0 -0.10337,0.0216 -0.10337,0.0481 0,0.0877 1.66958,1.48542 1.78578,1.49532 0.0248,0.002 0.0646,-0.0158 0.0884,-0.0396 z m 0.29002,-0.30995 c -0.18593,-0.48899 -0.071,-0.72516 0.37832,-0.77779 0.28858,-0.0337 0.29515,-0.0931 0.0572,-0.51913 -0.44557,-0.79714 -1.36197,-3.20115 -1.36197,-3.57273 0,-0.0585 -0.0279,-0.12326 -0.062,-0.1444 -0.14216,-0.0877 0.32061,2.7378 0.55588,3.39458 0.22839,0.63744 0.23104,0.83628 0.0144,1.0702 -0.10931,0.11786 -0.19789,0.23842 -0.19681,0.26811 0.002,0.0616 0.54887,0.47235 0.63434,0.47685 0.0309,0.002 0.0222,-0.0864 -0.0193,-0.19569 z m 17.60181,0.12101 c -0.0261,-0.0423 -0.063,-0.0769 -0.0819,-0.0769 -0.0184,0 -0.0342,0.0346 -0.0342,0.0769 0,0.0427 0.0369,0.0774 0.0823,0.0774 0.045,0 0.0603,-0.0346 0.0337,-0.0774 z m -11.13429,-0.27216 c -0.0823,-0.0621 -0.16825,-0.094 -0.19119,-0.0706 -0.0486,0.0486 0.148,0.18669 0.26272,0.18444 0.0427,-4.5e-4 0.0103,-0.0517 -0.0715,-0.11381 z m -0.27666,-0.10616 c 0,-0.0378 -0.0522,-0.0891 -0.11606,-0.11382 -0.11786,-0.045 -0.15835,0.0373 -0.0643,0.13136 0.0738,0.0738 0.18039,0.0634 0.18039,-0.0175 z m -4.17463,-1.03332 c 0.40532,-0.14575 1.23035,-0.39676 1.8327,-0.55781 1.0711,-0.28656 1.09269,-0.2969 0.99192,-0.4575 -0.0954,-0.15115 -0.54881,-1.99914 -0.6001,-2.44675 -0.0355,-0.30814 -0.17679,-0.14845 -0.18039,0.20424 -0.002,0.21413 -0.0729,0.42466 -0.21278,0.63654 -0.11516,0.17409 -0.20963,0.35133 -0.20963,0.39407 0,0.23842 -0.74181,0.13945 -1.16242,-0.1552 -0.19433,-0.13631 -0.19658,-0.13541 -0.4449,0.16015 -0.13721,0.16329 -0.24922,0.36708 -0.24922,0.453 0,0.19298 -0.34908,0.58301 -0.4602,0.51463 -0.045,-0.0279 -0.0814,-0.094 -0.0814,-0.148 0,-0.0535 -0.0909,-0.17635 -0.20162,-0.27261 l -0.20163,-0.17545 -0.22308,0.21368 c -0.12267,0.11786 -0.23262,0.19884 -0.24427,0.18084 -0.0116,-0.018 -0.13738,-0.50293 -0.27936,-1.07739 -0.41634,-1.68425 -0.38907,-1.61722 -0.72817,-1.79041 -0.16667,-0.085 -0.31445,-0.14306 -0.32835,-0.12911 -0.045,0.045 0.41949,1.62307 0.74707,2.53851 0.31687,0.88531 0.53514,1.3707 0.89237,1.98565 0.21404,0.36798 0.10275,0.37383 1.34348,-0.0711 z m 13.37051,-0.33513 c 0.0423,0.0261 0.10031,0.01 0.1291,-0.0364 0.0283,-0.0459 0.10032,-0.0652 0.1597,-0.0423 0.20828,0.0801 0.10572,-0.0972 -0.19299,-0.3338 -0.31714,-0.25146 -0.43275,-0.2879 -0.51058,-0.16239 -0.0279,0.0454 0.006,0.0562 0.0837,0.0265 0.0913,-0.0351 0.11877,-0.0175 0.0918,0.0589 -0.0211,0.0598 -0.008,0.17004 0.0306,0.24427 0.0436,0.0846 0.0382,0.20108 -0.0144,0.3095 -0.0787,0.16239 -0.0769,0.16464 0.0306,0.031 0.0634,-0.0787 0.1498,-0.12191 0.19254,-0.0954 z m -14.62559,-1.62712 c 0.0134,-0.008 -0.10181,-0.26451 -0.25592,-0.57041 -0.33065,-0.65679 -0.33627,-0.90151 -0.0198,-0.86822 0.18268,0.0189 0.21273,-0.006 0.21273,-0.17679 0,-0.25641 0.16735,-0.31714 0.41922,-0.15205 0.28611,0.18759 0.24697,0.0801 -0.0468,-0.12956 -0.14755,-0.10481 -0.37301,-0.17994 -0.56096,-0.18668 -0.17288,-0.006 -0.38926,-0.0351 -0.48085,-0.0643 -0.18664,-0.0603 -0.18655,-0.0594 0.13095,1.15117 0.0781,0.2978 0.18107,0.69187 0.22871,0.87586 0.077,0.29735 0.10126,0.32344 0.21755,0.23482 0.072,-0.0549 0.14179,-0.10616 0.1552,-0.11381 z m 1.51636,-2.02208 c 0.24967,-0.918602 0.24967,-0.856522 -0.002,-0.62755 -0.25327,0.23078 -0.58346,0.40667 -0.9105,0.48539 l -0.22268,0.0535 0.17274,0.18354 c 0.1723,0.18354 0.58751,0.42241 0.74001,0.42556 0.0441,9e-4 0.1444,-0.23302 0.22223,-0.52048 z m 1.85114,-0.0792 c -0.0517,-0.20649 -0.40487,-0.856522 -0.72921,-1.342362 -0.10302,-0.1543 -0.22448,-0.343687 -0.26991,-0.420612 -0.0778,-0.131807 -0.099,-0.127758 -0.35539,0.06793 -0.1498,0.114262 -0.34773,0.207831 -0.4395,0.207831 -0.0918,0 -0.16645,0.02654 -0.16645,0.05893 0,0.03239 -0.0778,0.09357 -0.17229,0.135405 -0.0949,0.04184 -0.26946,0.221777 -0.38822,0.399469 -0.1669,0.249668 -0.3032,0.351779 -0.6019,0.451199 -0.47662,0.15835 -0.43362,0.30635 0.067,0.23168 0.60326,-0.0909 1.11744,-0.417916 1.42828,-0.909155 0.18129,-0.286555 0.29106,-0.268561 0.24068,0.03869 -0.0522,0.314446 -0.1696,0.842575 -0.23033,1.034205 -0.0252,0.0801 0.0423,0.008 0.14935,-0.15879 0.3095,-0.482245 0.81873,-0.821433 0.95954,-0.638793 0.0391,0.05038 0.13585,0.322993 0.21503,0.605503 0.0976,0.34863 0.17589,0.50158 0.24337,0.47549 0.0648,-0.0247 0.0823,-0.10706 0.0499,-0.23662 z m -5.16295,0.004 c -0.0257,-0.0256 -0.0439,0.0198 -0.0406,0.10166 0.004,0.09 0.022,0.10842 0.0467,0.0468 0.0224,-0.0562 0.0196,-0.12281 -0.006,-0.14845 z m 1.21334,-0.41432 c 0.10135,-0.0463 0.24724,-0.194334 0.32416,-0.32884 0.077,-0.134505 0.22389,-0.358082 0.3265,-0.496636 0.1597,-0.215479 0.20923,-0.239771 0.3436,-0.167795 0.0864,0.04633 0.17274,0.06838 0.19209,0.04903 0.072,-0.07198 -0.17409,-0.48809 -0.45431,-0.769697 -0.15956,-0.160147 -0.29011,-0.340538 -0.29011,-0.401268 0,-0.06028 -0.0914,-0.218628 -0.20306,-0.351334 -0.11165,-0.132707 -0.18152,-0.262714 -0.1552,-0.288805 0.0788,-0.07917 0.37104,0.227625 0.51045,0.535323 0.0717,0.158348 0.22528,0.362581 0.34121,0.453901 0.11606,0.09132 0.26541,0.300951 0.33154,0.466497 0.12191,0.304999 0.20783,0.367079 0.30005,0.217728 0.0279,-0.04543 0.10437,-0.06208 0.16915,-0.03734 0.10211,0.03914 0.10121,0.01979 -0.007,-0.145302 -0.11381,-0.174093 -0.10437,-0.422411 0.0171,-0.436806 0.0274,-0.0031 0.20604,-0.02339 0.39677,-0.04454 0.19074,-0.02114 0.39002,-0.07377 0.44266,-0.117861 0.17814,-0.147551 0.19028,-0.555567 0.0342,-1.147122 -0.0841,-0.318946 -0.1741,-0.70177 -0.19974,-0.850671 -0.0256,-0.148901 -0.20153,-0.582558 -0.39047,-0.963583 -0.34189,-0.689173 -0.39407,-0.949187 -0.11606,-0.582558 l 0.14575,0.192087 -0.0832,-0.328842 c -0.0729,-0.288355 -0.10932,-0.328842 -0.29915,-0.328842 -0.1597,0 -0.27981,-0.08052 -0.4611,-0.309048 -0.13496,-0.170494 -0.27486,-0.309498 -0.31175,-0.309498 -0.0364,0 -0.12807,0.104365 -0.20347,0.232123 -0.14049,0.237522 -0.31022,0.323444 -0.23082,0.116962 0.0382,-0.09987 0.0112,-0.101667 -0.20189,-0.01484 -0.19479,0.07962 -0.30801,0.226275 -0.54306,0.704018 -0.33577,0.682426 -0.4768,0.738207 -0.21103,0.08322 0.0962,-0.237072 0.153,-0.453001 0.12614,-0.479543 -0.065,-0.06523 -0.0572,-0.08277 -0.31795,0.707618 -0.25664,0.777794 -0.47973,1.104386 -0.69727,1.020714 -0.13136,-0.05038 -0.12974,-0.06433 0.0265,-0.230774 0.0915,-0.09717 0.16528,-0.209631 0.16397,-0.249218 -10e-4,-0.04004 -0.0378,-0.01125 -0.0812,0.06298 -0.0956,0.164196 -0.30324,0.179491 -0.30324,0.02249 0,-0.06208 -0.0741,-0.18219 -0.16469,-0.266763 -0.0923,-0.08592 -0.14503,-0.204232 -0.11998,-0.269461 0.0281,-0.07333 -0.0125,-0.134506 -0.10936,-0.165545 -0.10913,-0.03464 -0.14031,-0.09177 -0.10702,-0.196586 0.0356,-0.112463 0.0176,-0.136755 -0.0741,-0.101666 -0.079,0.03014 -0.1211,0.0031 -0.1211,-0.07782 0,-0.07288 -0.0642,-0.124609 -0.15475,-0.124609 -0.0859,0 -0.15471,-0.05128 -0.15471,-0.116062 0,-0.06343 -0.0386,-0.115612 -0.0857,-0.115612 -0.0538,0 -0.0668,-0.07558 -0.0349,-0.202433 0.17774,-0.708517 0.13037,-0.806135 -0.22043,-0.45525 -0.19775,0.197485 -0.38939,0.248318 -0.46667,0.123259 -0.0604,-0.09762 -0.33316,-0.01484 -0.38355,0.116512 -0.0284,0.07378 0.016,0.108414 0.1399,0.108414 0.36324,0 0.45917,0.379675 0.0992,0.392721 -0.13985,0.0049 -0.1289,0.02024 0.0626,0.08772 0.12765,0.04498 0.27154,0.112913 0.31976,0.150701 0.0558,0.04363 0.10414,0.02609 0.13297,-0.04903 0.0771,-0.201084 0.20945,-0.134056 0.64689,0.326592 0.55327,0.583009 0.60753,0.686924 0.41985,0.804336 -0.11755,0.07333 -0.13469,0.136305 -0.0846,0.310847 0.0684,0.238422 0.10382,0.216829 -0.58391,0.359882 -0.38305,0.08007 -0.84338,-0.02519 -0.78432,-0.179041 0.0245,-0.06388 -0.0223,-0.128658 -0.11489,-0.157898 -0.0956,-0.03014 -0.13967,-0.09312 -0.1134,-0.161497 0.0236,-0.06163 -0.006,-0.130907 -0.0665,-0.153849 -0.0602,-0.02339 -0.10547,-0.100317 -0.10059,-0.171394 0.005,-0.07108 -0.0167,-0.229424 -0.048,-0.351784 -0.0514,-0.201534 -0.0408,-0.218628 0.11075,-0.179041 0.1651,0.04319 0.16488,0.04094 -0.0153,-0.1516 l -0.18292,-0.195236 -0.0455,0.645088 c -0.0489,0.692772 0.0108,0.993273 0.19734,0.993273 0.16994,0 0.4503,0.494387 0.65736,1.159718 0.31004,0.995973 1.25019,2.175035 2.09834,2.631186 0.44882,0.24157 0.72719,0.28206 1.02152,0.148 z m 0.55012,-1.060299 c -0.0901,-0.05893 -0.41764,-0.975279 -0.41764,-1.168716 0,-0.185789 0.11611,-0.0054 0.26856,0.417463 0.0767,0.21278 0.19303,0.448503 0.25853,0.524078 0.12686,0.146202 0.0407,0.325243 -0.10945,0.227175 z m -1.94696,-0.263613 c 0.017,-0.05083 0.12933,-0.118761 0.24981,-0.150701 0.24849,-0.06658 0.6606,-0.430508 0.6606,-0.583458 0,-0.05578 0.0522,-0.101666 0.11602,-0.101666 0.0638,0 0.11606,0.03374 0.11606,0.07467 0,0.124159 -0.47248,0.622145 -0.70388,0.741806 -0.26299,0.135855 -0.48067,0.145752 -0.43861,0.01934 z m -0.0566,-0.603702 c 0.0263,-0.04229 0.0913,-0.07737 0.14449,-0.07737 0.0532,0 0.16379,-0.04903 0.24575,-0.108865 0.13203,-0.09672 0.10941,-0.100766 -0.19793,-0.03644 -0.61747,0.129108 -1.25262,0.1543 -1.21735,0.04859 0.0322,-0.09627 1.599,-0.721113 1.92483,-0.767448 0.25642,-0.03644 0.27351,0.186689 0.0328,0.427359 -0.10869,0.108865 -0.19758,0.226726 -0.19758,0.261814 0,0.09987 -0.42996,0.329742 -0.61607,0.329742 -0.0917,0 -0.14517,-0.03464 -0.11889,-0.07738 z m 2.48867,-1.134527 c -0.11921,-0.118761 -0.0337,-0.163296 0.24202,-0.126408 0.23797,0.03194 0.33919,0.0014 0.53082,-0.160147 0.305,-0.256416 0.40262,-0.165546 0.12911,0.12011 -0.1633,0.170494 -0.27891,0.218178 -0.52992,0.218178 -0.17635,0 -0.34369,-0.02339 -0.37203,-0.05173 z m -0.26447,-0.388672 c 0,-0.223576 0.42461,-0.815132 0.83038,-1.156569 0.26901,-0.226276 0.41207,-0.190738 0.19524,0.04903 -0.09,0.09942 -0.10617,0.155199 -0.0445,0.155199 0.0526,0 -0.018,0.148001 -0.15745,0.328841 -0.43275,0.562765 -0.4305,0.559166 -0.3014,0.48674 0.0639,-0.03554 0.19434,-0.135405 0.28971,-0.221327 0.0958,-0.08592 0.20018,-0.130457 0.23212,-0.09807 0.0922,0.09222 -0.42736,0.509683 -0.63474,0.509683 -0.10302,0 -0.20918,0.03464 -0.23527,0.07737 -0.0885,0.143053 -0.17405,0.07872 -0.17405,-0.130907 z m 2.7553,2.354976 c -0.13136,-0.350885 -0.30815,-0.840324 -0.39362,-1.087293 -0.085,-0.247418 -0.1723,-0.431858 -0.19389,-0.410265 -0.0211,0.02159 -0.005,0.136755 0.0369,0.255966 0.0414,0.119661 0.0481,0.291054 0.0148,0.381025 -0.0459,0.124159 0.0337,0.324343 0.3302,0.831326 0.21458,0.36708 0.40261,0.667581 0.41746,0.667581 0.0148,0 -0.0805,-0.287456 -0.21188,-0.63834 z m -6.12699,-0.329292 c -0.21894,-0.311298 -0.42614,-0.54882 -0.46042,-0.527676 -0.0342,0.02114 -0.11951,-0.0081 -0.18944,-0.06478 -0.11203,-0.09087 -0.1195,-0.08502 -0.0628,0.05128 0.0354,0.08502 0.068,0.259115 0.0725,0.386873 0.007,0.193436 0.0438,0.236172 0.22092,0.256415 0.26245,0.03014 0.28993,0.246519 0.0314,0.246519 -0.27096,0 -0.45525,-0.257765 -0.49732,-0.695471 -0.0304,-0.316696 -0.0642,-0.387772 -0.18453,-0.387772 -0.23964,0 -0.25016,0.207381 -0.0331,0.650935 0.28799,0.588857 0.53028,0.728311 1.17272,0.676578 l 0.32812,-0.02654 -0.39803,-0.566364 z m -0.67068,-1.314918 c 0,-0.12011 -0.0438,-0.193436 -0.11604,-0.193436 -0.13726,0 -0.14292,0.03734 -0.036,0.237522 0.10766,0.201084 0.15201,0.188038 0.15201,-0.04409 z m 2.68638,-3.1908 c 0.0617,-0.327942 0.0562,-0.406216 -0.0285,-0.406216 -0.14147,0 -0.13203,-0.118761 0.029,-0.36483 0.13351,-0.203783 0.13333,-0.204233 -0.058,-0.15295 -0.10558,0.02834 -0.25318,0.05173 -0.32799,0.05218 -0.11615,9e-4 -0.12285,0.02654 -0.0459,0.175442 0.0495,0.09582 0.11435,0.226276 0.144,0.290155 0.0297,0.06388 0.0378,0.324793 0.0182,0.580309 -0.0315,0.409815 -0.0223,0.450302 0.0785,0.347735 0.0628,-0.06388 0.14859,-0.298701 0.19065,-0.521828 z m -3.21338,0.0049 c -0.0558,-0.02249 -0.12257,-0.01979 -0.14828,0.0063 -0.0257,0.02564 0.02,0.04364 0.10154,0.04049 0.0901,-0.0036 0.10845,-0.02204 0.0467,-0.04678 z m 2.84671,-1.363591 c 6.7e-4,-0.03441 -0.0336,-0.04107 -0.0762,-0.01476 -0.0426,0.02627 -0.0768,0.10666 -0.0762,0.178636 10e-4,0.112868 0.0116,0.114667 0.0762,0.01476 0.0412,-0.06383 0.0755,-0.144222 0.0762,-0.178636 z m -8.93541,23.153438 c -0.0774,-0.12551 -0.0562,-0.13226 0.6082,-0.19344 0.56771,-0.0526 0.6055,-0.0468 0.5794,0.0886 -0.0234,0.12326 -0.11111,0.1489 -0.5812,0.1678 -0.34504,0.0144 -0.57312,-0.009 -0.6064,-0.063 z m 0.0117,-0.29061 c -0.0207,-0.0337 -0.018,-0.27665 0.006,-0.54027 l 0.0436,-0.47909 0.41791,-0.15655 c 0.22942,-0.0859 0.4512,-0.1561 0.49214,-0.1561 0.0409,0 0.0742,-0.0387 0.0742,-0.0859 0,-0.0508 -0.0549,-0.0634 -0.1354,-0.031 -0.0742,0.0301 -0.27441,0.0742 -0.44446,0.0981 -0.26946,0.0382 -0.29735,0.0288 -0.21323,-0.0729 0.0526,-0.0643 0.23572,-0.17949 0.40577,-0.25641 0.17049,-0.0769 0.30995,-0.16735 0.30995,-0.20064 0,-0.1417 -0.15025,-0.1345 -0.34099,0.0157 -0.3014,0.23662 -0.40217,0.14935 -0.4593,-0.39992 -0.0841,-0.80164 -0.0661,-0.99012 0.10437,-1.09674 0.085,-0.0531 0.15474,-0.1579 0.15474,-0.23257 0,-0.65139 0.65274,1.23259 0.79759,2.30099 0.005,0.0423 -0.0175,0.28746 -0.0513,0.54387 l -0.0616,0.46695 -0.4422,0.17139 c -0.47595,0.18444 -0.59921,0.20558 -0.65769,0.11111 z m 0.0261,-4.00638 c -0.0414,-0.10886 -0.0751,-0.23077 -0.0751,-0.27081 0,-0.0396 -0.0351,-0.072 -0.0774,-0.072 -0.0427,0 -0.0774,0.0675 -0.0774,0.1498 0,0.0828 -0.0315,0.17004 -0.0702,0.19388 -0.0409,0.0252 -0.0526,-0.27171 -0.0279,-0.71841 0.0495,-0.90285 -0.0382,-1.33966 -0.44445,-2.21732 -0.30905,-0.66803 -1.02926,-1.78007 -1.41344,-2.18403 -0.13135,-0.13766 -0.21143,-0.27711 -0.17814,-0.3095 0.0787,-0.0769 0.58436,0.49304 0.97123,1.09359 0.1669,0.25956 0.33424,0.50743 0.37113,0.55062 0.17589,0.20423 0.70627,1.43952 0.78769,1.83449 0.0504,0.24382 0.12281,0.4629 0.16105,0.48629 0.16419,0.10167 0.47369,1.46472 0.35853,1.57988 -0.12911,0.12866 -0.20378,0.0981 -0.28566,-0.11651 z m 24.73872,-4.96052 c -0.0742,-0.0198 -0.13541,-0.0702 -0.13541,-0.11246 0,-0.10976 0.40757,-0.0468 0.44535,0.0688 0.0319,0.0972 -0.0571,0.10931 -0.30994,0.0436 z m -27.35956,-1.0567 c -0.46874,-0.75845 -0.75395,-1.82685 -0.68512,-2.56506 0.0706,-0.758 0.57536,-2.10621 0.81873,-2.18718 0.1417,-0.0472 0.10797,0.11336 -0.0904,0.42871 -0.0999,0.1588 -0.26136,0.54702 -0.35853,0.86237 -0.15385,0.49843 -0.17184,0.68422 -0.13676,1.42243 0.0387,0.81468 0.054,0.87586 0.37788,1.5088 0.41431,0.80974 0.40622,0.78904 0.31175,0.78904 -0.0427,0 -0.1498,-0.11696 -0.23753,-0.25911 z m 0.61135,-0.1705 c 0,-0.14845 0.23033,-0.60415 0.27981,-0.55421 0.0526,0.0522 -0.1516,0.67432 -0.22133,0.67432 -0.0319,0 -0.0585,-0.054 -0.0585,-0.12011 z m 27.66051,-0.0292 c -0.0243,-0.0396 -0.009,-0.094 0.0342,-0.12101 0.13541,-0.0837 0.0859,-0.33603 -0.076,-0.38732 -0.085,-0.027 -0.15475,-0.0814 -0.15475,-0.12146 0,-0.14755 0.21548,-0.0639 0.50923,0.19794 0.29286,0.26091 0.29825,0.27396 0.15295,0.38687 -0.16869,0.13136 -0.39812,0.1534 -0.46559,0.045 z m -26.52103,-0.22357 c -0.25552,-0.10437 -0.59695,-0.72066 -0.5974,-1.07785 0,-0.18084 0.0346,-0.32884 0.0769,-0.32884 0.0427,0 0.0774,0.13046 0.0778,0.29016 4.5e-4,0.56276 0.49079,1.08549 0.93525,0.99642 0.17004,-0.0337 0.22852,-0.0202 0.20558,0.0486 -0.0355,0.10931 -0.49169,0.1561 -0.69817,0.0715 z m 0.10122,-0.82323 c -0.0576,-0.0688 -0.0738,-0.20423 -0.0423,-0.34819 0.0472,-0.21458 0.0342,-0.23527 -0.14755,-0.23527 -0.34099,0 -0.21953,-0.13765 0.20153,-0.22762 0.32794,-0.0706 0.42106,-0.0661 0.51058,0.0234 0.11742,0.11696 0.0648,0.43635 -0.0711,0.43635 -0.0427,0 -0.0562,-0.0666 -0.0306,-0.148 0.0823,-0.25866 -0.10167,-0.25417 -0.23617,0.005 -0.0994,0.19254 -0.10887,0.28071 -0.0418,0.38822 0.0477,0.0765 0.0868,0.157 0.0868,0.17904 0,0.0805 -0.13855,0.036 -0.22942,-0.0733 z m 1.08054,-0.55692 c 0,-0.0954 0.40217,-0.57806 0.44535,-0.53487 0.0688,0.0684 -0.23797,0.58571 -0.34728,0.58571 -0.054,0 -0.0981,-0.0229 -0.0981,-0.0508 z m 2.68818,-0.13225 c -0.1982,-0.15295 -0.16797,-0.23663 0.13797,-0.38283 0.3431,-0.16329 0.47536,-0.17049 0.34936,-0.0189 -0.0509,0.0612 -0.0813,0.19209 -0.0675,0.29016 0.0298,0.21323 -0.20666,0.27575 -0.41985,0.11156 z m 0.25142,-0.20829 c 0,-0.045 -0.0348,-0.0603 -0.0774,-0.0342 -0.0426,0.0265 -0.0774,0.0634 -0.0774,0.0819 0,0.0189 0.0348,0.0342 0.0774,0.0342 0.0426,0 0.0774,-0.0369 0.0774,-0.0819 z m -3.44253,0.004 c -0.1543,-0.17004 -0.63789,-0.21188 -0.89026,-0.0769 -0.0909,0.0486 -0.16195,0.0499 -0.19029,0.004 -0.0751,-0.12146 0.23347,-0.23617 0.63654,-0.23617 0.29555,0 0.41522,0.0396 0.54657,0.17904 0.0922,0.0985 0.16825,0.20334 0.16825,0.23213 0,0.10166 -0.13181,0.0522 -0.27081,-0.10167 z m 0.57626,-0.29015 c 0.15834,-0.27081 0.46244,-0.592 0.51283,-0.54162 0.0283,0.0283 -0.0396,0.16015 -0.15115,0.29285 -0.11157,0.13271 -0.20334,0.27351 -0.20334,0.3131 0,0.0391 -0.0531,0.0711 -0.11876,0.0711 -0.0913,0 -0.10031,-0.0306 -0.0396,-0.13541 z m -0.22808,-0.6217 c 0,-0.0873 0.0567,-0.11336 0.80614,-0.37247 0.61359,-0.21233 0.58615,-0.20693 0.58615,-0.11786 0,0.0369 -0.26271,0.16059 -0.58435,0.27441 -0.3212,0.11426 -0.6343,0.22672 -0.69593,0.25056 -0.0616,0.0234 -0.11201,0.008 -0.11201,-0.0346 z m 0,-0.31849 c 0,-0.0387 -0.0634,-0.0535 -0.1408,-0.0333 -0.0774,0.0202 -0.18444,-0.0157 -0.23797,-0.0801 -0.0837,-0.10122 0.005,-0.1489 0.65408,-0.35178 0.41296,-0.12911 0.7769,-0.21863 0.80883,-0.19884 0.0315,0.0193 0.0738,0.11966 0.0936,0.22223 0.0328,0.17274 -0.007,0.19973 -0.51328,0.34953 -0.61944,0.18399 -0.66443,0.18984 -0.66443,0.0922 z m -0.17769,-1.25059 c 0.0958,-0.0922 1.3572,-0.12236 1.38734,-0.0333 0.0166,0.0477 -0.25641,0.0805 -0.71121,0.085 -0.40577,0.004 -0.71032,-0.0193 -0.67613,-0.0517 z" />
  </g>
</svg>
