<?xml version="1.0" encoding="UTF-8" standalone="no"?>
<svg
   xmlns:dc="http://purl.org/dc/elements/1.1/"
   xmlns:cc="http://creativecommons.org/ns#"
   xmlns:rdf="http://www.w3.org/1999/02/22-rdf-syntax-ns#"
   xmlns:svg="http://www.w3.org/2000/svg"
   xmlns="http://www.w3.org/2000/svg"
   xmlns:sodipodi="http://sodipodi.sourceforge.net/DTD/sodipodi-0.dtd"
   xmlns:inkscape="http://www.inkscape.org/namespaces/inkscape"
   version="1.1"
   id="Layer_1"
   x="0px"
   y="0px"
   viewBox="0 0 50 50.000001"
   enable-background="new 0 0 2234 1657.855"
   xml:space="preserve"
   sodipodi:docname="family.svg"
   width="50"
   height="50"
   inkscape:version="1.0.1 (3bc2e813f5, 2020-09-07)"><metadata
   id="metadata21"><rdf:RDF><cc:Work
       rdf:about=""><dc:format>image/svg+xml</dc:format><dc:type
         rdf:resource="http://purl.org/dc/dcmitype/StillImage" /><dc:title></dc:title></cc:Work></rdf:RDF></metadata><defs
   id="defs19">
	
	
	
	
	
	
</defs><sodipodi:namedview
   pagecolor="#ffffff"
   bordercolor="#666666"
   borderopacity="1"
   objecttolerance="10"
   gridtolerance="10"
   guidetolerance="10"
   inkscape:pageopacity="0"
   inkscape:pageshadow="2"
   inkscape:window-width="1366"
   inkscape:window-height="705"
   id="namedview17"
   showgrid="false"
   inkscape:showpageshadow="false"
   inkscape:zoom="7.3429525"
   inkscape:cx="40.154687"
   inkscape:cy="32.674009"
   inkscape:window-x="-8"
   inkscape:window-y="-8"
   inkscape:window-maximized="1"
   inkscape:current-layer="Layer_1" />
<path
   d="M 6.5331634,16.186171 C 6.3337889,16.323046 1.9857209,26.620178 1.6552002,27.287303 1.0750033,28.458335 -0.32583676,27.727303 0.06913222,26.462459 0.66925039,24.540582 3.0286979,17.231797 4.5295151,13.097231 5.3555849,10.821511 6.7587441,9.5959479 8.9010989,9.5074791 15.32603,9.2421664 14.954484,10.065573 19.003061,22.394862 c 0.445758,1.35747 0.887248,2.717002 1.313479,4.082815 0.381657,1.222939 -1.02941,2.005752 -1.603554,0.790845 -0.359603,-0.76097 -4.596678,-10.788226 -4.886289,-11.046976 0.270223,2.065314 1.636903,11.68757 2.322341,16.520323 0.08588,0.605563 0.09395,0.604625 -0.450117,0.605563 -1.814153,0.0031 -1.864409,-0.123531 -1.886556,0.374219 -0.08226,1.848032 -0.717164,15.186572 -0.718695,15.218322 -0.03238,0.670782 -0.344853,1.04847 -0.857424,1.054188 -0.524399,0.0059 -0.847847,-0.39125 -0.883028,-1.083438 -0.254105,-5.001659 -0.506402,-10.003444 -0.768416,-15.004541 -0.01222,-0.233219 0.08898,-0.568688 -0.332492,-0.57425 -0.3942039,-0.0052 -0.5047331,0.121906 -0.5247702,0.583219 C 9.5129982,38.849498 9.2779787,43.782689 9.0430985,48.715817 9.0034647,49.548005 8.759192,49.929786 8.2705771,49.991974 7.6921427,50.065599 7.3085142,49.62813 7.273681,48.877598 7.1405404,46.008534 7.0032487,43.139751 6.8662584,40.270936 6.7651912,38.154372 6.6447826,36.038746 6.5728204,33.920901 6.5558676,33.422182 6.4138912,33.310807 6.0229575,33.338994 c -0.4979842,0.03591 -1.0004211,-0.01428 -1.4989156,0.0165 -0.340029,0.021 -0.3713139,-0.150687 -0.3255345,-0.469531 0.00464,-0.03231 2.334656,-16.219854 2.334656,-16.699792 z"
   id="path2"
   style="fill:#000080;stroke-width:0.0269207" /><path
   d="m 43.962893,16.098296 c -0.128781,0.164375 -0.117324,0.329281 -0.118391,0.475719 -0.09239,12.467195 -0.594854,-4.772691 0.477692,31.263645 0.0052,0.175219 0.0051,0.350969 -2.3e-5,0.526156 -0.0625,2.123877 -2.691453,2.172096 -2.868216,0.153751 -1.691611,-19.313544 -1.486322,-18.166387 -1.693118,-18.479543 -0.19193,2.25597 -1.490474,17.529823 -1.570321,18.405824 -0.201532,2.211095 -2.96606,1.988064 -2.906505,-0.206313 0.7978,-29.398894 0.819554,-19.6302 0.491259,-31.788083 -0.0031,-0.11375 -0.032,-0.226562 -0.07036,-0.483781 -2.558103,6.504754 -2.417773,6.182066 -4.384988,11.200382 -0.52259,1.333126 -2.005434,0.588532 -1.640614,-0.705094 1.177509,-4.175472 2.359007,-8.348599 3.646071,-12.48229 0.861367,-2.766533 2.461466,-4.291096 5.003173,-4.4535961 7.437272,-0.4755316 7.275328,1.7969391 10.30994,12.2667891 0.442441,1.52647 0.865449,3.060564 1.28834,4.594503 0.186457,0.676313 0.01092,1.179032 -0.46234,1.399595 -0.493949,0.230187 -0.924099,-0.009 -1.188061,-0.684282 -4.799739,-12.278195 -3.9127,-10.070694 -4.313536,-11.003382 z"
   id="path4"
   style="fill:#000080;stroke-width:0.0269207" /><path
   d="m 24.948004,41.681875 c -0.857772,6.898035 -0.844136,6.803067 -0.916307,7.309036 -0.102574,0.719188 -0.444111,1.058844 -0.99845,1.001907 -0.495989,-0.05094 -0.820133,-0.519657 -0.794553,-1.19247 0.501973,-13.209821 0.720736,-14.326853 -0.521337,-14.895385 -1.288526,-0.589781 -3.054418,-3.629314 -3.852797,-5.07369 -0.138127,-0.249907 -0.273656,-0.510688 -0.172937,-0.835282 0.169249,-0.545438 0.713732,-0.59475 1.083144,-0.07453 2.72014,3.830596 3.813187,4.127815 4.833227,3.830596 3.532133,-1.029251 3.036654,2.271251 7.035601,-3.030096 0.541329,-0.717657 0.878853,-1.506126 1.451374,-1.047188 0.314449,0.252063 0.324259,0.617063 0.132654,0.975032 -0.897615,1.676938 -2.612788,4.661565 -4.059848,5.334972 -0.469343,0.218406 -0.676162,0.606625 -0.694159,1.168001 -0.179731,5.602972 -0.144342,2.134751 0.268508,13.656509 0.0259,0.723062 -0.266073,1.135094 -0.774331,1.18375 -0.554802,0.05313 -0.907981,-0.280594 -1.001047,-1.005657 -0.991863,-7.728817 -0.82222,-7.149692 -1.018742,-7.305504 z"
   id="path6"
   style="fill:#000080;stroke-width:0.0269207" /><path
   d="M 10.175199,4.27858e-6 C 12.232234,-0.00343322 13.868812,1.8908492 13.865635,4.271507 13.862504,6.6182273 12.228082,8.512416 10.197393,8.5227285 8.1602798,8.5331035 6.4925093,6.6012585 6.5025743,4.2429132 6.5126624,1.8875367 8.1435358,0.00337928 10.175199,4.27858e-6 Z"
   id="path8"
   style="fill:#000080;stroke-width:0.0269207" /><path
   d="M 43.474881,4.2455382 C 43.47451,6.6215085 41.868057,8.503541 39.83637,8.508166 37.791233,8.5128222 36.111426,6.5919772 36.113142,4.2507257 36.114882,1.8900367 37.768738,-8.7072198e-4 39.830944,4.27858e-6 41.875084,8.4802912e-4 43.475252,1.865193 43.474881,4.2455382 Z"
   id="path10"
   style="fill:#000080;stroke-width:0.0269207" /><path
   d="m 27.261858,28.401554 c 0.0051,1.441782 -0.98769,2.611283 -2.23287,2.630345 -1.259282,0.01928 -2.295487,-1.158376 -2.297945,-2.611595 -0.0025,-1.461064 1.021688,-2.642689 2.281688,-2.632471 1.244369,0.01009 2.244025,1.171782 2.249127,2.613721 z"
   id="path12"
   style="fill:#000080;stroke-width:0.0269207" />
</svg>
