<?xml version="1.0" encoding="UTF-8" standalone="no"?>
<svg
   xmlns:dc="http://purl.org/dc/elements/1.1/"
   xmlns:cc="http://creativecommons.org/ns#"
   xmlns:rdf="http://www.w3.org/1999/02/22-rdf-syntax-ns#"
   xmlns:svg="http://www.w3.org/2000/svg"
   xmlns="http://www.w3.org/2000/svg"
   xmlns:sodipodi="http://sodipodi.sourceforge.net/DTD/sodipodi-0.dtd"
   xmlns:inkscape="http://www.inkscape.org/namespaces/inkscape"
   version="1.1"
   id="svg4"
   sodipodi:docname="ropa.svg"
   width="50"
   height="50"
   inkscape:version="1.0.1 (3bc2e813f5, 2020-09-07)">
  <metadata
     id="metadata10">
    <rdf:RDF>
      <cc:Work
         rdf:about="">
        <dc:format>image/svg+xml</dc:format>
        <dc:type
           rdf:resource="http://purl.org/dc/dcmitype/StillImage" />
        <dc:title></dc:title>
      </cc:Work>
    </rdf:RDF>
  </metadata>
  <defs
     id="defs8" />
  <sodipodi:namedview
     pagecolor="#ffffff"
     bordercolor="#666666"
     borderopacity="1"
     objecttolerance="10"
     gridtolerance="10"
     guidetolerance="10"
     inkscape:pageopacity="0"
     inkscape:pageshadow="2"
     inkscape:window-width="1366"
     inkscape:window-height="705"
     id="namedview6"
     showgrid="false"
     inkscape:showpageshadow="false"
     inkscape:zoom="3.4066667"
     inkscape:cx="59.596998"
     inkscape:cy="-25.327443"
     inkscape:window-x="-8"
     inkscape:window-y="-8"
     inkscape:window-maximized="1"
     inkscape:current-layer="svg4" />
  <g
     id="layer4"
     transform="matrix(-0.1080248,0,0,0.09946327,58.021201,-45.469366)">
    <path
       id="path2985"
       d="m 245,957.36 c -38.777,-3.1816 -88.609,-11.708 -92.776,-15.875 -3.0143,-3.0143 -2.9647,-7.7898 0.3245,-31.221 4.254,-30.305 13.2,-124.76 15.939,-168.29 l 1.7332,-27.542 5.6023,-33.075 -4.5954,-43.273 0.04,43.871 -8.3037,29.965 -18.382,1.1957 c -26.822,1.7448 -53.724,-9.6378 -65.989,-20.276 -5.4992,-4.7694 -5.5257,-5.1533 -1.4663,-21.198 3.3731,-13.332 38.724,-116.87 52.095,-152.57 2.7355,-7.3051 5.1881,-9.4147 12.779,-10.992 18.393,-3.8216 85.998,-31.122 90.792,-36.664 7.69,-8.891 23.738,-12.45 62.664,-13.897 40.543,-1.5068 63.922,1.5439 73.98,9.6537 8.6876,7.0049 22.371,13.08 64.533,28.65 19.472,7.191 37.905,14.315 40.961,15.83 4.3657,2.1652 12.046,21.118 35.829,88.423 34.908,98.784 34.75,89.731 1.7995,103.52 -16.363,6.8478 -24.3,8.5183 -45.462,9.5681 l -20.779,1.245 -3.6684,-41.559 -1.8143,-44.34 -3.6285,45.744 4.2516,40.182 1.7527,27.542 c 3.18,49.972 9.4274,117.79 14.493,157.33 4.1048,32.039 4.3879,39.538 1.5985,42.33 -4.3718,4.376 -53.191,12.317 -97.634,15.88 -39.331,3.1538 -76.952,3.1039 -116.67,-0.15471 z m 88.324,-457.82 c 18.648,-9.42 28.921,-24.467 19.242,-28.182 -15.516,-5.9542 -91.212,-3.6352 -97.845,2.9976 -5.3132,5.3132 15.64,23.318 34.23,29.415 9.734,3.1921 34.32,0.84805 44.373,-4.2306 z"
       fill="#000080" />
  </g>
</svg>
