<?xml version="1.0" encoding="UTF-8" standalone="no"?>
<svg
   xmlns:dc="http://purl.org/dc/elements/1.1/"
   xmlns:cc="http://creativecommons.org/ns#"
   xmlns:rdf="http://www.w3.org/1999/02/22-rdf-syntax-ns#"
   xmlns:svg="http://www.w3.org/2000/svg"
   xmlns="http://www.w3.org/2000/svg"
   xmlns:sodipodi="http://sodipodi.sourceforge.net/DTD/sodipodi-0.dtd"
   xmlns:inkscape="http://www.inkscape.org/namespaces/inkscape"
   version="1.1"
   id="svg9"
   sodipodi:docname="ropa-intima.svg"
   width="50"
   height="71"
   inkscape:version="1.0.1 (3bc2e813f5, 2020-09-07)">
  <metadata
     id="metadata15">
    <rdf:RDF>
      <cc:Work
         rdf:about="">
        <dc:format>image/svg+xml</dc:format>
        <dc:type
           rdf:resource="http://purl.org/dc/dcmitype/StillImage" />
        <dc:title></dc:title>
      </cc:Work>
    </rdf:RDF>
  </metadata>
  <defs
     id="defs13" />
  <sodipodi:namedview
     pagecolor="#ffffff"
     bordercolor="#666666"
     borderopacity="1"
     objecttolerance="10"
     gridtolerance="10"
     guidetolerance="10"
     inkscape:pageopacity="0"
     inkscape:pageshadow="2"
     inkscape:window-width="1366"
     inkscape:window-height="705"
     id="namedview11"
     showgrid="false"
     inkscape:showpageshadow="false"
     inkscape:zoom="2.4465895"
     inkscape:cx="150"
     inkscape:cy="75"
     inkscape:window-x="-8"
     inkscape:window-y="-8"
     inkscape:window-maximized="1"
     inkscape:current-layer="layer1" />
  <g
     id="layer1"
     inkscape:label="Layer 1"
     inkscape:groupmode="layer"
     transform="translate(-1008.8,41.134)">
    <g
       id="g3811"
       inkscape:export-ydpi="90"
       inkscape:export-xdpi="90"
       inkscape:export-filename="F:\AlanSpeak-vest.png"
       transform="matrix(0.06866218,0,0,0.06866218,939.53571,-38.309606)">
      <g
         id="g3803"
         transform="translate(1017.1,-40)"><path
   id="rect2996"
   style="fill:#000080;stroke:#000000;stroke-width:0.28011;filter:url(#filter3774)"
   inkscape:connector-curvature="0"
   d="m 157.36,184.14 c 29.564,-16.618 62.608,-28.381 88.35,-50.462 6.684,-5.7335 16.442,-20.679 16.442,-20.679 l -2.579,-71.761 c 0,0 -6.3703,-15.059 -8.8463,-22.839 -2.0133,-6.3256 -4.864,-19.312 -4.864,-19.312 l 57.754,0.58306 29.114,-0.46151 40.176,-0.16964 17.973,0.18175 26.296,-0.213 c 0,0 -7.5376,12.823 -8.9673,19.983 -2.1911,10.972 -0.0371,22.407 0.92688,33.555 1.0252,11.854 1.4997,23.998 5.1547,35.322 1.3123,4.0656 2.8915,8.3507 5.9132,11.371 6.7287,6.7251 16.876,8.7869 25.328,13.154 15.235,7.8721 30.304,16.079 45.754,23.521 15.608,7.519 31.775,13.838 47.392,21.336 9.5178,4.5696 18.643,9.9357 28.208,14.407 9.0288,4.2206 18.623,7.2008 27.512,11.708 9.6181,4.8773 19.452,9.7154 27.811,16.53 8.5224,6.9478 16.113,15.236 22.221,24.379 7.5714,11.333 13.83,23.854 17.373,37.015 5.7283,21.279 5.7117,43.821 5.752,65.858 0.0273,14.947 -5.0232,29.794 -3.7382,44.686 1.4887,17.253 9.1339,33.415 13.135,50.264 2.922,12.304 6.3656,24.551 7.9354,37.099 2.8262,22.592 0.4969,45.584 2.6074,68.253 1.3972,15.008 2.7922,30.157 6.6447,44.729 1.8436,6.9736 5.1823,13.463 7.8136,20.179 1.9574,4.9959 4.595,9.7677 5.9317,14.964 2.5988,10.102 2.669,20.691 3.938,31.045 1.96,15.992 4.5505,31.929 5.6771,48.001 1.8684,26.655 1.3718,53.424 1.7826,80.141 0.16567,10.774 0.68323,21.557 0.27516,32.324 -0.53799,14.195 -2.8361,28.28 -3.5872,42.465 -0.89866,16.972 -2.7867,34.064 -1.0975,50.975 0.56835,5.6902 3.0531,11.064 3.7544,16.74 1.0931,8.8461 1.4839,17.855 0.67541,26.732 -0.53164,5.8371 -2.9458,11.385 -3.6125,17.209 -1.1587,10.12 -1.4494,20.398 -0.64388,30.552 0.48152,6.0702 7.1551,13.294 3.2595,17.97504 -24.498,29.432 -92.512,31.434 -114.88,0.3519 -2.9657,-4.12114 2.9,-9.75384 4.882,-14.42804 3.7001,-8.727 8.1009,-17.179 13.024,-25.279 4.826,-7.9396 11.886,-14.47 16.118,-22.741 3.0741,-6.0089 4.9795,-12.596 6.5458,-19.162 1.1409,-4.7822 2.0088,-9.6903 2.0464,-14.607 0.16155,-21.101 -4.4833,-41.983 -7.8222,-62.818 -4.0451,-25.242 -9.5216,-50.237 -14.779,-75.254 -5.6789,-27.021 -13.064,-53.685 -18.107,-80.832 -2.7534,-14.823 -5.5206,-29.705 -6.6224,-44.741 -1.095,-14.943 2.6014,-30.188 0.0295,-44.948 -1.4296,-8.2045 -6.1141,-15.517 -8.4657,-23.506 -3.1912,-10.842 -5.2774,-21.981 -7.6251,-33.036 -1.7875,-8.4171 -3.3787,-16.876 -4.918,-25.342 -1.4943,-8.2186 -2.3421,-16.561 -4.1912,-24.707 -2.0988,-9.2464 -5.4378,-18.171 -7.8165,-27.35 -2.0178,-7.7861 -4.1755,-15.563 -5.4726,-23.501 -2.204,-13.488 -3.4911,-27.155 -3.8957,-40.817 -0.28921,-9.7643 0.85331,-19.52 1.0529,-29.287 0.23413,-11.456 -11.288,-34.402 0.16962,-34.373 5.1483,0.0129 0.55208,10.326 -10e-4,15.445 -0.43294,4.0067 -2.5818,11.811 -2.5818,11.811 l -17.745,39.396 c 0,0 -266.82,60.029 -377.36,0 -6.4664,-3.5116 -8.0101,-12.346 -12.02,-18.515 -1.7224,-2.6499 -5.1718,-7.9468 -5.1718,-7.9468 0,0 3.7076,12.368 5.8561,18.453 5.0798,14.387 15.056,27.473 16.617,42.651 0.72351,7.0341 -2.7112,13.895 -3.5161,20.92 -0.94482,8.2466 -1.1952,16.561 -1.5338,24.854 -0.62738,15.363 0.1097,30.777 -0.92219,46.119 -0.75375,11.206 -6.0932,22.47 -3.8438,33.474 0.60595,2.9642 4.008,4.9008 4.4912,7.8875 1.7258,10.669 -4.8508,21.092 -6.3413,31.796 -3.3313,23.925 0.63648,48.949 -5.7801,72.237 -2.9334,10.647 -10.379,19.531 -14.645,29.717 -1.7227,4.1141 -3.7098,8.2297 -4.4022,12.636 -0.56012,3.5645 -0.18871,7.2409 0.25451,10.822 0.34439,2.7824 2.0192,5.404 1.8583,8.203 -0.66665,11.594 -7.5185,21.979 -11.541,32.873 -11.076,29.993 -23.136,59.613 -34.67,89.433 -9.0052,23.281 -22.668,45.274 -26.963,69.863 -1.2429,7.1156 -1.6564,14.766 0.48709,21.664 1.4516,4.6713 5.4968,8.0978 8.0434,12.274 3.8601,6.3309 8.0673,12.53 10.956,19.359 1.6394,3.8753 2.5605,8.0238 3.5541,12.113 0.68427,2.8159 1.6534,8.53484 1.6534,8.53484 l -90.479,0.6427 c 0,0 2.733,-18.36104 3.1473,-27.61704 0.48769,-10.897 -0.71462,-21.807 -0.786,-32.714 -0.043314,-6.6196 -0.82821,-13.321 0.21715,-19.858 1.2887,-8.0584 5.5213,-15.397 7.3806,-23.343 1.3996,-5.9819 2.2412,-12.097 2.8173,-18.214 2.2808,-24.216 0.69264,-48.67 2.5067,-72.925 0.77834,-10.407 2.4302,-20.73 3.5907,-31.101 2.3033,-20.583 4.0026,-41.237 6.693,-61.773 2.589,-19.762 4.3516,-39.738 9.0894,-59.098 4.3502,-17.776 12.14,-34.536 17.656,-51.985 4.3196,-13.664 9.1789,-27.225 12.086,-41.257 3.418,-16.497 4.4467,-33.404 6.2323,-50.157 2.1192,-19.882 3.5362,-39.833 5.3165,-59.749 1.3682,-15.306 5.7864,-30.64 4.1234,-45.917 -1.4134,-12.984 -8.8581,-24.637 -11.82,-37.358 -2.7314,-11.733 -4.8923,-23.694 -5.4378,-35.728 -0.59793,-13.189 0.44969,-26.477 2.3923,-39.536 2.33,-15.663 3.9436,-32.054 11.057,-46.202 3.7934,-7.5443 9.9277,-13.839 16.259,-19.427 10.921,-9.637 24.236,-16.185 36.738,-23.657 11.861,-7.0881 24.228,-13.293 36.273,-20.064 z" />
<path
   id="rect2999"
   style="fill:#000080;fill-opacity:0.33333"
   inkscape:connector-curvature="0"
   d="m 289.66,37.159 c 0,0 -0.74951,-8.878 0.22435,-13.154 0.80194,-3.5209 2.2294,-7.0552 4.5243,-9.8433 3.4884,-4.2382 8.4568,-7.1604 13.361,-9.626 4.6783,-2.352 9.8114,-3.8693 14.973,-4.7527 5.9579,-1.0198 12.08,-0.52544 18.124,-0.57423 5.4025,-0.043607 10.926,-0.89167 16.206,0.25168 3.1463,0.68128 5.8456,2.7112 8.8536,3.8581 3.6356,1.3861 8.3197,0.91159 11.089,3.6446 2.3443,2.3135 2.5245,6.1235 3.209,9.3452 0.74079,3.4867 0.93902,10.652 0.93902,10.652 l 7.5535,-12.536 8.7495,-15.193 19.957,-0.23291 c 0,0 -6.4791,13.121 -8.0376,20.197 -1.2604,5.7231 -1.031,11.694 -0.96312,17.554 0.0651,5.6158 1.3125,16.797 1.3125,16.797 l -12.104,24.912 -7.7137,12.49 -13.409,11.297 -19.836,7.9707 -24.76,1.5295 -20.334,-3.8105 -25.55,-17.735 -26.41,-49.006 c 0,0 -6.1308,-14.188 -8.5283,-21.524 -2.2174,-6.7845 -5.3916,-20.723 -5.3916,-20.723 l 21.37,0.36381 z" />
<path
   id="rect3004"
   d="" />
style=&quot;filter:url(#filter3799);fill-opacity:.46561;fill:#000080&quot; inkscape:connector-curvature=&quot;0&quot; d=&quot;m256.77 34.585c3.5153 4.8949 8.2239 12.445 12.68 18.42 4.1306 5.5385 8.5088 10.894 13.013 16.134 5.161 6.0039 9.8849 12.538 16.04 17.518 6.0718 4.913 12.666 9.8192 20.203 11.869 5.361 1.4583 11.12 0.30724 16.668 0 5.3278-0.29508 10.803-0.2215 15.91-1.7678 8.1624-2.4714 16.235-6.2217 22.725-11.754 7.3084-6.23 11.816-15.166 17.12-23.172 6.2752-9.471 17.348-29.339 17.348-29.339l-0.0893 5.3926s-11.119 19.717-17.323 29.172c-5.2455 7.9937-9.5526 17.011-16.796 23.251-6.4624 5.5677-14.568 9.2806-22.732 11.752-5.1072 1.5457-10.582 1.4727-15.91 1.7678-5.5473 0.30724-11.306 1.4583-16.668 0-7.5367-2.0501-14.159-6.9226-20.203-11.869-6.1127-5.0026-10.663-11.66-15.807-17.654-4.77-5.5578-9.6559-11.042-13.957-16.97-3.5103-4.8382-9.6321-15.126-9.6321-15.126z&quot;/&gt;
      </g>
      <path
         id="rect3808"
         d="m 1198.2,234.15 c 1.5064,-8.8504 3.0653,-17.728 3.6175,-26.689 0.6848,-11.112 -0.2729,-22.265 -0.3883,-33.397 -0.1309,-12.627 -0.4548,-25.255 -0.3447,-37.882 0.021,-2.3637 -0.4451,-4.8115 0.1882,-7.0889 0.2426,-0.87259 0.6911,-1.732 1.3404,-2.3635 4.6554,-4.5274 11.521,-5.9982 17.207,-9.1342 6.9863,-3.8528 13.624,-8.1594 20.772,-11.892 0.915,-0.4778 2.5048,0.10398 2.9124,1.0523 0.5977,1.3909 -1.5267,2.6758 -1.8198,4.161 -0.8259,4.1847 -0.035,8.5398 0.2892,12.793 0.8379,10.982 1.5006,22.106 4.2734,32.765 1.3514,5.1954 3.5155,10.182 5.9628,14.961 3.0898,6.0325 6.815,11.76 10.928,17.147 4.3141,5.6495 8.9628,11.132 14.33,15.792 5.318,4.6175 11.166,8.7512 17.485,11.862 7.5461,3.7156 15.76,6.0417 23.961,7.9128 13.46,3.0713 27.265,5.2609 41.071,5.3571 20.614,0.14371 41.609,-1.4733 61.429,-7.1429 13.42,-3.8389 27.162,-8.9263 37.859,-17.892 15.466,-12.963 26.239,-31.211 35.037,-49.372 8.7438,-18.049 11.236,-34.748 16.921,-57.738 0.3748,-1.5157 2.963,-2.0589 4.4294,-1.5229 18.621,6.8056 19.947,7.1492 35.184,14.639 2.4367,1.1978 1.9489,5.1635 2.081,7.8755 0.3128,6.4199 -1.9608,12.706 -3.0905,19.033 -1.682,9.4206 -4.6181,18.649 -5.4896,28.179 -1.9411,21.226 -1.8262,42.77 0.6403,63.942 1.3909,11.939 4.6239,23.622 7.9378,35.176 5.5316,19.286 16.303,37.071 19.885,56.812 3.1902,17.581 -0.6242,35.816 1.1962,53.591 1.4209,13.875 4.6167,27.52 7.5649,41.152 2.8085,12.986 8.5892,25.432 9.6363,38.677 2.2701,28.715 -3.1205,57.616 -7.4562,86.093 -1.7123,11.247 -5.0096,22.195 -7.3077,33.337 -3.3598,16.289 -6.8398,32.566 -9.4731,48.988 -2.4625,15.357 -3.5722,30.907 -5.9086,46.284 -0.9048,5.9546 -2.9088,11.776 -3.1391,17.794 -0.3584,9.3645 0.8546,18.802 2.7539,27.979 2.1219,10.252 7.1398,19.731 9.5835,29.911 2.2076,9.1966 3.6105,18.595 4.5513,28.006 1.381,13.814 1.2592,27.74 1.5894,41.619 0.2041,8.5772 2.889,17.577 0.242,25.738 -1.0205,3.1464 -4.9701,4.8046 -5.8997,7.9791 -0.9364,3.1977 -0.1697,6.7488 0.6685,9.9737 2.3984,9.2277 9.8416,16.627 12.226,25.858 1.8046,6.988 -0.4693,14.632 1.3805,21.608 1.0542,3.9758 3.8272,7.2934 5.4183,11.086 1.2149,2.8963 2.6915,5.7752 3.1402,8.8838 0.4713,3.2652 0.7201,6.8282 -0.5252,9.8832 -0.9407,2.3077 -2.6792,4.5576 -4.9355,5.6156 -17.452,8.1834 -38.54,2.2188 -57.804,1.5716 -25.445,-0.85477 -50.83,-3.631 -76.039,-7.195 -35.649,-5.0401 -70.711,-13.608 -106.14,-20.034 -23.787,-4.3147 -47.79,-7.4834 -71.452,-12.436 -29.407,-6.1542 -58.259,-14.731 -87.542,-21.45 -19.021,-4.3645 -38.776,-5.9604 -57.25,-12.251 -1.3533,-0.46085 -3.2038,-0.5837 -3.8701,-1.8486 -1.1758,-2.2321 0.7218,-4.9948 1.1723,-7.4771 4.1623,-22.935 11.797,-45.293 14.135,-68.485 0.7065,-7.0068 -2.1775,-14.412 -0.054,-21.127 2.1993,-6.9543 13.117,-10.593 12.628,-17.87 -0.4122,-6.1273 -11.322,-7.4697 -12.551,-13.487 -1.8247,-8.9314 1.9271,-20.343 9.2858,-25.723 3.5367,-2.586 11.548,3.5801 13.134,-0.5038 3.215,-8.2763 -15.405,-10.58 -18.948,-18.721 -2.9672,-6.8194 -2.2058,-15.027 -0.656,-22.301 1.7193,-8.0694 6.9326,-14.981 10.75,-22.295 8.3049,-15.915 22.476,-29.417 26.415,-46.931 1.6236,-7.219 -2.26,-14.778 -1.557,-22.143 0.3462,-3.6268 2.755,-6.9183 2.8153,-10.561 0.1717,-10.371 -4.4793,-20.258 -7.015,-30.315 -0.7085,-2.8101 -1.1852,-5.7079 -2.2901,-8.387 -0.7338,-1.7792 -2.3359,-3.1674 -2.8477,-5.0228 -1.3666,-4.9536 -0.8815,-10.301 -0.3482,-15.412 0.3284,-3.1476 1.7114,-6.1114 2.1691,-9.2428 2.9578,-20.237 4.0882,-40.798 3.6642,-61.246 -0.084,-4.0394 -1.7214,-8.0492 -1.2248,-12.059 0.4644,-3.7496 2.7847,-7.0352 3.8617,-10.657 0.958,-3.2215 1.9798,-6.4708 2.303,-9.8162 0.2424,-2.5095 0.2626,-5.0973 -0.2861,-7.5581 -1.7913,-8.0329 -6.7326,-15.032 -9.6372,-22.732 -2.3503,-6.2308 -4.732,-12.487 -6.2923,-18.961 -0.7769,-3.2236 -1.5993,-6.5174 -1.5119,-9.8322 0.138,-5.2348 1.8236,-10.328 3.2025,-15.38 3.2012,-11.729 7.6711,-23.075 11.736,-34.533 3.4562,-9.7415 7.9169,-19.145 10.757,-29.084 3.3566,-11.745 5.3192,-23.855 7.3689,-35.898 z"
         style="fill:#007bff"
         inkscape:connector-curvature="0" />
    </g>
  </g>
</svg>
