<?xml version="1.0" encoding="UTF-8" standalone="no"?>
<svg
   xmlns:dc="http://purl.org/dc/elements/1.1/"
   xmlns:cc="http://creativecommons.org/ns#"
   xmlns:rdf="http://www.w3.org/1999/02/22-rdf-syntax-ns#"
   xmlns:svg="http://www.w3.org/2000/svg"
   xmlns="http://www.w3.org/2000/svg"
   xmlns:sodipodi="http://sodipodi.sourceforge.net/DTD/sodipodi-0.dtd"
   xmlns:inkscape="http://www.inkscape.org/namespaces/inkscape"
   height="50"
   width="50"
   version="1.1"
   viewBox="0 0 46.874373 46.874873"
   id="svg12"
   sodipodi:docname="taula.svg"
   inkscape:version="1.0.1 (3bc2e813f5, 2020-09-07)">
  <metadata
     id="metadata18">
    <rdf:RDF>
      <cc:Work
         rdf:about="">
        <dc:format>image/svg+xml</dc:format>
        <dc:type
           rdf:resource="http://purl.org/dc/dcmitype/StillImage" />
        <dc:title />
      </cc:Work>
    </rdf:RDF>
  </metadata>
  <defs
     id="defs16" />
  <sodipodi:namedview
     pagecolor="#ffffff"
     bordercolor="#666666"
     borderopacity="1"
     objecttolerance="10"
     gridtolerance="10"
     guidetolerance="10"
     inkscape:pageopacity="0"
     inkscape:pageshadow="2"
     inkscape:window-width="1366"
     inkscape:window-height="705"
     id="namedview14"
     showgrid="false"
     units="px"
     showborder="false"
     inkscape:zoom="1"
     inkscape:cx="419.31968"
     inkscape:cy="106.47641"
     inkscape:window-x="-8"
     inkscape:window-y="-8"
     inkscape:window-maximized="1"
     inkscape:current-layer="svg12"
     inkscape:document-rotation="0" />
  <g
     id="g28">
    <g
       transform="matrix(0.05915415,0,0,0.04657285,18.077258,9.2267825)"
       id="g10">
      <g
         fill-rule="evenodd"
         stroke="#000000"
         stroke-width="11.2"
         fill="#cccccc"
         id="g8">
        <path
           d="m -300,-170.74 v 282.48 c 0,23.805 31.938,40.071 31.938,63.876 v 607.79 c 0,31.938 95.814,31.938 95.814,0 v -607.79 c 0,-23.805 31.938,-40.071 31.938,-63.876 v -282.48 c 0,-7.5279 -12.433,-19.961 -19.961,-19.961 -7.5278,0 -19.961,12.433 -19.961,19.961 v 203.6 c 0,10.646 -19.961,10.646 -19.961,0 v -203.6 c 0,-7.5279 -12.433,-19.961 -19.961,-19.961 -7.5278,0 -19.961,12.433 -19.961,19.961 v 203.6 c 0,10.646 -19.961,10.646 -19.961,0 v -203.6 c 0,-7.5279 -12.433,-19.961 -19.961,-19.961 -7.5278,0 -19.961,12.433 -19.961,19.961 z"
           id="path2" />
        <path
           d="m -28.527,-78.917 c 0,-45.79 50.03,-111.04 95.814,-111.78 19.19,-0.30944 31.938,12.746 31.938,31.938 v 942.17 c 0,31.938 -95.814,31.938 -95.814,0 v -542.95 c 0,-16.833 -31.938,0.86381 -31.938,-15.969 z"
           id="path4" />
        <path
           d="m 258.92,-158.76 c 45.167,-45.167 114.52,-45.167 159.69,0 75.279,75.279 75.279,196.19 0,271.47 0,0 -31.938,32.851 -31.938,47.907 v 622.79 c 0,31.938 -95.814,31.938 -95.814,0 v -622.79 c 0,-15.056 -31.938,-47.907 -31.938,-47.907 -75.279,-75.279 -75.279,-196.19 0,-271.47 z"
           id="path6" />
      </g>
    </g>
    <path
       style="fill:#000080"
       d="m 39.020916,48.867903 c -0.38568,-0.38568 -0.701236,-7.648776 -0.701236,-16.140214 0,-15.009287 -0.06958,-15.521667 -2.5,-18.410058 -3.141025,-3.732896 -3.211931,-7.8001784 -0.185549,-10.643317 3.27496,-3.07666447 7.991598,-2.87198821 10.612969,0.4605447 2.745136,3.4898745 2.61666,6.5483343 -0.401873,9.5668663 -2.405194,2.405194 -2.482165,2.933456 -2.75,18.873648 -0.233008,13.867507 -0.514643,16.44509 -1.824311,16.696481 -0.85182,0.163507 -1.86432,-0.01827 -2.25,-0.403951 z"
       id="path11"
       transform="matrix(0.93749746,0,0,0.93749746,-2.5e-4,0)" />
    <path
       style="fill:#000080"
       d="m 25.749745,25.5 c 0,-12.925 0.142517,-18.2125 0.316703,-11.75 0.174186,6.4625 0.174186,17.0375 0,23.5 -0.174186,6.4625 -0.316703,1.175 -0.316703,-11.75 z"
       id="path13"
       transform="matrix(0.93749746,0,0,0.93749746,-2.5e-4,0)" />
    <path
       style="fill:#000080"
       d="m 21.00718,48.854167 c -0.378125,-0.378125 -0.6875,-6.9125 -0.6875,-14.520834 0,-8.555555 -0.381526,-13.833333 -1,-13.833333 -0.581687,0 -1,-3.281671 -1,-7.845012 0,-6.3301292 0.353133,-8.1645935 1.828741,-9.5000004 4.057092,-3.6716184 4.21999,-2.76138605 3.939358,22.0122354 -0.253603,22.387526 -0.7285,26.039043 -3.080599,23.686944 z"
       id="path15"
       transform="matrix(0.93749746,0,0,0.93749746,-2.5e-4,0)" />
    <path
       style="fill:#000080"
       d="M 4.00718,48.854167 C 3.629055,48.476042 3.31968,41.293224 3.31968,32.89235 3.31968,23.788162 2.9157255,17.368376 2.31968,17 1.765045,16.657217 1.4038916,12.956671 1.5087645,8.690983 1.6767976,1.8562613 1.7377934,1.6325678 2.0566321,6.6817559 2.4068548,12.227948 2.4847683,12.36154 5.3221459,12.280867 8.1308297,12.20101 8.2408956,12.009358 8.5851939,6.5991109 8.9021088,1.6191605 8.9624204,1.8348935 9.1305955,8.55 c 0.1039965,4.1525 -0.2486438,7.987728 -0.7836449,8.522729 -0.5350012,0.535002 -1.0975012,7.900525 -1.25,16.36783 C 6.8377441,47.832674 6.1945117,51.041498 4.00718,48.854167 Z"
       id="path17"
       transform="matrix(0.93749746,0,0,0.93749746,-2.5e-4,0)" />
  </g>
</svg>
