<?xml version="1.0" encoding="UTF-8" standalone="no"?>
<svg
   xmlns:dc="http://purl.org/dc/elements/1.1/"
   xmlns:cc="http://creativecommons.org/ns#"
   xmlns:rdf="http://www.w3.org/1999/02/22-rdf-syntax-ns#"
   xmlns:svg="http://www.w3.org/2000/svg"
   xmlns="http://www.w3.org/2000/svg"
   xmlns:sodipodi="http://sodipodi.sourceforge.net/DTD/sodipodi-0.dtd"
   xmlns:inkscape="http://www.inkscape.org/namespaces/inkscape"
   width="50"
   height="50"
   version="1.1"
   id="svg13"
   sodipodi:docname="dictats.svg"
   inkscape:version="1.0.1 (3bc2e813f5, 2020-09-07)">
  <defs
     id="defs17" />
  <sodipodi:namedview
     pagecolor="#ffffff"
     bordercolor="#666666"
     borderopacity="1"
     objecttolerance="10"
     gridtolerance="10"
     guidetolerance="10"
     inkscape:pageopacity="0"
     inkscape:pageshadow="2"
     inkscape:window-width="1366"
     inkscape:window-height="705"
     id="namedview15"
     showgrid="false"
     inkscape:showpageshadow="false"
     showborder="false"
     inkscape:zoom="6.3108504"
     inkscape:cx="34.736484"
     inkscape:cy="20.892321"
     inkscape:window-x="-8"
     inkscape:window-y="-8"
     inkscape:window-maximized="1"
     inkscape:current-layer="svg13" />
  <metadata
     id="imagebot_13">image/svg+xml<rdf:RDF>
  <cc:Work
     rdf:about="">
    <dc:format>image/svg+xml</dc:format>
    <dc:type
       rdf:resource="http://purl.org/dc/dcmitype/StillImage" />
    <dc:title></dc:title>
  </cc:Work>
</rdf:RDF>
</metadata>
  <g
     label="Layer 1"
     transform="matrix(0.12656512,0,0,0.13582424,197.77687,-41.528465)"
     id="imagebot_6"
     style="fill:#000080">
    <path
       fill="#000000"
       d="m -1477.7997,673.87429 c 22.0806,-47.16757 9.241,-65.49848 6.68,-108.68931 -136.6577,-63.16337 -108.5142,-215.13547 6.9111,-253.50015 8.8268,-2.93383 17.586,-4.70427 26.1985,-5.47808 52.6315,-4.72883 99.4484,28.10939 118.3923,64.68906 l 53.8342,103.94943 -39.5167,5.27992 c 25.238,28.97125 29.1471,26.32649 -8.4416,43.61854 l 32.1547,22.42986 c 1.8654,8.05529 -5.6717,13.31055 -21.2067,16.18946 17.3711,39.24185 14.0734,59.20408 -46.3607,53.48921 -1.122,9.65659 3.4899,39.11818 11.4713,57.22411 z"
       id="imagebot_11"
       style="fill:#000080" />
    <g
       id="imagebot_7"
       transform="rotate(6.4431624,-1189.0814,518.37057)"
       style="fill:#000080">
      <path
         fill="#000000"
         d="m -1242.5071,574.06022 -13.1343,-11.28879 c 15.0364,-17.49462 13.0437,-43.86625 -4.4509,-58.9027 l 11.2887,-13.13428 c 24.7486,21.27108 27.5675,58.57727 6.2965,83.32577 z"
         id="imagebot_10"
         style="fill:#000080" />
      <path
         fill="#000000"
         d="m -1233.2359,582.02876 c 25.672,-29.86887 22.2698,-74.8936 -7.5991,-100.56558 l 11.6208,-13.52059 c 37.3361,32.08998 41.5889,88.37089 9.4989,125.70698 z"
         id="imagebot_9"
         style="fill:#000080" />
      <path
         fill="#000000"
         id="imagebot_8"
         d="m -1210.962,601.29742 c 30.3895,-26.72242 47.1901,-86.65185 -8.1849,-142.72942 l 11.6208,-13.52059 c 36.9825,33.50419 66.2163,106.84665 10.0847,167.87082 z"
         style="fill:#000080" />
    </g>
  </g>
</svg>
