<?xml version="1.0" encoding="UTF-8" standalone="no"?>
<svg
   xmlns:dc="http://purl.org/dc/elements/1.1/"
   xmlns:cc="http://creativecommons.org/ns#"
   xmlns:rdf="http://www.w3.org/1999/02/22-rdf-syntax-ns#"
   xmlns:svg="http://www.w3.org/2000/svg"
   xmlns="http://www.w3.org/2000/svg"
   xmlns:sodipodi="http://sodipodi.sourceforge.net/DTD/sodipodi-0.dtd"
   xmlns:inkscape="http://www.inkscape.org/namespaces/inkscape"
   version="1.1"
   id="Layer_1"
   x="0px"
   y="0px"
   width="400px"
   height="400px"
   viewBox="0 0 400 400"
   enable-background="new 0 0 400 400"
   xml:space="preserve"
   sodipodi:docname="examenes2.svg"
   inkscape:version="1.0.1 (3bc2e813f5, 2020-09-07)"><metadata
   id="metadata75"><rdf:RDF><cc:Work
       rdf:about=""><dc:format>image/svg+xml</dc:format><dc:type
         rdf:resource="http://purl.org/dc/dcmitype/StillImage" /><dc:title></dc:title></cc:Work></rdf:RDF></metadata><defs
   id="defs73">
	
	
	
	
</defs><sodipodi:namedview
   pagecolor="#ffffff"
   bordercolor="#666666"
   borderopacity="1"
   objecttolerance="10"
   gridtolerance="10"
   guidetolerance="10"
   inkscape:pageopacity="0"
   inkscape:pageshadow="2"
   inkscape:window-width="1366"
   inkscape:window-height="705"
   id="namedview71"
   showgrid="false"
   inkscape:zoom="1.345"
   inkscape:cx="200"
   inkscape:cy="215.46057"
   inkscape:window-x="-8"
   inkscape:window-y="-8"
   inkscape:window-maximized="1"
   inkscape:current-layer="Layer_1"
   inkscape:document-rotation="0" />
<path
   fill="#771214"
   stroke="#000000"
   stroke-width="2"
   stroke-miterlimit="10"
   d="M312.648,362.539  c0,5.501-5.531,9.961-12.355,9.961H87.677c-6.823,0-12.355-4.46-12.355-9.961V57.453c0-5.501,5.532-9.961,12.355-9.961h212.616  c6.824,0,12.355,4.46,12.355,9.961V362.539z"
   id="path2"
   style="fill:#ffffff" />
<rect
   x="88.071"
   y="60.154"
   fill="#FFFFFF"
   stroke="#000000"
   stroke-width="2"
   stroke-miterlimit="10"
   width="210.445"
   height="300.386"
   id="rect4"
   style="fill:#ffffff" />
<path
   fill="#BFBFBF"
   stroke="#000000"
   stroke-miterlimit="10"
   d="M199.262,38.206"
   id="path6"
   style="fill:#ffffff" />
<path
   fill="none"
   stroke="#000000"
   stroke-miterlimit="10"
   d="M198.406,38.211"
   id="path8"
   style="fill:#ffffff" />
<path
   fill="none"
   stroke="#000000"
   stroke-miterlimit="10"
   d="M183.207,39.21"
   id="path10"
   style="fill:#ffffff" />
<path
   fill="#A8A5A5"
   stroke="#A8A5A5"
   stroke-miterlimit="10"
   d="M197.827,33.206"
   id="path12"
   style="fill:#ffffff" />
<path
   fill="#828282"
   d="m 232.667,42.367 v 8.366 -0.288 4.039 h 0.124 18.875 c 4.453,0 8.064,3.983 8.064,8.898 V 68.28 H 126.858 v -4.898 c 0,-4.915 3.61,-8.898 8.064,-8.898 h 18.87 0.13 v -3.944 0.288 -8.465 c 0,0 30.099,0 30.117,0 2.829,0 5.553,0.188 8.45,0.064 2.492,-0.106 4.517,-0.126 6.722,-0.06 1.235,0.038 2.252,0.021 3.486,-0.002 1.916,-0.036 3.835,0 5.751,0 5.171,0 10.341,0 15.513,10e-4 2.902,0 5.803,10e-4 8.706,10e-4 z"
   id="path14"
   style="fill:#ffffff" /><path
   fill="#828282"
   d="m 185.541,41.672 c 1.29,0 3.727,0.553 3.965,-1.125 0.14,-0.981 -0.435,-1.236 -0.682,-1.959 -0.266,-0.777 -0.176,-2.024 -0.274,-2.852 -0.216,-1.818 0.869,-3.695 2.528,-4.5 1.394,-0.677 3.443,-1.688 4.783,-0.442 1.135,1.053 1.788,2.97 2.239,4.521 0.681,2.335 -0.75,5.395 -2.634,6.552 -0.34,0.208 -0.69,0.5 -1.074,0.59 -0.292,0.069 -0.647,0.005 -0.944,0.007 -0.439,0.002 -0.896,0.001 -1.323,-0.125 -0.459,-0.135 -0.465,-0.319 -0.725,-0.67 -0.479,-0.65 -1.433,-0.601 -2.108,-0.746 -1.02,-0.219 -2.191,0.09 -3.102,0.607 -0.391,0.222 -0.977,0.594 -1.147,1.077 -0.209,0.594 0.371,0.52 0.774,0.525 3.108,0.04 6.216,0.086 9.324,0.144 1.25,0.023 2.5,0.043 3.749,0.054 0.474,0.004 1.369,0.205 1.801,-10e-4 0.364,-0.173 0.483,-0.871 0.565,-1.255 0.324,-1.498 0.656,-2.986 0.999,-4.479 0.021,-0.092 0.04,-0.186 0.06,-0.279 0.137,-0.695 -0.039,-1.591 -0.15,-2.283 -0.238,-1.489 -0.74,-2.928 -1.557,-4.15 -0.34,-0.509 -0.558,-1.032 -1.02,-1.466 -0.514,-0.483 -1.167,-0.735 -1.699,-1.202 -0.502,-0.439 -0.841,-0.852 -1.465,-1.13 -0.454,-0.203 -0.996,-0.375 -1.467,-0.372 -0.545,0.003 -1.115,-0.064 -1.63,0.106 -0.505,0.168 -1.033,0.333 -1.554,0.435 -1.2,0.234 -2.417,0.201 -3.417,1.042 -0.597,0.501 -1.093,1.028 -1.566,1.668 -0.477,0.645 -0.755,1.441 -1.118,2.196 -0.456,0.946 -0.91,1.904 -1.232,2.917 -0.252,0.792 -0.214,1.64 -0.144,2.468 0.052,0.609 0.333,1.2 0.454,1.797 0.228,1.116 0.607,2.229 0.982,3.289"
   id="path16"
   style="fill:#ffffff" /><path
   fill="none"
   stroke="#000000"
   stroke-miterlimit="10"
   d="m 185.528,41.975 c -0.588,-1.418 -1.132,-3.155 -1.132,-4.94 0,-5.659 3.984,-10.246 8.899,-10.246 4.915,0 8.995,4.148 8.9,10.246 -0.025,1.581 -0.679,3.776 -1.503,5.33 v 0 l 31.975,0.002 v 8.366 -0.289 4.039 h 0.124 18.875 c 4.453,0 8.064,3.984 8.064,8.898 v 4.898 H 126.858 v -4.898 c 0,-4.915 3.61,-8.898 8.064,-8.898 h 18.87 0.13 v -3.945 0.289 -8.465 h 30.117 l 1.656,0.004 c -0.056,-0.127 -0.112,-0.258 -0.167,-0.391"
   id="path18"
   style="fill:#ffffff" /><ellipse
   fill="none"
   stroke="#000000"
   stroke-miterlimit="10"
   cx="193.405"
   cy="36.257999"
   rx="5.1739998"
   ry="6.1079998"
   id="ellipse20"
   style="fill:#ffffff" />
<rect
   x="110.708"
   y="104.993"
   fill="none"
   stroke="#000000"
   stroke-width="2"
   stroke-miterlimit="10"
   width="25"
   height="26.352"
   id="rect24"
   style="fill:#ffffff" />
<polygon
   fill="#5E92CC"
   stroke="#000000"
   stroke-width="2"
   stroke-miterlimit="10"
   points="110.708,114.396 129.677,119.759   171.06,80.446 132.324,129.54 "
   id="polygon26"
   style="fill:#000000" />
<line
   fill="none"
   stroke="#000000"
   stroke-width="2"
   stroke-miterlimit="10"
   x1="159.352"
   y1="131.345"
   x2="280.514"
   y2="131.345"
   id="line28"
   style="fill:#ffffff" />
<rect
   x="111.083"
   y="165.475"
   fill="none"
   stroke="#000000"
   stroke-width="2"
   stroke-miterlimit="10"
   width="25"
   height="26.352"
   id="rect30"
   style="fill:#ffffff" />
<polygon
   fill="#5E92CC"
   stroke="#000000"
   stroke-width="2"
   stroke-miterlimit="10"
   points="111.083,174.877 130.052,180.24   171.435,140.928 132.699,190.021 "
   id="polygon32"
   style="fill:#000000" />
<line
   fill="none"
   stroke="#000000"
   stroke-width="2"
   stroke-miterlimit="10"
   x1="159.727"
   y1="191.826"
   x2="280.889"
   y2="191.826"
   id="line34"
   style="fill:#ffffff" />
<rect
   x="110.736"
   y="229.339"
   fill="none"
   stroke="#000000"
   stroke-width="2"
   stroke-miterlimit="10"
   width="25"
   height="26.352"
   id="rect36"
   style="fill:#ffffff" />
<polygon
   fill="#5E92CC"
   stroke="#000000"
   stroke-width="2"
   stroke-miterlimit="10"
   points="110.736,238.741 129.706,244.104   171.088,204.792 132.353,253.885 "
   id="polygon38"
   style="fill:#000000" />
<line
   fill="none"
   stroke="#000000"
   stroke-width="2"
   stroke-miterlimit="10"
   x1="159.38"
   y1="255.69"
   x2="280.543"
   y2="255.69"
   id="line40"
   style="fill:#ffffff" />
<rect
   x="111.111"
   y="289.82"
   fill="none"
   stroke="#000000"
   stroke-width="2"
   stroke-miterlimit="10"
   width="25"
   height="26.352"
   id="rect42"
   style="fill:#ffffff" />
<polygon
   fill="#5E92CC"
   stroke="#000000"
   stroke-width="2"
   stroke-miterlimit="10"
   points="111.111,299.223 130.081,304.586   171.463,265.273 132.728,314.366 "
   id="polygon44"
   style="fill:#000000" />
<line
   fill="none"
   stroke="#000000"
   stroke-width="2"
   stroke-miterlimit="10"
   x1="159.755"
   y1="316.172"
   x2="280.918"
   y2="316.172"
   id="line46"
   style="fill:#ffffff" />
<polyline
   fill="#4853A4"
   stroke="#000000"
   stroke-miterlimit="10"
   points="191.719,284.044 183.207,303.978 183.207,303.978   203.431,294.748 "
   id="polyline48"
   style="fill:#ffffff" />
<rect
   x="169.166"
   y="218.079"
   transform="matrix(0.6746 -0.7382 0.7382 0.6746 -83.6983 262.1467)"
   fill="#5F92CD"
   stroke="#000000"
   stroke-miterlimit="10"
   width="172.672"
   height="15.866"
   id="rect50"
   style="fill:#000000" />
<path
   fill="none"
   stroke="#000000"
   stroke-miterlimit="10"
   d="M301.413,190.232"
   id="path52"
   style="fill:#ffffff" />
<path
   fill="none"
   stroke="#000000"
   stroke-miterlimit="10"
   d="M289.7,179.529"
   id="path54"
   style="fill:#ffffff" />
<path
   fill="none"
   stroke="#000000"
   stroke-miterlimit="10"
   d="M191.403,284.391"
   id="path56"
   style="fill:#ffffff" />
<ellipse
   transform="matrix(0.6746 -0.7381 0.7381 0.6746 -17.6361 284.7115)"
   fill="#5F92CD"
   stroke="#000000"
   stroke-miterlimit="10"
   cx="314.149"
   cy="162.362"
   rx="2.349"
   ry="10.03"
   id="ellipse58"
   style="fill:#ffffff" />
<path
   fill="none"
   stroke="#000000"
   stroke-miterlimit="10"
   d="M296.464,199.998"
   id="path60"
   style="fill:#ffffff" />
<path
   fill="none"
   stroke="#000000"
   stroke-miterlimit="10"
   d="M281.654,186.465"
   id="path62"
   style="fill:#ffffff" />
<path
   fill="#5F92CD"
   stroke="#000000"
   stroke-miterlimit="10"
   d="M287.736,205.709c-0.876,0.958-4.9-1.295-8.988-5.029  c-4.088-3.737-6.692-7.544-5.818-8.503l0.475-0.52l33.025-35.714l14.808,13.532l-32.815,35.907L287.736,205.709z"
   id="path64"
   style="fill:#ffffff" />
<rect
   x="263.77"
   y="183.301"
   transform="matrix(0.6746 -0.7382 0.7382 0.6746 -41.6994 276.6123)"
   fill="#4853A4"
   stroke="#000000"
   stroke-miterlimit="10"
   width="58.276"
   height="4.609"
   id="rect66"
   style="fill:#000000" />
<path
   fill="#4853A4"
   stroke="#000000"
   stroke-miterlimit="10"
   d="M316.351,159.951c4.091,3.737,6.697,7.543,5.821,8.501  c-0.875,0.959-4.902-1.294-8.99-5.031c-4.088-3.736-6.692-7.542-5.816-8.5C308.24,153.962,312.266,156.215,316.351,159.951z"
   id="path68"
   style="fill:#ffffff" />
</svg>
