<?xml version="1.0" encoding="UTF-8" standalone="no"?>
<svg
   xmlns:dc="http://purl.org/dc/elements/1.1/"
   xmlns:cc="http://creativecommons.org/ns#"
   xmlns:rdf="http://www.w3.org/1999/02/22-rdf-syntax-ns#"
   xmlns:svg="http://www.w3.org/2000/svg"
   xmlns="http://www.w3.org/2000/svg"
   xmlns:sodipodi="http://sodipodi.sourceforge.net/DTD/sodipodi-0.dtd"
   xmlns:inkscape="http://www.inkscape.org/namespaces/inkscape"
   width="300"
   height="300"
   viewBox="0 0 79.375 79.375"
   version="1.1"
   id="svg42"
   inkscape:version="1.0.1 (3bc2e813f5, 2020-09-07)"
   sodipodi:docname="graduacion300.svg">
  <defs
     id="defs36" />
  <sodipodi:namedview
     id="base"
     pagecolor="#ffffff"
     bordercolor="#666666"
     borderopacity="1.0"
     inkscape:pageopacity="0.0"
     inkscape:pageshadow="2"
     inkscape:zoom="1"
     inkscape:cx="104.5"
     inkscape:cy="177.49216"
     inkscape:document-units="mm"
     inkscape:current-layer="layer1"
     inkscape:document-rotation="0"
     showgrid="false"
     units="px"
     inkscape:showpageshadow="false"
     showborder="false"
     inkscape:window-width="1298"
     inkscape:window-height="728"
     inkscape:window-x="52"
     inkscape:window-y="0"
     inkscape:window-maximized="0" />
  <metadata
     id="metadata39">
    <rdf:RDF>
      <cc:Work
         rdf:about="">
        <dc:format>image/svg+xml</dc:format>
        <dc:type
           rdf:resource="http://purl.org/dc/dcmitype/StillImage" />
        <dc:title></dc:title>
      </cc:Work>
    </rdf:RDF>
  </metadata>
  <g
     inkscape:label="Capa 1"
     inkscape:groupmode="layer"
     id="layer1">
    <g
       id="g26"
       transform="scale(0.5291656)">
      <path
         d="m 114.44608,66.951369 h 5.19227 c 0.35859,0 0.64907,-0.37176 0.64907,-0.83069 0,-0.458929 -0.29048,-0.830689 -0.64907,-0.830689 h -5.19227 c -0.35832,0 -0.64907,0.37176 -0.64907,0.830689 0,0.45893 0.29075,0.83069 0.64907,0.83069 m 5.32203,0.664621 h -5.19227 c -0.35859,0 -0.64907,0.37176 -0.64907,0.830345 0,0.458929 0.29048,0.830689 0.64907,0.830689 h 5.19227 c 0.35832,0 0.6488,-0.37176 0.6488,-0.830689 0,-0.458585 -0.29048,-0.830345 -0.6488,-0.830345 m -0.12976,2.325999 h -5.19227 c -0.35832,0 -0.64907,0.371761 -0.64907,0.830001 0,0.459274 0.29075,0.830689 0.64907,0.830689 h 5.19227 c 0.35859,0 0.64907,-0.371415 0.64907,-0.830689 0,-0.45824 -0.29048,-0.830001 -0.64907,-0.830001 M 92.259079,94.14603 92.218966,94.07092 92.20766,93.98134 c -0.279172,-2.257781 -5.930982,-4.516251 -9.387379,-5.61775 1.645955,2.10446 2.411052,5.88787 2.174415,10.929546 -0.408123,8.702774 -3.877172,20.067824 -7.923948,22.998834 5.180153,2.09757 11.123787,4.56276 12.212475,5.01411 0.629415,-0.75799 3.397709,-4.27955 5.169385,-9.55241 2.668686,-7.94375 1.930779,-15.88681 -2.193529,-23.60764 m 29.094951,9.95587 c -0.20406,-1.97146 -0.40974,-3.92123 -0.61273,-5.827573 0.14403,1.910823 0.28833,3.837843 0.42993,5.766593 0.0609,0.0203 0.12196,0.041 0.1828,0.061 m -1.51997,-0.51233 c -0.14887,-2.02005 -0.29909,-4.022179 -0.44715,-5.984687 0.0388,0.889261 0.0775,1.783691 0.11683,2.682947 0.0466,1.07221 0.0934,2.15304 0.1408,3.23834 0.0633,0.021 0.12653,0.0427 0.18952,0.0634 m -1.50892,-0.50786 c -0.0393,-0.90476 -0.0783,-1.80608 -0.11765,-2.7012 -0.0493,-1.135265 -0.0985,-2.263639 -0.14725,-3.382365 0.0218,1.975257 0.0452,3.987035 0.0708,6.017765 0.0646,0.022 0.12949,0.0437 0.1941,0.0658 m -1.49789,-0.50509 c -0.0256,-2.08586 -0.0498,-4.151384 -0.0711,-6.174532 -0.0458,2.001442 -0.0883,4.044232 -0.12788,6.107342 z m -1.48685,-0.50166 c 0.0396,-2.06208 0.0827,-4.101073 0.12868,-6.098381 -0.11253,1.983526 -0.22129,3.999783 -0.32494,6.031891 0.0657,0.022 0.13111,0.0441 0.19626,0.0665 m -1.47528,-0.49889 c 0.10365,-1.992485 0.2116,-3.955683 0.32171,-5.872712 -0.17445,1.899802 -0.34593,3.841293 -0.51204,5.808282 0.0638,0.0214 0.12707,0.0431 0.19033,0.0644 m -1.47339,-0.49993 c 0.15857,-1.861904 0.32252,-3.703823 0.48943,-5.511632 -0.22748,1.78438 -0.45201,3.606316 -0.67034,5.450642 0.0603,0.0203 0.12034,0.041 0.18091,0.061 M 137.63428,150 c -1.74664,-0.81863 -6.60401,-3.22009 -12.94042,-6.3027 -0.19195,1.537 -0.47435,2.75668 -0.86444,3.58909 l -1.11319,-0.85446 c 0.34809,-0.74283 0.59658,-1.87638 0.76187,-3.32517 -0.24821,-0.12059 -0.49777,-0.24187 -0.75029,-0.36418 -0.12384,1.87224 -0.32682,3.37168 -0.62672,4.40565 l -1.21683,-0.57849 c 0.28913,-0.99744 0.47865,-2.51412 0.58714,-4.43631 -0.25978,-0.12576 -0.52173,-0.25221 -0.78528,-0.37969 -0.0525,2.22919 -0.15884,4.02459 -0.33517,5.25495 l -1.27687,-0.29906 c 0.18172,-1.26826 0.28644,-3.1784 0.3314,-5.57434 -0.26598,-0.12851 -0.53331,-0.25737 -0.80225,-0.38657 0.0127,2.5782 0.007,4.6706 -0.0221,6.1318 l -1.2976,-0.0427 c 0.0315,-1.56319 0.035,-3.863 0.0183,-6.71546 -0.2719,-0.13058 -0.54488,-0.26185 -0.81948,-0.39312 0.0703,2.93962 0.1731,5.35348 0.31498,7.0407 l -1.2906,0.17813 c -0.15479,-1.8433 -0.26383,-4.54381 -0.33436,-7.84659 -0.27432,-0.13127 -0.54973,-0.26323 -0.82567,-0.39484 0.11496,3.32034 0.32602,6.05876 0.65876,7.97234 l -1.26717,0.36039 c -0.37717,-2.17026 -0.60519,-5.26114 -0.72041,-8.96634 -0.2781,-0.13265 -0.55754,-0.2653 -0.83725,-0.39829 0.15076,3.6573 0.4757,6.72958 1.0292,8.93017 l -1.23595,0.50854 c -0.62295,-2.47863 -0.97374,-5.95058 -1.12046,-10.06854 -0.28267,-0.13368 -0.56615,-0.26805 -0.84963,-0.40173 0.17445,4.00839 0.61354,7.41557 1.40825,9.90143 l -1.20122,0.62879 c -0.88867,-2.77976 -1.3544,-6.62967 -1.51243,-11.14592 -6.36441,-2.99682 -12.908922,-5.99778 -18.696952,-8.48399 0.627799,-0.79244 1.845708,-2.45692 3.07304,-4.84218 l -0.06407,-0.10302 c 0.06273,-0.0458 0.123568,-0.092 0.185755,-0.13747 0.639376,-1.26792 1.275252,-2.72705 1.826057,-4.36087 0.03042,-0.0899 0.06003,-0.18329 0.08992,-0.2746 0.531422,0.32112 1.071459,0.64774 1.620379,0.97954 0.542191,-0.91683 0.981812,-2.00351 1.358169,-3.21113 0.512308,-1.65139 0.903202,-3.46126 1.270943,-5.27872 0.366665,-1.82263 0.695109,-3.67212 1.032159,-5.51646 0.0813,1.89223 0.17256,3.78238 0.22129,5.68942 0.0455,1.90876 0.074,3.82958 -0.0684,5.83584 l -0.0576,0.75593 -0.0948,0.76626 c -0.0434,0.42413 -0.12276,0.85067 -0.20379,1.281 0.32493,-0.66186 0.61299,-1.38574 0.87116,-2.16406 0.54704,-1.65311 0.9592,-3.47849 1.33556,-5.32007 0.37528,-1.84571 0.69644,-3.72656 1.02461,-5.605 0.0905,1.92151 0.18899,3.84267 0.22802,5.78451 0.0361,1.94287 0.0417,3.90469 -0.14699,5.94644 -0.0253,0.25565 -0.046,0.51199 -0.0762,0.76936 l -0.11442,0.77694 c -0.0498,0.40484 -0.13729,0.80967 -0.22479,1.21761 0.35213,-0.66806 0.66441,-1.40228 0.94251,-2.19542 0.58257,-1.65621 1.01735,-3.49709 1.40178,-5.36347 0.38416,-1.87086 0.69968,-3.78341 1.01762,-5.69665 0.10095,1.95114 0.2054,3.90537 0.23475,5.88304 0.0256,1.97802 0.008,3.98049 -0.22829,6.05739 -0.032,0.25944 -0.0533,0.52025 -0.0958,0.78142 l -0.13326,0.78727 c -0.0552,0.38486 -0.14807,0.76592 -0.24148,1.15008 0.37043,-0.67909 0.72283,-1.41158 1.01115,-2.22022 0.61784,-1.65931 1.07577,-3.51743 1.47016,-5.40861 0.39278,-1.89705 0.70291,-3.84199 1.01035,-5.79071 0.11172,1.9818 0.22129,3.96946 0.24094,5.98365 0.0151,2.01419 -0.0291,4.0587 -0.31228,6.16833 -0.11011,0.88271 -0.29183,1.77335 -0.52065,2.66537 0.39197,-0.68254 0.76671,-1.41917 1.07549,-2.23504 0.65311,-1.66345 1.13553,-3.53879 1.53989,-5.45616 0.40166,-1.92323 0.70829,-3.90159 1.00388,-5.88649 0.12384,2.01281 0.23718,4.03561 0.24741,6.08736 0.003,2.05105 -0.0684,4.1376 -0.40032,6.27892 -0.12599,0.86583 -0.32144,1.73408 -0.56238,2.60163 l 0.27971,-0.47994 c 0.10526,-0.17985 0.21618,-0.35695 0.30421,-0.55678 0.18172,-0.39347 0.39359,-0.77074 0.54919,-1.20107 0.68891,-1.66827 1.19691,-3.56153 1.61257,-5.50578 0.40947,-1.95114 0.71368,-3.96222 0.99743,-5.98503 0.13568,2.04555 0.25171,4.10349 0.25252,6.19383 -0.009,2.08861 -0.10984,4.21753 -0.48997,6.38917 -0.0764,0.54645 -0.22425,1.08152 -0.3462,1.62865 -0.0571,0.27563 -0.14322,0.54162 -0.22587,0.81071 l -0.0299,0.0965 c 0.20029,-0.33937 0.42239,-0.66634 0.61057,-1.03363 l 0.44689,-0.88719 0.13083,-0.31629 c 0.72526,-1.67344 1.25964,-3.58461 1.68688,-5.55642 0.41781,-1.97939 0.72095,-4.02493 0.99177,-6.08598 0.14887,2.07862 0.26652,4.17309 0.25764,6.3027 -0.0226,2.1272 -0.15319,4.2985 -0.58311,6.49839 l -0.0762,0.41414 -0.10149,0.40932 -0.20757,0.8238 c -0.0711,0.27081 -0.1556,0.53714 -0.24417,0.80381 0.20864,-0.32869 0.42778,-0.65532 0.62672,-1.00813 l 0.30906,-0.59261 c 0.10553,-0.19742 0.2116,-0.39691 0.29721,-0.61432 0.76186,-1.68032 1.32344,-3.60976 1.7636,-5.60913 0.42535,-2.00902 0.72875,-4.08867 0.98584,-6.18831 0.16261,2.11204 0.28025,4.24406 0.26249,6.41364 -0.0369,2.16579 -0.19976,4.37947 -0.67895,6.60727 -0.0493,0.28115 -0.1233,0.55609 -0.19895,0.83138 l -0.2256,0.83207 c -0.0716,0.23773 -0.15237,0.47305 -0.23448,0.70803 0.21779,-0.3187 0.43423,-0.64636 0.6453,-0.98745 l 0.32197,-0.59537 c 0.10607,-0.20121 0.22479,-0.39485 0.31309,-0.61466 0.79821,-1.68722 1.39048,-3.63423 1.8406,-5.66358 0.43639,-2.03762 0.73871,-4.1531 0.98208,-6.29202 0.17606,2.1465 0.29586,4.31677 0.26517,6.52665 -0.0487,2.2061 -0.24686,4.46147 -0.77533,6.71512 -0.0536,0.28597 -0.14348,0.55919 -0.22102,0.83896 l -0.24336,0.84033 c -0.07,0.20501 -0.14511,0.40966 -0.21995,0.61467 0.48835,-0.64946 0.93389,-1.37438 1.32371,-2.17957 0.83375,-1.6948 1.45993,-3.65972 1.91759,-5.71974 0.45093,-2.06587 0.7511,-4.21822 0.98073,-6.39675 0.1898,2.1806 0.31202,4.39049 0.26571,6.64138 -0.0576,2.24675 -0.29559,4.54347 -0.87305,6.82157 -0.18252,0.74042 -0.4162,1.47326 -0.68864,2.19198 0.49454,-0.63671 0.9487,-1.34681 1.34713,-2.13547 0.86955,-1.70272 1.53154,-3.68522 1.99701,-5.77658 0.46519,-2.09482 0.76402,-4.28472 0.97966,-6.50322 0.20379,2.21609 0.32843,4.46594 0.26517,6.75749 -0.0665,2.2881 -0.34594,4.62616 -0.97239,6.92769 -0.1906,0.71217 -0.42832,1.41504 -0.70156,2.10309 0.50261,-0.62845 0.96673,-1.32787 1.37916,-2.10274 0.90778,-1.71065 1.60181,-3.71278 2.0775,-5.83516 0.48081,-2.12409 0.77883,-4.35224 0.97939,-6.6114 0.21887,2.25192 0.3454,4.54347 0.2641,6.87636 -0.0789,2.33013 -0.39628,4.70816 -1.07308,7.03209 -0.19975,0.6846 -0.44177,1.35921 -0.71529,2.0197 0.51123,-0.62121 0.98531,-1.31236 1.41013,-2.07586 0.95515,-1.71272 1.66776,-3.74276 2.16176,-5.8927 0.4975,-2.15338 0.79471,-4.41977 0.98019,-6.71993 0.23395,2.2881 0.36155,4.62133 0.26168,6.99591 -0.0993,2.3701 -0.44097,4.79326 -1.17834,7.13408 -0.20595,0.65704 -0.44958,1.30374 -0.72175,1.93701 0.51769,-0.61363 1.00065,-1.29479 1.43408,-2.0483 0.99581,-1.7196 1.73803,-3.77032 2.25007,-5.94954 0.51473,-2.18267 0.8122,-4.48869 0.98181,-6.82985 0.24956,2.32462 0.37851,4.70058 0.25898,7.1172 -0.12007,2.41075 -0.49831,4.87457 -1.28844,7.23261 -0.20918,0.63017 -0.45201,1.25 -0.72176,1.8557 0.52389,-0.60467 1.01331,-1.27618 1.45509,-2.01867 1.03403,-1.72787 1.81044,-3.79684 2.33998,-6.00639 0.53249,-2.21264 0.83078,-4.55828 0.98396,-6.94079 0.26571,2.36115 0.39466,4.78052 0.25494,7.23917 -0.13999,2.45244 -0.55969,4.95416 -1.39935,7.32977 -0.21133,0.60295 -0.45174,1.19556 -0.71799,1.77439 0.52819,-0.59606 1.023,-1.25723 1.47151,-1.98732 1.0728,-1.73648 1.88366,-3.82406 2.43151,-6.06393 0.55134,-2.24262 0.85097,-4.62822 0.98692,-7.05242 0.28268,2.39767 0.41136,4.86183 0.2501,7.36217 -0.16018,2.49448 -0.62241,5.03306 -1.51189,7.42556 -0.88193,2.38974 -2.20376,4.60893 -3.87125,6.38159 -0.10607,0.1137 -0.21725,0.22017 -0.32601,0.33007 0.22264,0.13231 0.34055,0.20225 0.34055,0.20225 0,0 13.86678,-10.02823 3.71242,-29.76425 -13.75156,-4.12795 -38.38192,-13.1353 -49.682309,-17.32286 -0.470042,-1.275148 -1.040769,-2.575103 -1.724026,-3.895731 5.010281,1.999374 11.395965,4.240961 17.956095,6.477031 1.05234,-8.893645 2.25706,-17.237751 3.14222,-23.368179 0.29021,-2.010399 0.54623,-3.784443 0.75164,-5.262527 l 0.46977,0.106808 0.009,-0.07787 0.47435,0.08613 0.005,-0.05754 0.47839,0.06546 0.002,-0.03652 0.48028,0.0441 5.3e-4,-0.01551 0.60438,0.0286 0.96378,0.0034 0.69321,-0.02688 5.4e-4,0.01206 0.48081,-0.03962 c 0.23368,4.688521 1.07496,12.524429 2.0487,21.598274 0.37931,3.533273 0.77398,7.210564 1.15518,10.913704 10.02864,3.38856 18.66949,6.38711 21.12954,8.00749 6.06263,3.99323 12.43081,25.80271 -6.20638,37.43202 M 28.688734,100.01151 c 1.696297,-1.288246 3.230798,-2.92723 4.52974,-4.822897 1.301903,-1.894289 2.369592,-4.033203 3.210876,-6.293395 0.845052,-2.260537 1.45643,-4.647521 1.877476,-7.076883 0.420238,-2.431429 0.649874,-4.909372 0.697525,-7.394205 0.04523,-2.485178 -0.08776,-4.980003 -0.445544,-7.446576 -0.168795,-1.235181 -0.428853,-2.457614 -0.737638,-3.668333 -0.33409,-1.205551 -0.742483,-2.396286 -1.305672,-3.53224 l -0.475426,-0.828278 c -0.171218,-0.268742 -0.377702,-0.520257 -0.567765,-0.77763 -0.391971,-0.469265 -0.794441,-0.863076 -1.221948,-1.238282 -0.854205,-0.737663 -1.778944,-1.313737 -2.73545,-1.744758 -1.915703,-0.858598 -3.953359,-1.156626 -5.954672,-0.946111 -1.999428,0.224641 -3.971397,0.955758 -5.741996,2.207477 -0.881665,0.631889 -1.708949,1.39057 -2.460047,2.258814 -0.182794,0.223608 -0.377165,0.432745 -0.54919,0.670823 L 16.29158,60.08948 c -0.319015,0.501997 -0.643683,0.999515 -0.919086,1.54079 -0.568573,1.0667 -1.052344,2.206444 -1.416587,3.399246 -0.205138,0.58641 -0.336244,1.203139 -0.500193,1.806087 l -0.187371,0.923716 -0.09261,0.461341 -0.07403,0.453417 c -0.400586,2.416614 -0.663874,4.893867 -0.633991,7.417289 0.01561,1.259989 0.104722,2.531691 0.316861,3.794091 0.213753,1.259644 0.549459,2.516876 1.08115,3.676603 0.531153,1.153869 1.286289,2.198864 2.212374,2.913787 0.460619,0.36487 0.963505,0.622587 1.472852,0.826211 0.513923,0.170892 1.036999,0.303885 1.557384,0.323524 1.042653,0.07683 2.061077,-0.118866 3.023236,-0.458929 0.483503,-0.172271 0.949776,-0.371071 1.414702,-0.609838 0.231252,-0.13196 0.468966,-0.243247 0.693487,-0.394156 0.222638,-0.155044 0.454159,-0.288726 0.668451,-0.463064 1.754715,-1.317871 3.126613,-3.399591 3.916477,-5.746952 0.787442,-2.352874 1.078997,-4.936935 0.862821,-7.455878 C 29.5704,71.239877 29.346955,69.98678 28.930486,68.81465 28.736654,68.222727 28.471482,67.665604 28.182619,67.131564 27.882718,66.603727 27.526821,66.121369 27.124082,65.703095 26.714074,65.295158 26.247263,64.967154 25.7503,64.751471 c -0.497233,-0.222918 -1.028385,-0.293549 -1.544193,-0.268053 -1.040769,0.05065 -2.013696,0.562981 -2.833981,1.286518 -0.815709,0.738008 -1.501389,1.699623 -1.972777,2.820072 -0.239866,0.555746 -0.427775,1.152147 -0.538959,1.7737 -0.113338,0.618797 -0.175526,1.258955 -0.138913,1.896012 0.0533,1.274459 0.430199,2.506195 1.020039,3.498475 0.284287,0.509576 0.634261,0.944043 0.974543,1.366107 0.353743,0.411727 0.720139,0.810017 1.125301,1.147667 0.404354,0.333172 0.855282,0.615352 1.351707,0.694252 0.245789,0.03377 0.504501,0.01723 0.740599,-0.09854 0.236098,-0.11301 0.442044,-0.304575 0.607878,-0.533351 0.33409,-0.461341 0.524691,-1.040859 0.654451,-1.622101 0.123298,-0.584342 0.207292,-1.189013 0.181986,-1.792649 0.0016,0.602603 -0.106069,1.198315 -0.250366,1.76543 -0.149142,0.56367 -0.361011,1.114937 -0.687833,1.521151 -0.162065,0.201901 -0.354012,0.359701 -0.563997,0.445492 -0.209984,0.08786 -0.435852,0.08717 -0.653643,0.04307 -0.439352,-0.09888 -0.849629,-0.383475 -1.220332,-0.725605 -0.731446,-0.69873 -1.413357,-1.563873 -1.929434,-2.511018 -0.519038,-0.95438 -0.816516,-2.085165 -0.826746,-3.222841 -0.02127,-2.292924 1.058537,-4.462157 2.535965,-5.688036 0.741945,-0.606738 1.595881,-1.001238 2.446856,-1.001238 0.422392,-0.001 0.844515,0.0727 1.233255,0.268743 0.389279,0.190531 0.751098,0.464097 1.077112,0.810706 0.31713,0.359012 0.605993,0.765571 0.850975,1.222433 0.234752,0.465131 0.455505,0.949556 0.61407,1.477049 0.343782,1.038449 0.52173,2.172679 0.603032,3.307944 0.148604,2.279142 -0.171487,4.615133 -0.912625,6.66929 -0.751098,2.04761 -1.952316,3.795469 -3.471472,4.886976 -0.379318,0.272877 -0.774788,0.508199 -1.182643,0.707344 -0.411892,0.19949 -0.843168,0.37176 -1.269598,0.512333 -0.85582,0.280802 -1.728871,0.417585 -2.568539,0.332138 -0.42293,-0.02446 -0.827285,-0.145396 -1.221678,-0.282868 -0.385779,-0.168826 -0.76079,-0.36866 -1.09838,-0.649806 -0.335437,-0.282179 -0.654451,-0.60088 -0.922855,-0.993313 -0.144566,-0.181573 -0.261134,-0.400357 -0.38874,-0.605015 -0.116299,-0.217405 -0.230983,-0.438256 -0.333821,-0.669788 -0.82217,-1.873962 -1.107533,-4.182734 -1.11184,-6.471179 -0.0073,-2.301882 0.257903,-4.632016 0.660912,-6.922528 l 0.0743,-0.429988 0.08722,-0.413105 0.174987,-0.824488 c 0.152643,-0.531627 0.271903,-1.082205 0.458735,-1.593504 0.330053,-1.048785 0.762944,-2.034518 1.263945,-2.950654 0.990964,-1.847087 2.333249,-3.349977 3.856443,-4.440795 1.534232,-1.073936 3.257989,-1.706515 5.01082,-1.895323 1.752831,-0.176061 3.538236,0.09992 5.177461,0.844471 0.8184,0.373483 1.598573,0.866522 2.304443,1.481873 0.170411,0.162968 0.352397,0.309054 0.514731,0.483736 0.155604,0.175716 0.340552,0.343853 0.473273,0.524048 0.128683,0.185708 0.269211,0.346609 0.394124,0.544376 l 0.360473,0.629477 c 0.449044,0.90132 0.810325,1.92392 1.109149,2.988897 0.277018,1.079449 0.519576,2.186805 0.677872,3.327238 0.337052,2.272596 0.471119,4.6141 0.435314,6.948024 -0.07592,4.667848 -0.831861,9.342932 -2.345633,13.553229 -0.758905,2.101703 -1.721872,4.076615 -2.892131,5.821374 -1.168374,1.745791 -2.545926,3.252816 -4.07935,4.450787 -1.529655,1.212097 -3.235913,2.035203 -4.987398,2.615413 -0.871704,0.3249 -1.777868,0.4703 -2.675955,0.66669 -0.903471,0.14023 -1.81098,0.21706 -2.71499,0.20845 -1.804519,-0.0414 -3.600963,-0.4324 -5.246379,-1.32098 C 10.570852,99.486424 9.0998843,98.107913 7.9051271,96.387962 6.7071393,94.666977 5.7872462,92.618678 5.109912,90.44152 4.4293473,88.261606 3.9975333,85.946632 3.7334376,83.601682 3.2055153,78.901791 3.3885786,74.060639 4.1178705,69.372462 c 0.3723184,-2.34426 0.8962025,-4.6551 1.6050344,-6.87567 0.7056013,-2.218158 1.5983041,-4.360173 2.7809468,-6.242059 -1.2553296,1.803331 -2.2409101,3.902622 -3.0412736,6.097351 -0.7930948,2.202999 -1.3969345,4.515906 -1.8532467,6.874637 -0.4568506,2.35942 -0.7422139,4.773623 -0.8827419,7.204019 -0.1402588,2.43074 -0.1162991,4.882497 0.090724,7.319439 0.2124072,2.434531 0.6156849,4.85838 1.2827891,7.185069 0.6665658,2.321865 1.6012654,4.555528 2.8722093,6.485649 1.2623291,1.934256 2.8848622,3.519143 4.7039191,4.542093 1.81798,1.03535 3.79614,1.51219 5.752495,1.60453 0.979927,0.0344 1.956893,-0.0241 2.925513,-0.15022 0.96189,-0.18261 1.930779,-0.31801 2.877593,-0.64223 1.89659,-0.58021 3.763566,-1.46189 5.456902,-2.76356 m 47.404779,21.96968 -0.273249,0.12128 C 56.744261,115.95482 22.557459,108.52065 8.9138597,103.16751 -6.6629424,89.212541 1.7558156,58.855333 7.3871656,54.386629 l 7.4977884,4.922809 c 0,0 4.153921,-7.64193 12.266856,-7.378356 1.587266,0.05168 6.024128,2.582339 11.801929,6.334396 0.229098,0.148497 0.460889,0.300095 0.694294,0.452727 l 7.327378,-19.459015 1.060421,-0.587444 c 9.287501,-5.148828 20.843641,-11.558334 28.221361,-10.927823 7.483251,0.63878 25.136207,14.059361 26.466917,16.102492 0.88247,1.355082 4.82883,17.940966 7.43991,29.505157 -8.59779,-6.101485 -25.657403,-4.98207 -34.888908,2.454169 0.19437,-3.671434 0.302862,-7.342868 0.374472,-11.013958 0.04873,-1.938391 0.05788,-3.876437 0.08695,-5.814483 l 0.02719,-5.814482 -0.02881,-5.814483 c -0.028,-1.938046 -0.03877,-3.876436 -0.08669,-5.814482 -0.07619,-3.876437 -0.188986,-7.752529 -0.403816,-11.628965 -0.214561,3.876436 -0.326822,7.752528 -0.403547,11.628965 -0.04765,1.938046 -0.05815,3.876436 -0.08642,5.814482 l -0.02854,5.814483 0.02719,5.814482 c 0.02907,1.938046 0.0385,3.876092 0.08642,5.814483 0.07215,3.672812 0.180371,7.34528 0.375011,11.018093 -7.852339,-6.21484 -17.528849,-9.42011 -25.732239,-10.433751 0.591187,0.410005 1.185874,0.824144 1.784598,1.242417 10.10671,7.055176 21.035588,15.019598 28.024568,19.923113 l -0.367742,-0.100262 2.155301,1.346124 c 0.166642,0.115421 0.329784,0.228086 0.490233,0.337995 1.086265,0.849639 1.874784,2.335992 2.340518,4.366375 L 39.489199,62.322454 c 6.121852,14.57824 -1.199334,33.311996 -6.657312,37.151911 0.652567,-0.351432 1.298673,-0.757302 1.925395,-1.219333 1.852978,-1.361972 3.569734,-3.167025 5.052278,-5.286989 1.484697,-2.120308 2.736258,-4.56173 3.702186,-7.215044 0.968351,-2.653658 1.648916,-5.515765 2.056501,-8.479511 0.01131,3.003024 -0.257635,6.047048 -0.870897,9.027677 -0.579611,2.82524 -1.472044,5.585707 -2.666532,8.163911 0.114953,-0.157456 0.230982,-0.313533 0.343513,-0.475123 1.457506,-2.095157 2.6808,-4.51246 3.619538,-7.138211 0.940891,-2.626095 1.595881,-5.456848 1.98489,-8.384762 0.03015,2.963746 -0.211599,5.970904 -0.796056,8.920869 -0.553497,2.803534 -1.420086,5.548496 -2.594114,8.111885 0.117645,-0.161935 0.235828,-0.322146 0.350512,-0.487871 1.430855,-2.069661 2.625343,-4.462501 3.536621,-7.060689 0.913702,-2.598877 1.543116,-5.398276 1.913281,-8.290702 0.04873,2.923434 -0.165834,5.894416 -0.720677,8.813716 -0.527384,2.782173 -1.36786,5.510942 -2.521428,8.05986 0.119799,-0.165725 0.240406,-0.330416 0.357243,-0.500275 1.403395,-2.044509 2.569616,-4.413232 3.453704,-6.983856 0.886242,-2.571313 1.489813,-5.339704 1.841133,-8.195954 0.06784,2.883813 -0.119799,5.817584 -0.645029,8.705875 -0.500732,2.760811 -1.315095,5.473731 -2.448203,8.007834 0.121953,-0.169859 0.244713,-0.33834 0.363435,-0.512678 1.376474,-2.018324 2.514159,-4.363273 3.370249,-6.906334 0.859051,-2.54375 1.437316,-5.280788 1.769791,-8.101205 0.08696,2.84419 -0.07403,5.740062 -0.570188,8.597345 -0.473542,2.739449 -1.261522,5.436865 -2.3739,7.956497 0.124375,-0.17296 0.24902,-0.34592 0.369626,-0.524393 1.349284,-1.992828 2.457894,-4.313659 3.286794,-6.829501 0.831323,-2.516532 1.383743,-5.221527 1.69845,-8.006111 0.104723,2.803534 -0.02934,5.662195 -0.495617,8.488469 -0.446351,2.717399 -1.207141,5.39931 -2.299059,7.90516 0.12626,-0.177094 0.252789,-0.353844 0.37501,-0.536106 1.322363,-1.967332 2.401629,-4.264735 3.20307,-6.752669 0.803863,-2.488968 1.330439,-5.162955 1.62684,-7.911363 0.123299,2.763568 0.01615,5.583985 -0.420238,8.37925 -0.41943,2.695348 -1.152491,5.36141 -2.224219,7.853827 0.128683,-0.18054 0.256827,-0.36108 0.380933,-0.54748 1.294635,-1.941836 2.345095,-4.215121 3.118537,-6.675492 0.775866,-2.462093 1.277136,-5.104037 1.554961,-7.816613 0.141875,2.723601 0.06165,5.505774 -0.345397,8.268996 -0.391432,2.672953 -1.096226,5.324545 -2.147494,7.803179 0.130298,-0.18364 0.259788,-0.36832 0.38551,-0.5585 1.267175,-1.916344 2.288291,-4.165511 3.033736,-6.599008 0.748405,-2.434186 1.224639,-5.044777 1.484158,-7.721175 0.159912,2.682945 0.106069,5.426873 -0.270287,8.158398 -0.363704,2.650903 -1.0405,5.287335 -2.071038,7.752525 0.132182,-0.18674 0.262749,-0.37486 0.389817,-0.56883 1.239715,-1.89085 2.231488,-4.116931 2.949473,-6.522175 0.720138,-2.407311 1.170528,-4.986205 1.412279,-7.626082 0.177948,2.642289 0.150489,5.347285 -0.195178,8.046767 -0.335706,2.628163 -0.983696,5.24909 -1.993236,7.70223 0.133259,-0.18985 0.265711,-0.38141 0.393586,-0.57952 1.212256,-1.86466 2.174415,-4.067316 2.863864,-6.445341 0.69241,-2.379748 1.117494,-4.926599 1.341208,-7.530644 0.195716,2.601978 0.194908,5.267351 -0.120607,7.934447 -0.307169,2.606112 -0.925546,5.211878 -1.914626,7.652608 0.134874,-0.1926 0.268133,-0.38795 0.397085,-0.58951 1.184528,-1.83916 2.117074,-4.01839 2.778255,-6.368847 0.664412,-2.352185 1.064459,-4.866994 1.270406,-7.435551 0.213214,2.561322 0.238789,5.187417 -0.04603,7.822126 -0.278634,2.582682 -0.866859,5.173982 -1.83521,7.602652 0.136221,-0.19535 0.270018,-0.39381 0.400047,-0.59847 1.156529,-1.81366 2.059193,-3.9698 2.692377,-6.292704 0.636414,-2.324966 1.010886,-4.807387 1.199064,-7.339767 0.231252,2.520665 0.282402,5.106105 0.02827,7.708082 -0.242289,2.490689 -0.778826,4.996199 -1.680413,7.356649 l 0.049,0.0107 c 0.09422,-0.13919 0.188717,-0.27735 0.279441,-0.42172 1.128801,-1.78782 2.001043,-3.92088 2.60596,-6.21621 0.608147,-2.297063 0.957582,-4.747442 1.128262,-7.24399 0.248482,2.48001 0.326014,5.025483 0.1023,7.5937 -0.2011,2.32324 -0.66172,4.66715 -1.4497,6.89462 0.05142,0.0121 0.1023,0.0245 0.152912,0.0365 l 0.02854,-0.0427 c 1.100803,-1.76267 1.942087,-3.87299 2.518467,-6.14007 0.57988,-2.26984 0.904279,-4.688177 1.057729,-7.148548 0.265711,2.438665 0.368818,4.944171 0.176602,7.478278 -0.165295,2.18404 -0.560766,4.39393 -1.255868,6.50873 0.07484,0.0214 0.150489,0.0427 0.222906,0.0637 0.99608,-1.68377 1.758485,-3.6735 2.279946,-5.80449 0.551344,-2.242622 0.850975,-4.628572 0.986927,-7.052766 0.282671,2.398009 0.411354,4.862166 0.250366,7.362506 -0.137029,2.13065 -0.496963,4.29299 -1.152492,6.36954 0.09826,0.0586 0.176064,0.11473 0.227214,0.1671 0.119261,0.12163 0.653375,0.48512 1.529925,1.04775 -1.638686,5.93198 -4.137769,10.81482 -6.484748,11.85774 M 18.649327,37.21468 c 4.973938,-2.614381 9.912878,-5.3273 14.854779,-8.031607 l 7.396027,-4.103145 7.38095,-4.146212 3.689533,-2.076552 11.04114,-6.303042 14.222941,-8.2383322 12.523414,10.7944852 c 4.331062,3.688317 8.648933,7.40213 13.000989,11.052892 4.3386,3.674191 8.69874,7.30807 13.06238,10.936092 0.42158,0.347987 0.84371,0.695285 1.26556,1.043272 -0.0603,-0.518191 -0.12249,-0.996414 -0.18522,-1.440528 -0.19571,-0.178128 -0.39062,-0.356945 -0.58607,-0.535073 -4.2468,-3.84784 -8.49683,-7.689822 -12.76867,-11.491149 C 99.28844,20.850337 94.995606,17.088977 90.716771,13.301088 L 77.83046,2.0321686 77.409415,1.6638538 76.945834,1.9367306 62.295117,10.54131 51.33474,17.071406 l -3.645113,2.20162 -7.286727,4.409442 -7.27192,4.452855 c -4.836909,2.998889 -9.67678,5.989509 -14.481653,9.079357 m 95.461583,-6.033611 c 0.70264,0.632234 1.39371,1.254821 2.07104,1.865348 -0.41216,-1.451898 -0.75594,-1.767153 -0.82486,-1.816767 z m -96.499928,7.362508 -1.038346,-2.990276 c 0,0 57.63344,-35.21937747 60.489228,-35.55151549 C 78.731778,-0.1925359 96.639407,15.512355 111.22821,28.592185 l 0.004,-0.181574 0.51877,0.02102 3.87071,0.155733 c 0.65123,0.111287 1.22411,0.602259 1.70303,1.459822 2.98663,5.349352 2.73653,27.970225 2.36959,32.917152 h 0.0738 c 0.16529,0 0.3139,0.08131 0.42858,0.211548 0.13407,0.152288 0.22022,0.37176 0.22022,0.619141 0,0.45893 -0.29048,0.830345 -0.6488,0.830345 h -5.19227 c -0.35859,0 -0.64907,-0.371415 -0.64907,-0.830345 0,-0.458584 0.29048,-0.830689 0.64907,-0.830689 h 3.03589 c 0.12303,-1.104945 0.23421,-4.057666 0.24256,-7.814891 l -10.08087,4.398417 C 105.97537,52.019629 104.01417,44.270546 103.32229,43.208324 101.94205,41.088705 84.194602,27.422466 76.309151,26.749577 68.746214,26.103217 57.091004,32.565437 47.72624,37.756989 l -1.326671,0.734907 -5.668501,15.053707 -0.533845,-0.05065 z m 102.210158,0.826211 c -0.11468,-1.196938 -0.24929,-2.339782 -0.40543,-3.402692 6.37518,5.767624 10.86669,9.885929 10.86669,9.885929 l -0.25979,3.987034 -9.59494,4.186524 c -0.007,-4.217188 -0.13756,-9.164804 -0.50665,-13.549784 3.01031,2.476909 6.02601,4.943482 9.06352,7.370088 -3.03751,-2.858661 -6.09763,-5.673221 -9.1634,-8.477099"
         fill="#0b0b09"
         id="path2"
         style="stroke-width:0.304556" />
      <path
         style="fill:#000080;stroke-width:0.410781"
         d="m 114.27324,63.715914 c 0,-0.456422 0.47925,-0.616171 1.84852,-0.616171 h 1.84851 v -4.113319 -4.11332 l -1.33504,0.562462 c -0.73427,0.309355 -2.95237,1.267016 -4.92911,2.128139 -1.97673,0.861124 -3.65386,1.488538 -3.72694,1.39426 -0.0731,-0.09428 -0.91247,-3.221465 -1.86531,-6.9493 -0.95283,-3.727835 -2.04848,-7.421919 -2.43476,-8.209074 -1.86443,-3.799287 -17.343421,-14.22938 -24.694752,-16.639883 -3.019932,-0.990237 -7.010884,-0.653068 -11.985848,1.012603 -4.631154,1.55056 -19.976902,9.30578 -20.7356,10.479068 -0.29465,0.455662 -1.671448,3.877512 -3.05955,7.60411 -1.388103,3.726598 -2.583086,6.834893 -2.655518,6.907326 -0.07243,0.07243 -5.219307,-3.217748 -11.4375,-7.311514 C 19.607559,39.595121 17.731785,38.199401 17.34835,37.09948 16.960534,35.98699 17.001856,35.709707 17.624061,35.249363 20.502395,33.119802 71.402793,2.9531259 75.369008,1.0261907 L 77.22662,0.12369284 79.832181,1.9908493 C 83.109677,4.3395175 93.753106,13.365382 103.38756,21.966334 l 7.39405,6.600884 2.1836,0.01347 c 1.20098,0.0074 2.55681,0.213205 3.01294,0.45732 2.15623,1.153981 3.20822,7.262464 3.46073,20.095189 0.10447,5.309341 0.25422,10.901092 0.33277,12.426116 l 0.14283,2.772769 h -2.82062 c -2.23336,0 -2.82062,-0.128287 -2.82062,-0.616171 z m 2.87547,-26.213225 c 0,-0.718736 -2.22653,-2.949398 -9.13987,-9.156837 C 99.403259,20.618964 79.575956,3.1625724 78.037443,1.9583821 77.419506,1.4747221 75.874379,2.2684668 65.303242,8.5000409 43.799785,21.176108 18.391443,36.776802 18.717983,37.103342 19.159519,37.544878 47.483777,21.907751 70.868774,8.31217 c 3.352032,-1.9488051 6.179238,-3.5432819 6.282681,-3.5432819 0.103447,0 5.217058,4.3138132 11.363578,9.5862519 10.783929,9.250369 28.320007,24.05255 28.530977,24.08296 0.0565,0.0081 0.1027,-0.412793 0.1027,-0.935411 z m -0.82156,-4.62233 c 0,-0.785937 -0.98308,-1.821508 -1.72918,-1.821508 -0.87482,0 -0.87444,0.0046 0.0861,1.026952 0.90582,0.964193 1.64313,1.32073 1.64313,0.794556 z"
         id="path20" />
      <path
         style="fill:#000080;stroke-width:0.410781"
         d="m 120.43495,47.934455 c 0,-3.144533 -0.12958,-6.05502 -0.28796,-6.46775 -0.15838,-0.412729 1.67748,0.866111 4.07968,2.841868 2.4022,1.975757 4.51893,3.585483 4.70385,3.577169 0.18492,-0.0083 -1.72816,-1.995466 -4.25129,-4.415893 -3.04598,-2.922005 -4.67462,-4.796797 -4.84677,-5.579326 l -0.25927,-1.17855 1.01053,0.76777 c 0.55579,0.422273 2.86534,2.431431 5.13232,4.464796 l 4.1218,3.697026 -0.0802,2.041913 -0.0802,2.041913 -4.3132,1.931476 c -2.37226,1.062312 -4.45183,1.945751 -4.62128,1.963198 -0.16945,0.01745 -0.30809,-2.541077 -0.30809,-5.68561 z"
         id="path22" />
      <path
         style="fill:#000080;stroke-width:0.410781"
         d="M 74.427519,121.44155 C 70.392252,120.14794 56.765253,116.38415 44.645921,113.21584 25.942798,108.32636 21.179678,106.99382 14.343737,104.73846 8.7060338,102.87842 8.6825425,102.86542 6.8125563,100.56982 0.32948761,92.611167 -1.4827391,79.988925 1.9271236,66.542543 2.9284935,62.593762 5.1318016,57.42374 6.5403965,55.717582 l 0.8380287,-1.015061 2.8186918,1.871978 c 4.885743,3.244769 4.322183,3.227105 7.131878,0.223533 2.5711,-2.748514 4.869855,-4.04624 8.103366,-4.574628 2.120172,-0.346457 4.292404,0.563883 10.189216,4.270103 2.203679,1.385039 4.069916,2.455026 4.147194,2.377748 0.07728,-0.07728 1.763334,-4.460502 3.746792,-9.740499 l 3.606285,-9.599994 2.048284,-1.209189 c 3.83667,-2.264956 14.773418,-7.590698 17.78548,-8.66079 4.762677,-1.692035 8.211218,-2.088038 11.060655,-1.270117 2.95125,0.847146 8.614194,3.793783 13.452993,7.000081 4.818618,3.192927 10.5633,7.797693 11.15054,8.937945 0.76852,1.492225 7.28708,27.792932 6.96759,28.112417 -0.0651,0.06513 -1.14878,-0.353304 -2.40811,-0.929847 -3.74247,-1.713358 -7.667928,-2.355975 -13.034289,-2.133771 -5.958016,0.246702 -9.894042,1.210028 -14.583358,3.569211 l -3.697671,1.86029 -0.01265,-22.263898 C 75.844412,40.297951 75.706014,30.146534 75.543871,29.984389 75.381724,29.822245 75.112884,29.825761 74.94644,29.992189 74.78,30.15863 74.641361,40.345152 74.638354,52.628903 l -0.0055,22.334095 -1.232342,-0.810134 C 66.278234,69.470701 58.500628,66.437775 51.013021,65.422716 l -1.848513,-0.250594 1.232342,1.013314 c 0.959998,0.789376 22.03018,15.875984 30.122341,21.568114 1.33376,0.938182 3.263172,3.521549 2.891921,3.872109 -0.0835,0.07884 -9.923771,-6.50184 -21.867285,-14.62373 C 49.600313,68.880035 39.750794,62.312404 39.656003,62.407194 c -0.09479,0.09479 0.249758,1.629564 0.765663,3.410608 0.797329,2.752587 0.93193,4.131586 0.897473,9.194581 -0.0343,5.040381 -0.206327,6.579901 -1.118676,10.011464 -1.328163,4.995528 -3.757092,10.107833 -6.028251,12.688008 -1.882971,2.139165 -1.827967,2.381745 0.24899,1.09812 3.451227,-2.132975 7.379582,-7.720426 9.49868,-13.510334 l 0.983734,-2.687816 -0.255744,2.259294 c -0.14066,1.242611 -0.804502,3.902457 -1.4752,5.910772 -0.670702,2.008315 -1.141781,3.729153 -1.046842,3.824093 0.316733,0.316732 2.896288,-4.560615 4.062342,-7.680962 l 1.151295,-3.080855 -0.237858,2.206241 c -0.20652,1.91554 -1.433835,6.311255 -2.480709,8.884837 -0.284359,0.699058 -0.241153,0.746052 0.289752,0.315167 0.960221,-0.779316 2.849849,-4.475623 3.930177,-7.687838 l 0.974269,-2.896846 -0.225375,2.355084 c -0.194402,2.031405 -1.435259,6.559177 -2.497037,9.111464 -0.222922,0.53586 -0.182058,0.696623 0.12832,0.504796 0.797473,-0.492863 2.871977,-4.472629 3.991905,-7.658147 l 1.083134,-3.080855 -0.243548,2.440498 c -0.133951,1.342275 -0.758666,3.980587 -1.388262,5.86292 -0.629595,1.882333 -0.966571,3.363041 -0.748841,3.290464 0.574588,-0.19153 3.014765,-5.026177 3.985756,-7.896856 l 0.833667,-2.464684 -0.219521,2.34631 c -0.120737,1.290471 -0.694371,3.849475 -1.274743,5.686679 -0.580371,1.837204 -0.965486,3.430113 -0.855804,3.539791 0.301012,0.301016 3.505878,-6.353528 4.18887,-8.697718 l 0.598298,-2.0535 -0.187628,2.471158 c -0.157009,2.06789 -1.158562,6.099616 -2.170068,8.735563 -0.162004,0.422167 -0.07994,0.534035 0.244612,0.333455 0.712651,-0.440447 2.516586,-4.12418 3.639648,-7.43237 l 0.976158,-2.875464 -0.206647,2.471158 c -0.173123,2.070256 -1.192796,6.139269 -2.189087,8.735566 -0.162004,0.42216 -0.07994,0.53403 0.244612,0.33345 0.712651,-0.44045 2.516586,-4.124178 3.639648,-7.432368 l 0.976158,-2.875464 -0.211178,2.514487 c -0.116144,1.382971 -0.658991,3.924676 -1.206323,5.648234 -0.547332,1.723561 -0.859308,3.133751 -0.693283,3.133751 0.572308,0 2.663601,-4.320776 3.578783,-7.394056 0.840535,-2.822601 0.918777,-2.94312 0.93338,-1.437732 0.01672,1.723459 -0.903438,6.201206 -1.662873,8.092038 -0.244932,0.60983 -0.374188,1.3222 -0.287234,1.58306 0.262825,0.78848 2.502714,-3.718458 3.481411,-7.005024 0.842429,-2.828952 0.919007,-2.946505 0.936572,-1.437732 0.01762,1.513102 -1.151373,7.156386 -1.864714,9.001866 -0.225917,0.58447 -0.167472,0.70192 0.227736,0.45767 0.730217,-0.45129 2.794788,-5.102423 3.525842,-7.943115 l 0.601679,-2.337983 -0.18707,2.875465 c -0.163174,2.508136 -0.754062,5.420943 -1.666607,8.215613 l -0.268264,0.82156 0.695965,-0.82156 c 0.985882,-1.16379 2.260723,-4.07374 3.149336,-7.188661 l 0.761711,-2.670075 -0.204631,3.110197 c -0.112545,1.710606 -0.560095,4.252309 -0.994553,5.648239 -0.434458,1.39591 -0.638053,2.53803 -0.452434,2.53803 0.574144,0 2.553113,-4.4572 3.348372,-7.541483 l 0.756358,-2.933421 -0.19547,3.286245 c -0.107514,1.807439 -0.49046,4.269789 -0.851002,5.471909 -0.360538,1.20211 -0.58505,2.39708 -0.498914,2.65549 0.251862,0.75559 2.273647,-3.74964 3.186422,-7.100447 l 0.839237,-3.080855 -0.201866,3.286245 c -0.11103,1.807437 -0.47966,4.201877 -0.819187,5.320977 -1.179154,3.88661 0.321457,2.53045 1.777621,-1.60651 0.480527,-1.36517 1.035471,-3.31396 1.233204,-4.330638 l 0.359524,-1.848513 0.045,2.173917 c 0.02477,1.195654 -0.243741,3.571844 -0.596659,5.280424 -0.352914,1.70857 -0.55066,3.19751 -0.439437,3.30873 0.54502,0.54502 2.848074,-5.60908 3.259245,-8.709168 0.08989,-0.677788 0.187291,-0.03081 0.216436,1.437728 0.02912,1.46855 -0.207727,3.87161 -0.526378,5.34015 -0.553071,2.5489 -0.541742,2.70234 0.249611,3.38097 0.808182,0.69306 0.811357,0.7652 0.126565,2.87547 -1.021529,3.14797 -3.437642,7.61974 -4.619093,8.54907 -1.120991,0.88177 -1.083717,0.87587 -2.554649,0.40433 z M 22.449403,103.13734 c 5.518116,-1.43728 10.044208,-5.425156 12.928136,-11.390784 2.344402,-4.849574 3.327577,-9.254556 3.597478,-16.118002 0.244374,-6.214319 -0.195563,-10.303382 -1.511284,-14.046843 -1.077115,-3.064585 -2.367069,-4.63967 -4.989141,-6.091936 -1.965201,-1.08845 -2.587122,-1.221187 -5.697631,-1.216053 -2.977648,0.0049 -3.797818,0.166507 -5.571605,1.097736 -5.959469,3.128689 -9.112696,10.823623 -8.721769,21.284047 0.198346,5.307348 0.928459,7.544053 3.139806,9.618795 2.718513,2.550587 7.900152,1.635634 10.956124,-1.93458 2.252171,-2.631157 3.182779,-5.573718 3.209668,-10.148899 0.01896,-3.226768 -0.143012,-4.278412 -0.935545,-6.074093 -1.652114,-3.743278 -4.175314,-4.766117 -7.047994,-2.857071 -3.942916,2.620274 -4.277865,8.806238 -0.678214,12.525495 2.139178,2.210255 3.856295,1.644195 4.250111,-1.401078 l 0.203949,-1.577082 -0.628422,1.643123 c -0.345633,0.903717 -0.631206,1.689335 -0.634608,1.745818 -0.0034,0.05648 -0.356738,0.102695 -0.785192,0.102695 -1.074961,0 -3.189151,-2.519433 -3.786072,-4.511777 -0.972352,-3.245422 1.57959,-7.811643 4.365727,-7.811643 5.426488,0 5.677712,13.210086 0.334975,17.614024 -3.541366,2.91909 -7.07447,2.503368 -8.793,-1.034633 -2.023266,-4.165373 -1.382262,-13.803196 1.267105,-19.051562 3.550324,-7.033153 12.075879,-8.845405 16.721423,-3.554423 2.554482,2.909395 3.853409,10.503277 3.055283,17.862031 C 35.093399,92.611685 28.083557,101.3136 17.778174,101.29833 12.834042,101.29101 9.0786957,98.649655 6.6873451,93.497513 4.7387112,89.299199 4.134229,86.40437 3.889025,80.09652 3.5151677,70.479097 4.7192977,64.455427 8.632472,56.367378 c 0.097197,-0.200895 -0.056,-0.221434 -0.3404386,-0.04564 -0.8340819,0.515491 -3.1723736,5.946675 -4.0795092,9.475534 -1.2231571,4.758219 -1.655003,8.388625 -1.6580887,13.939089 -0.00956,17.19914 7.9157995,26.521159 19.8949675,23.400979 z"
         id="path24" />
      <path
         style="fill:#000080;stroke-width:0.410781"
         d="m 83.875475,124.88585 c -2.372259,-1.00034 -4.743402,-2.0047 -5.269207,-2.23191 l -0.956009,-0.4131 1.024875,-1.218 c 4.781717,-5.68274 8.052341,-22.964352 5.657934,-29.895884 l -0.747929,-2.165166 0.864034,0.243177 c 1.848231,0.520172 5.864128,2.660331 6.672624,3.555986 1.149142,1.273023 3.364603,6.780508 4.074134,10.128017 1.480292,6.9839 0.01071,14.59779 -4.134708,21.42189 -0.91097,1.49962 -1.763317,2.44699 -2.183427,2.42684 -0.379019,-0.0182 -2.630063,-0.85151 -5.002321,-1.85185 z"
         id="path26" />
      <path
         style="fill:#000080;stroke-width:0.410781"
         d="m 131.32064,146.6485 c -3.38894,-1.65315 -6.29683,-3.01247 -6.46197,-3.02073 -0.16514,-0.008 -0.41164,0.49333 -0.54778,1.11463 -0.41638,1.90024 -0.56941,2.21762 -0.9545,1.97962 -0.2172,-0.13424 -0.1934,-0.92717 0.0575,-1.91566 0.34179,-1.34657 0.3124,-1.7585 -0.14577,-2.04312 -0.64847,-0.40283 -0.62011,-0.46692 -0.98317,2.2222 -0.34677,2.56845 -0.82305,2.0702 -0.82305,-0.861 0,-3.19536 -0.94228,-3.41911 -1.10834,-0.26318 -0.0682,1.29616 -0.33092,2.42483 -0.5838,2.50815 -0.32277,0.10634 -0.39814,-0.71036 -0.25289,-2.74031 0.17792,-2.48671 0.11285,-2.89181 -0.46446,-2.89181 -0.55736,0 -0.67137,0.48828 -0.67137,2.87546 0,4.01465 -0.76218,3.61124 -0.90764,-0.48041 -0.0846,-2.37861 -0.2817,-3.40967 -0.67695,-3.54059 -0.44809,-0.14842 -0.52879,0.50995 -0.41078,3.35142 0.10426,2.51035 0.002,3.59163 -0.35197,3.72746 -0.36523,0.1401 -0.53025,-0.86742 -0.61617,-3.76196 -0.0878,-2.95866 -0.26305,-4.00163 -0.69646,-4.1454 -0.48311,-0.16026 -0.53619,0.4614 -0.32019,3.74966 0.14241,2.16797 0.10311,4.03806 -0.0873,4.15576 -0.44667,0.27606 -0.8516,-2.19856 -0.85736,-5.23954 -0.004,-2.30502 -0.50165,-3.97811 -1.18241,-3.97811 -0.34804,0 -0.18959,3.31124 0.32925,6.88058 0.28578,1.96601 0.0316,2.7501 -0.57392,1.77036 -0.13129,-0.21243 -0.44686,-2.43065 -0.70126,-4.92937 -0.35454,-3.48231 -0.60163,-4.54313 -1.05821,-4.54313 -0.48545,0 -0.546,0.47502 -0.32728,2.56738 0.14761,1.41206 0.46024,3.55761 0.69475,4.7679 0.26975,1.39222 0.28279,2.34408 0.0355,2.59137 -0.47346,0.47346 -1.21238,-3.03075 -1.5914,-7.54697 l -0.26569,-3.16585 -3.12477,-1.48473 c -1.71862,-0.81659 -5.849943,-2.70391 -9.180716,-4.19405 l -6.055951,-2.70932 0.852902,-1.26649 c 0.469096,-0.69657 1.530612,-2.69638 2.358925,-4.44403 1.317052,-2.77885 1.632059,-3.16542 2.510484,-3.08086 0.846731,0.0815 1.114582,-0.19582 1.705742,-1.76613 0.385705,-1.02455 1.084124,-3.61247 1.552042,-5.75093 l 0.850762,-3.8881 -0.0918,6.06741 c -0.0698,4.61243 0.0201,5.91417 0.37486,5.42834 0.53769,-0.73634 2.19729,-7.1045 2.21589,-8.50273 0.0118,-0.8852 0.0386,-0.89416 0.46713,-0.15604 0.45081,0.7765 0.19118,8.53624 -0.33116,9.89744 -0.13,0.33877 -0.0466,0.61595 0.18535,0.61595 0.54282,0 1.59407,-3.18052 2.55054,-7.71652 l 0.75487,-3.57995 0.011,4.51859 c 0.006,2.48522 -0.14975,5.35041 -0.34623,6.3671 -0.19649,1.01668 -0.2831,1.92329 -0.19249,2.01469 0.3451,0.34805 1.89748,-3.81966 2.62873,-7.05744 l 0.76298,-3.37826 0.0248,4.3132 c 0.0137,2.37226 -0.13615,5.00639 -0.33289,5.85362 -0.19675,0.84724 -0.21241,1.54043 -0.0348,1.54043 0.5176,0 1.65193,-3.16959 2.71966,-7.59944 l 0.99012,-4.10781 -0.22369,5.13476 c -0.12303,2.82412 -0.33195,5.78174 -0.46427,6.57249 -0.15549,0.92929 -0.10025,1.29246 0.15622,1.02695 0.64682,-0.66963 1.78056,-3.87968 2.61145,-7.39405 l 0.77696,-3.28624 -0.19765,4.92936 c -0.10871,2.71116 -0.29174,5.57635 -0.40673,6.3671 -0.38076,2.61833 2.14256,-3.15984 2.77862,-6.36277 0.47781,-2.40603 0.61554,-2.69036 0.85026,-1.75516 0.26499,1.05581 -0.186,6.34279 -0.78884,9.24758 -0.15239,0.73427 -0.15131,1.33504 0.002,1.33504 0.59028,0 2.39859,-4.71413 3.11923,-8.13158 l 0.754,-3.57567 0.0265,3.08085 c 0.0251,2.91688 -0.3484,6.13703 -1.01961,8.79036 -0.22558,0.8917 -0.17447,1.11255 0.20342,0.87901 0.73519,-0.45438 2.03088,-3.66982 2.90318,-7.20468 l 0.76027,-3.08086 0.0237,3.28625 c 0.013,1.80743 -0.25496,4.46829 -0.59551,5.913 -0.34055,1.44472 -0.5351,2.71085 -0.43233,2.81362 0.40432,0.40432 2.44394,-4.36187 3.37352,-7.88326 l 0.9817,-3.71883 -0.21053,4.10781 c -0.11579,2.25929 -0.47988,5.11589 -0.80909,6.348 -0.68568,2.56624 -0.57384,2.99789 0.39403,1.52073 1.02426,-1.56321 2.28249,-5.08791 2.88226,-8.07412 l 0.53628,-2.67007 0.0315,3.08085 c 0.0284,2.78 -0.65904,7.26524 -1.40083,9.13987 -0.16118,0.40732 -0.0985,0.71887 0.14453,0.71887 0.67378,0 2.89291,-4.8591 3.56444,-7.80484 l 0.60868,-2.67007 -0.15905,4.10781 c -0.0919,2.37232 -0.43988,4.87245 -0.82376,5.9177 -0.90527,2.46492 -0.5333,2.57542 0.9256,0.27497 1.11928,-1.76492 2.66118,-6.54426 3.05807,-9.47892 0.0917,-0.67779 0.19436,-8.2e-4 0.22822,1.50429 0.0616,2.74073 -0.72017,7.77384 -1.53699,9.89487 -0.65183,1.6926 0.0173,1.35994 1.24096,-0.6169 1.15613,-1.86783 2.20912,-4.78987 2.78641,-7.73229 0.33458,-1.70529 0.35793,-1.62723 0.37794,1.26323 0.019,2.74948 -0.77198,6.82975 -1.79179,9.24256 -0.315,0.74527 -0.27977,0.76663 0.37936,0.22997 1.22559,-0.99786 3.15123,-5.29778 3.94451,-8.80799 0.61656,-2.72828 0.75758,-3.03584 0.77554,-1.69149 0.0369,2.75698 -0.69844,7.40427 -1.5587,9.85188 -0.53918,1.53407 -0.64883,2.26697 -0.32361,2.16306 0.89151,-0.28484 3.59136,-6.2093 4.16498,-9.13948 l 0.56291,-2.87546 0.0386,2.3793 c 0.0818,5.04077 -1.94743,11.33932 -4.7115,14.62423 -0.60668,0.721 -1.00346,1.4105 -0.88173,1.53223 0.44733,0.44733 1.84597,-0.68115 3.49771,-2.82211 4.81959,-6.24709 5.77156,-13.96307 2.78297,-22.55677 -1.49256,-4.29187 -1.78301,-4.59463 -5.4386,-5.66916 -3.98049,-1.17004 -22.84549,-7.72292 -36.21617,-12.57993 -9.75576,-3.543858 -10.005947,-3.663104 -10.582989,-5.044161 -0.325058,-0.777973 -0.531357,-1.474153 -0.458443,-1.547068 0.07291,-0.07291 1.138236,0.251715 2.367381,0.721398 6.113461,2.336087 14.759961,5.212991 14.903981,4.958921 0.0894,-0.15776 0.28862,-1.48838 0.44266,-2.956921 0.33191,-3.164373 3.03126,-22.710938 3.36114,-24.338754 0.21196,-1.045954 0.37681,-1.129647 2.22502,-1.129647 h 1.99609 l 0.21294,1.745818 c 0.11711,0.9602 0.86998,8.294773 1.67304,16.29905 0.80306,8.004279 1.50418,14.580814 1.55805,14.614534 0.0539,0.0337 3.24042,1.13707 7.08122,2.4519 13.57022,4.64555 15.46645,5.75237 17.60953,10.27864 1.60124,3.38186 2.31333,6.73311 2.31333,10.88701 0,6.94884 -2.26914,12.52671 -7.00832,17.22747 -4.60677,4.56943 -4.06755,4.52125 -11.27142,1.00716 z m -9.943,-44.83268 c -0.12666,-1.29909 -0.4033,-2.639265 -0.61475,-2.978159 -0.27779,-0.44521 -0.32119,-0.331236 -0.15642,0.410781 0.12543,0.564823 0.23057,1.904998 0.23366,2.978158 0.003,1.07317 0.1771,1.95121 0.38671,1.95121 0.21679,0 0.28181,-1.01833 0.1508,-2.36199 z m -1.70182,-2.156597 -0.37716,-2.259294 -0.048,2.533783 c -0.0513,2.707808 0.46244,4.965818 0.68525,3.011758 0.0644,-0.56483 -0.0526,-2.04364 -0.26006,-3.286247 z m -1.40424,-0.913399 c -0.0868,-0.966171 -0.159,-0.277865 -0.16049,1.529566 -0.001,1.80744 0.0695,2.59794 0.15777,1.75668 0.0883,-0.84126 0.0895,-2.320074 0.003,-3.286246 z m -1.12916,0.810704 c -0.004,-2.339753 -0.12957,-3.198179 -0.40449,-2.77277 -0.71369,1.104359 -0.48892,6.161712 0.27385,6.161712 0.0753,0 0.1341,-1.52503 0.13064,-3.388942 z m -1.74631,-2.043046 c -0.0868,-0.966171 -0.15899,-0.277865 -0.16048,1.52957 -0.001,1.807438 0.0695,2.597938 0.15777,1.756678 0.0883,-0.841265 0.0895,-2.320076 0.003,-3.286248 z m -1.12287,1.050325 c 0,-1.732124 -0.0684,-3.072296 -0.15191,-2.978159 -0.42094,0.474278 -0.68272,6.127482 -0.28374,6.127482 0.26914,0 0.43565,-1.20376 0.43565,-3.149323 z m -1.31139,-1.985439 -0.0181,-1.232342 -0.31358,1.232342 c -0.17247,0.677788 -0.31231,2.064173 -0.31076,3.080855 l 0.003,1.848517 0.32892,-1.848517 c 0.1809,-1.016682 0.32075,-2.403067 0.31076,-3.080855 z"
         id="path28" />
      <path
         style="fill:#000080;stroke-width:0.410781"
         d="m 114.46805,68.833553 c -0.53316,-0.862675 0.49357,-1.260488 2.92887,-1.134813 1.82337,0.09409 2.42186,0.277251 2.42186,0.741152 0,0.773898 -4.89323,1.1339 -5.35073,0.393661 z"
         id="path30" />
      <path
         style="fill:#000080;stroke-width:0.205953"
         d="m 113.99127,66.43062 c -0.0723,-0.188433 -0.0373,-0.492196 0.0778,-0.67503 0.16967,-0.269563 0.67243,-0.343703 2.65869,-0.392069 3.08686,-0.07517 3.42274,-0.0011 3.33773,0.736176 l -0.0645,0.559189 -2.93912,0.05717 c -2.58384,0.05026 -2.95502,0.01575 -3.07059,-0.285435 z"
         id="path32" />
      <path
         style="fill:#000080;stroke-width:0.205953"
         d="m 114.0393,71.121458 c -0.0678,-0.213648 -0.064,-0.543005 0.008,-0.731904 0.11592,-0.302074 0.48246,-0.336585 3.04249,-0.286455 l 2.91069,0.057 v 0.617861 0.61786 l -2.9192,0.05705 c -2.70707,0.0529 -2.92815,0.02882 -3.04248,-0.331405 z"
         id="path34" />
    </g>
  </g>
</svg>
