<?xml version="1.0" encoding="UTF-8" standalone="no"?>
<svg
   xmlns:dc="http://purl.org/dc/elements/1.1/"
   xmlns:cc="http://creativecommons.org/ns#"
   xmlns:rdf="http://www.w3.org/1999/02/22-rdf-syntax-ns#"
   xmlns:svg="http://www.w3.org/2000/svg"
   xmlns="http://www.w3.org/2000/svg"
   xmlns:sodipodi="http://sodipodi.sourceforge.net/DTD/sodipodi-0.dtd"
   xmlns:inkscape="http://www.inkscape.org/namespaces/inkscape"
   version="1.1"
   id="Layer_1"
   x="0px"
   y="0px"
   viewBox="0 0 350 225"
   enable-background="new 0 0 1280 822"
   xml:space="preserve"
   sodipodi:docname="propuestaCurso.svg"
   inkscape:version="1.0.1 (3bc2e813f5, 2020-09-07)"
   width="350"
   height="225"><metadata
   id="metadata9"><rdf:RDF><cc:Work
       rdf:about=""><dc:format>image/svg+xml</dc:format><dc:type
         rdf:resource="http://purl.org/dc/dcmitype/StillImage" /><dc:title></dc:title></cc:Work></rdf:RDF></metadata><defs
   id="defs7" /><sodipodi:namedview
   pagecolor="#ffffff"
   bordercolor="#666666"
   borderopacity="1"
   objecttolerance="10"
   gridtolerance="10"
   guidetolerance="10"
   inkscape:pageopacity="0"
   inkscape:pageshadow="2"
   inkscape:window-width="1366"
   inkscape:window-height="705"
   id="namedview5"
   showgrid="false"
   inkscape:zoom="0.62652068"
   inkscape:cx="640"
   inkscape:cy="411"
   inkscape:window-x="-8"
   inkscape:window-y="-8"
   inkscape:window-maximized="1"
   inkscape:current-layer="Layer_1"
   inkscape:document-rotation="0"
   showborder="false" />

<path
   style="fill:#000080;stroke-width:0.419197"
   d="m 0.77344265,223.21258 c -1.02526442,-3.56639 -0.52098527,-15.64321 0.63458855,-15.19757 0.5497306,0.21201 7.3753914,-8.29333 7.3704774,-9.18421 -0.00159,-0.2849 -0.669708,-0.97442 -1.4847478,-1.53228 -1.2056258,-0.8252 -1.380495,-1.11246 -0.9380031,-1.54092 0.6591473,-0.63824 9.2822743,-3.36648 17.2523953,-5.45844 6.997343,-1.83661 8.828751,-1.80687 11.593239,0.1883 2.216285,1.59952 2.960294,1.43963 3.864103,-0.83045 0.973336,-2.44468 0.811923,-4.46708 -0.595077,-7.45599 -1.484994,-3.1546 -1.500982,-3.29387 -0.417831,-3.63936 1.120586,-0.35743 1.053449,-1.24082 -0.222029,-2.92137 -0.92639,-1.22057 -0.996128,-1.53169 -0.559314,-2.49516 0.274469,-0.60538 0.366688,-1.23369 0.204934,-1.39626 -0.161756,-0.16256 -2.591517,-0.28375 -5.399469,-0.26933 -5.10771,0.0263 -28.1392751,2.98512 -30.6231101,3.93416 -0.59943559,0.22904 -1.17171895,0.41642 -1.27174087,0.41642 C 0.08183615,175.83012 0,174.90752 0,173.77991 c 0,-2.39159 0.2435513,-2.55446 5.4360835,-3.63512 10.3148625,-2.14672 23.1258535,-3.54012 33.6619025,-3.66126 l 7.108725,-0.0817 0.01934,-9.25872 c 0.01482,-7.07993 0.1817,-9.95094 0.709237,-12.20037 2.390911,-10.1949 2.924417,-12.83117 2.97652,-14.70831 l 0.05832,-2.10119 -2.722883,-0.23565 c -3.287475,-0.28452 -6.503884,-1.78222 -7.616287,-3.54647 -1.065761,-1.69029 -0.790059,-4.39868 1.13029,-11.10363 2.657138,-9.27748 8.977755,-20.872398 13.551504,-24.859707 4.321249,-3.76718 11.207111,-6.089303 16.98355,-5.727368 5.903715,0.369909 9.277288,2.23833 19.437704,10.765388 10.475194,8.791217 14.644694,13.997187 14.640794,18.280247 -0.005,5.36493 -7.454392,9.56869 -24.588176,13.87514 -8.000895,2.01094 -9.939956,2.33234 -16.599048,2.75114 -3.219832,0.2025 -6.176551,0.49447 -6.570487,0.64882 -1.706463,0.6686 -4.381405,11.24691 -4.780085,18.90324 -0.285549,5.48389 0.48623,18.79814 1.163372,20.06967 0.231064,0.43392 2.218102,1.65641 4.41562,2.71667 2.197524,1.06026 4.865546,2.59596 5.928939,3.41266 2.152221,1.65296 3.689267,1.8482 5.822493,0.73957 0.713032,-0.37054 1.847246,-0.67373 2.520471,-0.67373 0.673223,0 1.476125,-0.30525 1.784227,-0.67833 0.474318,-0.57437 1.363487,-0.65487 5.800907,-0.5253 l 5.24072,0.15304 0.111452,-1.68096 c 0.199066,-3.00217 0.478688,-3.59932 1.980794,-4.23005 0.789388,-0.33147 1.625642,-0.60267 1.858344,-0.60267 0.628819,0 2.165719,3.25779 2.205836,4.67576 0.07841,2.77163 -1.623548,4.23397 -5.30631,4.55921 -2.384669,0.21061 -2.512231,0.28048 -2.880687,1.57779 -0.282825,0.99582 -0.234297,1.54054 0.182168,2.04485 0.517156,0.6262 1.983533,0.65503 16.4709,0.32353 8.74676,-0.20015 17.31449,-0.36168 19.0394,-0.35893 3.29793,0.005 5.63921,0.69711 6.25185,1.84749 0.33231,0.62402 1.19041,6.38791 1.91392,12.85584 0.40073,3.58238 0.77854,4.14385 2.58966,3.84848 1.99043,-0.32461 2.87728,-1.23075 3.71203,-3.79284 1.81327,-5.56542 5.41003,-11.25553 10.65169,-16.85103 2.88783,-3.08279 3.73392,-4.25578 3.73392,-5.17655 0,-2.14927 0.83554,-2.77887 3.29871,-2.4857 l 2.16857,0.25811 -0.25712,-1.37742 c -0.23725,-1.27088 -0.0631,-1.5579 2.24978,-3.70994 2.99662,-2.78812 5.35808,-4.00986 8.83963,-4.57334 3.83593,-0.62082 8.24206,0.365 11.24913,2.51686 0.63585,0.45502 2.42563,1.30753 3.97728,1.89447 1.55163,0.58694 3.32558,1.42409 3.9421,1.86038 1.91832,1.35744 2.89533,1.46478 4.70493,0.51688 0.91782,-0.48078 2.39422,-0.87413 3.28088,-0.87413 0.88667,0 6.4534,0.75642 12.37051,1.68094 5.9171,0.92452 11.6964,1.68096 12.84288,1.68096 2.68592,0 4.5847,-0.92648 5.94668,-2.90158 1.95263,-2.83164 3.3121,-3.83348 6.08353,-4.48322 3.42276,-0.80246 4.60528,-1.70831 6.23063,-4.77292 2.26537,-4.27137 2.57688,-10.94211 1.3064,-27.97496 -0.20687,-2.77356 -0.50495,-9.27213 -0.66241,-14.44125 l -0.28627,-9.39842 -1.20306,-1.37701 c -1.55549,-1.7804 -2.72818,-4.500773 -3.07856,-7.141585 -0.43328,-3.265566 -0.57267,-3.516356 -2.21881,-3.992096 -2.47909,-0.716478 -9.8097,-1.035122 -10.85685,-0.471918 -0.52192,0.280709 -1.09438,1.197642 -1.35501,2.170378 -0.24822,0.926379 -1.43476,3.13742 -2.63676,4.913423 -1.76852,2.613048 -2.62252,3.459878 -4.47628,4.438748 -1.97271,1.04166 -2.65316,1.18722 -4.89984,1.04818 -3.0071,-0.1861 -4.23098,-0.92321 -6.20001,-3.73408 -1.52386,-2.175376 -2.14336,-2.372557 -4.4898,-1.42903 l -1.74968,0.70356 -1.07849,-1.29829 c -0.64946,-0.781816 -1.48225,-1.30387 -2.09344,-1.312326 -0.77357,-0.01078 -1.31328,-0.527577 -2.26943,-2.173395 -1.84618,-3.177839 -2.39443,-3.374704 -4.12146,-1.479873 -1.80761,1.983265 -3.55258,2.120146 -5.23262,0.410476 -0.66309,-0.674773 -2.50376,-4.361321 -4.4235,-8.859502 l -3.28787,-7.703848 -1.4137,0.266529 c -1.79231,0.337908 -4.84157,-1.111964 -6.25487,-2.974099 -0.54672,-0.720366 -1.63039,-2.938723 -2.40815,-4.92969 -2.09353,-5.359198 -6.40777,-12.885333 -7.3863,-12.885333 -1.15497,0 -1.46121,1.819466 -0.65387,3.884946 0.37132,0.949988 0.57911,1.823739 0.46178,1.941663 -0.57113,0.573975 -4.16688,-3.828626 -5.76278,-7.055918 -1.66576,-3.36855 -2.70581,-3.899614 -1.37679,-0.703002 0.52161,1.254575 0.53095,1.512072 0.0551,1.512072 -0.91513,0 -3.03719,-2.384493 -3.57238,-4.014177 -0.70212,-2.138008 -0.2388,-3.358647 2.09487,-5.518995 1.39502,-1.291415 2.68508,-3.136798 4.0163,-5.745077 3.37236,-6.607615 9.00945,-16.760268 10.76668,-19.391328 2.45864,-3.681201 6.1904,-7.217084 10.937,-10.362894 2.2999,-1.524242 6.5918,-4.7605288 9.53757,-7.1917478 6.26606,-5.1715211 6.78145,-5.36104376 13.51067,-4.96826213 4.64521,0.27113971 4.65375,0.27362045 10.03584,2.91924493 9.15933,4.5023595 14.0888,7.722305 20.18349,13.18393 2.69525,2.415298 2.81293,2.471702 4.60615,2.207678 1.33011,-0.195835 2.29523,-0.06475 3.48159,0.472882 1.90507,0.86334 2.39675,0.494912 2.40773,-1.804173 0.0117,-2.445714 0.71721,-1.836955 2.31845,2.000446 1.34088,3.21349 1.71706,3.774896 2.45814,3.668507 0.74135,-0.106425 0.89429,-0.462585 1.00138,-2.331857 0.14875,-2.596412 0.64796,-2.824498 1.37968,-0.630355 0.60386,1.810692 0.68673,5.253096 0.19999,8.307524 -0.32621,2.04706 -0.28525,2.173654 1.39429,4.308965 2.21766,2.819488 2.46393,3.548839 2.2321,6.610395 -0.23051,3.044229 0.19446,3.558693 3.79469,4.593715 1.64607,0.473229 3.02323,1.243941 4.24487,2.375587 2.50296,2.318611 4.66804,2.635532 13.62614,1.994574 10.71148,-0.766415 21.59951,0.434056 31.45894,3.468535 6.51597,2.005444 9.13941,3.509214 18.6935,10.715201 9.60491,7.244326 14.19561,11.613154 17.34645,16.508044 1.01236,1.572722 4.49443,5.963509 7.73792,9.757307 3.24348,3.793793 6.35205,7.843342 6.90793,8.998992 2.35203,4.889629 2.29611,3.234929 2.29648,67.969709 v 59.56495 l -174.35655,0.005 -174.3566111,0.005 z M 208.62139,214.91233 c 5.3824,-0.456 9.87857,-0.92193 9.99151,-1.03541 0.16622,-0.16708 -5.06877,-2.74686 -5.57407,-2.74686 -0.0797,0 -4.06084,-1.77357 -8.84691,-3.94126 -8.74674,-3.96154 -15.53707,-6.34564 -25.21932,-8.85454 -4.52945,-1.17367 -5.24483,-1.47571 -5.36054,-2.26312 -0.0765,-0.52114 -0.52793,-1.0082 -1.05825,-1.14196 -1.29507,-0.32664 -4.50964,0.46585 -6.37429,1.5715 -1.32245,0.78413 -2.36148,0.95937 -6.58637,1.11073 l -5.0162,0.17975 -1.15171,-1.41815 -1.15171,-1.41814 -1.06063,1.00137 c -0.96528,0.91133 -1.17664,0.95306 -2.35118,0.46411 -1.97525,-0.82223 -2.63301,-2.47869 -2.17963,-5.48904 0.20658,-1.37173 0.25296,-2.49408 0.10302,-2.49408 -0.87063,0 -4.25949,4.80018 -6.41566,9.08748 l -1.08307,2.15354 1.70371,0.22964 c 2.13204,0.2874 4.16913,2.18055 5.58677,5.1921 1.10304,2.34324 1.95608,2.80188 4.84737,2.60619 1.9681,-0.13316 2.4587,0.2725 2.4587,2.03319 0,1.49614 0.006,1.50055 1.5681,1.26842 0.86247,-0.12811 2.17966,-0.36574 2.92712,-0.52809 1.3586,-0.2951 1.35903,-0.29462 1.35903,1.4135 0,0.93977 0.16001,1.80807 0.35559,1.92953 0.19557,0.1215 3.49996,-0.057 7.3431,-0.39661 4.76809,-0.42134 7.2364,-0.48361 7.77106,-0.19606 0.43093,0.23178 1.87787,0.42944 3.21543,0.43922 1.33755,0.009 4.68999,0.46505 7.44984,1.01169 6.2956,1.24695 10.28308,1.28749 22.74915,0.23136 z M 68.172487,126.05679 c 9.314265,-1.24632 19.700596,-4.00541 25.400993,-6.74766 7.49241,-3.60432 9.11986,-5.30402 8.63023,-9.01336 -0.48589,-3.68101 -1.24897,-4.43648 -5.472259,-5.41772 -15.147553,-3.51937 -27.118996,-1.68159 -44.693401,6.86105 -4.052202,1.96972 -6.072708,3.23677 -7.840507,4.91678 -2.230292,2.11953 -2.381514,2.38696 -2.381514,4.21155 0,2.38529 1.455287,4.37697 3.475028,4.75583 5.821984,1.09211 16.454114,1.29355 22.88143,0.43353 z"
   id="path11" /></svg>
