<?xml version="1.0" encoding="UTF-8" standalone="no"?>
<svg
   xmlns:dc="http://purl.org/dc/elements/1.1/"
   xmlns:cc="http://creativecommons.org/ns#"
   xmlns:rdf="http://www.w3.org/1999/02/22-rdf-syntax-ns#"
   xmlns:svg="http://www.w3.org/2000/svg"
   xmlns="http://www.w3.org/2000/svg"
   xmlns:sodipodi="http://sodipodi.sourceforge.net/DTD/sodipodi-0.dtd"
   xmlns:inkscape="http://www.inkscape.org/namespaces/inkscape"
   id="svg3027"
   sodipodi:docname="vocabulario.svg"
   xml:space="preserve"
   viewBox="0 0 299.99999 300.00001"
   version="1.1"
   inkscape:version="1.0.1 (3bc2e813f5, 2020-09-07)"
   width="300"
   height="300">
  <defs
   id="defs3031">
    <clipPath
   id="clipPath3043"
   clipPathUnits="userSpaceOnUse">
      <path
   id="path3045"
   d="M 0,595.28 H 841.89 V 0 H 0 Z" />
    </clipPath>
  
      
    </defs>
  <sodipodi:namedview
   id="namedview3029"
   bordercolor="#666666"
   inkscape:pageshadow="2"
   guidetolerance="10"
   pagecolor="#ffffff"
   gridtolerance="10"
   inkscape:window-maximized="1"
   inkscape:zoom="1.4142136"
   objecttolerance="10"
   borderopacity="1"
   inkscape:current-layer="g3035"
   inkscape:cx="222.21728"
   inkscape:cy="147.73059"
   inkscape:window-y="-8"
   inkscape:window-x="-8"
   inkscape:window-width="1366"
   showgrid="false"
   inkscape:pageopacity="0"
   inkscape:window-height="705"
   inkscape:document-rotation="0"
   inkscape:showpageshadow="false"
   showborder="false" />
  <g
   id="g3035"
   inkscape:label="Vocabulary"
   inkscape:groupmode="layer"
   transform="matrix(1.25,0,0,-1.25,0,744.1)">
    
    
  <path
   style="fill:#000080;stroke-width:0.707107"
   d=""
   id="path72"
   transform="matrix(0.8,0,0,-0.8,0,595.28)" /><path
   style="fill:#000080;stroke-width:0.707107"
   d=""
   id="path80"
   transform="matrix(0.8,0,0,-0.8,0,595.28)" /><path
   style="fill:#000080;stroke-width:0.707107"
   d=""
   id="path82"
   transform="matrix(0.8,0,0,-0.8,0,595.28)" /><path
   style="fill:#000080;stroke-width:0.707107"
   d=""
   id="path86"
   transform="matrix(0.8,0,0,-0.8,0,595.28)" /><g
   id="g142"
   transform="matrix(1.0044925,0,0,1.002125,-288.04617,21.136674)"><path
     id="path3037"
     style="fill:none;stroke:#1a171c;stroke-miterlimit:3.864"
     d="m 357.12,433.77 h 1.075 v -0.004 h -1.075 z" /><path
     style="fill:#000080;stroke-width:0.565686"
     d="m 399.53648,484.5375 c -2.48446,7.09722 -5.65703,15.31639 -13.15577,34.08255 -13.69194,34.26509 -15.72392,38.83053 -18.88501,42.43081 -2.24238,2.55393 -4.22541,3.58416 -8.61402,4.47515 -3.18462,0.64656 -3.48382,0.83502 -3.65608,2.30288 -0.10319,0.87928 -0.04,2.3858 0.14043,3.34782 l 0.32804,1.74914 23.33432,-0.13415 23.33432,-0.13414 0.46457,-1.79285 c 0.86575,-3.34105 0.26561,-4.08669 -4.39221,-5.45704 -3.53975,-1.04141 -4.30914,-1.48221 -4.59834,-2.63448 -0.44756,-1.78322 -0.20084,-2.50932 7.69866,-22.6571 8.51141,-21.70849 11.97209,-29.83381 12.82708,-30.11665 0.84488,-0.2795 2.77522,3.90515 8.98645,19.48124 5.71368,14.32835 10.39635,28.06011 10.40527,30.51316 0.0122,3.34172 -2.62738,4.79451 -11.16583,6.14564 l -2.40416,0.38043 0.009,2.63729 c 0.005,1.4505 0.19568,2.89184 0.42427,3.20296 0.263,0.35798 7.51152,0.56569 19.74078,0.56569 h 19.32518 l 0.31644,-1.9799 c 0.55484,-3.47156 -0.007,-4.36238 -3.24184,-5.13707 -6.90589,-1.65401 -8.47563,-3.1805 -13.4262,-13.05625 -7.19235,-14.34783 -23.99462,-53.91057 -27.64956,-65.10386 l -1.24682,-3.81837 h -7.32554 c -5.3513,0 -7.39226,0.19056 -7.57308,0.7071 z"
     id="path62" /><path
     style="fill:#000080;stroke-width:0.565686"
     d="m 323.20552,483.90166 c -6.15033,1.43758 -8.13038,5.26647 -11.08084,21.42745 -1.20152,6.58122 -2.4581,12.29543 -2.79241,12.69825 -0.33431,0.40282 -1.8453,0.89655 -3.35776,1.09718 -2.53113,0.33577 -2.77856,0.50797 -3.10982,2.16427 -0.48125,2.40624 0.17178,2.881 5.59664,4.06884 2.48901,0.545 6.66224,1.62602 9.27383,2.40227 3.4783,1.03386 4.85741,1.23489 5.1561,0.7516 0.22427,-0.36286 0.56983,-2.40366 0.76793,-4.5351 0.56076,-6.03358 3.70338,-23.65968 4.60168,-25.80963 2.32564,-5.56604 13.31991,-3.92885 13.27855,1.97735 -0.0216,3.08005 -3.77937,22.21315 -4.50544,22.93972 -0.3448,0.34505 -2.20537,0.75464 -4.1346,0.9102 l -3.50769,0.28284 -0.17055,2.33462 -0.17055,2.33461 3.8475,0.70788 c 2.11613,0.38933 6.87606,1.57108 10.57763,2.62609 3.70157,1.05502 6.80786,1.84049 6.90286,1.74549 0.095,-0.095 1.33766,-7.03666 2.76147,-15.42589 3.24691,-19.13122 3.05302,-18.21494 4.06932,-19.23124 0.64893,-0.64893 1.53335,-0.76522 3.66706,-0.48217 l 2.81187,0.373 -0.17774,-2.48186 c -0.16707,-2.33275 -0.34767,-2.57485 -3.00617,-4.02976 -4.02118,-2.20065 -14.40502,-6.21755 -15.24218,-5.89631 -0.38719,0.14859 -1.03304,1.4454 -1.43521,2.8818 -0.40217,1.43642 -0.93222,2.73589 -1.1779,2.88773 -0.24568,0.15183 -1.78559,-1.00765 -3.42201,-2.57665 -3.16515,-3.03471 -8.5499,-5.9484 -11.8153,-6.39325 -1.08895,-0.14835 -2.98177,-0.0355 -4.20627,0.25067 z"
     id="path64" /><path
     style="fill:#000080;stroke-width:0.565686"
     d="m 303.08731,429.35841 c -1.17332,0.42891 -3.37248,2.48212 -4.11633,3.84314 -0.34009,0.62225 -2.08249,5.2043 -3.87201,10.18233 -3.44252,9.57635 -3.16147,9.21279 -6.71948,8.6922 -1.22884,-0.17979 -1.4371,0.0295 -1.58887,1.59674 -0.1374,1.4188 0.13418,2.00602 1.27279,2.75207 1.69894,1.11319 1.77747,2.39395 0.361,5.88777 l -1.02324,2.52389 3.71942,3.84007 c 2.04568,2.11204 3.98407,3.83879 4.30754,3.83724 0.32346,-0.002 1.19898,-2.04149 1.94559,-4.53318 2.004,-6.68802 1.83978,-6.57893 6.81527,-4.5272 2.30733,0.95146 4.37088,1.53436 4.58567,1.29535 0.2148,-0.23902 0.54789,-1.48218 0.74021,-2.76257 l 0.34968,-2.32798 -3.81288,-1.41005 c -3.55186,-1.31352 -3.80705,-1.52205 -3.72772,-3.04603 0.13863,-2.66319 4.8256,-15.08345 6.21705,-16.47489 1.70976,-1.70976 4.55763,-1.67592 7.15247,0.085 1.67932,1.13962 2.0704,1.22637 2.34168,0.51942 0.6285,-1.63784 0.31117,-2.86915 -1.31958,-5.12035 -2.82961,-3.90616 -9.61169,-6.32123 -13.62826,-4.85295 z"
     id="path66" /><path
     style="fill:#000080;stroke-width:0.565686"
     d="m 488.86314,484.94048 c -1.27302,0.5666 -5.34595,2.11744 -9.05097,3.44632 -3.70501,1.32888 -6.95958,2.6106 -7.23237,2.84825 -0.90205,0.78587 0.14826,3.34337 1.37304,3.34337 0.6261,0 1.29411,0.4059 1.48448,0.902 0.48868,1.27347 -0.92396,8.71465 -1.6544,8.71465 -1.21675,0 -6.64683,-4.57993 -6.64683,-5.60618 0,-0.57423 0.56666,-1.4203 1.25926,-1.88017 1.13186,-0.75153 1.18748,-0.99369 0.54966,-2.39352 -0.49324,-1.08255 -1.00655,-1.46404 -1.68352,-1.2512 -1.8034,0.56699 -14.54842,5.10429 -14.74563,5.24952 -0.10739,0.0791 -0.0291,0.90021 0.17393,1.82471 0.36648,1.66853 0.39292,1.67882 3.58937,1.39581 2.9056,-0.25726 3.607,-0.0808 7.17997,1.80584 7.82548,4.13219 9.33436,5.30939 9.32869,7.27812 -0.008,2.72084 -2.63119,13.68834 -3.64382,15.23382 -0.49348,0.75313 -1.78353,1.84664 -2.86678,2.43001 -2.16648,1.16673 -2.36551,1.74272 -1.16807,3.38032 0.78791,1.07752 0.84782,1.07814 3.53553,0.0366 1.50373,-0.58271 5.91603,-2.17963 9.80511,-3.54872 3.88909,-1.36909 7.38005,-2.59819 7.75768,-2.73133 0.51567,-0.18179 0.5371,-0.67098 0.0861,-1.96474 -0.43881,-1.25879 -0.95746,-1.72268 -1.92602,-1.72268 -0.72902,0 -1.47476,-0.24152 -1.6572,-0.53671 -0.31673,-0.51248 0.66248,-7.96898 1.10456,-8.41106 0.30996,-0.30996 4.91036,2.94851 6.22615,4.40998 l 1.12607,1.25075 -1.47354,1.2675 c -1.38186,1.18862 -1.42295,1.36407 -0.66037,2.81951 0.58374,1.1141 1.08082,1.44154 1.76169,1.16049 0.52168,-0.21534 3.62137,-1.40784 6.88821,-2.65 3.26683,-1.24216 6.01572,-2.32881 6.10864,-2.41477 0.0929,-0.086 0.002,-0.82273 -0.20275,-1.63726 -0.34387,-1.3701 -0.60171,-1.48097 -3.44417,-1.48097 -3.30615,0 -5.25484,-0.7983 -11.37128,-4.65837 -4.18704,-2.64244 -4.14321,-2.39419 -2.06189,-11.67839 1.74865,-7.80026 2.48655,-9.38939 5.06685,-10.9118 2.23064,-1.31611 2.14308,-1.11296 1.28831,-2.98898 -0.76563,-1.68038 -1.11039,-1.70751 -4.20368,-0.33075 z"
     id="path68" /><path
     style="fill:#000080;stroke-width:0.565686"
     d="m 495.56178,430.72104 c -1.01116,0.64757 -1.83847,1.6006 -1.83847,2.11784 0,0.51723 1.33643,2.00705 2.96984,3.31071 1.63342,1.30365 3.93101,3.35486 5.10576,4.55824 l 2.13591,2.18795 -0.8291,3.35533 c -0.45601,1.84542 -1.64228,6.77398 -2.63617,10.95235 -1.82707,7.68114 -3.14607,10.22206 -5.30632,10.22206 -0.5554,0 -0.87424,0.51577 -0.87424,1.41421 0,1.68806 -0.48394,1.66265 6.50538,0.34156 3.11127,-0.58808 6.62726,-1.23821 7.8133,-1.44473 1.80854,-0.31491 2.12796,-0.57563 1.9799,-1.61606 -0.11186,-0.78598 -0.64294,-1.30681 -1.44934,-1.42134 -1.54417,-0.2193 -1.6057,-1.22965 -0.42598,-6.99473 1.32087,-6.45486 1.41417,-6.75165 2.00717,-6.38515 1.05287,0.65071 5.6313,9.01119 5.6313,10.28309 0,0.73213 -0.59997,1.66469 -1.41421,2.19821 -1.37407,0.90032 -1.85108,2.18353 -0.98995,2.66305 0.23335,0.12993 2.96985,-0.19221 6.08111,-0.71587 4.7736,-0.80346 5.65686,-1.11484 5.65686,-1.99421 0,-0.65911 -0.62368,-1.24323 -1.69706,-1.58944 -2.50716,-0.80865 -2.8895,-1.22513 -7.36451,-8.0223 -5.95567,-9.04617 -17.66563,-24.6188 -18.50393,-24.60769 -0.39532,0.006 -1.54608,0.53936 -2.55725,1.18692 z"
     id="path70" /><path
     style="fill:#000080;stroke-width:0.565686"
     d="m 496.15217,393.74499 c -3.00111,2.7242 -10.50489,10.92158 -10.23997,11.1865 0.22447,0.22446 17.56454,4.7294 18.41771,4.78491 0.0778,0.005 0.14142,0.37256 0.14142,0.81668 0,0.4441 -0.70004,1.3618 -1.55564,2.03932 -1.29866,1.02836 -2.04623,1.18207 -4.52548,0.93046 -3.78073,-0.3837 -3.88887,0.44834 -0.37976,2.92178 l 2.59009,1.82567 1.17325,-1.57535 c 0.64529,-0.86644 3.18161,-3.55667 5.63627,-5.97828 l 4.46301,-4.40293 -2.05888,-0.86026 c -1.13238,-0.47313 -5.25814,-1.73707 -9.16836,-2.80874 -3.9102,-1.07167 -7.2456,-2.08463 -7.41198,-2.251 -0.16638,-0.16638 0.63178,-1.2368 1.7737,-2.37871 2.06423,-2.06424 2.09267,-2.07284 4.93177,-1.49125 2.08246,0.42659 3.00045,0.4104 3.39067,-0.0598 0.37405,-0.45071 -0.39891,-1.10283 -2.56843,-2.16686 -3.67965,-1.80467 -3.2608,-1.75631 -4.60939,-0.53216 z"
     id="path74" /><path
     style="fill:#000080;stroke-width:0.565686"
     d="m 379.11116,336.47876 c -2.15201,2.15202 -0.91264,5.3646 2.0696,5.3646 3.21983,0 4.68402,-4.10332 2.10802,-5.90763 -1.73197,-1.21312 -2.52449,-1.1101 -4.17762,0.54303 z"
     id="path76" /><path
     style="fill:#000080;stroke-width:0.565686"
     d="m 358.66591,333.91295 c 0.83409,0.53309 0.98995,1.5189 0.98995,6.26145 0,3.5845 -0.21757,5.62875 -0.59907,5.62875 -1.10246,0 0.004,1.00144 1.53001,1.38435 0.89404,0.22439 1.6651,0.12303 1.8951,-0.24912 0.28199,-0.45627 0.78831,-0.44494 1.85606,0.0415 1.80188,0.82099 2.88778,0.44851 4.10403,-1.40772 1.85004,-2.82353 -1.04619,-7.12298 -4.79824,-7.12298 -0.9435,0 -1.15947,-0.36145 -1.15947,-1.94056 0,-1.56266 0.24786,-1.98829 1.2728,-2.1857 0.74091,-0.1427 0.32723,-0.28057 -0.98995,-0.32991 -1.24451,-0.0466 -2.89914,-0.22608 -3.67696,-0.3988 -1.20703,-0.26803 -1.26918,-0.22135 -0.42426,0.31868 z m 7.09935,5.7808 c 0.87821,0.87821 0.87821,4.55237 0,5.43058 -0.37335,0.37335 -1.26431,0.67882 -1.9799,0.67882 -1.19751,0 -1.30108,-0.2439 -1.30108,-3.06413 0,-2.91811 0.34737,-3.55456 2.00819,-3.67943 0.32668,-0.0246 0.89944,0.26081 1.27279,0.63416 z"
     id="path78" /><path
     style="fill:#000080;stroke-width:0.565686"
     d="m 314.40102,361.86386 c 0,0.43296 0.6364,0.94693 1.41422,1.14215 1.39463,0.35003 1.41421,0.43606 1.41421,6.21487 0,5.44629 -0.0898,5.92032 -1.27279,6.7156 -1.57703,1.06023 -1.18938,1.49717 1.93585,2.182 1.34652,0.29505 2.89369,0.67144 3.43816,0.83641 0.79284,0.24022 0.98995,-0.0455 0.98995,-1.43524 0,-2.17193 0.49416,-2.17933 2.54558,-0.0382 1.62936,1.70069 3.27747,2.11187 4.74347,1.18343 0.8727,-0.55268 0.57413,-2.53423 -0.62986,-4.18031 -0.68,-0.92969 -0.91208,-0.94625 -2.70363,-0.19296 -3.74142,1.57315 -4.66201,-0.54913 -3.59979,-8.29882 0.31251,-2.28 0.55325,-2.63899 1.9799,-2.95233 0.89327,-0.19619 1.62413,-0.71833 1.62413,-1.1603 0,-0.6433 -1.18475,-0.80358 -5.9397,-0.80358 -4.69696,0 -5.9397,0.1647 -5.9397,0.7872 z"
     id="path84" /><path
     style="fill:#000080;stroke-width:0.565686"
     d="m 341.55392,340.04765 c 0,0.32345 0.50912,0.74968 1.13137,0.94718 0.95201,0.30215 1.13138,0.85589 1.13138,3.49275 0,2.75646 -0.11917,3.08654 -0.98995,2.74218 -3.0276,-1.19731 -4.59649,-1.01836 -6.33772,0.72286 -1.35044,1.35043 -1.7233,2.21654 -1.7233,4.00294 0,5.45664 3.41266,7.81001 10.88944,7.50935 l 2.12132,-0.0853 v -8.15617 c 0,-8.95229 0.17557,-9.94576 1.75758,-9.94576 0.58897,0 1.07085,-0.25456 1.07085,-0.56569 0,-0.31836 -1.58735,-0.56568 -3.63069,-0.56568 -1.99688,0 -4.03335,-0.15452 -4.52548,-0.34337 -0.49214,-0.18885 -0.8948,-0.0787 -0.8948,0.24472 z m 2.1442,13.25083 -0.1643,4.66691 -1.74524,0.1703 c -2.58891,0.25264 -3.40375,-1.21765 -3.15106,-5.68573 0.11209,-1.98194 1.93383,-3.81838 3.78781,-3.81838 1.43615,0 1.43698,0.003 1.27279,4.6669 z"
     id="path88" /><path
     style="fill:#000080;stroke-width:0.565686"
     d="m 304.47409,390.60693 c -1.54054,0.94942 -2.88787,1.80195 -2.99406,1.89453 -0.10619,0.0926 -0.0346,0.66754 0.15903,1.2777 0.3159,0.9953 0.58684,1.0498 2.6347,0.53 4.64738,-1.17963 9.40552,1.79504 7.95689,4.97444 -0.84524,1.85511 -2.2913,1.78336 -7.41099,-0.3677 -5.12803,-2.15457 -7.83148,-2.01986 -10.36795,0.51661 -3.3584,3.3584 -2.62216,8.04126 2.13074,13.55259 3.25013,3.76875 3.69599,3.84518 6.39406,1.09605 3.00092,-3.05771 2.60089,-4.14892 -1.1529,-3.14493 -2.23822,0.59863 -2.77784,0.563 -4.04468,-0.26707 -2.78663,-1.82587 -2.42563,-5.46903 0.54192,-5.46903 0.72466,0 3.42493,0.92656 6.00062,2.05903 4.50235,1.97956 4.77012,2.02868 6.93861,1.27279 7.01543,-2.44544 6.07966,-11.67985 -1.81738,-17.93442 l -2.16763,-1.7168 z"
     id="path90" /></g></g>
<metadata
   id="metadata34"><rdf:RDF><cc:Work><dc:format>image/svg+xml</dc:format><dc:type
         rdf:resource="http://purl.org/dc/dcmitype/StillImage" /><cc:license
         rdf:resource="http://creativecommons.org/publicdomain/zero/1.0/" /><dc:publisher><cc:Agent
           rdf:about="http://openclipart.org/"><dc:title>Openclipart</dc:title></cc:Agent></dc:publisher><dc:title>Vocabulary</dc:title><dc:date>2011-12-28T06:45:03</dc:date><dc:description /><dc:source>https://openclipart.org/detail/166649/vocabulary-by-gnak</dc:source><dc:creator><cc:Agent><dc:title>gnak</dc:title></cc:Agent></dc:creator><dc:subject><rdf:Bag><rdf:li>Vocabulario</rdf:li><rdf:li>Vocabulary</rdf:li></rdf:Bag></dc:subject></cc:Work><cc:License
       rdf:about="http://creativecommons.org/publicdomain/zero/1.0/"><cc:permits
         rdf:resource="http://creativecommons.org/ns#Reproduction" /><cc:permits
         rdf:resource="http://creativecommons.org/ns#Distribution" /><cc:permits
         rdf:resource="http://creativecommons.org/ns#DerivativeWorks" /></cc:License></rdf:RDF></metadata></svg>
