<?xml version="1.0" encoding="UTF-8" standalone="no"?>
<svg
   xmlns:dc="http://purl.org/dc/elements/1.1/"
   xmlns:cc="http://creativecommons.org/ns#"
   xmlns:rdf="http://www.w3.org/1999/02/22-rdf-syntax-ns#"
   xmlns:svg="http://www.w3.org/2000/svg"
   xmlns="http://www.w3.org/2000/svg"
   xmlns:sodipodi="http://sodipodi.sourceforge.net/DTD/sodipodi-0.dtd"
   xmlns:inkscape="http://www.inkscape.org/namespaces/inkscape"
   width="50"
   height="50"
   viewBox="0 0 13.229166 13.229167"
   version="1.1"
   id="svg40"
   inkscape:version="1.0.1 (3bc2e813f5, 2020-09-07)"
   sodipodi:docname="apostrofo-el-l-n.svg">
  <defs
     id="defs34" />
  <sodipodi:namedview
     id="base"
     pagecolor="#ffffff"
     bordercolor="#666666"
     borderopacity="1.0"
     inkscape:pageopacity="0.0"
     inkscape:pageshadow="2"
     inkscape:zoom="1.979899"
     inkscape:cx="167.24867"
     inkscape:cy="95.821411"
     inkscape:document-units="mm"
     inkscape:current-layer="layer1"
     inkscape:document-rotation="0"
     showgrid="false"
     units="px"
     inkscape:showpageshadow="false"
     inkscape:window-width="1298"
     inkscape:window-height="728"
     inkscape:window-x="52"
     inkscape:window-y="0"
     inkscape:window-maximized="0" />
  <metadata
     id="metadata37">
    <rdf:RDF>
      <cc:Work
         rdf:about="">
        <dc:format>image/svg+xml</dc:format>
        <dc:type
           rdf:resource="http://purl.org/dc/dcmitype/StillImage" />
        <dc:title></dc:title>
      </cc:Work>
    </rdf:RDF>
  </metadata>
  <g
     inkscape:label="Capa 1"
     inkscape:groupmode="layer"
     id="layer1">
    <path
       id="path8"
       inkscape:connector-curvature="0"
       d="M 0.57877599,8.3246951 0.22048599,9.3572153 0,12.712907 c 0,0.322662 0.1653648,0.51626 0.44097239,0.51626 H 4.8506943 c 0.2756076,0 0.4409724,-0.193598 0.4409724,-0.51626 L 5.0711803,9.3572153 4.7128907,8.3246951 4.8506943,11.357724 5.1263019,12.971037 4.7680119,11.90625 C 4.7128907,11.744918 4.6302083,11.680386 4.5199651,11.680386 H 0.77170158 c -0.1102432,0 -0.19292559,0.06453 -0.24804719,0.225864 L 0.1653648,12.971037 0.44097239,11.357724 Z M 1.1024304,7.9375 c -0.24804682,0 -0.35828962,0.1613313 -0.35828962,0.3871951 l -0.1102432,2.7103659 c 0,0.25813 0.137804,0.387195 0.35828999,0.387195 H 4.2994791 c 0.220486,0 0.35829,-0.129065 0.35829,-0.387195 L 4.5475259,8.3246951 C 4.5475259,8.0988313 4.4372831,7.9375 4.1892359,7.9375 Z"
       style="fill:#000080;stroke-width:0.0596416" />
    <text
       xml:space="preserve"
       style="font-style:normal;font-variant:normal;font-weight:normal;font-stretch:normal;font-size:2.82223px;line-height:1.25;font-family:sans-serif;-inkscape-font-specification:'sans-serif, Normal';font-variant-ligatures:normal;font-variant-caps:normal;font-variant-numeric:normal;font-variant-east-asian:normal;fill:#ffffff;fill-opacity:1;stroke:none;stroke-width:0.105833"
       x="1.3696998"
       y="10.770556"
       id="text18"><tspan
         sodipodi:role="line"
         id="tspan43"
         x="1.3696998"
         y="10.770556">L'</tspan></text>
    <path
       id="path8-2"
       inkscape:connector-curvature="0"
       d="M 8.516276,8.3246952 8.157986,9.3572156 7.9375,12.712907 c 0,0.322662 0.165365,0.51626 0.440972,0.51626 h 4.409722 c 0.275608,0 0.440973,-0.193598 0.440973,-0.51626 L 13.00868,9.3572156 12.650391,8.3246952 l 0.137803,3.0330288 0.275608,1.613313 -0.35829,-1.064787 c -0.05512,-0.161331 -0.137804,-0.225864 -0.248047,-0.225864 H 8.709202 c -0.110244,0 -0.192926,0.06453 -0.248048,0.225864 L 8.102865,12.971037 8.378472,11.357724 Z M 9.0399299,7.9375 c -0.248046,0 -0.3582889,0.1613312 -0.3582889,0.3871952 L 8.571398,11.035061 c 0,0.25813 0.137804,0.387195 0.3582899,0.387195 h 3.3072911 c 0.220486,0 0.35829,-0.129065 0.35829,-0.387195 L 12.485026,8.3246952 c 0,-0.225864 -0.110243,-0.3871952 -0.35829,-0.3871952 z"
       style="fill:#000080;stroke-width:0.0596416" />
    <text
       xml:space="preserve"
       style="font-style:normal;font-variant:normal;font-weight:normal;font-stretch:normal;font-size:2.82223px;line-height:1.25;font-family:sans-serif;-inkscape-font-specification:'sans-serif, Normal';font-variant-ligatures:normal;font-variant-caps:normal;font-variant-numeric:normal;font-variant-east-asian:normal;fill:#ffffff;fill-opacity:1;stroke:none;stroke-width:0.105833"
       x="9.3072004"
       y="10.770557"
       id="text18-6"><tspan
         sodipodi:role="line"
         id="tspan41"
         x="9.3072004"
         y="10.770557"
         style="stroke-width:0.105833">N'</tspan></text>
    <path
       id="path8-2-6"
       inkscape:connector-curvature="0"
       d="M 4.547526,0.387195 4.189236,1.419716 3.96875,4.775407 c 0,0.322662 0.165365,0.51626 0.440972,0.51626 h 4.409722 c 0.275608,0 0.440973,-0.193598 0.440973,-0.51626 L 9.03993,1.419716 8.681641,0.387195 8.819444,3.420224 9.095052,5.033537 8.736762,3.96875 C 8.681642,3.807419 8.598958,3.742886 8.488715,3.742886 H 4.740452 c -0.110244,0 -0.192926,0.06453 -0.248048,0.225864 L 4.134115,5.033537 4.409722,3.420224 Z M 5.07118,0 C 4.823134,0 4.712891,0.161331 4.712891,0.387195 L 4.602648,3.097561 c 0,0.25813 0.137804,0.387195 0.35829,0.387195 h 3.307291 c 0.220486,0 0.35829,-0.129065 0.35829,-0.387195 L 8.516276,0.387195 C 8.516276,0.161331 8.406033,0 8.157986,0 Z"
       style="fill:#000080;stroke-width:0.0596416" />
    <text
       xml:space="preserve"
       style="font-style:normal;font-variant:normal;font-weight:normal;font-stretch:normal;font-size:2.82223px;line-height:1.25;font-family:sans-serif;-inkscape-font-specification:'sans-serif, Normal';font-variant-ligatures:normal;font-variant-caps:normal;font-variant-numeric:normal;font-variant-east-asian:normal;fill:#ffffff;fill-opacity:1;stroke:none;stroke-width:0.105833"
       x="5.33845"
       y="2.8330579"
       id="text18-6-3"><tspan
         sodipodi:role="line"
         id="tspan34"
         x="5.33845"
         y="2.8330579">EL</tspan></text>
  </g>
</svg>
