<?xml version="1.0" encoding="UTF-8" standalone="no"?>
<svg
   xmlns:dc="http://purl.org/dc/elements/1.1/"
   xmlns:cc="http://creativecommons.org/ns#"
   xmlns:rdf="http://www.w3.org/1999/02/22-rdf-syntax-ns#"
   xmlns:svg="http://www.w3.org/2000/svg"
   xmlns="http://www.w3.org/2000/svg"
   xmlns:sodipodi="http://sodipodi.sourceforge.net/DTD/sodipodi-0.dtd"
   xmlns:inkscape="http://www.inkscape.org/namespaces/inkscape"
   width="50"
   height="50"
   viewBox="0 0 13.229166 13.229167"
   version="1.1"
   id="svg40"
   inkscape:version="1.0.1 (3bc2e813f5, 2020-09-07)"
   sodipodi:docname="b.svg">
  <defs
     id="defs34" />
  <sodipodi:namedview
     id="base"
     pagecolor="#ffffff"
     bordercolor="#666666"
     borderopacity="1.0"
     inkscape:pageopacity="0.0"
     inkscape:pageshadow="2"
     inkscape:zoom="1.979899"
     inkscape:cx="101.84129"
     inkscape:cy="95.821411"
     inkscape:document-units="mm"
     inkscape:current-layer="layer1"
     inkscape:document-rotation="0"
     showgrid="false"
     units="px"
     inkscape:showpageshadow="false"
     inkscape:window-width="1298"
     inkscape:window-height="728"
     inkscape:window-x="52"
     inkscape:window-y="0"
     inkscape:window-maximized="0" />
  <metadata
     id="metadata37">
    <rdf:RDF>
      <cc:Work
         rdf:about="">
        <dc:format>image/svg+xml</dc:format>
        <dc:type
           rdf:resource="http://purl.org/dc/dcmitype/StillImage" />
        <dc:title></dc:title>
      </cc:Work>
    </rdf:RDF>
  </metadata>
  <g
     inkscape:label="Capa 1"
     inkscape:groupmode="layer"
     id="layer1">
    <path
       id="path8"
       inkscape:connector-curvature="0"
       d="M 1.44694,0.96798774 0.55121497,3.5492882 0,11.938517 c 0,0.806656 0.413412,1.29065 1.102431,1.29065 h 11.024305 c 0.689019,0 1.102431,-0.483994 1.102431,-1.29065 L 12.677951,3.5492882 11.782227,0.96798774 12.126736,8.5505592 12.815755,12.583842 11.92003,9.9218752 c -0.137803,-0.403329 -0.344509,-0.56466 -0.620117,-0.56466 H 1.9292539 c -0.275608,0 -0.4823139,0.16133 -0.6201179,0.56466 L 0.413412,12.583842 1.102431,8.5505592 Z M 2.756076,0 C 2.1359589,0 1.8603519,0.40332825 1.8603519,0.96798774 L 1.5847439,7.7439022 c 0,0.645325 0.34451,0.967988 0.895725,0.967988 h 8.2682291 c 0.551215,0 0.895725,-0.322663 0.895725,-0.967988 L 11.368815,0.96798774 C 11.368815,0.40332825 11.093208,0 10.47309,0 Z"
       style="fill:#000080;stroke-width:0.149104" />
    <text
       xml:space="preserve"
       style="font-style:normal;font-weight:normal;font-size:7.05558px;line-height:1.25;font-family:sans-serif;fill:#ffffff;fill-opacity:1;stroke:none;stroke-width:0.264583"
       x="3.9534163"
       y="7.0826426"
       id="text18"><tspan
         sodipodi:role="line"
         id="tspan16"
         x="3.9534163"
         y="7.0826426"
         style="font-size:7.05558px;fill:#ffffff;stroke-width:0.264583">B</tspan></text>
  </g>
</svg>
