<?xml version="1.0" encoding="UTF-8" standalone="no"?>
<svg
   xmlns:dc="http://purl.org/dc/elements/1.1/"
   xmlns:cc="http://creativecommons.org/ns#"
   xmlns:rdf="http://www.w3.org/1999/02/22-rdf-syntax-ns#"
   xmlns:svg="http://www.w3.org/2000/svg"
   xmlns="http://www.w3.org/2000/svg"
   xmlns:sodipodi="http://sodipodi.sourceforge.net/DTD/sodipodi-0.dtd"
   xmlns:inkscape="http://www.inkscape.org/namespaces/inkscape"
   width="50"
   height="50"
   viewBox="0 0 13.229166 13.229167"
   version="1.1"
   id="svg40"
   inkscape:version="1.0.1 (3bc2e813f5, 2020-09-07)"
   sodipodi:docname="dieresis-tecla-i-u.svg">
  <defs
     id="defs34" />
  <sodipodi:namedview
     id="base"
     pagecolor="#ffffff"
     bordercolor="#666666"
     borderopacity="1.0"
     inkscape:pageopacity="0.0"
     inkscape:pageshadow="2"
     inkscape:zoom="5.6"
     inkscape:cx="28.008366"
     inkscape:cy="26.323485"
     inkscape:document-units="mm"
     inkscape:current-layer="layer1"
     inkscape:document-rotation="0"
     showgrid="false"
     units="px"
     inkscape:showpageshadow="false"
     inkscape:window-width="1298"
     inkscape:window-height="728"
     inkscape:window-x="52"
     inkscape:window-y="0"
     inkscape:window-maximized="0" />
  <metadata
     id="metadata37">
    <rdf:RDF>
      <cc:Work
         rdf:about="">
        <dc:format>image/svg+xml</dc:format>
        <dc:type
           rdf:resource="http://purl.org/dc/dcmitype/StillImage" />
        <dc:title></dc:title>
      </cc:Work>
    </rdf:RDF>
  </metadata>
  <g
     inkscape:label="Capa 1"
     inkscape:groupmode="layer"
     id="layer1">
    <path
       id="path8"
       inkscape:connector-curvature="0"
       d="M 0.57877599,4.3559451 0.22048599,5.3884653 0,8.7441567 c 0,0.3226624 0.1653648,0.51626 0.44097239,0.51626 H 4.8506943 c 0.2756076,0 0.4409724,-0.1935976 0.4409724,-0.51626 L 5.0711803,5.3884653 4.7128907,4.3559451 4.8506943,7.3889737 5.1263019,9.0022867 4.7680119,7.9375001 C 4.7128907,7.7761685 4.6302083,7.7116361 4.5199651,7.7116361 H 0.77170158 c -0.1102432,0 -0.19292559,0.064532 -0.24804719,0.225864 L 0.1653648,9.0022867 0.44097239,7.3889737 Z M 1.1024304,3.96875 c -0.24804682,0 -0.35828962,0.1613313 -0.35828962,0.3871951 l -0.1102432,2.7103658 c 0,0.25813 0.137804,0.3871952 0.35828999,0.3871952 H 4.2994791 c 0.220486,0 0.35829,-0.1290652 0.35829,-0.3871952 L 4.5475259,4.3559451 c 0,-0.2258638 -0.1102428,-0.3871951 -0.35829,-0.3871951 z"
       style="fill:#000080;stroke-width:0.0596416" />
    <text
       xml:space="preserve"
       style="font-style:normal;font-variant:normal;font-weight:normal;font-stretch:normal;font-size:2.82223px;line-height:1.25;font-family:sans-serif;-inkscape-font-specification:'sans-serif, Normal';font-variant-ligatures:normal;font-variant-caps:normal;font-variant-numeric:normal;font-variant-east-asian:normal;fill:#ffffff;fill-opacity:1;stroke:none;stroke-width:0.105833"
       x="2.333539"
       y="6.8018069"
       id="text18"><tspan
         sodipodi:role="line"
         id="tspan13"
         x="2.333539"
         y="6.8018069">ï</tspan></text>
    <path
       id="path8-2"
       inkscape:connector-curvature="0"
       d="M 8.516276,4.3559452 8.157986,5.3884656 7.9375,8.744157 c 0,0.322662 0.165365,0.51626 0.440972,0.51626 h 4.409722 c 0.275608,0 0.440973,-0.193598 0.440973,-0.51626 L 13.00868,5.3884656 12.650391,4.3559452 12.788194,7.388974 13.063802,9.002287 12.705512,7.9375 C 12.650392,7.776169 12.567708,7.711636 12.457465,7.711636 H 8.709202 c -0.110244,0 -0.192926,0.06453 -0.248048,0.225864 L 8.102865,9.002287 8.378472,7.388974 Z M 9.0399299,3.96875 c -0.248046,0 -0.3582889,0.1613312 -0.3582889,0.3871952 L 8.571398,7.066311 c 0,0.25813 0.137804,0.387195 0.3582899,0.387195 h 3.3072911 c 0.220486,0 0.35829,-0.129065 0.35829,-0.387195 L 12.485026,4.3559452 c 0,-0.225864 -0.110243,-0.3871952 -0.35829,-0.3871952 z"
       style="fill:#000080;stroke-width:0.0596416" />
    <text
       xml:space="preserve"
       style="font-style:normal;font-variant:normal;font-weight:normal;font-stretch:normal;font-size:2.82223px;line-height:1.25;font-family:sans-serif;-inkscape-font-specification:'sans-serif, Normal';font-variant-ligatures:normal;font-variant-caps:normal;font-variant-numeric:normal;font-variant-east-asian:normal;fill:#ffffff;fill-opacity:1;stroke:none;stroke-width:0.105833"
       x="9.7418728"
       y="6.8018074"
       id="text18-6"><tspan
         sodipodi:role="line"
         id="tspan15"
         x="9.7418728"
         y="6.8018074">ü</tspan></text>
  </g>
</svg>
