<?xml version="1.0" encoding="UTF-8" standalone="no"?>
<svg
   xmlns:dc="http://purl.org/dc/elements/1.1/"
   xmlns:cc="http://creativecommons.org/ns#"
   xmlns:rdf="http://www.w3.org/1999/02/22-rdf-syntax-ns#"
   xmlns:svg="http://www.w3.org/2000/svg"
   xmlns="http://www.w3.org/2000/svg"
   xmlns:sodipodi="http://sodipodi.sourceforge.net/DTD/sodipodi-0.dtd"
   xmlns:inkscape="http://www.inkscape.org/namespaces/inkscape"
   width="50"
   height="50"
   viewBox="0 0 13.229166 13.229167"
   version="1.1"
   id="svg40"
   inkscape:version="1.0.1 (3bc2e813f5, 2020-09-07)"
   sodipodi:docname="tecla-acento.svg">
  <defs
     id="defs34" />
  <sodipodi:namedview
     id="base"
     pagecolor="#ffffff"
     bordercolor="#666666"
     borderopacity="1.0"
     inkscape:pageopacity="0.0"
     inkscape:pageshadow="2"
     inkscape:zoom="4"
     inkscape:cx="93.34632"
     inkscape:cy="9.2833194"
     inkscape:document-units="mm"
     inkscape:current-layer="layer1"
     inkscape:document-rotation="0"
     showgrid="false"
     units="px"
     inkscape:showpageshadow="false"
     inkscape:window-width="1298"
     inkscape:window-height="728"
     inkscape:window-x="52"
     inkscape:window-y="0"
     inkscape:window-maximized="0" />
  <metadata
     id="metadata37">
    <rdf:RDF>
      <cc:Work
         rdf:about="">
        <dc:format>image/svg+xml</dc:format>
        <dc:type
           rdf:resource="http://purl.org/dc/dcmitype/StillImage" />
        <dc:title />
      </cc:Work>
    </rdf:RDF>
  </metadata>
  <g
     inkscape:label="Capa 1"
     inkscape:groupmode="layer"
     id="layer1">
    <g
       id="g20"
       transform="matrix(1.0091497,0,0,1.0431457,-11.885826,-2.6446333)">
      <text
         xml:space="preserve"
         style="font-style:normal;font-weight:normal;font-size:14.314px;line-height:1.25;font-family:sans-serif;fill:#ffffff;fill-opacity:1;stroke:none;stroke-width:0.149104"
         x="15.975438"
         y="15.846381"
         id="text15"
         transform="scale(0.92421136,1.0820036)"><tspan
           sodipodi:role="line"
           id="tspan13"
           x="15.975438"
           y="15.846381"
           style="stroke-width:0.149104">´</tspan></text>
      <path
         style="fill:#000080;stroke-width:0.0661458"
         d="m 13.836839,11.083622 c -0.08744,-0.04494 -0.221389,-0.166011 -0.297656,-0.26905 -0.128417,-0.173493 -0.137214,-0.259069 -0.119,-1.1575521 0.01082,-0.5336151 0.07259,-2.2250918 0.137267,-3.7588372 0.127476,-3.0228275 0.121554,-2.9857945 0.519072,-3.2462575 0.165335,-0.108332 0.474156,-0.116677 4.318003,-0.116677 3.898509,0 4.150693,0.007 4.324449,0.1209 0.348364,0.228256 0.358284,0.307936 0.514693,4.1339783 0.162439,3.9735425 0.160458,4.0102655 -0.229073,4.2477775 -0.203946,0.124353 -0.365902,0.128856 -4.610069,0.128153 -3.359859,-5.29e-4 -4.436246,-0.02002 -4.557686,-0.08244 z m 5.444413,-4.4163379 c 0.567326,-0.7651279 1.031502,-1.4199719 1.031502,-1.4552079 0,-0.03698 -0.274652,-0.06407 -0.649514,-0.06407 h -0.649515 l -0.888376,1.398097 c -0.488607,0.7689533 -0.898298,1.423797 -0.910425,1.4552083 -0.01213,0.031412 0.215749,0.057112 0.506389,0.057112 h 0.528437 z"
         id="path11" />
      <path
         style="fill:#000080;stroke-width:0.0661458"
         d="m 12.273553,15.088355 c -0.25851,-0.157623 -0.412499,-0.383289 -0.486602,-0.713098 -0.03713,-0.165247 0.04223,-1.705501 0.234359,-4.5488649 L 12.311805,5.5273717 12.68863,4.4506185 c 0.207253,-0.592214 0.385772,-1.067805 0.396708,-1.056869 0.01094,0.01093 -0.05363,1.626568 -0.143475,3.5902942 l -0.163358,3.5704113 -0.331098,1.947431 c -0.182104,1.071086 -0.321161,1.993821 -0.309015,2.05052 0.01214,0.0567 0.240862,-0.550054 0.508258,-1.348341 0.321805,-0.96072 0.53777,-1.503026 0.63878,-1.604037 l 0.152604,-0.152604 h 4.869814 4.869813 l 0.182558,0.182558 c 0.137857,0.137856 0.292498,0.514422 0.631557,1.53789 0.246949,0.745433 0.47889,1.385099 0.515425,1.421479 0.04443,0.04424 0.05434,0.01138 0.02994,-0.09922 -0.02007,-0.09095 -0.185567,-1.073216 -0.367771,-2.182813 L 23.838091,10.289872 23.692719,6.8973815 c -0.07995,-1.86587 -0.133304,-3.404556 -0.118557,-3.419304 0.01475,-0.01475 0.19716,0.470076 0.40536,1.077386 l 0.378546,1.1041998 0.264607,4.023411 c 0.145533,2.2128757 0.264606,4.1754507 0.264606,4.3612777 0,0.425095 -0.211429,0.878303 -0.488586,1.047309 -0.198181,0.120846 -0.42663,0.12558 -6.059851,0.12558 -5.685935,0 -5.859971,-0.0037 -6.065286,-0.128886 z"
         id="path13" />
    </g>
  </g>
</svg>
