<?xml version="1.0" encoding="UTF-8" standalone="no"?>
<svg
   xmlns:dc="http://purl.org/dc/elements/1.1/"
   xmlns:cc="http://creativecommons.org/ns#"
   xmlns:rdf="http://www.w3.org/1999/02/22-rdf-syntax-ns#"
   xmlns:svg="http://www.w3.org/2000/svg"
   xmlns="http://www.w3.org/2000/svg"
   xmlns:sodipodi="http://sodipodi.sourceforge.net/DTD/sodipodi-0.dtd"
   xmlns:inkscape="http://www.inkscape.org/namespaces/inkscape"
   id="svg4793"
   sodipodi:docname="examen_superior.svg"
   viewBox="0 0 50 50.000002"
   version="1.1"
   inkscape:version="1.0.1 (3bc2e813f5, 2020-09-07)"
   width="50"
   height="50">
  <defs
     id="defs8" />
  <sodipodi:namedview
     id="base"
     bordercolor="#666666"
     inkscape:pageshadow="2"
     inkscape:window-y="-8"
     fit-margin-left="0"
     pagecolor="#ffffff"
     fit-margin-top="0"
     inkscape:window-maximized="1"
     inkscape:zoom="8"
     inkscape:window-x="-8"
     inkscape:window-height="705"
     showgrid="false"
     borderopacity="1.0"
     inkscape:current-layer="layer1"
     inkscape:cx="47.503893"
     inkscape:cy="23.17188"
     fit-margin-right="0"
     fit-margin-bottom="0"
     inkscape:window-width="1366"
     inkscape:pageopacity="0.0"
     inkscape:document-units="px"
     inkscape:document-rotation="0"
     showborder="false" />
  <g
     id="layer1"
     inkscape:label="Layer 1"
     inkscape:groupmode="layer"
     transform="translate(-387.33,-540.38)">
    <path
       style="fill:#000080;stroke-width:0.219513"
       d="m 398.74859,589.40615 -0.93533,-0.97385 -0.14102,-2.49362 -0.14102,-2.49363 -2.65556,-1.54036 c -2.17956,-1.26425 -2.89529,-1.81765 -3.99296,-3.08734 -2.12927,-2.46297 -2.11633,-2.39579 -2.95143,-15.32129 -0.3882,-6.00844 -0.65468,-11.55648 -0.59218,-12.32897 0.28614,-3.53657 2.61229,-6.85578 5.52325,-7.8812 1.20096,-0.42306 30.92165,-3.00996 33.34828,-2.90265 1.4733,0.0652 1.93315,0.19377 3.1017,0.86754 1.16441,0.67138 1.72639,1.24617 3.71506,3.7998 2.21091,2.83902 3.15216,4.45201 3.55331,6.0892 0.21856,0.89196 0.85316,20.79542 0.73471,23.04324 -0.20011,3.79774 -2.40854,6.91358 -5.53696,7.812 -0.8753,0.25137 -4.1612,0.45387 -11.86278,0.73104 -5.85868,0.21085 -11.0358,0.43795 -11.50472,0.50465 -0.71359,0.10151 -1.49448,0.69418 -4.7898,3.63529 l -3.93722,3.514 z m 3.24144,-6.31733 c 2.00448,-1.9497 3.3429,-3.08734 3.63223,-3.08734 0.25198,0 5.46563,-0.42847 11.5859,-0.95215 11.75829,-1.0061 12.40958,-1.1174 13.9912,-2.39109 1.99803,-1.60904 2.9699,-3.9051 2.95766,-6.98749 -0.015,-3.77764 -1.27056,-21.76411 -1.59808,-22.89343 -1.00612,-3.46922 -3.49884,-5.48638 -6.77984,-5.48638 -2.23216,0 -31.78118,2.55684 -32.55029,2.81653 -2.65522,0.89655 -4.78312,3.8127 -5.07462,6.95445 -0.0649,0.69971 0.20138,6.27098 0.59177,12.38058 0.79649,12.46491 0.80645,12.52223 2.56493,14.75518 1.30294,1.65451 2.72085,2.35925 4.97934,2.47486 l 1.86097,0.0953 0.1272,1.57611 c 0.07,0.86686 0.12785,2.08374 0.12864,2.70418 8.1e-4,0.62043 0.0931,1.12806 0.20517,1.12806 0.11205,0 1.63207,-1.3893 3.37782,-3.08734 z"
       id="path10" />
    <text
       xml:space="preserve"
       style="font-style:normal;font-weight:normal;font-size:10.453px;line-height:1.25;font-family:sans-serif;text-align:center;text-anchor:middle;fill:#000000;fill-opacity:1;stroke:none;stroke-width:0.97997"
       x="180.59682"
       y="696.9939"
       id="text10"
       transform="matrix(0.98262213,-0.3678871,0.3341733,0.89257297,0,0)"><tspan
         sodipodi:role="line"
         id="tspan8"
         x="180.59682"
         y="696.9939"
         style="font-size:7.83976px;text-align:center;text-anchor:middle;stroke-width:0.97997">Examen</tspan><tspan
         sodipodi:role="line"
         x="180.59682"
         y="710.06012"
         id="tspan12"
         style="font-size:7.83976px;text-align:center;text-anchor:middle;stroke-width:0.97997">Superior</tspan></text>
    <text
       xml:space="preserve"
       style="font-style:normal;font-weight:normal;font-size:40px;line-height:1.25;font-family:sans-serif;fill:#000000;fill-opacity:1;stroke:none"
       x="421.20499"
       y="577.38"
       id="text844"><tspan
         sodipodi:role="line"
         id="tspan842"
         x="421.20499"
         y="577.38" /></text>
  </g>
  <metadata
     id="metadata5">
    <rdf:RDF>
      <cc:Work>
        <dc:format>image/svg+xml</dc:format>
        <dc:type
           rdf:resource="http://purl.org/dc/dcmitype/StillImage" />
        <cc:license
           rdf:resource="http://creativecommons.org/publicdomain/zero/1.0/" />
        <dc:publisher>
          <cc:Agent
             rdf:about="http://openclipart.org/">
            <dc:title>Openclipart</dc:title>
          </cc:Agent>
        </dc:publisher>
        <dc:title></dc:title>
        <dc:date>2011-08-08T04:22:26</dc:date>
        <dc:description>Talk Bubble</dc:description>
        <dc:source>https://openclipart.org/detail/154093/talk-bubble-by-printerkiller</dc:source>
        <dc:creator>
          <cc:Agent>
            <dc:title>PrinterKiller</dc:title>
          </cc:Agent>
        </dc:creator>
        <dc:subject>
          <rdf:Bag>
            <rdf:li>talk bubble text comics 3d</rdf:li>
          </rdf:Bag>
        </dc:subject>
      </cc:Work>
      <cc:License
         rdf:about="http://creativecommons.org/publicdomain/zero/1.0/">
        <cc:permits
           rdf:resource="http://creativecommons.org/ns#Reproduction" />
        <cc:permits
           rdf:resource="http://creativecommons.org/ns#Distribution" />
        <cc:permits
           rdf:resource="http://creativecommons.org/ns#DerivativeWorks" />
      </cc:License>
    </rdf:RDF>
  </metadata>
</svg>
